  0
SECTION
  2
HEADER
  9
$ACADVER
  1
AC1009
  9
$INSBASE
 10
0.0
 20
0.0
 30
0.0
  9
$EXTMIN
 10
4917.1078219999999
 20
-24.365804000000001
 30
0.0
  9
$EXTMAX
 10
11236.345131
 20
6708.7521699999998
 30
0.0
  9
$LIMMIN
 10
0.0
 20
0.0
  9
$LIMMAX
 10
6000.0
 20
2000.0
  9
$ORTHOMODE
 70
     1
  9
$REGENMODE
 70
     1
  9
$FILLMODE
 70
     1
  9
$QTEXTMODE
 70
     0
  9
$MIRRTEXT
 70
     1
  9
$DRAGMODE
 70
     2
  9
$LTSCALE
 40
222.22222199999999
  9
$OSMODE
 70
    37
  9
$ATTMODE
 70
     1
  9
$TEXTSIZE
 40
44.444443999999997
  9
$TRACEWID
 40
0.05
  9
$TEXTSTYLE
  7
STANDARD
  9
$CLAYER
  8
0
  9
$CELTYPE
  6
BYLAYER
  9
$CECOLOR
 62
   256
  9
$DIMSCALE
 40
222.22222199999999
  9
$DIMASZ
 40
0.18
  9
$DIMEXO
 40
0.0625
  9
$DIMDLI
 40
0.38
  9
$DIMRND
 40
0.0
  9
$DIMDLE
 40
0.0
  9
$DIMEXE
 40
0.18
  9
$DIMTP
 40
0.0
  9
$DIMTM
 40
0.0
  9
$DIMTXT
 40
0.18
  9
$DIMCEN
 40
0.09
  9
$DIMTSZ
 40
0.0
  9
$DIMTOL
 70
     0
  9
$DIMLIM
 70
     0
  9
$DIMTIH
 70
     1
  9
$DIMTOH
 70
     1
  9
$DIMSE1
 70
     0
  9
$DIMSE2
 70
     0
  9
$DIMTAD
 70
     0
  9
$DIMZIN
 70
     0
  9
$DIMBLK
  1

  9
$DIMASO
 70
     1
  9
$DIMSHO
 70
     1
  9
$DIMPOST
  1

  9
$DIMAPOST
  1

  9
$DIMALT
 70
     0
  9
$DIMALTD
 70
     2
  9
$DIMALTF
 40
25.399999999999999
  9
$DIMLFAC
 40
1.0
  9
$DIMTOFL
 70
     0
  9
$DIMTVP
 40
0.0
  9
$DIMTIX
 70
     0
  9
$DIMSOXD
 70
     0
  9
$DIMSAH
 70
     0
  9
$DIMBLK1
  1

  9
$DIMBLK2
  1

  9
$DIMSTYLE
  2
STANDARD_WS
  9
$DIMCLRD
 70
     0
  9
$DIMCLRE
 70
     0
  9
$DIMCLRT
 70
     0
  9
$DIMTFAC
 40
1.0
  9
$DIMGAP
 40
0.09
  9
$LUNITS
 70
     2
  9
$LUPREC
 70
     2
  9
$SKETCHINC
 40
0.1
  9
$FILLETRAD
 40
111.11111099999999
  9
$AUNITS
 70
     0
  9
$AUPREC
 70
     0
  9
$MENU
  1
.
  9
$ELEVATION
 40
0.0
  9
$PELEVATION
 40
0.0
  9
$THICKNESS
 40
0.0
  9
$LIMCHECK
 70
     0
  9
$BLIPMODE
 70
     0
  9
$CHAMFERA
 40
111.11111099999999
  9
$CHAMFERB
 40
111.11111099999999
  9
$SKPOLY
 70
     1
  9
$TDCREATE
 40
2455761.9377605901
  9
$TDUPDATE
 40
2455432.8776715281
  9
$TDINDWG
 40
0.0029117245
  9
$TDUSRTIMER
 40
0.0029116551
  9
$USRTIMER
 70
     1
  9
$ANGBASE
 50
0.0
  9
$ANGDIR
 70
     0
  9
$PDMODE
 70
     0
  9
$PDSIZE
 40
0.0
  9
$PLINEWID
 40
0.0
  9
$COORDS
 70
     1
  9
$SPLFRAME
 70
     0
  9
$SPLINETYPE
 70
     6
  9
$SPLINESEGS
 70
     8
  9
$ATTDIA
 70
     0
  9
$ATTREQ
 70
     1
  9
$HANDLING
 70
     1
  9
$HANDSEED
  5
422
  9
$SURFTAB1
 70
     6
  9
$SURFTAB2
 70
     6
  9
$SURFTYPE
 70
     6
  9
$SURFU
 70
     6
  9
$SURFV
 70
     6
  9
$UCSNAME
  2

  9
$UCSORG
 10
0.0
 20
0.0
 30
0.0
  9
$UCSXDIR
 10
1.0
 20
0.0
 30
0.0
  9
$UCSYDIR
 10
0.0
 20
1.0
 30
0.0
  9
$PUCSNAME
  2

  9
$PUCSORG
 10
0.0
 20
0.0
 30
0.0
  9
$PUCSXDIR
 10
1.0
 20
0.0
 30
0.0
  9
$PUCSYDIR
 10
0.0
 20
1.0
 30
0.0
  9
$USERI1
 70
     0
  9
$USERI2
 70
     0
  9
$USERI3
 70
     0
  9
$USERI4
 70
     0
  9
$USERI5
 70
     0
  9
$USERR1
 40
0.0
  9
$USERR2
 40
0.0
  9
$USERR3
 40
0.0
  9
$USERR4
 40
0.0
  9
$USERR5
 40
0.0
  9
$WORLDVIEW
 70
     1
  9
$SHADEDGE
 70
     3
  9
$SHADEDIF
 70
    70
  9
$TILEMODE
 70
     1
  9
$MAXACTVP
 70
    48
  9
$PLIMCHECK
 70
     0
  9
$PEXTMIN
 10
1.0000000000000000E+020
 20
1.0000000000000000E+020
 30
1.0000000000000000E+020
  9
$PEXTMAX
 10
-1.0000000000000000E+020
 20
-1.0000000000000000E+020
 30
-1.0000000000000000E+020
  9
$PLIMMIN
 10
0.0
 20
0.0
  9
$PLIMMAX
 10
12.0
 20
9.0
  9
$UNITMODE
 70
     0
  9
$VISRETAIN
 70
     1
  9
$PLINEGEN
 70
     0
  9
$PSLTSCALE
 70
     1
  0
ENDSEC
  0
SECTION
  2
TABLES
  0
TABLE
  2
VPORT
 70
     1
  0
VPORT
  2
*ACTIVE
 70
     0
 10
0.0
 20
0.0
 11
1.0
 21
1.0
 12
11001.11455200811
 22
6560.733942884176
 13
0.0
 23
0.0
 14
111.0
 24
111.0
 15
111.0
 25
111.0
 16
0.0
 26
0.0
 36
1.0
 17
0.0
 27
0.0
 37
0.0
 40
289.53702632494969
 41
2.3427152317880791
 42
50.0
 43
0.0
 44
0.0
 50
0.0
 51
0.0
 71
     0
 72
   100
 73
     1
 74
     1
 75
     0
 76
     0
 77
     0
 78
     0
  0
ENDTAB
  0
TABLE
  2
LTYPE
 70
     1
  0
LTYPE
  2
CONTINUOUS
 70
     0
  3
Solid line
 72
    65
 73
     0
 40
0.0
  0
ENDTAB
  0
TABLE
  2
LAYER
 70
     2
  0
LAYER
  2
0
 70
     0
 62
     7
  6
CONTINUOUS
  0
LAYER
  2
LAYER1
 70
     0
 62
     1
  6
CONTINUOUS
  0
ENDTAB
  0
TABLE
  2
STYLE
 70
     2
  0
STYLE
  2
STANDARD
 70
     0
 40
0.0
 41
1.0
 50
0.0
 71
     0
 42
44.444443999999997
  3
txt
  4

  0
ENDTAB
  0
TABLE
  2
VIEW
 70
     0
  0
ENDTAB
  0
TABLE
  2
UCS
 70
     0
  0
ENDTAB
  0
TABLE
  2
APPID
 70
     6
  0
APPID
  2
ACAD
 70
     0
  0
APPID
  2
ACAD_MLEADERVER
 70
     0
  0
APPID
  2
ACAUTHENVIRON
 70
     0
  0
APPID
  2
ACDBDYNAMICBLOCKTRUENAME
 70
     0
  0
APPID
  2
ACDBDYNAMICBLOCKGUID
 70
     0
  0
APPID
  2
ACDBBLOCKREPETAG
 70
     0
  0
ENDTAB
  0
TABLE
  2
DIMSTYLE
 70
     2
  0
DIMSTYLE
  2
STANDARD_WS
 70
     0
  3

  4

  5

  6

  7

 40
222.22222199999999
 41
0.18
 42
0.0625
 43
0.38
 44
0.18
 45
0.0
 46
0.0
 47
0.0
 48
0.0
140
0.18
141
0.09
142
0.0
143
25.399999999999999
144
1.0
145
0.0
146
1.0
147
0.09
 71
     0
 72
     0
 73
     1
 74
     1
 75
     0
 76
     0
 77
     0
 78
     0
170
     0
171
     2
172
     0
173
     0
174
     0
175
     0
176
     0
177
     0
178
     0
  0
ENDTAB
  0
ENDSEC
  0
SECTION
  2
BLOCKS
  0
BLOCK
  8
0
  2
$MODEL_SPACE
 70
     0
 10
0.0
 20
0.0
 30
0.0
  3
$MODEL_SPACE
  1

  0
ENDBLK
  5
6
  8
0
  0
BLOCK
 67
     1
  8
0
  2
$PAPER_SPACE
 70
     0
 10
0.0
 20
0.0
 30
0.0
  3
$PAPER_SPACE
  1

  0
ENDBLK
  5
9
 67
     1
  8
0
  0
BLOCK
  8
0
  2
*U0
 70
     1
 10
0.0
 20
0.0
 30
0.0
  3
*U0
  1

  0
POLYLINE
  5
A7
  8
LAYER1
 66
     1
 10
0.0
 20
0.0
 30
0.0
1001
ACDBBLOCKREPETAG
1070
     1
1071
        0
1005
A7
  0
VERTEX
  5
21E
  8
LAYER1
 10
7727.1078219999999
 20
985.63419600000009
 30
0.0
  0
VERTEX
  5
21F
  8
LAYER1
 10
7730.1078219999999
 20
985.63419600000009
 30
0.0
  0
SEQEND
  5
220
  8
LAYER1
  0
POLYLINE
  5
A8
  8
LAYER1
 66
     1
 10
0.0
 20
0.0
 30
0.0
1001
ACDBBLOCKREPETAG
1070
     1
1071
        1
1005
A8
  0
VERTEX
  5
221
  8
LAYER1
 10
7566.0252209999999
 20
928.59094500000003
 30
0.0
  0
VERTEX
  5
222
  8
LAYER1
 10
7617.1078219999999
 20
900.63419599999997
 30
0.0
  0
VERTEX
  5
223
  8
LAYER1
 10
7667.1078219999999
 20
975.63419599999997
 30
0.0
  0
VERTEX
  5
224
  8
LAYER1
 10
7717.1078219999999
 20
975.63419599999997
 30
0.0
  0
VERTEX
  5
225
  8
LAYER1
 10
7717.1078219999999
 20
725.63419599999997
 30
0.0
  0
VERTEX
  5
226
  8
LAYER1
 10
7667.1078219999999
 20
725.63419599999997
 30
0.0
  0
VERTEX
  5
227
  8
LAYER1
 10
7617.1078219999999
 20
800.63419599999997
 30
0.0
  0
VERTEX
  5
228
  8
LAYER1
 10
7117.1078219999999
 20
800.63419599999997
 30
0.0
  0
VERTEX
  5
229
  8
LAYER1
 10
7117.1078219999999
 20
900.63419599999997
 30
0.0
  0
VERTEX
  5
22A
  8
LAYER1
 10
7617.1078219999999
 20
900.63419599999997
 30
0.0
  0
SEQEND
  5
22B
  8
LAYER1
  0
POLYLINE
  5
A9
  8
LAYER1
 66
     1
 10
0.0
 20
0.0
 30
0.0
1001
ACDBBLOCKREPETAG
1070
     1
1071
        2
1005
A9
  0
VERTEX
  5
22C
  8
LAYER1
 10
7617.1078219999999
 20
800.63419599999997
 30
0.0
  0
VERTEX
  5
22D
  8
LAYER1
 10
7617.1078219999999
 20
700.63419599999997
 30
0.0
  0
VERTEX
  5
22E
  8
LAYER1
 10
7117.1078219999999
 20
700.63419599999997
 30
0.0
  0
VERTEX
  5
22F
  8
LAYER1
 10
7067.1078219999999
 20
625.63419599999997
 30
0.0
  0
VERTEX
  5
230
  8
LAYER1
 10
7017.107821999999
 20
625.63419599999997
 30
0.0
  0
VERTEX
  5
231
  8
LAYER1
 10
7017.107821999999
 20
875.63419599999997
 30
0.0
  0
VERTEX
  5
232
  8
LAYER1
 10
7067.1078219999999
 20
875.63419599999997
 30
0.0
  0
VERTEX
  5
233
  8
LAYER1
 10
7117.1078219999999
 20
800.63419599999997
 30
0.0
  0
SEQEND
  5
234
  8
LAYER1
  0
POLYLINE
  5
AA
  8
LAYER1
 66
     1
 10
0.0
 20
0.0
 30
0.0
1001
ACDBBLOCKREPETAG
1070
     1
1071
        3
1005
AA
  0
VERTEX
  5
235
  8
LAYER1
 10
7717.1078219999999
 20
725.63419599999997
 30
0.0
  0
VERTEX
  5
236
  8
LAYER1
 10
7717.1078219999999
 20
475.63419599999992
 30
0.0
  0
VERTEX
  5
237
  8
LAYER1
 10
7667.1078219999999
 20
475.63419599999992
 30
0.0
  0
VERTEX
  5
238
  8
LAYER1
 10
7617.1078219999999
 20
550.63419599999986
 30
0.0
  0
VERTEX
  5
239
  8
LAYER1
 10
7117.1078219999999
 20
550.63419599999986
 30
0.0
  0
VERTEX
  5
23A
  8
LAYER1
 10
7117.1078219999999
 20
650.63419599999997
 30
0.0
  0
VERTEX
  5
23B
  8
LAYER1
 10
7617.1078219999999
 20
650.63419599999997
 30
0.0
  0
VERTEX
  5
23C
  8
LAYER1
 10
7667.1078219999999
 20
725.63419599999997
 30
0.0
  0
SEQEND
  5
23D
  8
LAYER1
  0
POLYLINE
  5
AB
  8
LAYER1
 66
     1
 10
0.0
 20
0.0
 30
0.0
1001
ACDBBLOCKREPETAG
1070
     1
1071
        4
1005
AB
  0
VERTEX
  5
23E
  8
LAYER1
 10
7117.1078219999999
 20
550.63419599999986
 30
0.0
  0
VERTEX
  5
23F
  8
LAYER1
 10
7067.1078219999999
 20
625.63419599999997
 30
0.0
  0
SEQEND
  5
240
  8
LAYER1
  0
POLYLINE
  5
AC
  8
LAYER1
 66
     1
 10
0.0
 20
0.0
 30
0.0
1001
ACDBBLOCKREPETAG
1070
     1
1071
        5
1005
AC
  0
VERTEX
  5
241
  8
LAYER1
 10
7017.107821999999
 20
625.63419599999997
 30
0.0
  0
VERTEX
  5
242
  8
LAYER1
 10
7017.107821999999
 20
375.63419599999997
 30
0.0
  0
VERTEX
  5
243
  8
LAYER1
 10
7067.1078219999999
 20
375.63419599999997
 30
0.0
  0
VERTEX
  5
244
  8
LAYER1
 10
7117.1078219999999
 20
450.63419599999992
 30
0.0
  0
VERTEX
  5
245
  8
LAYER1
 10
7617.1078219999999
 20
450.63419599999992
 30
0.0
  0
VERTEX
  5
246
  8
LAYER1
 10
7617.1078219999999
 20
550.63419599999986
 30
0.0
  0
SEQEND
  5
247
  8
LAYER1
  0
POLYLINE
  5
AD
  8
LAYER1
 66
     1
 10
0.0
 20
0.0
 30
0.0
1001
ACDBBLOCKREPETAG
1070
     1
1071
        6
1005
AD
  0
VERTEX
  5
248
  8
LAYER1
 10
7717.1078219999999
 20
475.63419599999992
 30
0.0
  0
VERTEX
  5
249
  8
LAYER1
 10
7717.1078219999999
 20
225.634196
 30
0.0
  0
VERTEX
  5
24A
  8
LAYER1
 10
7667.1078219999999
 20
225.634196
 30
0.0
  0
VERTEX
  5
24B
  8
LAYER1
 10
7617.1078219999999
 20
300.63419599999997
 30
0.0
  0
VERTEX
  5
24C
  8
LAYER1
 10
7117.1078219999999
 20
300.63419599999997
 30
0.0
  0
VERTEX
  5
24D
  8
LAYER1
 10
7117.1078219999999
 20
400.63419599999992
 30
0.0
  0
VERTEX
  5
24E
  8
LAYER1
 10
7617.1078219999999
 20
400.63419599999992
 30
0.0
  0
VERTEX
  5
24F
  8
LAYER1
 10
7667.1078219999999
 20
475.63419599999992
 30
0.0
  0
SEQEND
  5
250
  8
LAYER1
  0
POLYLINE
  5
AE
  8
LAYER1
 66
     1
 10
0.0
 20
0.0
 30
0.0
1001
ACDBBLOCKREPETAG
1070
     1
1071
        7
1005
AE
  0
VERTEX
  5
251
  8
LAYER1
 10
7117.1078219999999
 20
300.63419599999997
 30
0.0
  0
VERTEX
  5
252
  8
LAYER1
 10
7067.1078219999999
 20
375.63419599999997
 30
0.0
  0
SEQEND
  5
253
  8
LAYER1
  0
POLYLINE
  5
AF
  8
LAYER1
 66
     1
 10
0.0
 20
0.0
 30
0.0
1001
ACDBBLOCKREPETAG
1070
     1
1071
        8
1005
AF
  0
VERTEX
  5
254
  8
LAYER1
 10
7617.1078219999999
 20
300.63419599999997
 30
0.0
  0
VERTEX
  5
255
  8
LAYER1
 10
7617.1078219999999
 20
200.634196
 30
0.0
  0
VERTEX
  5
256
  8
LAYER1
 10
7117.1078219999999
 20
200.634196
 30
0.0
  0
VERTEX
  5
257
  8
LAYER1
 10
7067.1078219999999
 20
125.634196
 30
0.0
  0
VERTEX
  5
258
  8
LAYER1
 10
7017.107821999999
 20
125.634196
 30
0.0
  0
VERTEX
  5
259
  8
LAYER1
 10
7017.107821999999
 20
375.63419599999997
 30
0.0
  0
SEQEND
  5
25A
  8
LAYER1
  0
POLYLINE
  5
B0
  8
LAYER1
 66
     1
 10
0.0
 20
0.0
 30
0.0
1001
ACDBBLOCKREPETAG
1070
     1
1071
        9
1005
B0
  0
VERTEX
  5
25B
  8
LAYER1
 10
7717.1078219999999
 20
225.634196
 30
0.0
  0
VERTEX
  5
25C
  8
LAYER1
 10
7717.1078219999999
 20
-24.365804000000001
 30
0.0
  0
VERTEX
  5
25D
  8
LAYER1
 10
7667.1078219999999
 20
-24.365804000000001
 30
0.0
  0
VERTEX
  5
25E
  8
LAYER1
 10
7617.1078219999999
 20
50.634196000000003
 30
0.0
  0
VERTEX
  5
25F
  8
LAYER1
 10
7117.1078219999999
 20
50.634196000000003
 30
0.0
  0
VERTEX
  5
260
  8
LAYER1
 10
7117.1078219999999
 20
150.634196
 30
0.0
  0
VERTEX
  5
261
  8
LAYER1
 10
7617.1078219999999
 20
150.634196
 30
0.0
  0
VERTEX
  5
262
  8
LAYER1
 10
7667.1078219999999
 20
225.634196
 30
0.0
  0
SEQEND
  5
263
  8
LAYER1
  0
POLYLINE
  5
B1
  8
LAYER1
 66
     1
 10
0.0
 20
0.0
 30
0.0
1001
ACDBBLOCKREPETAG
1070
     1
1071
       10
1005
B1
  0
VERTEX
  5
264
  8
LAYER1
 10
7017.107821999999
 20
125.634196
 30
0.0
  0
VERTEX
  5
265
  8
LAYER1
 10
6967.1078219999999
 20
125.634196
 30
0.0
  0
VERTEX
  5
266
  8
LAYER1
 10
6917.1078219999999
 20
200.634196
 30
0.0
  0
VERTEX
  5
267
  8
LAYER1
 10
6417.1078219999999
 20
200.634196
 30
0.0
  0
VERTEX
  5
268
  8
LAYER1
 10
6417.1078219999999
 20
300.63419599999997
 30
0.0
  0
VERTEX
  5
269
  8
LAYER1
 10
6367.1078219999999
 20
225.634196
 30
0.0
  0
VERTEX
  5
26A
  8
LAYER1
 10
6417.1078219999999
 20
150.634196
 30
0.0
  0
VERTEX
  5
26B
  8
LAYER1
 10
6917.1078219999999
 20
150.634196
 30
0.0
  0
VERTEX
  5
26C
  8
LAYER1
 10
6917.1078219999999
 20
50.634196000000003
 30
0.0
  0
VERTEX
  5
26D
  8
LAYER1
 10
6417.1078219999999
 20
50.634196000000003
 30
0.0
  0
VERTEX
  5
26E
  8
LAYER1
 10
6367.1078219999999
 20
-24.365804000000001
 30
0.0
  0
VERTEX
  5
26F
  8
LAYER1
 10
6317.1078219999999
 20
-24.365804000000001
 30
0.0
  0
VERTEX
  5
270
  8
LAYER1
 10
6317.1078219999999
 20
225.634196
 30
0.0
  0
VERTEX
  5
271
  8
LAYER1
 10
6367.1078219999999
 20
225.634196
 30
0.0
  0
SEQEND
  5
272
  8
LAYER1
  0
POLYLINE
  5
B2
  8
LAYER1
 66
     1
 10
0.0
 20
0.0
 30
0.0
1001
ACDBBLOCKREPETAG
1070
     1
1071
       11
1005
B2
  0
VERTEX
  5
273
  8
LAYER1
 10
6417.1078219999999
 20
300.63419599999997
 30
0.0
  0
VERTEX
  5
274
  8
LAYER1
 10
6917.1078219999999
 20
300.63419599999997
 30
0.0
  0
VERTEX
  5
275
  8
LAYER1
 10
6967.1078219999999
 20
375.63419599999997
 30
0.0
  0
VERTEX
  5
276
  8
LAYER1
 10
7017.107821999999
 20
375.63419599999997
 30
0.0
  0
SEQEND
  5
277
  8
LAYER1
  0
POLYLINE
  5
B3
  8
LAYER1
 66
     1
 10
0.0
 20
0.0
 30
0.0
1001
ACDBBLOCKREPETAG
1070
     1
1071
       12
1005
B3
  0
VERTEX
  5
278
  8
LAYER1
 10
6917.1078219999999
 20
300.63419599999997
 30
0.0
  0
VERTEX
  5
279
  8
LAYER1
 10
6917.1078219999999
 20
400.63419599999992
 30
0.0
  0
VERTEX
  5
27A
  8
LAYER1
 10
6417.1078219999999
 20
400.63419599999992
 30
0.0
  0
VERTEX
  5
27B
  8
LAYER1
 10
6367.1078219999999
 20
475.63419599999992
 30
0.0
  0
VERTEX
  5
27C
  8
LAYER1
 10
6317.1078219999999
 20
475.63419599999992
 30
0.0
  0
VERTEX
  5
27D
  8
LAYER1
 10
6317.1078219999999
 20
225.634196
 30
0.0
  0
SEQEND
  5
27E
  8
LAYER1
  0
POLYLINE
  5
B4
  8
LAYER1
 66
     1
 10
0.0
 20
0.0
 30
0.0
1001
ACDBBLOCKREPETAG
1070
     1
1071
       13
1005
B4
  0
VERTEX
  5
27F
  8
LAYER1
 10
6967.1078219999999
 20
375.63419599999997
 30
0.0
  0
VERTEX
  5
280
  8
LAYER1
 10
6917.1078219999999
 20
450.63419599999992
 30
0.0
  0
VERTEX
  5
281
  8
LAYER1
 10
6417.1078219999999
 20
450.63419599999992
 30
0.0
  0
VERTEX
  5
282
  8
LAYER1
 10
6417.1078219999999
 20
550.63419599999986
 30
0.0
  0
VERTEX
  5
283
  8
LAYER1
 10
6917.1078219999999
 20
550.63419599999986
 30
0.0
  0
VERTEX
  5
284
  8
LAYER1
 10
6967.1078219999999
 20
625.63419599999997
 30
0.0
  0
VERTEX
  5
285
  8
LAYER1
 10
7017.107821999999
 20
625.63419599999997
 30
0.0
  0
SEQEND
  5
286
  8
LAYER1
  0
POLYLINE
  5
B5
  8
LAYER1
 66
     1
 10
0.0
 20
0.0
 30
0.0
1001
ACDBBLOCKREPETAG
1070
     1
1071
       14
1005
B5
  0
VERTEX
  5
287
  8
LAYER1
 10
6417.1078219999999
 20
550.63419599999986
 30
0.0
  0
VERTEX
  5
288
  8
LAYER1
 10
6367.1078219999999
 20
475.63419599999992
 30
0.0
  0
SEQEND
  5
289
  8
LAYER1
  0
POLYLINE
  5
B6
  8
LAYER1
 66
     1
 10
0.0
 20
0.0
 30
0.0
1001
ACDBBLOCKREPETAG
1070
     1
1071
       15
1005
B6
  0
VERTEX
  5
28A
  8
LAYER1
 10
6317.1078219999999
 20
475.63419599999992
 30
0.0
  0
VERTEX
  5
28B
  8
LAYER1
 10
6317.1078219999999
 20
725.63419599999997
 30
0.0
  0
VERTEX
  5
28C
  8
LAYER1
 10
6367.1078219999999
 20
725.63419599999997
 30
0.0
  0
VERTEX
  5
28D
  8
LAYER1
 10
6417.1078219999999
 20
650.63419599999997
 30
0.0
  0
VERTEX
  5
28E
  8
LAYER1
 10
6917.1078219999999
 20
650.63419599999997
 30
0.0
  0
VERTEX
  5
28F
  8
LAYER1
 10
6917.1078219999999
 20
550.63419599999986
 30
0.0
  0
SEQEND
  5
290
  8
LAYER1
  0
POLYLINE
  5
B7
  8
LAYER1
 66
     1
 10
0.0
 20
0.0
 30
0.0
1001
ACDBBLOCKREPETAG
1070
     1
1071
       16
1005
B7
  0
VERTEX
  5
291
  8
LAYER1
 10
6967.1078219999999
 20
625.63419599999997
 30
0.0
  0
VERTEX
  5
292
  8
LAYER1
 10
6917.1078219999999
 20
700.63419599999997
 30
0.0
  0
VERTEX
  5
293
  8
LAYER1
 10
6417.1078219999999
 20
700.63419599999997
 30
0.0
  0
VERTEX
  5
294
  8
LAYER1
 10
6417.1078219999999
 20
800.63419599999997
 30
0.0
  0
VERTEX
  5
295
  8
LAYER1
 10
6917.1078219999999
 20
800.63419599999997
 30
0.0
  0
VERTEX
  5
296
  8
LAYER1
 10
6967.1078219999999
 20
875.63419599999997
 30
0.0
  0
VERTEX
  5
297
  8
LAYER1
 10
7017.107821999999
 20
875.63419599999997
 30
0.0
  0
SEQEND
  5
298
  8
LAYER1
  0
POLYLINE
  5
B8
  8
LAYER1
 66
     1
 10
0.0
 20
0.0
 30
0.0
1001
ACDBBLOCKREPETAG
1070
     1
1071
       17
1005
B8
  0
VERTEX
  5
299
  8
LAYER1
 10
6417.1078219999999
 20
800.63419599999997
 30
0.0
  0
VERTEX
  5
29A
  8
LAYER1
 10
6367.1078219999999
 20
725.63419599999997
 30
0.0
  0
SEQEND
  5
29B
  8
LAYER1
  0
POLYLINE
  5
B9
  8
LAYER1
 66
     1
 10
0.0
 20
0.0
 30
0.0
1001
ACDBBLOCKREPETAG
1070
     1
1071
       18
1005
B9
  0
VERTEX
  5
29C
  8
LAYER1
 10
6917.1078219999999
 20
800.63419599999997
 30
0.0
  0
VERTEX
  5
29D
  8
LAYER1
 10
6917.1078219999999
 20
900.63419599999997
 30
0.0
  0
VERTEX
  5
29E
  8
LAYER1
 10
6417.1078219999999
 20
900.63419599999997
 30
0.0
  0
VERTEX
  5
29F
  8
LAYER1
 10
6367.1078219999999
 20
975.63419599999997
 30
0.0
  0
VERTEX
  5
2A0
  8
LAYER1
 10
6317.1078219999999
 20
975.63419599999997
 30
0.0
  0
VERTEX
  5
2A1
  8
LAYER1
 10
6317.1078219999999
 20
725.63419599999997
 30
0.0
  0
SEQEND
  5
2A2
  8
LAYER1
  0
POLYLINE
  5
BA
  8
LAYER1
 66
     1
 10
0.0
 20
0.0
 30
0.0
1001
ACDBBLOCKREPETAG
1070
     1
1071
       19
1005
BA
  0
VERTEX
  5
2A3
  8
LAYER1
 10
6317.1078219999999
 20
975.63419599999997
 30
0.0
  0
VERTEX
  5
2A4
  8
LAYER1
 10
6267.107821999999
 20
975.63419599999997
 30
0.0
  0
VERTEX
  5
2A5
  8
LAYER1
 10
6217.1078219999999
 20
900.63419599999997
 30
0.0
  0
VERTEX
  5
2A6
  8
LAYER1
 10
5717.1078219999999
 20
900.63419599999997
 30
0.0
  0
VERTEX
  5
2A7
  8
LAYER1
 10
5717.1078219999999
 20
800.63419599999997
 30
0.0
  0
VERTEX
  5
2A8
  8
LAYER1
 10
6217.1078219999999
 20
800.63419599999997
 30
0.0
  0
VERTEX
  5
2A9
  8
LAYER1
 10
6267.107821999999
 20
725.63419599999997
 30
0.0
  0
VERTEX
  5
2AA
  8
LAYER1
 10
6317.1078219999999
 20
725.63419599999997
 30
0.0
  0
SEQEND
  5
2AB
  8
LAYER1
  0
POLYLINE
  5
BB
  8
LAYER1
 66
     1
 10
0.0
 20
0.0
 30
0.0
1001
ACDBBLOCKREPETAG
1070
     1
1071
       20
1005
BB
  0
VERTEX
  5
2AC
  8
LAYER1
 10
6217.1078219999999
 20
800.63419599999997
 30
0.0
  0
VERTEX
  5
2AD
  8
LAYER1
 10
6217.1078219999999
 20
700.63419599999997
 30
0.0
  0
VERTEX
  5
2AE
  8
LAYER1
 10
5717.1078219999999
 20
700.63419599999997
 30
0.0
  0
VERTEX
  5
2AF
  8
LAYER1
 10
5667.1078219999999
 20
625.63419599999997
 30
0.0
  0
VERTEX
  5
2B0
  8
LAYER1
 10
5617.1078219999999
 20
625.63419599999997
 30
0.0
  0
VERTEX
  5
2B1
  8
LAYER1
 10
5617.1078219999999
 20
875.63419599999997
 30
0.0
  0
VERTEX
  5
2B2
  8
LAYER1
 10
5667.1078219999999
 20
875.63419599999997
 30
0.0
  0
VERTEX
  5
2B3
  8
LAYER1
 10
5717.1078219999999
 20
800.63419599999997
 30
0.0
  0
SEQEND
  5
2B4
  8
LAYER1
  0
POLYLINE
  5
BC
  8
LAYER1
 66
     1
 10
0.0
 20
0.0
 30
0.0
1001
ACDBBLOCKREPETAG
1070
     1
1071
       21
1005
BC
  0
VERTEX
  5
2B5
  8
LAYER1
 10
6267.107821999999
 20
725.63419599999997
 30
0.0
  0
VERTEX
  5
2B6
  8
LAYER1
 10
6217.1078219999999
 20
650.63419599999997
 30
0.0
  0
VERTEX
  5
2B7
  8
LAYER1
 10
5717.1078219999999
 20
650.63419599999997
 30
0.0
  0
VERTEX
  5
2B8
  8
LAYER1
 10
5717.1078219999999
 20
550.63419599999986
 30
0.0
  0
VERTEX
  5
2B9
  8
LAYER1
 10
6217.1078219999999
 20
550.63419599999986
 30
0.0
  0
VERTEX
  5
2BA
  8
LAYER1
 10
6267.107821999999
 20
475.63419599999992
 30
0.0
  0
VERTEX
  5
2BB
  8
LAYER1
 10
6317.1078219999999
 20
475.63419599999992
 30
0.0
  0
SEQEND
  5
2BC
  8
LAYER1
  0
POLYLINE
  5
BD
  8
LAYER1
 66
     1
 10
0.0
 20
0.0
 30
0.0
1001
ACDBBLOCKREPETAG
1070
     1
1071
       22
1005
BD
  0
VERTEX
  5
2BD
  8
LAYER1
 10
5717.1078219999999
 20
550.63419599999986
 30
0.0
  0
VERTEX
  5
2BE
  8
LAYER1
 10
5667.1078219999999
 20
625.63419599999997
 30
0.0
  0
SEQEND
  5
2BF
  8
LAYER1
  0
POLYLINE
  5
BE
  8
LAYER1
 66
     1
 10
0.0
 20
0.0
 30
0.0
1001
ACDBBLOCKREPETAG
1070
     1
1071
       23
1005
BE
  0
VERTEX
  5
2C0
  8
LAYER1
 10
5617.1078219999999
 20
625.63419599999997
 30
0.0
  0
VERTEX
  5
2C1
  8
LAYER1
 10
5617.1078219999999
 20
375.63419599999997
 30
0.0
  0
VERTEX
  5
2C2
  8
LAYER1
 10
5667.1078219999999
 20
375.63419599999997
 30
0.0
  0
VERTEX
  5
2C3
  8
LAYER1
 10
5717.1078219999999
 20
450.63419599999992
 30
0.0
  0
VERTEX
  5
2C4
  8
LAYER1
 10
6217.1078219999999
 20
450.63419599999992
 30
0.0
  0
VERTEX
  5
2C5
  8
LAYER1
 10
6217.1078219999999
 20
550.63419599999986
 30
0.0
  0
SEQEND
  5
2C6
  8
LAYER1
  0
POLYLINE
  5
BF
  8
LAYER1
 66
     1
 10
0.0
 20
0.0
 30
0.0
1001
ACDBBLOCKREPETAG
1070
     1
1071
       24
1005
BF
  0
VERTEX
  5
2C7
  8
LAYER1
 10
6267.107821999999
 20
475.63419599999992
 30
0.0
  0
VERTEX
  5
2C8
  8
LAYER1
 10
6217.1078219999999
 20
400.63419599999992
 30
0.0
  0
VERTEX
  5
2C9
  8
LAYER1
 10
5717.1078219999999
 20
400.63419599999992
 30
0.0
  0
VERTEX
  5
2CA
  8
LAYER1
 10
5717.1078219999999
 20
300.63419599999997
 30
0.0
  0
VERTEX
  5
2CB
  8
LAYER1
 10
6217.1078219999999
 20
300.63419599999997
 30
0.0
  0
VERTEX
  5
2CC
  8
LAYER1
 10
6267.107821999999
 20
225.634196
 30
0.0
  0
VERTEX
  5
2CD
  8
LAYER1
 10
6317.1078219999999
 20
225.634196
 30
0.0
  0
SEQEND
  5
2CE
  8
LAYER1
  0
POLYLINE
  5
C0
  8
LAYER1
 66
     1
 10
0.0
 20
0.0
 30
0.0
1001
ACDBBLOCKREPETAG
1070
     1
1071
       25
1005
C0
  0
VERTEX
  5
2CF
  8
LAYER1
 10
5717.1078219999999
 20
300.63419599999997
 30
0.0
  0
VERTEX
  5
2D0
  8
LAYER1
 10
5667.1078219999999
 20
375.63419599999997
 30
0.0
  0
SEQEND
  5
2D1
  8
LAYER1
  0
POLYLINE
  5
C1
  8
LAYER1
 66
     1
 10
0.0
 20
0.0
 30
0.0
1001
ACDBBLOCKREPETAG
1070
     1
1071
       26
1005
C1
  0
VERTEX
  5
2D2
  8
LAYER1
 10
6217.1078219999999
 20
300.63419599999997
 30
0.0
  0
VERTEX
  5
2D3
  8
LAYER1
 10
6217.1078219999999
 20
200.634196
 30
0.0
  0
VERTEX
  5
2D4
  8
LAYER1
 10
5717.1078219999999
 20
200.634196
 30
0.0
  0
VERTEX
  5
2D5
  8
LAYER1
 10
5667.1078219999999
 20
125.634196
 30
0.0
  0
VERTEX
  5
2D6
  8
LAYER1
 10
5617.1078219999999
 20
125.634196
 30
0.0
  0
VERTEX
  5
2D7
  8
LAYER1
 10
5617.1078219999999
 20
375.63419599999997
 30
0.0
  0
SEQEND
  5
2D8
  8
LAYER1
  0
POLYLINE
  5
C2
  8
LAYER1
 66
     1
 10
0.0
 20
0.0
 30
0.0
1001
ACDBBLOCKREPETAG
1070
     1
1071
       27
1005
C2
  0
VERTEX
  5
2D9
  8
LAYER1
 10
6267.107821999999
 20
225.634196
 30
0.0
  0
VERTEX
  5
2DA
  8
LAYER1
 10
6217.1078219999999
 20
150.634196
 30
0.0
  0
VERTEX
  5
2DB
  8
LAYER1
 10
5717.1078219999999
 20
150.634196
 30
0.0
  0
VERTEX
  5
2DC
  8
LAYER1
 10
5717.1078219999999
 20
50.634196000000003
 30
0.0
  0
VERTEX
  5
2DD
  8
LAYER1
 10
6217.1078219999999
 20
50.634196000000003
 30
0.0
  0
VERTEX
  5
2DE
  8
LAYER1
 10
6267.107821999999
 20
-24.365804000000001
 30
0.0
  0
VERTEX
  5
2DF
  8
LAYER1
 10
6317.1078219999999
 20
-24.365804000000001
 30
0.0
  0
SEQEND
  5
2E0
  8
LAYER1
  0
POLYLINE
  5
C3
  8
LAYER1
 66
     1
 10
0.0
 20
0.0
 30
0.0
1001
ACDBBLOCKREPETAG
1070
     1
1071
       28
1005
C3
  0
VERTEX
  5
2E1
  8
LAYER1
 10
5617.1078219999999
 20
125.634196
 30
0.0
  0
VERTEX
  5
2E2
  8
LAYER1
 10
5567.1078219999999
 20
125.634196
 30
0.0
  0
VERTEX
  5
2E3
  8
LAYER1
 10
5517.107821999999
 20
200.634196
 30
0.0
  0
VERTEX
  5
2E4
  8
LAYER1
 10
5017.107821999999
 20
200.634196
 30
0.0
  0
VERTEX
  5
2E5
  8
LAYER1
 10
5017.107821999999
 20
300.63419599999997
 30
0.0
  0
VERTEX
  5
2E6
  8
LAYER1
 10
4967.1078219999999
 20
225.634196
 30
0.0
  0
VERTEX
  5
2E7
  8
LAYER1
 10
5017.107821999999
 20
150.634196
 30
0.0
  0
VERTEX
  5
2E8
  8
LAYER1
 10
5517.107821999999
 20
150.634196
 30
0.0
  0
VERTEX
  5
2E9
  8
LAYER1
 10
5517.107821999999
 20
50.634196000000003
 30
0.0
  0
VERTEX
  5
2EA
  8
LAYER1
 10
5017.107821999999
 20
50.634196000000003
 30
0.0
  0
VERTEX
  5
2EB
  8
LAYER1
 10
4967.1078219999999
 20
-24.365804000000001
 30
0.0
  0
VERTEX
  5
2EC
  8
LAYER1
 10
4917.1078219999999
 20
-24.365804000000001
 30
0.0
  0
VERTEX
  5
2ED
  8
LAYER1
 10
4917.1078219999999
 20
225.634196
 30
0.0
  0
VERTEX
  5
2EE
  8
LAYER1
 10
4967.1078219999999
 20
225.634196
 30
0.0
  0
SEQEND
  5
2EF
  8
LAYER1
  0
POLYLINE
  5
C4
  8
LAYER1
 66
     1
 10
0.0
 20
0.0
 30
0.0
1001
ACDBBLOCKREPETAG
1070
     1
1071
       29
1005
C4
  0
VERTEX
  5
2F0
  8
LAYER1
 10
5017.107821999999
 20
300.63419599999997
 30
0.0
  0
VERTEX
  5
2F1
  8
LAYER1
 10
5517.107821999999
 20
300.63419599999997
 30
0.0
  0
VERTEX
  5
2F2
  8
LAYER1
 10
5567.1078219999999
 20
375.63419599999997
 30
0.0
  0
VERTEX
  5
2F3
  8
LAYER1
 10
5617.1078219999999
 20
375.63419599999997
 30
0.0
  0
SEQEND
  5
2F4
  8
LAYER1
  0
POLYLINE
  5
C5
  8
LAYER1
 66
     1
 10
0.0
 20
0.0
 30
0.0
1001
ACDBBLOCKREPETAG
1070
     1
1071
       30
1005
C5
  0
VERTEX
  5
2F5
  8
LAYER1
 10
5517.107821999999
 20
300.63419599999997
 30
0.0
  0
VERTEX
  5
2F6
  8
LAYER1
 10
5517.107821999999
 20
400.63419599999992
 30
0.0
  0
VERTEX
  5
2F7
  8
LAYER1
 10
5017.107821999999
 20
400.63419599999992
 30
0.0
  0
VERTEX
  5
2F8
  8
LAYER1
 10
4967.1078219999999
 20
475.63419599999992
 30
0.0
  0
VERTEX
  5
2F9
  8
LAYER1
 10
4917.1078219999999
 20
475.63419599999992
 30
0.0
  0
VERTEX
  5
2FA
  8
LAYER1
 10
4917.1078219999999
 20
225.634196
 30
0.0
  0
SEQEND
  5
2FB
  8
LAYER1
  0
POLYLINE
  5
C6
  8
LAYER1
 66
     1
 10
0.0
 20
0.0
 30
0.0
1001
ACDBBLOCKREPETAG
1070
     1
1071
       31
1005
C6
  0
VERTEX
  5
2FC
  8
LAYER1
 10
5567.1078219999999
 20
375.63419599999997
 30
0.0
  0
VERTEX
  5
2FD
  8
LAYER1
 10
5517.107821999999
 20
450.63419599999992
 30
0.0
  0
VERTEX
  5
2FE
  8
LAYER1
 10
5017.107821999999
 20
450.63419599999992
 30
0.0
  0
VERTEX
  5
2FF
  8
LAYER1
 10
5017.107821999999
 20
550.63419599999986
 30
0.0
  0
VERTEX
  5
300
  8
LAYER1
 10
5517.107821999999
 20
550.63419599999986
 30
0.0
  0
VERTEX
  5
301
  8
LAYER1
 10
5567.1078219999999
 20
625.63419599999997
 30
0.0
  0
VERTEX
  5
302
  8
LAYER1
 10
5617.1078219999999
 20
625.63419599999997
 30
0.0
  0
SEQEND
  5
303
  8
LAYER1
  0
POLYLINE
  5
C7
  8
LAYER1
 66
     1
 10
0.0
 20
0.0
 30
0.0
1001
ACDBBLOCKREPETAG
1070
     1
1071
       32
1005
C7
  0
VERTEX
  5
304
  8
LAYER1
 10
5017.107821999999
 20
550.63419599999986
 30
0.0
  0
VERTEX
  5
305
  8
LAYER1
 10
4967.1078219999999
 20
475.63419599999992
 30
0.0
  0
SEQEND
  5
306
  8
LAYER1
  0
POLYLINE
  5
C8
  8
LAYER1
 66
     1
 10
0.0
 20
0.0
 30
0.0
1001
ACDBBLOCKREPETAG
1070
     1
1071
       33
1005
C8
  0
VERTEX
  5
307
  8
LAYER1
 10
4917.1078219999999
 20
475.63419599999992
 30
0.0
  0
VERTEX
  5
308
  8
LAYER1
 10
4917.1078219999999
 20
725.63419599999997
 30
0.0
  0
VERTEX
  5
309
  8
LAYER1
 10
4967.1078219999999
 20
725.63419599999997
 30
0.0
  0
VERTEX
  5
30A
  8
LAYER1
 10
5017.107821999999
 20
650.63419599999997
 30
0.0
  0
VERTEX
  5
30B
  8
LAYER1
 10
5517.107821999999
 20
650.63419599999997
 30
0.0
  0
VERTEX
  5
30C
  8
LAYER1
 10
5517.107821999999
 20
550.63419599999986
 30
0.0
  0
SEQEND
  5
30D
  8
LAYER1
  0
POLYLINE
  5
C9
  8
LAYER1
 66
     1
 10
0.0
 20
0.0
 30
0.0
1001
ACDBBLOCKREPETAG
1070
     1
1071
       34
1005
C9
  0
VERTEX
  5
30E
  8
LAYER1
 10
5567.1078219999999
 20
625.63419599999997
 30
0.0
  0
VERTEX
  5
30F
  8
LAYER1
 10
5517.107821999999
 20
700.63419599999997
 30
0.0
  0
VERTEX
  5
310
  8
LAYER1
 10
5017.107821999999
 20
700.63419599999997
 30
0.0
  0
VERTEX
  5
311
  8
LAYER1
 10
5017.107821999999
 20
800.63419599999997
 30
0.0
  0
VERTEX
  5
312
  8
LAYER1
 10
5517.107821999999
 20
800.63419599999997
 30
0.0
  0
VERTEX
  5
313
  8
LAYER1
 10
5567.1078219999999
 20
875.63419599999997
 30
0.0
  0
VERTEX
  5
314
  8
LAYER1
 10
5617.1078219999999
 20
875.63419599999997
 30
0.0
  0
SEQEND
  5
315
  8
LAYER1
  0
POLYLINE
  5
CA
  8
LAYER1
 66
     1
 10
0.0
 20
0.0
 30
0.0
1001
ACDBBLOCKREPETAG
1070
     1
1071
       35
1005
CA
  0
VERTEX
  5
316
  8
LAYER1
 10
5017.107821999999
 20
800.63419599999997
 30
0.0
  0
VERTEX
  5
317
  8
LAYER1
 10
4967.1078219999999
 20
725.63419599999997
 30
0.0
  0
SEQEND
  5
318
  8
LAYER1
  0
POLYLINE
  5
CB
  8
LAYER1
 66
     1
 10
0.0
 20
0.0
 30
0.0
1001
ACDBBLOCKREPETAG
1070
     1
1071
       36
1005
CB
  0
VERTEX
  5
319
  8
LAYER1
 10
5517.107821999999
 20
800.63419599999997
 30
0.0
  0
VERTEX
  5
31A
  8
LAYER1
 10
5517.107821999999
 20
900.63419599999997
 30
0.0
  0
VERTEX
  5
31B
  8
LAYER1
 10
5017.107821999999
 20
900.63419599999997
 30
0.0
  0
VERTEX
  5
31C
  8
LAYER1
 10
4967.1078219999999
 20
975.63419599999997
 30
0.0
  0
VERTEX
  5
31D
  8
LAYER1
 10
4917.1078219999999
 20
975.63419599999997
 30
0.0
  0
VERTEX
  5
31E
  8
LAYER1
 10
4917.1078219999999
 20
725.63419599999997
 30
0.0
  0
SEQEND
  5
31F
  8
LAYER1
  0
ENDBLK
  5
46
  8
0
  0
BLOCK
  8
0
  2
*U1
 70
     1
 10
0.0
 20
0.0
 30
0.0
  3
*U1
  1

  0
POLYLINE
  5
DE
  8
LAYER1
 66
     1
 10
0.0
 20
0.0
 30
0.0
1001
ACDBBLOCKREPETAG
1070
     1
1071
        0
1005
DE
  0
VERTEX
  5
320
  8
LAYER1
 10
7727.1078219999999
 20
985.63419600000009
 30
0.0
  0
VERTEX
  5
321
  8
LAYER1
 10
7730.1078219999999
 20
985.63419600000009
 30
0.0
  0
SEQEND
  5
322
  8
LAYER1
  0
POLYLINE
  5
DF
  8
LAYER1
 66
     1
 10
0.0
 20
0.0
 30
0.0
1001
ACDBBLOCKREPETAG
1070
     1
1071
        1
1005
DF
  0
VERTEX
  5
323
  8
LAYER1
 10
7566.0252209999999
 20
928.59094500000003
 30
0.0
  0
VERTEX
  5
324
  8
LAYER1
 10
7617.1078219999999
 20
900.63419599999997
 30
0.0
  0
VERTEX
  5
325
  8
LAYER1
 10
7667.1078219999999
 20
975.63419599999997
 30
0.0
  0
VERTEX
  5
326
  8
LAYER1
 10
7717.1078219999999
 20
975.63419599999997
 30
0.0
  0
VERTEX
  5
327
  8
LAYER1
 10
7717.1078219999999
 20
725.63419599999997
 30
0.0
  0
VERTEX
  5
328
  8
LAYER1
 10
7667.1078219999999
 20
725.63419599999997
 30
0.0
  0
VERTEX
  5
329
  8
LAYER1
 10
7617.1078219999999
 20
800.63419599999997
 30
0.0
  0
VERTEX
  5
32A
  8
LAYER1
 10
7117.1078219999999
 20
800.63419599999997
 30
0.0
  0
VERTEX
  5
32B
  8
LAYER1
 10
7117.1078219999999
 20
900.63419599999997
 30
0.0
  0
VERTEX
  5
32C
  8
LAYER1
 10
7617.1078219999999
 20
900.63419599999997
 30
0.0
  0
SEQEND
  5
32D
  8
LAYER1
  0
POLYLINE
  5
E0
  8
LAYER1
 66
     1
 10
0.0
 20
0.0
 30
0.0
1001
ACDBBLOCKREPETAG
1070
     1
1071
        2
1005
E0
  0
VERTEX
  5
32E
  8
LAYER1
 10
7617.1078219999999
 20
800.63419599999997
 30
0.0
  0
VERTEX
  5
32F
  8
LAYER1
 10
7617.1078219999999
 20
700.63419599999997
 30
0.0
  0
VERTEX
  5
330
  8
LAYER1
 10
7117.1078219999999
 20
700.63419599999997
 30
0.0
  0
VERTEX
  5
331
  8
LAYER1
 10
7067.1078219999999
 20
625.63419599999997
 30
0.0
  0
VERTEX
  5
332
  8
LAYER1
 10
7017.107821999999
 20
625.63419599999997
 30
0.0
  0
VERTEX
  5
333
  8
LAYER1
 10
7017.107821999999
 20
875.63419599999997
 30
0.0
  0
VERTEX
  5
334
  8
LAYER1
 10
7067.1078219999999
 20
875.63419599999997
 30
0.0
  0
VERTEX
  5
335
  8
LAYER1
 10
7117.1078219999999
 20
800.63419599999997
 30
0.0
  0
SEQEND
  5
336
  8
LAYER1
  0
POLYLINE
  5
E1
  8
LAYER1
 66
     1
 10
0.0
 20
0.0
 30
0.0
1001
ACDBBLOCKREPETAG
1070
     1
1071
        3
1005
E1
  0
VERTEX
  5
337
  8
LAYER1
 10
7717.1078219999999
 20
725.63419599999997
 30
0.0
  0
VERTEX
  5
338
  8
LAYER1
 10
7717.1078219999999
 20
475.63419599999992
 30
0.0
  0
VERTEX
  5
339
  8
LAYER1
 10
7667.1078219999999
 20
475.63419599999992
 30
0.0
  0
VERTEX
  5
33A
  8
LAYER1
 10
7617.1078219999999
 20
550.63419599999986
 30
0.0
  0
VERTEX
  5
33B
  8
LAYER1
 10
7117.1078219999999
 20
550.63419599999986
 30
0.0
  0
VERTEX
  5
33C
  8
LAYER1
 10
7117.1078219999999
 20
650.63419599999997
 30
0.0
  0
VERTEX
  5
33D
  8
LAYER1
 10
7617.1078219999999
 20
650.63419599999997
 30
0.0
  0
VERTEX
  5
33E
  8
LAYER1
 10
7667.1078219999999
 20
725.63419599999997
 30
0.0
  0
SEQEND
  5
33F
  8
LAYER1
  0
POLYLINE
  5
E2
  8
LAYER1
 66
     1
 10
0.0
 20
0.0
 30
0.0
1001
ACDBBLOCKREPETAG
1070
     1
1071
        4
1005
E2
  0
VERTEX
  5
340
  8
LAYER1
 10
7117.1078219999999
 20
550.63419599999986
 30
0.0
  0
VERTEX
  5
341
  8
LAYER1
 10
7067.1078219999999
 20
625.63419599999997
 30
0.0
  0
SEQEND
  5
342
  8
LAYER1
  0
POLYLINE
  5
E3
  8
LAYER1
 66
     1
 10
0.0
 20
0.0
 30
0.0
1001
ACDBBLOCKREPETAG
1070
     1
1071
        5
1005
E3
  0
VERTEX
  5
343
  8
LAYER1
 10
7017.107821999999
 20
625.63419599999997
 30
0.0
  0
VERTEX
  5
344
  8
LAYER1
 10
7017.107821999999
 20
375.63419599999997
 30
0.0
  0
VERTEX
  5
345
  8
LAYER1
 10
7067.1078219999999
 20
375.63419599999997
 30
0.0
  0
VERTEX
  5
346
  8
LAYER1
 10
7117.1078219999999
 20
450.63419599999992
 30
0.0
  0
VERTEX
  5
347
  8
LAYER1
 10
7617.1078219999999
 20
450.63419599999992
 30
0.0
  0
VERTEX
  5
348
  8
LAYER1
 10
7617.1078219999999
 20
550.63419599999986
 30
0.0
  0
SEQEND
  5
349
  8
LAYER1
  0
POLYLINE
  5
E4
  8
LAYER1
 66
     1
 10
0.0
 20
0.0
 30
0.0
1001
ACDBBLOCKREPETAG
1070
     1
1071
        6
1005
E4
  0
VERTEX
  5
34A
  8
LAYER1
 10
7717.1078219999999
 20
475.63419599999992
 30
0.0
  0
VERTEX
  5
34B
  8
LAYER1
 10
7717.1078219999999
 20
225.634196
 30
0.0
  0
VERTEX
  5
34C
  8
LAYER1
 10
7667.1078219999999
 20
225.634196
 30
0.0
  0
VERTEX
  5
34D
  8
LAYER1
 10
7617.1078219999999
 20
300.63419599999997
 30
0.0
  0
VERTEX
  5
34E
  8
LAYER1
 10
7117.1078219999999
 20
300.63419599999997
 30
0.0
  0
VERTEX
  5
34F
  8
LAYER1
 10
7117.1078219999999
 20
400.63419599999992
 30
0.0
  0
VERTEX
  5
350
  8
LAYER1
 10
7617.1078219999999
 20
400.63419599999992
 30
0.0
  0
VERTEX
  5
351
  8
LAYER1
 10
7667.1078219999999
 20
475.63419599999992
 30
0.0
  0
SEQEND
  5
352
  8
LAYER1
  0
POLYLINE
  5
E5
  8
LAYER1
 66
     1
 10
0.0
 20
0.0
 30
0.0
1001
ACDBBLOCKREPETAG
1070
     1
1071
        7
1005
E5
  0
VERTEX
  5
353
  8
LAYER1
 10
7117.1078219999999
 20
300.63419599999997
 30
0.0
  0
VERTEX
  5
354
  8
LAYER1
 10
7067.1078219999999
 20
375.63419599999997
 30
0.0
  0
SEQEND
  5
355
  8
LAYER1
  0
POLYLINE
  5
E6
  8
LAYER1
 66
     1
 10
0.0
 20
0.0
 30
0.0
1001
ACDBBLOCKREPETAG
1070
     1
1071
        8
1005
E6
  0
VERTEX
  5
356
  8
LAYER1
 10
7617.1078219999999
 20
300.63419599999997
 30
0.0
  0
VERTEX
  5
357
  8
LAYER1
 10
7617.1078219999999
 20
200.634196
 30
0.0
  0
VERTEX
  5
358
  8
LAYER1
 10
7117.1078219999999
 20
200.634196
 30
0.0
  0
VERTEX
  5
359
  8
LAYER1
 10
7067.1078219999999
 20
125.634196
 30
0.0
  0
VERTEX
  5
35A
  8
LAYER1
 10
7017.107821999999
 20
125.634196
 30
0.0
  0
VERTEX
  5
35B
  8
LAYER1
 10
7017.107821999999
 20
375.63419599999997
 30
0.0
  0
SEQEND
  5
35C
  8
LAYER1
  0
POLYLINE
  5
E7
  8
LAYER1
 66
     1
 10
0.0
 20
0.0
 30
0.0
1001
ACDBBLOCKREPETAG
1070
     1
1071
        9
1005
E7
  0
VERTEX
  5
35D
  8
LAYER1
 10
7717.1078219999999
 20
225.634196
 30
0.0
  0
VERTEX
  5
35E
  8
LAYER1
 10
7717.1078219999999
 20
-24.365804000000001
 30
0.0
  0
VERTEX
  5
35F
  8
LAYER1
 10
7667.1078219999999
 20
-24.365804000000001
 30
0.0
  0
VERTEX
  5
360
  8
LAYER1
 10
7617.1078219999999
 20
50.634196000000003
 30
0.0
  0
VERTEX
  5
361
  8
LAYER1
 10
7117.1078219999999
 20
50.634196000000003
 30
0.0
  0
VERTEX
  5
362
  8
LAYER1
 10
7117.1078219999999
 20
150.634196
 30
0.0
  0
VERTEX
  5
363
  8
LAYER1
 10
7617.1078219999999
 20
150.634196
 30
0.0
  0
VERTEX
  5
364
  8
LAYER1
 10
7667.1078219999999
 20
225.634196
 30
0.0
  0
SEQEND
  5
365
  8
LAYER1
  0
POLYLINE
  5
E8
  8
LAYER1
 66
     1
 10
0.0
 20
0.0
 30
0.0
1001
ACDBBLOCKREPETAG
1070
     1
1071
       10
1005
E8
  0
VERTEX
  5
366
  8
LAYER1
 10
7017.107821999999
 20
125.634196
 30
0.0
  0
VERTEX
  5
367
  8
LAYER1
 10
6967.1078219999999
 20
125.634196
 30
0.0
  0
VERTEX
  5
368
  8
LAYER1
 10
6917.1078219999999
 20
200.634196
 30
0.0
  0
VERTEX
  5
369
  8
LAYER1
 10
6417.1078219999999
 20
200.634196
 30
0.0
  0
VERTEX
  5
36A
  8
LAYER1
 10
6417.1078219999999
 20
300.63419599999997
 30
0.0
  0
VERTEX
  5
36B
  8
LAYER1
 10
6367.1078219999999
 20
225.634196
 30
0.0
  0
VERTEX
  5
36C
  8
LAYER1
 10
6417.1078219999999
 20
150.634196
 30
0.0
  0
VERTEX
  5
36D
  8
LAYER1
 10
6917.1078219999999
 20
150.634196
 30
0.0
  0
VERTEX
  5
36E
  8
LAYER1
 10
6917.1078219999999
 20
50.634196000000003
 30
0.0
  0
VERTEX
  5
36F
  8
LAYER1
 10
6417.1078219999999
 20
50.634196000000003
 30
0.0
  0
VERTEX
  5
370
  8
LAYER1
 10
6367.1078219999999
 20
-24.365804000000001
 30
0.0
  0
VERTEX
  5
371
  8
LAYER1
 10
6317.1078219999999
 20
-24.365804000000001
 30
0.0
  0
VERTEX
  5
372
  8
LAYER1
 10
6317.1078219999999
 20
225.634196
 30
0.0
  0
VERTEX
  5
373
  8
LAYER1
 10
6367.1078219999999
 20
225.634196
 30
0.0
  0
SEQEND
  5
374
  8
LAYER1
  0
POLYLINE
  5
E9
  8
LAYER1
 66
     1
 10
0.0
 20
0.0
 30
0.0
1001
ACDBBLOCKREPETAG
1070
     1
1071
       11
1005
E9
  0
VERTEX
  5
375
  8
LAYER1
 10
6417.1078219999999
 20
300.63419599999997
 30
0.0
  0
VERTEX
  5
376
  8
LAYER1
 10
6917.1078219999999
 20
300.63419599999997
 30
0.0
  0
VERTEX
  5
377
  8
LAYER1
 10
6967.1078219999999
 20
375.63419599999997
 30
0.0
  0
VERTEX
  5
378
  8
LAYER1
 10
7017.107821999999
 20
375.63419599999997
 30
0.0
  0
SEQEND
  5
379
  8
LAYER1
  0
POLYLINE
  5
EA
  8
LAYER1
 66
     1
 10
0.0
 20
0.0
 30
0.0
1001
ACDBBLOCKREPETAG
1070
     1
1071
       12
1005
EA
  0
VERTEX
  5
37A
  8
LAYER1
 10
6917.1078219999999
 20
300.63419599999997
 30
0.0
  0
VERTEX
  5
37B
  8
LAYER1
 10
6917.1078219999999
 20
400.63419599999992
 30
0.0
  0
VERTEX
  5
37C
  8
LAYER1
 10
6417.1078219999999
 20
400.63419599999992
 30
0.0
  0
VERTEX
  5
37D
  8
LAYER1
 10
6367.1078219999999
 20
475.63419599999992
 30
0.0
  0
VERTEX
  5
37E
  8
LAYER1
 10
6317.1078219999999
 20
475.63419599999992
 30
0.0
  0
VERTEX
  5
37F
  8
LAYER1
 10
6317.1078219999999
 20
225.634196
 30
0.0
  0
SEQEND
  5
380
  8
LAYER1
  0
POLYLINE
  5
EB
  8
LAYER1
 66
     1
 10
0.0
 20
0.0
 30
0.0
1001
ACDBBLOCKREPETAG
1070
     1
1071
       13
1005
EB
  0
VERTEX
  5
381
  8
LAYER1
 10
6967.1078219999999
 20
375.63419599999997
 30
0.0
  0
VERTEX
  5
382
  8
LAYER1
 10
6917.1078219999999
 20
450.63419599999992
 30
0.0
  0
VERTEX
  5
383
  8
LAYER1
 10
6417.1078219999999
 20
450.63419599999992
 30
0.0
  0
VERTEX
  5
384
  8
LAYER1
 10
6417.1078219999999
 20
550.63419599999986
 30
0.0
  0
VERTEX
  5
385
  8
LAYER1
 10
6917.1078219999999
 20
550.63419599999986
 30
0.0
  0
VERTEX
  5
386
  8
LAYER1
 10
6967.1078219999999
 20
625.63419599999997
 30
0.0
  0
VERTEX
  5
387
  8
LAYER1
 10
7017.107821999999
 20
625.63419599999997
 30
0.0
  0
SEQEND
  5
388
  8
LAYER1
  0
POLYLINE
  5
EC
  8
LAYER1
 66
     1
 10
0.0
 20
0.0
 30
0.0
1001
ACDBBLOCKREPETAG
1070
     1
1071
       14
1005
EC
  0
VERTEX
  5
389
  8
LAYER1
 10
6417.1078219999999
 20
550.63419599999986
 30
0.0
  0
VERTEX
  5
38A
  8
LAYER1
 10
6367.1078219999999
 20
475.63419599999992
 30
0.0
  0
SEQEND
  5
38B
  8
LAYER1
  0
POLYLINE
  5
ED
  8
LAYER1
 66
     1
 10
0.0
 20
0.0
 30
0.0
1001
ACDBBLOCKREPETAG
1070
     1
1071
       15
1005
ED
  0
VERTEX
  5
38C
  8
LAYER1
 10
6317.1078219999999
 20
475.63419599999992
 30
0.0
  0
VERTEX
  5
38D
  8
LAYER1
 10
6317.1078219999999
 20
725.63419599999997
 30
0.0
  0
VERTEX
  5
38E
  8
LAYER1
 10
6367.1078219999999
 20
725.63419599999997
 30
0.0
  0
VERTEX
  5
38F
  8
LAYER1
 10
6417.1078219999999
 20
650.63419599999997
 30
0.0
  0
VERTEX
  5
390
  8
LAYER1
 10
6917.1078219999999
 20
650.63419599999997
 30
0.0
  0
VERTEX
  5
391
  8
LAYER1
 10
6917.1078219999999
 20
550.63419599999986
 30
0.0
  0
SEQEND
  5
392
  8
LAYER1
  0
POLYLINE
  5
EE
  8
LAYER1
 66
     1
 10
0.0
 20
0.0
 30
0.0
1001
ACDBBLOCKREPETAG
1070
     1
1071
       16
1005
EE
  0
VERTEX
  5
393
  8
LAYER1
 10
6967.1078219999999
 20
625.63419599999997
 30
0.0
  0
VERTEX
  5
394
  8
LAYER1
 10
6917.1078219999999
 20
700.63419599999997
 30
0.0
  0
VERTEX
  5
395
  8
LAYER1
 10
6417.1078219999999
 20
700.63419599999997
 30
0.0
  0
VERTEX
  5
396
  8
LAYER1
 10
6417.1078219999999
 20
800.63419599999997
 30
0.0
  0
VERTEX
  5
397
  8
LAYER1
 10
6917.1078219999999
 20
800.63419599999997
 30
0.0
  0
VERTEX
  5
398
  8
LAYER1
 10
6967.1078219999999
 20
875.63419599999997
 30
0.0
  0
VERTEX
  5
399
  8
LAYER1
 10
7017.107821999999
 20
875.63419599999997
 30
0.0
  0
SEQEND
  5
39A
  8
LAYER1
  0
POLYLINE
  5
EF
  8
LAYER1
 66
     1
 10
0.0
 20
0.0
 30
0.0
1001
ACDBBLOCKREPETAG
1070
     1
1071
       17
1005
EF
  0
VERTEX
  5
39B
  8
LAYER1
 10
6417.1078219999999
 20
800.63419599999997
 30
0.0
  0
VERTEX
  5
39C
  8
LAYER1
 10
6367.1078219999999
 20
725.63419599999997
 30
0.0
  0
SEQEND
  5
39D
  8
LAYER1
  0
POLYLINE
  5
F0
  8
LAYER1
 66
     1
 10
0.0
 20
0.0
 30
0.0
1001
ACDBBLOCKREPETAG
1070
     1
1071
       18
1005
F0
  0
VERTEX
  5
39E
  8
LAYER1
 10
6917.1078219999999
 20
800.63419599999997
 30
0.0
  0
VERTEX
  5
39F
  8
LAYER1
 10
6917.1078219999999
 20
900.63419599999997
 30
0.0
  0
VERTEX
  5
3A0
  8
LAYER1
 10
6417.1078219999999
 20
900.63419599999997
 30
0.0
  0
VERTEX
  5
3A1
  8
LAYER1
 10
6367.1078219999999
 20
975.63419599999997
 30
0.0
  0
VERTEX
  5
3A2
  8
LAYER1
 10
6317.1078219999999
 20
975.63419599999997
 30
0.0
  0
VERTEX
  5
3A3
  8
LAYER1
 10
6317.1078219999999
 20
725.63419599999997
 30
0.0
  0
SEQEND
  5
3A4
  8
LAYER1
  0
POLYLINE
  5
F1
  8
LAYER1
 66
     1
 10
0.0
 20
0.0
 30
0.0
1001
ACDBBLOCKREPETAG
1070
     1
1071
       19
1005
F1
  0
VERTEX
  5
3A5
  8
LAYER1
 10
6317.1078219999999
 20
975.63419599999997
 30
0.0
  0
VERTEX
  5
3A6
  8
LAYER1
 10
6267.107821999999
 20
975.63419599999997
 30
0.0
  0
VERTEX
  5
3A7
  8
LAYER1
 10
6217.1078219999999
 20
900.63419599999997
 30
0.0
  0
VERTEX
  5
3A8
  8
LAYER1
 10
5717.1078219999999
 20
900.63419599999997
 30
0.0
  0
VERTEX
  5
3A9
  8
LAYER1
 10
5717.1078219999999
 20
800.63419599999997
 30
0.0
  0
VERTEX
  5
3AA
  8
LAYER1
 10
6217.1078219999999
 20
800.63419599999997
 30
0.0
  0
VERTEX
  5
3AB
  8
LAYER1
 10
6267.107821999999
 20
725.63419599999997
 30
0.0
  0
VERTEX
  5
3AC
  8
LAYER1
 10
6317.1078219999999
 20
725.63419599999997
 30
0.0
  0
SEQEND
  5
3AD
  8
LAYER1
  0
POLYLINE
  5
F2
  8
LAYER1
 66
     1
 10
0.0
 20
0.0
 30
0.0
1001
ACDBBLOCKREPETAG
1070
     1
1071
       20
1005
F2
  0
VERTEX
  5
3AE
  8
LAYER1
 10
6217.1078219999999
 20
800.63419599999997
 30
0.0
  0
VERTEX
  5
3AF
  8
LAYER1
 10
6217.1078219999999
 20
700.63419599999997
 30
0.0
  0
VERTEX
  5
3B0
  8
LAYER1
 10
5717.1078219999999
 20
700.63419599999997
 30
0.0
  0
VERTEX
  5
3B1
  8
LAYER1
 10
5667.1078219999999
 20
625.63419599999997
 30
0.0
  0
VERTEX
  5
3B2
  8
LAYER1
 10
5617.1078219999999
 20
625.63419599999997
 30
0.0
  0
VERTEX
  5
3B3
  8
LAYER1
 10
5617.1078219999999
 20
875.63419599999997
 30
0.0
  0
VERTEX
  5
3B4
  8
LAYER1
 10
5667.1078219999999
 20
875.63419599999997
 30
0.0
  0
VERTEX
  5
3B5
  8
LAYER1
 10
5717.1078219999999
 20
800.63419599999997
 30
0.0
  0
SEQEND
  5
3B6
  8
LAYER1
  0
POLYLINE
  5
F3
  8
LAYER1
 66
     1
 10
0.0
 20
0.0
 30
0.0
1001
ACDBBLOCKREPETAG
1070
     1
1071
       21
1005
F3
  0
VERTEX
  5
3B7
  8
LAYER1
 10
6267.107821999999
 20
725.63419599999997
 30
0.0
  0
VERTEX
  5
3B8
  8
LAYER1
 10
6217.1078219999999
 20
650.63419599999997
 30
0.0
  0
VERTEX
  5
3B9
  8
LAYER1
 10
5717.1078219999999
 20
650.63419599999997
 30
0.0
  0
VERTEX
  5
3BA
  8
LAYER1
 10
5717.1078219999999
 20
550.63419599999986
 30
0.0
  0
VERTEX
  5
3BB
  8
LAYER1
 10
6217.1078219999999
 20
550.63419599999986
 30
0.0
  0
VERTEX
  5
3BC
  8
LAYER1
 10
6267.107821999999
 20
475.63419599999992
 30
0.0
  0
VERTEX
  5
3BD
  8
LAYER1
 10
6317.1078219999999
 20
475.63419599999992
 30
0.0
  0
SEQEND
  5
3BE
  8
LAYER1
  0
POLYLINE
  5
F4
  8
LAYER1
 66
     1
 10
0.0
 20
0.0
 30
0.0
1001
ACDBBLOCKREPETAG
1070
     1
1071
       22
1005
F4
  0
VERTEX
  5
3BF
  8
LAYER1
 10
5717.1078219999999
 20
550.63419599999986
 30
0.0
  0
VERTEX
  5
3C0
  8
LAYER1
 10
5667.1078219999999
 20
625.63419599999997
 30
0.0
  0
SEQEND
  5
3C1
  8
LAYER1
  0
POLYLINE
  5
F5
  8
LAYER1
 66
     1
 10
0.0
 20
0.0
 30
0.0
1001
ACDBBLOCKREPETAG
1070
     1
1071
       23
1005
F5
  0
VERTEX
  5
3C2
  8
LAYER1
 10
5617.1078219999999
 20
625.63419599999997
 30
0.0
  0
VERTEX
  5
3C3
  8
LAYER1
 10
5617.1078219999999
 20
375.63419599999997
 30
0.0
  0
VERTEX
  5
3C4
  8
LAYER1
 10
5667.1078219999999
 20
375.63419599999997
 30
0.0
  0
VERTEX
  5
3C5
  8
LAYER1
 10
5717.1078219999999
 20
450.63419599999992
 30
0.0
  0
VERTEX
  5
3C6
  8
LAYER1
 10
6217.1078219999999
 20
450.63419599999992
 30
0.0
  0
VERTEX
  5
3C7
  8
LAYER1
 10
6217.1078219999999
 20
550.63419599999986
 30
0.0
  0
SEQEND
  5
3C8
  8
LAYER1
  0
POLYLINE
  5
F6
  8
LAYER1
 66
     1
 10
0.0
 20
0.0
 30
0.0
1001
ACDBBLOCKREPETAG
1070
     1
1071
       24
1005
F6
  0
VERTEX
  5
3C9
  8
LAYER1
 10
6267.107821999999
 20
475.63419599999992
 30
0.0
  0
VERTEX
  5
3CA
  8
LAYER1
 10
6217.1078219999999
 20
400.63419599999992
 30
0.0
  0
VERTEX
  5
3CB
  8
LAYER1
 10
5717.1078219999999
 20
400.63419599999992
 30
0.0
  0
VERTEX
  5
3CC
  8
LAYER1
 10
5717.1078219999999
 20
300.63419599999997
 30
0.0
  0
VERTEX
  5
3CD
  8
LAYER1
 10
6217.1078219999999
 20
300.63419599999997
 30
0.0
  0
VERTEX
  5
3CE
  8
LAYER1
 10
6267.107821999999
 20
225.634196
 30
0.0
  0
VERTEX
  5
3CF
  8
LAYER1
 10
6317.1078219999999
 20
225.634196
 30
0.0
  0
SEQEND
  5
3D0
  8
LAYER1
  0
POLYLINE
  5
F7
  8
LAYER1
 66
     1
 10
0.0
 20
0.0
 30
0.0
1001
ACDBBLOCKREPETAG
1070
     1
1071
       25
1005
F7
  0
VERTEX
  5
3D1
  8
LAYER1
 10
5717.1078219999999
 20
300.63419599999997
 30
0.0
  0
VERTEX
  5
3D2
  8
LAYER1
 10
5667.1078219999999
 20
375.63419599999997
 30
0.0
  0
SEQEND
  5
3D3
  8
LAYER1
  0
POLYLINE
  5
F8
  8
LAYER1
 66
     1
 10
0.0
 20
0.0
 30
0.0
1001
ACDBBLOCKREPETAG
1070
     1
1071
       26
1005
F8
  0
VERTEX
  5
3D4
  8
LAYER1
 10
6217.1078219999999
 20
300.63419599999997
 30
0.0
  0
VERTEX
  5
3D5
  8
LAYER1
 10
6217.1078219999999
 20
200.634196
 30
0.0
  0
VERTEX
  5
3D6
  8
LAYER1
 10
5717.1078219999999
 20
200.634196
 30
0.0
  0
VERTEX
  5
3D7
  8
LAYER1
 10
5667.1078219999999
 20
125.634196
 30
0.0
  0
VERTEX
  5
3D8
  8
LAYER1
 10
5617.1078219999999
 20
125.634196
 30
0.0
  0
VERTEX
  5
3D9
  8
LAYER1
 10
5617.1078219999999
 20
375.63419599999997
 30
0.0
  0
SEQEND
  5
3DA
  8
LAYER1
  0
POLYLINE
  5
F9
  8
LAYER1
 66
     1
 10
0.0
 20
0.0
 30
0.0
1001
ACDBBLOCKREPETAG
1070
     1
1071
       27
1005
F9
  0
VERTEX
  5
3DB
  8
LAYER1
 10
6267.107821999999
 20
225.634196
 30
0.0
  0
VERTEX
  5
3DC
  8
LAYER1
 10
6217.1078219999999
 20
150.634196
 30
0.0
  0
VERTEX
  5
3DD
  8
LAYER1
 10
5717.1078219999999
 20
150.634196
 30
0.0
  0
VERTEX
  5
3DE
  8
LAYER1
 10
5717.1078219999999
 20
50.634196000000003
 30
0.0
  0
VERTEX
  5
3DF
  8
LAYER1
 10
6217.1078219999999
 20
50.634196000000003
 30
0.0
  0
VERTEX
  5
3E0
  8
LAYER1
 10
6267.107821999999
 20
-24.365804000000001
 30
0.0
  0
VERTEX
  5
3E1
  8
LAYER1
 10
6317.1078219999999
 20
-24.365804000000001
 30
0.0
  0
SEQEND
  5
3E2
  8
LAYER1
  0
POLYLINE
  5
FA
  8
LAYER1
 66
     1
 10
0.0
 20
0.0
 30
0.0
1001
ACDBBLOCKREPETAG
1070
     1
1071
       28
1005
FA
  0
VERTEX
  5
3E3
  8
LAYER1
 10
5617.1078219999999
 20
125.634196
 30
0.0
  0
VERTEX
  5
3E4
  8
LAYER1
 10
5567.1078219999999
 20
125.634196
 30
0.0
  0
VERTEX
  5
3E5
  8
LAYER1
 10
5517.107821999999
 20
200.634196
 30
0.0
  0
VERTEX
  5
3E6
  8
LAYER1
 10
5017.107821999999
 20
200.634196
 30
0.0
  0
VERTEX
  5
3E7
  8
LAYER1
 10
5017.107821999999
 20
300.63419599999997
 30
0.0
  0
VERTEX
  5
3E8
  8
LAYER1
 10
4967.1078219999999
 20
225.634196
 30
0.0
  0
VERTEX
  5
3E9
  8
LAYER1
 10
5017.107821999999
 20
150.634196
 30
0.0
  0
VERTEX
  5
3EA
  8
LAYER1
 10
5517.107821999999
 20
150.634196
 30
0.0
  0
VERTEX
  5
3EB
  8
LAYER1
 10
5517.107821999999
 20
50.634196000000003
 30
0.0
  0
VERTEX
  5
3EC
  8
LAYER1
 10
5017.107821999999
 20
50.634196000000003
 30
0.0
  0
VERTEX
  5
3ED
  8
LAYER1
 10
4967.1078219999999
 20
-24.365804000000001
 30
0.0
  0
VERTEX
  5
3EE
  8
LAYER1
 10
4917.1078219999999
 20
-24.365804000000001
 30
0.0
  0
VERTEX
  5
3EF
  8
LAYER1
 10
4917.1078219999999
 20
225.634196
 30
0.0
  0
VERTEX
  5
3F0
  8
LAYER1
 10
4967.1078219999999
 20
225.634196
 30
0.0
  0
SEQEND
  5
3F1
  8
LAYER1
  0
POLYLINE
  5
FB
  8
LAYER1
 66
     1
 10
0.0
 20
0.0
 30
0.0
1001
ACDBBLOCKREPETAG
1070
     1
1071
       29
1005
FB
  0
VERTEX
  5
3F2
  8
LAYER1
 10
5017.107821999999
 20
300.63419599999997
 30
0.0
  0
VERTEX
  5
3F3
  8
LAYER1
 10
5517.107821999999
 20
300.63419599999997
 30
0.0
  0
VERTEX
  5
3F4
  8
LAYER1
 10
5567.1078219999999
 20
375.63419599999997
 30
0.0
  0
VERTEX
  5
3F5
  8
LAYER1
 10
5617.1078219999999
 20
375.63419599999997
 30
0.0
  0
SEQEND
  5
3F6
  8
LAYER1
  0
POLYLINE
  5
FC
  8
LAYER1
 66
     1
 10
0.0
 20
0.0
 30
0.0
1001
ACDBBLOCKREPETAG
1070
     1
1071
       30
1005
FC
  0
VERTEX
  5
3F7
  8
LAYER1
 10
5517.107821999999
 20
300.63419599999997
 30
0.0
  0
VERTEX
  5
3F8
  8
LAYER1
 10
5517.107821999999
 20
400.63419599999992
 30
0.0
  0
VERTEX
  5
3F9
  8
LAYER1
 10
5017.107821999999
 20
400.63419599999992
 30
0.0
  0
VERTEX
  5
3FA
  8
LAYER1
 10
4967.1078219999999
 20
475.63419599999992
 30
0.0
  0
VERTEX
  5
3FB
  8
LAYER1
 10
4917.1078219999999
 20
475.63419599999992
 30
0.0
  0
VERTEX
  5
3FC
  8
LAYER1
 10
4917.1078219999999
 20
225.634196
 30
0.0
  0
SEQEND
  5
3FD
  8
LAYER1
  0
POLYLINE
  5
FD
  8
LAYER1
 66
     1
 10
0.0
 20
0.0
 30
0.0
1001
ACDBBLOCKREPETAG
1070
     1
1071
       31
1005
FD
  0
VERTEX
  5
3FE
  8
LAYER1
 10
5567.1078219999999
 20
375.63419599999997
 30
0.0
  0
VERTEX
  5
3FF
  8
LAYER1
 10
5517.107821999999
 20
450.63419599999992
 30
0.0
  0
VERTEX
  5
400
  8
LAYER1
 10
5017.107821999999
 20
450.63419599999992
 30
0.0
  0
VERTEX
  5
401
  8
LAYER1
 10
5017.107821999999
 20
550.63419599999986
 30
0.0
  0
VERTEX
  5
402
  8
LAYER1
 10
5517.107821999999
 20
550.63419599999986
 30
0.0
  0
VERTEX
  5
403
  8
LAYER1
 10
5567.1078219999999
 20
625.63419599999997
 30
0.0
  0
VERTEX
  5
404
  8
LAYER1
 10
5617.1078219999999
 20
625.63419599999997
 30
0.0
  0
SEQEND
  5
405
  8
LAYER1
  0
POLYLINE
  5
FE
  8
LAYER1
 66
     1
 10
0.0
 20
0.0
 30
0.0
1001
ACDBBLOCKREPETAG
1070
     1
1071
       32
1005
FE
  0
VERTEX
  5
406
  8
LAYER1
 10
5017.107821999999
 20
550.63419599999986
 30
0.0
  0
VERTEX
  5
407
  8
LAYER1
 10
4967.1078219999999
 20
475.63419599999992
 30
0.0
  0
SEQEND
  5
408
  8
LAYER1
  0
POLYLINE
  5
FF
  8
LAYER1
 66
     1
 10
0.0
 20
0.0
 30
0.0
1001
ACDBBLOCKREPETAG
1070
     1
1071
       33
1005
FF
  0
VERTEX
  5
409
  8
LAYER1
 10
4917.1078219999999
 20
475.63419599999992
 30
0.0
  0
VERTEX
  5
40A
  8
LAYER1
 10
4917.1078219999999
 20
725.63419599999997
 30
0.0
  0
VERTEX
  5
40B
  8
LAYER1
 10
4967.1078219999999
 20
725.63419599999997
 30
0.0
  0
VERTEX
  5
40C
  8
LAYER1
 10
5017.107821999999
 20
650.63419599999997
 30
0.0
  0
VERTEX
  5
40D
  8
LAYER1
 10
5517.107821999999
 20
650.63419599999997
 30
0.0
  0
VERTEX
  5
40E
  8
LAYER1
 10
5517.107821999999
 20
550.63419599999986
 30
0.0
  0
SEQEND
  5
40F
  8
LAYER1
  0
POLYLINE
  5
100
  8
LAYER1
 66
     1
 10
0.0
 20
0.0
 30
0.0
1001
ACDBBLOCKREPETAG
1070
     1
1071
       34
1005
100
  0
VERTEX
  5
410
  8
LAYER1
 10
5567.1078219999999
 20
625.63419599999997
 30
0.0
  0
VERTEX
  5
411
  8
LAYER1
 10
5517.107821999999
 20
700.63419599999997
 30
0.0
  0
VERTEX
  5
412
  8
LAYER1
 10
5017.107821999999
 20
700.63419599999997
 30
0.0
  0
VERTEX
  5
413
  8
LAYER1
 10
5017.107821999999
 20
800.63419599999997
 30
0.0
  0
VERTEX
  5
414
  8
LAYER1
 10
5517.107821999999
 20
800.63419599999997
 30
0.0
  0
VERTEX
  5
415
  8
LAYER1
 10
5567.1078219999999
 20
875.63419599999997
 30
0.0
  0
VERTEX
  5
416
  8
LAYER1
 10
5617.1078219999999
 20
875.63419599999997
 30
0.0
  0
SEQEND
  5
417
  8
LAYER1
  0
POLYLINE
  5
101
  8
LAYER1
 66
     1
 10
0.0
 20
0.0
 30
0.0
1001
ACDBBLOCKREPETAG
1070
     1
1071
       35
1005
101
  0
VERTEX
  5
418
  8
LAYER1
 10
5017.107821999999
 20
800.63419599999997
 30
0.0
  0
VERTEX
  5
419
  8
LAYER1
 10
4967.1078219999999
 20
725.63419599999997
 30
0.0
  0
SEQEND
  5
41A
  8
LAYER1
  0
POLYLINE
  5
102
  8
LAYER1
 66
     1
 10
0.0
 20
0.0
 30
0.0
1001
ACDBBLOCKREPETAG
1070
     1
1071
       36
1005
102
  0
VERTEX
  5
41B
  8
LAYER1
 10
5517.107821999999
 20
800.63419599999997
 30
0.0
  0
VERTEX
  5
41C
  8
LAYER1
 10
5517.107821999999
 20
900.63419599999997
 30
0.0
  0
VERTEX
  5
41D
  8
LAYER1
 10
5017.107821999999
 20
900.63419599999997
 30
0.0
  0
VERTEX
  5
41E
  8
LAYER1
 10
4967.1078219999999
 20
975.63419599999997
 30
0.0
  0
VERTEX
  5
41F
  8
LAYER1
 10
4917.1078219999999
 20
975.63419599999997
 30
0.0
  0
VERTEX
  5
420
  8
LAYER1
 10
4917.1078219999999
 20
725.63419599999997
 30
0.0
  0
SEQEND
  5
421
  8
LAYER1
  0
ENDBLK
  5
A6
  8
0
  0
ENDSEC
  0
SECTION
  2
ENTITIES
  0
INSERT
  5
1E
  8
LAYER1
  2
*U0
 10
3506.237309000001
 20
5723.1179739999998
 30
0.0
  0
ENDSEC
  0
EOF
