  0
SECTION
  2
HEADER
  9
$ACADVER
  1
AC1009
  9
$INSBASE
 10
0.0
 20
0.0
 30
0.0
  9
$EXTMIN
 10
-290.12281557099323
 20
-1871.856400239888
 30
0.0
  9
$EXTMAX
 10
5705.8796948656336
 20
-336.37170320686522
 30
0.0
  9
$LIMMIN
 10
0.0
 20
0.0
  9
$LIMMAX
 10
12.0
 20
9.0
  9
$ORTHOMODE
 70
     1
  9
$REGENMODE
 70
     1
  9
$FILLMODE
 70
     1
  9
$QTEXTMODE
 70
     0
  9
$MIRRTEXT
 70
     0
  9
$DRAGMODE
 70
     2
  9
$LTSCALE
 40
1.0
  9
$OSMODE
 70
   279
  9
$ATTMODE
 70
     1
  9
$TEXTSIZE
 40
0.2
  9
$TRACEWID
 40
0.05
  9
$TEXTSTYLE
  7
STANDARD
  9
$CLAYER
  8
0
  9
$CELTYPE
  6
BYLAYER
  9
$CECOLOR
 62
   256
  9
$DIMSCALE
 40
1.0
  9
$DIMASZ
 40
0.18
  9
$DIMEXO
 40
0.0625
  9
$DIMDLI
 40
0.38
  9
$DIMRND
 40
0.0
  9
$DIMDLE
 40
0.0
  9
$DIMEXE
 40
0.18
  9
$DIMTP
 40
0.0
  9
$DIMTM
 40
0.0
  9
$DIMTXT
 40
0.18
  9
$DIMCEN
 40
0.09
  9
$DIMTSZ
 40
0.0
  9
$DIMTOL
 70
     0
  9
$DIMLIM
 70
     0
  9
$DIMTIH
 70
     1
  9
$DIMTOH
 70
     1
  9
$DIMSE1
 70
     0
  9
$DIMSE2
 70
     0
  9
$DIMTAD
 70
     0
  9
$DIMZIN
 70
     0
  9
$DIMBLK
  1

  9
$DIMASO
 70
     1
  9
$DIMSHO
 70
     1
  9
$DIMPOST
  1

  9
$DIMAPOST
  1

  9
$DIMALT
 70
     0
  9
$DIMALTD
 70
     2
  9
$DIMALTF
 40
25.399999999999999
  9
$DIMLFAC
 40
1.0
  9
$DIMTOFL
 70
     0
  9
$DIMTVP
 40
0.0
  9
$DIMTIX
 70
     0
  9
$DIMSOXD
 70
     0
  9
$DIMSAH
 70
     0
  9
$DIMBLK1
  1

  9
$DIMBLK2
  1

  9
$DIMSTYLE
  2
STANDARD
  9
$DIMCLRD
 70
     0
  9
$DIMCLRE
 70
     0
  9
$DIMCLRT
 70
     0
  9
$DIMTFAC
 40
1.0
  9
$DIMGAP
 40
0.09
  9
$LUNITS
 70
     2
  9
$LUPREC
 70
     4
  9
$SKETCHINC
 40
0.1
  9
$FILLETRAD
 40
0.0
  9
$AUNITS
 70
     0
  9
$AUPREC
 70
     0
  9
$MENU
  1
.
  9
$ELEVATION
 40
0.0
  9
$PELEVATION
 40
0.0
  9
$THICKNESS
 40
0.0
  9
$LIMCHECK
 70
     0
  9
$BLIPMODE
 70
     0
  9
$CHAMFERA
 40
0.0
  9
$CHAMFERB
 40
0.0
  9
$SKPOLY
 70
     0
  9
$TDCREATE
 40
2455155.4565630322
  9
$TDUPDATE
 40
2455156.7477269559
  9
$TDINDWG
 40
0.0213918981
  9
$TDUSRTIMER
 40
0.0213867361
  9
$USRTIMER
 70
     1
  9
$ANGBASE
 50
0.0
  9
$ANGDIR
 70
     0
  9
$PDMODE
 70
     0
  9
$PDSIZE
 40
0.0
  9
$PLINEWID
 40
0.0
  9
$COORDS
 70
     1
  9
$SPLFRAME
 70
     0
  9
$SPLINETYPE
 70
     6
  9
$SPLINESEGS
 70
     8
  9
$ATTDIA
 70
     0
  9
$ATTREQ
 70
     1
  9
$HANDLING
 70
     1
  9
$HANDSEED
  5
394
  9
$SURFTAB1
 70
     6
  9
$SURFTAB2
 70
     6
  9
$SURFTYPE
 70
     6
  9
$SURFU
 70
     6
  9
$SURFV
 70
     6
  9
$UCSNAME
  2

  9
$UCSORG
 10
0.0
 20
0.0
 30
0.0
  9
$UCSXDIR
 10
1.0
 20
0.0
 30
0.0
  9
$UCSYDIR
 10
0.0
 20
1.0
 30
0.0
  9
$PUCSNAME
  2

  9
$PUCSORG
 10
0.0
 20
0.0
 30
0.0
  9
$PUCSXDIR
 10
1.0
 20
0.0
 30
0.0
  9
$PUCSYDIR
 10
0.0
 20
1.0
 30
0.0
  9
$USERI1
 70
     0
  9
$USERI2
 70
     0
  9
$USERI3
 70
     0
  9
$USERI4
 70
     0
  9
$USERI5
 70
     0
  9
$USERR1
 40
0.0
  9
$USERR2
 40
0.0
  9
$USERR3
 40
0.0
  9
$USERR4
 40
0.0
  9
$USERR5
 40
0.0
  9
$WORLDVIEW
 70
     1
  9
$SHADEDGE
 70
     3
  9
$SHADEDIF
 70
    70
  9
$TILEMODE
 70
     1
  9
$MAXACTVP
 70
    64
  9
$PLIMCHECK
 70
     0
  9
$PEXTMIN
 10
0.0
 20
0.0
 30
0.0
  9
$PEXTMAX
 10
0.0
 20
0.0
 30
0.0
  9
$PLIMMIN
 10
0.0
 20
0.0
  9
$PLIMMAX
 10
12.0
 20
9.0
  9
$UNITMODE
 70
     0
  9
$VISRETAIN
 70
     1
  9
$PLINEGEN
 70
     0
  9
$PSLTSCALE
 70
     1
  0
ENDSEC
  0
SECTION
  2
TABLES
  0
TABLE
  2
VPORT
 70
     1
  0
VPORT
  2
*ACTIVE
 70
     0
 10
0.0
 20
0.0
 11
1.0
 21
1.0
 12
1276.2769643295171
 22
-1448.5081082584511
 13
0.0
 23
0.0
 14
0.5
 24
0.5
 15
0.5
 25
0.5
 16
0.0
 26
0.0
 36
1.0
 17
0.0
 27
0.0
 37
0.0
 40
2869.5454702593061
 41
1.735124760076775
 42
50.0
 43
0.0
 44
0.0
 50
0.0
 51
0.0
 71
     0
 72
  1000
 73
     1
 74
     3
 75
     0
 76
     0
 77
     0
 78
     0
  0
ENDTAB
  0
TABLE
  2
LTYPE
 70
     1
  0
LTYPE
  2
CONTINUOUS
 70
     0
  3
Solid line
 72
    65
 73
     0
 40
0.0
  0
ENDTAB
  0
TABLE
  2
LAYER
 70
     1
  0
LAYER
  2
0
 70
     0
 62
     7
  6
CONTINUOUS
  0
ENDTAB
  0
TABLE
  2
STYLE
 70
     1
  0
STYLE
  2
STANDARD
 70
     0
 40
0.0
 41
1.0
 50
0.0
 71
     0
 42
0.2
  3
txt
  4

  0
ENDTAB
  0
TABLE
  2
VIEW
 70
     0
  0
ENDTAB
  0
TABLE
  2
UCS
 70
     0
  0
ENDTAB
  0
TABLE
  2
APPID
 70
     2
  0
APPID
  2
ACAD
 70
     0
  0
APPID
  2
ACAD_EXEMPT_FROM_CAD_STANDARDS
 70
     0
  0
ENDTAB
  0
TABLE
  2
DIMSTYLE
 70
     2
  0
DIMSTYLE
  2
STANDARD
 70
     0
  3

  4

  5

  6

  7

 40
1.0
 41
0.18
 42
0.0625
 43
0.38
 44
0.18
 45
0.0
 46
0.0
 47
0.0
 48
0.0
140
0.18
141
0.09
142
0.0
143
25.399999999999999
144
1.0
145
0.0
146
1.0
147
0.09
 71
     0
 72
     0
 73
     1
 74
     1
 75
     0
 76
     0
 77
     0
 78
     0
170
     0
171
     2
172
     0
173
     0
174
     0
175
     0
176
     0
177
     0
178
     0
  0
DIMSTYLE
  2
ISO-25
 70
     0
  3

  4

  5

  6

  7

 40
1.0
 41
2.5
 42
0.625
 43
3.75
 44
1.25
 45
0.0
 46
0.0
 47
0.0
 48
0.0
140
2.5
141
2.5
142
0.0
143
0.03937007874016
144
1.0
145
0.0
146
1.0
147
0.625
 71
     0
 72
     0
 73
     0
 74
     0
 75
     0
 76
     0
 77
     1
 78
     8
170
     0
171
     3
172
     1
173
     0
174
     0
175
     0
176
     0
177
     0
178
     0
  0
ENDTAB
  0
ENDSEC
  0
SECTION
  2
BLOCKS
  0
BLOCK
  8
0
  2
$MODEL_SPACE
 70
     0
 10
0.0
 20
0.0
 30
0.0
  3
$MODEL_SPACE
  1

  0
ENDBLK
  5
338
  8
0
  0
BLOCK
 67
     1
  8
0
  2
$PAPER_SPACE
 70
     0
 10
0.0
 20
0.0
 30
0.0
  3
$PAPER_SPACE
  1

  0
ENDBLK
  5
334
 67
     1
  8
0
  0
ENDSEC
  0
SECTION
  2
ENTITIES
  0
LINE
  5
F3
  8
0
 10
-290.12281557099323
 20
-349.7980373811119
 30
0.0
 11
1709.877184429007
 21
-349.7980373811119
 31
0.0
  0
LINE
  5
F4
  8
0
 10
1709.877184429007
 20
-349.7980373811119
 30
0.0
 11
1709.877184429007
 21
-1849.798037381112
 31
0.0
  0
LINE
  5
F5
  8
0
 10
1709.877184429007
 20
-1849.798037381112
 30
0.0
 11
-290.12281557099323
 21
-1849.798037381112
 31
0.0
  0
LINE
  5
F6
  8
0
 10
-290.12281557099323
 20
-1849.798037381112
 30
0.0
 11
-290.12281557099323
 21
-349.7980373811119
 31
0.0
  0
ARC
  5
137
  8
0
 10
3211.3723740210698
 20
-1346.8564002398821
 30
0.0
 40
525.00000000000591
 50
217.11973310123929
 51
16.91252700433478
  0
LINE
  5
138
  8
0
 10
2792.749904660785
 20
-1663.6847893508871
 30
0.0
 11
2937.0108889688572
 21
-1483.6475177830721
 31
0.0
  0
LINE
  5
139
  8
0
 10
2937.0108889688572
 20
-1483.6475177830721
 30
0.0
 11
3188.0624334691238
 21
-1301.139887549884
 31
0.0
  0
LINE
  5
13A
  8
0
 10
3188.0624334691238
 20
-1301.139887549884
 30
0.0
 11
3483.224600137255
 21
-1205.144010257696
 31
0.0
  0
LINE
  5
13B
  8
0
 10
3483.224600137255
 20
-1205.144010257696
 30
0.0
 11
3713.666125489166
 21
-1194.1279247150439
 31
0.0
  0
TEXT
  5
13C
  8
0
 10
5579.0196802970659
 20
-1046.2690505845501
 30
0.0
 40
10.0
  1
060
 50
316.93306675791598
  0
ARC
  5
13D
  8
0
 10
5180.8796948656282
 20
-861.37170320687108
 30
0.0
 40
525.00000000000591
 50
333.9137195811968
 51
133.70651348436519
  0
LINE
  5
13E
  8
0
 10
5652.3994643572269
 20
-1092.226867711742
 30
0.0
 11
5426.6617072844583
 21
-1044.6126284668319
 31
0.0
  0
LINE
  5
13F
  8
0
 10
5426.6617072844583
 20
-1044.6126284668319
 30
0.0
 11
5150.5793656792639
 21
-902.78719441810517
 31
0.0
  0
LINE
  5
140
  8
0
 10
5150.5793656792639
 20
-902.78719441810517
 30
0.0
 11
4931.835925017298
 21
-682.5890557868413
 31
0.0
  0
LINE
  5
141
  8
0
 10
4931.835925017298
 20
-682.5890557868413
 30
0.0
 11
4818.1232826062596
 21
-481.85518793413991
 31
0.0
  0
TEXT
  5
142
  8
0
 10
4877.9261027823059
 20
-506.2684235556203
 30
0.0
 40
10.0
  1
060
 50
57.251711110928888
  0
ARC
  5
143
  8
0
 10
4736.0700895837044
 20
-578.13735700861503
 30
0.0
 40
525.00000000000591
 50
154.03720926932201
 51
313.83000317241522
  0
LINE
  5
144
  8
0
 10
4264.0538531417014
 20
-348.2989952516723
 30
0.0
 11
4489.8937088709008
 21
-395.42659132163931
 31
0.0
  0
LINE
  5
145
  8
0
 10
4489.8937088709008
 20
-395.42659132163931
 30
0.0
 11
4766.2810855852831
 21
-536.65665569268344
 31
0.0
  0
LINE
  5
146
  8
0
 10
4766.2810855852831
 20
-536.65665569268344
 30
0.0
 11
4985.4986112239103
 21
-756.38282514500736
 31
0.0
  0
LINE
  5
147
  8
0
 10
4985.4986112239103
 20
-756.38282514500736
 30
0.0
 11
5099.6436312201886
 21
-956.87114190499517
 31
0.0
  0
TEXT
  5
148
  8
0
 10
5039.7883320996307
 20
-932.58685600429612
 30
0.0
 40
10.0
  1
060
 50
237.37520079901381
  0
ARC
  5
149
  8
0
 10
4519.6685053809679
 20
-1617.656131930019
 30
0.0
 40
525.00000000000591
 50
32.353986788185871
 51
192.14678069137369
  0
LINE
  5
14A
  8
0
 10
4963.1664375634691
 20
-1336.7031391539811
 30
0.0
 11
4804.4463337421239
 21
-1504.13246570717
 31
0.0
  0
LINE
  5
14B
  8
0
 10
4804.4463337421239
 20
-1504.13246570717
 30
0.0
 11
4539.0996334245401
 21
-1665.1512277192039
 31
0.0
  0
LINE
  5
14C
  8
0
 10
4539.0996334245401
 20
-1665.1512277192039
 30
0.0
 11
4236.982391135175
 21
-1736.2925307770749
 31
0.0
  0
LINE
  5
14D
  8
0
 10
4236.982391135175
 20
-1736.2925307770749
 30
0.0
 11
4006.4223302724249
 21
-1728.1249679721141
 31
0.0
  0
POLYLINE
  5
198
  8
0
 66
     1
 10
0.0
 20
0.0
 30
0.0
  0
VERTEX
  5
358
  8
0
 10
1187.949393790555
 20
-905.29364151908635
 30
0.0
  0
VERTEX
  5
359
  8
0
 10
1191.942255714604
 20
-921.74482986876649
 30
0.0
 42
0.9999999999999998
  0
VERTEX
  5
35A
  8
0
 10
1166.1636258561241
 20
-868.67447804574294
 30
0.0
 42
0.9999999999999998
  0
VERTEX
  5
35B
  8
0
 10
1191.942255714604
 20
-921.74482986876649
 30
0.0
  0
VERTEX
  5
35C
  8
0
 10
1179.962088213674
 20
-909.81029905926232
 30
0.0
  0
SEQEND
  5
35D
  8
0
  0
POLYLINE
  5
2AA
  8
0
 66
     1
 10
0.0
 20
0.0
 30
0.0
  0
VERTEX
  5
35E
  8
0
 10
809.16175815662461
 20
-515.98974805560658
 30
0.0
  0
VERTEX
  5
35F
  8
0
 10
811.34638780564865
 20
-520.4872354982358
 30
0.0
 42
-0.8596764791472094
  0
VERTEX
  5
360
  8
0
 10
1641.386421866318
 20
-1143.9519950887279
 30
0.0
  0
VERTEX
  5
361
  8
0
 10
1449.4665985588131
 20
-1093.5287902929099
 30
0.0
  0
VERTEX
  5
362
  8
0
 10
1151.2983413259369
 20
-932.16030485815702
 30
0.0
  0
VERTEX
  5
363
  8
0
 10
913.24501587104169
 20
-690.75874738045786
 30
0.0
  0
VERTEX
  5
364
  8
0
 10
811.34638780564853
 20
-520.48723549823603
 30
0.0
  0
VERTEX
  5
365
  8
0
 10
805.94940287449356
 20
-523.10879107706455
 30
0.0
  0
SEQEND
  5
366
  8
0
  0
POLYLINE
  5
2AB
  8
0
 66
     1
 10
0.0
 20
0.0
 30
0.0
  0
VERTEX
  5
367
  8
0
 10
724.8354931898258
 20
-602.3666562291055
 30
0.0
  0
VERTEX
  5
368
  8
0
 10
719.99416168532355
 20
-586.14487908464025
 30
0.0
 42
1.0
  0
VERTEX
  5
369
  8
0
 10
748.49250932155553
 20
-637.8057364333572
 30
0.0
 42
0.9999999999999992
  0
VERTEX
  5
36A
  8
0
 10
719.99416168532355
 20
-586.14487908464025
 30
0.0
  0
VERTEX
  5
36B
  8
0
 10
732.57760927889478
 20
-597.44152839552805
 30
0.0
  0
SEQEND
  5
36C
  8
0
  0
POLYLINE
  5
2AC
  8
0
 66
     1
 10
0.0
 20
0.0
 30
0.0
  0
VERTEX
  5
36D
  8
0
 10
259.62274757758149
 20
-382.56430643127368
 30
0.0
  0
VERTEX
  5
36E
  8
0
 10
259.62274757758149
 20
-387.56430643127379
 30
0.0
  0
VERTEX
  5
36F
  8
0
 10
453.90096734882212
 20
-427.95850753467761
 30
0.0
  0
VERTEX
  5
370
  8
0
 10
760.04271025515163
 20
-573.63393773164728
 30
0.0
  0
VERTEX
  5
371
  8
0
 10
1010.304430270825
 20
-802.35466090204466
 30
0.0
  0
VERTEX
  5
372
  8
0
 10
1120.9031663931171
 20
-967.10792408192435
 30
0.0
 42
-0.8596764791472089
  0
VERTEX
  5
373
  8
0
 10
259.62274757758149
 20
-387.56430643127379
 30
0.0
  0
VERTEX
  5
374
  8
0
 10
254.62274757758161
 20
-387.56430643127379
 30
0.0
  0
SEQEND
  5
375
  8
0
  0
POLYLINE
  5
2AD
  8
0
 66
     1
 10
0.0
 20
0.0
 30
0.0
  0
VERTEX
  5
376
  8
0
 10
531.05420896358464
 20
-1648.9911556484419
 30
0.0
  0
VERTEX
  5
377
  8
0
 10
547.23892928473299
 20
-1653.9549619084989
 30
0.0
 42
0.999999999999992
  0
VERTEX
  5
378
  8
0
 10
488.44457331667343
 20
-1649.033203452306
 30
0.0
 42
1.0
  0
VERTEX
  5
379
  8
0
 10
547.23892928473288
 20
-1653.9549619084989
 30
0.0
  0
VERTEX
  5
37A
  8
0
 10
530.86111593355326
 20
-1658.165029464637
 30
0.0
  0
SEQEND
  5
37B
  8
0
  0
POLYLINE
  5
2AE
  8
0
 66
     1
 10
0.0
 20
0.0
 30
0.0
  0
VERTEX
  5
37C
  8
0
 10
7.9209774185452462
 20
-1781.4172765373521
 30
0.0
  0
VERTEX
  5
37D
  8
0
 10
7.9209774185451343
 20
-1776.4172765373521
 30
0.0
  0
VERTEX
  5
37E
  8
0
 10
206.35286196454561
 20
-1775.706392728395
 30
0.0
  0
VERTEX
  5
37F
  8
0
 10
535.44911296659131
 20
-1694.2216991400201
 30
0.0
  0
VERTEX
  5
380
  8
0
 10
826.40878963679995
 20
-1520.1913447050399
 30
0.0
  0
VERTEX
  5
381
  8
0
 10
967.73173465222794
 20
-1380.8947425482349
 30
0.0
 42
0.8596764791472086
  0
VERTEX
  5
382
  8
0
 10
7.9209774185452462
 20
-1776.4172765373521
 30
0.0
  0
VERTEX
  5
383
  8
0
 10
2.9209774185452471
 20
-1776.4172765373521
 30
0.0
  0
SEQEND
  5
384
  8
0
  0
LINE
  5
344
  8
0
 10
1709.877184429007
 20
-1849.798037381112
 30
0.0
 11
1165.1807745803881
 21
-1332.4470109545321
 31
0.0
  0
LINE
  5
345
  8
0
 10
1165.1807745803881
 20
-1332.4470109545321
 30
0.0
 11
1148.638387067838
 21
-1328.850629461167
 31
0.0
  0
ARC
  5
346
  8
0
 10
1178.138387067838
 20
-1328.850629461167
 30
0.0
 40
29.5
 50
180.0
 51
0.0
  0
ARC
  5
347
  8
0
 10
1178.138387067838
 20
-1328.850629461167
 30
0.0
 40
29.5
 50
0.0
 51
180.0
  0
LINE
  5
348
  8
0
 10
1148.638387067838
 20
-1328.850629461167
 30
0.0
 11
1164.6079133822809
 21
-1323.2890048526881
 31
0.0
  0
LINE
  5
34B
  8
0
 10
1680.860788922007
 20
-1161.825449645318
 30
0.0
 11
1675.8607889220079
 21
-1161.825449645318
 31
0.0
  0
ARC
  5
34C
  8
0
 10
1178.1383870678389
 20
-1328.850629461167
 30
0.0
 40
525.0
 50
215.81117539889649
 51
18.550670574618071
  0
LINE
  5
34D
  8
0
 10
752.38978982888295
 20
-1636.036455874206
 30
0.0
 11
881.60008315273876
 21
-1485.436262449934
 31
0.0
  0
LINE
  5
34E
  8
0
 10
881.60008315273876
 20
-1485.436262449934
 30
0.0
 11
1157.0280735582501
 21
-1287.7407394506049
 31
0.0
  0
LINE
  5
34F
  8
0
 10
1157.0280735582501
 20
-1287.7407394506049
 30
0.0
 11
1478.179838803155
 21
-1179.086971025966
 31
0.0
  0
LINE
  5
350
  8
0
 10
1478.179838803155
 20
-1179.086971025966
 30
0.0
 11
1675.8607889220079
 21
-1161.825449645318
 31
0.0
  0
LINE
  5
351
  8
0
 10
1675.8607889220079
 20
-1161.825449645318
 30
0.0
 11
1675.8607889220079
 21
-1155.825449645318
 31
0.0
  0
ENDSEC
  0
EOF
