  0
SECTION
  2
HEADER
  9
$ACADVER
  1
AC1009
  9
$INSBASE
 10
0.0
 20
0.0
 30
0.0
  9
$EXTMIN
 10
37085.241892587459
 20
16696.452428301822
 30
0.0
  9
$EXTMAX
 10
40723.84715928114
 20
20871.004775591438
 30
0.0
  9
$LIMMIN
 10
0.0
 20
0.0
  9
$LIMMAX
 10
420.0
 20
297.0
  9
$ORTHOMODE
 70
     1
  9
$REGENMODE
 70
     1
  9
$FILLMODE
 70
     1
  9
$QTEXTMODE
 70
     0
  9
$MIRRTEXT
 70
     0
  9
$DRAGMODE
 70
     2
  9
$LTSCALE
 40
1.0
  9
$OSMODE
 70
   319
  9
$ATTMODE
 70
     1
  9
$TEXTSIZE
 40
2.5
  9
$TRACEWID
 40
1.0
  9
$TEXTSTYLE
  7
STANDARD
  9
$CLAYER
  8
0
  9
$CELTYPE
  6
BYLAYER
  9
$CECOLOR
 62
   256
  9
$DIMSCALE
 40
1.0
  9
$DIMASZ
 40
2.5
  9
$DIMEXO
 40
0.625
  9
$DIMDLI
 40
3.75
  9
$DIMRND
 40
0.0
  9
$DIMDLE
 40
0.0
  9
$DIMEXE
 40
1.25
  9
$DIMTP
 40
0.0
  9
$DIMTM
 40
0.0
  9
$DIMTXT
 40
2.5
  9
$DIMCEN
 40
2.5
  9
$DIMTSZ
 40
0.0
  9
$DIMTOL
 70
     0
  9
$DIMLIM
 70
     0
  9
$DIMTIH
 70
     0
  9
$DIMTOH
 70
     0
  9
$DIMSE1
 70
     0
  9
$DIMSE2
 70
     0
  9
$DIMTAD
 70
     1
  9
$DIMZIN
 70
     8
  9
$DIMBLK
  1

  9
$DIMASO
 70
     1
  9
$DIMSHO
 70
     1
  9
$DIMPOST
  1

  9
$DIMAPOST
  1

  9
$DIMALT
 70
     0
  9
$DIMALTD
 70
     3
  9
$DIMALTF
 40
0.03937007874016
  9
$DIMLFAC
 40
1.0
  9
$DIMTOFL
 70
     1
  9
$DIMTVP
 40
0.0
  9
$DIMTIX
 70
     0
  9
$DIMSOXD
 70
     0
  9
$DIMSAH
 70
     0
  9
$DIMBLK1
  1

  9
$DIMBLK2
  1

  9
$DIMSTYLE
  2
ISO-25
  9
$DIMCLRD
 70
     0
  9
$DIMCLRE
 70
     0
  9
$DIMCLRT
 70
     0
  9
$DIMTFAC
 40
1.0
  9
$DIMGAP
 40
0.625
  9
$LUNITS
 70
     2
  9
$LUPREC
 70
     4
  9
$SKETCHINC
 40
1.0
  9
$FILLETRAD
 40
0.0
  9
$AUNITS
 70
     0
  9
$AUPREC
 70
     0
  9
$MENU
  1
.
  9
$ELEVATION
 40
0.0
  9
$PELEVATION
 40
0.0
  9
$THICKNESS
 40
0.0
  9
$LIMCHECK
 70
     0
  9
$BLIPMODE
 70
     0
  9
$CHAMFERA
 40
0.0
  9
$CHAMFERB
 40
0.0
  9
$SKPOLY
 70
     0
  9
$TDCREATE
 40
2455065.540467836
  9
$TDUPDATE
 40
2455194.6414804282
  9
$TDINDWG
 40
0.028187037
  9
$TDUSRTIMER
 40
0.0281802431
  9
$USRTIMER
 70
     1
  9
$ANGBASE
 50
0.0
  9
$ANGDIR
 70
     0
  9
$PDMODE
 70
     0
  9
$PDSIZE
 40
0.0
  9
$PLINEWID
 40
0.0
  9
$COORDS
 70
     1
  9
$SPLFRAME
 70
     0
  9
$SPLINETYPE
 70
     6
  9
$SPLINESEGS
 70
     8
  9
$ATTDIA
 70
     0
  9
$ATTREQ
 70
     1
  9
$HANDLING
 70
     1
  9
$HANDSEED
  5
3C7
  9
$SURFTAB1
 70
     6
  9
$SURFTAB2
 70
     6
  9
$SURFTYPE
 70
     6
  9
$SURFU
 70
     6
  9
$SURFV
 70
     6
  9
$UCSNAME
  2

  9
$UCSORG
 10
0.0
 20
0.0
 30
0.0
  9
$UCSXDIR
 10
1.0
 20
0.0
 30
0.0
  9
$UCSYDIR
 10
0.0
 20
1.0
 30
0.0
  9
$PUCSNAME
  2

  9
$PUCSORG
 10
0.0
 20
0.0
 30
0.0
  9
$PUCSXDIR
 10
1.0
 20
0.0
 30
0.0
  9
$PUCSYDIR
 10
0.0
 20
1.0
 30
0.0
  9
$USERI1
 70
     0
  9
$USERI2
 70
     0
  9
$USERI3
 70
     0
  9
$USERI4
 70
     0
  9
$USERI5
 70
     0
  9
$USERR1
 40
0.0
  9
$USERR2
 40
0.0
  9
$USERR3
 40
0.0
  9
$USERR4
 40
0.0
  9
$USERR5
 40
0.0
  9
$WORLDVIEW
 70
     1
  9
$SHADEDGE
 70
     3
  9
$SHADEDIF
 70
    70
  9
$TILEMODE
 70
     1
  9
$MAXACTVP
 70
    64
  9
$PLIMCHECK
 70
     0
  9
$PEXTMIN
 10
0.0
 20
0.0
 30
0.0
  9
$PEXTMAX
 10
0.0
 20
0.0
 30
0.0
  9
$PLIMMIN
 10
0.0
 20
0.0
  9
$PLIMMAX
 10
12.0
 20
9.0
  9
$UNITMODE
 70
     0
  9
$VISRETAIN
 70
     1
  9
$PLINEGEN
 70
     0
  9
$PSLTSCALE
 70
     1
  0
ENDSEC
  0
SECTION
  2
TABLES
  0
TABLE
  2
VPORT
 70
     1
  0
VPORT
  2
*ACTIVE
 70
     0
 10
0.0
 20
0.0
 11
1.0
 21
1.0
 12
38819.023295359882
 22
17330.67028827086
 13
0.0
 23
0.0
 14
10.0
 24
10.0
 15
10.0
 25
10.0
 16
0.0
 26
0.0
 36
1.0
 17
0.0
 27
0.0
 37
0.0
 40
1766.3814883467501
 41
1.735124760076775
 42
50.0
 43
0.0
 44
0.0
 50
0.0
 51
0.0
 71
     0
 72
  1000
 73
     1
 74
     3
 75
     0
 76
     0
 77
     0
 78
     0
  0
ENDTAB
  0
TABLE
  2
LTYPE
 70
     1
  0
LTYPE
  2
CONTINUOUS
 70
     0
  3
Solid line
 72
    65
 73
     0
 40
0.0
  0
ENDTAB
  0
TABLE
  2
LAYER
 70
     2
  0
LAYER
  2
0
 70
     0
 62
     7
  6
CONTINUOUS
  0
LAYER
  2
DEFPOINTS
 70
     0
 62
     7
  6
CONTINUOUS
  0
ENDTAB
  0
TABLE
  2
STYLE
 70
     1
  0
STYLE
  2
STANDARD
 70
     0
 40
0.0
 41
1.0
 50
0.0
 71
     0
 42
2.5
  3
txt
  4

  0
ENDTAB
  0
TABLE
  2
VIEW
 70
     0
  0
ENDTAB
  0
TABLE
  2
UCS
 70
     0
  0
ENDTAB
  0
TABLE
  2
APPID
 70
     3
  0
APPID
  2
ACAD
 70
     0
  0
APPID
  2
ACAD_PSEXT
 70
     0
  0
APPID
  2
ACAD_EXEMPT_FROM_CAD_STANDARDS
 70
     0
  0
ENDTAB
  0
TABLE
  2
DIMSTYLE
 70
     2
  0
DIMSTYLE
  2
ISO-25
 70
     0
  3

  4

  5

  6

  7

 40
1.0
 41
2.5
 42
0.625
 43
3.75
 44
1.25
 45
0.0
 46
0.0
 47
0.0
 48
0.0
140
2.5
141
2.5
142
0.0
143
0.03937007874016
144
1.0
145
0.0
146
1.0
147
0.625
 71
     0
 72
     0
 73
     0
 74
     0
 75
     0
 76
     0
 77
     1
 78
     8
170
     0
171
     3
172
     1
173
     0
174
     0
175
     0
176
     0
177
     0
178
     0
  0
DIMSTYLE
  2
STANDARD
 70
     0
  3

  4

  5

  6

  7

 40
1.0
 41
0.18
 42
0.0625
 43
0.38
 44
0.18
 45
0.0
 46
0.0
 47
0.0
 48
0.0
140
0.18
141
0.09
142
0.0
143
25.399999999999999
144
1.0
145
0.0
146
1.0
147
0.09
 71
     0
 72
     0
 73
     1
 74
     1
 75
     0
 76
     0
 77
     0
 78
     0
170
     0
171
     2
172
     0
173
     0
174
     0
175
     0
176
     0
177
     0
178
     0
  0
ENDTAB
  0
ENDSEC
  0
SECTION
  2
BLOCKS
  0
BLOCK
  8
0
  2
$MODEL_SPACE
 70
     0
 10
0.0
 20
0.0
 30
0.0
  3
$MODEL_SPACE
  1

  0
ENDBLK
  5
34F
  8
0
  0
BLOCK
 67
     1
  8
0
  2
$PAPER_SPACE
 70
     0
 10
0.0
 20
0.0
 30
0.0
  3
$PAPER_SPACE
  1

  0
ENDBLK
  5
34B
 67
     1
  8
0
  0
BLOCK
  8
0
  2
*D2
 70
     1
 10
0.0
 20
0.0
 30
0.0
  3
*D2
  1

  0
LINE
  5
1BC
  8
0
 62
     0
 10
37943.598652933819
 20
20848.773072468121
 30
0.0
 11
38968.652262784432
 21
20848.773072468121
 31
0.0
  0
LINE
  5
1BD
  8
0
 62
     0
 10
37943.598652933819
 20
19325.715320046482
 30
0.0
 11
38968.652262784432
 21
19325.715320046482
 31
0.0
  0
LINE
  5
1BE
  8
0
 62
     0
 10
38967.402262784417
 20
20846.273072468121
 30
0.0
 11
38967.402262784417
 21
19328.215320046482
 31
0.0
  0
SOLID
  5
1BF
  8
0
 62
     0
 10
38966.985596117767
 20
20846.273072468121
 30
0.0
 11
38967.818929451088
 21
20846.273072468121
 31
0.0
 12
38967.402262784417
 22
20848.773072468121
 32
0.0
 13
38967.402262784417
 23
20848.773072468121
 33
0.0
  0
SOLID
  5
1C0
  8
0
 62
     0
 10
38966.985596117767
 20
19328.215320046482
 30
0.0
 11
38967.818929451088
 21
19328.215320046482
 31
0.0
 12
38967.402262784417
 22
19325.715320046482
 32
0.0
 13
38967.402262784417
 23
19325.715320046482
 33
0.0
  0
INSERT
  5
1C1
  8
0
  2
*U3
 10
0.0
 20
0.0
 30
0.0
  0
POINT
  5
1C2
  8
DEFPOINTS
 62
     0
 10
37942.973652933819
 20
20848.773072468121
 30
0.0
  0
POINT
  5
1C3
  8
DEFPOINTS
 62
     0
 10
37942.973652933819
 20
19325.715320046482
 30
0.0
  0
POINT
  5
1C4
  8
DEFPOINTS
 62
     0
 10
38967.402262784417
 20
19325.715320046482
 30
0.0
  0
ENDBLK
  5
1BA
  8
0
  0
BLOCK
  8
0
  2
*U3
 70
     1
 10
0.0
 20
0.0
 30
0.0
  3
*U3
  1

  0
TEXT
  5
22E
  8
0
 62
     0
 10
38966.360596117753
 20
20080.160862923989
 30
0.0
 40
2.5
  1
1523,06
 50
90.0
  0
ENDBLK
  5
230
  8
0
  0
BLOCK
  8
0
  2
*D4
 70
     1
 10
0.0
 20
0.0
 30
0.0
  3
*D4
  1

  0
LINE
  5
1D4
  8
0
 62
     0
 10
40087.769688148001
 20
20856.910005861529
 30
0.0
 11
39937.78194272198
 21
20856.910005861529
 31
0.0
  0
LINE
  5
1D5
  8
0
 62
     0
 10
40078.949806351091
 20
19325.71532004761
 30
0.0
 11
39937.78194272198
 21
19325.71532004761
 31
0.0
  0
LINE
  5
1D6
  8
0
 62
     0
 10
39939.03194272198
 20
20854.410005861529
 30
0.0
 11
39939.03194272198
 21
19328.215320047599
 31
0.0
  0
SOLID
  5
1D7
  8
0
 62
     0
 10
39938.615276055301
 20
20854.410005861529
 30
0.0
 11
39939.448609388652
 21
20854.410005861529
 31
0.0
 12
39939.03194272198
 22
20856.910005861529
 32
0.0
 13
39939.03194272198
 23
20856.910005861529
 33
0.0
  0
SOLID
  5
1D8
  8
0
 62
     0
 10
39938.615276055301
 20
19328.215320047599
 30
0.0
 11
39939.448609388652
 21
19328.215320047599
 31
0.0
 12
39939.03194272198
 22
19325.71532004761
 32
0.0
 13
39939.03194272198
 23
19325.71532004761
 33
0.0
  0
INSERT
  5
1D9
  8
0
  2
*U5
 10
0.0
 20
0.0
 30
0.0
  0
POINT
  5
1DA
  8
DEFPOINTS
 62
     0
 10
40088.394688148001
 20
20856.910005861529
 30
0.0
  0
POINT
  5
1DB
  8
DEFPOINTS
 62
     0
 10
40079.574806351091
 20
19325.71532004761
 30
0.0
  0
POINT
  5
1DC
  8
DEFPOINTS
 62
     0
 10
39939.03194272198
 20
19325.71532004761
 30
0.0
  0
ENDBLK
  5
1D2
  8
0
  0
BLOCK
  8
0
  2
*U5
 70
     1
 10
0.0
 20
0.0
 30
0.0
  3
*U5
  1

  0
TEXT
  5
232
  8
0
 62
     0
 10
39937.990276055301
 20
20084.854329621241
 30
0.0
 40
2.5
  1
1531,19
 50
90.0
  0
ENDBLK
  5
234
  8
0
  0
BLOCK
  8
0
  2
*D6
 70
     1
 10
0.0
 20
0.0
 30
0.0
  3
*D6
  1

  0
LINE
  5
1EE
  8
0
 62
     0
 10
40111.670075065609
 20
20831.773072468121
 30
0.0
 11
39908.593319567852
 21
20831.773072468121
 31
0.0
  0
LINE
  5
1EF
  8
0
 62
     0
 10
40111.67007506558
 20
19342.715320046482
 30
0.0
 11
39908.593319567852
 21
19342.715320046482
 31
0.0
  0
LINE
  5
1F0
  8
0
 62
     0
 10
39909.843319567852
 20
20829.273072468121
 30
0.0
 11
39909.843319567852
 21
19345.215320046482
 31
0.0
  0
SOLID
  5
1F1
  8
0
 62
     0
 10
39909.426652901202
 20
20829.273072468121
 30
0.0
 11
39910.259986234523
 21
20829.273072468121
 31
0.0
 12
39909.843319567852
 22
20831.773072468121
 32
0.0
 13
39909.843319567852
 23
20831.773072468121
 33
0.0
  0
SOLID
  5
1F2
  8
0
 62
     0
 10
39909.426652901202
 20
19345.215320046482
 30
0.0
 11
39910.259986234523
 21
19345.215320046482
 31
0.0
 12
39909.843319567852
 22
19342.715320046482
 32
0.0
 13
39909.843319567852
 23
19342.715320046482
 33
0.0
  0
INSERT
  5
1F3
  8
0
  2
*U7
 10
0.0
 20
0.0
 30
0.0
  0
POINT
  5
1F4
  8
DEFPOINTS
 62
     0
 10
40112.295075065609
 20
20831.773072468121
 30
0.0
  0
POINT
  5
1F5
  8
DEFPOINTS
 62
     0
 10
40112.295075065558
 20
19342.715320046482
 30
0.0
  0
POINT
  5
1F6
  8
DEFPOINTS
 62
     0
 10
39909.843319567852
 20
19342.715320046482
 30
0.0
  0
ENDBLK
  5
1EC
  8
0
  0
BLOCK
  8
0
  2
*U7
 70
     1
 10
0.0
 20
0.0
 30
0.0
  3
*U7
  1

  0
TEXT
  5
236
  8
0
 62
     0
 10
39908.801652901173
 20
20080.160862923989
 30
0.0
 40
2.5
  1
1489,06
 50
90.0
  0
ENDBLK
  5
238
  8
0
  0
ENDSEC
  0
SECTION
  2
ENTITIES
  0
LINE
  5
18D
  8
0
 10
37102.754023456677
 20
20856.91000586154
 30
0.0
 11
37093.934141657519
 21
20848.773072468121
 31
0.0
  0
LINE
  5
18E
  8
0
 10
37093.934141657519
 20
20848.773072468121
 30
0.0
 11
37330.972121698127
 21
20848.773072468121
 31
0.0
  0
ARC
  5
18F
  8
0
 10
36950.689055158087
 20
20087.24419625731
 30
0.0
 40
851.19999999999607
 50
296.53606997049798
 51
63.463930029502009
  0
LINE
  5
190
  8
0
 10
37330.972121698127
 20
19325.715320046482
 30
0.0
 11
37093.934141657519
 21
19325.715320046482
 31
0.0
  0
ARC
  5
191
  8
0
 10
36719.053879844367
 20
20087.24419625731
 30
0.0
 40
848.80000000000507
 50
296.20978757609748
 51
316.61873880214227
  0
ARC
  5
192
  8
0
 10
36950.689055158087
 20
20087.24419625731
 30
0.0
 40
698.80000000000075
 50
303.45857040650799
 51
56.541429593491927
  0
ARC
  5
193
  8
0
 10
36719.053879844389
 20
20087.24419625731
 30
0.0
 40
848.79999999999075
 50
43.381261197857668
 51
63.790212423902489
  0
LINE
  5
194
  8
0
 10
37093.934141657519
 20
20848.773072468121
 30
0.0
 11
37085.241892587459
 21
20857.0462100896
 31
0.0
  0
LINE
  5
195
  8
0
 10
37344.048698457293
 20
20856.91000586154
 30
0.0
 11
37335.228816658127
 21
20848.773072468121
 31
0.0
  0
LINE
  5
196
  8
0
 10
37335.228816658127
 20
20848.773072468121
 30
0.0
 11
37572.266796698743
 21
20848.773072468121
 31
0.0
  0
ARC
  5
197
  8
0
 10
37191.98373015871
 20
20087.24419625731
 30
0.0
 40
851.19999999999607
 50
296.53606997049798
 51
63.463930029502009
  0
LINE
  5
198
  8
0
 10
37572.266796698743
 20
19325.715320046482
 30
0.0
 11
37335.228816658127
 21
19325.715320046482
 31
0.0
  0
ARC
  5
199
  8
0
 10
36960.348554844968
 20
20087.24419625731
 30
0.0
 40
848.80000000000518
 50
296.20978757609748
 51
316.61873880214227
  0
ARC
  5
19A
  8
0
 10
37191.98373015871
 20
20087.24419625731
 30
0.0
 40
698.80000000000075
 50
303.45857040650799
 51
56.541429593491927
  0
ARC
  5
19B
  8
0
 10
36960.348554844997
 20
20087.24419625731
 30
0.0
 40
848.7999999999912
 50
43.381261197857668
 51
63.790212423902489
  0
LINE
  5
19C
  8
0
 10
37335.228816658127
 20
20848.773072468121
 30
0.0
 11
37326.536567588082
 21
20857.0462100896
 31
0.0
  0
LINE
  5
19D
  8
0
 10
37591.979869712057
 20
20856.910005861529
 30
0.0
 11
37583.159987912899
 21
20848.773072468121
 31
0.0
  0
LINE
  5
19E
  8
0
 10
37583.159987912899
 20
20848.773072468121
 30
0.0
 11
37820.197967953507
 21
20848.773072468121
 31
0.0
  0
ARC
  5
19F
  8
0
 10
37439.914901413482
 20
20087.24419625731
 30
0.0
 40
851.19999999999607
 50
296.53606997049798
 51
63.463930029502009
  0
LINE
  5
1A0
  8
0
 10
37820.197967953507
 20
19325.715320046482
 30
0.0
 11
37583.159987912899
 21
19325.715320046482
 31
0.0
  0
ARC
  5
1A1
  8
0
 10
37208.279726099747
 20
20087.24419625731
 30
0.0
 40
848.80000000000518
 50
296.20978757609748
 51
316.61873880214227
  0
ARC
  5
1A2
  8
0
 10
37439.914901413482
 20
20087.24419625731
 30
0.0
 40
698.80000000000075
 50
303.45857040650799
 51
56.541429593491927
  0
ARC
  5
1A3
  8
0
 10
37208.279726099761
 20
20087.24419625731
 30
0.0
 40
848.7999999999912
 50
43.381261197857668
 51
63.790212423902489
  0
LINE
  5
1A4
  8
0
 10
37583.159987912899
 20
20848.773072468121
 30
0.0
 11
37574.467738842839
 21
20857.0462100896
 31
0.0
  0
LINE
  5
1FE
  8
0
 10
39302.756046936673
 20
20871.004775591438
 30
0.0
 11
40552.756046936673
 21
20871.004775591438
 31
0.0
  0
LINE
  5
1FF
  8
0
 10
40552.756046936673
 20
20871.004775591438
 30
0.0
 11
40552.756046936673
 21
19371.004775591431
 31
0.0
  0
LINE
  5
200
  8
0
 10
40552.756046936673
 20
19371.004775591431
 30
0.0
 11
39302.756046936673
 21
19371.004775591431
 31
0.0
  0
LINE
  5
201
  8
0
 10
39302.756046936673
 20
19371.004775591431
 30
0.0
 11
39302.756046936673
 21
20871.004775591438
 31
0.0
  0
POLYLINE
  5
20E
  8
0
 66
     1
 10
0.0
 20
0.0
 30
0.0
  0
VERTEX
  5
370
  8
0
 10
40723.84715928114
 20
16696.452428301822
 30
0.0
  0
VERTEX
  5
371
  8
0
 10
40038.066149703111
 20
16697.816764731459
 30
0.0
  0
VERTEX
  5
372
  8
0
 10
40038.066149703111
 20
16701.816764731459
 30
0.0
  0
VERTEX
  5
373
  8
0
 10
40274.675869459061
 20
16701.816764731459
 30
0.0
 42
0.5891308437359666
  0
VERTEX
  5
374
  8
0
 10
40274.675869459061
 20
18190.874517153079
 30
0.0
  0
VERTEX
  5
375
  8
0
 10
40038.06614970314
 20
18190.874517153079
 30
0.0
 42
-0.0783494025272776
  0
VERTEX
  5
376
  8
0
 10
40247.372904640579
 20
18029.343789427588
 30
0.0
 42
-0.537785395477888
  0
VERTEX
  5
377
  8
0
 10
40247.372904640521
 20
16863.347492456931
 30
0.0
 42
-0.0783494025272848
  0
VERTEX
  5
378
  8
0
 10
40038.066149703111
 20
16701.816764731459
 30
0.0
  0
VERTEX
  5
379
  8
0
 10
40034.501941783572
 20
16698.310139301459
 30
0.0
  0
SEQEND
  5
37A
  8
0
  0
POLYLINE
  5
20F
  8
0
 66
     1
 10
0.0
 20
0.0
 30
0.0
  0
VERTEX
  5
37B
  8
0
 10
39793.530459683367
 20
16697.816764731459
 30
0.0
  0
VERTEX
  5
37C
  8
0
 10
39793.530459683367
 20
16701.816764731459
 30
0.0
  0
VERTEX
  5
37D
  8
0
 10
40030.140179439317
 20
16701.816764731459
 30
0.0
 42
0.5891308437359666
  0
VERTEX
  5
37E
  8
0
 10
40030.140179439317
 20
18190.874517153079
 30
0.0
  0
VERTEX
  5
37F
  8
0
 10
39793.53045968341
 20
18190.874517153079
 30
0.0
 42
-0.0783494025272776
  0
VERTEX
  5
380
  8
0
 10
40002.83721462082
 20
18029.343789427588
 30
0.0
 42
-0.537785395477888
  0
VERTEX
  5
381
  8
0
 10
40002.837214620791
 20
16863.347492456931
 30
0.0
 42
-0.0783494025272848
  0
VERTEX
  5
382
  8
0
 10
39793.530459683367
 20
16701.816764731459
 30
0.0
  0
VERTEX
  5
383
  8
0
 10
39789.966251763828
 20
16698.310139301459
 30
0.0
  0
SEQEND
  5
384
  8
0
  0
POLYLINE
  5
211
  8
0
 66
     1
 10
0.0
 20
0.0
 30
0.0
  0
VERTEX
  5
385
  8
0
 10
39548.12808480292
 20
16697.816764731459
 30
0.0
  0
VERTEX
  5
386
  8
0
 10
39548.12808480292
 20
16701.816764731459
 30
0.0
  0
VERTEX
  5
387
  8
0
 10
39784.737804558892
 20
16701.816764731459
 30
0.0
 42
0.5891308437359666
  0
VERTEX
  5
388
  8
0
 10
39784.737804558892
 20
18190.874517153079
 30
0.0
  0
VERTEX
  5
389
  8
0
 10
39548.128084802956
 20
18190.874517153079
 30
0.0
 42
-0.0783494025272776
  0
VERTEX
  5
38A
  8
0
 10
39757.434839740388
 20
18029.343789427588
 30
0.0
 42
-0.537785395477888
  0
VERTEX
  5
38B
  8
0
 10
39757.434839740337
 20
16863.347492456931
 30
0.0
 42
-0.0783494025272848
  0
VERTEX
  5
38C
  8
0
 10
39548.12808480292
 20
16701.816764731459
 30
0.0
  0
VERTEX
  5
38D
  8
0
 10
39544.563876883381
 20
16698.310139301459
 30
0.0
  0
SEQEND
  5
38E
  8
0
  0
POLYLINE
  5
212
  8
0
 66
     1
 10
0.0
 20
0.0
 30
0.0
  0
VERTEX
  5
38F
  8
0
 10
39305.128084802913
 20
16697.816764731459
 30
0.0
  0
VERTEX
  5
390
  8
0
 10
39305.128084802913
 20
16701.816764731459
 30
0.0
  0
VERTEX
  5
391
  8
0
 10
39541.737804558892
 20
16701.816764731459
 30
0.0
 42
0.5891308437359666
  0
VERTEX
  5
392
  8
0
 10
39541.737804558892
 20
18190.874517153079
 30
0.0
  0
VERTEX
  5
393
  8
0
 10
39305.128084802956
 20
18190.874517153079
 30
0.0
 42
-0.0783494025272776
  0
VERTEX
  5
394
  8
0
 10
39514.434839740388
 20
18029.343789427588
 30
0.0
 42
-0.537785395477888
  0
VERTEX
  5
395
  8
0
 10
39514.434839740337
 20
16863.347492456931
 30
0.0
 42
-0.0783494025272848
  0
VERTEX
  5
396
  8
0
 10
39305.128084802913
 20
16701.816764731459
 30
0.0
  0
VERTEX
  5
397
  8
0
 10
39301.563876883381
 20
16698.310139301459
 30
0.0
  0
SEQEND
  5
398
  8
0
  0
LINE
  5
2BC
  8
0
 10
38723.84715928114
 20
18206.452428301829
 30
0.0
 11
40723.84715928114
 21
18206.452428301829
 31
0.0
  0
LINE
  5
2BD
  8
0
 10
40723.84715928114
 20
18206.452428301829
 30
0.0
 11
40723.84715928114
 21
16696.452428301822
 31
0.0
  0
LINE
  5
2BE
  8
0
 10
40723.84715928114
 20
16696.452428301822
 30
0.0
 11
38723.84715928114
 21
16696.452428301822
 31
0.0
  0
LINE
  5
2BF
  8
0
 10
38723.84715928114
 20
16696.452428301822
 30
0.0
 11
38723.84715928114
 21
18206.452428301829
 31
0.0
  0
POLYLINE
  5
2C0
  8
0
 66
     1
 10
0.0
 20
0.0
 30
0.0
  0
VERTEX
  5
399
  8
0
 10
39062.69794781541
 20
16697.816764731459
 30
0.0
  0
VERTEX
  5
39A
  8
0
 10
39062.69794781541
 20
16701.816764731459
 30
0.0
  0
VERTEX
  5
39B
  8
0
 10
39299.307667571367
 20
16701.816764731459
 30
0.0
 42
0.5891308437359666
  0
VERTEX
  5
39C
  8
0
 10
39299.307667571367
 20
18190.874517153079
 30
0.0
  0
VERTEX
  5
39D
  8
0
 10
39062.697947815439
 20
18190.874517153079
 30
0.0
 42
-0.0783494025272776
  0
VERTEX
  5
39E
  8
0
 10
39272.004702752871
 20
18029.343789427588
 30
0.0
 42
-0.537785395477888
  0
VERTEX
  5
39F
  8
0
 10
39272.00470275282
 20
16863.347492456931
 30
0.0
 42
-0.0783494025272848
  0
VERTEX
  5
3A0
  8
0
 10
39062.69794781541
 20
16701.816764731459
 30
0.0
  0
VERTEX
  5
3A1
  8
0
 10
39059.133739895871
 20
16698.310139301459
 30
0.0
  0
SEQEND
  5
3A2
  8
0
  0
POLYLINE
  5
2C1
  8
0
 66
     1
 10
0.0
 20
0.0
 30
0.0
  0
VERTEX
  5
3A3
  8
0
 10
38818.86886021329
 20
16697.816764731459
 30
0.0
  0
VERTEX
  5
3A4
  8
0
 10
38818.86886021329
 20
16701.816764731459
 30
0.0
  0
VERTEX
  5
3A5
  8
0
 10
39055.478579969262
 20
16701.816764731459
 30
0.0
 42
0.5891308437359666
  0
VERTEX
  5
3A6
  8
0
 10
39055.478579969262
 20
18190.874517153079
 30
0.0
  0
VERTEX
  5
3A7
  8
0
 10
38818.868860213333
 20
18190.874517153079
 30
0.0
 42
-0.0783494025272776
  0
VERTEX
  5
3A8
  8
0
 10
39028.175615150773
 20
18029.343789427588
 30
0.0
 42
-0.537785395477888
  0
VERTEX
  5
3A9
  8
0
 10
39028.175615150707
 20
16863.347492456931
 30
0.0
 42
-0.0783494025272848
  0
VERTEX
  5
3AA
  8
0
 10
38818.86886021329
 20
16701.816764731459
 30
0.0
  0
VERTEX
  5
3AB
  8
0
 10
38815.304652293773
 20
16698.310139301459
 30
0.0
  0
SEQEND
  5
3AC
  8
0
  0
POLYLINE
  5
369
  8
0
 66
     1
 10
0.0
 20
0.0
 30
0.0
  0
VERTEX
  5
3BD
  8
0
 10
38576.590622772354
 20
16697.816764731459
 30
0.0
  0
VERTEX
  5
3BE
  8
0
 10
38576.590622772354
 20
16701.816764731459
 30
0.0
  0
VERTEX
  5
3BF
  8
0
 10
38813.200342528318
 20
16701.816764731459
 30
0.0
 42
0.5891308437359666
  0
VERTEX
  5
3C0
  8
0
 10
38813.200342528318
 20
18190.874517153079
 30
0.0
  0
VERTEX
  5
3C1
  8
0
 10
38576.59062277239
 20
18190.874517153079
 30
0.0
 42
-0.0783494025272776
  0
VERTEX
  5
3C2
  8
0
 10
38785.897377709822
 20
18029.343789427588
 30
0.0
 42
-0.537785395477888
  0
VERTEX
  5
3C3
  8
0
 10
38785.897377709778
 20
16863.347492456931
 30
0.0
 42
-0.0783494025272848
  0
VERTEX
  5
3C4
  8
0
 10
38576.590622772354
 20
16701.816764731459
 30
0.0
  0
VERTEX
  5
3C5
  8
0
 10
38573.026414852829
 20
16698.310139301459
 30
0.0
  0
SEQEND
  5
3C6
  8
0
  0
ENDSEC
  0
EOF
