  0
SECTION
  2
HEADER
  9
$ACADVER
  1
AC1009
  9
$INSBASE
 10
0.0
 20
0.0
 30
0.0
  9
$EXTMIN
 10
332.84049366459931
 20
414.7644270853923
 30
0.0
  9
$EXTMAX
 10
2493.102282954052
 20
1610.1724825052679
 30
0.0
  9
$LIMMIN
 10
0.0
 20
0.0
  9
$LIMMAX
 10
420.0
 20
297.0
  9
$ORTHOMODE
 70
     0
  9
$REGENMODE
 70
     1
  9
$FILLMODE
 70
     1
  9
$QTEXTMODE
 70
     0
  9
$MIRRTEXT
 70
     0
  9
$DRAGMODE
 70
     2
  9
$LTSCALE
 40
1.0
  9
$OSMODE
 70
   279
  9
$ATTMODE
 70
     1
  9
$TEXTSIZE
 40
2.5
  9
$TRACEWID
 40
1.0
  9
$TEXTSTYLE
  7
STANDARD
  9
$CLAYER
  8
0
  9
$CELTYPE
  6
BYLAYER
  9
$CECOLOR
 62
   256
  9
$DIMSCALE
 40
1.0
  9
$DIMASZ
 40
2.5
  9
$DIMEXO
 40
0.625
  9
$DIMDLI
 40
3.75
  9
$DIMRND
 40
0.0
  9
$DIMDLE
 40
0.0
  9
$DIMEXE
 40
1.25
  9
$DIMTP
 40
0.0
  9
$DIMTM
 40
0.0
  9
$DIMTXT
 40
2.5
  9
$DIMCEN
 40
2.5
  9
$DIMTSZ
 40
0.0
  9
$DIMTOL
 70
     0
  9
$DIMLIM
 70
     0
  9
$DIMTIH
 70
     0
  9
$DIMTOH
 70
     0
  9
$DIMSE1
 70
     0
  9
$DIMSE2
 70
     0
  9
$DIMTAD
 70
     1
  9
$DIMZIN
 70
     8
  9
$DIMBLK
  1

  9
$DIMASO
 70
     1
  9
$DIMSHO
 70
     1
  9
$DIMPOST
  1

  9
$DIMAPOST
  1

  9
$DIMALT
 70
     0
  9
$DIMALTD
 70
     3
  9
$DIMALTF
 40
0.03937007874016
  9
$DIMLFAC
 40
1.0
  9
$DIMTOFL
 70
     1
  9
$DIMTVP
 40
0.0
  9
$DIMTIX
 70
     0
  9
$DIMSOXD
 70
     0
  9
$DIMSAH
 70
     0
  9
$DIMBLK1
  1

  9
$DIMBLK2
  1

  9
$DIMSTYLE
  2
ISO-25
  9
$DIMCLRD
 70
     0
  9
$DIMCLRE
 70
     0
  9
$DIMCLRT
 70
     0
  9
$DIMTFAC
 40
1.0
  9
$DIMGAP
 40
0.625
  9
$LUNITS
 70
     2
  9
$LUPREC
 70
     4
  9
$SKETCHINC
 40
1.0
  9
$FILLETRAD
 40
0.0
  9
$AUNITS
 70
     0
  9
$AUPREC
 70
     0
  9
$MENU
  1
.
  9
$ELEVATION
 40
0.0
  9
$PELEVATION
 40
0.0
  9
$THICKNESS
 40
0.0
  9
$LIMCHECK
 70
     0
  9
$BLIPMODE
 70
     0
  9
$CHAMFERA
 40
0.0
  9
$CHAMFERB
 40
0.0
  9
$SKPOLY
 70
     0
  9
$TDCREATE
 40
2455123.4700087849
  9
$TDUPDATE
 40
2455123.4733248958
  9
$TDINDWG
 40
0.0033260764
  9
$TDUSRTIMER
 40
0.0033195949
  9
$USRTIMER
 70
     1
  9
$ANGBASE
 50
0.0
  9
$ANGDIR
 70
     0
  9
$PDMODE
 70
     0
  9
$PDSIZE
 40
0.0
  9
$PLINEWID
 40
0.0
  9
$COORDS
 70
     1
  9
$SPLFRAME
 70
     0
  9
$SPLINETYPE
 70
     6
  9
$SPLINESEGS
 70
     8
  9
$ATTDIA
 70
     0
  9
$ATTREQ
 70
     1
  9
$HANDLING
 70
     1
  9
$HANDSEED
  5
38F
  9
$SURFTAB1
 70
     6
  9
$SURFTAB2
 70
     6
  9
$SURFTYPE
 70
     6
  9
$SURFU
 70
     6
  9
$SURFV
 70
     6
  9
$UCSNAME
  2

  9
$UCSORG
 10
0.0
 20
0.0
 30
0.0
  9
$UCSXDIR
 10
1.0
 20
0.0
 30
0.0
  9
$UCSYDIR
 10
0.0
 20
1.0
 30
0.0
  9
$PUCSNAME
  2

  9
$PUCSORG
 10
0.0
 20
0.0
 30
0.0
  9
$PUCSXDIR
 10
1.0
 20
0.0
 30
0.0
  9
$PUCSYDIR
 10
0.0
 20
1.0
 30
0.0
  9
$USERI1
 70
     0
  9
$USERI2
 70
     0
  9
$USERI3
 70
     0
  9
$USERI4
 70
     0
  9
$USERI5
 70
     0
  9
$USERR1
 40
0.0
  9
$USERR2
 40
0.0
  9
$USERR3
 40
0.0
  9
$USERR4
 40
0.0
  9
$USERR5
 40
0.0
  9
$WORLDVIEW
 70
     1
  9
$SHADEDGE
 70
     3
  9
$SHADEDIF
 70
    70
  9
$TILEMODE
 70
     1
  9
$MAXACTVP
 70
    64
  9
$PLIMCHECK
 70
     0
  9
$PEXTMIN
 10
0.0
 20
0.0
 30
0.0
  9
$PEXTMAX
 10
0.0
 20
0.0
 30
0.0
  9
$PLIMMIN
 10
0.0
 20
0.0
  9
$PLIMMAX
 10
12.0
 20
9.0
  9
$UNITMODE
 70
     0
  9
$VISRETAIN
 70
     1
  9
$PLINEGEN
 70
     0
  9
$PSLTSCALE
 70
     1
  0
ENDSEC
  0
SECTION
  2
TABLES
  0
TABLE
  2
VPORT
 70
     1
  0
VPORT
  2
*ACTIVE
 70
     0
 10
0.0
 20
0.0
 11
1.0
 21
1.0
 12
1563.341728396025
 22
876.7503126957256
 13
0.0
 23
0.0
 14
10.0
 24
10.0
 15
10.0
 25
10.0
 16
0.0
 26
0.0
 36
1.0
 17
0.0
 27
0.0
 37
0.0
 40
1753.8664241051331
 41
1.735124760076775
 42
50.0
 43
0.0
 44
0.0
 50
0.0
 51
0.0
 71
     0
 72
  1000
 73
     1
 74
     3
 75
     0
 76
     0
 77
     0
 78
     0
  0
ENDTAB
  0
TABLE
  2
LTYPE
 70
     2
  0
LTYPE
  2
CONTINUOUS
 70
     0
  3
Solid line
 72
    65
 73
     0
 40
0.0
  0
ENDTAB
  0
TABLE
  2
LAYER
 70
     1
  0
LAYER
  2
0
 70
     0
 62
     7
  6
CONTINUOUS
  0
ENDTAB
  0
TABLE
  2
STYLE
 70
     1
  0
STYLE
  2
STANDARD
 70
     0
 40
0.0
 41
1.0
 50
0.0
 71
     0
 42
2.5
  3
txt
  4

  0
ENDTAB
  0
TABLE
  2
VIEW
 70
     0
  0
ENDTAB
  0
TABLE
  2
UCS
 70
     0
  0
ENDTAB
  0
TABLE
  2
APPID
 70
     3
  0
APPID
  2
ACAD
 70
     0
  0
APPID
  2
ACAD_PSEXT
 70
     0
  0
APPID
  2
ACAD_EXEMPT_FROM_CAD_STANDARDS
 70
     0
  0
ENDTAB
  0
TABLE
  2
DIMSTYLE
 70
     2
  0
DIMSTYLE
  2
ISO-25
 70
     0
  3

  4

  5

  6

  7

 40
1.0
 41
2.5
 42
0.625
 43
3.75
 44
1.25
 45
0.0
 46
0.0
 47
0.0
 48
0.0
140
2.5
141
2.5
142
0.0
143
0.03937007874016
144
1.0
145
0.0
146
1.0
147
0.625
 71
     0
 72
     0
 73
     0
 74
     0
 75
     0
 76
     0
 77
     1
 78
     8
170
     0
171
     3
172
     1
173
     0
174
     0
175
     0
176
     0
177
     0
178
     0
  0
ENDTAB
  0
ENDSEC
  0
SECTION
  2
BLOCKS
  0
BLOCK
  8
0
  2
$MODEL_SPACE
 70
     0
 10
0.0
 20
0.0
 30
0.0
  3
$MODEL_SPACE
  1

  0
ENDBLK
  5
21
  8
0
  0
BLOCK
 67
     1
  8
0
  2
$PAPER_SPACE
 70
     0
 10
0.0
 20
0.0
 30
0.0
  3
$PAPER_SPACE
  1

  0
ENDBLK
  5
D5
 67
     1
  8
0
  0
ENDSEC
  0
SECTION
  2
ENTITIES
  0
POLYLINE
  5
11D
  8
0
 62
     1
 66
     1
 10
0.0
 20
0.0
 30
0.0
  0
VERTEX
  5
265
  8
0
 62
     1
 10
2493.102282954052
 20
1002.901650897924
 30
0.0
  0
VERTEX
  5
266
  8
0
 62
     1
 10
2493.102282954052
 20
992.90165089792447
 30
0.0
  0
VERTEX
  5
267
  8
0
 62
     1
 10
2471.2498751134731
 20
1004.935132666832
 30
0.0
 42
-0.5909238704288518
  0
VERTEX
  5
268
  8
0
 62
     1
 10
2471.2498751134699
 20
1020.001776923824
 30
0.0
  0
VERTEX
  5
269
  8
0
 62
     1
 10
2493.102282954052
 20
1032.0352586927329
 30
0.0
  0
VERTEX
  5
26A
  8
0
 62
     1
 10
2470.5096354328589
 20
1042.6137599994811
 30
0.0
 42
-0.5909238704286696
  0
VERTEX
  5
26B
  8
0
 62
     1
 10
2469.5242297514528
 20
1057.6481454145819
 30
0.0
  0
VERTEX
  5
26C
  8
0
 62
     1
 10
2490.542822546206
 20
1071.0850784293041
 30
0.0
  0
VERTEX
  5
26D
  8
0
 62
     1
 10
2467.3066805295712
 20
1080.163300507254
 30
0.0
 42
-0.5909238704286655
  0
VERTEX
  5
26E
  8
0
 62
     1
 10
2465.3400888251731
 20
1095.1010475339949
 30
0.0
  0
VERTEX
  5
26F
  8
0
 62
     1
 10
2485.4348617329151
 20
1109.8838927844861
 30
0.0
  0
VERTEX
  5
270
  8
0
 62
     1
 10
2461.654725948235
 20
1117.422961292986
 30
0.0
 42
-0.5909238704286514
  0
VERTEX
  5
271
  8
0
 62
     1
 10
2458.7153694684362
 20
1132.200104205315
 30
0.0
  0
VERTEX
  5
272
  8
0
 62
     1
 10
2477.8002735865762
 20
1148.265559278708
 30
0.0
  0
VERTEX
  5
273
  8
0
 62
     1
 10
2453.5779742260702
 20
1154.2331907689861
 30
0.0
 42
-0.5909238704286884
  0
VERTEX
  5
274
  8
0
 62
     1
 10
2449.6784397465758
 20
1168.786451572324
 30
0.0
  0
VERTEX
  5
275
  8
0
 62
     1
 10
2467.6717505857059
 20
1186.0657217235821
 30
0.0
  0
VERTEX
  5
276
  8
0
 62
     1
 10
2443.1110112539131
 20
1190.436361881428
 30
0.0
 42
-0.5909238704287897
  0
VERTEX
  5
277
  8
0
 62
     1
 10
2438.2679971800312
 20
1204.7034212787589
 30
0.0
  0
VERTEX
  5
278
  8
0
 62
     1
 10
2455.0926646207599
 20
1223.122514020333
 30
0.0
  0
VERTEX
  5
279
  8
0
 62
     1
 10
2430.2986581741261
 20
1225.8774470936
 30
0.0
 42
-0.5909238704285899
  0
VERTEX
  5
27A
  8
0
 62
     1
 10
2424.5329030356379
 20
1239.797211346262
 30
0.0
  0
VERTEX
  5
27B
  8
0
 62
     1
 10
2440.1168812690112
 20
1259.2772532952799
 30
0.0
  0
VERTEX
  5
27C
  8
0
 62
     1
 10
2415.1957794495952
 20
1260.4046822376031
 30
0.0
 42
-0.5909238704287331
  0
VERTEX
  5
27D
  8
0
 62
     1
 10
2408.5319730951742
 20
1273.917544778069
 30
0.0
  0
VERTEX
  5
27E
  8
0
 62
     1
 10
2422.808529133903
 20
1294.375119404277
 30
0.0
  0
VERTEX
  5
27F
  8
0
 62
     1
 10
2397.8670479256471
 20
1293.8702163918381
 30
0.0
 42
-0.5909238704287664
  0
VERTEX
  5
280
  8
0
 62
     1
 10
2390.3337257971511
 20
1306.9183130681761
 30
0.0
  0
VERTEX
  5
281
  8
0
 62
     1
 10
2403.241725236498
 20
1328.26581789632
 30
0.0
  0
VERTEX
  5
282
  8
0
 62
     1
 10
2378.386667891024
 20
1326.1307450013319
 30
0.0
 42
-0.590923870428741
  0
VERTEX
  5
283
  8
0
 62
     1
 10
2370.0160888303421
 20
1338.658201860394
 30
0.0
  0
VERTEX
  5
284
  8
0
 62
     1
 10
2381.5002576350362
 20
1360.804223597469
 30
0.0
  0
VERTEX
  5
285
  8
0
 62
     1
 10
2356.8380573237141
 20
1357.048123529853
 30
0.0
 42
-0.5909238704287214
  0
VERTEX
  5
286
  8
0
 62
     1
 10
2347.6660654354619
 20
1369.0012960781171
 30
0.0
  0
VERTEX
  5
287
  8
0
 62
     1
 10
2357.6772266316029
 20
1391.8510020591291
 30
0.0
  0
VERTEX
  5
288
  8
0
 62
     1
 10
2333.313490682373
 20
1386.4899590160189
 30
0.0
 42
-0.5909238704286244
  0
VERTEX
  5
289
  8
0
 62
     1
 10
2323.3793618439258
 20
1397.81766193355
 30
0.0
  0
VERTEX
  5
28A
  8
0
 62
     1
 10
2331.8746461023288
 20
1421.2732062095361
 30
0.0
  0
VERTEX
  5
28B
  8
0
 62
     1
 10
2307.9137037729161
 20
1414.3301770002861
 30
0.0
 42
-0.5909238704286738
  0
VERTEX
  5
28C
  8
0
 62
     1
 10
2297.2599774490741
 20
1424.983903324131
 30
0.0
  0
VERTEX
  5
28D
  8
0
 62
     1
 10
2304.2030066583229
 20
1448.9448456535399
 30
0.0
  0
VERTEX
  5
28E
  8
0
 62
     1
 10
2280.7474623823359
 20
1440.4495613951381
 30
0.0
 42
-0.5909238704286426
  0
VERTEX
  5
28F
  8
0
 62
     1
 10
2269.4197594648072
 20
1450.383690233587
 30
0.0
  0
VERTEX
  5
290
  8
0
 62
     1
 10
2274.7808025079162
 20
1474.7474261828161
 30
0.0
  0
VERTEX
  5
291
  8
0
 62
     1
 10
2251.9310965269042
 20
1464.7362649866759
 30
0.0
 42
-0.59092387042871
  0
VERTEX
  5
292
  8
0
 62
     1
 10
2239.977923978639
 20
1473.9082568749279
 30
0.0
  0
VERTEX
  5
293
  8
0
 62
     1
 10
2243.7340240462559
 20
1498.570457186252
 30
0.0
  0
VERTEX
  5
294
  8
0
 62
     1
 10
2221.58800230918
 20
1487.086288381556
 30
0.0
 42
-0.5909238704286964
  0
VERTEX
  5
295
  8
0
 62
     1
 10
2209.0605454501192
 20
1495.4568674422369
 30
0.0
  0
VERTEX
  5
296
  8
0
 62
     1
 10
2211.1956183451048
 20
1520.3119247877121
 30
0.0
  0
VERTEX
  5
297
  8
0
 62
     1
 10
2189.8481135169618
 20
1507.4039253483641
 30
0.0
 42
-0.5909238704286585
  0
VERTEX
  5
298
  8
0
 62
     1
 10
2176.8000168406238
 20
1514.9372474768611
 30
0.0
  0
VERTEX
  5
299
  8
0
 62
     1
 10
2177.3049198530621
 20
1539.8787286851159
 30
0.0
  0
VERTEX
  5
29A
  8
0
 62
     1
 10
2156.8473452268572
 20
1525.6021726463889
 30
0.0
 42
-0.5909238704287331
  0
VERTEX
  5
29B
  8
0
 62
     1
 10
2143.334482686389
 20
1532.265979000809
 30
0.0
  0
VERTEX
  5
29C
  8
0
 62
     1
 10
2142.2070537440659
 20
1557.1870808202259
 30
0.0
  0
VERTEX
  5
29D
  8
0
 62
     1
 10
2122.7270117950488
 20
1541.603102586854
 30
0.0
 42
-0.590923870428736
  0
VERTEX
  5
29E
  8
0
 62
     1
 10
2108.8072475423869
 20
1547.3688577253431
 30
0.0
  0
VERTEX
  5
29F
  8
0
 62
     1
 10
2106.0523144691178
 20
1572.162864171976
 30
0.0
  0
VERTEX
  5
2A0
  8
0
 62
     1
 10
2087.6332217275449
 20
1555.3381967312471
 30
0.0
 42
-0.5909238704286527
  0
VERTEX
  5
2A1
  8
0
 62
     1
 10
2073.3661623302141
 20
1560.1812108051261
 30
0.0
  0
VERTEX
  5
2A2
  8
0
 62
     1
 10
2068.995522172369
 20
1584.741950136922
 30
0.0
  0
VERTEX
  5
2A3
  8
0
 62
     1
 10
2051.71625202111
 20
1566.7486392977889
 30
0.0
 42
-0.5909238704286519
  0
VERTEX
  5
2A4
  8
0
 62
     1
 10
2037.1629912177721
 20
1570.648173777284
 30
0.0
  0
VERTEX
  5
2A5
  8
0
 62
     1
 10
2031.195359727494
 20
1594.87047313779
 30
0.0
  0
VERTEX
  5
2A6
  8
0
 62
     1
 10
2015.1299046541001
 20
1575.7855690196509
 30
0.0
 42
-0.5909238704286917
  0
VERTEX
  5
2A7
  8
0
 62
     1
 10
2000.352761741771
 20
1578.724925499451
 30
0.0
  0
VERTEX
  5
2A8
  8
0
 62
     1
 10
1992.813693233272
 20
1602.505061284133
 30
0.0
  0
VERTEX
  5
2A9
  8
0
 62
     1
 10
1978.0308479827829
 20
1582.410288376391
 30
0.0
 42
-0.5909238704287665
  0
VERTEX
  5
2AA
  8
0
 62
     1
 10
1963.0931009560391
 20
1584.3768800807891
 30
0.0
  0
VERTEX
  5
2AB
  8
0
 62
     1
 10
1954.0148788780889
 20
1607.6130220974239
 30
0.0
  0
VERTEX
  5
2AC
  8
0
 62
     1
 10
1940.5779458633669
 20
1586.5944293026689
 30
0.0
 42
-0.5909238704286679
  0
VERTEX
  5
2AD
  8
0
 62
     1
 10
1925.5435604482659
 20
1587.5798349840759
 30
0.0
  0
VERTEX
  5
2AE
  8
0
 62
     1
 10
1914.9650591415179
 20
1610.1724825052679
 30
0.0
  0
VERTEX
  5
2AF
  8
0
 62
     1
 10
1902.93157737261
 20
1588.3200746646869
 30
0.0
 42
-0.5909238704287309
  0
VERTEX
  5
2B0
  8
0
 62
     1
 10
1887.8649331156171
 20
1588.3200746646869
 30
0.0
  0
VERTEX
  5
2B1
  8
0
 62
     1
 10
1875.8314513467089
 20
1610.1724825052679
 30
0.0
  0
VERTEX
  5
2B2
  8
0
 62
     1
 10
1865.252950039961
 20
1587.5798349840759
 30
0.0
 42
-0.5909238704286776
  0
VERTEX
  5
2B3
  8
0
 62
     1
 10
1850.2185646248599
 20
1586.5944293026689
 30
0.0
  0
VERTEX
  5
2B4
  8
0
 62
     1
 10
1836.781631610138
 20
1607.6130220974219
 30
0.0
  0
VERTEX
  5
2B5
  8
0
 62
     1
 10
1827.703409532189
 20
1584.3768800807891
 30
0.0
 42
-0.5909238704287537
  0
VERTEX
  5
2B6
  8
0
 62
     1
 10
1812.765662505446
 20
1582.410288376389
 30
0.0
  0
VERTEX
  5
2B7
  8
0
 62
     1
 10
1797.9828172549551
 20
1602.5050612841319
 30
0.0
  0
VERTEX
  5
2B8
  8
0
 62
     1
 10
1790.4437487464561
 20
1578.724925499451
 30
0.0
 42
-0.5909238704286876
  0
VERTEX
  5
2B9
  8
0
 62
     1
 10
1775.666605834127
 20
1575.785569019652
 30
0.0
  0
VERTEX
  5
2BA
  8
0
 62
     1
 10
1759.6011507607329
 20
1594.8704731377909
 30
0.0
  0
VERTEX
  5
2BB
  8
0
 62
     1
 10
1753.633519270456
 20
1570.648173777284
 30
0.0
 42
-0.5909238704286498
  0
VERTEX
  5
2BC
  8
0
 62
     1
 10
1739.0802584671169
 20
1566.748639297791
 30
0.0
  0
VERTEX
  5
2BD
  8
0
 62
     1
 10
1721.8009883158579
 20
1584.741950136922
 30
0.0
  0
VERTEX
  5
2BE
  8
0
 62
     1
 10
1717.4303481580121
 20
1560.1812108051261
 30
0.0
 42
-0.5909238704286662
  0
VERTEX
  5
2BF
  8
0
 62
     1
 10
1703.163288760682
 20
1555.3381967312471
 30
0.0
  0
VERTEX
  5
2C0
  8
0
 62
     1
 10
1684.744196019109
 20
1572.162864171974
 30
0.0
  0
VERTEX
  5
2C1
  8
0
 62
     1
 10
1681.989262945842
 20
1547.3688577253431
 30
0.0
 42
-0.5909238704287322
  0
VERTEX
  5
2C2
  8
0
 62
     1
 10
1668.069498693179
 20
1541.603102586854
 30
0.0
  0
VERTEX
  5
2C3
  8
0
 62
     1
 10
1648.5894567441601
 20
1557.187080820227
 30
0.0
  0
VERTEX
  5
2C4
  8
0
 62
     1
 10
1647.4620278018369
 20
1532.265979000809
 30
0.0
 42
-0.5909238704287445
  0
VERTEX
  5
2C5
  8
0
 62
     1
 10
1633.949165261371
 20
1525.6021726463889
 30
0.0
  0
VERTEX
  5
2C6
  8
0
 62
     1
 10
1613.491590635165
 20
1539.8787286851159
 30
0.0
  0
VERTEX
  5
2C7
  8
0
 62
     1
 10
1613.9964936476019
 20
1514.93724747686
 30
0.0
 42
-0.5909238704287194
  0
VERTEX
  5
2C8
  8
0
 62
     1
 10
1600.9483969712651
 20
1507.4039253483641
 30
0.0
  0
VERTEX
  5
2C9
  8
0
 62
     1
 10
1579.6008921431221
 20
1520.3119247877121
 30
0.0
  0
VERTEX
  5
2CA
  8
0
 62
     1
 10
1581.7359650381079
 20
1495.4568674422369
 30
0.0
 42
-0.590923870428694
  0
VERTEX
  5
2CB
  8
0
 62
     1
 10
1569.2085081790481
 20
1487.086288381556
 30
0.0
  0
VERTEX
  5
2CC
  8
0
 62
     1
 10
1547.062486441971
 20
1498.5704571862509
 30
0.0
  0
VERTEX
  5
2CD
  8
0
 62
     1
 10
1550.8185865095879
 20
1473.9082568749279
 30
0.0
 42
-0.5909238704286918
  0
VERTEX
  5
2CE
  8
0
 62
     1
 10
1538.8654139613229
 20
1464.7362649866759
 30
0.0
  0
VERTEX
  5
2CF
  8
0
 62
     1
 10
1516.015707980313
 20
1474.7474261828161
 30
0.0
  0
VERTEX
  5
2D0
  8
0
 62
     1
 10
1521.37675102342
 20
1450.3836902335879
 30
0.0
 42
-0.5909238704287241
  0
VERTEX
  5
2D1
  8
0
 62
     1
 10
1510.0490481058889
 20
1440.4495613951401
 30
0.0
  0
VERTEX
  5
2D2
  8
0
 62
     1
 10
1486.593503829904
 20
1448.9448456535411
 30
0.0
  0
VERTEX
  5
2D3
  8
0
 62
     1
 10
1493.536533039153
 20
1424.9839033241301
 30
0.0
 42
-0.5909238704286657
  0
VERTEX
  5
2D4
  8
0
 62
     1
 10
1482.882806715309
 20
1414.3301770002861
 30
0.0
  0
VERTEX
  5
2D5
  8
0
 62
     1
 10
1458.9218643858981
 20
1421.2732062095349
 30
0.0
  0
VERTEX
  5
2D6
  8
0
 62
     1
 10
1467.4171486443011
 20
1397.81766193355
 30
0.0
 42
-0.5909238704287022
  0
VERTEX
  5
2D7
  8
0
 62
     1
 10
1457.4830198058521
 20
1386.4899590160189
 30
0.0
  0
VERTEX
  5
2D8
  8
0
 62
     1
 10
1433.119283856624
 20
1391.8510020591291
 30
0.0
  0
VERTEX
  5
2D9
  8
0
 62
     1
 10
1443.130445052765
 20
1369.0012960781171
 30
0.0
 42
-0.5909238704287275
  0
VERTEX
  5
2DA
  8
0
 62
     1
 10
1433.9584531645121
 20
1357.048123529853
 30
0.0
  0
VERTEX
  5
2DB
  8
0
 62
     1
 10
1409.2962528531889
 20
1360.8042235974681
 30
0.0
  0
VERTEX
  5
2DC
  8
0
 62
     1
 10
1420.780421657885
 20
1338.658201860392
 30
0.0
 42
-0.5909238704286964
  0
VERTEX
  5
2DD
  8
0
 62
     1
 10
1412.4098425972049
 20
1326.130745001331
 30
0.0
  0
VERTEX
  5
2DE
  8
0
 62
     1
 10
1387.55478525173
 20
1328.265817896317
 30
0.0
  0
VERTEX
  5
2DF
  8
0
 62
     1
 10
1400.4627846910771
 20
1306.918313068174
 30
0.0
 42
-0.5909238704287029
  0
VERTEX
  5
2E0
  8
0
 62
     1
 10
1392.929462562581
 20
1293.8702163918381
 30
0.0
  0
VERTEX
  5
2E1
  8
0
 62
     1
 10
1367.9879813543239
 20
1294.3751194042759
 30
0.0
  0
VERTEX
  5
2E2
  8
0
 62
     1
 10
1382.264537393052
 20
1273.9175447780681
 30
0.0
 42
-0.5909238704286584
  0
VERTEX
  5
2E3
  8
0
 62
     1
 10
1375.6007310386319
 20
1260.4046822376019
 30
0.0
  0
VERTEX
  5
2E4
  8
0
 62
     1
 10
1350.6796292192139
 20
1259.2772532952779
 30
0.0
  0
VERTEX
  5
2E5
  8
0
 62
     1
 10
1366.2636074525869
 20
1239.7972113462599
 30
0.0
 42
-0.5909238704286983
  0
VERTEX
  5
2E6
  8
0
 62
     1
 10
1360.4978523140981
 20
1225.877447093598
 30
0.0
  0
VERTEX
  5
2E7
  8
0
 62
     1
 10
1335.7038458674681
 20
1223.1225140203301
 30
0.0
  0
VERTEX
  5
2E8
  8
0
 62
     1
 10
1352.528513308195
 20
1204.7034212787571
 30
0.0
 42
-0.5909238704286866
  0
VERTEX
  5
2E9
  8
0
 62
     1
 10
1347.6854992343151
 20
1190.4363618814259
 30
0.0
  0
VERTEX
  5
2EA
  8
0
 62
     1
 10
1323.1247599025201
 20
1186.0657217235789
 30
0.0
  0
VERTEX
  5
2EB
  8
0
 62
     1
 10
1341.1180707416511
 20
1168.786451572322
 30
0.0
 42
-0.5909238704286735
  0
VERTEX
  5
2EC
  8
0
 62
     1
 10
1337.2185362621581
 20
1154.2331907689829
 30
0.0
  0
VERTEX
  5
2ED
  8
0
 62
     1
 10
1312.9962369016509
 20
1148.265559278705
 30
0.0
  0
VERTEX
  5
2EE
  8
0
 62
     1
 10
1332.0811410197889
 20
1132.2001042053121
 30
0.0
 42
-0.5909238704286999
  0
VERTEX
  5
2EF
  8
0
 62
     1
 10
1329.1417845399919
 20
1117.422961292983
 30
0.0
  0
VERTEX
  5
2F0
  8
0
 62
     1
 10
1305.361648755309
 20
1109.8838927844829
 30
0.0
  0
VERTEX
  5
2F1
  8
0
 62
     1
 10
1325.4564216630531
 20
1095.101047533992
 30
0.0
 42
-0.5909238704286861
  0
VERTEX
  5
2F2
  8
0
 62
     1
 10
1323.4898299586559
 20
1080.1633005072499
 30
0.0
  0
VERTEX
  5
2F3
  8
0
 62
     1
 10
1300.25368794202
 20
1071.0850784293009
 30
0.0
  0
VERTEX
  5
2F4
  8
0
 62
     1
 10
1321.272280736772
 20
1057.648145414578
 30
0.0
 42
-0.5909238704286937
  0
VERTEX
  5
2F5
  8
0
 62
     1
 10
1320.286875055368
 20
1042.6137599994779
 30
0.0
  0
VERTEX
  5
2F6
  8
0
 62
     1
 10
1297.694227534181
 20
1032.0352586927329
 30
0.0
  0
VERTEX
  5
2F7
  8
0
 62
     1
 10
1319.5466353747561
 20
1020.001776923826
 30
0.0
 42
-0.5909238704287075
  0
VERTEX
  5
2F8
  8
0
 62
     1
 10
1319.5466353747561
 20
1004.935132666834
 30
0.0
  0
VERTEX
  5
2F9
  8
0
 62
     1
 10
1297.694227534176
 20
992.90165089792515
 30
0.0
  0
VERTEX
  5
2FA
  8
0
 62
     1
 10
1320.2868750553689
 20
982.32314959117957
 30
0.0
 42
-0.5909238704287054
  0
VERTEX
  5
2FB
  8
0
 62
     1
 10
1321.2722807367729
 20
967.28876417607785
 30
0.0
  0
VERTEX
  5
2FC
  8
0
 62
     1
 10
1300.253687942022
 20
953.85183116135659
 30
0.0
  0
VERTEX
  5
2FD
  8
0
 62
     1
 10
1323.4898299586559
 20
944.77360908340643
 30
0.0
 42
-0.5909238704287004
  0
VERTEX
  5
2FE
  8
0
 62
     1
 10
1325.4564216630549
 20
929.8358620566645
 30
0.0
  0
VERTEX
  5
2FF
  8
0
 62
     1
 10
1305.3616487553111
 20
915.05301680617379
 30
0.0
  0
VERTEX
  5
300
  8
0
 62
     1
 10
1329.1417845399931
 20
907.51394829767355
 30
0.0
 42
-0.5909238704286947
  0
VERTEX
  5
301
  8
0
 62
     1
 10
1332.0811410197909
 20
892.7368053853445
 30
0.0
  0
VERTEX
  5
302
  8
0
 62
     1
 10
1312.996236901653
 20
876.67135031195153
 30
0.0
  0
VERTEX
  5
303
  8
0
 62
     1
 10
1337.2185362621581
 20
870.70371882167251
 30
0.0
 42
-0.5909238704287257
  0
VERTEX
  5
304
  8
0
 62
     1
 10
1341.1180707416529
 20
856.15045801833458
 30
0.0
  0
VERTEX
  5
305
  8
0
 62
     1
 10
1323.1247599025221
 20
838.87118786707651
 30
0.0
  0
VERTEX
  5
306
  8
0
 62
     1
 10
1347.6854992343169
 20
834.50054770923066
 30
0.0
 42
-0.5909238704286817
  0
VERTEX
  5
307
  8
0
 62
     1
 10
1352.528513308197
 20
820.23348831189855
 30
0.0
  0
VERTEX
  5
308
  8
0
 62
     1
 10
1335.703845867469
 20
801.81439557032763
 30
0.0
  0
VERTEX
  5
309
  8
0
 62
     1
 10
1360.4978523141001
 20
799.05946249706153
 30
0.0
 42
-0.5909238704287106
  0
VERTEX
  5
30A
  8
0
 62
     1
 10
1366.2636074525899
 20
785.13969824439641
 30
0.0
  0
VERTEX
  5
30B
  8
0
 62
     1
 10
1350.6796292192159
 20
765.65965629537845
 30
0.0
  0
VERTEX
  5
30C
  8
0
 62
     1
 10
1375.600731038634
 20
764.53222735305553
 30
0.0
 42
-0.5909238704287089
  0
VERTEX
  5
30D
  8
0
 62
     1
 10
1382.2645373930529
 20
751.01936481258986
 30
0.0
  0
VERTEX
  5
30E
  8
0
 62
     1
 10
1367.9879813543259
 20
730.5617901863825
 30
0.0
  0
VERTEX
  5
30F
  8
0
 62
     1
 10
1392.9294625625821
 20
731.06669319882189
 30
0.0
 42
-0.5909238704286846
  0
VERTEX
  5
310
  8
0
 62
     1
 10
1400.462784691078
 20
718.01859652248254
 30
0.0
  0
VERTEX
  5
311
  8
0
 62
     1
 10
1387.5547852517309
 20
696.67109169434036
 30
0.0
  0
VERTEX
  5
312
  8
0
 62
     1
 10
1412.4098425972049
 20
698.80616458932741
 30
0.0
 42
-0.5909238704286941
  0
VERTEX
  5
313
  8
0
 62
     1
 10
1420.780421657887
 20
686.27870773026621
 30
0.0
  0
VERTEX
  5
314
  8
0
 62
     1
 10
1409.2962528531921
 20
664.13268599319201
 30
0.0
  0
VERTEX
  5
315
  8
0
 62
     1
 10
1433.9584531645139
 20
667.88878606080675
 30
0.0
 42
-0.5909238704286932
  0
VERTEX
  5
316
  8
0
 62
     1
 10
1443.1304450527689
 20
655.935613512543
 30
0.0
  0
VERTEX
  5
317
  8
0
 62
     1
 10
1433.119283856626
 20
633.08590753153169
 30
0.0
  0
VERTEX
  5
318
  8
0
 62
     1
 10
1457.4830198058539
 20
638.44695057463991
 30
0.0
 42
-0.5909238704287061
  0
VERTEX
  5
319
  8
0
 62
     1
 10
1467.4171486443031
 20
627.11924765710933
 30
0.0
  0
VERTEX
  5
31A
  8
0
 62
     1
 10
1458.921864385901
 20
603.66370338112336
 30
0.0
  0
VERTEX
  5
31B
  8
0
 62
     1
 10
1482.882806715312
 20
610.6067325903731
 30
0.0
 42
-0.590923870428698
  0
VERTEX
  5
31C
  8
0
 62
     1
 10
1493.5365330391551
 20
599.95300626652863
 30
0.0
  0
VERTEX
  5
31D
  8
0
 62
     1
 10
1486.593503829906
 20
575.99206393711916
 30
0.0
  0
VERTEX
  5
31E
  8
0
 62
     1
 10
1510.0490481058921
 20
584.48734819552112
 30
0.0
 42
-0.5909238704287291
  0
VERTEX
  5
31F
  8
0
 62
     1
 10
1521.3767510234229
 20
574.55321935707059
 30
0.0
  0
VERTEX
  5
320
  8
0
 62
     1
 10
1516.015707980313
 20
550.18948340784425
 30
0.0
  0
VERTEX
  5
321
  8
0
 62
     1
 10
1538.8654139613241
 20
560.20064460398396
 30
0.0
 42
-0.5909238704287244
  0
VERTEX
  5
322
  8
0
 62
     1
 10
1550.8185865095891
 20
551.02865271573228
 30
0.0
  0
VERTEX
  5
323
  8
0
 62
     1
 10
1547.0624864419731
 20
526.3664524044101
 30
0.0
  0
VERTEX
  5
324
  8
0
 62
     1
 10
1569.208508179049
 20
537.85062120910311
 30
0.0
 42
-0.5909238704286365
  0
VERTEX
  5
325
  8
0
 62
     1
 10
1581.73596503811
 20
529.48004214842376
 30
0.0
  0
VERTEX
  5
326
  8
0
 62
     1
 10
1579.6008921431239
 20
504.6249848029496
 30
0.0
  0
VERTEX
  5
327
  8
0
 62
     1
 10
1600.948396971266
 20
517.53298424229547
 30
0.0
 42
-0.5909238704287482
  0
VERTEX
  5
328
  8
0
 62
     1
 10
1613.9964936476031
 20
509.99966211379979
 30
0.0
  0
VERTEX
  5
329
  8
0
 62
     1
 10
1613.4915906351659
 20
485.05818090554351
 30
0.0
  0
VERTEX
  5
32A
  8
0
 62
     1
 10
1633.949165261371
 20
499.33473694427039
 30
0.0
 42
-0.5909238704287496
  0
VERTEX
  5
32B
  8
0
 62
     1
 10
1647.4620278018381
 20
492.67093058985188
 30
0.0
  0
VERTEX
  5
32C
  8
0
 62
     1
 10
1648.589456744161
 20
467.74982877043311
 30
0.0
  0
VERTEX
  5
32D
  8
0
 62
     1
 10
1668.0694986931801
 20
483.33380700380792
 30
0.0
 42
-0.5909238704286368
  0
VERTEX
  5
32E
  8
0
 62
     1
 10
1681.9892629458429
 20
477.56805186531761
 30
0.0
  0
VERTEX
  5
32F
  8
0
 62
     1
 10
1684.7441960191099
 20
452.77404541868628
 30
0.0
  0
VERTEX
  5
330
  8
0
 62
     1
 10
1703.1632887606829
 20
469.59871285941358
 30
0.0
 42
-0.5909238704286315
  0
VERTEX
  5
331
  8
0
 62
     1
 10
1717.4303481580141
 20
464.75569878553392
 30
0.0
  0
VERTEX
  5
332
  8
0
 62
     1
 10
1721.8009883158611
 20
440.19495945373978
 30
0.0
  0
VERTEX
  5
333
  8
0
 62
     1
 10
1739.0802584671169
 20
458.18827029287002
 30
0.0
 42
-0.5909238704287497
  0
VERTEX
  5
334
  8
0
 62
     1
 10
1753.633519270456
 20
454.28873581337717
 30
0.0
  0
VERTEX
  5
335
  8
0
 62
     1
 10
1759.6011507607329
 20
430.06643645287068
 30
0.0
  0
VERTEX
  5
336
  8
0
 62
     1
 10
1775.666605834125
 20
449.1513405710084
 30
0.0
 42
-0.5909238704287018
  0
VERTEX
  5
337
  8
0
 62
     1
 10
1790.4437487464561
 20
446.2119840912095
 30
0.0
  0
VERTEX
  5
338
  8
0
 62
     1
 10
1797.9828172549551
 20
422.43184830652842
 30
0.0
  0
VERTEX
  5
339
  8
0
 62
     1
 10
1812.7656625054469
 20
442.52662121427147
 30
0.0
 42
-0.5909238704286051
  0
VERTEX
  5
33A
  8
0
 62
     1
 10
1827.7034095321881
 20
440.56002950987232
 30
0.0
  0
VERTEX
  5
33B
  8
0
 62
     1
 10
1836.781631610138
 20
417.32388749323979
 30
0.0
  0
VERTEX
  5
33C
  8
0
 62
     1
 10
1850.2185646248599
 20
438.34248028799021
 30
0.0
 42
-0.5909238704287119
  0
VERTEX
  5
33D
  8
0
 62
     1
 10
1865.252950039961
 20
437.35707460658608
 30
0.0
  0
VERTEX
  5
33E
  8
0
 62
     1
 10
1875.831451346708
 20
414.7644270853923
 30
0.0
  0
VERTEX
  5
33F
  8
0
 62
     1
 10
1887.8649331156159
 20
436.61683492597319
 30
0.0
 42
-0.5909238704287905
  0
VERTEX
  5
340
  8
0
 62
     1
 10
1902.9315773726089
 20
436.61683492597422
 30
0.0
  0
VERTEX
  5
341
  8
0
 62
     1
 10
1914.965059141517
 20
414.7644270853923
 30
0.0
  0
VERTEX
  5
342
  8
0
 62
     1
 10
1925.5435604482641
 20
437.35707460658568
 30
0.0
 42
-0.5909238704287271
  0
VERTEX
  5
343
  8
0
 62
     1
 10
1940.5779458633669
 20
438.34248028799101
 30
0.0
  0
VERTEX
  5
344
  8
0
 62
     1
 10
1954.014878878088
 20
417.323887493239
 30
0.0
  0
VERTEX
  5
345
  8
0
 62
     1
 10
1963.0931009560379
 20
440.56002950987312
 30
0.0
 42
-0.5909238704285978
  0
VERTEX
  5
346
  8
0
 62
     1
 10
1978.0308479827791
 20
442.52662121427147
 30
0.0
  0
VERTEX
  5
347
  8
0
 62
     1
 10
1992.8136932332709
 20
422.43184830652791
 30
0.0
  0
VERTEX
  5
348
  8
0
 62
     1
 10
2000.352761741771
 20
446.21198409121109
 30
0.0
 42
-0.5909238704286688
  0
VERTEX
  5
349
  8
0
 62
     1
 10
2015.1299046541001
 20
449.15134057100812
 30
0.0
  0
VERTEX
  5
34A
  8
0
 62
     1
 10
2031.195359727493
 20
430.06643645286908
 30
0.0
  0
VERTEX
  5
34B
  8
0
 62
     1
 10
2037.16299121777
 20
454.28873581337689
 30
0.0
 42
-0.5909238704287353
  0
VERTEX
  5
34C
  8
0
 62
     1
 10
2051.71625202111
 20
458.18827029287132
 30
0.0
  0
VERTEX
  5
34D
  8
0
 62
     1
 10
2068.9955221723671
 20
440.19495945373831
 30
0.0
  0
VERTEX
  5
34E
  8
0
 62
     1
 10
2073.3661623302128
 20
464.75569878553188
 30
0.0
 42
-0.5909238704287786
  0
VERTEX
  5
34F
  8
0
 62
     1
 10
2087.6332217275431
 20
469.59871285941358
 30
0.0
  0
VERTEX
  5
350
  8
0
 62
     1
 10
2106.052314469116
 20
452.77404541868788
 30
0.0
  0
VERTEX
  5
351
  8
0
 62
     1
 10
2108.8072475423842
 20
477.56805186531892
 30
0.0
 42
-0.5909238704285899
  0
VERTEX
  5
352
  8
0
 62
     1
 10
2122.727011795047
 20
483.33380700380633
 30
0.0
  0
VERTEX
  5
353
  8
0
 62
     1
 10
2142.207053744065
 20
467.74982877043232
 30
0.0
  0
VERTEX
  5
354
  8
0
 62
     1
 10
2143.3344826863881
 20
492.67093058985017
 30
0.0
 42
-0.5909238704287322
  0
VERTEX
  5
355
  8
0
 62
     1
 10
2156.847345226854
 20
499.3347369442709
 30
0.0
  0
VERTEX
  5
356
  8
0
 62
     1
 10
2177.3049198530612
 20
485.05818090554351
 30
0.0
  0
VERTEX
  5
357
  8
0
 62
     1
 10
2176.8000168406238
 20
509.99966211379899
 30
0.0
 42
-0.5909238704287675
  0
VERTEX
  5
358
  8
0
 62
     1
 10
2189.84811351696
 20
517.53298424229467
 30
0.0
  0
VERTEX
  5
359
  8
0
 62
     1
 10
2211.195618345102
 20
504.6249848029471
 30
0.0
  0
VERTEX
  5
35A
  8
0
 62
     1
 10
2209.0605454501169
 20
529.48004214842229
 30
0.0
 42
-0.5909238704287672
  0
VERTEX
  5
35B
  8
0
 62
     1
 10
2221.5880023091781
 20
537.85062120910311
 30
0.0
  0
VERTEX
  5
35C
  8
0
 62
     1
 10
2243.7340240462531
 20
526.36645240440919
 30
0.0
  0
VERTEX
  5
35D
  8
0
 62
     1
 10
2239.9779239786371
 20
551.02865271573091
 30
0.0
 42
-0.5909238704287283
  0
VERTEX
  5
35E
  8
0
 62
     1
 10
2251.9310965269019
 20
560.20064460398362
 30
0.0
  0
VERTEX
  5
35F
  8
0
 62
     1
 10
2274.7808025079121
 20
550.18948340784391
 30
0.0
  0
VERTEX
  5
360
  8
0
 62
     1
 10
2269.4197594648031
 20
574.55321935707263
 30
0.0
 42
-0.5909238704286218
  0
VERTEX
  5
361
  8
0
 62
     1
 10
2280.7474623823359
 20
584.48734819551987
 30
0.0
  0
VERTEX
  5
362
  8
0
 62
     1
 10
2304.2030066583211
 20
575.99206393711802
 30
0.0
  0
VERTEX
  5
363
  8
0
 62
     1
 10
2297.2599774490709
 20
599.95300626652784
 30
0.0
 42
-0.5909238704286886
  0
VERTEX
  5
364
  8
0
 62
     1
 10
2307.9137037729161
 20
610.6067325903706
 30
0.0
  0
VERTEX
  5
365
  8
0
 62
     1
 10
2331.8746461023261
 20
603.66370338112381
 30
0.0
  0
VERTEX
  5
366
  8
0
 62
     1
 10
2323.379361843924
 20
627.11924765710705
 30
0.0
 42
-0.5909238704287675
  0
VERTEX
  5
367
  8
0
 62
     1
 10
2333.313490682372
 20
638.44695057463889
 30
0.0
  0
VERTEX
  5
368
  8
0
 62
     1
 10
2357.6772266315988
 20
633.08590753153135
 30
0.0
  0
VERTEX
  5
369
  8
0
 62
     1
 10
2347.66606543546
 20
655.93561351254175
 30
0.0
 42
-0.5909238704287353
  0
VERTEX
  5
36A
  8
0
 62
     1
 10
2356.8380573237132
 20
667.8887860608063
 30
0.0
  0
VERTEX
  5
36B
  8
0
 62
     1
 10
2381.5002576350348
 20
664.13268599319019
 30
0.0
  0
VERTEX
  5
36C
  8
0
 62
     1
 10
2370.016088830339
 20
686.27870773026439
 30
0.0
 42
-0.5909238704287592
  0
VERTEX
  5
36D
  8
0
 62
     1
 10
2378.3866678910199
 20
698.80616458932661
 30
0.0
  0
VERTEX
  5
36E
  8
0
 62
     1
 10
2403.2417252364949
 20
696.67109169433945
 30
0.0
  0
VERTEX
  5
36F
  8
0
 62
     1
 10
2390.3337257971489
 20
718.0185965224839
 30
0.0
 42
-0.5909238704287017
  0
VERTEX
  5
370
  8
0
 62
     1
 10
2397.8670479256448
 20
731.06669319881985
 30
0.0
  0
VERTEX
  5
371
  8
0
 62
     1
 10
2422.8085291338998
 20
730.56179018638159
 30
0.0
  0
VERTEX
  5
372
  8
0
 62
     1
 10
2408.5319730951751
 20
751.01936481258747
 30
0.0
 42
-0.5909238704287874
  0
VERTEX
  5
373
  8
0
 62
     1
 10
2415.1957794495929
 20
764.53222735305314
 30
0.0
  0
VERTEX
  5
374
  8
0
 62
     1
 10
2440.1168812690098
 20
765.65965629537754
 30
0.0
  0
VERTEX
  5
375
  8
0
 62
     1
 10
2424.5329030356379
 20
785.13969824439459
 30
0.0
 42
-0.5909238704286662
  0
VERTEX
  5
376
  8
0
 62
     1
 10
2430.298658174127
 20
799.05946249705914
 30
0.0
  0
VERTEX
  5
377
  8
0
 62
     1
 10
2455.0926646207581
 20
801.81439557032547
 30
0.0
  0
VERTEX
  5
378
  8
0
 62
     1
 10
2438.2679971800299
 20
820.23348831189855
 30
0.0
 42
-0.5909238704287299
  0
VERTEX
  5
379
  8
0
 62
     1
 10
2443.1110112539109
 20
834.50054770922861
 30
0.0
  0
VERTEX
  5
37A
  8
0
 62
     1
 10
2467.6717505857091
 20
838.87118786707561
 30
0.0
  0
VERTEX
  5
37B
  8
0
 62
     1
 10
2449.6784397465758
 20
856.15045801833378
 30
0.0
 42
-0.5909238704286902
  0
VERTEX
  5
37C
  8
0
 62
     1
 10
2453.5779742260679
 20
870.7037188216716
 30
0.0
  0
VERTEX
  5
37D
  8
0
 62
     1
 10
2477.8002735865739
 20
876.67135031194857
 30
0.0
  0
VERTEX
  5
37E
  8
0
 62
     1
 10
2458.7153694684362
 20
892.73680538534154
 30
0.0
 42
-0.5909238704286567
  0
VERTEX
  5
37F
  8
0
 62
     1
 10
2461.654725948234
 20
907.51394829767116
 30
0.0
  0
VERTEX
  5
380
  8
0
 62
     1
 10
2485.434861732916
 20
915.05301680617185
 30
0.0
  0
VERTEX
  5
381
  8
0
 62
     1
 10
2465.3400888251731
 20
929.83586205666177
 30
0.0
 42
-0.5909238704286791
  0
VERTEX
  5
382
  8
0
 62
     1
 10
2467.3066805295721
 20
944.77360908340461
 30
0.0
  0
VERTEX
  5
383
  8
0
 62
     1
 10
2490.5428225462078
 20
953.85183116135374
 30
0.0
  0
VERTEX
  5
384
  8
0
 62
     1
 10
2469.5242297514528
 20
967.28876417607637
 30
0.0
 42
-0.5909238704286837
  0
VERTEX
  5
385
  8
0
 62
     1
 10
2470.5096354328589
 20
982.32314959117662
 30
0.0
  0
VERTEX
  5
386
  8
0
 62
     1
 10
2493.102282954052
 20
992.90165089792447
 30
0.0
  0
VERTEX
  5
387
  8
0
 62
     1
 10
2493.102282954052
 20
982.90165089792447
 30
0.0
  0
SEQEND
  5
388
  8
0
 62
     1
  0
POLYLINE
  5
11E
  8
0
 62
     1
 66
     1
 10
0.0
 20
0.0
 30
0.0
  0
VERTEX
  5
389
  8
0
 62
     1
 10
2390.7629922285432
 20
1015.88994476704
 30
0.0
  0
VERTEX
  5
38A
  8
0
 62
     1
 10
2400.3982552441139
 20
1012.468454795331
 30
0.0
 42
0.9999999999999998
  0
VERTEX
  5
38B
  8
0
 62
     1
 10
1390.398255244113
 20
1012.468454795331
 30
0.0
 42
0.9999999999999998
  0
VERTEX
  5
38C
  8
0
 62
     1
 10
2400.3982552441139
 20
1012.468454795331
 30
0.0
  0
VERTEX
  5
38D
  8
0
 62
     1
 10
2389.9246095065741
 20
1010.863859653199
 30
0.0
  0
SEQEND
  5
38E
  8
0
 62
     1
  0
ENDSEC
  0
EOF
