  0
SECTION
  2
HEADER
  9
$ACADVER
  1
AC1009
  9
$INSBASE
 10
0.0
 20
0.0
 30
0.0
  9
$EXTMIN
 10
198.198996
 20
147.974455
 30
0.0
  9
$EXTMAX
 10
1186.921508
 20
375.921445
 30
0.0
  9
$LIMMIN
 10
0.0
 20
0.0
  9
$LIMMAX
 10
420.0
 20
297.0
  9
$ORTHOMODE
 70
     1
  9
$REGENMODE
 70
     1
  9
$FILLMODE
 70
     1
  9
$QTEXTMODE
 70
     0
  9
$MIRRTEXT
 70
     1
  9
$DRAGMODE
 70
     2
  9
$LTSCALE
 40
1.0
  9
$OSMODE
 70
    23
  9
$ATTMODE
 70
     1
  9
$TEXTSIZE
 40
2.5
  9
$TRACEWID
 40
1.0
  9
$TEXTSTYLE
  7
STANDARD
  9
$CLAYER
  8
0
  9
$CELTYPE
  6
BYLAYER
  9
$CECOLOR
 62
   256
  9
$DIMSCALE
 40
1.0
  9
$DIMASZ
 40
2.5
  9
$DIMEXO
 40
0.625
  9
$DIMDLI
 40
3.75
  9
$DIMRND
 40
0.0
  9
$DIMDLE
 40
0.0
  9
$DIMEXE
 40
1.25
  9
$DIMTP
 40
0.0
  9
$DIMTM
 40
0.0
  9
$DIMTXT
 40
2.5
  9
$DIMCEN
 40
2.5
  9
$DIMTSZ
 40
0.0
  9
$DIMTOL
 70
     0
  9
$DIMLIM
 70
     0
  9
$DIMTIH
 70
     0
  9
$DIMTOH
 70
     0
  9
$DIMSE1
 70
     0
  9
$DIMSE2
 70
     0
  9
$DIMTAD
 70
     1
  9
$DIMZIN
 70
     8
  9
$DIMBLK
  1

  9
$DIMASO
 70
     1
  9
$DIMSHO
 70
     1
  9
$DIMPOST
  1

  9
$DIMAPOST
  1

  9
$DIMALT
 70
     0
  9
$DIMALTD
 70
     4
  9
$DIMALTF
 40
0.0394
  9
$DIMLFAC
 40
1.0
  9
$DIMTOFL
 70
     1
  9
$DIMTVP
 40
0.0
  9
$DIMTIX
 70
     0
  9
$DIMSOXD
 70
     0
  9
$DIMSAH
 70
     0
  9
$DIMBLK1
  1

  9
$DIMBLK2
  1

  9
$DIMSTYLE
  2
STANDARD
  9
$DIMCLRD
 70
     0
  9
$DIMCLRE
 70
     0
  9
$DIMCLRT
 70
     0
  9
$DIMTFAC
 40
1.0
  9
$DIMGAP
 40
0.625
  9
$LUNITS
 70
     2
  9
$LUPREC
 70
     4
  9
$SKETCHINC
 40
1.0
  9
$FILLETRAD
 40
6.0
  9
$AUNITS
 70
     0
  9
$AUPREC
 70
     0
  9
$MENU
  1
.
  9
$ELEVATION
 40
0.0
  9
$PELEVATION
 40
0.0
  9
$THICKNESS
 40
0.0
  9
$LIMCHECK
 70
     0
  9
$BLIPMODE
 70
     0
  9
$CHAMFERA
 40
10.0
  9
$CHAMFERB
 40
10.0
  9
$SKPOLY
 70
     0
  9
$TDCREATE
 40
2455551.641568
  9
$TDUPDATE
 40
2455551.715378
  9
$TDINDWG
 40
0.038801
  9
$TDUSRTIMER
 40
0.0388
  9
$USRTIMER
 70
     1
  9
$ANGBASE
 50
0.0
  9
$ANGDIR
 70
     0
  9
$PDMODE
 70
     0
  9
$PDSIZE
 40
0.0
  9
$PLINEWID
 40
0.0
  9
$COORDS
 70
     1
  9
$SPLFRAME
 70
     0
  9
$SPLINETYPE
 70
     6
  9
$SPLINESEGS
 70
     8
  9
$ATTDIA
 70
     0
  9
$ATTREQ
 70
     1
  9
$HANDLING
 70
     1
  9
$HANDSEED
  5
1AC
  9
$SURFTAB1
 70
     6
  9
$SURFTAB2
 70
     6
  9
$SURFTYPE
 70
     6
  9
$SURFU
 70
     6
  9
$SURFV
 70
     6
  9
$UCSNAME
  2

  9
$UCSORG
 10
0.0
 20
0.0
 30
0.0
  9
$UCSXDIR
 10
1.0
 20
0.0
 30
0.0
  9
$UCSYDIR
 10
0.0
 20
1.0
 30
0.0
  9
$PUCSNAME
  2

  9
$PUCSORG
 10
0.0
 20
0.0
 30
0.0
  9
$PUCSXDIR
 10
1.0
 20
0.0
 30
0.0
  9
$PUCSYDIR
 10
0.0
 20
1.0
 30
0.0
  9
$USERI1
 70
     0
  9
$USERI2
 70
     0
  9
$USERI3
 70
     0
  9
$USERI4
 70
     0
  9
$USERI5
 70
     0
  9
$USERR1
 40
0.0
  9
$USERR2
 40
0.0
  9
$USERR3
 40
0.0
  9
$USERR4
 40
0.0
  9
$USERR5
 40
0.0
  9
$WORLDVIEW
 70
     1
  9
$SHADEDGE
 70
     3
  9
$SHADEDIF
 70
    70
  9
$TILEMODE
 70
     1
  9
$MAXACTVP
 70
    48
  9
$PLIMCHECK
 70
     0
  9
$PEXTMIN
 10
1.000000E+020
 20
1.000000E+020
 30
1.000000E+020
  9
$PEXTMAX
 10
-1.000000E+020
 20
-1.000000E+020
 30
-1.000000E+020
  9
$PLIMMIN
 10
0.0
 20
0.0
  9
$PLIMMAX
 10
420.0
 20
297.0
  9
$UNITMODE
 70
     0
  9
$VISRETAIN
 70
     1
  9
$PLINEGEN
 70
     0
  9
$PSLTSCALE
 70
     1
  0
ENDSEC
  0
SECTION
  2
TABLES
  0
TABLE
  2
VPORT
 70
     2
  0
VPORT
  2
*ACTIVE
 70
     0
 10
0.0
 20
0.0
 11
1.0
 21
1.0
 12
722.43557
 22
195.715067
 13
0.0
 23
0.0
 14
10.0
 24
10.0
 15
10.0
 25
10.0
 16
0.0
 26
0.0
 36
1.0
 17
0.0
 27
0.0
 37
0.0
 40
862.314581
 41
1.795113
 42
50.0
 43
0.0
 44
0.0
 50
0.0
 51
0.0
 71
     0
 72
   100
 73
     1
 74
     1
 75
     0
 76
     0
 77
     0
 78
     0
  0
ENDTAB
  0
TABLE
  2
LTYPE
 70
     1
  0
LTYPE
  2
CONTINUOUS
 70
     0
  3
Solid line
 72
    65
 73
     0
 40
0.0
  0
ENDTAB
  0
TABLE
  2
LAYER
 70
     1
  0
LAYER
  2
0
 70
     0
 62
     7
  6
CONTINUOUS
  0
ENDTAB
  0
TABLE
  2
STYLE
 70
     1
  0
STYLE
  2
STANDARD
 70
     0
 40
0.0
 41
1.0
 50
0.0
 71
     0
 42
2.5
  3
txt
  4

  0
ENDTAB
  0
TABLE
  2
VIEW
 70
     0
  0
ENDTAB
  0
TABLE
  2
UCS
 70
     0
  0
ENDTAB
  0
TABLE
  2
APPID
 70
     1
  0
APPID
  2
ACAD
 70
     0
  0
ENDTAB
  0
TABLE
  2
DIMSTYLE
 70
     1
  0
DIMSTYLE
  2
STANDARD
 70
     0
  3

  4

  5

  6

  7

 40
1.0
 41
0.18
 42
0.0625
 43
0.38
 44
0.18
 45
0.0
 46
0.0
 47
0.0
 48
0.0
140
0.18
141
0.09
142
0.0
143
25.4
144
1.0
145
0.0
146
1.0
147
0.09
 71
     0
 72
     0
 73
     1
 74
     1
 75
     0
 76
     0
 77
     0
 78
     0
170
     0
171
     2
172
     0
173
     0
174
     0
175
     0
176
     0
177
     0
178
     0
  0
ENDTAB
  0
ENDSEC
  0
SECTION
  2
BLOCKS
  0
BLOCK
  8
0
  2
$MODEL_SPACE
 70
     0
 10
0.0
 20
0.0
 30
0.0
  3
$MODEL_SPACE
  1

  0
ENDBLK
  5
B
  8
0
  0
BLOCK
 67
     1
  8
0
  2
$PAPER_SPACE
 70
     0
 10
0.0
 20
0.0
 30
0.0
  3
$PAPER_SPACE
  1

  0
ENDBLK
  5
11
 67
     1
  8
0
  0
ENDSEC
  0
SECTION
  2
ENTITIES
  0
POLYLINE
  5
31
  8
0
 66
     1
 10
0.0
 20
0.0
 30
0.0
  0
VERTEX
  5
5E
  8
0
 10
1136.16021
 20
330.921445
 30
0.0
  0
VERTEX
  5
5F
  8
0
 10
1136.16021
 20
309.621445
 30
0.0
 42
-1.0
  0
VERTEX
  5
60
  8
0
 10
1136.16021
 20
352.221445
 30
0.0
 42
-1.0
  0
VERTEX
  5
61
  8
0
 10
1136.16021
 20
309.621445
 30
0.0
  0
VERTEX
  5
62
  8
0
 10
1142.593559
 20
321.039599
 30
0.0
  0
SEQEND
  5
63
  8
0
  0
POLYLINE
  5
32
  8
0
 66
     1
 10
0.0
 20
0.0
 30
0.0
  0
VERTEX
  5
64
  8
0
 10
1092.756985
 20
342.801242
 30
0.0
 42
-0.394789
  0
VERTEX
  5
65
  8
0
 10
1097.508432
 20
336.121445
 30
0.0
 42
0.494907
  0
VERTEX
  5
66
  8
0
 10
1141.36021
 20
292.269666
 30
0.0
 42
-0.394893
  0
VERTEX
  5
67
  8
0
 10
1148.040438
 20
287.516102
 30
0.0
  0
VERTEX
  5
68
  8
0
 10
1148.16021
 20
287.550948
 30
0.0
 42
1.715898
  0
VERTEX
  5
69
  8
0
 10
1092.789714
 20
342.921445
 30
0.0
  0
VERTEX
  5
6A
  8
0
 10
1092.756985
 20
342.801242
 30
0.0
  0
VERTEX
  5
6B
  8
0
 10
1094.246069
 20
335.655213
 30
0.0
  0
SEQEND
  5
6C
  8
0
  0
POLYLINE
  5
33
  8
0
 66
     1
 10
0.0
 20
0.0
 30
0.0
  0
VERTEX
  5
6D
  8
0
 10
1047.095924
 20
330.921445
 30
0.0
  0
VERTEX
  5
6E
  8
0
 10
1047.095924
 20
309.621445
 30
0.0
 42
-1.0
  0
VERTEX
  5
6F
  8
0
 10
1047.095924
 20
352.221445
 30
0.0
 42
-1.0
  0
VERTEX
  5
70
  8
0
 10
1047.095924
 20
309.621445
 30
0.0
  0
VERTEX
  5
71
  8
0
 10
1053.529272
 20
321.039599
 30
0.0
  0
SEQEND
  5
72
  8
0
  0
POLYLINE
  5
34
  8
0
 66
     1
 10
0.0
 20
0.0
 30
0.0
  0
VERTEX
  5
73
  8
0
 10
1003.692698
 20
342.801242
 30
0.0
 42
-0.394789
  0
VERTEX
  5
74
  8
0
 10
1008.444145
 20
336.121445
 30
0.0
 42
0.494907
  0
VERTEX
  5
75
  8
0
 10
1052.295924
 20
292.269666
 30
0.0
 42
-0.394893
  0
VERTEX
  5
76
  8
0
 10
1058.976151
 20
287.516102
 30
0.0
  0
VERTEX
  5
77
  8
0
 10
1059.095924
 20
287.550948
 30
0.0
 42
1.715898
  0
VERTEX
  5
78
  8
0
 10
1003.725427
 20
342.921445
 30
0.0
  0
VERTEX
  5
79
  8
0
 10
1003.692698
 20
342.801242
 30
0.0
  0
VERTEX
  5
7A
  8
0
 10
1005.181782
 20
335.655213
 30
0.0
  0
SEQEND
  5
7B
  8
0
  0
POLYLINE
  5
35
  8
0
 66
     1
 10
0.0
 20
0.0
 30
0.0
  0
VERTEX
  5
7C
  8
0
 10
957.937554
 20
330.921445
 30
0.0
  0
VERTEX
  5
7D
  8
0
 10
957.937554
 20
309.621445
 30
0.0
 42
-1.0
  0
VERTEX
  5
7E
  8
0
 10
957.937554
 20
352.221445
 30
0.0
 42
-1.0
  0
VERTEX
  5
7F
  8
0
 10
957.937554
 20
309.621445
 30
0.0
  0
VERTEX
  5
80
  8
0
 10
964.370902
 20
321.039599
 30
0.0
  0
SEQEND
  5
81
  8
0
  0
POLYLINE
  5
36
  8
0
 66
     1
 10
0.0
 20
0.0
 30
0.0
  0
VERTEX
  5
82
  8
0
 10
914.534328
 20
342.801242
 30
0.0
 42
-0.394789
  0
VERTEX
  5
83
  8
0
 10
919.285775
 20
336.121445
 30
0.0
 42
0.494907
  0
VERTEX
  5
84
  8
0
 10
963.137554
 20
292.269666
 30
0.0
 42
-0.394893
  0
VERTEX
  5
85
  8
0
 10
969.817781
 20
287.516102
 30
0.0
  0
VERTEX
  5
86
  8
0
 10
969.937554
 20
287.550948
 30
0.0
 42
1.715898
  0
VERTEX
  5
87
  8
0
 10
914.567057
 20
342.921445
 30
0.0
  0
VERTEX
  5
88
  8
0
 10
914.534328
 20
342.801242
 30
0.0
  0
VERTEX
  5
89
  8
0
 10
916.023412
 20
335.655213
 30
0.0
  0
SEQEND
  5
8A
  8
0
  0
POLYLINE
  5
37
  8
0
 66
     1
 10
0.0
 20
0.0
 30
0.0
  0
VERTEX
  5
8B
  8
0
 10
869.595935
 20
330.921445
 30
0.0
  0
VERTEX
  5
8C
  8
0
 10
869.595935
 20
309.621445
 30
0.0
 42
-1.0
  0
VERTEX
  5
8D
  8
0
 10
869.595935
 20
352.221445
 30
0.0
 42
-1.0
  0
VERTEX
  5
8E
  8
0
 10
869.595935
 20
309.621445
 30
0.0
  0
VERTEX
  5
8F
  8
0
 10
876.029283
 20
321.039599
 30
0.0
  0
SEQEND
  5
90
  8
0
  0
POLYLINE
  5
38
  8
0
 66
     1
 10
0.0
 20
0.0
 30
0.0
  0
VERTEX
  5
91
  8
0
 10
826.192709
 20
342.801242
 30
0.0
 42
-0.394789
  0
VERTEX
  5
92
  8
0
 10
830.944156
 20
336.121445
 30
0.0
 42
0.494907
  0
VERTEX
  5
93
  8
0
 10
874.795935
 20
292.269666
 30
0.0
 42
-0.394893
  0
VERTEX
  5
94
  8
0
 10
881.476162
 20
287.516102
 30
0.0
  0
VERTEX
  5
95
  8
0
 10
881.595935
 20
287.550948
 30
0.0
 42
1.715898
  0
VERTEX
  5
96
  8
0
 10
826.225438
 20
342.921445
 30
0.0
  0
VERTEX
  5
97
  8
0
 10
826.192709
 20
342.801242
 30
0.0
  0
VERTEX
  5
98
  8
0
 10
827.681793
 20
335.655213
 30
0.0
  0
SEQEND
  5
99
  8
0
  0
POLYLINE
  5
39
  8
0
 66
     1
 10
0.0
 20
0.0
 30
0.0
  0
VERTEX
  5
9A
  8
0
 10
781.443877
 20
330.921445
 30
0.0
  0
VERTEX
  5
9B
  8
0
 10
781.443877
 20
309.621445
 30
0.0
 42
-1.0
  0
VERTEX
  5
9C
  8
0
 10
781.443877
 20
352.221445
 30
0.0
 42
-1.0
  0
VERTEX
  5
9D
  8
0
 10
781.443877
 20
309.621445
 30
0.0
  0
VERTEX
  5
9E
  8
0
 10
787.877225
 20
321.039599
 30
0.0
  0
SEQEND
  5
9F
  8
0
  0
POLYLINE
  5
3A
  8
0
 66
     1
 10
0.0
 20
0.0
 30
0.0
  0
VERTEX
  5
A0
  8
0
 10
738.040651
 20
342.801242
 30
0.0
 42
-0.394789
  0
VERTEX
  5
A1
  8
0
 10
742.792098
 20
336.121445
 30
0.0
 42
0.494907
  0
VERTEX
  5
A2
  8
0
 10
786.643877
 20
292.269666
 30
0.0
 42
-0.394893
  0
VERTEX
  5
A3
  8
0
 10
793.324104
 20
287.516102
 30
0.0
  0
VERTEX
  5
A4
  8
0
 10
793.443877
 20
287.550948
 30
0.0
 42
1.715898
  0
VERTEX
  5
A5
  8
0
 10
738.07338
 20
342.921445
 30
0.0
  0
VERTEX
  5
A6
  8
0
 10
738.040651
 20
342.801242
 30
0.0
  0
VERTEX
  5
A7
  8
0
 10
739.529735
 20
335.655213
 30
0.0
  0
SEQEND
  5
A8
  8
0
  0
POLYLINE
  5
3B
  8
0
 66
     1
 10
0.0
 20
0.0
 30
0.0
  0
VERTEX
  5
A9
  8
0
 10
692.986728
 20
330.921445
 30
0.0
  0
VERTEX
  5
AA
  8
0
 10
692.986728
 20
309.621445
 30
0.0
 42
-1.0
  0
VERTEX
  5
AB
  8
0
 10
692.986728
 20
352.221445
 30
0.0
 42
-1.0
  0
VERTEX
  5
AC
  8
0
 10
692.986728
 20
309.621445
 30
0.0
  0
VERTEX
  5
AD
  8
0
 10
699.420076
 20
321.039599
 30
0.0
  0
SEQEND
  5
AE
  8
0
  0
POLYLINE
  5
3C
  8
0
 66
     1
 10
0.0
 20
0.0
 30
0.0
  0
VERTEX
  5
AF
  8
0
 10
649.583502
 20
342.801242
 30
0.0
 42
-0.394789
  0
VERTEX
  5
B0
  8
0
 10
654.334949
 20
336.121445
 30
0.0
 42
0.494907
  0
VERTEX
  5
B1
  8
0
 10
698.186728
 20
292.269666
 30
0.0
 42
-0.394893
  0
VERTEX
  5
B2
  8
0
 10
704.866955
 20
287.516102
 30
0.0
  0
VERTEX
  5
B3
  8
0
 10
704.986728
 20
287.550948
 30
0.0
 42
1.715898
  0
VERTEX
  5
B4
  8
0
 10
649.616231
 20
342.921445
 30
0.0
  0
VERTEX
  5
B5
  8
0
 10
649.583502
 20
342.801242
 30
0.0
  0
VERTEX
  5
B6
  8
0
 10
651.072586
 20
335.655213
 30
0.0
  0
SEQEND
  5
B7
  8
0
  0
POLYLINE
  5
3D
  8
0
 66
     1
 10
0.0
 20
0.0
 30
0.0
  0
VERTEX
  5
B8
  8
0
 10
604.054225
 20
330.921445
 30
0.0
  0
VERTEX
  5
B9
  8
0
 10
604.054225
 20
309.621445
 30
0.0
 42
-1.0
  0
VERTEX
  5
BA
  8
0
 10
604.054225
 20
352.221445
 30
0.0
 42
-1.0
  0
VERTEX
  5
BB
  8
0
 10
604.054225
 20
309.621445
 30
0.0
  0
VERTEX
  5
BC
  8
0
 10
610.487573
 20
321.039599
 30
0.0
  0
SEQEND
  5
BD
  8
0
  0
POLYLINE
  5
3E
  8
0
 66
     1
 10
0.0
 20
0.0
 30
0.0
  0
VERTEX
  5
BE
  8
0
 10
560.650999
 20
342.801242
 30
0.0
 42
-0.394789
  0
VERTEX
  5
BF
  8
0
 10
565.402446
 20
336.121445
 30
0.0
 42
0.494907
  0
VERTEX
  5
C0
  8
0
 10
609.254225
 20
292.269666
 30
0.0
 42
-0.394893
  0
VERTEX
  5
C1
  8
0
 10
615.934452
 20
287.516102
 30
0.0
  0
VERTEX
  5
C2
  8
0
 10
616.054225
 20
287.550948
 30
0.0
 42
1.715898
  0
VERTEX
  5
C3
  8
0
 10
560.683728
 20
342.921445
 30
0.0
  0
VERTEX
  5
C4
  8
0
 10
560.650999
 20
342.801242
 30
0.0
  0
VERTEX
  5
C5
  8
0
 10
562.140083
 20
335.655213
 30
0.0
  0
SEQEND
  5
C6
  8
0
  0
POLYLINE
  5
3F
  8
0
 66
     1
 10
0.0
 20
0.0
 30
0.0
  0
VERTEX
  5
C7
  8
0
 10
514.989938
 20
330.921445
 30
0.0
  0
VERTEX
  5
C8
  8
0
 10
514.989938
 20
309.621445
 30
0.0
 42
-1.0
  0
VERTEX
  5
C9
  8
0
 10
514.989938
 20
352.221445
 30
0.0
 42
-1.0
  0
VERTEX
  5
CA
  8
0
 10
514.989938
 20
309.621445
 30
0.0
  0
VERTEX
  5
CB
  8
0
 10
521.423286
 20
321.039599
 30
0.0
  0
SEQEND
  5
CC
  8
0
  0
POLYLINE
  5
40
  8
0
 66
     1
 10
0.0
 20
0.0
 30
0.0
  0
VERTEX
  5
CD
  8
0
 10
471.586713
 20
342.801242
 30
0.0
 42
-0.394789
  0
VERTEX
  5
CE
  8
0
 10
476.338159
 20
336.121445
 30
0.0
 42
0.494907
  0
VERTEX
  5
CF
  8
0
 10
520.189938
 20
292.269666
 30
0.0
 42
-0.394893
  0
VERTEX
  5
D0
  8
0
 10
526.870166
 20
287.516102
 30
0.0
  0
VERTEX
  5
D1
  8
0
 10
526.989938
 20
287.550948
 30
0.0
 42
1.715898
  0
VERTEX
  5
D2
  8
0
 10
471.619441
 20
342.921445
 30
0.0
  0
VERTEX
  5
D3
  8
0
 10
471.586713
 20
342.801242
 30
0.0
  0
VERTEX
  5
D4
  8
0
 10
473.075797
 20
335.655213
 30
0.0
  0
SEQEND
  5
D5
  8
0
  0
POLYLINE
  5
41
  8
0
 66
     1
 10
0.0
 20
0.0
 30
0.0
  0
VERTEX
  5
D6
  8
0
 10
425.831568
 20
330.921445
 30
0.0
  0
VERTEX
  5
D7
  8
0
 10
425.831568
 20
309.621445
 30
0.0
 42
-1.0
  0
VERTEX
  5
D8
  8
0
 10
425.831568
 20
352.221445
 30
0.0
 42
-1.0
  0
VERTEX
  5
D9
  8
0
 10
425.831568
 20
309.621445
 30
0.0
  0
VERTEX
  5
DA
  8
0
 10
432.264916
 20
321.039599
 30
0.0
  0
SEQEND
  5
DB
  8
0
  0
POLYLINE
  5
42
  8
0
 66
     1
 10
0.0
 20
0.0
 30
0.0
  0
VERTEX
  5
DC
  8
0
 10
382.428342
 20
342.801242
 30
0.0
 42
-0.394789
  0
VERTEX
  5
DD
  8
0
 10
387.179789
 20
336.121445
 30
0.0
 42
0.494907
  0
VERTEX
  5
DE
  8
0
 10
431.031568
 20
292.269666
 30
0.0
 42
-0.394893
  0
VERTEX
  5
DF
  8
0
 10
437.711796
 20
287.516102
 30
0.0
  0
VERTEX
  5
E0
  8
0
 10
437.831568
 20
287.550948
 30
0.0
 42
1.715898
  0
VERTEX
  5
E1
  8
0
 10
382.461071
 20
342.921445
 30
0.0
  0
VERTEX
  5
E2
  8
0
 10
382.428342
 20
342.801242
 30
0.0
  0
VERTEX
  5
E3
  8
0
 10
383.917427
 20
335.655213
 30
0.0
  0
SEQEND
  5
E4
  8
0
  0
POLYLINE
  5
43
  8
0
 66
     1
 10
0.0
 20
0.0
 30
0.0
  0
VERTEX
  5
E5
  8
0
 10
337.489949
 20
330.921445
 30
0.0
  0
VERTEX
  5
E6
  8
0
 10
337.489949
 20
309.621445
 30
0.0
 42
-1.0
  0
VERTEX
  5
E7
  8
0
 10
337.489949
 20
352.221445
 30
0.0
 42
-1.0
  0
VERTEX
  5
E8
  8
0
 10
337.489949
 20
309.621445
 30
0.0
  0
VERTEX
  5
E9
  8
0
 10
343.923297
 20
321.039599
 30
0.0
  0
SEQEND
  5
EA
  8
0
  0
POLYLINE
  5
44
  8
0
 66
     1
 10
0.0
 20
0.0
 30
0.0
  0
VERTEX
  5
EB
  8
0
 10
294.086724
 20
342.801242
 30
0.0
 42
-0.394789
  0
VERTEX
  5
EC
  8
0
 10
298.83817
 20
336.121445
 30
0.0
 42
0.494907
  0
VERTEX
  5
ED
  8
0
 10
342.689949
 20
292.269666
 30
0.0
 42
-0.394893
  0
VERTEX
  5
EE
  8
0
 10
349.370177
 20
287.516102
 30
0.0
  0
VERTEX
  5
EF
  8
0
 10
349.489949
 20
287.550948
 30
0.0
 42
1.715898
  0
VERTEX
  5
F0
  8
0
 10
294.119452
 20
342.921445
 30
0.0
  0
VERTEX
  5
F1
  8
0
 10
294.086724
 20
342.801242
 30
0.0
  0
VERTEX
  5
F2
  8
0
 10
295.575808
 20
335.655213
 30
0.0
  0
SEQEND
  5
F3
  8
0
  0
POLYLINE
  5
45
  8
0
 66
     1
 10
0.0
 20
0.0
 30
0.0
  0
VERTEX
  5
F4
  8
0
 10
247.70205
 20
330.921445
 30
0.0
  0
VERTEX
  5
F5
  8
0
 10
247.70205
 20
309.621445
 30
0.0
 42
-1.0
  0
VERTEX
  5
F6
  8
0
 10
247.70205
 20
352.221445
 30
0.0
 42
-1.0
  0
VERTEX
  5
F7
  8
0
 10
247.70205
 20
309.621445
 30
0.0
  0
VERTEX
  5
F8
  8
0
 10
254.135398
 20
321.039599
 30
0.0
  0
SEQEND
  5
F9
  8
0
  0
POLYLINE
  5
46
  8
0
 66
     1
 10
0.0
 20
0.0
 30
0.0
  0
VERTEX
  5
FA
  8
0
 10
204.298824
 20
342.801242
 30
0.0
 42
-0.394789
  0
VERTEX
  5
FB
  8
0
 10
209.050271
 20
336.121445
 30
0.0
 42
0.494907
  0
VERTEX
  5
FC
  8
0
 10
252.90205
 20
292.269666
 30
0.0
 42
-0.394893
  0
VERTEX
  5
FD
  8
0
 10
259.582277
 20
287.516102
 30
0.0
  0
VERTEX
  5
FE
  8
0
 10
259.70205
 20
287.550948
 30
0.0
 42
1.715898
  0
VERTEX
  5
FF
  8
0
 10
204.331553
 20
342.921445
 30
0.0
  0
VERTEX
  5
100
  8
0
 10
204.298824
 20
342.801242
 30
0.0
  0
VERTEX
  5
101
  8
0
 10
205.787908
 20
335.655213
 30
0.0
  0
SEQEND
  5
102
  8
0
  0
POLYLINE
  5
47
  8
0
 66
     1
 10
0.0
 20
0.0
 30
0.0
  0
VERTEX
  5
103
  8
0
 10
248.960294
 20
239.485098
 30
0.0
  0
VERTEX
  5
104
  8
0
 10
248.960294
 20
218.185098
 30
0.0
 42
1.0
  0
VERTEX
  5
105
  8
0
 10
248.960294
 20
260.785098
 30
0.0
 42
1.0
  0
VERTEX
  5
106
  8
0
 10
248.960294
 20
218.185098
 30
0.0
  0
VERTEX
  5
107
  8
0
 10
242.526946
 20
229.603252
 30
0.0
  0
SEQEND
  5
108
  8
0
  0
POLYLINE
  5
48
  8
0
 66
     1
 10
0.0
 20
0.0
 30
0.0
  0
VERTEX
  5
109
  8
0
 10
292.363519
 20
251.364895
 30
0.0
 42
0.394789
  0
VERTEX
  5
10A
  8
0
 10
287.612072
 20
244.685098
 30
0.0
 42
-0.494907
  0
VERTEX
  5
10B
  8
0
 10
243.760294
 20
200.833319
 30
0.0
 42
0.394893
  0
VERTEX
  5
10C
  8
0
 10
237.080066
 20
196.079755
 30
0.0
  0
VERTEX
  5
10D
  8
0
 10
236.960294
 20
196.114601
 30
0.0
 42
-1.715898
  0
VERTEX
  5
10E
  8
0
 10
292.330791
 20
251.485098
 30
0.0
  0
VERTEX
  5
10F
  8
0
 10
292.363519
 20
251.364895
 30
0.0
  0
VERTEX
  5
110
  8
0
 10
290.874435
 20
244.218866
 30
0.0
  0
SEQEND
  5
111
  8
0
  0
POLYLINE
  5
49
  8
0
 66
     1
 10
0.0
 20
0.0
 30
0.0
  0
VERTEX
  5
112
  8
0
 10
338.02458
 20
239.485098
 30
0.0
  0
VERTEX
  5
113
  8
0
 10
338.02458
 20
218.185098
 30
0.0
 42
1.0
  0
VERTEX
  5
114
  8
0
 10
338.02458
 20
260.785098
 30
0.0
 42
1.0
  0
VERTEX
  5
115
  8
0
 10
338.02458
 20
218.185098
 30
0.0
  0
VERTEX
  5
116
  8
0
 10
331.591232
 20
229.603252
 30
0.0
  0
SEQEND
  5
117
  8
0
  0
POLYLINE
  5
4A
  8
0
 66
     1
 10
0.0
 20
0.0
 30
0.0
  0
VERTEX
  5
118
  8
0
 10
381.427806
 20
251.364895
 30
0.0
 42
0.394789
  0
VERTEX
  5
119
  8
0
 10
376.676359
 20
244.685098
 30
0.0
 42
-0.494907
  0
VERTEX
  5
11A
  8
0
 10
332.82458
 20
200.833319
 30
0.0
 42
0.394893
  0
VERTEX
  5
11B
  8
0
 10
326.144353
 20
196.079755
 30
0.0
  0
VERTEX
  5
11C
  8
0
 10
326.02458
 20
196.114601
 30
0.0
 42
-1.715898
  0
VERTEX
  5
11D
  8
0
 10
381.395077
 20
251.485098
 30
0.0
  0
VERTEX
  5
11E
  8
0
 10
381.427806
 20
251.364895
 30
0.0
  0
VERTEX
  5
11F
  8
0
 10
379.938722
 20
244.218866
 30
0.0
  0
SEQEND
  5
120
  8
0
  0
POLYLINE
  5
4B
  8
0
 66
     1
 10
0.0
 20
0.0
 30
0.0
  0
VERTEX
  5
121
  8
0
 10
427.182951
 20
239.485098
 30
0.0
  0
VERTEX
  5
122
  8
0
 10
427.182951
 20
218.185098
 30
0.0
 42
1.0
  0
VERTEX
  5
123
  8
0
 10
427.182951
 20
260.785098
 30
0.0
 42
1.0
  0
VERTEX
  5
124
  8
0
 10
427.182951
 20
218.185098
 30
0.0
  0
VERTEX
  5
125
  8
0
 10
420.749602
 20
229.603252
 30
0.0
  0
SEQEND
  5
126
  8
0
  0
POLYLINE
  5
4C
  8
0
 66
     1
 10
0.0
 20
0.0
 30
0.0
  0
VERTEX
  5
127
  8
0
 10
470.586176
 20
251.364895
 30
0.0
 42
0.394789
  0
VERTEX
  5
128
  8
0
 10
465.834729
 20
244.685098
 30
0.0
 42
-0.494907
  0
VERTEX
  5
129
  8
0
 10
421.982951
 20
200.833319
 30
0.0
 42
0.394893
  0
VERTEX
  5
12A
  8
0
 10
415.302723
 20
196.079755
 30
0.0
  0
VERTEX
  5
12B
  8
0
 10
415.182951
 20
196.114601
 30
0.0
 42
-1.715898
  0
VERTEX
  5
12C
  8
0
 10
470.553447
 20
251.485098
 30
0.0
  0
VERTEX
  5
12D
  8
0
 10
470.586176
 20
251.364895
 30
0.0
  0
VERTEX
  5
12E
  8
0
 10
469.097092
 20
244.218866
 30
0.0
  0
SEQEND
  5
12F
  8
0
  0
POLYLINE
  5
4D
  8
0
 66
     1
 10
0.0
 20
0.0
 30
0.0
  0
VERTEX
  5
130
  8
0
 10
515.524569
 20
239.485098
 30
0.0
  0
VERTEX
  5
131
  8
0
 10
515.524569
 20
218.185098
 30
0.0
 42
1.0
  0
VERTEX
  5
132
  8
0
 10
515.524569
 20
260.785098
 30
0.0
 42
1.0
  0
VERTEX
  5
133
  8
0
 10
515.524569
 20
218.185098
 30
0.0
  0
VERTEX
  5
134
  8
0
 10
509.091221
 20
229.603252
 30
0.0
  0
SEQEND
  5
135
  8
0
  0
POLYLINE
  5
4E
  8
0
 66
     1
 10
0.0
 20
0.0
 30
0.0
  0
VERTEX
  5
136
  8
0
 10
558.927795
 20
251.364895
 30
0.0
 42
0.394789
  0
VERTEX
  5
137
  8
0
 10
554.176348
 20
244.685098
 30
0.0
 42
-0.494907
  0
VERTEX
  5
138
  8
0
 10
510.324569
 20
200.833319
 30
0.0
 42
0.394893
  0
VERTEX
  5
139
  8
0
 10
503.644342
 20
196.079755
 30
0.0
  0
VERTEX
  5
13A
  8
0
 10
503.524569
 20
196.114601
 30
0.0
 42
-1.715898
  0
VERTEX
  5
13B
  8
0
 10
558.895066
 20
251.485098
 30
0.0
  0
VERTEX
  5
13C
  8
0
 10
558.927795
 20
251.364895
 30
0.0
  0
VERTEX
  5
13D
  8
0
 10
557.438711
 20
244.218866
 30
0.0
  0
SEQEND
  5
13E
  8
0
  0
POLYLINE
  5
4F
  8
0
 66
     1
 10
0.0
 20
0.0
 30
0.0
  0
VERTEX
  5
13F
  8
0
 10
603.676627
 20
239.485098
 30
0.0
  0
VERTEX
  5
140
  8
0
 10
603.676627
 20
218.185098
 30
0.0
 42
1.0
  0
VERTEX
  5
141
  8
0
 10
603.676627
 20
260.785098
 30
0.0
 42
1.0
  0
VERTEX
  5
142
  8
0
 10
603.676627
 20
218.185098
 30
0.0
  0
VERTEX
  5
143
  8
0
 10
597.243279
 20
229.603252
 30
0.0
  0
SEQEND
  5
144
  8
0
  0
POLYLINE
  5
50
  8
0
 66
     1
 10
0.0
 20
0.0
 30
0.0
  0
VERTEX
  5
145
  8
0
 10
647.079853
 20
251.364895
 30
0.0
 42
0.394789
  0
VERTEX
  5
146
  8
0
 10
642.328406
 20
244.685098
 30
0.0
 42
-0.494907
  0
VERTEX
  5
147
  8
0
 10
598.476627
 20
200.833319
 30
0.0
 42
0.394893
  0
VERTEX
  5
148
  8
0
 10
591.7964
 20
196.079755
 30
0.0
  0
VERTEX
  5
149
  8
0
 10
591.676627
 20
196.114601
 30
0.0
 42
-1.715898
  0
VERTEX
  5
14A
  8
0
 10
647.047124
 20
251.485098
 30
0.0
  0
VERTEX
  5
14B
  8
0
 10
647.079853
 20
251.364895
 30
0.0
  0
VERTEX
  5
14C
  8
0
 10
645.590769
 20
244.218866
 30
0.0
  0
SEQEND
  5
14D
  8
0
  0
POLYLINE
  5
51
  8
0
 66
     1
 10
0.0
 20
0.0
 30
0.0
  0
VERTEX
  5
14E
  8
0
 10
692.133777
 20
239.485098
 30
0.0
  0
VERTEX
  5
14F
  8
0
 10
692.133777
 20
218.185098
 30
0.0
 42
1.0
  0
VERTEX
  5
150
  8
0
 10
692.133777
 20
260.785098
 30
0.0
 42
1.0
  0
VERTEX
  5
151
  8
0
 10
692.133777
 20
218.185098
 30
0.0
  0
VERTEX
  5
152
  8
0
 10
685.700429
 20
229.603252
 30
0.0
  0
SEQEND
  5
153
  8
0
  0
POLYLINE
  5
52
  8
0
 66
     1
 10
0.0
 20
0.0
 30
0.0
  0
VERTEX
  5
154
  8
0
 10
735.537002
 20
251.364895
 30
0.0
 42
0.394789
  0
VERTEX
  5
155
  8
0
 10
730.785555
 20
244.685098
 30
0.0
 42
-0.494907
  0
VERTEX
  5
156
  8
0
 10
686.933777
 20
200.833319
 30
0.0
 42
0.394893
  0
VERTEX
  5
157
  8
0
 10
680.253549
 20
196.079755
 30
0.0
  0
VERTEX
  5
158
  8
0
 10
680.133777
 20
196.114601
 30
0.0
 42
-1.715898
  0
VERTEX
  5
159
  8
0
 10
735.504273
 20
251.485098
 30
0.0
  0
VERTEX
  5
15A
  8
0
 10
735.537002
 20
251.364895
 30
0.0
  0
VERTEX
  5
15B
  8
0
 10
734.047918
 20
244.218866
 30
0.0
  0
SEQEND
  5
15C
  8
0
  0
POLYLINE
  5
53
  8
0
 66
     1
 10
0.0
 20
0.0
 30
0.0
  0
VERTEX
  5
15D
  8
0
 10
781.066279
 20
239.485098
 30
0.0
  0
VERTEX
  5
15E
  8
0
 10
781.066279
 20
218.185098
 30
0.0
 42
1.0
  0
VERTEX
  5
15F
  8
0
 10
781.066279
 20
260.785098
 30
0.0
 42
1.0
  0
VERTEX
  5
160
  8
0
 10
781.066279
 20
218.185098
 30
0.0
  0
VERTEX
  5
161
  8
0
 10
774.632931
 20
229.603252
 30
0.0
  0
SEQEND
  5
162
  8
0
  0
POLYLINE
  5
54
  8
0
 66
     1
 10
0.0
 20
0.0
 30
0.0
  0
VERTEX
  5
163
  8
0
 10
824.469505
 20
251.364895
 30
0.0
 42
0.394789
  0
VERTEX
  5
164
  8
0
 10
819.718058
 20
244.685098
 30
0.0
 42
-0.494907
  0
VERTEX
  5
165
  8
0
 10
775.866279
 20
200.833319
 30
0.0
 42
0.394893
  0
VERTEX
  5
166
  8
0
 10
769.186052
 20
196.079755
 30
0.0
  0
VERTEX
  5
167
  8
0
 10
769.066279
 20
196.114601
 30
0.0
 42
-1.715898
  0
VERTEX
  5
168
  8
0
 10
824.436776
 20
251.485098
 30
0.0
  0
VERTEX
  5
169
  8
0
 10
824.469505
 20
251.364895
 30
0.0
  0
VERTEX
  5
16A
  8
0
 10
822.980421
 20
244.218866
 30
0.0
  0
SEQEND
  5
16B
  8
0
  0
POLYLINE
  5
55
  8
0
 66
     1
 10
0.0
 20
0.0
 30
0.0
  0
VERTEX
  5
16C
  8
0
 10
870.130566
 20
239.485098
 30
0.0
  0
VERTEX
  5
16D
  8
0
 10
870.130566
 20
218.185098
 30
0.0
 42
1.0
  0
VERTEX
  5
16E
  8
0
 10
870.130566
 20
260.785098
 30
0.0
 42
1.0
  0
VERTEX
  5
16F
  8
0
 10
870.130566
 20
218.185098
 30
0.0
  0
VERTEX
  5
170
  8
0
 10
863.697218
 20
229.603252
 30
0.0
  0
SEQEND
  5
171
  8
0
  0
POLYLINE
  5
56
  8
0
 66
     1
 10
0.0
 20
0.0
 30
0.0
  0
VERTEX
  5
172
  8
0
 10
913.533792
 20
251.364895
 30
0.0
 42
0.394789
  0
VERTEX
  5
173
  8
0
 10
908.782345
 20
244.685098
 30
0.0
 42
-0.494907
  0
VERTEX
  5
174
  8
0
 10
864.930566
 20
200.833319
 30
0.0
 42
0.394893
  0
VERTEX
  5
175
  8
0
 10
858.250339
 20
196.079755
 30
0.0
  0
VERTEX
  5
176
  8
0
 10
858.130566
 20
196.114601
 30
0.0
 42
-1.715898
  0
VERTEX
  5
177
  8
0
 10
913.501063
 20
251.485098
 30
0.0
  0
VERTEX
  5
178
  8
0
 10
913.533792
 20
251.364895
 30
0.0
  0
VERTEX
  5
179
  8
0
 10
912.044707
 20
244.218866
 30
0.0
  0
SEQEND
  5
17A
  8
0
  0
POLYLINE
  5
57
  8
0
 66
     1
 10
0.0
 20
0.0
 30
0.0
  0
VERTEX
  5
17B
  8
0
 10
959.288936
 20
239.485098
 30
0.0
  0
VERTEX
  5
17C
  8
0
 10
959.288936
 20
218.185098
 30
0.0
 42
1.0
  0
VERTEX
  5
17D
  8
0
 10
959.288936
 20
260.785098
 30
0.0
 42
1.0
  0
VERTEX
  5
17E
  8
0
 10
959.288936
 20
218.185098
 30
0.0
  0
VERTEX
  5
17F
  8
0
 10
952.855588
 20
229.603252
 30
0.0
  0
SEQEND
  5
180
  8
0
  0
POLYLINE
  5
58
  8
0
 66
     1
 10
0.0
 20
0.0
 30
0.0
  0
VERTEX
  5
181
  8
0
 10
1002.692162
 20
251.364895
 30
0.0
 42
0.394789
  0
VERTEX
  5
182
  8
0
 10
997.940715
 20
244.685098
 30
0.0
 42
-0.494907
  0
VERTEX
  5
183
  8
0
 10
954.088936
 20
200.833319
 30
0.0
 42
0.394893
  0
VERTEX
  5
184
  8
0
 10
947.408709
 20
196.079755
 30
0.0
  0
VERTEX
  5
185
  8
0
 10
947.288936
 20
196.114601
 30
0.0
 42
-1.715898
  0
VERTEX
  5
186
  8
0
 10
1002.659433
 20
251.485098
 30
0.0
  0
VERTEX
  5
187
  8
0
 10
1002.692162
 20
251.364895
 30
0.0
  0
VERTEX
  5
188
  8
0
 10
1001.203077
 20
244.218866
 30
0.0
  0
SEQEND
  5
189
  8
0
  0
POLYLINE
  5
59
  8
0
 66
     1
 10
0.0
 20
0.0
 30
0.0
  0
VERTEX
  5
18A
  8
0
 10
1047.630555
 20
239.485098
 30
0.0
  0
VERTEX
  5
18B
  8
0
 10
1047.630555
 20
218.185098
 30
0.0
 42
1.0
  0
VERTEX
  5
18C
  8
0
 10
1047.630555
 20
260.785098
 30
0.0
 42
1.0
  0
VERTEX
  5
18D
  8
0
 10
1047.630555
 20
218.185098
 30
0.0
  0
VERTEX
  5
18E
  8
0
 10
1041.197207
 20
229.603252
 30
0.0
  0
SEQEND
  5
18F
  8
0
  0
POLYLINE
  5
5A
  8
0
 66
     1
 10
0.0
 20
0.0
 30
0.0
  0
VERTEX
  5
190
  8
0
 10
1091.033781
 20
251.364895
 30
0.0
 42
0.394789
  0
VERTEX
  5
191
  8
0
 10
1086.282334
 20
244.685098
 30
0.0
 42
-0.494907
  0
VERTEX
  5
192
  8
0
 10
1042.430555
 20
200.833319
 30
0.0
 42
0.394893
  0
VERTEX
  5
193
  8
0
 10
1035.750328
 20
196.079755
 30
0.0
  0
VERTEX
  5
194
  8
0
 10
1035.630555
 20
196.114601
 30
0.0
 42
-1.715898
  0
VERTEX
  5
195
  8
0
 10
1091.001052
 20
251.485098
 30
0.0
  0
VERTEX
  5
196
  8
0
 10
1091.033781
 20
251.364895
 30
0.0
  0
VERTEX
  5
197
  8
0
 10
1089.544696
 20
244.218866
 30
0.0
  0
SEQEND
  5
198
  8
0
  0
POLYLINE
  5
5B
  8
0
 66
     1
 10
0.0
 20
0.0
 30
0.0
  0
VERTEX
  5
199
  8
0
 10
1137.418455
 20
239.485098
 30
0.0
  0
VERTEX
  5
19A
  8
0
 10
1137.418455
 20
218.185098
 30
0.0
 42
1.0
  0
VERTEX
  5
19B
  8
0
 10
1137.418455
 20
260.785098
 30
0.0
 42
1.0
  0
VERTEX
  5
19C
  8
0
 10
1137.418455
 20
218.185098
 30
0.0
  0
VERTEX
  5
19D
  8
0
 10
1130.985106
 20
229.603252
 30
0.0
  0
SEQEND
  5
19E
  8
0
  0
POLYLINE
  5
5C
  8
0
 66
     1
 10
0.0
 20
0.0
 30
0.0
  0
VERTEX
  5
19F
  8
0
 10
1180.82168
 20
251.364895
 30
0.0
 42
0.394789
  0
VERTEX
  5
1A0
  8
0
 10
1176.070233
 20
244.685098
 30
0.0
 42
-0.494907
  0
VERTEX
  5
1A1
  8
0
 10
1132.218455
 20
200.833319
 30
0.0
 42
0.394893
  0
VERTEX
  5
1A2
  8
0
 10
1125.538227
 20
196.079755
 30
0.0
  0
VERTEX
  5
1A3
  8
0
 10
1125.418455
 20
196.114601
 30
0.0
 42
-1.715898
  0
VERTEX
  5
1A4
  8
0
 10
1180.788951
 20
251.485098
 30
0.0
  0
VERTEX
  5
1A5
  8
0
 10
1180.82168
 20
251.364895
 30
0.0
  0
VERTEX
  5
1A6
  8
0
 10
1179.332596
 20
244.218866
 30
0.0
  0
SEQEND
  5
1A7
  8
0
  0
POLYLINE
  5
5D
  8
0
 66
     1
 10
0.0
 20
0.0
 30
0.0
  0
VERTEX
  5
1A8
  8
0
 10
1136.16021
 20
148.074455
 30
0.0
  0
VERTEX
  5
1A9
  8
0
 10
1136.16021
 20
147.974455
 30
0.0
  0
SEQEND
  5
1AA
  8
0
  0
ENDSEC
  0
EOF
