  0
SECTION
  2
HEADER
  9
$ACADVER
  1
AC1009
  9
$INSBASE
 10
0.0
 20
0.0
 30
0.0
  9
$EXTMIN
 10
-4506.68080136973
 20
-1871.505711406485
 30
0.0
  9
$EXTMAX
 10
1513.3191986302679
 20
722.94387562559371
 30
0.0
  9
$LIMMIN
 10
0.0
 20
0.0
  9
$LIMMAX
 10
420.0
 20
297.0
  9
$ORTHOMODE
 70
     1
  9
$REGENMODE
 70
     1
  9
$FILLMODE
 70
     1
  9
$QTEXTMODE
 70
     0
  9
$MIRRTEXT
 70
     0
  9
$DRAGMODE
 70
     2
  9
$LTSCALE
 40
1.0
  9
$OSMODE
 70
   319
  9
$ATTMODE
 70
     1
  9
$TEXTSIZE
 40
2.5
  9
$TRACEWID
 40
1.0
  9
$TEXTSTYLE
  7
STANDARD
  9
$CLAYER
  8
0
  9
$CELTYPE
  6
BYLAYER
  9
$CECOLOR
 62
   256
  9
$DIMSCALE
 40
1.0
  9
$DIMASZ
 40
2.5
  9
$DIMEXO
 40
0.625
  9
$DIMDLI
 40
3.75
  9
$DIMRND
 40
0.0
  9
$DIMDLE
 40
0.0
  9
$DIMEXE
 40
1.25
  9
$DIMTP
 40
0.0
  9
$DIMTM
 40
0.0
  9
$DIMTXT
 40
2.5
  9
$DIMCEN
 40
2.5
  9
$DIMTSZ
 40
0.0
  9
$DIMTOL
 70
     0
  9
$DIMLIM
 70
     0
  9
$DIMTIH
 70
     0
  9
$DIMTOH
 70
     0
  9
$DIMSE1
 70
     0
  9
$DIMSE2
 70
     0
  9
$DIMTAD
 70
     1
  9
$DIMZIN
 70
     8
  9
$DIMBLK
  1

  9
$DIMASO
 70
     1
  9
$DIMSHO
 70
     1
  9
$DIMPOST
  1

  9
$DIMAPOST
  1

  9
$DIMALT
 70
     0
  9
$DIMALTD
 70
     3
  9
$DIMALTF
 40
0.03937007874016
  9
$DIMLFAC
 40
1.0
  9
$DIMTOFL
 70
     1
  9
$DIMTVP
 40
0.0
  9
$DIMTIX
 70
     0
  9
$DIMSOXD
 70
     0
  9
$DIMSAH
 70
     0
  9
$DIMBLK1
  1

  9
$DIMBLK2
  1

  9
$DIMSTYLE
  2
ISO-25
  9
$DIMCLRD
 70
     0
  9
$DIMCLRE
 70
     0
  9
$DIMCLRT
 70
     0
  9
$DIMTFAC
 40
1.0
  9
$DIMGAP
 40
0.625
  9
$LUNITS
 70
     2
  9
$LUPREC
 70
     4
  9
$SKETCHINC
 40
1.0
  9
$FILLETRAD
 40
0.0
  9
$AUNITS
 70
     0
  9
$AUPREC
 70
     0
  9
$MENU
  1
.
  9
$ELEVATION
 40
0.0
  9
$PELEVATION
 40
0.0
  9
$THICKNESS
 40
0.0
  9
$LIMCHECK
 70
     0
  9
$BLIPMODE
 70
     0
  9
$CHAMFERA
 40
0.0
  9
$CHAMFERB
 40
0.0
  9
$SKPOLY
 70
     0
  9
$TDCREATE
 40
2455196.6233147918
  9
$TDUPDATE
 40
2455209.5690939808
  9
$TDINDWG
 40
0.1044471875
  9
$TDUSRTIMER
 40
0.104403831
  9
$USRTIMER
 70
     1
  9
$ANGBASE
 50
0.0
  9
$ANGDIR
 70
     0
  9
$PDMODE
 70
     0
  9
$PDSIZE
 40
0.0
  9
$PLINEWID
 40
0.0
  9
$COORDS
 70
     1
  9
$SPLFRAME
 70
     0
  9
$SPLINETYPE
 70
     6
  9
$SPLINESEGS
 70
     8
  9
$ATTDIA
 70
     0
  9
$ATTREQ
 70
     1
  9
$HANDLING
 70
     1
  9
$HANDSEED
  5
AAC
  9
$SURFTAB1
 70
     6
  9
$SURFTAB2
 70
     6
  9
$SURFTYPE
 70
     6
  9
$SURFU
 70
     6
  9
$SURFV
 70
     6
  9
$UCSNAME
  2

  9
$UCSORG
 10
0.0
 20
0.0
 30
0.0
  9
$UCSXDIR
 10
1.0
 20
0.0
 30
0.0
  9
$UCSYDIR
 10
0.0
 20
1.0
 30
0.0
  9
$PUCSNAME
  2

  9
$PUCSORG
 10
0.0
 20
0.0
 30
0.0
  9
$PUCSXDIR
 10
1.0
 20
0.0
 30
0.0
  9
$PUCSYDIR
 10
0.0
 20
1.0
 30
0.0
  9
$USERI1
 70
     0
  9
$USERI2
 70
     0
  9
$USERI3
 70
     0
  9
$USERI4
 70
     0
  9
$USERI5
 70
     0
  9
$USERR1
 40
0.0
  9
$USERR2
 40
0.0
  9
$USERR3
 40
0.0
  9
$USERR4
 40
0.0
  9
$USERR5
 40
0.0
  9
$WORLDVIEW
 70
     1
  9
$SHADEDGE
 70
     3
  9
$SHADEDIF
 70
    70
  9
$TILEMODE
 70
     1
  9
$MAXACTVP
 70
    64
  9
$PLIMCHECK
 70
     0
  9
$PEXTMIN
 10
0.0
 20
0.0
 30
0.0
  9
$PEXTMAX
 10
0.0
 20
0.0
 30
0.0
  9
$PLIMMIN
 10
0.0
 20
0.0
  9
$PLIMMAX
 10
12.0
 20
9.0
  9
$UNITMODE
 70
     0
  9
$VISRETAIN
 70
     1
  9
$PLINEGEN
 70
     0
  9
$PSLTSCALE
 70
     1
  0
ENDSEC
  0
SECTION
  2
TABLES
  0
TABLE
  2
VPORT
 70
     1
  0
VPORT
  2
*ACTIVE
 70
     0
 10
0.0
 20
0.0
 11
1.0
 21
1.0
 12
-298.79644286842267
 22
-26.593917622063831
 13
0.0
 23
0.0
 14
10.0
 24
10.0
 15
10.0
 25
10.0
 16
0.0
 26
0.0
 36
1.0
 17
0.0
 27
0.0
 37
0.0
 40
2579.5284874098902
 41
1.7250470809792839
 42
50.0
 43
0.0
 44
0.0
 50
0.0
 51
0.0
 71
     0
 72
  1000
 73
     1
 74
     3
 75
     0
 76
     0
 77
     0
 78
     0
  0
ENDTAB
  0
TABLE
  2
LTYPE
 70
     2
  0
LTYPE
  2
CONTINUOUS
 70
     0
  3
Solid line
 72
    65
 73
     0
 40
0.0
  0
ENDTAB
  0
TABLE
  2
LAYER
 70
     2
  0
LAYER
  2
0
 70
     0
 62
     7
  6
CONTINUOUS
  0
LAYER
  2
DEFPOINTS
 70
     0
 62
     7
  6
CONTINUOUS
  0
ENDTAB
  0
TABLE
  2
STYLE
 70
     1
  0
STYLE
  2
STANDARD
 70
     0
 40
0.0
 41
1.0
 50
0.0
 71
     0
 42
2.5
  3
txt
  4

  0
ENDTAB
  0
TABLE
  2
VIEW
 70
     0
  0
ENDTAB
  0
TABLE
  2
UCS
 70
     0
  0
ENDTAB
  0
TABLE
  2
APPID
 70
     3
  0
APPID
  2
ACAD
 70
     0
  0
APPID
  2
ACAD_PSEXT
 70
     0
  0
APPID
  2
ACAD_EXEMPT_FROM_CAD_STANDARDS
 70
     0
  0
ENDTAB
  0
TABLE
  2
DIMSTYLE
 70
     2
  0
DIMSTYLE
  2
ISO-25
 70
     0
  3

  4

  5

  6

  7

 40
1.0
 41
2.5
 42
0.625
 43
3.75
 44
1.25
 45
0.0
 46
0.0
 47
0.0
 48
0.0
140
2.5
141
2.5
142
0.0
143
0.03937007874016
144
1.0
145
0.0
146
1.0
147
0.625
 71
     0
 72
     0
 73
     0
 74
     0
 75
     0
 76
     0
 77
     1
 78
     8
170
     0
171
     3
172
     1
173
     0
174
     0
175
     0
176
     0
177
     0
178
     0
  0
ENDTAB
  0
ENDSEC
  0
SECTION
  2
BLOCKS
  0
BLOCK
  8
0
  2
$MODEL_SPACE
 70
     0
 10
0.0
 20
0.0
 30
0.0
  3
$MODEL_SPACE
  1

  0
ENDBLK
  5
952
  8
0
  0
BLOCK
 67
     1
  8
0
  2
$PAPER_SPACE
 70
     0
 10
0.0
 20
0.0
 30
0.0
  3
$PAPER_SPACE
  1

  0
ENDBLK
  5
94E
 67
     1
  8
0
  0
BLOCK
  8
0
  2
*D2
 70
     1
 10
0.0
 20
0.0
 30
0.0
  3
*D2
  1

  0
LINE
  5
7F8
  8
0
 62
     0
 10
-49.519313574903443
 20
-1137.652239721242
 30
0.0
 11
-5.9258324373331561
 21
-1238.531286653666
 31
0.0
  0
LINE
  5
7F9
  8
0
 62
     0
 10
-134.51926384714389
 20
-1174.383789449003
 30
0.0
 11
-90.925782709573625
 21
-1275.262836381426
 31
0.0
  0
LINE
  5
7FA
  8
0
 62
     0
 10
-8.7165751722372402
 20
-1238.3755465253109
 30
0.0
 11
-89.126744965947054
 21
-1273.1236862705159
 31
0.0
  0
SOLID
  5
7FB
  8
0
 62
     0
 10
-8.8818593374501784
 20
-1237.993064818766
 30
0.0
 11
-8.5512910070243038
 21
-1238.758028231855
 31
0.0
 12
-6.421684932971913
 22
-1237.3838415340331
 32
0.0
 13
-6.421684932971913
 23
-1237.3838415340331
 33
0.0
  0
SOLID
  5
7FC
  8
0
 62
     0
 10
-89.292029131159978
 20
-1272.7412045639719
 30
0.0
 11
-88.961460800734102
 21
-1273.5061679770599
 31
0.0
 12
-91.421635205212397
 22
-1274.1153912617931
 32
0.0
 13
-91.421635205212397
 23
-1274.1153912617931
 33
0.0
  0
INSERT
  5
7FD
  8
0
  2
*U3
 10
0.0
 20
0.0
 30
0.0
  0
POINT
  5
7FE
  8
DEFPOINTS
 62
     0
 10
-49.767239822722793
 20
-1137.078517161427
 30
0.0
  0
POINT
  5
7FF
  8
DEFPOINTS
 62
     0
 10
-134.76719009496321
 20
-1173.8100668891871
 30
0.0
  0
POINT
  5
800
  8
DEFPOINTS
 62
     0
 10
-91.421635205212397
 20
-1274.1153912617931
 30
0.0
  0
ENDBLK
  5
802
  8
0
  0
BLOCK
  8
0
  2
*U3
 70
     1
 10
0.0
 20
0.0
 30
0.0
  3
*U3
  1

  0
TEXT
  5
889
  8
0
 62
     0
 10
-54.906811915074769
 20
-1257.65515631629
 30
0.0
 40
2.5
  1
92.597
 50
23.370917240818901
  0
ENDBLK
  5
88B
  8
0
  0
ENDSEC
  0
SECTION
  2
ENTITIES
  0
LINE
  5
12D
  8
0
 10
1513.3191986302679
 20
722.94387562559371
 30
0.0
 11
1513.3191986302679
 21
-537.05612437440595
 31
0.0
  0
LINE
  5
12E
  8
0
 10
1513.3191986302679
 20
-537.05612437440595
 30
0.0
 11
-4506.68080136973
 21
-537.05612437440595
 31
0.0
  0
LINE
  5
12F
  8
0
 10
-4506.68080136973
 20
-537.05612437440595
 30
0.0
 11
-4506.68080136973
 21
722.94387562559371
 31
0.0
  0
LINE
  5
130
  8
0
 10
-4506.68080136973
 20
722.94387562559371
 30
0.0
 11
1513.3191986302679
 21
722.94387562559371
 31
0.0
  0
LINE
  5
2AC
  8
0
 10
1464.8050530405881
 20
-68.269671141641084
 30
0.0
 11
1507.928703312828
 21
-111.393321413881
 31
0.0
  0
LINE
  5
803
  8
0
 10
657.9408487327745
 20
-68.26967114164087
 30
0.0
 11
614.81719846053431
 21
-111.3933214138808
 31
0.0
  0
LINE
  5
815
  8
0
 10
1464.8050530405869
 20
446.97897951723871
 30
0.0
 11
1507.9287033128271
 21
403.85532924499881
 31
0.0
  0
LINE
  5
826
  8
0
 10
657.94084873277325
 20
446.97897951723911
 30
0.0
 11
614.81719846053306
 21
403.8553292449991
 31
0.0
  0
LINE
  5
98E
  8
0
 10
877.41719846053195
 20
592.89869165025607
 30
0.0
 11
872.4171984605332
 21
592.89869165025607
 31
0.0
  0
LINE
  5
98F
  8
0
 10
872.4171984605332
 20
592.89869165025607
 30
0.0
 11
872.4171984605332
 21
506.0602140191711
 31
0.0
  0
LINE
  5
990
  8
0
 10
872.4171984605332
 20
506.0602140191711
 30
0.0
 11
841.65567609161701
 21
475.29869165025622
 31
0.0
  0
LINE
  5
991
  8
0
 10
841.65567609161701
 20
475.29869165025622
 30
0.0
 11
650.57872082944709
 21
475.29869165025622
 31
0.0
  0
LINE
  5
992
  8
0
 10
650.57872082944709
 20
475.29869165025622
 30
0.0
 11
619.81719846053306
 21
506.0602140191711
 31
0.0
  0
LINE
  5
993
  8
0
 10
619.81719846053306
 20
506.0602140191711
 30
0.0
 11
619.81719846053306
 21
592.89869165025607
 31
0.0
  0
LINE
  5
994
  8
0
 10
619.81719846053306
 20
592.89869165025607
 30
0.0
 11
872.4171984605332
 21
592.89869165025607
 31
0.0
  0
LINE
  5
995
  8
0
 10
872.4171984605332
 20
592.89869165025607
 30
0.0
 11
872.4171984605332
 21
679.73716928134104
 31
0.0
  0
LINE
  5
996
  8
0
 10
872.4171984605332
 20
679.73716928134104
 30
0.0
 11
841.65567609161701
 21
710.49869165025621
 31
0.0
  0
LINE
  5
997
  8
0
 10
841.65567609161701
 20
710.49869165025621
 30
0.0
 11
650.57872082944709
 21
710.49869165025621
 31
0.0
  0
LINE
  5
998
  8
0
 10
650.57872082944709
 20
710.49869165025621
 30
0.0
 11
619.81719846053306
 21
679.73716928134104
 31
0.0
  0
LINE
  5
999
  8
0
 10
619.81719846053306
 20
679.73716928134104
 30
0.0
 11
619.81719846053306
 21
592.89869165025607
 31
0.0
  0
LINE
  5
99A
  8
0
 10
619.81719846053306
 20
592.89869165025607
 30
0.0
 11
614.81719846053306
 21
592.89869165025607
 31
0.0
  0
LINE
  5
99B
  8
0
 10
881.59750696793913
 20
623.84440706675832
 30
0.0
 11
881.59750696793913
 21
616.84440706675821
 31
0.0
  0
LINE
  5
99C
  8
0
 10
881.59750696793913
 20
616.84440706675821
 30
0.0
 11
1018.086048516046
 21
616.84440706675821
 31
0.0
  0
LINE
  5
99D
  8
0
 10
1018.086048516046
 20
616.84440706675821
 30
0.0
 11
1154.197506967939
 21
576.51508604397486
 31
0.0
  0
LINE
  5
99E
  8
0
 10
1154.197506967939
 20
576.51508604397486
 30
0.0
 11
1154.197506967939
 21
534.57372808954119
 31
0.0
  0
LINE
  5
99F
  8
0
 10
1154.197506967939
 20
534.57372808954119
 30
0.0
 11
1018.086048516046
 21
494.24440706675819
 31
0.0
  0
LINE
  5
9A0
  8
0
 10
1018.086048516046
 20
494.24440706675819
 30
0.0
 11
881.59750696793844
 21
494.24440706675853
 31
0.0
  0
LINE
  5
9A1
  8
0
 10
881.59750696793844
 20
494.24440706675853
 30
0.0
 11
881.59750696793913
 21
616.84440706675821
 31
0.0
  0
LINE
  5
9A2
  8
0
 10
881.59750696793913
 20
616.84440706675821
 30
0.0
 11
876.59750696793901
 21
616.84440706675821
 31
0.0
  0
LINE
  5
9A3
  8
0
 10
971.33903180606796
 20
682.89099428613986
 30
0.0
 11
971.33903180606796
 21
675.89099428613986
 31
0.0
  0
LINE
  5
9A4
  8
0
 10
971.33903180606796
 20
675.89099428613986
 30
0.0
 11
1107.4504902579599
 21
716.22031530892309
 31
0.0
  0
LINE
  5
9A5
  8
0
 10
1107.4504902579599
 20
716.22031530892309
 30
0.0
 11
1243.9390318060689
 21
716.22031530892309
 31
0.0
  0
LINE
  5
9A6
  8
0
 10
1243.9390318060689
 20
716.22031530892309
 30
0.0
 11
1243.9390318060689
 21
593.62031530892364
 31
0.0
  0
LINE
  5
9A7
  8
0
 10
1243.9390318060689
 20
593.62031530892364
 30
0.0
 11
1107.4504902579599
 21
593.62031530892364
 31
0.0
  0
LINE
  5
9A8
  8
0
 10
1107.4504902579599
 20
593.62031530892364
 30
0.0
 11
971.33903180606796
 21
633.94963633170642
 31
0.0
  0
LINE
  5
9A9
  8
0
 10
971.33903180606796
 20
633.94963633170642
 30
0.0
 11
971.33903180606796
 21
675.89099428613986
 31
0.0
  0
LINE
  5
9AA
  8
0
 10
971.33903180606796
 20
675.89099428613986
 30
0.0
 11
964.33903180606796
 21
675.89099428613986
 31
0.0
  0
LINE
  5
9AB
  8
0
 10
1508.8142777662231
 20
591.19817164302117
 30
0.0
 11
1503.814277766224
 21
591.19817164302117
 31
0.0
  0
LINE
  5
9AC
  8
0
 10
1503.814277766224
 20
591.19817164302117
 30
0.0
 11
1503.814277766224
 21
504.35969401193631
 31
0.0
  0
LINE
  5
9AD
  8
0
 10
1503.814277766224
 20
504.35969401193631
 30
0.0
 11
1473.0527553973079
 21
473.59817164302149
 31
0.0
  0
LINE
  5
9AE
  8
0
 10
1473.0527553973079
 20
473.59817164302149
 30
0.0
 11
1281.9758001351379
 21
473.59817164302149
 31
0.0
  0
LINE
  5
9AF
  8
0
 10
1281.9758001351379
 20
473.59817164302149
 30
0.0
 11
1251.2142777662241
 21
504.35969401193631
 31
0.0
  0
LINE
  5
9B0
  8
0
 10
1251.2142777662241
 20
504.35969401193631
 30
0.0
 11
1251.2142777662241
 21
591.19817164302117
 31
0.0
  0
LINE
  5
9B1
  8
0
 10
1251.2142777662241
 20
591.19817164302117
 30
0.0
 11
1503.814277766224
 21
591.19817164302117
 31
0.0
  0
LINE
  5
9B2
  8
0
 10
1503.814277766224
 20
591.19817164302117
 30
0.0
 11
1503.814277766224
 21
678.03664927410614
 31
0.0
  0
LINE
  5
9B3
  8
0
 10
1503.814277766224
 20
678.03664927410614
 30
0.0
 11
1473.0527553973079
 21
708.79817164302119
 31
0.0
  0
LINE
  5
9B4
  8
0
 10
1473.0527553973079
 20
708.79817164302119
 30
0.0
 11
1281.9758001351379
 21
708.79817164302119
 31
0.0
  0
LINE
  5
9B5
  8
0
 10
1281.9758001351379
 20
708.79817164302119
 30
0.0
 11
1251.2142777662241
 21
678.03664927410614
 31
0.0
  0
LINE
  5
9B6
  8
0
 10
1251.2142777662241
 20
678.03664927410614
 30
0.0
 11
1251.2142777662241
 21
591.19817164302117
 31
0.0
  0
LINE
  5
9B7
  8
0
 10
1251.2142777662241
 20
591.19817164302117
 30
0.0
 11
1246.2142777662241
 21
591.19817164302117
 31
0.0
  0
LINE
  5
9B8
  8
0
 10
1061.37295088668
 20
486.73412640897578
 30
0.0
 11
1061.37295088668
 21
471.73412640897601
 31
0.0
  0
LINE
  5
9B9
  8
0
 10
1061.37295088668
 20
471.73412640897601
 30
0.0
 11
1086.626385076622
 21
493.44117694335398
 31
0.0
  0
LINE
  5
9BA
  8
0
 10
1086.626385076622
 20
493.44117694335398
 30
0.0
 11
1464.8050530405869
 21
446.97897951723871
 31
0.0
  0
LINE
  5
9BB
  8
0
 10
1464.8050530405869
 20
446.97897951723871
 30
0.0
 11
1507.9287033128271
 21
403.85532924499881
 31
0.0
  0
LINE
  5
9BC
  8
0
 10
1507.9287033128271
 20
403.85532924499881
 30
0.0
 11
1507.9287033128271
 21
72.778373982828938
 31
0.0
  0
LINE
  5
9BD
  8
0
 10
1507.9287033128271
 20
72.778373982828938
 30
0.0
 11
1464.8050530405869
 21
29.654723710589
 31
0.0
  0
LINE
  5
9BE
  8
0
 10
1464.8050530405869
 20
29.654723710589
 30
0.0
 11
1086.626385076624
 21
-16.80747371552593
 31
0.0
  0
LINE
  5
9BF
  8
0
 10
1086.626385076624
 20
-16.80747371552593
 30
0.0
 11
1061.37295088668
 21
4.8995768188519833
 31
0.0
  0
LINE
  5
9C0
  8
0
 10
1061.37295088668
 20
4.8995768188519833
 30
0.0
 11
1294.790225681742
 21
238.316851613914
 31
0.0
  0
LINE
  5
9C1
  8
0
 10
1294.790225681742
 20
238.316851613914
 30
0.0
 11
1061.37295088668
 21
471.73412640897601
 31
0.0
  0
LINE
  5
9C2
  8
0
 10
1061.37295088668
 20
471.73412640897601
 30
0.0
 11
827.95567609161765
 21
238.316851613914
 31
0.0
  0
LINE
  5
9C3
  8
0
 10
827.95567609161765
 20
238.316851613914
 30
0.0
 11
1061.37295088668
 21
4.8995768188519833
 31
0.0
  0
LINE
  5
9C4
  8
0
 10
1061.37295088668
 20
4.8995768188519833
 30
0.0
 11
1036.1195166967359
 21
-16.80747371552593
 31
0.0
  0
LINE
  5
9C5
  8
0
 10
1036.1195166967359
 20
-16.80747371552593
 30
0.0
 11
657.94084873277325
 21
29.65472371058922
 31
0.0
  0
LINE
  5
9C6
  8
0
 10
657.94084873277325
 20
29.65472371058922
 30
0.0
 11
614.81719846053272
 21
72.778373982829194
 31
0.0
  0
LINE
  5
9C7
  8
0
 10
614.81719846053272
 20
72.778373982829194
 30
0.0
 11
614.81719846053306
 21
403.8553292449991
 31
0.0
  0
LINE
  5
9C8
  8
0
 10
614.81719846053306
 20
403.8553292449991
 30
0.0
 11
657.94084873277325
 21
446.97897951723911
 31
0.0
  0
LINE
  5
9C9
  8
0
 10
657.94084873277325
 20
446.97897951723911
 30
0.0
 11
1036.119516696737
 21
493.44117694335398
 31
0.0
  0
LINE
  5
9CA
  8
0
 10
1036.119516696737
 20
493.44117694335398
 30
0.0
 11
1061.37295088668
 21
471.73412640897601
 31
0.0
  0
LINE
  5
9CB
  8
0
 10
1061.37295088668
 20
471.73412640897601
 30
0.0
 11
1060.903071738978
 21
486.78917763406082
 31
0.0
  0
LINE
  5
9CC
  8
0
 10
707.31714873277338
 20
367.1237795172392
 30
0.0
 11
722.3171487327736
 21
367.1237795172392
 31
0.0
  0
ARC
  5
9CD
  8
0
 10
699.8171487327736
 20
367.1237795172392
 30
0.0
 40
22.5
 50
0.0
 51
180.0
  0
ARC
  5
9CE
  8
0
 10
699.8171487327736
 20
367.1237795172392
 30
0.0
 40
22.50000000000011
 50
180.0
 51
0.0
  0
LINE
  5
9CF
  8
0
 10
722.3171487327736
 20
367.1237795172392
 30
0.0
 11
712.66151670131285
 21
361.8541713654854
 31
0.0
  0
LINE
  5
9D0
  8
0
 10
707.31714873277338
 20
109.50992371058921
 30
0.0
 11
722.3171487327736
 21
109.50992371058921
 31
0.0
  0
ARC
  5
9D1
  8
0
 10
699.8171487327736
 20
109.50992371058921
 30
0.0
 40
22.5
 50
180.0
 51
0.0
  0
ARC
  5
9D2
  8
0
 10
699.8171487327736
 20
109.50992371058921
 30
0.0
 40
22.50000000000011
 50
0.0
 51
180.0
  0
LINE
  5
9D3
  8
0
 10
722.3171487327736
 20
109.50992371058921
 30
0.0
 11
712.66151670131285
 21
114.77953186234301
 31
0.0
  0
LINE
  5
9D4
  8
0
 10
1415.428753040587
 20
367.12377951723892
 30
0.0
 11
1400.428753040587
 21
367.12377951723892
 31
0.0
  0
ARC
  5
9D5
  8
0
 10
1422.928753040587
 20
367.12377951723892
 30
0.0
 40
22.5
 50
0.0
 51
180.0
  0
ARC
  5
9D6
  8
0
 10
1422.928753040587
 20
367.12377951723892
 30
0.0
 40
22.5
 50
180.0
 51
0.0
  0
LINE
  5
9D7
  8
0
 10
1400.428753040587
 20
367.12377951723892
 30
0.0
 11
1410.0843850720471
 21
361.85417136548517
 31
0.0
  0
LINE
  5
9D8
  8
0
 10
1415.428753040587
 20
109.50992371058879
 30
0.0
 11
1400.428753040587
 21
109.50992371058879
 31
0.0
  0
ARC
  5
9D9
  8
0
 10
1422.928753040587
 20
109.50992371058879
 30
0.0
 40
22.5
 50
180.0
 51
0.0
  0
ARC
  5
9DA
  8
0
 10
1422.928753040587
 20
109.50992371058879
 30
0.0
 40
22.5
 50
0.0
 51
180.0
  0
LINE
  5
9DB
  8
0
 10
1400.428753040587
 20
109.50992371058879
 30
0.0
 11
1410.0843850720471
 21
114.77953186234269
 31
0.0
  0
LINE
  5
9DC
  8
0
 10
1061.3729508866811
 20
-28.514524249904071
 30
0.0
 11
1061.3729508866811
 21
-43.514524249904071
 31
0.0
  0
LINE
  5
9DD
  8
0
 10
1061.3729508866811
 20
-43.514524249904071
 30
0.0
 11
1086.626385076624
 21
-21.80747371552593
 31
0.0
  0
LINE
  5
9DE
  8
0
 10
1086.626385076624
 20
-21.80747371552593
 30
0.0
 11
1464.8050530405881
 21
-68.269671141641084
 31
0.0
  0
LINE
  5
9DF
  8
0
 10
1464.8050530405881
 20
-68.269671141641084
 30
0.0
 11
1507.928703312828
 21
-111.393321413881
 31
0.0
  0
LINE
  5
9E0
  8
0
 10
1507.928703312828
 20
-111.393321413881
 30
0.0
 11
1507.928703312828
 21
-442.47027667605101
 31
0.0
  0
LINE
  5
9E1
  8
0
 10
1507.928703312828
 20
-442.47027667605101
 30
0.0
 11
1464.8050530405881
 21
-485.59392694829091
 31
0.0
  0
LINE
  5
9E2
  8
0
 10
1464.8050530405881
 20
-485.59392694829091
 30
0.0
 11
1086.626385076625
 21
-532.05612437440595
 31
0.0
  0
LINE
  5
9E3
  8
0
 10
1086.626385076625
 20
-532.05612437440595
 30
0.0
 11
1061.3729508866811
 21
-510.34907384002798
 31
0.0
  0
LINE
  5
9E4
  8
0
 10
1061.3729508866811
 20
-510.34907384002798
 30
0.0
 11
1294.7902256817431
 21
-276.931799044966
 31
0.0
  0
LINE
  5
9E5
  8
0
 10
1294.7902256817431
 20
-276.931799044966
 30
0.0
 11
1061.3729508866811
 21
-43.514524249904071
 31
0.0
  0
LINE
  5
9E6
  8
0
 10
1061.3729508866811
 20
-43.514524249904071
 30
0.0
 11
827.9556760916189
 21
-276.931799044966
 31
0.0
  0
LINE
  5
9E7
  8
0
 10
827.9556760916189
 20
-276.931799044966
 30
0.0
 11
1061.3729508866811
 21
-510.34907384002798
 31
0.0
  0
LINE
  5
9E8
  8
0
 10
1061.3729508866811
 20
-510.34907384002798
 30
0.0
 11
1036.119516696737
 21
-532.05612437440595
 31
0.0
  0
LINE
  5
9E9
  8
0
 10
1036.119516696737
 20
-532.05612437440595
 30
0.0
 11
657.9408487327745
 21
-485.5939269482908
 31
0.0
  0
LINE
  5
9EA
  8
0
 10
657.9408487327745
 20
-485.5939269482908
 30
0.0
 11
614.81719846053386
 21
-442.47027667605079
 31
0.0
  0
LINE
  5
9EB
  8
0
 10
614.81719846053386
 20
-442.47027667605079
 30
0.0
 11
614.81719846053431
 21
-111.3933214138808
 31
0.0
  0
LINE
  5
9EC
  8
0
 10
614.81719846053431
 20
-111.3933214138808
 30
0.0
 11
657.9408487327745
 21
-68.26967114164087
 31
0.0
  0
LINE
  5
9ED
  8
0
 10
657.9408487327745
 20
-68.26967114164087
 30
0.0
 11
1036.1195166967379
 21
-21.80747371552593
 31
0.0
  0
LINE
  5
9EE
  8
0
 10
1036.1195166967379
 20
-21.80747371552593
 30
0.0
 11
1061.3729508866811
 21
-43.514524249904071
 31
0.0
  0
LINE
  5
9EF
  8
0
 10
1061.3729508866811
 20
-43.514524249904071
 30
0.0
 11
1060.903071738979
 21
-28.459473024819079
 31
0.0
  0
LINE
  5
9F0
  8
0
 10
707.31714873277485
 20
-148.1248711416408
 30
0.0
 11
722.31714873277485
 21
-148.1248711416408
 31
0.0
  0
ARC
  5
9F1
  8
0
 10
699.81714873277474
 20
-148.1248711416408
 30
0.0
 40
22.50000000000011
 50
0.0
 51
180.0
  0
ARC
  5
9F2
  8
0
 10
699.81714873277474
 20
-148.1248711416408
 30
0.0
 40
22.5
 50
180.0
 51
0.0
  0
LINE
  5
9F3
  8
0
 10
722.31714873277485
 20
-148.1248711416408
 30
0.0
 11
712.66151670131399
 21
-153.3944792933946
 31
0.0
  0
LINE
  5
9F4
  8
0
 10
707.31714873277485
 20
-405.73872694829072
 30
0.0
 11
722.31714873277485
 21
-405.73872694829072
 31
0.0
  0
ARC
  5
9F5
  8
0
 10
699.81714873277474
 20
-405.73872694829072
 30
0.0
 40
22.50000000000011
 50
180.0
 51
0.0
  0
ARC
  5
9F6
  8
0
 10
699.81714873277474
 20
-405.73872694829072
 30
0.0
 40
22.5
 50
0.0
 51
180.0
  0
LINE
  5
9F7
  8
0
 10
722.31714873277485
 20
-405.73872694829072
 30
0.0
 11
712.66151670131399
 21
-400.4691187965368
 31
0.0
  0
LINE
  5
9F8
  8
0
 10
1415.4287530405879
 20
-148.12487114164099
 30
0.0
 11
1400.4287530405879
 21
-148.12487114164099
 31
0.0
  0
ARC
  5
9F9
  8
0
 10
1422.9287530405879
 20
-148.12487114164099
 30
0.0
 40
22.5
 50
0.0
 51
180.0
  0
ARC
  5
9FA
  8
0
 10
1422.9287530405879
 20
-148.12487114164099
 30
0.0
 40
22.5
 50
180.0
 51
0.0
  0
LINE
  5
9FB
  8
0
 10
1400.4287530405879
 20
-148.12487114164099
 30
0.0
 11
1410.084385072048
 21
-153.3944792933948
 31
0.0
  0
LINE
  5
9FC
  8
0
 10
1513.3191986302679
 20
-537.05612437440595
 30
0.0
 11
1415.4287530405879
 21
-405.738726948291
 31
0.0
  0
LINE
  5
9FD
  8
0
 10
1415.4287530405879
 20
-405.738726948291
 30
0.0
 11
1400.4287530405879
 21
-405.738726948291
 31
0.0
  0
ARC
  5
9FE
  8
0
 10
1422.9287530405879
 20
-405.738726948291
 30
0.0
 40
22.5
 50
180.0
 51
0.0
  0
ARC
  5
9FF
  8
0
 10
1422.9287530405879
 20
-405.738726948291
 30
0.0
 40
22.5
 50
0.0
 51
180.0
  0
LINE
  5
A00
  8
0
 10
1400.4287530405879
 20
-405.738726948291
 30
0.0
 11
1410.084385072048
 21
-400.46911879653709
 31
0.0
  0
LINE
  5
A02
  8
0
 10
253.31919863026789
 20
722.94387562559371
 30
0.0
 11
253.31919863026789
 21
-537.05612437440595
 31
0.0
  0
LINE
  5
A03
  8
0
 10
-376.68080136973208
 20
722.94387562559371
 30
0.0
 11
-376.68080136973208
 21
-537.05612437440595
 31
0.0
  0
POLYLINE
  5
A0B
  8
0
 66
     1
 10
0.0
 20
0.0
 30
0.0
  0
VERTEX
  5
A4B
  8
0
 10
253.31919863026789
 20
-537.05612437440595
 30
0.0
  0
VERTEX
  5
A4C
  8
0
 10
124.5672583856168
 20
-440.55746179479752
 30
0.0
  0
VERTEX
  5
A4D
  8
0
 10
124.5672583856168
 20
-425.55746179479752
 30
0.0
 42
-0.9999999999999998
  0
VERTEX
  5
A4E
  8
0
 10
124.5672583856168
 20
-470.5574617947974
 30
0.0
 42
-0.9999999999999998
  0
VERTEX
  5
A4F
  8
0
 10
124.5672583856168
 20
-425.55746179479752
 30
0.0
  0
VERTEX
  5
A50
  8
0
 10
119.297650233863
 20
-435.21309382625782
 30
0.0
  0
SEQEND
  5
A51
  8
0
  0
POLYLINE
  5
A0C
  8
0
 66
     1
 10
0.0
 20
0.0
 30
0.0
  0
VERTEX
  5
A52
  8
0
 10
-133.0465974210332
 20
-440.55746179479752
 30
0.0
  0
VERTEX
  5
A53
  8
0
 10
-133.0465974210332
 20
-425.55746179479752
 30
0.0
 42
0.9999999999999998
  0
VERTEX
  5
A54
  8
0
 10
-133.0465974210332
 20
-470.5574617947974
 30
0.0
 42
0.9999999999999998
  0
VERTEX
  5
A55
  8
0
 10
-133.0465974210332
 20
-425.55746179479752
 30
0.0
  0
VERTEX
  5
A56
  8
0
 10
-127.7769892692794
 20
-435.21309382625782
 30
0.0
  0
SEQEND
  5
A57
  8
0
  0
POLYLINE
  5
A0D
  8
0
 66
     1
 10
0.0
 20
0.0
 30
0.0
  0
VERTEX
  5
A58
  8
0
 10
-133.04659742103269
 20
267.5541425130159
 30
0.0
  0
VERTEX
  5
A59
  8
0
 10
-133.04659742103269
 20
252.5541425130159
 30
0.0
 42
-0.9999999999999998
  0
VERTEX
  5
A5A
  8
0
 10
-133.04659742103269
 20
297.5541425130159
 30
0.0
 42
-0.9999999999999998
  0
VERTEX
  5
A5B
  8
0
 10
-133.04659742103269
 20
252.5541425130159
 30
0.0
  0
VERTEX
  5
A5C
  8
0
 10
-127.7769892692789
 20
262.2097745444766
 30
0.0
  0
SEQEND
  5
A5D
  8
0
  0
POLYLINE
  5
A0E
  8
0
 66
     1
 10
0.0
 20
0.0
 30
0.0
  0
VERTEX
  5
A5E
  8
0
 10
124.56725838561719
 20
267.5541425130159
 30
0.0
  0
VERTEX
  5
A5F
  8
0
 10
124.56725838561719
 20
252.5541425130159
 30
0.0
 42
0.9999999999999998
  0
VERTEX
  5
A60
  8
0
 10
124.56725838561719
 20
297.5541425130159
 30
0.0
 42
0.9999999999999998
  0
VERTEX
  5
A61
  8
0
 10
124.56725838561719
 20
252.5541425130159
 30
0.0
  0
VERTEX
  5
A62
  8
0
 10
119.29765023386339
 20
262.2097745444766
 30
0.0
  0
SEQEND
  5
A63
  8
0
  0
POLYLINE
  5
A0F
  8
0
 66
     1
 10
0.0
 20
0.0
 30
0.0
  0
VERTEX
  5
A64
  8
0
 10
244.17760527735399
 20
-86.501659640890921
 30
0.0
  0
VERTEX
  5
A65
  8
0
 10
229.17760527735399
 20
-86.501659640890921
 30
0.0
  0
VERTEX
  5
A66
  8
0
 10
250.8846558117319
 20
-111.7550938308334
 30
0.0
  0
VERTEX
  5
A67
  8
0
 10
204.42245838561681
 20
-489.93376179479759
 30
0.0
  0
VERTEX
  5
A68
  8
0
 10
161.29880811337679
 20
-533.05741206703783
 30
0.0
  0
VERTEX
  5
A69
  8
0
 10
-169.77814714879321
 20
-533.05741206703783
 30
0.0
  0
VERTEX
  5
A6A
  8
0
 10
-212.90179742103319
 20
-489.93376179479759
 30
0.0
  0
VERTEX
  5
A6B
  8
0
 10
-259.36399484714809
 20
-111.7550938308347
 30
0.0
  0
VERTEX
  5
A6C
  8
0
 10
-237.65694431276989
 20
-86.501659640890921
 30
0.0
  0
VERTEX
  5
A6D
  8
0
 10
-4.2396695177081929
 20
-319.91893443595268
 30
0.0
  0
VERTEX
  5
A6E
  8
0
 10
229.17760527735399
 20
-86.501659640890921
 30
0.0
  0
VERTEX
  5
A6F
  8
0
 10
-4.2396695177079664
 20
146.91561515417149
 30
0.0
  0
VERTEX
  5
A70
  8
0
 10
-237.65694431276989
 20
-86.501659640890921
 30
0.0
  0
VERTEX
  5
A71
  8
0
 10
-259.36399484714792
 20
-61.24822545094662
 30
0.0
  0
VERTEX
  5
A72
  8
0
 10
-212.90179742103271
 20
316.9304425130162
 30
0.0
  0
VERTEX
  5
A73
  8
0
 10
-169.7781471487927
 20
360.05409278525673
 30
0.0
  0
VERTEX
  5
A74
  8
0
 10
161.29880811337731
 20
360.05409278525622
 30
0.0
  0
VERTEX
  5
A75
  8
0
 10
204.42245838561729
 20
316.93044251301581
 30
0.0
  0
VERTEX
  5
A76
  8
0
 10
250.88465581173219
 20
-61.248225450947757
 30
0.0
  0
VERTEX
  5
A77
  8
0
 10
229.17760527735399
 20
-86.501659640890921
 30
0.0
  0
VERTEX
  5
A78
  8
0
 10
244.232656502439
 20
-86.031780493188748
 30
0.0
  0
SEQEND
  5
A79
  8
0
  0
POLYLINE
  5
A22
  8
0
 66
     1
 10
0.0
 20
0.0
 30
0.0
  0
VERTEX
  5
A7A
  8
0
 10
-265.58617893471751
 20
-255.5676175057834
 30
0.0
  0
VERTEX
  5
A7B
  8
0
 10
-276.58617893471751
 20
-255.5676175057834
 30
0.0
  0
VERTEX
  5
A7C
  8
0
 10
-236.2568579119345
 20
-391.67907595767662
 30
0.0
  0
VERTEX
  5
A7D
  8
0
 10
-236.25685791193499
 20
-528.16761750578394
 30
0.0
  0
VERTEX
  5
A7E
  8
0
 10
-358.8568579119347
 20
-528.16761750578337
 30
0.0
  0
VERTEX
  5
A7F
  8
0
 10
-358.8568579119347
 20
-391.67907595767662
 30
0.0
  0
VERTEX
  5
A80
  8
0
 10
-318.52753688915118
 20
-255.5676175057834
 30
0.0
  0
VERTEX
  5
A81
  8
0
 10
-276.58617893471751
 20
-255.5676175057834
 30
0.0
  0
VERTEX
  5
A82
  8
0
 10
-276.58617893471751
 20
-250.56761750578349
 30
0.0
  0
SEQEND
  5
A83
  8
0
  0
POLYLINE
  5
A23
  8
0
 66
     1
 10
0.0
 20
0.0
 30
0.0
  0
VERTEX
  5
A84
  8
0
 10
-225.2568579119349
 20
355.1642982240021
 30
0.0
  0
VERTEX
  5
A85
  8
0
 10
-236.25685791193499
 20
355.1642982240021
 30
0.0
  0
VERTEX
  5
A86
  8
0
 10
-236.2568579119345
 20
218.67575667589469
 30
0.0
  0
VERTEX
  5
A87
  8
0
 10
-276.58617893471751
 20
82.564298224001618
 30
0.0
  0
VERTEX
  5
A88
  8
0
 10
-318.52753688915118
 20
82.564298224001618
 30
0.0
  0
VERTEX
  5
A89
  8
0
 10
-358.8568579119347
 20
218.67575667589469
 30
0.0
  0
VERTEX
  5
A8A
  8
0
 10
-358.8568579119347
 20
355.1642982240017
 30
0.0
  0
VERTEX
  5
A8B
  8
0
 10
-236.25685791193499
 20
355.1642982240021
 30
0.0
  0
VERTEX
  5
A8C
  8
0
 10
-236.25685791193499
 20
360.1642982240021
 30
0.0
  0
SEQEND
  5
A8D
  8
0
  0
POLYLINE
  5
A31
  8
0
 66
     1
 10
0.0
 20
0.0
 30
0.0
  0
VERTEX
  5
A8E
  8
0
 10
246.8222555718234
 20
486.30571657188239
 30
0.0
  0
VERTEX
  5
A8F
  8
0
 10
241.82225557182471
 20
486.30571657188239
 30
0.0
  0
VERTEX
  5
A90
  8
0
 10
241.82225557182471
 20
399.4672389407977
 30
0.0
  0
VERTEX
  5
A91
  8
0
 10
211.06073320290841
 20
368.7057165718827
 30
0.0
  0
VERTEX
  5
A92
  8
0
 10
19.983777940738491
 20
368.7057165718827
 30
0.0
  0
VERTEX
  5
A93
  8
0
 10
-10.777744428175421
 20
399.4672389407977
 30
0.0
  0
VERTEX
  5
A94
  8
0
 10
-10.777744428175421
 20
486.30571657188239
 30
0.0
  0
VERTEX
  5
A95
  8
0
 10
241.82225557182471
 20
486.30571657188239
 30
0.0
  0
VERTEX
  5
A96
  8
0
 10
241.82225557182471
 20
573.14419420296736
 30
0.0
  0
VERTEX
  5
A97
  8
0
 10
211.06073320290841
 20
603.90571657188264
 30
0.0
  0
VERTEX
  5
A98
  8
0
 10
19.983777940738491
 20
603.90571657188264
 30
0.0
  0
VERTEX
  5
A99
  8
0
 10
-10.777744428175421
 20
573.14419420296736
 30
0.0
  0
VERTEX
  5
A9A
  8
0
 10
-10.777744428175421
 20
486.30571657188239
 30
0.0
  0
VERTEX
  5
A9B
  8
0
 10
-15.777744428175421
 20
486.30571657188239
 30
0.0
  0
SEQEND
  5
A9C
  8
0
  0
POLYLINE
  5
A32
  8
0
 66
     1
 10
0.0
 20
0.0
 30
0.0
  0
VERTEX
  5
A9D
  8
0
 10
-15.777744428175421
 20
486.30571657188239
 30
0.0
  0
VERTEX
  5
A9E
  8
0
 10
-20.777744428174181
 20
486.30571657188239
 30
0.0
  0
VERTEX
  5
A9F
  8
0
 10
-20.777744428174181
 20
399.4672389407977
 30
0.0
  0
VERTEX
  5
AA0
  8
0
 10
-51.539266797090477
 20
368.7057165718827
 30
0.0
  0
VERTEX
  5
AA1
  8
0
 10
-242.61622205926039
 20
368.7057165718827
 30
0.0
  0
VERTEX
  5
AA2
  8
0
 10
-273.37774442817431
 20
399.4672389407977
 30
0.0
  0
VERTEX
  5
AA3
  8
0
 10
-273.37774442817431
 20
486.30571657188239
 30
0.0
  0
VERTEX
  5
AA4
  8
0
 10
-20.777744428174181
 20
486.30571657188239
 30
0.0
  0
VERTEX
  5
AA5
  8
0
 10
-20.777744428174181
 20
573.14419420296736
 30
0.0
  0
VERTEX
  5
AA6
  8
0
 10
-51.539266797090477
 20
603.90571657188264
 30
0.0
  0
VERTEX
  5
AA7
  8
0
 10
-242.61622205926039
 20
603.90571657188264
 30
0.0
  0
VERTEX
  5
AA8
  8
0
 10
-273.37774442817431
 20
573.14419420296736
 30
0.0
  0
VERTEX
  5
AA9
  8
0
 10
-273.37774442817431
 20
486.30571657188239
 30
0.0
  0
VERTEX
  5
AAA
  8
0
 10
-278.37774442817431
 20
486.30571657188239
 30
0.0
  0
SEQEND
  5
AAB
  8
0
  0
ENDSEC
  0
EOF
