  0
SECTION
  2
HEADER
  9
$ACADVER
  1
AC1009
  9
$INSBASE
 10
0.0
 20
0.0
 30
0.0
  9
$EXTMIN
 10
5157.9395828165534
 20
-1101.5581224572179
 30
0.0
  9
$EXTMAX
 10
7737.9504610849554
 20
-449.91110674412351
 30
0.0
  9
$LIMMIN
 10
0.0
 20
0.0
  9
$LIMMAX
 10
420.0
 20
297.0
  9
$ORTHOMODE
 70
     1
  9
$REGENMODE
 70
     1
  9
$FILLMODE
 70
     1
  9
$QTEXTMODE
 70
     0
  9
$MIRRTEXT
 70
     0
  9
$DRAGMODE
 70
     2
  9
$LTSCALE
 40
1.0
  9
$OSMODE
 70
   319
  9
$ATTMODE
 70
     1
  9
$TEXTSIZE
 40
2.5
  9
$TRACEWID
 40
1.0
  9
$TEXTSTYLE
  7
STANDARD
  9
$CLAYER
  8
0
  9
$CELTYPE
  6
BYLAYER
  9
$CECOLOR
 62
   256
  9
$DIMSCALE
 40
1.0
  9
$DIMASZ
 40
2.5
  9
$DIMEXO
 40
0.625
  9
$DIMDLI
 40
3.75
  9
$DIMRND
 40
0.0
  9
$DIMDLE
 40
0.0
  9
$DIMEXE
 40
1.25
  9
$DIMTP
 40
0.0
  9
$DIMTM
 40
0.0
  9
$DIMTXT
 40
2.5
  9
$DIMCEN
 40
2.5
  9
$DIMTSZ
 40
0.0
  9
$DIMTOL
 70
     0
  9
$DIMLIM
 70
     0
  9
$DIMTIH
 70
     0
  9
$DIMTOH
 70
     0
  9
$DIMSE1
 70
     0
  9
$DIMSE2
 70
     0
  9
$DIMTAD
 70
     1
  9
$DIMZIN
 70
     8
  9
$DIMBLK
  1

  9
$DIMASO
 70
     1
  9
$DIMSHO
 70
     1
  9
$DIMPOST
  1

  9
$DIMAPOST
  1

  9
$DIMALT
 70
     0
  9
$DIMALTD
 70
     3
  9
$DIMALTF
 40
0.03937007874016
  9
$DIMLFAC
 40
1.0
  9
$DIMTOFL
 70
     1
  9
$DIMTVP
 40
0.0
  9
$DIMTIX
 70
     0
  9
$DIMSOXD
 70
     0
  9
$DIMSAH
 70
     0
  9
$DIMBLK1
  1

  9
$DIMBLK2
  1

  9
$DIMSTYLE
  2
ISO-25
  9
$DIMCLRD
 70
     0
  9
$DIMCLRE
 70
     0
  9
$DIMCLRT
 70
     0
  9
$DIMTFAC
 40
1.0
  9
$DIMGAP
 40
0.625
  9
$LUNITS
 70
     2
  9
$LUPREC
 70
     4
  9
$SKETCHINC
 40
1.0
  9
$FILLETRAD
 40
0.0
  9
$AUNITS
 70
     0
  9
$AUPREC
 70
     0
  9
$MENU
  1
.
  9
$ELEVATION
 40
0.0
  9
$PELEVATION
 40
0.0
  9
$THICKNESS
 40
0.0
  9
$LIMCHECK
 70
     0
  9
$BLIPMODE
 70
     0
  9
$CHAMFERA
 40
0.0
  9
$CHAMFERB
 40
0.0
  9
$SKPOLY
 70
     0
  9
$TDCREATE
 40
2455224.5279161921
  9
$TDUPDATE
 40
2455224.5517717819
  9
$TDINDWG
 40
0.0238574537
  9
$TDUSRTIMER
 40
0.023857338
  9
$USRTIMER
 70
     1
  9
$ANGBASE
 50
0.0
  9
$ANGDIR
 70
     0
  9
$PDMODE
 70
     0
  9
$PDSIZE
 40
0.0
  9
$PLINEWID
 40
0.0
  9
$COORDS
 70
     1
  9
$SPLFRAME
 70
     0
  9
$SPLINETYPE
 70
     6
  9
$SPLINESEGS
 70
     8
  9
$ATTDIA
 70
     0
  9
$ATTREQ
 70
     1
  9
$HANDLING
 70
     1
  9
$HANDSEED
  5
3D7
  9
$SURFTAB1
 70
     6
  9
$SURFTAB2
 70
     6
  9
$SURFTYPE
 70
     6
  9
$SURFU
 70
     6
  9
$SURFV
 70
     6
  9
$UCSNAME
  2

  9
$UCSORG
 10
0.0
 20
0.0
 30
0.0
  9
$UCSXDIR
 10
1.0
 20
0.0
 30
0.0
  9
$UCSYDIR
 10
0.0
 20
1.0
 30
0.0
  9
$PUCSNAME
  2

  9
$PUCSORG
 10
0.0
 20
0.0
 30
0.0
  9
$PUCSXDIR
 10
1.0
 20
0.0
 30
0.0
  9
$PUCSYDIR
 10
0.0
 20
1.0
 30
0.0
  9
$USERI1
 70
     0
  9
$USERI2
 70
     0
  9
$USERI3
 70
     0
  9
$USERI4
 70
     0
  9
$USERI5
 70
     0
  9
$USERR1
 40
0.0
  9
$USERR2
 40
0.0
  9
$USERR3
 40
0.0
  9
$USERR4
 40
0.0
  9
$USERR5
 40
0.0
  9
$WORLDVIEW
 70
     1
  9
$SHADEDGE
 70
     3
  9
$SHADEDIF
 70
    70
  9
$TILEMODE
 70
     1
  9
$MAXACTVP
 70
    64
  9
$PLIMCHECK
 70
     0
  9
$PEXTMIN
 10
0.0
 20
0.0
 30
0.0
  9
$PEXTMAX
 10
0.0
 20
0.0
 30
0.0
  9
$PLIMMIN
 10
0.0
 20
0.0
  9
$PLIMMAX
 10
12.0
 20
9.0
  9
$UNITMODE
 70
     0
  9
$VISRETAIN
 70
     1
  9
$PLINEGEN
 70
     0
  9
$PSLTSCALE
 70
     1
  0
ENDSEC
  0
SECTION
  2
TABLES
  0
TABLE
  2
VPORT
 70
     1
  0
VPORT
  2
*ACTIVE
 70
     0
 10
0.0
 20
0.0
 11
1.0
 21
1.0
 12
6267.962084521092
 22
-1070.639351275478
 13
0.0
 23
0.0
 14
10.0
 24
10.0
 15
10.0
 25
10.0
 16
0.0
 26
0.0
 36
1.0
 17
0.0
 27
0.0
 37
0.0
 40
1654.841293747892
 41
1.7721280602636531
 42
50.0
 43
0.0
 44
0.0
 50
0.0
 51
0.0
 71
     0
 72
  1000
 73
     1
 74
     3
 75
     0
 76
     0
 77
     0
 78
     0
  0
ENDTAB
  0
TABLE
  2
LTYPE
 70
     2
  0
LTYPE
  2
CONTINUOUS
 70
     0
  3
Solid line
 72
    65
 73
     0
 40
0.0
  0
ENDTAB
  0
TABLE
  2
LAYER
 70
     1
  0
LAYER
  2
0
 70
     0
 62
     7
  6
CONTINUOUS
  0
ENDTAB
  0
TABLE
  2
STYLE
 70
     1
  0
STYLE
  2
STANDARD
 70
     0
 40
0.0
 41
1.0
 50
0.0
 71
     0
 42
2.5
  3
txt
  4

  0
ENDTAB
  0
TABLE
  2
VIEW
 70
     0
  0
ENDTAB
  0
TABLE
  2
UCS
 70
     0
  0
ENDTAB
  0
TABLE
  2
APPID
 70
     3
  0
APPID
  2
ACAD
 70
     0
  0
APPID
  2
ACAD_PSEXT
 70
     0
  0
APPID
  2
ACAD_EXEMPT_FROM_CAD_STANDARDS
 70
     0
  0
ENDTAB
  0
TABLE
  2
DIMSTYLE
 70
     2
  0
DIMSTYLE
  2
ISO-25
 70
     0
  3

  4

  5

  6

  7

 40
1.0
 41
2.5
 42
0.625
 43
3.75
 44
1.25
 45
0.0
 46
0.0
 47
0.0
 48
0.0
140
2.5
141
2.5
142
0.0
143
0.03937007874016
144
1.0
145
0.0
146
1.0
147
0.625
 71
     0
 72
     0
 73
     0
 74
     0
 75
     0
 76
     0
 77
     1
 78
     8
170
     0
171
     3
172
     1
173
     0
174
     0
175
     0
176
     0
177
     0
178
     0
  0
ENDTAB
  0
ENDSEC
  0
SECTION
  2
BLOCKS
  0
BLOCK
  8
0
  2
$MODEL_SPACE
 70
     0
 10
0.0
 20
0.0
 30
0.0
  3
$MODEL_SPACE
  1

  0
ENDBLK
  5
21
  8
0
  0
BLOCK
 67
     1
  8
0
  2
$PAPER_SPACE
 70
     0
 10
0.0
 20
0.0
 30
0.0
  3
$PAPER_SPACE
  1

  0
ENDBLK
  5
D5
 67
     1
  8
0
  0
ENDSEC
  0
SECTION
  2
ENTITIES
  0
CIRCLE
  5
120
  8
0
 10
5262.4395828165534
 20
-683.62859233892266
 30
0.0
 40
21.5
  0
ARC
  5
121
  8
0
 10
5352.4395828165543
 20
-712.12859233892141
 30
0.0
 40
10.0
 50
0.0
 51
90.0
  0
LINE
  5
122
  8
0
 10
5362.4395828165534
 20
-712.12859233892141
 30
0.0
 11
5362.4395828165534
 21
-737.12859233892141
 31
0.0
  0
LINE
  5
123
  8
0
 10
5362.4395828165534
 20
-737.12859233892141
 30
0.0
 11
5162.4395828165534
 21
-737.12859233892141
 31
0.0
  0
LINE
  5
124
  8
0
 10
5162.4395828165534
 20
-737.12859233892141
 30
0.0
 11
5162.4395828165534
 21
-712.12859233892141
 31
0.0
  0
ARC
  5
125
  8
0
 10
5172.4395828165534
 20
-712.12859233892141
 30
0.0
 40
10.0
 50
90.0
 51
180.0
  0
LINE
  5
126
  8
0
 10
5172.4395828165534
 20
-702.12859233892141
 30
0.0
 11
5190.4395828165534
 21
-702.12859233892141
 31
0.0
  0
ARC
  5
127
  8
0
 10
5190.4395828165534
 20
-680.62859233892129
 30
0.0
 40
21.5
 50
270.0
 51
46.174557268071318
  0
ARC
  5
128
  8
0
 10
5207.4049412631084
 20
-662.95299863517437
 30
0.0
 40
3.0000000000000031
 50
116.23445318378739
 51
226.17455726807131
  0
ARC
  5
129
  8
0
 10
5262.4395828165534
 20
-774.6285923389205
 30
0.0
 40
127.4999999999999
 50
63.765546816212613
 51
116.23445318378739
  0
ARC
  5
12A
  8
0
 10
5317.4742243699984
 20
-662.95299863517437
 30
0.0
 40
2.999999999999813
 50
313.82544273192872
 51
63.765546816212613
  0
ARC
  5
12B
  8
0
 10
5334.4395828165534
 20
-680.62859233892129
 30
0.0
 40
21.5
 50
133.8254427319286
 51
270.0
  0
LINE
  5
12C
  8
0
 10
5334.4395828165534
 20
-702.12859233892141
 30
0.0
 11
5352.4395828165543
 21
-702.12859233892141
 31
0.0
  0
LINE
  5
150
  8
0
 10
5802.9663961696197
 20
-647.07731067122756
 30
0.0
 11
7302.9663961696197
 21
-647.07731067122756
 31
0.0
  0
LINE
  5
151
  8
0
 10
7302.9663961696197
 20
-647.07731067122756
 30
0.0
 11
7302.9663961696197
 21
-1047.0773106712279
 31
0.0
  0
LINE
  5
152
  8
0
 10
7302.9663961696197
 20
-1047.0773106712279
 30
0.0
 11
5802.9663961696197
 21
-1047.0773106712279
 31
0.0
  0
LINE
  5
153
  8
0
 10
5802.9663961696197
 20
-1047.0773106712279
 30
0.0
 11
5802.9663961696197
 21
-647.07731067122756
 31
0.0
  0
POLYLINE
  5
194
  8
0
 66
     1
 10
0.0
 20
0.0
 30
0.0
  0
VERTEX
  5
227
  8
0
 10
7302.9663961696197
 20
-1047.0773106712279
 30
0.0
  0
VERTEX
  5
228
  8
0
 10
7298.8974619525252
 20
-949.67047648579126
 30
0.0
  0
VERTEX
  5
229
  8
0
 10
7295.8974619525252
 20
-949.67047648579126
 30
0.0
  0
VERTEX
  5
22A
  8
0
 10
7295.8974619525252
 20
-976.17047648579126
 30
0.0
 42
-0.4142135623730951
  0
VERTEX
  5
22B
  8
0
 10
7284.3974619525243
 20
-987.67047648579137
 30
0.0
  0
VERTEX
  5
22C
  8
0
 10
7266.3974619525261
 20
-987.67047648579046
 30
0.0
 42
0.6756172579278708
  0
VERTEX
  5
22D
  8
0
 10
7252.5481897512618
 20
-1022.099532570488
 30
0.0
 42
-0.5202349285350902
  0
VERTEX
  5
22E
  8
0
 10
7251.4213074175268
 20
-1029.382537431849
 30
0.0
 42
-0.2330242540743247
  0
VERTEX
  5
22F
  8
0
 10
7137.3736164875781
 20
-1029.382537431874
 30
0.0
 42
-0.5202349285349821
  0
VERTEX
  5
230
  8
0
 10
7136.2467341537968
 20
-1022.0995325704801
 30
0.0
 42
0.6756172579278454
  0
VERTEX
  5
231
  8
0
 10
7122.3974619525252
 20
-987.67047648579137
 30
0.0
  0
VERTEX
  5
232
  8
0
 10
7104.3974619525243
 20
-987.67047648579137
 30
0.0
 42
-0.4142135623730951
  0
VERTEX
  5
233
  8
0
 10
7092.8974619525243
 20
-976.17047648579126
 30
0.0
  0
VERTEX
  5
234
  8
0
 10
7092.8974619525243
 20
-949.67047648579126
 30
0.0
  0
VERTEX
  5
235
  8
0
 10
7295.8974619525252
 20
-949.67047648579126
 30
0.0
  0
VERTEX
  5
236
  8
0
 10
7295.8974619525252
 20
-923.17047648579137
 30
0.0
 42
0.4142135623730951
  0
VERTEX
  5
237
  8
0
 10
7284.3974619525243
 20
-911.67047648579137
 30
0.0
  0
VERTEX
  5
238
  8
0
 10
7266.3974619525261
 20
-911.67047648579205
 30
0.0
 42
-0.6756172579278724
  0
VERTEX
  5
239
  8
0
 10
7252.5481897512618
 20
-877.24142040109439
 30
0.0
 42
0.5202349285350838
  0
VERTEX
  5
23A
  8
0
 10
7251.4213074175268
 20
-869.95841553973355
 30
0.0
 42
0.2330242540743254
  0
VERTEX
  5
23B
  8
0
 10
7137.3736164875781
 20
-869.95841553970854
 30
0.0
 42
0.520234928534979
  0
VERTEX
  5
23C
  8
0
 10
7136.2467341537968
 20
-877.24142040110189
 30
0.0
 42
-0.6756172579278561
  0
VERTEX
  5
23D
  8
0
 10
7122.3974619525252
 20
-911.67047648579137
 30
0.0
  0
VERTEX
  5
23E
  8
0
 10
7104.3974619525243
 20
-911.67047648579137
 30
0.0
 42
0.4142135623730951
  0
VERTEX
  5
23F
  8
0
 10
7092.8974619525243
 20
-923.17047648579137
 30
0.0
  0
VERTEX
  5
240
  8
0
 10
7092.8974619525243
 20
-949.67047648579126
 30
0.0
  0
VERTEX
  5
241
  8
0
 10
7089.8974619525243
 20
-949.67047648579126
 30
0.0
  0
SEQEND
  5
242
  8
0
  0
POLYLINE
  5
196
  8
0
 66
     1
 10
0.0
 20
0.0
 30
0.0
  0
VERTEX
  5
243
  8
0
 10
7089.8974619525243
 20
-949.67047648579126
 30
0.0
  0
VERTEX
  5
244
  8
0
 10
7063.2108554831811
 20
-949.67047648579126
 30
0.0
  0
VERTEX
  5
245
  8
0
 10
7063.2108554831811
 20
-976.17047648579126
 30
0.0
 42
-0.4142135623730951
  0
VERTEX
  5
246
  8
0
 10
7051.7108554831821
 20
-987.67047648579137
 30
0.0
  0
VERTEX
  5
247
  8
0
 10
7033.7108554831839
 20
-987.67047648579046
 30
0.0
 42
0.6756172579278648
  0
VERTEX
  5
248
  8
0
 10
7019.8615832819196
 20
-1022.099532570488
 30
0.0
 42
-0.520234928535089
  0
VERTEX
  5
249
  8
0
 10
7018.7347009481864
 20
-1029.382537431849
 30
0.0
 42
-0.2330242540743312
  0
VERTEX
  5
24A
  8
0
 10
6904.687010018235
 20
-1029.382537431874
 30
0.0
 42
-0.5202349285349831
  0
VERTEX
  5
24B
  8
0
 10
6903.5601276844527
 20
-1022.0995325704801
 30
0.0
 42
0.6756172579278467
  0
VERTEX
  5
24C
  8
0
 10
6889.7108554831821
 20
-987.67047648579137
 30
0.0
  0
VERTEX
  5
24D
  8
0
 10
6871.710855483183
 20
-987.67047648579137
 30
0.0
 42
-0.4142135623730951
  0
VERTEX
  5
24E
  8
0
 10
6860.2108554831811
 20
-976.17047648579126
 30
0.0
  0
VERTEX
  5
24F
  8
0
 10
6860.2108554831811
 20
-949.67047648579126
 30
0.0
  0
VERTEX
  5
250
  8
0
 10
7063.2108554831811
 20
-949.67047648579126
 30
0.0
  0
VERTEX
  5
251
  8
0
 10
7063.2108554831811
 20
-923.17047648579137
 30
0.0
 42
0.4142135623730951
  0
VERTEX
  5
252
  8
0
 10
7051.7108554831821
 20
-911.67047648579137
 30
0.0
  0
VERTEX
  5
253
  8
0
 10
7033.7108554831839
 20
-911.67047648579205
 30
0.0
 42
-0.6756172579278779
  0
VERTEX
  5
254
  8
0
 10
7019.8615832819196
 20
-877.24142040109439
 30
0.0
 42
0.5202349285350884
  0
VERTEX
  5
255
  8
0
 10
7018.7347009481864
 20
-869.95841553973401
 30
0.0
 42
0.2330242540743314
  0
VERTEX
  5
256
  8
0
 10
6904.687010018235
 20
-869.95841553970854
 30
0.0
 42
0.5202349285349732
  0
VERTEX
  5
257
  8
0
 10
6903.5601276844527
 20
-877.24142040110166
 30
0.0
 42
-0.6756172579278604
  0
VERTEX
  5
258
  8
0
 10
6889.7108554831821
 20
-911.67047648579137
 30
0.0
  0
VERTEX
  5
259
  8
0
 10
6871.710855483183
 20
-911.67047648579137
 30
0.0
 42
0.4142135623730951
  0
VERTEX
  5
25A
  8
0
 10
6860.2108554831811
 20
-923.17047648579137
 30
0.0
  0
VERTEX
  5
25B
  8
0
 10
6860.2108554831811
 20
-949.67047648579126
 30
0.0
  0
VERTEX
  5
25C
  8
0
 10
6857.210855483183
 20
-949.67047648579126
 30
0.0
  0
SEQEND
  5
25D
  8
0
  0
POLYLINE
  5
197
  8
0
 66
     1
 10
0.0
 20
0.0
 30
0.0
  0
VERTEX
  5
25E
  8
0
 10
6857.210855483183
 20
-949.67047648579126
 30
0.0
  0
VERTEX
  5
25F
  8
0
 10
6830.5242490138398
 20
-949.67047648579126
 30
0.0
  0
VERTEX
  5
260
  8
0
 10
6830.5242490138398
 20
-976.17047648579126
 30
0.0
 42
-0.4142135623730951
  0
VERTEX
  5
261
  8
0
 10
6819.0242490138398
 20
-987.67047648579137
 30
0.0
  0
VERTEX
  5
262
  8
0
 10
6801.0242490138417
 20
-987.67047648579046
 30
0.0
 42
0.6756172579278648
  0
VERTEX
  5
263
  8
0
 10
6787.1749768125783
 20
-1022.099532570488
 30
0.0
 42
-0.520234928535089
  0
VERTEX
  5
264
  8
0
 10
6786.0480944788451
 20
-1029.382537431849
 30
0.0
 42
-0.2330242540743312
  0
VERTEX
  5
265
  8
0
 10
6672.0004035488919
 20
-1029.382537431874
 30
0.0
 42
-0.5202349285349831
  0
VERTEX
  5
266
  8
0
 10
6670.8735212151114
 20
-1022.0995325704801
 30
0.0
 42
0.6756172579278467
  0
VERTEX
  5
267
  8
0
 10
6657.0242490138398
 20
-987.67047648579137
 30
0.0
  0
VERTEX
  5
268
  8
0
 10
6639.0242490138398
 20
-987.67047648579137
 30
0.0
 42
-0.4142135623730951
  0
VERTEX
  5
269
  8
0
 10
6627.5242490138389
 20
-976.17047648579126
 30
0.0
  0
VERTEX
  5
26A
  8
0
 10
6627.5242490138389
 20
-949.67047648579126
 30
0.0
  0
VERTEX
  5
26B
  8
0
 10
6830.5242490138398
 20
-949.67047648579126
 30
0.0
  0
VERTEX
  5
26C
  8
0
 10
6830.5242490138398
 20
-923.17047648579137
 30
0.0
 42
0.4142135623730951
  0
VERTEX
  5
26D
  8
0
 10
6819.0242490138398
 20
-911.67047648579137
 30
0.0
  0
VERTEX
  5
26E
  8
0
 10
6801.0242490138417
 20
-911.67047648579205
 30
0.0
 42
-0.6756172579278779
  0
VERTEX
  5
26F
  8
0
 10
6787.1749768125783
 20
-877.24142040109439
 30
0.0
 42
0.5202349285350884
  0
VERTEX
  5
270
  8
0
 10
6786.0480944788451
 20
-869.95841553973401
 30
0.0
 42
0.2330242540743314
  0
VERTEX
  5
271
  8
0
 10
6672.0004035488919
 20
-869.95841553970854
 30
0.0
 42
0.5202349285349732
  0
VERTEX
  5
272
  8
0
 10
6670.8735212151114
 20
-877.24142040110166
 30
0.0
 42
-0.6756172579278604
  0
VERTEX
  5
273
  8
0
 10
6657.0242490138398
 20
-911.67047648579137
 30
0.0
  0
VERTEX
  5
274
  8
0
 10
6639.0242490138398
 20
-911.67047648579137
 30
0.0
 42
0.4142135623730951
  0
VERTEX
  5
275
  8
0
 10
6627.5242490138389
 20
-923.17047648579137
 30
0.0
  0
VERTEX
  5
276
  8
0
 10
6627.5242490138389
 20
-949.67047648579126
 30
0.0
  0
VERTEX
  5
277
  8
0
 10
6624.5242490138389
 20
-949.67047648579126
 30
0.0
  0
SEQEND
  5
278
  8
0
  0
POLYLINE
  5
198
  8
0
 66
     1
 10
0.0
 20
0.0
 30
0.0
  0
VERTEX
  5
279
  8
0
 10
6624.5242490138389
 20
-949.67047648579126
 30
0.0
  0
VERTEX
  5
27A
  8
0
 10
6597.8376425444967
 20
-949.67047648579126
 30
0.0
  0
VERTEX
  5
27B
  8
0
 10
6597.8376425444967
 20
-976.17047648579126
 30
0.0
 42
-0.4142135623730951
  0
VERTEX
  5
27C
  8
0
 10
6586.3376425444976
 20
-987.67047648579137
 30
0.0
  0
VERTEX
  5
27D
  8
0
 10
6568.3376425444994
 20
-987.67047648579046
 30
0.0
 42
0.6756172579278648
  0
VERTEX
  5
27E
  8
0
 10
6554.4883703432351
 20
-1022.099532570488
 30
0.0
 42
-0.520234928535089
  0
VERTEX
  5
27F
  8
0
 10
6553.361488009501
 20
-1029.382537431849
 30
0.0
 42
-0.2330242540743312
  0
VERTEX
  5
280
  8
0
 10
6439.3137970795506
 20
-1029.382537431874
 30
0.0
 42
-0.5202349285349831
  0
VERTEX
  5
281
  8
0
 10
6438.1869147457692
 20
-1022.0995325704801
 30
0.0
 42
0.6756172579278467
  0
VERTEX
  5
282
  8
0
 10
6424.3376425444976
 20
-987.67047648579137
 30
0.0
  0
VERTEX
  5
283
  8
0
 10
6406.3376425444967
 20
-987.67047648579137
 30
0.0
 42
-0.4142135623730951
  0
VERTEX
  5
284
  8
0
 10
6394.8376425444976
 20
-976.17047648579126
 30
0.0
  0
VERTEX
  5
285
  8
0
 10
6394.8376425444976
 20
-949.67047648579126
 30
0.0
  0
VERTEX
  5
286
  8
0
 10
6597.8376425444967
 20
-949.67047648579126
 30
0.0
  0
VERTEX
  5
287
  8
0
 10
6597.8376425444967
 20
-923.17047648579137
 30
0.0
 42
0.4142135623730951
  0
VERTEX
  5
288
  8
0
 10
6586.3376425444976
 20
-911.67047648579137
 30
0.0
  0
VERTEX
  5
289
  8
0
 10
6568.3376425444994
 20
-911.67047648579205
 30
0.0
 42
-0.6756172579278779
  0
VERTEX
  5
28A
  8
0
 10
6554.4883703432351
 20
-877.24142040109439
 30
0.0
 42
0.5202349285350884
  0
VERTEX
  5
28B
  8
0
 10
6553.361488009501
 20
-869.95841553973401
 30
0.0
 42
0.2330242540743314
  0
VERTEX
  5
28C
  8
0
 10
6439.3137970795506
 20
-869.95841553970854
 30
0.0
 42
0.5202349285349732
  0
VERTEX
  5
28D
  8
0
 10
6438.1869147457692
 20
-877.24142040110166
 30
0.0
 42
-0.6756172579278604
  0
VERTEX
  5
28E
  8
0
 10
6424.3376425444976
 20
-911.67047648579137
 30
0.0
  0
VERTEX
  5
28F
  8
0
 10
6406.3376425444967
 20
-911.67047648579137
 30
0.0
 42
0.4142135623730951
  0
VERTEX
  5
290
  8
0
 10
6394.8376425444976
 20
-923.17047648579137
 30
0.0
  0
VERTEX
  5
291
  8
0
 10
6394.8376425444976
 20
-949.67047648579126
 30
0.0
  0
VERTEX
  5
292
  8
0
 10
6391.8376425444976
 20
-949.67047648579126
 30
0.0
  0
SEQEND
  5
293
  8
0
  0
POLYLINE
  5
199
  8
0
 66
     1
 10
0.0
 20
0.0
 30
0.0
  0
VERTEX
  5
294
  8
0
 10
6391.8376425444976
 20
-949.67047648579126
 30
0.0
  0
VERTEX
  5
295
  8
0
 10
6365.1510360751563
 20
-949.67047648579126
 30
0.0
  0
VERTEX
  5
296
  8
0
 10
6365.1510360751563
 20
-976.17047648579126
 30
0.0
 42
-0.4142135623730951
  0
VERTEX
  5
297
  8
0
 10
6353.6510360751563
 20
-987.67047648579137
 30
0.0
  0
VERTEX
  5
298
  8
0
 10
6335.6510360751572
 20
-987.67047648579046
 30
0.0
 42
0.6756172579278648
  0
VERTEX
  5
299
  8
0
 10
6321.801763873892
 20
-1022.099532570488
 30
0.0
 42
-0.520234928535089
  0
VERTEX
  5
29A
  8
0
 10
6320.6748815401597
 20
-1029.382537431849
 30
0.0
 42
-0.2330242540743312
  0
VERTEX
  5
29B
  8
0
 10
6206.6271906102093
 20
-1029.382537431874
 30
0.0
 42
-0.5202349285349831
  0
VERTEX
  5
29C
  8
0
 10
6205.5003082764269
 20
-1022.0995325704801
 30
0.0
 42
0.6756172579278467
  0
VERTEX
  5
29D
  8
0
 10
6191.6510360751554
 20
-987.67047648579137
 30
0.0
  0
VERTEX
  5
29E
  8
0
 10
6173.6510360751554
 20
-987.67047648579137
 30
0.0
 42
-0.4142135623730951
  0
VERTEX
  5
29F
  8
0
 10
6162.1510360751554
 20
-976.17047648579126
 30
0.0
  0
VERTEX
  5
2A0
  8
0
 10
6162.1510360751554
 20
-949.67047648579126
 30
0.0
  0
VERTEX
  5
2A1
  8
0
 10
6365.1510360751563
 20
-949.67047648579126
 30
0.0
  0
VERTEX
  5
2A2
  8
0
 10
6365.1510360751563
 20
-923.17047648579137
 30
0.0
 42
0.4142135623730951
  0
VERTEX
  5
2A3
  8
0
 10
6353.6510360751563
 20
-911.67047648579137
 30
0.0
  0
VERTEX
  5
2A4
  8
0
 10
6335.6510360751572
 20
-911.67047648579205
 30
0.0
 42
-0.6756172579278779
  0
VERTEX
  5
2A5
  8
0
 10
6321.801763873892
 20
-877.24142040109439
 30
0.0
 42
0.5202349285350884
  0
VERTEX
  5
2A6
  8
0
 10
6320.6748815401597
 20
-869.95841553973401
 30
0.0
 42
0.2330242540743314
  0
VERTEX
  5
2A7
  8
0
 10
6206.6271906102093
 20
-869.95841553970854
 30
0.0
 42
0.5202349285349732
  0
VERTEX
  5
2A8
  8
0
 10
6205.5003082764269
 20
-877.24142040110166
 30
0.0
 42
-0.6756172579278604
  0
VERTEX
  5
2A9
  8
0
 10
6191.6510360751554
 20
-911.67047648579137
 30
0.0
  0
VERTEX
  5
2AA
  8
0
 10
6173.6510360751554
 20
-911.67047648579137
 30
0.0
 42
0.4142135623730951
  0
VERTEX
  5
2AB
  8
0
 10
6162.1510360751554
 20
-923.17047648579137
 30
0.0
  0
VERTEX
  5
2AC
  8
0
 10
6162.1510360751554
 20
-949.67047648579126
 30
0.0
  0
VERTEX
  5
2AD
  8
0
 10
6159.1510360751554
 20
-949.67047648579126
 30
0.0
  0
SEQEND
  5
2AE
  8
0
  0
POLYLINE
  5
19A
  8
0
 66
     1
 10
0.0
 20
0.0
 30
0.0
  0
VERTEX
  5
2AF
  8
0
 10
6159.1510360751554
 20
-949.67047648579126
 30
0.0
  0
VERTEX
  5
2B0
  8
0
 10
6132.4644296058132
 20
-949.67047648579126
 30
0.0
  0
VERTEX
  5
2B1
  8
0
 10
6132.4644296058132
 20
-976.17047648579126
 30
0.0
 42
-0.4142135623730951
  0
VERTEX
  5
2B2
  8
0
 10
6120.9644296058123
 20
-987.67047648579137
 30
0.0
  0
VERTEX
  5
2B3
  8
0
 10
6102.964429605815
 20
-987.67047648579046
 30
0.0
 42
0.6756172579278648
  0
VERTEX
  5
2B4
  8
0
 10
6089.1151574045507
 20
-1022.099532570488
 30
0.0
 42
-0.520234928535089
  0
VERTEX
  5
2B5
  8
0
 10
6087.9882750708166
 20
-1029.382537431849
 30
0.0
 42
-0.2330242540743312
  0
VERTEX
  5
2B6
  8
0
 10
5973.9405841408661
 20
-1029.382537431874
 30
0.0
 42
-0.5202349285349831
  0
VERTEX
  5
2B7
  8
0
 10
5972.8137018070838
 20
-1022.0995325704801
 30
0.0
 42
0.6756172579278467
  0
VERTEX
  5
2B8
  8
0
 10
5958.9644296058132
 20
-987.67047648579137
 30
0.0
  0
VERTEX
  5
2B9
  8
0
 10
5940.9644296058132
 20
-987.67047648579137
 30
0.0
 42
-0.4142135623730951
  0
VERTEX
  5
2BA
  8
0
 10
5929.4644296058132
 20
-976.17047648579126
 30
0.0
  0
VERTEX
  5
2BB
  8
0
 10
5929.4644296058132
 20
-949.67047648579126
 30
0.0
  0
VERTEX
  5
2BC
  8
0
 10
6132.4644296058132
 20
-949.67047648579126
 30
0.0
  0
VERTEX
  5
2BD
  8
0
 10
6132.4644296058132
 20
-923.17047648579137
 30
0.0
 42
0.4142135623730951
  0
VERTEX
  5
2BE
  8
0
 10
6120.9644296058123
 20
-911.67047648579137
 30
0.0
  0
VERTEX
  5
2BF
  8
0
 10
6102.964429605815
 20
-911.67047648579205
 30
0.0
 42
-0.6756172579278779
  0
VERTEX
  5
2C0
  8
0
 10
6089.1151574045507
 20
-877.24142040109439
 30
0.0
 42
0.5202349285350884
  0
VERTEX
  5
2C1
  8
0
 10
6087.9882750708166
 20
-869.95841553973401
 30
0.0
 42
0.2330242540743314
  0
VERTEX
  5
2C2
  8
0
 10
5973.9405841408661
 20
-869.95841553970854
 30
0.0
 42
0.5202349285349732
  0
VERTEX
  5
2C3
  8
0
 10
5972.8137018070838
 20
-877.24142040110166
 30
0.0
 42
-0.6756172579278604
  0
VERTEX
  5
2C4
  8
0
 10
5958.9644296058132
 20
-911.67047648579137
 30
0.0
  0
VERTEX
  5
2C5
  8
0
 10
5940.9644296058132
 20
-911.67047648579137
 30
0.0
 42
0.4142135623730951
  0
VERTEX
  5
2C6
  8
0
 10
5929.4644296058132
 20
-923.17047648579137
 30
0.0
  0
VERTEX
  5
2C7
  8
0
 10
5929.4644296058132
 20
-949.67047648579126
 30
0.0
  0
VERTEX
  5
2C8
  8
0
 10
5926.4644296058132
 20
-949.67047648579126
 30
0.0
  0
SEQEND
  5
2C9
  8
0
  0
POLYLINE
  5
1B8
  8
0
 66
     1
 10
0.0
 20
0.0
 30
0.0
  0
VERTEX
  5
2CA
  8
0
 10
5926.4644296058132
 20
-949.67047648579126
 30
0.0
  0
VERTEX
  5
2CB
  8
0
 10
5810.7358126278314
 20
-895.97123183337669
 30
0.0
  0
VERTEX
  5
2CC
  8
0
 10
5810.7358126278314
 20
-816.99688567927205
 30
0.0
  0
VERTEX
  5
2CD
  8
0
 10
5813.7358126278323
 20
-816.99688567927205
 30
0.0
  0
VERTEX
  5
2CE
  8
0
 10
5813.7358126278323
 20
-843.49688567927194
 30
0.0
 42
0.4142135623730951
  0
VERTEX
  5
2CF
  8
0
 10
5825.2358126278314
 20
-854.99688567927205
 30
0.0
  0
VERTEX
  5
2D0
  8
0
 10
5843.2358126278314
 20
-854.99688567927205
 30
0.0
 42
-0.6756172579278396
  0
VERTEX
  5
2D1
  8
0
 10
5857.085084829102
 20
-889.4259417639629
 30
0.0
 42
0.5202349285349748
  0
VERTEX
  5
2D2
  8
0
 10
5858.2119671628943
 20
-896.70894662535966
 30
0.0
 42
0.2330242540743163
  0
VERTEX
  5
2D3
  8
0
 10
5972.2596580928448
 20
-896.70894662532396
 30
0.0
 42
0.5202349285350968
  0
VERTEX
  5
2D4
  8
0
 10
5973.386540426568
 20
-889.42594176396858
 30
0.0
 42
-0.6756172579278675
  0
VERTEX
  5
2D5
  8
0
 10
5987.2358126278314
 20
-854.99688567927114
 30
0.0
  0
VERTEX
  5
2D6
  8
0
 10
6005.2358126278314
 20
-854.99688567927205
 30
0.0
 42
0.4142135623730951
  0
VERTEX
  5
2D7
  8
0
 10
6016.7358126278323
 20
-843.49688567927194
 30
0.0
  0
VERTEX
  5
2D8
  8
0
 10
6016.7358126278323
 20
-816.99688567927205
 30
0.0
  0
VERTEX
  5
2D9
  8
0
 10
5813.7358126278323
 20
-816.99688567927205
 30
0.0
  0
VERTEX
  5
2DA
  8
0
 10
5813.7358126278323
 20
-790.49688567927205
 30
0.0
 42
-0.4142135623730951
  0
VERTEX
  5
2DB
  8
0
 10
5825.2358126278314
 20
-778.99688567927205
 30
0.0
  0
VERTEX
  5
2DC
  8
0
 10
5843.2358126278314
 20
-778.99688567927205
 30
0.0
 42
0.6756172579278466
  0
VERTEX
  5
2DD
  8
0
 10
5857.085084829102
 20
-744.5678295945811
 30
0.0
 42
-0.5202349285349739
  0
VERTEX
  5
2DE
  8
0
 10
5858.2119671628943
 20
-737.28482473318422
 30
0.0
 42
-0.2330242540743168
  0
VERTEX
  5
2DF
  8
0
 10
5972.2596580928448
 20
-737.28482473322015
 30
0.0
 42
-0.5202349285350923
  0
VERTEX
  5
2E0
  8
0
 10
5973.386540426568
 20
-744.56782959457541
 30
0.0
 42
0.6756172579278675
  0
VERTEX
  5
2E1
  8
0
 10
5987.2358126278314
 20
-778.99688567927285
 30
0.0
  0
VERTEX
  5
2E2
  8
0
 10
6005.2358126278314
 20
-778.99688567927205
 30
0.0
 42
-0.4142135623730951
  0
VERTEX
  5
2E3
  8
0
 10
6016.7358126278323
 20
-790.49688567927205
 30
0.0
  0
VERTEX
  5
2E4
  8
0
 10
6016.7358126278323
 20
-816.99688567927205
 30
0.0
  0
VERTEX
  5
2E5
  8
0
 10
6043.3358126278317
 20
-816.99688567927205
 30
0.0
  0
SEQEND
  5
2E6
  8
0
  0
POLYLINE
  5
1B9
  8
0
 66
     1
 10
0.0
 20
0.0
 30
0.0
  0
VERTEX
  5
2E7
  8
0
 10
6043.3358126278317
 20
-816.99688567927205
 30
0.0
  0
VERTEX
  5
2E8
  8
0
 10
6046.3358126278308
 20
-816.99688567927205
 30
0.0
  0
VERTEX
  5
2E9
  8
0
 10
6046.3358126278308
 20
-843.49688567927194
 30
0.0
 42
0.4142135623730951
  0
VERTEX
  5
2EA
  8
0
 10
6057.8358126278317
 20
-854.99688567927205
 30
0.0
  0
VERTEX
  5
2EB
  8
0
 10
6075.8358126278317
 20
-854.99688567927205
 30
0.0
 42
-0.6756172579278431
  0
VERTEX
  5
2EC
  8
0
 10
6089.6850848291033
 20
-889.4259417639629
 30
0.0
 42
0.5202349285349733
  0
VERTEX
  5
2ED
  8
0
 10
6090.8119671628947
 20
-896.70894662536
 30
0.0
 42
0.2330242540743151
  0
VERTEX
  5
2EE
  8
0
 10
6204.8596580928452
 20
-896.70894662532396
 30
0.0
 42
0.520234928535099
  0
VERTEX
  5
2EF
  8
0
 10
6205.9865404265684
 20
-889.42594176396858
 30
0.0
 42
-0.6756172579278658
  0
VERTEX
  5
2F0
  8
0
 10
6219.8358126278317
 20
-854.99688567927114
 30
0.0
  0
VERTEX
  5
2F1
  8
0
 10
6237.8358126278317
 20
-854.99688567927205
 30
0.0
 42
0.4142135623730951
  0
VERTEX
  5
2F2
  8
0
 10
6249.3358126278308
 20
-843.49688567927194
 30
0.0
  0
VERTEX
  5
2F3
  8
0
 10
6249.3358126278308
 20
-816.99688567927205
 30
0.0
  0
VERTEX
  5
2F4
  8
0
 10
6046.3358126278308
 20
-816.99688567927205
 30
0.0
  0
VERTEX
  5
2F5
  8
0
 10
6046.3358126278308
 20
-790.49688567927205
 30
0.0
 42
-0.4142135623730951
  0
VERTEX
  5
2F6
  8
0
 10
6057.8358126278317
 20
-778.99688567927205
 30
0.0
  0
VERTEX
  5
2F7
  8
0
 10
6075.8358126278317
 20
-778.99688567927205
 30
0.0
 42
0.6756172579278466
  0
VERTEX
  5
2F8
  8
0
 10
6089.6850848291033
 20
-744.5678295945811
 30
0.0
 42
-0.5202349285349732
  0
VERTEX
  5
2F9
  8
0
 10
6090.8119671628947
 20
-737.28482473318411
 30
0.0
 42
-0.2330242540743151
  0
VERTEX
  5
2FA
  8
0
 10
6204.8596580928452
 20
-737.28482473322015
 30
0.0
 42
-0.5202349285350906
  0
VERTEX
  5
2FB
  8
0
 10
6205.9865404265684
 20
-744.56782959457553
 30
0.0
 42
0.6756172579278658
  0
VERTEX
  5
2FC
  8
0
 10
6219.8358126278317
 20
-778.99688567927285
 30
0.0
  0
VERTEX
  5
2FD
  8
0
 10
6237.8358126278317
 20
-778.99688567927205
 30
0.0
 42
-0.4142135623730951
  0
VERTEX
  5
2FE
  8
0
 10
6249.3358126278308
 20
-790.49688567927205
 30
0.0
  0
VERTEX
  5
2FF
  8
0
 10
6249.3358126278308
 20
-816.99688567927205
 30
0.0
  0
VERTEX
  5
300
  8
0
 10
6275.9358126278321
 20
-816.99688567927205
 30
0.0
  0
SEQEND
  5
301
  8
0
  0
POLYLINE
  5
1BA
  8
0
 66
     1
 10
0.0
 20
0.0
 30
0.0
  0
VERTEX
  5
302
  8
0
 10
6275.9358126278321
 20
-816.99688567927205
 30
0.0
  0
VERTEX
  5
303
  8
0
 10
6278.9358126278321
 20
-816.99688567927205
 30
0.0
  0
VERTEX
  5
304
  8
0
 10
6278.9358126278321
 20
-843.49688567927194
 30
0.0
 42
0.4142135623730951
  0
VERTEX
  5
305
  8
0
 10
6290.435812627833
 20
-854.99688567927205
 30
0.0
  0
VERTEX
  5
306
  8
0
 10
6308.4358126278321
 20
-854.99688567927205
 30
0.0
 42
-0.6756172579278431
  0
VERTEX
  5
307
  8
0
 10
6322.2850848291027
 20
-889.4259417639629
 30
0.0
 42
0.5202349285349733
  0
VERTEX
  5
308
  8
0
 10
6323.4119671628951
 20
-896.70894662536
 30
0.0
 42
0.2330242540743151
  0
VERTEX
  5
309
  8
0
 10
6437.4596580928446
 20
-896.70894662532396
 30
0.0
 42
0.520234928535099
  0
VERTEX
  5
30A
  8
0
 10
6438.5865404265687
 20
-889.42594176396858
 30
0.0
 42
-0.6756172579278658
  0
VERTEX
  5
30B
  8
0
 10
6452.4358126278321
 20
-854.99688567927114
 30
0.0
  0
VERTEX
  5
30C
  8
0
 10
6470.4358126278321
 20
-854.99688567927205
 30
0.0
 42
0.4142135623730951
  0
VERTEX
  5
30D
  8
0
 10
6481.9358126278312
 20
-843.49688567927194
 30
0.0
  0
VERTEX
  5
30E
  8
0
 10
6481.9358126278312
 20
-816.99688567927205
 30
0.0
  0
VERTEX
  5
30F
  8
0
 10
6278.9358126278321
 20
-816.99688567927205
 30
0.0
  0
VERTEX
  5
310
  8
0
 10
6278.9358126278321
 20
-790.49688567927205
 30
0.0
 42
-0.4142135623730951
  0
VERTEX
  5
311
  8
0
 10
6290.435812627833
 20
-778.99688567927205
 30
0.0
  0
VERTEX
  5
312
  8
0
 10
6308.4358126278321
 20
-778.99688567927205
 30
0.0
 42
0.6756172579278466
  0
VERTEX
  5
313
  8
0
 10
6322.2850848291027
 20
-744.5678295945811
 30
0.0
 42
-0.5202349285349732
  0
VERTEX
  5
314
  8
0
 10
6323.4119671628951
 20
-737.28482473318411
 30
0.0
 42
-0.2330242540743151
  0
VERTEX
  5
315
  8
0
 10
6437.4596580928446
 20
-737.28482473322015
 30
0.0
 42
-0.5202349285350906
  0
VERTEX
  5
316
  8
0
 10
6438.5865404265687
 20
-744.56782959457553
 30
0.0
 42
0.6756172579278658
  0
VERTEX
  5
317
  8
0
 10
6452.4358126278321
 20
-778.99688567927285
 30
0.0
  0
VERTEX
  5
318
  8
0
 10
6470.4358126278321
 20
-778.99688567927205
 30
0.0
 42
-0.4142135623730951
  0
VERTEX
  5
319
  8
0
 10
6481.9358126278312
 20
-790.49688567927205
 30
0.0
  0
VERTEX
  5
31A
  8
0
 10
6481.9358126278312
 20
-816.99688567927205
 30
0.0
  0
VERTEX
  5
31B
  8
0
 10
6508.5358126278315
 20
-816.99688567927205
 30
0.0
  0
SEQEND
  5
31C
  8
0
  0
POLYLINE
  5
1BB
  8
0
 66
     1
 10
0.0
 20
0.0
 30
0.0
  0
VERTEX
  5
31D
  8
0
 10
6508.5358126278315
 20
-816.99688567927205
 30
0.0
  0
VERTEX
  5
31E
  8
0
 10
6511.5358126278315
 20
-816.99688567927205
 30
0.0
  0
VERTEX
  5
31F
  8
0
 10
6511.5358126278315
 20
-843.49688567927194
 30
0.0
 42
0.4142135623730951
  0
VERTEX
  5
320
  8
0
 10
6523.0358126278334
 20
-854.99688567927205
 30
0.0
  0
VERTEX
  5
321
  8
0
 10
6541.0358126278315
 20
-854.99688567927205
 30
0.0
 42
-0.6756172579278431
  0
VERTEX
  5
322
  8
0
 10
6554.885084829104
 20
-889.4259417639629
 30
0.0
 42
0.5202349285349733
  0
VERTEX
  5
323
  8
0
 10
6556.0119671628954
 20
-896.70894662536
 30
0.0
 42
0.2330242540743151
  0
VERTEX
  5
324
  8
0
 10
6670.0596580928459
 20
-896.70894662532396
 30
0.0
 42
0.520234928535099
  0
VERTEX
  5
325
  8
0
 10
6671.1865404265691
 20
-889.42594176396858
 30
0.0
 42
-0.6756172579278658
  0
VERTEX
  5
326
  8
0
 10
6685.0358126278315
 20
-854.99688567927114
 30
0.0
  0
VERTEX
  5
327
  8
0
 10
6703.0358126278334
 20
-854.99688567927205
 30
0.0
 42
0.4142135623730951
  0
VERTEX
  5
328
  8
0
 10
6714.5358126278334
 20
-843.49688567927194
 30
0.0
  0
VERTEX
  5
329
  8
0
 10
6714.5358126278334
 20
-816.99688567927205
 30
0.0
  0
VERTEX
  5
32A
  8
0
 10
6511.5358126278315
 20
-816.99688567927205
 30
0.0
  0
VERTEX
  5
32B
  8
0
 10
6511.5358126278315
 20
-790.49688567927205
 30
0.0
 42
-0.4142135623730951
  0
VERTEX
  5
32C
  8
0
 10
6523.0358126278334
 20
-778.99688567927205
 30
0.0
  0
VERTEX
  5
32D
  8
0
 10
6541.0358126278315
 20
-778.99688567927205
 30
0.0
 42
0.6756172579278466
  0
VERTEX
  5
32E
  8
0
 10
6554.885084829104
 20
-744.5678295945811
 30
0.0
 42
-0.5202349285349732
  0
VERTEX
  5
32F
  8
0
 10
6556.0119671628954
 20
-737.28482473318411
 30
0.0
 42
-0.2330242540743151
  0
VERTEX
  5
330
  8
0
 10
6670.0596580928459
 20
-737.28482473322015
 30
0.0
 42
-0.5202349285350906
  0
VERTEX
  5
331
  8
0
 10
6671.1865404265691
 20
-744.56782959457553
 30
0.0
 42
0.6756172579278658
  0
VERTEX
  5
332
  8
0
 10
6685.0358126278315
 20
-778.99688567927285
 30
0.0
  0
VERTEX
  5
333
  8
0
 10
6703.0358126278334
 20
-778.99688567927205
 30
0.0
 42
-0.4142135623730951
  0
VERTEX
  5
334
  8
0
 10
6714.5358126278334
 20
-790.49688567927205
 30
0.0
  0
VERTEX
  5
335
  8
0
 10
6714.5358126278334
 20
-816.99688567927205
 30
0.0
  0
VERTEX
  5
336
  8
0
 10
6741.1358126278328
 20
-816.99688567927205
 30
0.0
  0
SEQEND
  5
337
  8
0
  0
POLYLINE
  5
1BC
  8
0
 66
     1
 10
0.0
 20
0.0
 30
0.0
  0
VERTEX
  5
338
  8
0
 10
6741.1358126278328
 20
-816.99688567927205
 30
0.0
  0
VERTEX
  5
339
  8
0
 10
6744.1358126278328
 20
-816.99688567927205
 30
0.0
  0
VERTEX
  5
33A
  8
0
 10
6744.1358126278328
 20
-843.49688567927194
 30
0.0
 42
0.4142135623730951
  0
VERTEX
  5
33B
  8
0
 10
6755.6358126278328
 20
-854.99688567927205
 30
0.0
  0
VERTEX
  5
33C
  8
0
 10
6773.6358126278328
 20
-854.99688567927205
 30
0.0
 42
-0.6756172579278431
  0
VERTEX
  5
33D
  8
0
 10
6787.4850848291026
 20
-889.4259417639629
 30
0.0
 42
0.5202349285349733
  0
VERTEX
  5
33E
  8
0
 10
6788.6119671628958
 20
-896.70894662536
 30
0.0
 42
0.2330242540743151
  0
VERTEX
  5
33F
  8
0
 10
6902.6596580928472
 20
-896.70894662532396
 30
0.0
 42
0.520234928535099
  0
VERTEX
  5
340
  8
0
 10
6903.7865404265704
 20
-889.42594176396858
 30
0.0
 42
-0.6756172579278658
  0
VERTEX
  5
341
  8
0
 10
6917.6358126278328
 20
-854.99688567927114
 30
0.0
  0
VERTEX
  5
342
  8
0
 10
6935.6358126278328
 20
-854.99688567927205
 30
0.0
 42
0.4142135623730951
  0
VERTEX
  5
343
  8
0
 10
6947.1358126278328
 20
-843.49688567927194
 30
0.0
  0
VERTEX
  5
344
  8
0
 10
6947.1358126278328
 20
-816.99688567927205
 30
0.0
  0
VERTEX
  5
345
  8
0
 10
6744.1358126278328
 20
-816.99688567927205
 30
0.0
  0
VERTEX
  5
346
  8
0
 10
6744.1358126278328
 20
-790.49688567927205
 30
0.0
 42
-0.4142135623730951
  0
VERTEX
  5
347
  8
0
 10
6755.6358126278328
 20
-778.99688567927205
 30
0.0
  0
VERTEX
  5
348
  8
0
 10
6773.6358126278328
 20
-778.99688567927205
 30
0.0
 42
0.6756172579278466
  0
VERTEX
  5
349
  8
0
 10
6787.4850848291026
 20
-744.5678295945811
 30
0.0
 42
-0.5202349285349732
  0
VERTEX
  5
34A
  8
0
 10
6788.6119671628958
 20
-737.28482473318411
 30
0.0
 42
-0.2330242540743151
  0
VERTEX
  5
34B
  8
0
 10
6902.6596580928472
 20
-737.28482473322015
 30
0.0
 42
-0.5202349285350906
  0
VERTEX
  5
34C
  8
0
 10
6903.7865404265704
 20
-744.56782959457553
 30
0.0
 42
0.6756172579278658
  0
VERTEX
  5
34D
  8
0
 10
6917.6358126278328
 20
-778.99688567927285
 30
0.0
  0
VERTEX
  5
34E
  8
0
 10
6935.6358126278328
 20
-778.99688567927205
 30
0.0
 42
-0.4142135623730951
  0
VERTEX
  5
34F
  8
0
 10
6947.1358126278328
 20
-790.49688567927205
 30
0.0
  0
VERTEX
  5
350
  8
0
 10
6947.1358126278328
 20
-816.99688567927205
 30
0.0
  0
VERTEX
  5
351
  8
0
 10
6973.7358126278332
 20
-816.99688567927205
 30
0.0
  0
SEQEND
  5
352
  8
0
  0
POLYLINE
  5
1BD
  8
0
 66
     1
 10
0.0
 20
0.0
 30
0.0
  0
VERTEX
  5
353
  8
0
 10
6973.7358126278332
 20
-816.99688567927205
 30
0.0
  0
VERTEX
  5
354
  8
0
 10
6976.7358126278341
 20
-816.99688567927205
 30
0.0
  0
VERTEX
  5
355
  8
0
 10
6976.7358126278341
 20
-843.49688567927194
 30
0.0
 42
0.4142135623730951
  0
VERTEX
  5
356
  8
0
 10
6988.2358126278332
 20
-854.99688567927205
 30
0.0
  0
VERTEX
  5
357
  8
0
 10
7006.2358126278341
 20
-854.99688567927205
 30
0.0
 42
-0.6756172579278431
  0
VERTEX
  5
358
  8
0
 10
7020.0850848291038
 20
-889.4259417639629
 30
0.0
 42
0.5202349285349733
  0
VERTEX
  5
359
  8
0
 10
7021.2119671628971
 20
-896.70894662536
 30
0.0
 42
0.2330242540743151
  0
VERTEX
  5
35A
  8
0
 10
7135.2596580928457
 20
-896.70894662532396
 30
0.0
 42
0.520234928535099
  0
VERTEX
  5
35B
  8
0
 10
7136.3865404265698
 20
-889.42594176396858
 30
0.0
 42
-0.6756172579278658
  0
VERTEX
  5
35C
  8
0
 10
7150.2358126278332
 20
-854.99688567927114
 30
0.0
  0
VERTEX
  5
35D
  8
0
 10
7168.2358126278332
 20
-854.99688567927205
 30
0.0
 42
0.4142135623730951
  0
VERTEX
  5
35E
  8
0
 10
7179.7358126278341
 20
-843.49688567927194
 30
0.0
  0
VERTEX
  5
35F
  8
0
 10
7179.7358126278341
 20
-816.99688567927205
 30
0.0
  0
VERTEX
  5
360
  8
0
 10
6976.7358126278341
 20
-816.99688567927205
 30
0.0
  0
VERTEX
  5
361
  8
0
 10
6976.7358126278341
 20
-790.49688567927205
 30
0.0
 42
-0.4142135623730951
  0
VERTEX
  5
362
  8
0
 10
6988.2358126278332
 20
-778.99688567927205
 30
0.0
  0
VERTEX
  5
363
  8
0
 10
7006.2358126278341
 20
-778.99688567927205
 30
0.0
 42
0.6756172579278466
  0
VERTEX
  5
364
  8
0
 10
7020.0850848291038
 20
-744.5678295945811
 30
0.0
 42
-0.5202349285349732
  0
VERTEX
  5
365
  8
0
 10
7021.2119671628971
 20
-737.28482473318411
 30
0.0
 42
-0.2330242540743151
  0
VERTEX
  5
366
  8
0
 10
7135.2596580928457
 20
-737.28482473322015
 30
0.0
 42
-0.5202349285350906
  0
VERTEX
  5
367
  8
0
 10
7136.3865404265698
 20
-744.56782959457553
 30
0.0
 42
0.6756172579278658
  0
VERTEX
  5
368
  8
0
 10
7150.2358126278332
 20
-778.99688567927285
 30
0.0
  0
VERTEX
  5
369
  8
0
 10
7168.2358126278332
 20
-778.99688567927205
 30
0.0
 42
-0.4142135623730951
  0
VERTEX
  5
36A
  8
0
 10
7179.7358126278341
 20
-790.49688567927205
 30
0.0
  0
VERTEX
  5
36B
  8
0
 10
7179.7358126278341
 20
-816.99688567927205
 30
0.0
  0
VERTEX
  5
36C
  8
0
 10
7206.3358126278326
 20
-816.99688567927205
 30
0.0
  0
SEQEND
  5
36D
  8
0
  0
LINE
  5
1BF
  8
0
 10
7505.350461084955
 20
-816.99688567927205
 30
0.0
 11
7508.350461084955
 21
-816.99688567927205
 31
0.0
  0
LINE
  5
1C0
  8
0
 10
7508.350461084955
 20
-816.99688567927205
 30
0.0
 11
7508.350461084955
 21
-843.49688567927194
 31
0.0
  0
ARC
  5
1C1
  8
0
 10
7519.850461084955
 20
-843.49688567927194
 30
0.0
 40
11.5
 50
180.0
 51
270.0
  0
LINE
  5
1C2
  8
0
 10
7519.850461084955
 20
-854.99688567927205
 30
0.0
 11
7537.8504610849541
 21
-854.99688567927205
 31
0.0
  0
ARC
  5
1C3
  8
0
 10
7537.8504610849586
 20
-874.99688567927137
 30
0.0
 40
19.999999999999201
 50
313.82544273194281
 51
90.000000000010402
  0
ARC
  5
1C4
  8
0
 10
7554.8158195315609
 20
-892.67247938301034
 30
0.0
 40
4.5000000000286651
 50
133.82544273247601
 51
243.76554681675449
  0
ARC
  5
1C5
  8
0
 10
7609.8504610849568
 20
-780.99688567920725
 30
0.0
 40
129.00000000005971
 50
243.76554681623711
 51
296.23445318379902
  0
ARC
  5
1C6
  8
0
 10
7664.8851026384073
 20
-892.67247938301955
 30
0.0
 40
4.4999999999962101
 50
296.2344531837079
 51
46.174557268023868
  0
ARC
  5
1C7
  8
0
 10
7681.850461084955
 20
-874.99688567927194
 30
0.0
 40
20.000000000000821
 50
90.000000000002615
 51
226.17455726807279
  0
LINE
  5
1C8
  8
0
 10
7681.850461084955
 20
-854.99688567927114
 30
0.0
 11
7699.850461084955
 21
-854.99688567927205
 31
0.0
  0
ARC
  5
1C9
  8
0
 10
7699.850461084955
 20
-843.49688567927194
 30
0.0
 40
11.5
 50
270.0
 51
0.0
  0
LINE
  5
1CA
  8
0
 10
7711.3504610849541
 20
-843.49688567927194
 30
0.0
 11
7711.3504610849541
 21
-816.99688567927205
 31
0.0
  0
LINE
  5
1CB
  8
0
 10
7711.3504610849541
 20
-816.99688567927205
 30
0.0
 11
7508.350461084955
 21
-816.99688567927205
 31
0.0
  0
LINE
  5
1CC
  8
0
 10
7508.350461084955
 20
-816.99688567927205
 30
0.0
 11
7508.350461084955
 21
-790.49688567927205
 31
0.0
  0
ARC
  5
1CD
  8
0
 10
7519.850461084955
 20
-790.49688567927205
 30
0.0
 40
11.5
 50
90.0
 51
180.0
  0
LINE
  5
1CE
  8
0
 10
7519.850461084955
 20
-778.99688567927205
 30
0.0
 11
7537.8504610849541
 21
-778.99688567927205
 31
0.0
  0
ARC
  5
1CF
  8
0
 10
7537.8504610849586
 20
-758.99688567927285
 30
0.0
 40
19.999999999999091
 50
269.9999999999896
 51
46.174557268057399
  0
ARC
  5
1D0
  8
0
 10
7554.8158195315609
 20
-741.32129197553365
 30
0.0
 40
4.5000000000287459
 50
116.23445318324551
 51
226.1745572675249
  0
ARC
  5
1D1
  8
0
 10
7609.8504610849568
 20
-852.99688567933686
 30
0.0
 40
129.00000000005971
 50
63.765546816201017
 51
116.23445318376289
  0
ARC
  5
1D2
  8
0
 10
7664.8851026384073
 20
-741.32129197552445
 30
0.0
 40
4.4999999999966107
 50
313.82544273198448
 51
63.765546816281713
  0
ARC
  5
1D3
  8
0
 10
7681.850461084955
 20
-758.99688567927205
 30
0.0
 40
20.000000000000821
 50
133.82544273192721
 51
269.99999999999733
  0
LINE
  5
1D4
  8
0
 10
7681.850461084955
 20
-778.99688567927285
 30
0.0
 11
7699.850461084955
 21
-778.99688567927205
 31
0.0
  0
ARC
  5
1D5
  8
0
 10
7699.850461084955
 20
-790.49688567927205
 30
0.0
 40
11.5
 50
0.0
 51
90.0
  0
LINE
  5
1D6
  8
0
 10
7711.3504610849541
 20
-790.49688567927205
 30
0.0
 11
7711.3504610849541
 21
-816.99688567927205
 31
0.0
  0
LINE
  5
1D7
  8
0
 10
7711.3504610849541
 20
-816.99688567927205
 30
0.0
 11
7737.9504610849554
 21
-816.99688567927205
 31
0.0
  0
POLYLINE
  5
1F5
  8
0
 66
     1
 10
0.0
 20
0.0
 30
0.0
  0
VERTEX
  5
36E
  8
0
 10
7206.3358126278326
 20
-816.99688567927205
 30
0.0
  0
VERTEX
  5
36F
  8
0
 10
7214.880867094158
 20
-815.10260326769287
 30
0.0
 42
0.5202349285347215
  0
VERTEX
  5
370
  8
0
 10
7222.1638719555467
 20
-816.22948560149223
 30
0.0
 42
-0.6756172579279842
  0
VERTEX
  5
371
  8
0
 10
7256.5929280402452
 20
-830.07875780275492
 30
0.0
  0
VERTEX
  5
372
  8
0
 10
7256.5929280402452
 20
-848.07875780275481
 30
0.0
 42
0.4142135623730951
  0
VERTEX
  5
373
  8
0
 10
7268.0929280402461
 20
-859.57875780275492
 30
0.0
  0
VERTEX
  5
374
  8
0
 10
7294.592928040247
 20
-859.57875780275492
 30
0.0
  0
VERTEX
  5
375
  8
0
 10
7294.592928040247
 20
-656.57875780275469
 30
0.0
  0
VERTEX
  5
376
  8
0
 10
7268.0929280402461
 20
-656.57875780275469
 30
0.0
 42
0.4142135623730951
  0
VERTEX
  5
377
  8
0
 10
7256.5929280402452
 20
-668.07875780275481
 30
0.0
  0
VERTEX
  5
378
  8
0
 10
7256.592928040247
 20
-686.07875780275378
 30
0.0
 42
-0.6756172579279842
  0
VERTEX
  5
379
  8
0
 10
7222.1638719555503
 20
-699.92803000401807
 30
0.0
 42
0.520234928534998
  0
VERTEX
  5
37A
  8
0
 10
7214.8808670941689
 20
-701.05491233779242
 30
0.0
 42
0.2330242540742477
  0
VERTEX
  5
37B
  8
0
 10
7214.880867094158
 20
-815.10260326769287
 30
0.0
  0
VERTEX
  5
37C
  8
0
 10
7106.8410855195943
 20
-688.36122317378022
 30
0.0
  0
VERTEX
  5
37D
  8
0
 10
7078.9397034965123
 20
-682.55911304211634
 30
0.0
  0
SEQEND
  5
37E
  8
0
  0
POLYLINE
  5
1F6
  8
0
 66
     1
 10
0.0
 20
0.0
 30
0.0
  0
VERTEX
  5
37F
  8
0
 10
7078.9397034965123
 20
-682.55911304211634
 30
0.0
  0
VERTEX
  5
380
  8
0
 10
7063.9397034965123
 20
-682.55911304211634
 30
0.0
  0
VERTEX
  5
381
  8
0
 10
7063.9397034965123
 20
-709.05911304211634
 30
0.0
 42
-0.4142135623730951
  0
VERTEX
  5
382
  8
0
 10
7052.4397034965123
 20
-720.55911304211634
 30
0.0
  0
VERTEX
  5
383
  8
0
 10
7034.4397034965132
 20
-720.55911304211543
 30
0.0
 42
0.6756172579278742
  0
VERTEX
  5
384
  8
0
 10
7020.590431295248
 20
-754.98816912681264
 30
0.0
 42
-0.5202349285351501
  0
VERTEX
  5
385
  8
0
 10
7019.4635489615193
 20
-762.2711739881712
 30
0.0
 42
-0.2330242540743146
  0
VERTEX
  5
386
  8
0
 10
6905.4158580315743
 20
-762.27117398820417
 30
0.0
 42
-0.5202349285349318
  0
VERTEX
  5
387
  8
0
 10
6904.2889756977811
 20
-754.98816912680797
 30
0.0
 42
0.6756172579278771
  0
VERTEX
  5
388
  8
0
 10
6890.4397034965114
 20
-720.55911304211645
 30
0.0
  0
VERTEX
  5
389
  8
0
 10
6872.4397034965123
 20
-720.55911304211634
 30
0.0
 42
-0.4142135623730951
  0
VERTEX
  5
38A
  8
0
 10
6860.9397034965114
 20
-709.05911304211634
 30
0.0
  0
VERTEX
  5
38B
  8
0
 10
6860.9397034965114
 20
-682.55911304211634
 30
0.0
  0
VERTEX
  5
38C
  8
0
 10
7063.9397034965123
 20
-682.55911304211634
 30
0.0
  0
VERTEX
  5
38D
  8
0
 10
7063.9397034965123
 20
-671.55911304211634
 30
0.0
  0
SEQEND
  5
38E
  8
0
  0
POLYLINE
  5
208
  8
0
 66
     1
 10
0.0
 20
0.0
 30
0.0
  0
VERTEX
  5
38F
  8
0
 10
7063.9397034965123
 20
-671.55911304211634
 30
0.0
  0
VERTEX
  5
390
  8
0
 10
6846.238236247138
 20
-671.55911304211634
 30
0.0
  0
VERTEX
  5
391
  8
0
 10
6846.238236247138
 20
-682.55911304211634
 30
0.0
  0
VERTEX
  5
392
  8
0
 10
6831.238236247138
 20
-682.55911304211634
 30
0.0
  0
VERTEX
  5
393
  8
0
 10
6831.238236247138
 20
-709.05911304211634
 30
0.0
 42
-0.4142135623730951
  0
VERTEX
  5
394
  8
0
 10
6819.738236247139
 20
-720.55911304211634
 30
0.0
  0
VERTEX
  5
395
  8
0
 10
6801.738236247139
 20
-720.55911304211543
 30
0.0
 42
0.6756172579278756
  0
VERTEX
  5
396
  8
0
 10
6787.8889640458747
 20
-754.98816912681264
 30
0.0
 42
-0.520234928535173
  0
VERTEX
  5
397
  8
0
 10
6786.762081712146
 20
-762.2711739881712
 30
0.0
 42
-0.2330242540743144
  0
VERTEX
  5
398
  8
0
 10
6672.714390782201
 20
-762.27117398820417
 30
0.0
 42
-0.5202349285348581
  0
VERTEX
  5
399
  8
0
 10
6671.5875084484078
 20
-754.98816912680797
 30
0.0
 42
0.6756172579278978
  0
VERTEX
  5
39A
  8
0
 10
6657.738236247138
 20
-720.55911304211645
 30
0.0
  0
VERTEX
  5
39B
  8
0
 10
6639.7382362471371
 20
-720.55911304211634
 30
0.0
 42
-0.4142135623730951
  0
VERTEX
  5
39C
  8
0
 10
6628.238236247138
 20
-709.05911304211634
 30
0.0
  0
VERTEX
  5
39D
  8
0
 10
6628.238236247138
 20
-682.55911304211634
 30
0.0
  0
VERTEX
  5
39E
  8
0
 10
6831.238236247138
 20
-682.55911304211634
 30
0.0
  0
VERTEX
  5
39F
  8
0
 10
6831.238236247138
 20
-671.55911304211634
 30
0.0
  0
SEQEND
  5
3A0
  8
0
  0
POLYLINE
  5
209
  8
0
 66
     1
 10
0.0
 20
0.0
 30
0.0
  0
VERTEX
  5
3A1
  8
0
 10
6831.238236247138
 20
-671.55911304211634
 30
0.0
  0
VERTEX
  5
3A2
  8
0
 10
6613.5367689977638
 20
-671.55911304211634
 30
0.0
  0
VERTEX
  5
3A3
  8
0
 10
6613.5367689977638
 20
-682.55911304211634
 30
0.0
  0
VERTEX
  5
3A4
  8
0
 10
6598.5367689977647
 20
-682.55911304211634
 30
0.0
  0
VERTEX
  5
3A5
  8
0
 10
6598.5367689977647
 20
-709.05911304211634
 30
0.0
 42
-0.4142135623730951
  0
VERTEX
  5
3A6
  8
0
 10
6587.0367689977656
 20
-720.55911304211634
 30
0.0
  0
VERTEX
  5
3A7
  8
0
 10
6569.0367689977656
 20
-720.55911304211543
 30
0.0
 42
0.6756172579278756
  0
VERTEX
  5
3A8
  8
0
 10
6555.1874967965023
 20
-754.98816912681264
 30
0.0
 42
-0.520234928535173
  0
VERTEX
  5
3A9
  8
0
 10
6554.0606144627727
 20
-762.2711739881712
 30
0.0
 42
-0.2330242540743144
  0
VERTEX
  5
3AA
  8
0
 10
6440.0129235328277
 20
-762.27117398820417
 30
0.0
 42
-0.5202349285348581
  0
VERTEX
  5
3AB
  8
0
 10
6438.8860411990354
 20
-754.98816912680797
 30
0.0
 42
0.6756172579278978
  0
VERTEX
  5
3AC
  8
0
 10
6425.0367689977647
 20
-720.55911304211645
 30
0.0
  0
VERTEX
  5
3AD
  8
0
 10
6407.0367689977638
 20
-720.55911304211634
 30
0.0
 42
-0.4142135623730951
  0
VERTEX
  5
3AE
  8
0
 10
6395.5367689977638
 20
-709.05911304211634
 30
0.0
  0
VERTEX
  5
3AF
  8
0
 10
6395.5367689977638
 20
-682.55911304211634
 30
0.0
  0
VERTEX
  5
3B0
  8
0
 10
6598.5367689977647
 20
-682.55911304211634
 30
0.0
  0
VERTEX
  5
3B1
  8
0
 10
6598.5367689977647
 20
-671.55911304211634
 30
0.0
  0
SEQEND
  5
3B2
  8
0
  0
POLYLINE
  5
20A
  8
0
 66
     1
 10
0.0
 20
0.0
 30
0.0
  0
VERTEX
  5
3B3
  8
0
 10
6598.5367689977647
 20
-671.55911304211634
 30
0.0
  0
VERTEX
  5
3B4
  8
0
 10
6380.8353017483914
 20
-671.55911304211634
 30
0.0
  0
VERTEX
  5
3B5
  8
0
 10
6380.8353017483914
 20
-682.55911304211634
 30
0.0
  0
VERTEX
  5
3B6
  8
0
 10
6365.8353017483923
 20
-682.55911304211634
 30
0.0
  0
VERTEX
  5
3B7
  8
0
 10
6365.8353017483923
 20
-709.05911304211634
 30
0.0
 42
-0.4142135623730951
  0
VERTEX
  5
3B8
  8
0
 10
6354.3353017483923
 20
-720.55911304211634
 30
0.0
  0
VERTEX
  5
3B9
  8
0
 10
6336.3353017483923
 20
-720.55911304211543
 30
0.0
 42
0.6756172579278756
  0
VERTEX
  5
3BA
  8
0
 10
6322.4860295471281
 20
-754.98816912681264
 30
0.0
 42
-0.520234928535173
  0
VERTEX
  5
3BB
  8
0
 10
6321.3591472133994
 20
-762.2711739881712
 30
0.0
 42
-0.2330242540743144
  0
VERTEX
  5
3BC
  8
0
 10
6207.3114562834553
 20
-762.27117398820417
 30
0.0
 42
-0.5202349285348581
  0
VERTEX
  5
3BD
  8
0
 10
6206.1845739496612
 20
-754.98816912680797
 30
0.0
 42
0.6756172579278978
  0
VERTEX
  5
3BE
  8
0
 10
6192.3353017483923
 20
-720.55911304211645
 30
0.0
  0
VERTEX
  5
3BF
  8
0
 10
6174.3353017483923
 20
-720.55911304211634
 30
0.0
 42
-0.4142135623730951
  0
VERTEX
  5
3C0
  8
0
 10
6162.8353017483914
 20
-709.05911304211634
 30
0.0
  0
VERTEX
  5
3C1
  8
0
 10
6162.8353017483914
 20
-682.55911304211634
 30
0.0
  0
VERTEX
  5
3C2
  8
0
 10
6365.8353017483923
 20
-682.55911304211634
 30
0.0
  0
VERTEX
  5
3C3
  8
0
 10
6365.8353017483923
 20
-671.55911304211634
 30
0.0
  0
SEQEND
  5
3C4
  8
0
  0
POLYLINE
  5
20B
  8
0
 66
     1
 10
0.0
 20
0.0
 30
0.0
  0
VERTEX
  5
3C5
  8
0
 10
6365.8353017483923
 20
-671.55911304211634
 30
0.0
  0
VERTEX
  5
3C6
  8
0
 10
6148.1338344990181
 20
-671.55911304211634
 30
0.0
  0
VERTEX
  5
3C7
  8
0
 10
6148.1338344990181
 20
-682.55911304211634
 30
0.0
  0
VERTEX
  5
3C8
  8
0
 10
6133.1338344990181
 20
-682.55911304211634
 30
0.0
  0
VERTEX
  5
3C9
  8
0
 10
6133.1338344990181
 20
-709.05911304211634
 30
0.0
 42
-0.4142135623730951
  0
VERTEX
  5
3CA
  8
0
 10
6121.6338344990181
 20
-720.55911304211634
 30
0.0
  0
VERTEX
  5
3CB
  8
0
 10
6103.633834499019
 20
-720.55911304211543
 30
0.0
 42
0.6756172579278756
  0
VERTEX
  5
3CC
  8
0
 10
6089.7845622977538
 20
-754.98816912681264
 30
0.0
 42
-0.520234928535173
  0
VERTEX
  5
3CD
  8
0
 10
6088.6576799640252
 20
-762.2711739881712
 30
0.0
 42
-0.2330242540743144
  0
VERTEX
  5
3CE
  8
0
 10
5974.609989034082
 20
-762.27117398820417
 30
0.0
 42
-0.5202349285348581
  0
VERTEX
  5
3CF
  8
0
 10
5973.4831067002879
 20
-754.98816912680797
 30
0.0
 42
0.6756172579278978
  0
VERTEX
  5
3D0
  8
0
 10
5959.6338344990181
 20
-720.55911304211645
 30
0.0
  0
VERTEX
  5
3D1
  8
0
 10
5941.6338344990181
 20
-720.55911304211634
 30
0.0
 42
-0.4142135623730951
  0
VERTEX
  5
3D2
  8
0
 10
5930.1338344990181
 20
-709.05911304211634
 30
0.0
  0
VERTEX
  5
3D3
  8
0
 10
5930.1338344990181
 20
-682.55911304211634
 30
0.0
  0
VERTEX
  5
3D4
  8
0
 10
6133.1338344990181
 20
-682.55911304211634
 30
0.0
  0
VERTEX
  5
3D5
  8
0
 10
6133.1338344990181
 20
-671.55911304211634
 30
0.0
  0
SEQEND
  5
3D6
  8
0
  0
ENDSEC
  0
EOF
