  0
SECTION
  2
HEADER
  9
$ACADVER
  1
AC1009
  9
$INSBASE
 10
0.0
 20
0.0
 30
0.0
  9
$EXTMIN
 10
-18533.089738171351
 20
-11623.205911655579
 30
0.0
  9
$EXTMAX
 10
14872.33744062615
 20
18904.14089451504
 30
0.0
  9
$LIMMIN
 10
0.0
 20
0.0
  9
$LIMMAX
 10
420.0
 20
297.0
  9
$ORTHOMODE
 70
     1
  9
$REGENMODE
 70
     1
  9
$FILLMODE
 70
     1
  9
$QTEXTMODE
 70
     0
  9
$MIRRTEXT
 70
     0
  9
$DRAGMODE
 70
     2
  9
$LTSCALE
 40
1.0
  9
$OSMODE
 70
   279
  9
$ATTMODE
 70
     1
  9
$TEXTSIZE
 40
100.0
  9
$TRACEWID
 40
1.0
  9
$TEXTSTYLE
  7
STANDARD
  9
$CLAYER
  8
0
  9
$CELTYPE
  6
BYLAYER
  9
$CECOLOR
 62
   256
  9
$DIMSCALE
 40
1.0
  9
$DIMASZ
 40
2.5
  9
$DIMEXO
 40
0.625
  9
$DIMDLI
 40
3.75
  9
$DIMRND
 40
0.0
  9
$DIMDLE
 40
0.0
  9
$DIMEXE
 40
1.25
  9
$DIMTP
 40
0.0
  9
$DIMTM
 40
0.0
  9
$DIMTXT
 40
2.5
  9
$DIMCEN
 40
2.5
  9
$DIMTSZ
 40
0.0
  9
$DIMTOL
 70
     0
  9
$DIMLIM
 70
     0
  9
$DIMTIH
 70
     0
  9
$DIMTOH
 70
     0
  9
$DIMSE1
 70
     0
  9
$DIMSE2
 70
     0
  9
$DIMTAD
 70
     1
  9
$DIMZIN
 70
     8
  9
$DIMBLK
  1

  9
$DIMASO
 70
     1
  9
$DIMSHO
 70
     1
  9
$DIMPOST
  1

  9
$DIMAPOST
  1

  9
$DIMALT
 70
     0
  9
$DIMALTD
 70
     3
  9
$DIMALTF
 40
0.03937007874016
  9
$DIMLFAC
 40
1.0
  9
$DIMTOFL
 70
     1
  9
$DIMTVP
 40
0.0
  9
$DIMTIX
 70
     0
  9
$DIMSOXD
 70
     0
  9
$DIMSAH
 70
     0
  9
$DIMBLK1
  1

  9
$DIMBLK2
  1

  9
$DIMSTYLE
  2
ISO-25
  9
$DIMCLRD
 70
     0
  9
$DIMCLRE
 70
     0
  9
$DIMCLRT
 70
     0
  9
$DIMTFAC
 40
1.0
  9
$DIMGAP
 40
0.625
  9
$LUNITS
 70
     2
  9
$LUPREC
 70
     4
  9
$SKETCHINC
 40
1.0
  9
$FILLETRAD
 40
50.0
  9
$AUNITS
 70
     0
  9
$AUPREC
 70
     0
  9
$MENU
  1
.
  9
$ELEVATION
 40
0.0
  9
$PELEVATION
 40
0.0
  9
$THICKNESS
 40
0.0
  9
$LIMCHECK
 70
     0
  9
$BLIPMODE
 70
     0
  9
$CHAMFERA
 40
0.0
  9
$CHAMFERB
 40
0.0
  9
$SKPOLY
 70
     0
  9
$TDCREATE
 40
2455429.8980814121
  9
$TDUPDATE
 40
2455136.4741621059
  9
$TDINDWG
 40
0.2476165856
  9
$TDUSRTIMER
 40
0.2475880671
  9
$USRTIMER
 70
     1
  9
$ANGBASE
 50
0.0
  9
$ANGDIR
 70
     0
  9
$PDMODE
 70
     0
  9
$PDSIZE
 40
0.0
  9
$PLINEWID
 40
0.0
  9
$COORDS
 70
     1
  9
$SPLFRAME
 70
     0
  9
$SPLINETYPE
 70
     6
  9
$SPLINESEGS
 70
     8
  9
$ATTDIA
 70
     0
  9
$ATTREQ
 70
     1
  9
$HANDLING
 70
     1
  9
$HANDSEED
  5
12CC
  9
$SURFTAB1
 70
     6
  9
$SURFTAB2
 70
     6
  9
$SURFTYPE
 70
     6
  9
$SURFU
 70
     6
  9
$SURFV
 70
     6
  9
$UCSNAME
  2

  9
$UCSORG
 10
0.0
 20
0.0
 30
0.0
  9
$UCSXDIR
 10
1.0
 20
0.0
 30
0.0
  9
$UCSYDIR
 10
0.0
 20
1.0
 30
0.0
  9
$PUCSNAME
  2

  9
$PUCSORG
 10
0.0
 20
0.0
 30
0.0
  9
$PUCSXDIR
 10
1.0
 20
0.0
 30
0.0
  9
$PUCSYDIR
 10
0.0
 20
1.0
 30
0.0
  9
$USERI1
 70
     0
  9
$USERI2
 70
     0
  9
$USERI3
 70
     0
  9
$USERI4
 70
     0
  9
$USERI5
 70
     0
  9
$USERR1
 40
0.0
  9
$USERR2
 40
0.0
  9
$USERR3
 40
0.0
  9
$USERR4
 40
0.0
  9
$USERR5
 40
0.0
  9
$WORLDVIEW
 70
     1
  9
$SHADEDGE
 70
     3
  9
$SHADEDIF
 70
    70
  9
$TILEMODE
 70
     1
  9
$MAXACTVP
 70
    64
  9
$PLIMCHECK
 70
     0
  9
$PEXTMIN
 10
0.0
 20
0.0
 30
0.0
  9
$PEXTMAX
 10
0.0
 20
0.0
 30
0.0
  9
$PLIMMIN
 10
0.0
 20
0.0
  9
$PLIMMAX
 10
12.0
 20
9.0
  9
$UNITMODE
 70
     0
  9
$VISRETAIN
 70
     1
  9
$PLINEGEN
 70
     0
  9
$PSLTSCALE
 70
     1
  0
ENDSEC
  0
SECTION
  2
TABLES
  0
TABLE
  2
VPORT
 70
     1
  0
VPORT
  2
*ACTIVE
 70
     0
 10
0.0
 20
0.0
 11
1.0
 21
1.0
 12
-11039.26705954709
 22
-5783.3305599923497
 13
0.0
 23
0.0
 14
10.0
 24
10.0
 15
10.0
 25
10.0
 16
0.0
 26
0.0
 36
1.0
 17
0.0
 27
0.0
 37
0.0
 40
2958.7575851983229
 41
1.783109404990403
 42
50.0
 43
0.0
 44
0.0
 50
0.0
 51
0.0
 71
     0
 72
  1000
 73
     1
 74
     3
 75
     0
 76
     0
 77
     0
 78
     0
  0
ENDTAB
  0
TABLE
  2
LTYPE
 70
     2
  0
LTYPE
  2
CONTINUOUS
 70
     0
  3
Solid line
 72
    65
 73
     0
 40
0.0
  0
ENDTAB
  0
TABLE
  2
LAYER
 70
     2
  0
LAYER
  2
0
 70
     0
 62
     7
  6
CONTINUOUS
  0
LAYER
  2
DEFPOINTS
 70
     0
 62
     7
  6
CONTINUOUS
  0
ENDTAB
  0
TABLE
  2
STYLE
 70
     1
  0
STYLE
  2
STANDARD
 70
     0
 40
0.0
 41
1.0
 50
0.0
 71
     0
 42
100.0
  3
txt
  4

  0
ENDTAB
  0
TABLE
  2
VIEW
 70
     0
  0
ENDTAB
  0
TABLE
  2
UCS
 70
     0
  0
ENDTAB
  0
TABLE
  2
APPID
 70
     3
  0
APPID
  2
ACAD
 70
     0
  0
APPID
  2
ACAD_PSEXT
 70
     0
  0
APPID
  2
ACAD_EXEMPT_FROM_CAD_STANDARDS
 70
     0
  0
ENDTAB
  0
TABLE
  2
DIMSTYLE
 70
     2
  0
DIMSTYLE
  2
ISO-25
 70
     0
  3

  4

  5

  6

  7

 40
1.0
 41
2.5
 42
0.625
 43
3.75
 44
1.25
 45
0.0
 46
0.0
 47
0.0
 48
0.0
140
2.5
141
2.5
142
0.0
143
0.03937007874016
144
1.0
145
0.0
146
1.0
147
0.625
 71
     0
 72
     0
 73
     0
 74
     0
 75
     0
 76
     0
 77
     1
 78
     8
170
     0
171
     3
172
     1
173
     0
174
     0
175
     0
176
     0
177
     0
178
     0
  0
ENDTAB
  0
ENDSEC
  0
SECTION
  2
BLOCKS
  0
BLOCK
  8
0
  2
$MODEL_SPACE
 70
     0
 10
0.0
 20
0.0
 30
0.0
  3
$MODEL_SPACE
  1

  0
ENDBLK
  5
11B8
  8
0
  0
BLOCK
 67
     1
  8
0
  2
$PAPER_SPACE
 70
     0
 10
0.0
 20
0.0
 30
0.0
  3
$PAPER_SPACE
  1

  0
ENDBLK
  5
11B4
 67
     1
  8
0
  0
BLOCK
  8
0
  2
*D3
 70
     1
 10
0.0
 20
0.0
 30
0.0
  3
*D3
  1

  0
LINE
  5
11D3
  8
0
 62
     0
 10
-9239.8976949710923
 20
-4871.0591386281149
 30
0.0
 11
-9239.8976949710923
 21
-3977.1793414429558
 31
0.0
  0
LINE
  5
11D4
  8
0
 62
     0
 10
-12584.89769497109
 20
-4876.0591386281149
 30
0.0
 11
-12584.89769497109
 21
-3977.1793414429558
 31
0.0
  0
LINE
  5
11D5
  8
0
 62
     0
 10
-9242.3976949710923
 20
-3978.4293414429558
 30
0.0
 11
-12582.39769497109
 21
-3978.4293414429558
 31
0.0
  0
SOLID
  5
11D6
  8
0
 62
     0
 10
-9242.3976949710923
 20
-3978.0126747762888
 30
0.0
 11
-9242.3976949710923
 21
-3978.8460081096232
 31
0.0
 12
-9239.8976949710923
 22
-3978.4293414429558
 32
0.0
 13
-9239.8976949710923
 23
-3978.4293414429558
 33
0.0
  0
SOLID
  5
11D7
  8
0
 62
     0
 10
-12582.39769497109
 20
-3978.0126747762888
 30
0.0
 11
-12582.39769497109
 21
-3978.8460081096232
 31
0.0
 12
-12584.89769497109
 22
-3978.4293414429558
 32
0.0
 13
-12584.89769497109
 23
-3978.4293414429558
 33
0.0
  0
INSERT
  5
11D8
  8
0
  2
*U4
 10
0.0
 20
0.0
 30
0.0
  0
POINT
  5
11D9
  8
DEFPOINTS
 62
     0
 10
-9239.8976949710923
 20
-4871.6841386281158
 30
0.0
  0
POINT
  5
11DA
  8
DEFPOINTS
 62
     0
 10
-12584.89769497109
 20
-4876.6841386281158
 30
0.0
  0
POINT
  5
11DB
  8
DEFPOINTS
 62
     0
 10
-12584.89769497109
 20
-3978.4293414429558
 30
0.0
  0
ENDBLK
  5
11DD
  8
0
  0
BLOCK
  8
0
  2
*U4
 70
     1
 10
0.0
 20
0.0
 30
0.0
  3
*U4
  1

  0
TEXT
  5
1239
  8
0
 62
     0
 10
-10916.981028304421
 20
-3977.8043414429558
 30
0.0
 40
2.5
  1
3345
  0
ENDBLK
  5
123B
  8
0
  0
ENDSEC
  0
SECTION
  2
ENTITIES
  0
LINE
  5
116
  8
0
 10
2798.9679392347948
 20
952.33445085039125
 30
0.0
 11
2798.9679392347948
 21
1002.334450850391
 31
0.0
  0
LINE
  5
117
  8
0
 10
2798.9679392347948
 20
1002.334450850391
 30
0.0
 11
1273.967939234795
 21
1002.334450850391
 31
0.0
  0
LINE
  5
118
  8
0
 10
1273.967939234795
 20
1002.334450850391
 30
0.0
 11
1273.967939234795
 21
757.33445085039136
 31
0.0
  0
LINE
  5
119
  8
0
 10
1273.967939234795
 20
757.33445085039136
 30
0.0
 11
1123.967939234795
 21
757.33445085039136
 31
0.0
  0
LINE
  5
11A
  8
0
 10
1123.967939234795
 20
757.33445085039136
 30
0.0
 11
1123.967939234795
 21
569.48447425862605
 31
0.0
  0
LINE
  5
11D
  8
0
 10
2873.9679392347948
 20
812.33445085039125
 30
0.0
 11
2873.9679392347948
 21
762.33445085039125
 31
0.0
  0
LINE
  5
11E
  8
0
 10
2873.9679392347948
 20
762.33445085039125
 30
0.0
 11
1973.967939234795
 21
762.33445085039125
 31
0.0
  0
LINE
  5
11F
  8
0
 10
2873.9679392347948
 20
812.33445085039125
 30
0.0
 11
2873.9679392347948
 21
882.33445085039125
 31
0.0
  0
LINE
  5
120
  8
0
 10
2873.9679392347948
 20
882.33445085039125
 30
0.0
 11
2798.9679392347948
 21
952.33445085039125
 31
0.0
  0
LINE
  5
122
  8
0
 62
     1
 10
2873.9679392347948
 20
812.33445085039125
 30
0.0
 11
1963.967939234795
 21
812.33445085039125
 31
0.0
  0
LINE
  5
123
  8
0
 62
     1
 10
1245.6907323187711
 20
542.98049825688236
 30
0.0
 11
1711.159061291153
 21
717.53112162152559
 31
0.0
  0
LINE
  5
125
  8
0
 10
1245.6907323187711
 20
542.98049825688236
 30
0.0
 11
1263.246904398191
 21
496.16403937842972
 31
0.0
  0
LINE
  5
126
  8
0
 10
1191.524111314214
 20
522.66801538017376
 30
0.0
 11
1245.6907323187711
 21
542.98049825688236
 31
0.0
  0
LINE
  5
128
  8
0
 10
1711.159061291153
 20
717.53112162152559
 30
0.0
 11
1728.7152333705731
 21
670.71466274307318
 31
0.0
  0
LINE
  5
12B
  8
0
 10
1711.159061291153
 20
717.53112162152559
 30
0.0
 11
1863.2863087545611
 21
636.19245272650608
 31
0.0
  0
LINE
  5
12C
  8
0
 10
1935.910252535753
 20
670.57743862260793
 30
0.0
 11
1963.967939234795
 21
812.33445085039125
 31
0.0
  0
LINE
  5
12D
  8
0
 10
1973.967939234795
 20
762.33445085039125
 30
0.0
 11
1973.967939234795
 21
812.33445085039125
 31
0.0
  0
LINE
  5
12E
  8
0
 10
1263.246904398191
 20
496.16403937842972
 30
0.0
 11
1728.7152333705731
 21
670.71466274307318
 31
0.0
  0
ARC
  5
12F
  8
0
 10
1886.8617725159979
 20
680.28550783083301
 30
0.0
 40
50.0
 50
241.8676884681197
 51
348.80426183961202
  0
CIRCLE
  5
133
  8
0
 10
1173.967939234795
 20
569.48447425862605
 30
0.0
 40
15.0
  0
CIRCLE
  5
134
  8
0
 10
1886.8617725159979
 20
680.28550783083301
 30
0.0
 40
15.0
  0
CIRCLE
  5
136
  8
0
 10
1423.967939234795
 20
757.33445085039136
 30
0.0
 40
45.0
  0
LINE
  5
137
  8
0
 62
     1
 10
2798.9679392347948
 20
952.33445085039125
 30
0.0
 11
1273.967939234795
 21
952.33445085039125
 31
0.0
  0
ARC
  5
13E
  8
0
 10
1173.967939234795
 20
569.48447425862605
 30
0.0
 40
50.0
 50
179.99999999999989
 51
290.55604521958332
  0
LINE
  5
13F
  8
0
 62
     1
 10
-3242.1398096298071
 20
1585.2071473819569
 30
0.0
 11
-3242.1398096298071
 21
-3226.2161627185319
 31
0.0
  0
LINE
  5
140
  8
0
 62
     1
 10
-3242.1398096298071
 20
-3226.2161627185319
 30
0.0
 11
5306.7670769443457
 21
-3226.2161627185319
 31
0.0
  0
LINE
  5
141
  8
0
 62
     1
 10
5306.7670769443457
 20
-3226.2161627185319
 30
0.0
 11
5306.7670769443457
 21
1591.464820246113
 31
0.0
  0
TEXT
  5
142
  8
0
 62
     1
 10
-2949.7654201618102
 20
1376.1745020120411
 30
0.0
 40
200.0
  1
m8
  0
LINE
  5
143
  8
0
 62
     1
 10
-3242.1398096298071
 20
-3226.2161627185319
 30
0.0
 11
-9024.4656039523761
 21
-3226.2161627185319
 31
0.0
  0
LINE
  5
144
  8
0
 62
     1
 10
-9024.4656039523761
 20
-3226.2161627185319
 30
0.0
 11
-9024.4656039523761
 21
1556.1598656848851
 31
0.0
  0
LINE
  5
145
  8
0
 62
     1
 10
-9024.4656039523761
 20
-3226.2161627185319
 30
0.0
 11
-14103.369270566611
 21
-3226.2161627185319
 31
0.0
  0
LINE
  5
146
  8
0
 62
     1
 10
-14103.369270566611
 20
-3226.2161627185319
 30
0.0
 11
-14103.369270566611
 21
1594.3149869716381
 31
0.0
  0
LINE
  5
147
  8
0
 62
     1
 10
-14103.369270566611
 20
-3226.2161627185319
 30
0.0
 11
-18533.089738171351
 21
-3226.2161627185319
 31
0.0
  0
LINE
  5
148
  8
0
 62
     1
 10
-18533.089738171351
 20
-3226.2161627185319
 30
0.0
 11
-18533.089738171351
 21
1670.6252181991731
 31
0.0
  0
LINE
  5
149
  8
0
 62
     1
 10
5306.7670769443457
 20
-3226.2161627185319
 30
0.0
 11
10840.11743138219
 21
-3226.2161627185319
 31
0.0
  0
LINE
  5
14A
  8
0
 62
     1
 10
10840.11743138219
 20
-3226.2161627185319
 30
0.0
 11
10840.11743138219
 21
1684.011873324554
 31
0.0
  0
TEXT
  5
14B
  8
0
 62
     1
 10
-18423.262052951952
 20
1632.623925561744
 30
0.0
 40
200.0
  1
m25
  0
TEXT
  5
14C
  8
0
 62
     1
 10
-13905.173922569909
 20
1524.1651971751539
 30
0.0
 40
200.0
  1
m20
  0
TEXT
  5
14D
  8
0
 62
     1
 10
-8764.5709920219069
 20
1562.2095477653929
 30
0.0
 40
200.0
  1
m15
  0
LINE
  5
1B2
  8
0
 10
-2645.9036629245102
 20
889.45405779768782
 30
0.0
 11
-2645.9036629245102
 21
689.45405779768771
 31
0.0
  0
LINE
  5
1B3
  8
0
 10
-2645.9036629245102
 20
689.45405779768771
 30
0.0
 11
-2580.9036629245088
 21
689.45405779768771
 31
0.0
  0
LINE
  5
1B4
  8
0
 10
-2580.9036629245088
 20
689.45405779768771
 30
0.0
 11
-2580.9036629245088
 21
789.45405779768771
 31
0.0
  0
LINE
  5
1B5
  8
0
 10
-2580.9036629245088
 20
789.45405779768771
 30
0.0
 11
-2480.9036629245111
 21
789.45405779768771
 31
0.0
  0
LINE
  5
1B6
  8
0
 10
-2480.9036629245111
 20
789.45405779768771
 30
0.0
 11
-2480.9036629245111
 21
689.45405779768771
 31
0.0
  0
LINE
  5
1B7
  8
0
 10
-2480.9036629245111
 20
689.45405779768771
 30
0.0
 11
-1750.903662924509
 21
689.45405779768771
 31
0.0
  0
CIRCLE
  5
1B9
  8
0
 10
-1750.903662924509
 20
1189.454057797687
 30
0.0
 40
45.0
  0
ARC
  5
1BA
  8
0
 10
-1750.903662924509
 20
1189.454057797687
 30
0.0
 40
90.0
 50
349.63024019452251
 51
114.00209402691971
  0
LINE
  5
1BD
  8
0
 10
-2645.9036629245102
 20
889.45405779768782
 30
0.0
 11
-2702.8514672304791
 21
1017.3483406438301
 31
0.0
  0
LINE
  5
1BE
  8
0
 10
-1750.903662924509
 20
689.45405779768771
 30
0.0
 11
-1701.720332415078
 21
680.4540577976876
 31
0.0
  0
LINE
  5
1BF
  8
0
 10
-1662.3736680075319
 20
1173.254057797687
 30
0.0
 11
-1613.1903374981009
 21
1164.2540577976879
 31
0.0
  0
LINE
  5
1C0
  8
0
 10
-1613.1903374981009
 20
1164.2540577976879
 30
0.0
 11
-1701.720332415078
 21
680.4540577976876
 31
0.0
  0
LINE
  5
1C1
  8
0
 10
-1787.512965692632
 20
1271.671811055922
 30
0.0
 11
-1844.460769998602
 21
1399.566093902064
 31
0.0
  0
LINE
  5
1C2
  8
0
 10
-2702.8514672304791
 20
1017.3483406438301
 30
0.0
 11
-1844.460769998602
 21
1399.566093902064
 31
0.0
  0
LINE
  5
1C5
  8
0
 62
     1
 10
-2682.5129656926329
 20
971.67181105592181
 30
0.0
 11
-1824.122268460756
 21
1353.8895643141559
 31
0.0
  0
LINE
  5
1C6
  8
0
 62
     1
 10
-2645.9036629245102
 20
889.45405779768782
 30
0.0
 11
-1787.512965692632
 21
1271.671811055922
 31
0.0
  0
LINE
  5
1C7
  8
0
 62
     1
 10
-1662.3736680075319
 20
1173.254057797687
 30
0.0
 11
-1750.903662924509
 21
689.45405779768771
 31
0.0
  0
LINE
  5
22C
  8
0
 10
-2692.0483439112581
 20
-305.59165344959911
 30
0.0
 11
-2692.0483439112581
 21
-575.59165344959911
 31
0.0
  0
LINE
  5
22E
  8
0
 10
-1092.048343911257
 20
-575.59165344959911
 30
0.0
 11
-1092.048343911257
 21
-305.59165344959911
 31
0.0
  0
LINE
  5
233
  8
0
 10
-2677.0483439112581
 20
-775.59165344959854
 30
0.0
 11
-1107.048343911257
 21
-775.59165344959854
 31
0.0
  0
LINE
  5
234
  8
0
 10
-1107.048343911257
 20
-105.59165344959909
 30
0.0
 11
-2677.0483439112581
 21
-105.59165344959909
 31
0.0
  0
LINE
  5
237
  8
0
 10
-2677.0483439112581
 20
-705.59165344959911
 30
0.0
 11
-2692.0483439112581
 21
-575.59165344959911
 31
0.0
  0
LINE
  5
238
  8
0
 10
-2677.0483439112581
 20
-175.59165344959911
 30
0.0
 11
-2692.0483439112581
 21
-305.59165344959911
 31
0.0
  0
LINE
  5
239
  8
0
 10
-2677.0483439112581
 20
-175.59165344959911
 30
0.0
 11
-2677.0483439112581
 21
-105.59165344959909
 31
0.0
  0
LINE
  5
23A
  8
0
 10
-2677.0483439112581
 20
-705.59165344959911
 30
0.0
 11
-2677.0483439112581
 21
-775.59165344959854
 31
0.0
  0
LINE
  5
23B
  8
0
 10
-1107.048343911257
 20
-705.59165344959911
 30
0.0
 11
-1092.048343911257
 21
-575.59165344959911
 31
0.0
  0
LINE
  5
23C
  8
0
 10
-1107.048343911257
 20
-175.59165344959911
 30
0.0
 11
-1092.048343911257
 21
-305.59165344959911
 31
0.0
  0
LINE
  5
23D
  8
0
 10
-1107.048343911257
 20
-175.59165344959911
 30
0.0
 11
-1107.048343911257
 21
-105.59165344959909
 31
0.0
  0
LINE
  5
23E
  8
0
 10
-1107.048343911257
 20
-705.59165344959911
 30
0.0
 11
-1107.048343911257
 21
-775.59165344959854
 31
0.0
  0
LINE
  5
23F
  8
0
 62
     1
 10
-1107.048343911257
 20
-175.59165344959911
 30
0.0
 11
-2677.0483439112581
 21
-175.59165344959911
 31
0.0
  0
LINE
  5
240
  8
0
 62
     1
 10
-2692.0483439112581
 20
-305.59165344959911
 30
0.0
 11
-1092.048343911257
 21
-305.59165344959911
 31
0.0
  0
LINE
  5
241
  8
0
 62
     1
 10
-1092.048343911257
 20
-575.59165344959911
 30
0.0
 11
-2692.0483439112581
 21
-575.59165344959911
 31
0.0
  0
LINE
  5
242
  8
0
 62
     1
 10
-2677.0483439112581
 20
-705.59165344959911
 30
0.0
 11
-1107.048343911257
 21
-705.59165344959911
 31
0.0
  0
LINE
  5
243
  8
0
 10
-2362.5086593230371
 20
-1410.4051731377619
 30
0.0
 11
-2482.5086593230371
 21
-1410.4051731377619
 31
0.0
  0
LINE
  5
244
  8
0
 10
-2482.5086593230371
 20
-1410.4051731377619
 30
0.0
 11
-2482.5086593230371
 21
-1590.4051731377619
 31
0.0
  0
LINE
  5
245
  8
0
 10
-2482.5086593230371
 20
-1590.4051731377619
 30
0.0
 11
-2362.5086593230371
 21
-1590.4051731377619
 31
0.0
  0
LINE
  5
246
  8
0
 10
-2362.5086593230371
 20
-1590.4051731377619
 30
0.0
 11
-2362.5086593230371
 21
-1640.4051731377619
 31
0.0
  0
LINE
  5
247
  8
0
 10
-2362.5086593230371
 20
-1640.4051731377619
 30
0.0
 11
-1592.5086593230369
 21
-1640.4051731377619
 31
0.0
  0
LINE
  5
248
  8
0
 10
-1592.5086593230369
 20
-1640.4051731377619
 30
0.0
 11
-1592.5086593230369
 21
-1590.4051731377619
 31
0.0
  0
LINE
  5
249
  8
0
 10
-1592.5086593230369
 20
-1590.4051731377619
 30
0.0
 11
-1472.5086593230369
 21
-1590.4051731377619
 31
0.0
  0
LINE
  5
24A
  8
0
 10
-1472.5086593230369
 20
-1590.4051731377619
 30
0.0
 11
-1472.5086593230369
 21
-1410.4051731377619
 31
0.0
  0
LINE
  5
24B
  8
0
 10
-1472.5086593230369
 20
-1410.4051731377619
 30
0.0
 11
-1592.5086593230369
 21
-1410.4051731377619
 31
0.0
  0
LINE
  5
253
  8
0
 10
-2382.5086593230371
 20
-1215.4051731377619
 30
0.0
 11
-2382.5086593230371
 21
-1265.4051731377619
 31
0.0
  0
LINE
  5
254
  8
0
 10
-2382.5086593230371
 20
-1265.4051731377619
 30
0.0
 11
-2362.5086593230371
 21
-1410.4051731377619
 31
0.0
  0
LINE
  5
255
  8
0
 10
-1572.5086593230369
 20
-1215.4051731377619
 30
0.0
 11
-1572.5086593230369
 21
-1265.4051731377619
 31
0.0
  0
LINE
  5
256
  8
0
 10
-1572.5086593230369
 20
-1265.4051731377619
 30
0.0
 11
-1592.5086593230369
 21
-1410.4051731377619
 31
0.0
  0
LINE
  5
257
  8
0
 10
-2382.5086593230371
 20
-1215.4051731377619
 30
0.0
 11
-1572.5086593230369
 21
-1215.4051731377619
 31
0.0
  0
LINE
  5
258
  8
0
 62
     1
 10
-2382.5086593230371
 20
-1265.4051731377619
 30
0.0
 11
-1572.5086593230369
 21
-1265.4051731377619
 31
0.0
  0
LINE
  5
259
  8
0
 62
     1
 10
-1592.5086593230369
 20
-1410.4051731377619
 30
0.0
 11
-2362.5086593230371
 21
-1410.4051731377619
 31
0.0
  0
LINE
  5
25A
  8
0
 62
     1
 10
-2362.5086593230371
 20
-1590.4051731377619
 30
0.0
 11
-1592.5086593230369
 21
-1590.4051731377619
 31
0.0
  0
LINE
  5
25B
  8
0
 10
-2691.488759689717
 20
-2023.241108885908
 30
0.0
 11
-1681.488759689717
 21
-2023.241108885908
 31
0.0
  0
LINE
  5
25C
  8
0
 10
-1681.488759689717
 20
-2023.241108885908
 30
0.0
 11
-1681.488759689717
 21
-2213.241108885908
 31
0.0
  0
LINE
  5
25D
  8
0
 10
-1681.488759689717
 20
-2213.241108885908
 30
0.0
 11
-1681.488759689717
 21
-2443.241108885908
 31
0.0
  0
LINE
  5
25E
  8
0
 10
-1681.488759689717
 20
-2443.241108885908
 30
0.0
 11
-1681.488759689717
 21
-2633.241108885908
 31
0.0
  0
LINE
  5
25F
  8
0
 10
-1681.488759689717
 20
-2633.241108885908
 30
0.0
 11
-1681.488759689717
 21
-2683.241108885908
 31
0.0
  0
LINE
  5
260
  8
0
 10
-1681.488759689717
 20
-2683.241108885908
 30
0.0
 11
-2691.488759689717
 21
-2683.241108885908
 31
0.0
  0
LINE
  5
261
  8
0
 10
-2691.488759689717
 20
-2683.241108885908
 30
0.0
 11
-2691.488759689717
 21
-2633.241108885908
 31
0.0
  0
LINE
  5
262
  8
0
 10
-2691.488759689717
 20
-2633.241108885908
 30
0.0
 11
-2691.488759689717
 21
-2443.241108885908
 31
0.0
  0
LINE
  5
263
  8
0
 10
-2691.488759689717
 20
-2443.241108885908
 30
0.0
 11
-2691.488759689717
 21
-2213.241108885908
 31
0.0
  0
LINE
  5
264
  8
0
 10
-2691.488759689717
 20
-2213.241108885908
 30
0.0
 11
-2691.488759689717
 21
-2023.241108885908
 31
0.0
  0
LINE
  5
265
  8
0
 62
     1
 10
-2691.488759689717
 20
-2213.241108885908
 30
0.0
 11
-1681.488759689717
 21
-2213.241108885908
 31
0.0
  0
LINE
  5
268
  8
0
 62
     1
 10
-1681.488759689717
 20
-2443.241108885908
 30
0.0
 11
-2691.488759689717
 21
-2443.241108885908
 31
0.0
  0
LINE
  5
269
  8
0
 62
     1
 10
-2691.488759689717
 20
-2633.241108885908
 30
0.0
 11
-1681.488759689717
 21
-2633.241108885908
 31
0.0
  0
LINE
  5
26A
  8
0
 10
-510.59556950673851
 20
-106.90312763757539
 30
0.0
 11
-510.59556950673851
 21
-376.90312763757538
 31
0.0
  0
LINE
  5
26D
  8
0
 10
1659.4044304932611
 20
-151.90312763757541
 30
0.0
 11
1659.4044304932611
 21
-331.90312763757538
 31
0.0
  0
LINE
  5
26E
  8
0
 10
-510.59556950673851
 20
-376.90312763757538
 30
0.0
 11
-510.59556950673851
 21
-426.90312763757538
 31
0.0
  0
LINE
  5
26F
  8
0
 10
-510.59556950673851
 20
-106.90312763757539
 30
0.0
 11
-510.59556950673851
 21
-56.903127637575381
 31
0.0
  0
LINE
  5
270
  8
0
 10
1659.4044304932611
 20
-331.90312763757538
 30
0.0
 11
1499.4388223404551
 21
-335.22038679281798
 31
0.0
  0
LINE
  5
271
  8
0
 10
1659.4044304932611
 20
-151.90312763757541
 30
0.0
 11
1499.4388223404551
 21
-148.5858684823329
 31
0.0
  0
LINE
  5
272
  8
0
 10
1499.4388223404551
 20
-335.22038679281798
 30
0.0
 11
1499.4388223404551
 21
-385.22038679281792
 31
0.0
  0
LINE
  5
273
  8
0
 10
1499.4388223404551
 20
-385.22038679281792
 30
0.0
 11
-510.59556950673851
 21
-426.90312763757538
 31
0.0
  0
LINE
  5
274
  8
0
 10
1499.4388223404551
 20
-148.5858684823329
 30
0.0
 11
1499.4388223404551
 21
-98.585868482332884
 31
0.0
  0
LINE
  5
275
  8
0
 10
1499.4388223404551
 20
-98.585868482332884
 30
0.0
 11
-510.59556950673851
 21
-56.903127637575381
 31
0.0
  0
LINE
  5
276
  8
0
 62
     1
 10
-510.59556950673851
 20
-106.90312763757539
 30
0.0
 11
1499.4388223404551
 21
-148.5858684823329
 31
0.0
  0
LINE
  5
277
  8
0
 62
     1
 10
1499.4388223404551
 20
-335.22038679281798
 30
0.0
 11
-510.59556950673851
 21
-376.90312763757538
 31
0.0
  0
LINE
  5
278
  8
0
 10
-530.5867367273604
 20
-908.62036861916567
 30
0.0
 11
-530.5867367273604
 21
-1178.620368619165
 31
0.0
  0
LINE
  5
27A
  8
0
 10
1779.4132632726389
 20
-953.62036861916556
 30
0.0
 11
1779.4132632726389
 21
-1133.620368619165
 31
0.0
  0
LINE
  5
27D
  8
0
 10
1779.4132632726389
 20
-1133.620368619165
 30
0.0
 11
1619.4436138857211
 21
-1136.7366604903391
 31
0.0
  0
LINE
  5
27E
  8
0
 10
1779.4132632726389
 20
-953.62036861916556
 30
0.0
 11
1619.4436138857211
 21
-950.5040767479918
 31
0.0
  0
LINE
  5
27F
  8
0
 10
-530.5867367273604
 20
-908.62036861916567
 30
0.0
 11
-390.61329351380652
 21
-911.3471240064423
 31
0.0
  0
LINE
  5
280
  8
0
 10
-530.5867367273604
 20
-1178.620368619165
 30
0.0
 11
-390.61329351380652
 21
-1175.8936132318879
 31
0.0
  0
LINE
  5
281
  8
0
 10
-390.61329351380652
 20
-1175.8936132318879
 30
0.0
 11
-390.61329351380652
 21
-1225.8936132318879
 31
0.0
  0
LINE
  5
282
  8
0
 10
-390.61329351380652
 20
-911.3471240064423
 30
0.0
 11
-390.61329351380652
 21
-861.34712400644253
 31
0.0
  0
LINE
  5
283
  8
0
 10
1619.4436138857211
 20
-950.5040767479918
 30
0.0
 11
1619.4436138857211
 21
-900.5040767479918
 31
0.0
  0
LINE
  5
284
  8
0
 10
1619.4436138857211
 20
-1136.7366604903391
 30
0.0
 11
1619.4436138857211
 21
-1186.7366604903391
 31
0.0
  0
LINE
  5
285
  8
0
 10
-390.61329351380652
 20
-861.34712400644253
 30
0.0
 11
1619.4436138857211
 21
-900.5040767479918
 31
0.0
  0
LINE
  5
286
  8
0
 10
1619.4436138857211
 20
-1186.7366604903391
 30
0.0
 11
-390.61329351380652
 21
-1225.8936132318879
 31
0.0
  0
LINE
  5
287
  8
0
 62
     1
 10
-390.61329351380652
 20
-911.3471240064423
 30
0.0
 11
1619.4436138857211
 21
-950.5040767479918
 31
0.0
  0
LINE
  5
288
  8
0
 62
     1
 10
-390.61329351380652
 20
-1175.8936132318879
 30
0.0
 11
1619.4436138857211
 21
-1136.7366604903391
 31
0.0
  0
LINE
  5
28A
  8
0
 10
-507.05290805871482
 20
-2569.0869328595732
 30
0.0
 11
-507.05290805871482
 21
-2369.0869328595732
 31
0.0
  0
LINE
  5
28B
  8
0
 10
-507.05290805871482
 20
-2369.0869328595732
 30
0.0
 11
192.94709194128521
 21
-2369.0869328595732
 31
0.0
  0
LINE
  5
28C
  8
0
 10
192.94709194128521
 20
-2369.0869328595732
 30
0.0
 11
192.94709194128521
 21
-2479.0869328595732
 31
0.0
  0
LINE
  5
28D
  8
0
 10
192.94709194128521
 20
-2479.0869328595732
 30
0.0
 11
-507.05290805871482
 21
-2569.0869328595732
 31
0.0
  0
LINE
  5
28F
  8
0
 62
     1
 10
192.94709194128521
 20
-2419.0869328595732
 30
0.0
 11
-507.05290805871482
 21
-2419.0869328595732
 31
0.0
  0
LINE
  5
34B
  8
0
 62
     1
 10
8736.8996263808222
 20
-3574.7363772696408
 30
0.0
 11
7836.8996263808212
 21
-3574.7363772696408
 31
0.0
  0
LINE
  5
34C
  8
0
 62
     1
 10
7108.6224194647984
 20
-3844.0903298631511
 30
0.0
 11
7574.0907484371819
 21
-3669.5397064985082
 31
0.0
  0
CIRCLE
  5
355
  8
0
 10
7036.8996263808212
 20
-3817.586353861408
 30
0.0
 40
15.0
  0
CIRCLE
  5
356
  8
0
 10
7749.7934596620244
 20
-3706.7853202892029
 30
0.0
 40
15.0
  0
CIRCLE
  5
357
  8
0
 10
7286.8996263808212
 20
-3629.7363772696422
 30
0.0
 40
45.0
  0
LINE
  5
358
  8
0
 62
     1
 10
8661.8996263808222
 20
-3434.7363772696431
 30
0.0
 11
7136.8996263808231
 21
-3434.7363772696431
 31
0.0
  0
CIRCLE
  5
360
  8
0
 10
10025.635524421161
 20
-4362.8352736930146
 30
0.0
 40
45.0
  0
LINE
  5
368
  8
0
 62
     1
 10
9094.0262216530318
 20
-4580.6175204347801
 30
0.0
 11
9952.41691888491
 21
-4198.3997671765492
 31
0.0
  0
LINE
  5
369
  8
0
 62
     1
 10
9130.6355244211572
 20
-4662.8352736930183
 30
0.0
 11
9989.0262216530318
 21
-4280.6175204347801
 31
0.0
  0
LINE
  5
36A
  8
0
 62
     1
 10
10114.16551933813
 20
-4379.0352736930172
 30
0.0
 11
10025.635524421161
 21
-4862.8352736930146
 31
0.0
  0
LINE
  5
377
  8
0
 62
     1
 10
14850.7257639079
 20
-8343.1511225258018
 30
0.0
 11
13280.7257639079
 21
-8343.1511225258018
 31
0.0
  0
LINE
  5
378
  8
0
 62
     1
 10
13265.7257639079
 20
-8473.1511225258
 30
0.0
 11
14865.7257639079
 21
-8473.1511225258
 31
0.0
  0
LINE
  5
379
  8
0
 62
     1
 10
14865.7257639079
 20
-8743.1511225258
 30
0.0
 11
13265.7257639079
 21
-8743.1511225258
 31
0.0
  0
LINE
  5
37A
  8
0
 62
     1
 10
13280.7257639079
 20
-8873.1511225258018
 30
0.0
 11
14850.7257639079
 21
-8873.1511225258018
 31
0.0
  0
LINE
  5
389
  8
0
 62
     1
 10
11327.03097720491
 20
-6549.1412403702579
 30
0.0
 11
12137.03097720491
 21
-6549.1412403702579
 31
0.0
  0
LINE
  5
38A
  8
0
 62
     1
 10
12117.0309772049
 20
-6694.1412403702561
 30
0.0
 11
11347.03097720491
 21
-6694.1412403702561
 31
0.0
  0
LINE
  5
38B
  8
0
 62
     1
 10
11347.03097720491
 20
-6874.1412403702561
 30
0.0
 11
12117.0309772049
 21
-6874.1412403702561
 31
0.0
  0
LINE
  5
396
  8
0
 62
     1
 10
9038.8993487152075
 20
-3589.337243414313
 30
0.0
 11
10048.899348715209
 21
-3589.337243414313
 31
0.0
  0
LINE
  5
397
  8
0
 62
     1
 10
10048.899348715209
 20
-3819.337243414313
 30
0.0
 11
9038.8993487152075
 21
-3819.337243414313
 31
0.0
  0
LINE
  5
398
  8
0
 62
     1
 10
9038.8993487152075
 20
-4009.3372434143121
 30
0.0
 11
10048.899348715209
 21
-4009.3372434143121
 31
0.0
  0
LINE
  5
3A3
  8
0
 62
     1
 10
10088.68300380262
 20
-3512.8102621661478
 30
0.0
 11
12098.717395649821
 21
-3554.4930030109099
 31
0.0
  0
LINE
  5
3A4
  8
0
 62
     1
 10
12098.717395649821
 20
-3741.1275213213939
 30
0.0
 11
10088.68300380262
 21
-3782.8102621661528
 31
0.0
  0
LINE
  5
3B1
  8
0
 62
     1
 10
10330.87065844312
 20
-4236.4047192279049
 30
0.0
 11
12340.92756584266
 21
-4275.5616719694544
 31
0.0
  0
LINE
  5
3B2
  8
0
 62
     1
 10
10330.87065844312
 20
-4500.951208453349
 30
0.0
 11
12340.92756584266
 21
-4461.7942557118022
 31
0.0
  0
LINE
  5
3B7
  8
0
 62
     1
 10
6969.6005605292003
 20
-4728.0044746127123
 30
0.0
 11
6269.6005605292021
 21
-4728.0044746127123
 31
0.0
  0
LINE
  5
3BE
  8
0
 10
8744.8714581163349
 20
-6321.4513908502777
 30
0.0
 11
2744.8714581163381
 21
-6321.4513908502777
 31
0.0
  0
LINE
  5
3BF
  8
0
 10
2744.8714581163381
 20
-6321.4513908502777
 30
0.0
 11
2744.8714581163381
 21
-7831.4513908502749
 31
0.0
  0
LINE
  5
3C0
  8
0
 10
2744.8714581163381
 20
-7831.4513908502749
 30
0.0
 11
8744.8714581163349
 21
-7831.4513908502749
 31
0.0
  0
LINE
  5
3C1
  8
0
 10
8744.8714581163349
 20
-7831.4513908502749
 30
0.0
 11
8744.8714581163349
 21
-6321.4513908502777
 31
0.0
  0
LINE
  5
669
  8
0
 10
793.99244112169254
 20
-2025.598138961715
 30
0.0
 11
1688.9924411216921
 21
-2025.598138961715
 31
0.0
  0
LINE
  5
66A
  8
0
 10
1688.9924411216921
 20
-2025.598138961715
 30
0.0
 11
1688.9924411216921
 21
-2915.5981389617159
 31
0.0
  0
LINE
  5
66B
  8
0
 10
1688.9924411216921
 20
-2915.5981389617159
 30
0.0
 11
793.99244112169265
 21
-2915.5981389617159
 31
0.0
  0
LINE
  5
66C
  8
0
 10
793.99244112169265
 20
-2915.5981389617159
 30
0.0
 11
793.99244112169254
 21
-2025.598138961715
 31
0.0
  0
CIRCLE
  5
66F
  8
0
 10
1568.9924411216921
 20
-2880.5981389617159
 30
0.0
 40
9.5
  0
CIRCLE
  5
670
  8
0
 10
1428.9924411216921
 20
-2880.5981389617159
 30
0.0
 40
9.5
  0
CIRCLE
  5
671
  8
0
 10
1288.9924411216921
 20
-2880.5981389617159
 30
0.0
 40
9.5
  0
CIRCLE
  5
672
  8
0
 10
1148.9924411216921
 20
-2880.5981389617159
 30
0.0
 40
9.5
  0
CIRCLE
  5
673
  8
0
 10
1008.992441121692
 20
-2880.5981389617159
 30
0.0
 40
9.5
  0
CIRCLE
  5
674
  8
0
 10
1568.9924411216921
 20
-2060.5981389617159
 30
0.0
 40
9.5
  0
CIRCLE
  5
675
  8
0
 10
1428.9924411216921
 20
-2060.5981389617159
 30
0.0
 40
9.5
  0
CIRCLE
  5
676
  8
0
 10
1288.9924411216921
 20
-2060.5981389617159
 30
0.0
 40
9.5
  0
CIRCLE
  5
677
  8
0
 10
1148.9924411216921
 20
-2060.5981389617159
 30
0.0
 40
9.5
  0
CIRCLE
  5
678
  8
0
 10
1008.992441121692
 20
-2060.5981389617159
 30
0.0
 40
9.5
  0
CIRCLE
  5
67B
  8
0
 10
1653.9924411216921
 20
-2795.598138961715
 30
0.0
 40
9.5
  0
CIRCLE
  5
67C
  8
0
 10
1653.9924411216921
 20
-2665.5981389617159
 30
0.0
 40
9.5
  0
CIRCLE
  5
67D
  8
0
 10
1653.9924411216921
 20
-2535.5981389617159
 30
0.0
 40
9.5
  0
CIRCLE
  5
67E
  8
0
 10
1653.9924411216921
 20
-2405.5981389617159
 30
0.0
 40
9.5
  0
CIRCLE
  5
67F
  8
0
 10
1653.9924411216921
 20
-2275.598138961715
 30
0.0
 40
9.5
  0
CIRCLE
  5
680
  8
0
 10
1653.9924411216921
 20
-2145.5981389617159
 30
0.0
 40
9.5
  0
CIRCLE
  5
681
  8
0
 10
828.99244112169265
 20
-2665.5981389617159
 30
0.0
 40
9.5
  0
CIRCLE
  5
682
  8
0
 10
828.99244112169265
 20
-2535.5981389617159
 30
0.0
 40
9.5
  0
CIRCLE
  5
683
  8
0
 10
828.99244112169265
 20
-2405.5981389617159
 30
0.0
 40
9.5
  0
CIRCLE
  5
684
  8
0
 10
828.99244112169265
 20
-2275.598138961715
 30
0.0
 40
9.5
  0
LINE
  5
6A9
  8
0
 10
3017.6782682677881
 20
-4298.0077595848761
 30
0.0
 11
3017.6782682677881
 21
-4292.007759584877
 31
0.0
  0
LINE
  5
6AA
  8
0
 10
3017.6782682677881
 20
-4292.007759584877
 30
0.0
 11
3219.8150711242802
 21
-4292.007759584877
 31
0.0
  0
LINE
  5
6AB
  8
0
 10
3219.8150711242802
 20
-4292.007759584877
 30
0.0
 11
3129.5579282671351
 21
-3590.0077595848779
 31
0.0
  0
LINE
  5
6AC
  8
0
 10
3129.5579282671351
 20
-3590.0077595848779
 30
0.0
 11
3017.6782682677881
 21
-3590.0077595848779
 31
0.0
  0
LINE
  5
6AD
  8
0
 10
3017.6782682677881
 20
-3590.0077595848779
 30
0.0
 11
3017.6782682677881
 21
-4292.007759584877
 31
0.0
  0
LINE
  5
6AE
  8
0
 10
3017.6782682677881
 20
-4292.007759584877
 30
0.0
 11
2815.5414654112978
 21
-4292.007759584877
 31
0.0
  0
LINE
  5
6AF
  8
0
 10
2815.5414654112978
 20
-4292.007759584877
 30
0.0
 11
2905.7986082684401
 21
-3590.0077595848779
 31
0.0
  0
LINE
  5
6B0
  8
0
 10
2905.7986082684401
 20
-3590.0077595848779
 30
0.0
 11
3017.6782682677881
 21
-3590.0077595848779
 31
0.0
  0
LINE
  5
6B1
  8
0
 10
3017.6782682677881
 20
-3590.0077595848779
 30
0.0
 11
3017.6782682677881
 21
-3584.007759584877
 31
0.0
  0
LINE
  5
6B2
  8
0
 10
3325.0810200881861
 20
-3433.4982981827502
 30
0.0
 11
3325.0810200881861
 21
-3439.4982981827479
 31
0.0
  0
LINE
  5
6B3
  8
0
 10
3325.0810200881861
 20
-3439.4982981827479
 30
0.0
 11
3527.2178229446781
 21
-3439.4982981827479
 31
0.0
  0
LINE
  5
6B4
  8
0
 10
3527.2178229446781
 20
-3439.4982981827479
 30
0.0
 11
3436.960680087534
 21
-4141.4982981827479
 31
0.0
  0
LINE
  5
6B5
  8
0
 10
3436.960680087534
 20
-4141.4982981827479
 30
0.0
 11
3325.0810200881861
 21
-4141.4982981827479
 31
0.0
  0
LINE
  5
6B6
  8
0
 10
3325.0810200881861
 20
-4141.4982981827479
 30
0.0
 11
3325.0810200881861
 21
-3439.4982981827479
 31
0.0
  0
LINE
  5
6B7
  8
0
 10
3325.0810200881861
 20
-3439.4982981827479
 30
0.0
 11
3122.9442172316972
 21
-3439.4982981827479
 31
0.0
  0
LINE
  5
6B8
  8
0
 10
3122.9442172316972
 20
-3439.4982981827479
 30
0.0
 11
3213.2013600888381
 21
-4141.4982981827479
 31
0.0
  0
LINE
  5
6B9
  8
0
 10
3213.2013600888381
 20
-4141.4982981827479
 30
0.0
 11
3325.0810200881861
 21
-4141.4982981827479
 31
0.0
  0
LINE
  5
6BA
  8
0
 10
3325.0810200881861
 20
-4141.4982981827479
 30
0.0
 11
3325.0810200881861
 21
-4147.4982981827479
 31
0.0
  0
LINE
  5
6BB
  8
0
 10
6976.0337395914403
 20
-4346.8531223394284
 30
0.0
 11
6970.0337395914403
 21
-4346.8531223394284
 31
0.0
  0
LINE
  5
6BC
  8
0
 10
6970.0337395914403
 20
-4346.8531223394284
 30
0.0
 11
6970.0337395914403
 21
-4548.9899251959223
 31
0.0
  0
LINE
  5
6BD
  8
0
 10
6970.0337395914403
 20
-4548.9899251959223
 30
0.0
 11
6268.0337395914412
 21
-4458.7327823387786
 31
0.0
  0
LINE
  5
6BE
  8
0
 10
6268.0337395914412
 20
-4458.7327823387786
 30
0.0
 11
6268.0337395914412
 21
-4346.8531223394284
 31
0.0
  0
LINE
  5
6BF
  8
0
 10
6268.0337395914412
 20
-4346.8531223394284
 30
0.0
 11
6970.0337395914403
 21
-4346.8531223394284
 31
0.0
  0
LINE
  5
6C0
  8
0
 10
6970.0337395914403
 20
-4346.8531223394284
 30
0.0
 11
6970.0337395914403
 21
-4144.7163194829409
 31
0.0
  0
LINE
  5
6C1
  8
0
 10
6970.0337395914403
 20
-4144.7163194829409
 30
0.0
 11
6268.0337395914412
 21
-4234.9734623400809
 31
0.0
  0
LINE
  5
6C2
  8
0
 10
6268.0337395914412
 20
-4234.9734623400809
 30
0.0
 11
6268.0337395914412
 21
-4346.8531223394284
 31
0.0
  0
LINE
  5
6C3
  8
0
 10
6268.0337395914412
 20
-4346.8531223394284
 30
0.0
 11
6262.0337395914412
 21
-4346.8531223394284
 31
0.0
  0
LINE
  5
6C4
  8
0
 10
6975.6005605292003
 20
-4677.0044746127114
 30
0.0
 11
6970.6005605292021
 21
-4677.0044746127114
 31
0.0
  0
LINE
  5
6C5
  8
0
 10
6970.6005605292021
 20
-4677.0044746127114
 30
0.0
 11
6970.6005605292021
 21
-4788.8841346120562
 31
0.0
  0
LINE
  5
6C6
  8
0
 10
6970.6005605292021
 20
-4788.8841346120562
 30
0.0
 11
6268.6005605292012
 21
-4879.1412774692017
 31
0.0
  0
LINE
  5
6C7
  8
0
 10
6268.6005605292012
 20
-4879.1412774692017
 30
0.0
 11
6268.6005605292012
 21
-4677.0044746127114
 31
0.0
  0
LINE
  5
6C8
  8
0
 10
6268.6005605292012
 20
-4677.0044746127114
 30
0.0
 11
6970.6005605292021
 21
-4677.0044746127114
 31
0.0
  0
LINE
  5
6C9
  8
0
 10
6970.6005605292021
 20
-4677.0044746127114
 30
0.0
 11
6970.6005605292021
 21
-4565.1248146133612
 31
0.0
  0
LINE
  5
6CA
  8
0
 10
6970.6005605292021
 20
-4565.1248146133612
 30
0.0
 11
6268.6005605292012
 21
-4474.8676717562212
 31
0.0
  0
LINE
  5
6CB
  8
0
 10
6268.6005605292012
 20
-4474.8676717562212
 30
0.0
 11
6268.6005605292012
 21
-4677.0044746127114
 31
0.0
  0
LINE
  5
6CC
  8
0
 10
6268.6005605292012
 20
-4677.0044746127114
 30
0.0
 11
6263.6005605292012
 21
-4677.0044746127114
 31
0.0
  0
LINE
  5
819
  8
0
 10
7135.8996263808212
 20
-3378.7363772696431
 30
0.0
 11
7135.8996263808212
 21
-3383.736377269644
 31
0.0
  0
LINE
  5
81A
  8
0
 10
7135.8996263808212
 20
-3383.736377269644
 30
0.0
 11
8662.8996263808222
 21
-3383.736377269644
 31
0.0
  0
LINE
  5
81B
  8
0
 10
8662.8996263808222
 20
-3383.736377269644
 30
0.0
 11
8662.8996263808222
 21
-3434.3018249677311
 31
0.0
  0
LINE
  5
81C
  8
0
 10
8662.8996263808222
 20
-3434.3018249677311
 30
0.0
 11
8737.8996263808185
 21
-3504.3018249677311
 31
0.0
  0
LINE
  5
81D
  8
0
 10
8737.8996263808185
 20
-3504.3018249677311
 30
0.0
 11
8737.8996263808185
 21
-3574.7363772696408
 31
0.0
  0
LINE
  5
81E
  8
0
 10
8737.8996263808185
 20
-3574.7363772696408
 30
0.0
 11
8737.8996263808185
 21
-3625.7363772696422
 31
0.0
  0
LINE
  5
81F
  8
0
 10
8737.8996263808185
 20
-3625.7363772696422
 30
0.0
 11
7835.8996263808212
 21
-3625.7363772696422
 31
0.0
  0
LINE
  5
820
  8
0
 10
7835.8996263808212
 20
-3625.7363772696422
 30
0.0
 11
7835.8996263808212
 21
-3575.7363772696422
 31
0.0
  0
LINE
  5
821
  8
0
 10
7835.8996263808212
 20
-3575.7363772696422
 30
0.0
 11
7827.7210979284728
 21
-3575.7363772696422
 31
0.0
  0
LINE
  5
822
  8
0
 10
7827.7210979284728
 20
-3575.7363772696422
 30
0.0
 11
7799.8229092821948
 21
-3716.6875508815019
 31
0.0
  0
ARC
  5
823
  8
0
 10
7749.7934596620189
 20
-3706.7853202891911
 30
0.0
 40
51.000000000006573
 50
241.86768846812561
 51
348.80426183971542
  0
LINE
  5
824
  8
0
 10
7725.7464866253604
 20
-3751.7602364956128
 30
0.0
 11
7575.958470126604
 21
-3671.6722964218661
 31
0.0
  0
LINE
  5
825
  8
0
 10
7575.958470126604
 20
-3671.6722964218661
 30
0.0
 11
7592.9343731357558
 21
-3716.94137111294
 31
0.0
  0
LINE
  5
826
  8
0
 10
7592.9343731357558
 20
-3716.94137111294
 30
0.0
 11
7125.5933858082371
 21
-3892.1942413607599
 31
0.0
  0
LINE
  5
827
  8
0
 10
7125.5933858082371
 20
-3892.1942413607599
 30
0.0
 11
7108.0372137288186
 21
-3845.3777824823092
 31
0.0
  0
LINE
  5
828
  8
0
 10
7108.0372137288186
 20
-3845.3777824823092
 30
0.0
 11
7054.8069219018034
 21
-3865.3391419174382
 31
0.0
  0
ARC
  5
829
  8
0
 10
7036.8996263808203
 20
-3817.5863538614039
 30
0.0
 40
51.000000000000917
 50
180.0
 51
290.55604521954871
  0
LINE
  5
82A
  8
0
 10
6985.8996263808203
 20
-3817.586353861408
 30
0.0
 11
6985.8996263808203
 21
-3628.7363772696422
 31
0.0
  0
LINE
  5
82B
  8
0
 10
6985.8996263808203
 20
-3628.7363772696422
 30
0.0
 11
7135.8996263808212
 21
-3628.7363772696422
 31
0.0
  0
LINE
  5
82C
  8
0
 10
7135.8996263808212
 20
-3628.7363772696422
 30
0.0
 11
7135.8996263808212
 21
-3383.736377269644
 31
0.0
  0
LINE
  5
82D
  8
0
 10
7135.8996263808212
 20
-3383.736377269644
 30
0.0
 11
7130.8996263808231
 21
-3383.736377269644
 31
0.0
  0
LINE
  5
903
  8
0
 10
9037.8993487152129
 20
-3393.3372434143121
 30
0.0
 11
9037.8993487152129
 21
-3398.3372434143121
 31
0.0
  0
LINE
  5
904
  8
0
 10
9037.8993487152129
 20
-3398.3372434143121
 30
0.0
 11
10049.8993487152
 21
-3398.3372434143121
 31
0.0
  0
LINE
  5
905
  8
0
 10
10049.8993487152
 20
-3398.3372434143121
 30
0.0
 11
10049.8993487152
 21
-3589.337243414313
 31
0.0
  0
LINE
  5
906
  8
0
 10
10049.8993487152
 20
-3589.337243414313
 30
0.0
 11
10049.8993487152
 21
-3819.337243414313
 31
0.0
  0
LINE
  5
907
  8
0
 10
10049.8993487152
 20
-3819.337243414313
 30
0.0
 11
10049.8993487152
 21
-4009.3372434143121
 31
0.0
  0
LINE
  5
908
  8
0
 10
10049.8993487152
 20
-4009.3372434143121
 30
0.0
 11
10049.8993487152
 21
-4060.3372434143121
 31
0.0
  0
LINE
  5
909
  8
0
 10
10049.8993487152
 20
-4060.3372434143121
 30
0.0
 11
9037.8993487152129
 21
-4060.3372434143121
 31
0.0
  0
LINE
  5
90A
  8
0
 10
9037.8993487152129
 20
-4060.3372434143121
 30
0.0
 11
9037.8993487152129
 21
-4009.3372434143121
 31
0.0
  0
LINE
  5
90B
  8
0
 10
9037.8993487152129
 20
-4009.3372434143121
 30
0.0
 11
9037.8993487152129
 21
-3819.337243414313
 31
0.0
  0
LINE
  5
90C
  8
0
 10
9037.8993487152129
 20
-3819.337243414313
 30
0.0
 11
9037.8993487152129
 21
-3589.337243414313
 31
0.0
  0
LINE
  5
90D
  8
0
 10
9037.8993487152129
 20
-3589.337243414313
 30
0.0
 11
9037.8993487152129
 21
-3398.3372434143121
 31
0.0
  0
LINE
  5
90E
  8
0
 10
9037.8993487152129
 20
-3398.3372434143121
 30
0.0
 11
9032.8993487152129
 21
-3398.3372434143121
 31
0.0
  0
LINE
  5
911
  8
0
 10
9937.5851779080695
 20
-4151.4029369661257
 30
0.0
 11
9932.585177908064
 21
-4151.4029369661257
 31
0.0
  0
LINE
  5
912
  8
0
 10
9932.585177908064
 20
-4151.4029369661257
 30
0.0
 11
9989.5352172817293
 21
-4279.302239362647
 31
0.0
  0
ARC
  5
913
  8
0
 10
10025.63552442117
 20
-4362.8352736930019
 30
0.0
 40
90.999999999990109
 50
350.25987681795601
 51
113.3724574034574
  0
LINE
  5
914
  8
0
 10
10115.32378102355
 20
-4378.2306180419764
 30
0.0
 11
10164.512516457749
 21
-4387.2316070828301
 31
0.0
  0
LINE
  5
915
  8
0
 10
10164.512516457749
 20
-4387.2316070828301
 30
0.0
 11
10075.62252154077
 21
-4872.998940303205
 31
0.0
  0
LINE
  5
916
  8
0
 10
10075.62252154077
 20
-4872.998940303205
 30
0.0
 11
10025.544783366649
 21
-4863.8352736930156
 31
0.0
  0
LINE
  5
917
  8
0
 10
10025.544783366649
 20
-4863.8352736930156
 30
0.0
 11
9294.6355244211554
 21
-4863.8352736930156
 31
0.0
  0
LINE
  5
918
  8
0
 10
9294.6355244211554
 20
-4863.8352736930156
 30
0.0
 11
9294.6355244211554
 21
-4763.8352736930156
 31
0.0
  0
LINE
  5
919
  8
0
 10
9294.6355244211554
 20
-4763.8352736930156
 30
0.0
 11
9196.6355244211591
 21
-4763.8352736930156
 31
0.0
  0
LINE
  5
91A
  8
0
 10
9196.6355244211591
 20
-4763.8352736930156
 30
0.0
 11
9196.6355244211591
 21
-4863.8352736930156
 31
0.0
  0
LINE
  5
91B
  8
0
 10
9196.6355244211591
 20
-4863.8352736930156
 30
0.0
 11
9129.6355244211554
 21
-4863.8352736930156
 31
0.0
  0
LINE
  5
91C
  8
0
 10
9129.6355244211554
 20
-4863.8352736930156
 30
0.0
 11
9129.6355244211554
 21
-4663.0478493542096
 31
0.0
  0
LINE
  5
91D
  8
0
 10
9129.6355244211554
 20
-4663.0478493542096
 30
0.0
 11
9072.3674194926716
 21
-4534.434230285874
 31
0.0
  0
LINE
  5
91E
  8
0
 10
9072.3674194926716
 20
-4534.434230285874
 30
0.0
 11
9932.585177908064
 21
-4151.4029369661257
 31
0.0
  0
LINE
  5
91F
  8
0
 10
9932.585177908064
 20
-4151.4029369661257
 30
0.0
 11
9932.585177908064
 21
-4146.4029369661248
 31
0.0
  0
LINE
  5
920
  8
0
 10
12109.63192056538
 20
-3782.860144591511
 30
0.0
 11
12099.717395649821
 21
-3792.10699898946
 31
0.0
  0
LINE
  5
921
  8
0
 10
12099.717395649821
 20
-3792.10699898946
 30
0.0
 11
12259.683003802629
 21
-3788.7897398342202
 31
0.0
  0
LINE
  5
922
  8
0
 10
12259.683003802629
 20
-3788.7897398342202
 30
0.0
 11
12259.683003802629
 21
-3839.8106921566691
 31
0.0
  0
LINE
  5
923
  8
0
 10
12259.683003802629
 20
-3839.8106921566691
 30
0.0
 11
12259.683003802629
 21
-4109.8106921566659
 31
0.0
  0
LINE
  5
924
  8
0
 10
12259.683003802629
 20
-4109.8106921566659
 30
0.0
 11
12259.683003802629
 21
-4160.8316444791162
 31
0.0
  0
LINE
  5
925
  8
0
 10
12259.683003802629
 20
-4160.8316444791162
 30
0.0
 11
10247.64861195543
 21
-4119.1074289799799
 31
0.0
  0
LINE
  5
926
  8
0
 10
10247.64861195543
 20
-4119.1074289799799
 30
0.0
 11
10247.64861195543
 21
-4069.1074289799822
 31
0.0
  0
LINE
  5
927
  8
0
 10
10247.64861195543
 20
-4069.1074289799822
 30
0.0
 11
10087.68300380262
 21
-4065.7901698247369
 31
0.0
  0
LINE
  5
928
  8
0
 10
10087.68300380262
 20
-4065.7901698247369
 30
0.0
 11
10087.68300380262
 21
-3883.831214488599
 31
0.0
  0
LINE
  5
929
  8
0
 10
10087.68300380262
 20
-3883.831214488599
 30
0.0
 11
10247.64861195543
 21
-3880.5139553333561
 31
0.0
  0
LINE
  5
92A
  8
0
 10
10247.64861195543
 20
-3880.5139553333561
 30
0.0
 11
10247.648611955439
 21
-3830.5139553333552
 31
0.0
  0
LINE
  5
92B
  8
0
 10
10247.648611955439
 20
-3830.5139553333552
 30
0.0
 11
12099.717395649821
 21
-3792.10699898946
 31
0.0
  0
LINE
  5
92C
  8
0
 10
12099.717395649821
 20
-3792.10699898946
 30
0.0
 11
12099.717395649821
 21
-3742.1069989894631
 31
0.0
  0
LINE
  5
92D
  8
0
 10
12099.717395649821
 20
-3742.1069989894631
 30
0.0
 11
12259.683003802629
 21
-3738.7897398342211
 31
0.0
  0
LINE
  5
92E
  8
0
 10
12259.683003802629
 20
-3738.7897398342211
 30
0.0
 11
12259.683003802629
 21
-3556.8307844980832
 31
0.0
  0
LINE
  5
92F
  8
0
 10
12259.683003802629
 20
-3556.8307844980832
 30
0.0
 11
12099.717395649821
 21
-3553.5135253428371
 31
0.0
  0
LINE
  5
930
  8
0
 10
12099.717395649821
 20
-3553.5135253428371
 30
0.0
 11
12099.717395649821
 21
-3503.513525342838
 31
0.0
  0
LINE
  5
931
  8
0
 10
12099.717395649821
 20
-3503.513525342838
 30
0.0
 11
10087.68300380262
 21
-3461.7893098437039
 31
0.0
  0
LINE
  5
932
  8
0
 10
10087.68300380262
 20
-3461.7893098437039
 30
0.0
 11
10087.68300380262
 21
-3512.8102621661478
 31
0.0
  0
LINE
  5
933
  8
0
 10
10087.68300380262
 20
-3512.8102621661478
 30
0.0
 11
10087.68300380262
 21
-3782.8102621661528
 31
0.0
  0
LINE
  5
934
  8
0
 10
10087.68300380262
 20
-3782.8102621661528
 30
0.0
 11
10087.68300380262
 21
-3833.831214488599
 31
0.0
  0
LINE
  5
935
  8
0
 10
10087.68300380262
 20
-3833.831214488599
 30
0.0
 11
10247.64861195543
 21
-3830.5139553333552
 31
0.0
  0
LINE
  5
936
  8
0
 10
10247.64861195543
 20
-3830.5139553333552
 30
0.0
 11
10239.630427899559
 21
-3837.8165851456279
 31
0.0
  0
LINE
  5
937
  8
0
 10
12346.92756584266
 20
-4512.7749649196412
 30
0.0
 11
12341.92756584266
 21
-4512.7749649196412
 31
0.0
  0
LINE
  5
938
  8
0
 10
12341.92756584266
 20
-4512.7749649196412
 30
0.0
 11
12341.92756584266
 21
-4562.7749649196412
 31
0.0
  0
LINE
  5
939
  8
0
 10
12341.92756584266
 20
-4562.7749649196412
 30
0.0
 11
12481.90100905621
 21
-4560.0482095323659
 31
0.0
  0
LINE
  5
93A
  8
0
 10
12481.90100905621
 20
-4560.0482095323659
 30
0.0
 11
12481.90100905621
 21
-4832.0875500259708
 31
0.0
  0
LINE
  5
93B
  8
0
 10
12481.90100905621
 20
-4832.0875500259708
 30
0.0
 11
12341.92756584266
 21
-4829.3607946386937
 31
0.0
  0
LINE
  5
93C
  8
0
 10
12341.92756584266
 20
-4829.3607946386937
 30
0.0
 11
12341.92756584266
 21
-4879.3607946386937
 31
0.0
  0
LINE
  5
93D
  8
0
 10
12341.92756584266
 20
-4879.3607946386937
 30
0.0
 11
10329.87065844312
 21
-4840.164880858184
 31
0.0
  0
LINE
  5
93E
  8
0
 10
10329.87065844312
 20
-4840.164880858184
 30
0.0
 11
10329.87065844312
 21
-4790.164880858184
 31
0.0
  0
LINE
  5
93F
  8
0
 10
10329.87065844312
 20
-4790.164880858184
 30
0.0
 11
10169.901009056221
 21
-4787.0485889870088
 31
0.0
  0
LINE
  5
940
  8
0
 10
10169.901009056221
 20
-4787.0485889870088
 30
0.0
 11
10169.901009056221
 21
-4605.0871705713289
 31
0.0
  0
LINE
  5
941
  8
0
 10
10169.901009056221
 20
-4605.0871705713289
 30
0.0
 11
10329.87065844312
 21
-4601.9708787001518
 31
0.0
  0
LINE
  5
942
  8
0
 10
10329.87065844312
 20
-4601.9708787001518
 30
0.0
 11
10329.87065844312
 21
-4551.9708787001518
 31
0.0
  0
LINE
  5
943
  8
0
 10
10329.87065844312
 20
-4551.9708787001518
 30
0.0
 11
12341.92756584266
 21
-4512.7749649196412
 31
0.0
  0
LINE
  5
944
  8
0
 10
12341.92756584266
 20
-4512.7749649196412
 30
0.0
 11
12341.92756584266
 21
-4462.7749649196421
 31
0.0
  0
LINE
  5
945
  8
0
 10
12341.92756584266
 20
-4462.7749649196421
 30
0.0
 11
12501.897215229579
 21
-4459.6586730484723
 31
0.0
  0
LINE
  5
946
  8
0
 10
12501.897215229579
 20
-4459.6586730484723
 30
0.0
 11
12501.897215229579
 21
-4277.6972546327879
 31
0.0
  0
LINE
  5
947
  8
0
 10
12501.897215229579
 20
-4277.6972546327879
 30
0.0
 11
12341.92756584266
 21
-4274.5809627616127
 31
0.0
  0
LINE
  5
948
  8
0
 10
12341.92756584266
 20
-4274.5809627616127
 30
0.0
 11
12341.92756584266
 21
-4224.5809627616127
 31
0.0
  0
LINE
  5
949
  8
0
 10
12341.92756584266
 20
-4224.5809627616127
 30
0.0
 11
10329.87065844312
 21
-4185.3850489811048
 31
0.0
  0
LINE
  5
94A
  8
0
 10
10329.87065844312
 20
-4185.3850489811048
 30
0.0
 11
10329.87065844312
 21
-4235.3850489811048
 31
0.0
  0
LINE
  5
94B
  8
0
 10
10329.87065844312
 20
-4235.3850489811048
 30
0.0
 11
10189.897215229579
 21
-4232.6582935938259
 31
0.0
  0
LINE
  5
94C
  8
0
 10
10189.897215229579
 20
-4232.6582935938259
 30
0.0
 11
10189.897215229579
 21
-4504.6976340874298
 31
0.0
  0
LINE
  5
94D
  8
0
 10
10189.897215229579
 20
-4504.6976340874298
 30
0.0
 11
10329.87065844312
 21
-4501.9708787001509
 31
0.0
  0
LINE
  5
94E
  8
0
 10
10329.87065844312
 20
-4501.9708787001509
 30
0.0
 11
10329.87065844312
 21
-4551.9708787001518
 31
0.0
  0
LINE
  5
94F
  8
0
 10
10329.87065844312
 20
-4551.9708787001518
 30
0.0
 11
10324.870658443129
 21
-4551.9708787001518
 31
0.0
  0
LINE
  5
A77
  8
0
 10
9537.1481210608927
 20
-6927.7630065726617
 30
0.0
 11
9537.1481210608927
 21
-6932.7630065726617
 31
0.0
  0
LINE
  5
A78
  8
0
 10
9537.1481210608927
 20
-6932.7630065726617
 30
0.0
 11
10434.148121060891
 21
-6932.7630065726617
 31
0.0
  0
LINE
  5
A79
  8
0
 10
10434.148121060891
 20
-6932.7630065726617
 30
0.0
 11
10434.148121060891
 21
-7824.7630065726626
 31
0.0
  0
LINE
  5
A7A
  8
0
 10
10434.148121060891
 20
-7824.7630065726626
 30
0.0
 11
9537.1481210608927
 21
-7824.7630065726626
 31
0.0
  0
LINE
  5
A7B
  8
0
 10
9537.1481210608927
 20
-7824.7630065726626
 30
0.0
 11
9537.1481210608927
 21
-6932.7630065726617
 31
0.0
  0
LINE
  5
A7C
  8
0
 10
9537.1481210608927
 20
-6932.7630065726617
 30
0.0
 11
9532.1481210608908
 21
-6932.7630065726617
 31
0.0
  0
LINE
  5
A7F
  8
0
 10
9279.9781666498475
 20
-6493.1412403702561
 30
0.0
 11
9279.9781666498475
 21
-6498.1412403702579
 31
0.0
  0
LINE
  5
A80
  8
0
 10
9279.9781666498475
 20
-6498.1412403702579
 30
0.0
 11
10091.97816664984
 21
-6498.1412403702579
 31
0.0
  0
LINE
  5
A81
  8
0
 10
10091.97816664984
 20
-6498.1412403702579
 30
0.0
 11
10091.97816664984
 21
-6549.2098809544113
 31
0.0
  0
LINE
  5
A82
  8
0
 10
10091.97816664984
 20
-6549.2098809544113
 30
0.0
 11
10072.125565351111
 21
-6693.1412403702561
 31
0.0
  0
LINE
  5
A83
  8
0
 10
10072.125565351111
 20
-6693.1412403702561
 30
0.0
 11
10191.97816664984
 21
-6693.1412403702561
 31
0.0
  0
LINE
  5
A84
  8
0
 10
10191.97816664984
 20
-6693.1412403702561
 30
0.0
 11
10191.97816664984
 21
-6875.1412403702561
 31
0.0
  0
LINE
  5
A85
  8
0
 10
10191.97816664984
 20
-6875.1412403702561
 30
0.0
 11
10071.97816664984
 21
-6875.1412403702561
 31
0.0
  0
LINE
  5
A86
  8
0
 10
10071.97816664984
 20
-6875.1412403702561
 30
0.0
 11
10071.97816664984
 21
-6925.1412403702561
 31
0.0
  0
LINE
  5
A87
  8
0
 10
10071.97816664984
 20
-6925.1412403702561
 30
0.0
 11
9299.9781666498475
 21
-6925.1412403702561
 31
0.0
  0
LINE
  5
A88
  8
0
 10
9299.9781666498475
 20
-6925.1412403702561
 30
0.0
 11
9299.9781666498475
 21
-6875.1412403702561
 31
0.0
  0
LINE
  5
A89
  8
0
 10
9299.9781666498475
 20
-6875.1412403702561
 30
0.0
 11
9179.9781666498438
 21
-6875.1412403702561
 31
0.0
  0
LINE
  5
A8A
  8
0
 10
9179.9781666498438
 20
-6875.1412403702561
 30
0.0
 11
9179.9781666498438
 21
-6693.1412403702561
 31
0.0
  0
LINE
  5
A8B
  8
0
 10
9179.9781666498438
 20
-6693.1412403702561
 30
0.0
 11
9299.8307679485824
 21
-6693.1412403702561
 31
0.0
  0
LINE
  5
A8C
  8
0
 10
9299.8307679485824
 20
-6693.1412403702561
 30
0.0
 11
9279.9781666498475
 21
-6549.2098809544068
 31
0.0
  0
LINE
  5
A8D
  8
0
 10
9279.9781666498475
 20
-6549.2098809544068
 30
0.0
 11
9279.9781666498475
 21
-6498.1412403702579
 31
0.0
  0
LINE
  5
A8E
  8
0
 10
9279.9781666498475
 20
-6498.1412403702579
 30
0.0
 11
9274.9781666498438
 21
-6498.1412403702579
 31
0.0
  0
LINE
  5
A8F
  8
0
 10
10302.32724799055
 20
-6493.1412403702561
 30
0.0
 11
10302.32724799055
 21
-6498.1412403702579
 31
0.0
  0
LINE
  5
A90
  8
0
 10
10302.32724799055
 20
-6498.1412403702579
 30
0.0
 11
11114.327247990561
 21
-6498.1412403702579
 31
0.0
  0
LINE
  5
A91
  8
0
 10
11114.327247990561
 20
-6498.1412403702579
 30
0.0
 11
11114.327247990561
 21
-6549.2098809544113
 31
0.0
  0
LINE
  5
A92
  8
0
 10
11114.327247990561
 20
-6549.2098809544113
 30
0.0
 11
11094.47464669182
 21
-6693.1412403702561
 31
0.0
  0
LINE
  5
A93
  8
0
 10
11094.47464669182
 20
-6693.1412403702561
 30
0.0
 11
11214.327247990561
 21
-6693.1412403702561
 31
0.0
  0
LINE
  5
A94
  8
0
 10
11214.327247990561
 20
-6693.1412403702561
 30
0.0
 11
11214.327247990561
 21
-6875.1412403702561
 31
0.0
  0
LINE
  5
A95
  8
0
 10
11214.327247990561
 20
-6875.1412403702561
 30
0.0
 11
11094.327247990561
 21
-6875.1412403702561
 31
0.0
  0
LINE
  5
A96
  8
0
 10
11094.327247990561
 20
-6875.1412403702561
 30
0.0
 11
11094.327247990561
 21
-6925.1412403702561
 31
0.0
  0
LINE
  5
A97
  8
0
 10
11094.327247990561
 20
-6925.1412403702561
 30
0.0
 11
10322.32724799055
 21
-6925.1412403702561
 31
0.0
  0
LINE
  5
A98
  8
0
 10
10322.32724799055
 20
-6925.1412403702561
 30
0.0
 11
10322.32724799055
 21
-6875.1412403702561
 31
0.0
  0
LINE
  5
A99
  8
0
 10
10322.32724799055
 20
-6875.1412403702561
 30
0.0
 11
10202.32724799055
 21
-6875.1412403702561
 31
0.0
  0
LINE
  5
A9A
  8
0
 10
10202.32724799055
 20
-6875.1412403702561
 30
0.0
 11
10202.32724799055
 21
-6693.1412403702561
 31
0.0
  0
LINE
  5
A9B
  8
0
 10
10202.32724799055
 20
-6693.1412403702561
 30
0.0
 11
10322.17984928929
 21
-6693.1412403702561
 31
0.0
  0
LINE
  5
A9C
  8
0
 10
10322.17984928929
 20
-6693.1412403702561
 30
0.0
 11
10302.32724799055
 21
-6549.2098809544068
 31
0.0
  0
LINE
  5
A9D
  8
0
 10
10302.32724799055
 20
-6549.2098809544068
 30
0.0
 11
10302.32724799055
 21
-6498.1412403702579
 31
0.0
  0
LINE
  5
A9E
  8
0
 10
10302.32724799055
 20
-6498.1412403702579
 30
0.0
 11
10297.32724799055
 21
-6498.1412403702579
 31
0.0
  0
LINE
  5
A9F
  8
0
 10
11326.03097720491
 20
-6493.1412403702561
 30
0.0
 11
11326.03097720491
 21
-6498.1412403702579
 31
0.0
  0
LINE
  5
AA0
  8
0
 10
11326.03097720491
 20
-6498.1412403702579
 30
0.0
 11
12138.0309772049
 21
-6498.1412403702579
 31
0.0
  0
LINE
  5
AA1
  8
0
 10
12138.0309772049
 20
-6498.1412403702579
 30
0.0
 11
12138.0309772049
 21
-6549.2098809544113
 31
0.0
  0
LINE
  5
AA2
  8
0
 10
12138.0309772049
 20
-6549.2098809544113
 30
0.0
 11
12118.178375906169
 21
-6693.1412403702561
 31
0.0
  0
LINE
  5
AA3
  8
0
 10
12118.178375906169
 20
-6693.1412403702561
 30
0.0
 11
12238.03097720491
 21
-6693.1412403702561
 31
0.0
  0
LINE
  5
AA4
  8
0
 10
12238.03097720491
 20
-6693.1412403702561
 30
0.0
 11
12238.03097720491
 21
-6875.1412403702561
 31
0.0
  0
LINE
  5
AA5
  8
0
 10
12238.03097720491
 20
-6875.1412403702561
 30
0.0
 11
12118.0309772049
 21
-6875.1412403702561
 31
0.0
  0
LINE
  5
AA6
  8
0
 10
12118.0309772049
 20
-6875.1412403702561
 30
0.0
 11
12118.0309772049
 21
-6925.1412403702561
 31
0.0
  0
LINE
  5
AA7
  8
0
 10
12118.0309772049
 20
-6925.1412403702561
 30
0.0
 11
11346.03097720491
 21
-6925.1412403702561
 31
0.0
  0
LINE
  5
AA8
  8
0
 10
11346.03097720491
 20
-6925.1412403702561
 30
0.0
 11
11346.03097720491
 21
-6875.1412403702561
 31
0.0
  0
LINE
  5
AA9
  8
0
 10
11346.03097720491
 20
-6875.1412403702561
 30
0.0
 11
11226.03097720491
 21
-6875.1412403702561
 31
0.0
  0
LINE
  5
AAA
  8
0
 10
11226.03097720491
 20
-6875.1412403702561
 30
0.0
 11
11226.03097720491
 21
-6693.1412403702561
 31
0.0
  0
LINE
  5
AAB
  8
0
 10
11226.03097720491
 20
-6693.1412403702561
 30
0.0
 11
11345.883578503641
 21
-6693.1412403702561
 31
0.0
  0
LINE
  5
AAC
  8
0
 10
11345.883578503641
 20
-6693.1412403702561
 30
0.0
 11
11326.03097720491
 21
-6549.2098809544068
 31
0.0
  0
LINE
  5
AAD
  8
0
 10
11326.03097720491
 20
-6549.2098809544068
 30
0.0
 11
11326.03097720491
 21
-6498.1412403702579
 31
0.0
  0
LINE
  5
AAE
  8
0
 10
11326.03097720491
 20
-6498.1412403702579
 30
0.0
 11
11321.03097720491
 21
-6498.1412403702579
 31
0.0
  0
LINE
  5
AAF
  8
0
 10
11341.298870445389
 20
-7829.7630065726589
 30
0.0
 11
11341.298870445389
 21
-7824.7630065726626
 31
0.0
  0
LINE
  5
AB0
  8
0
 10
11341.298870445389
 20
-7824.7630065726626
 30
0.0
 11
12238.29887044538
 21
-7824.7630065726626
 31
0.0
  0
LINE
  5
AB1
  8
0
 10
12238.29887044538
 20
-7824.7630065726626
 30
0.0
 11
12238.29887044538
 21
-6932.7630065726617
 31
0.0
  0
LINE
  5
AB2
  8
0
 10
12238.29887044538
 20
-6932.7630065726617
 30
0.0
 11
11341.298870445389
 21
-6932.7630065726617
 31
0.0
  0
LINE
  5
AB3
  8
0
 10
11341.298870445389
 20
-6932.7630065726617
 30
0.0
 11
11341.298870445389
 21
-7824.7630065726626
 31
0.0
  0
LINE
  5
AB4
  8
0
 10
11341.298870445389
 20
-7824.7630065726626
 30
0.0
 11
10444.29887044538
 21
-7824.7630065726626
 31
0.0
  0
LINE
  5
AB5
  8
0
 10
10444.29887044538
 20
-7824.7630065726626
 30
0.0
 11
10444.29887044538
 21
-6932.7630065726617
 31
0.0
  0
LINE
  5
AB6
  8
0
 10
10444.29887044538
 20
-6932.7630065726617
 30
0.0
 11
11341.298870445389
 21
-6932.7630065726617
 31
0.0
  0
LINE
  5
AB7
  8
0
 10
11341.298870445389
 20
-6932.7630065726617
 30
0.0
 11
11341.298870445389
 21
-6927.7630065726617
 31
0.0
  0
LINE
  5
AB8
  8
0
 10
13274.7257639079
 20
-7155.3006897101804
 30
0.0
 11
13261.729103825201
 21
-7165.1752043412062
 31
0.0
  0
LINE
  5
AB9
  8
0
 10
13261.729103825201
 20
-7165.1752043412062
 30
0.0
 11
13256.729103825201
 21
-7165.1752043412062
 31
0.0
  0
LINE
  5
ABA
  8
0
 10
13256.729103825201
 20
-7165.1752043412062
 30
0.0
 11
13256.729103825201
 21
-7356.1752043412052
 31
0.0
  0
LINE
  5
ABB
  8
0
 10
13256.729103825201
 20
-7356.1752043412052
 30
0.0
 11
13256.729103825201
 21
-7586.1752043412062
 31
0.0
  0
LINE
  5
ABC
  8
0
 10
13256.729103825201
 20
-7586.1752043412062
 30
0.0
 11
13256.729103825201
 21
-7776.1752043412062
 31
0.0
  0
LINE
  5
ABD
  8
0
 10
13256.729103825201
 20
-7776.1752043412062
 30
0.0
 11
13256.729103825201
 21
-7827.1752043412052
 31
0.0
  0
LINE
  5
ABE
  8
0
 10
13256.729103825201
 20
-7827.1752043412052
 30
0.0
 11
12244.729103825201
 21
-7827.1752043412052
 31
0.0
  0
LINE
  5
ABF
  8
0
 10
12244.729103825201
 20
-7827.1752043412052
 30
0.0
 11
12244.729103825201
 21
-7776.1752043412062
 31
0.0
  0
LINE
  5
AC0
  8
0
 10
12244.729103825201
 20
-7776.1752043412062
 30
0.0
 11
12244.729103825201
 21
-7586.1752043412062
 31
0.0
  0
LINE
  5
AC1
  8
0
 10
12244.729103825201
 20
-7586.1752043412062
 30
0.0
 11
12244.729103825201
 21
-7356.1752043412052
 31
0.0
  0
LINE
  5
AC2
  8
0
 10
12244.729103825201
 20
-7356.1752043412052
 30
0.0
 11
12244.729103825201
 21
-7165.1752043412062
 31
0.0
  0
LINE
  5
AC3
  8
0
 10
12244.729103825201
 20
-7165.1752043412062
 30
0.0
 11
13256.729103825201
 21
-7165.1752043412062
 31
0.0
  0
LINE
  5
AC4
  8
0
 10
13256.729103825201
 20
-7165.1752043412062
 30
0.0
 11
13256.729103825201
 21
-6974.1752043412052
 31
0.0
  0
LINE
  5
AC5
  8
0
 10
13256.729103825201
 20
-6974.1752043412052
 30
0.0
 11
13256.729103825201
 21
-6744.1752043412016
 31
0.0
  0
LINE
  5
AC6
  8
0
 10
13256.729103825201
 20
-6744.1752043412016
 30
0.0
 11
13256.729103825201
 21
-6554.1752043412062
 31
0.0
  0
LINE
  5
AC7
  8
0
 10
13256.729103825201
 20
-6554.1752043412062
 30
0.0
 11
13256.729103825201
 21
-6503.1752043412052
 31
0.0
  0
LINE
  5
AC8
  8
0
 10
13256.729103825201
 20
-6503.1752043412052
 30
0.0
 11
12244.729103825201
 21
-6503.1752043412052
 31
0.0
  0
LINE
  5
AC9
  8
0
 10
12244.729103825201
 20
-6503.1752043412052
 30
0.0
 11
12244.729103825201
 21
-6554.1752043412062
 31
0.0
  0
LINE
  5
ACA
  8
0
 10
12244.729103825201
 20
-6554.1752043412062
 30
0.0
 11
12244.729103825201
 21
-6744.1752043412016
 31
0.0
  0
LINE
  5
ACB
  8
0
 10
12244.729103825201
 20
-6744.1752043412016
 30
0.0
 11
12244.729103825201
 21
-6974.1752043412052
 31
0.0
  0
LINE
  5
ACC
  8
0
 10
12244.729103825201
 20
-6974.1752043412052
 30
0.0
 11
12244.729103825201
 21
-7165.1752043412062
 31
0.0
  0
LINE
  5
ACD
  8
0
 10
12244.729103825201
 20
-7165.1752043412062
 30
0.0
 11
12239.729103825201
 21
-7165.1752043412062
 31
0.0
  0
LINE
  5
ACF
  8
0
 10
14856.7257639079
 20
-7155.3006897101804
 30
0.0
 11
14851.7257639079
 21
-7155.3006897101804
 31
0.0
  0
LINE
  5
ADC
  8
0
 10
14851.7257639079
 20
-7155.3006897101804
 30
0.0
 11
14851.7257639079
 21
-7084.3581912623831
 31
0.0
  0
LINE
  5
ADD
  8
0
 10
14851.7257639079
 20
-7084.3581912623831
 30
0.0
 11
14866.7257639079
 21
-6954.3581912623849
 31
0.0
  0
LINE
  5
ADE
  8
0
 10
14866.7257639079
 20
-6954.3581912623849
 30
0.0
 11
14866.7257639079
 21
-6684.2431881579769
 31
0.0
  0
LINE
  5
ADF
  8
0
 10
14866.7257639079
 20
-6684.2431881579769
 30
0.0
 11
14851.7257639079
 21
-6554.2431881579769
 31
0.0
  0
LINE
  5
AE0
  8
0
 10
14851.7257639079
 20
-6554.2431881579769
 30
0.0
 11
14851.7257639079
 21
-6483.3006897101814
 31
0.0
  0
LINE
  5
AE1
  8
0
 10
14851.7257639079
 20
-6483.3006897101814
 30
0.0
 11
13279.7257639079
 21
-6483.3006897101814
 31
0.0
  0
LINE
  5
AE2
  8
0
 10
13279.7257639079
 20
-6483.3006897101814
 30
0.0
 11
13279.7257639079
 21
-6554.2431881579769
 31
0.0
  0
LINE
  5
AE3
  8
0
 10
13279.7257639079
 20
-6554.2431881579769
 30
0.0
 11
13264.7257639079
 21
-6684.2431881579769
 31
0.0
  0
LINE
  5
AE4
  8
0
 10
13264.7257639079
 20
-6684.2431881579769
 30
0.0
 11
13264.7257639079
 21
-6954.3581912623849
 31
0.0
  0
LINE
  5
AE5
  8
0
 10
13264.7257639079
 20
-6954.3581912623849
 30
0.0
 11
13279.7257639079
 21
-7084.3581912623831
 31
0.0
  0
LINE
  5
AE6
  8
0
 10
13279.7257639079
 20
-7084.3581912623831
 30
0.0
 11
13279.7257639079
 21
-7155.3006897101804
 31
0.0
  0
LINE
  5
AEE
  8
0
 10
-10613.830497991459
 20
18904.14089451504
 30
0.0
 11
-10613.830497991459
 21
16584.14089451504
 31
0.0
  0
LINE
  5
AEF
  8
0
 10
-10613.830497991459
 20
16584.14089451504
 30
0.0
 11
-10553.83049799147
 21
16584.14089451504
 31
0.0
  0
LINE
  5
AF0
  8
0
 10
-10553.83049799147
 20
16584.14089451504
 30
0.0
 11
-10553.83049799147
 21
18904.14089451504
 31
0.0
  0
LINE
  5
AF1
  8
0
 10
-10553.83049799147
 20
18904.14089451504
 30
0.0
 11
-10613.830497991459
 21
18904.14089451504
 31
0.0
  0
LINE
  5
AF3
  8
0
 10
-10553.83049799147
 20
18189.140894515051
 30
0.0
 11
-6453.8304979914683
 21
18189.140894515051
 31
0.0
  0
LINE
  5
AF4
  8
0
 10
-6453.8304979914683
 20
18189.140894515051
 30
0.0
 11
-6453.8304979914683
 21
17299.14089451504
 31
0.0
  0
LINE
  5
AF5
  8
0
 10
-6453.8304979914683
 20
17299.14089451504
 30
0.0
 11
-10553.83049799147
 21
17299.14089451504
 31
0.0
  0
LINE
  5
AF6
  8
0
 10
-10553.83049799147
 20
18129.140894515051
 30
0.0
 11
-6513.8304979914683
 21
18129.140894515051
 31
0.0
  0
LINE
  5
AF7
  8
0
 10
-6513.8304979914683
 20
17359.140894515051
 30
0.0
 11
-10553.83049799147
 21
17359.140894515051
 31
0.0
  0
LINE
  5
AF8
  8
0
 10
-6513.8304979914683
 20
18129.140894515051
 30
0.0
 11
-6513.8304979914683
 21
17359.140894515051
 31
0.0
  0
LINE
  5
AF9
  8
0
 10
-6513.8304979914683
 20
18129.140894515051
 30
0.0
 11
-6453.8304979914683
 21
18189.140894515051
 31
0.0
  0
LINE
  5
AFA
  8
0
 10
-6513.8304979914683
 20
17359.140894515051
 30
0.0
 11
-6453.8304979914683
 21
17299.14089451504
 31
0.0
  0
LINE
  5
AFD
  8
0
 10
-7283.8304979914683
 20
18189.140894515051
 30
0.0
 11
-7283.8304979914701
 21
18029.140894515051
 31
0.0
  0
LINE
  5
AFE
  8
0
 10
-8773.8304979914683
 20
18179.14089451504
 30
0.0
 11
-8773.8304979914683
 21
17309.14089451504
 31
0.0
  0
LINE
  5
AFF
  8
0
 10
-6453.8304979914683
 20
17519.140894515051
 30
0.0
 11
-8893.8304979914683
 21
17519.140894515051
 31
0.0
  0
LINE
  5
B01
  8
0
 10
-7223.8304979914683
 20
18129.140894515051
 30
0.0
 11
-7223.8304979914683
 21
18029.140894515051
 31
0.0
  0
LINE
  5
B02
  8
0
 10
-6513.8304979914683
 20
17459.140894515051
 30
0.0
 11
-8893.8304979914683
 21
17459.140894515051
 31
0.0
  0
LINE
  5
B04
  8
0
 10
-8913.8304979914665
 20
18179.14089451504
 30
0.0
 11
-8913.8304979914665
 21
17309.14089451504
 31
0.0
  0
LINE
  5
B05
  8
0
 10
-9073.8304979914683
 20
18179.14089451504
 30
0.0
 11
-9073.8304979914683
 21
17309.14089451504
 31
0.0
  0
LINE
  5
B06
  8
0
 10
-9213.8304979914683
 20
18179.14089451504
 30
0.0
 11
-9213.8304979914683
 21
17309.14089451504
 31
0.0
  0
LINE
  5
B07
  8
0
 10
-9373.8304979914683
 20
18179.14089451504
 30
0.0
 11
-9373.8304979914683
 21
17309.14089451504
 31
0.0
  0
LINE
  5
B08
  8
0
 10
-9513.8304979914665
 20
18179.14089451504
 30
0.0
 11
-9513.8304979914701
 21
17309.14089451504
 31
0.0
  0
LINE
  5
B09
  8
0
 10
-9673.8304979914665
 20
18179.14089451504
 30
0.0
 11
-9673.8304979914701
 21
17309.14089451504
 31
0.0
  0
LINE
  5
B0A
  8
0
 10
-9813.8304979914665
 20
18179.14089451504
 30
0.0
 11
-9813.8304979914701
 21
17309.14089451504
 31
0.0
  0
LINE
  5
B0D
  8
0
 10
-8893.8304979914683
 20
17969.14089451504
 30
0.0
 11
-6453.8304979914683
 21
17969.14089451504
 31
0.0
  0
LINE
  5
B0E
  8
0
 10
-8893.8304979914683
 20
18029.140894515051
 30
0.0
 11
-6513.8304979914683
 21
18029.140894515051
 31
0.0
  0
LINE
  5
B0F
  8
0
 10
-7223.8304979914683
 20
17459.140894515051
 30
0.0
 11
-7223.8304979914683
 21
17359.140894515051
 31
0.0
  0
LINE
  5
B10
  8
0
 10
-7283.8304979914683
 20
17459.140894515051
 30
0.0
 11
-7283.8304979914683
 21
17299.14089451504
 31
0.0
  0
LINE
  5
B11
  8
0
 10
-7223.8304979914683
 20
17969.14089451504
 30
0.0
 11
-7223.8304979914683
 21
17519.140894515051
 31
0.0
  0
LINE
  5
B12
  8
0
 10
-7283.8304979914701
 20
17969.14089451504
 30
0.0
 11
-7283.8304979914683
 21
17519.140894515051
 31
0.0
  0
LINE
  5
B14
  8
0
 10
-9813.8304979914665
 20
18179.14089451504
 30
0.0
 11
-9673.8304979914683
 21
18179.14089451504
 31
0.0
  0
LINE
  5
B15
  8
0
 10
-9513.8304979914683
 20
18179.14089451504
 30
0.0
 11
-9373.8304979914683
 21
18179.14089451504
 31
0.0
  0
LINE
  5
B16
  8
0
 10
-9213.8304979914683
 20
18179.14089451504
 30
0.0
 11
-9073.8304979914683
 21
18179.14089451504
 31
0.0
  0
LINE
  5
B17
  8
0
 10
-8913.8304979914665
 20
18179.14089451504
 30
0.0
 11
-8773.8304979914683
 21
18179.14089451504
 31
0.0
  0
LINE
  5
B1C
  8
0
 10
-9813.8304979914665
 20
17309.14089451504
 30
0.0
 11
-9673.8304979914683
 21
17309.14089451504
 31
0.0
  0
LINE
  5
B1D
  8
0
 10
-9513.8304979914683
 20
17309.14089451504
 30
0.0
 11
-9373.8304979914683
 21
17309.14089451504
 31
0.0
  0
LINE
  5
B1E
  8
0
 10
-9213.8304979914683
 20
17309.14089451504
 30
0.0
 11
-9073.8304979914683
 21
17309.14089451504
 31
0.0
  0
LINE
  5
B1F
  8
0
 10
-8913.8304979914665
 20
17309.14089451504
 30
0.0
 11
-8773.8304979914683
 21
17309.14089451504
 31
0.0
  0
LINE
  5
B21
  8
0
 10
-8893.8304979914683
 20
17459.140894515051
 30
0.0
 11
-8893.8304979914683
 21
17519.140894515051
 31
0.0
  0
LINE
  5
B22
  8
0
 10
-8893.8304979914683
 20
18029.140894515051
 30
0.0
 11
-8893.8304979914683
 21
17969.14089451504
 31
0.0
  0
LINE
  5
B23
  8
0
 10
-8893.8304979914683
 20
18029.140894515051
 30
0.0
 11
-8893.8304979914683
 21
18129.140894515051
 31
0.0
  0
LINE
  5
B25
  8
0
 10
-8893.8304979914683
 20
17459.140894515051
 30
0.0
 11
-8893.8304979914683
 21
17359.140894515051
 31
0.0
  0
LINE
  5
B26
  8
0
 10
-8283.8304979914683
 20
17459.140894515051
 30
0.0
 11
-8283.8304979914683
 21
17519.140894515051
 31
0.0
  0
LINE
  5
B27
  8
0
 10
-8283.8304979914683
 20
18029.140894515051
 30
0.0
 11
-8283.8304979914683
 21
17969.14089451504
 31
0.0
  0
LINE
  5
B28
  8
0
 10
-8483.8304979914665
 20
18029.140894515051
 30
0.0
 11
-8483.8304979914665
 21
17969.14089451504
 31
0.0
  0
LINE
  5
B29
  8
0
 10
-8483.8304979914665
 20
17459.140894515051
 30
0.0
 11
-8483.8304979914665
 21
17519.140894515051
 31
0.0
  0
LINE
  5
B2C
  8
0
 10
-8283.8304979914683
 20
17299.14089451504
 30
0.0
 11
-8283.8304979914683
 21
17359.140894515051
 31
0.0
  0
LINE
  5
B2D
  8
0
 10
-8483.8304979914665
 20
17299.14089451504
 30
0.0
 11
-8483.8304979914665
 21
17359.140894515051
 31
0.0
  0
LINE
  5
B2E
  8
0
 10
-8283.8304979914683
 20
18189.140894515051
 30
0.0
 11
-8283.8304979914683
 21
18129.140894515051
 31
0.0
  0
LINE
  5
B2F
  8
0
 10
-8483.8304979914665
 20
18189.140894515051
 30
0.0
 11
-8483.8304979914665
 21
18129.140894515051
 31
0.0
  0
LINE
  5
B30
  8
0
 10
-10603.83049799147
 20
18019.140894515051
 30
0.0
 11
-9813.8304979914665
 21
18019.140894515051
 31
0.0
  0
LINE
  5
B31
  8
0
 10
-10603.83049799147
 20
17879.140894515051
 30
0.0
 11
-9813.8304979914665
 21
17879.140894515051
 31
0.0
  0
LINE
  5
B32
  8
0
 10
-10603.83049799147
 20
17609.140894515051
 30
0.0
 11
-9813.8304979914665
 21
17609.140894515051
 31
0.0
  0
LINE
  5
B33
  8
0
 10
-10603.83049799147
 20
17469.14089451504
 30
0.0
 11
-9813.8304979914665
 21
17469.14089451504
 31
0.0
  0
LINE
  5
B35
  8
0
 10
-10603.83049799147
 20
18019.140894515051
 30
0.0
 11
-10603.83049799147
 21
17879.140894515051
 31
0.0
  0
LINE
  5
B36
  8
0
 10
-10603.83049799147
 20
17609.140894515051
 30
0.0
 11
-10603.83049799147
 21
17469.14089451504
 31
0.0
  0
LINE
  5
B37
  8
0
 10
-8713.8304979914683
 20
17299.14089451504
 30
0.0
 11
-8713.8304979914683
 21
16599.14089451504
 31
0.0
  0
LINE
  5
B38
  8
0
 10
-8663.8304979914665
 20
17299.14089451504
 30
0.0
 11
-8663.8304979914665
 21
16599.14089451504
 31
0.0
  0
LINE
  5
B39
  8
0
 10
-7503.8304979914692
 20
17299.14089451504
 30
0.0
 11
-7503.8304979914692
 21
16599.14089451504
 31
0.0
  0
LINE
  5
B3A
  8
0
 10
-7563.8304979914674
 20
17299.14089451504
 30
0.0
 11
-7563.8304979914674
 21
16599.14089451504
 31
0.0
  0
LINE
  5
B3B
  8
0
 10
-8713.8304979914683
 20
16599.14089451504
 30
0.0
 11
-8663.8304979914665
 21
16599.14089451504
 31
0.0
  0
LINE
  5
B3C
  8
0
 10
-7563.8304979914674
 20
16599.14089451504
 30
0.0
 11
-7503.8304979914692
 21
16599.14089451504
 31
0.0
  0
LINE
  5
B3D
  8
0
 10
-8713.8304979914683
 20
18189.140894515051
 30
0.0
 11
-8713.8304979914683
 21
18889.140894515051
 31
0.0
  0
LINE
  5
B3E
  8
0
 10
-7503.8304979914692
 20
18189.140894515051
 30
0.0
 11
-7503.8304979914692
 21
18889.140894515051
 31
0.0
  0
LINE
  5
B3F
  8
0
 10
-7563.8304979914674
 20
18189.140894515051
 30
0.0
 11
-7563.8304979914674
 21
18889.140894515051
 31
0.0
  0
LINE
  5
B40
  8
0
 10
-8663.8304979914665
 20
18189.140894515051
 30
0.0
 11
-8663.8304979914665
 21
18889.140894515051
 31
0.0
  0
LINE
  5
B41
  8
0
 10
-8713.8304979914683
 20
18889.140894515051
 30
0.0
 11
-8663.8304979914665
 21
18889.140894515051
 31
0.0
  0
LINE
  5
B42
  8
0
 10
-7563.8304979914674
 20
18889.140894515051
 30
0.0
 11
-7503.8304979914692
 21
18889.140894515051
 31
0.0
  0
TEXT
  5
B9C
  8
0
 10
5507.4773973572592
 20
1542.3291840584211
 30
0.0
 40
200.0
  1
m6
  0
LINE
  5
BA5
  8
0
 10
6916.1724297084729
 20
1288.1276577194949
 30
0.0
 11
6916.1724297084729
 21
-71.872342280504995
 31
0.0
  0
LINE
  5
BA7
  8
0
 10
6916.1724297084729
 20
1288.1276577194949
 30
0.0
 11
6601.1724297084729
 21
1288.1276577194949
 31
0.0
  0
LINE
  5
BAA
  8
0
 10
6206.1724297084729
 20
1358.1276577194949
 30
0.0
 11
6391.1724297084729
 21
1358.1276577194949
 31
0.0
  0
LINE
  5
BAB
  8
0
 10
6391.1724297084729
 20
1358.1276577194949
 30
0.0
 11
6601.1724297084729
 21
1288.1276577194949
 31
0.0
  0
LINE
  5
BAE
  8
0
 10
7424.2553539454939
 20
184.76867781711911
 30
0.0
 11
7424.2553539454939
 21
914.76867781711883
 31
0.0
  0
LINE
  5
BB2
  8
0
 10
7424.2553539454939
 20
914.76867781711883
 30
0.0
 11
8144.2553539454939
 21
914.76867781711883
 31
0.0
  0
LINE
  5
BB3
  8
0
 10
8144.2553539454939
 20
914.76867781711883
 30
0.0
 11
8144.2553539454939
 21
369.76867781711923
 31
0.0
  0
LINE
  5
BB4
  8
0
 10
7424.2553539454939
 20
184.76867781711911
 30
0.0
 11
7814.2553539454966
 21
184.76867781711911
 31
0.0
  0
LINE
  5
BB5
  8
0
 10
6206.1724297084729
 20
1358.1276577194949
 30
0.0
 11
6206.1724297084729
 21
-141.87234228050491
 31
0.0
  0
LINE
  5
BB6
  8
0
 10
6916.1724297084729
 20
-71.872342280505109
 30
0.0
 11
6601.1724297084729
 21
-71.872342280505109
 31
0.0
  0
LINE
  5
BB7
  8
0
 10
6206.1724297084729
 20
-141.87234228050511
 30
0.0
 11
6391.1724297084729
 21
-141.87234228050511
 31
0.0
  0
LINE
  5
BB8
  8
0
 10
6391.1724297084729
 20
-141.87234228050511
 30
0.0
 11
6601.1724297084729
 21
-71.872342280505109
 31
0.0
  0
LINE
  5
BBB
  8
0
 10
7814.2553539454966
 20
184.76867781711911
 30
0.0
 11
8020.1955030242107
 21
225.86192540644149
 31
0.0
  0
LINE
  5
BBC
  8
0
 10
8020.1955030242107
 20
225.86192540644149
 30
0.0
 11
8144.2553539454939
 21
369.76867781711923
 31
0.0
  0
LINE
  5
BBD
  8
0
 10
6178.3104338613912
 20
-462.51529386081518
 30
0.0
 11
6178.3104338613912
 21
-1962.5152938608151
 31
0.0
  0
LINE
  5
BBF
  8
0
 10
6978.3104338613912
 20
-532.51529386081529
 30
0.0
 11
6978.3104338613912
 21
-1892.5152938608151
 31
0.0
  0
LINE
  5
BC0
  8
0
 10
6178.3104338613912
 20
-462.51529386081518
 30
0.0
 11
6568.3104338613912
 21
-462.51529386081518
 31
0.0
  0
LINE
  5
BC1
  8
0
 10
6978.3104338613912
 20
-532.51529386081529
 30
0.0
 11
6777.9315205869407
 21
-532.51529386081529
 31
0.0
  0
LINE
  5
BC3
  8
0
 10
6178.3104338613912
 20
-1962.5152938608151
 30
0.0
 11
6568.3104338613912
 21
-1962.5152938608151
 31
0.0
  0
LINE
  5
BC6
  8
0
 10
8350.5151191001787
 20
-1023.925858810537
 30
0.0
 11
7860.5151191001778
 21
-1023.925858810537
 31
0.0
  0
LINE
  5
BC7
  8
0
 10
7860.5151191001778
 20
-1023.925858810537
 30
0.0
 11
7860.5151191001778
 21
-1743.925858810537
 31
0.0
  0
LINE
  5
BC8
  8
0
 10
7860.5151191001778
 20
-1743.925858810537
 30
0.0
 11
8160.5151191001796
 21
-1743.925858810537
 31
0.0
  0
LINE
  5
BCB
  8
0
 10
8350.5151191001787
 20
-1023.925858810537
 30
0.0
 11
8333.7377584276783
 21
-1563.665166410849
 31
0.0
  0
LINE
  5
BCC
  8
0
 10
8333.7377584276783
 20
-1563.665166410849
 30
0.0
 11
8160.5151191001796
 21
-1743.925858810537
 31
0.0
  0
LINE
  5
BD0
  8
0
 10
6568.3104338613912
 20
-462.51529386081518
 30
0.0
 11
6777.9315205869407
 21
-532.51529386081529
 31
0.0
  0
LINE
  5
BD1
  8
0
 10
6978.3104338613912
 20
-1892.5152938608151
 30
0.0
 11
6777.9315205869407
 21
-1892.5152938608151
 31
0.0
  0
LINE
  5
BD2
  8
0
 10
6568.3104338613912
 20
-1962.5152938608151
 30
0.0
 11
6777.9315205869407
 21
-1892.5152938608151
 31
0.0
  0
LINE
  5
BD3
  8
0
 62
     1
 10
6777.9315205869407
 20
-532.51529386081529
 30
0.0
 11
6777.9315205869407
 21
-1892.5152938608151
 31
0.0
  0
LINE
  5
BD5
  8
0
 62
     1
 10
7609.2553539454957
 20
914.76867781711883
 30
0.0
 11
7814.2553539454966
 21
184.76867781711911
 31
0.0
  0
LINE
  5
BD8
  8
0
 62
     1
 10
7819.2553539454948
 20
914.76867781711883
 30
0.0
 11
8020.1955030242107
 21
225.86192540644149
 31
0.0
  0
TEXT
  5
BD9
  8
0
 62
     1
 10
7472.1524277331782
 20
1023.870208709435
 30
0.0
 40
200.0
  1
t2
  0
TEXT
  5
BDA
  8
0
 62
     1
 10
7944.5731070306338
 20
-967.77096554735886
 30
0.0
 40
200.0
  1
t2
  0
LINE
  5
BDB
  8
0
 10
6180.7338719123209
 20
-2269.9272412173309
 30
0.0
 11
7220.7338719123209
 21
-2269.9272412173309
 31
0.0
  0
LINE
  5
BDD
  8
0
 10
6345.7338719123218
 20
-2754.9272412173309
 30
0.0
 11
7055.7338719123218
 21
-2754.9272412173309
 31
0.0
  0
LINE
  5
BDE
  8
0
 10
6180.7338719123209
 20
-2269.9272412173309
 30
0.0
 11
6345.7338719123218
 21
-2754.9272412173309
 31
0.0
  0
LINE
  5
BDF
  8
0
 10
7220.7338719123209
 20
-2269.9272412173309
 30
0.0
 11
7055.7338719123218
 21
-2754.9272412173309
 31
0.0
  0
LINE
  5
BE2
  8
0
 62
     1
 10
6975.7338719123218
 20
-2269.9272412173309
 30
0.0
 11
7055.7338719123218
 21
-2754.9272412173309
 31
0.0
  0
LINE
  5
BE3
  8
0
 62
     1
 10
6425.7338719123218
 20
-2269.9272412173309
 30
0.0
 11
6345.7338719123218
 21
-2754.9272412173309
 31
0.0
  0
LINE
  5
BFC
  8
0
 10
8465.2150542037307
 20
-1012.131571015066
 30
0.0
 11
8465.2150542037307
 21
-1412.1315710150659
 31
0.0
  0
LINE
  5
BFD
  8
0
 10
8465.2150542037307
 20
-1412.1315710150659
 30
0.0
 11
8730.215054203727
 21
-1412.1315710150659
 31
0.0
  0
LINE
  5
BFE
  8
0
 10
8730.215054203727
 20
-1412.1315710150659
 30
0.0
 11
8730.215054203727
 21
-1222.1315710150659
 31
0.0
  0
LINE
  5
C00
  8
0
 10
8465.2150542037307
 20
-1012.131571015066
 30
0.0
 11
8605.215054203727
 21
-1012.131571015066
 31
0.0
  0
LINE
  5
C01
  8
0
 10
8605.215054203727
 20
-1012.131571015066
 30
0.0
 11
8730.215054203727
 21
-1222.1315710150659
 31
0.0
  0
LINE
  5
C02
  8
0
 10
8465.2150542037307
 20
-1012.131571015066
 30
0.0
 11
8465.2150542037307
 21
-1067.1315710150659
 31
0.0
  0
LINE
  5
C03
  8
0
 62
     1
 10
8465.2150542037307
 20
-1067.1315710150659
 30
0.0
 11
8637.9531494418225
 21
-1067.1315710150659
 31
0.0
  0
LINE
  5
C04
  8
0
 62
     1
 10
8424.2821703195696
 20
-1408.8859455493939
 30
0.0
 11
8424.2821703195696
 21
-1063.8859455493939
 31
0.0
  0
LINE
  5
C05
  8
0
 62
     1
 10
8424.2821703195696
 20
-1063.8859455493939
 30
0.0
 11
8385.3912973543047
 21
-1024.995072584135
 31
0.0
  0
TEXT
  5
C20
  8
0
 10
3429.239883289672
 20
-2566.6969575305479
 30
0.0
 40
100.0
  1
t4
  0
TEXT
  5
C34
  8
0
 10
3716.3189394497322
 20
-2566.6969575305479
 30
0.0
 40
100.0
  1
t4
  0
TEXT
  5
C35
  8
0
 62
     1
 10
2656.0400219699081
 20
-2375.211940177076
 30
0.0
 40
200.0
  1
t2
  0
LINE
  5
C36
  8
0
 10
-7636.4261577130101
 20
-39.694060512629221
 30
0.0
 11
-7531.4261577130101
 21
-39.694060512629221
 31
0.0
  0
LINE
  5
C37
  8
0
 10
-7531.4261577130101
 20
-39.694060512629221
 30
0.0
 11
-7531.4261577130101
 21
45.305939487370757
 31
0.0
  0
LINE
  5
C38
  8
0
 10
-7531.4261577130101
 20
45.305939487370757
 30
0.0
 11
-7471.4261577130083
 21
45.305939487370757
 31
0.0
  0
LINE
  5
C39
  8
0
 10
-7471.4261577130083
 20
45.305939487370757
 30
0.0
 11
-7471.4261577130083
 21
-274.69406051262922
 31
0.0
  0
LINE
  5
C3D
  8
0
 10
-7471.4261577130083
 20
-274.69406051262922
 30
0.0
 11
-7731.4261577130092
 21
-274.69406051262922
 31
0.0
  0
LINE
  5
C3E
  8
0
 10
-7731.4261577130092
 20
-274.69406051262922
 30
0.0
 11
-7731.4261577130092
 21
-144.69406051262919
 31
0.0
  0
LINE
  5
C3F
  8
0
 10
-7731.4261577130092
 20
-144.69406051262919
 30
0.0
 11
-7636.4261577130101
 21
-39.694060512629221
 31
0.0
  0
TEXT
  5
C40
  8
0
 10
-7680.6895984025632
 20
-215.9677312342537
 30
0.0
 40
100.0
  1
t2
  0
LINE
  5
CB8
  8
0
 62
     1
 10
7310.2975901092777
 20
-9346.1616043747308
 30
0.0
 11
8670.2975901092777
 21
-9346.1616043747308
 31
0.0
  0
LINE
  5
CB9
  8
0
 62
     1
 10
5574.4628706856638
 20
-9407.2128904518631
 30
0.0
 11
4844.4628706856638
 21
-9612.2128904518631
 31
0.0
  0
LINE
  5
CBA
  8
0
 62
     1
 10
5574.4628706856638
 20
-9617.2128904518668
 30
0.0
 11
4885.5561182749898
 21
-9818.1530395305781
 31
0.0
  0
LINE
  5
CBF
  8
0
 62
     1
 10
8488.1384352231962
 20
-8642.7315407458882
 30
0.0
 11
8568.1384352231998
 21
-9127.7315407458882
 31
0.0
  0
LINE
  5
CC0
  8
0
 62
     1
 10
7938.138435223198
 20
-8642.7315407458882
 30
0.0
 11
7858.138435223198
 21
-9127.7315407458882
 31
0.0
  0
LINE
  5
CC7
  8
0
 62
     1
 10
4114.5677951119897
 20
-10461.469704811259
 30
0.0
 11
4287.305890350086
 21
-10461.469704811259
 31
0.0
  0
LINE
  5
CD8
  8
0
 10
2961.245666485906
 20
-2691.1401683283912
 30
0.0
 11
2993.745666485906
 21
-2391.1401683283912
 31
0.0
  0
LINE
  5
CD9
  8
0
 10
2993.745666485906
 20
-2391.1401683283912
 30
0.0
 11
2838.745666485906
 21
-2391.1401683283912
 31
0.0
  0
LINE
  5
CDA
  8
0
 10
2838.745666485906
 20
-2391.1401683283912
 30
0.0
 11
2871.245666485906
 21
-2691.1401683283912
 31
0.0
  0
LINE
  5
CDB
  8
0
 10
2871.245666485906
 20
-2691.1401683283912
 30
0.0
 11
2961.245666485906
 21
-2691.1401683283912
 31
0.0
  0
LINE
  5
CDC
  8
0
 10
2717.269742445686
 20
-2790.2939797499498
 30
0.0
 11
2754.769742445686
 21
-2380.2939797499498
 31
0.0
  0
LINE
  5
CDD
  8
0
 10
2754.769742445686
 20
-2380.2939797499498
 30
0.0
 11
2589.769742445686
 21
-2380.2939797499498
 31
0.0
  0
LINE
  5
CDE
  8
0
 10
2589.769742445686
 20
-2380.2939797499498
 30
0.0
 11
2627.2697424456851
 21
-2790.2939797499498
 31
0.0
  0
LINE
  5
CDF
  8
0
 10
2627.2697424456851
 20
-2790.2939797499498
 30
0.0
 11
2717.269742445686
 21
-2790.2939797499498
 31
0.0
  0
LINE
  5
CE0
  8
0
 10
3676.569353437284
 20
-2625.1686915793548
 30
0.0
 11
3696.569353437284
 21
-2325.1686915793548
 31
0.0
  0
LINE
  5
CE1
  8
0
 10
3696.569353437284
 20
-2325.1686915793548
 30
0.0
 11
3906.569353437284
 21
-2325.1686915793548
 31
0.0
  0
LINE
  5
CE2
  8
0
 10
3906.569353437284
 20
-2325.1686915793548
 30
0.0
 11
3906.569353437284
 21
-2735.1686915793548
 31
0.0
  0
ARC
  5
CE3
  8
0
 10
3856.569353437284
 20
-2735.1686915793548
 30
0.0
 40
50.0
 50
270.0
 51
0.0
  0
LINE
  5
CE4
  8
0
 10
3856.569353437284
 20
-2785.1686915793548
 30
0.0
 11
3776.5693534372858
 21
-2785.1686915793539
 31
0.0
  0
LINE
  5
CE5
  8
0
 10
3776.5693534372858
 20
-2785.1686915793539
 30
0.0
 11
3776.5693534372858
 21
-2625.1686915793548
 31
0.0
  0
LINE
  5
CE6
  8
0
 10
3776.5693534372858
 20
-2625.1686915793548
 30
0.0
 11
3676.569353437284
 21
-2625.1686915793548
 31
0.0
  0
LINE
  5
CE7
  8
0
 10
3624.6145219758482
 20
-2653.9392224051699
 30
0.0
 11
3624.6145219758482
 21
-2573.9392224051699
 31
0.0
  0
LINE
  5
CE8
  8
0
 10
3624.6145219758482
 20
-2573.9392224051699
 30
0.0
 11
3589.1119966589058
 21
-2364.4417477221118
 31
0.0
  0
LINE
  5
CE9
  8
0
 10
3589.1119966589058
 20
-2364.4417477221118
 30
0.0
 11
3474.1119966589049
 21
-2364.4417477221118
 31
0.0
  0
LINE
  5
CEA
  8
0
 10
3474.1119966589049
 20
-2364.4417477221118
 30
0.0
 11
3424.6145219758469
 21
-2413.9392224051689
 31
0.0
  0
LINE
  5
CEB
  8
0
 10
3424.6145219758469
 20
-2413.9392224051689
 30
0.0
 11
3424.6145219758469
 21
-2653.9392224051699
 31
0.0
  0
LINE
  5
CEC
  8
0
 10
3424.6145219758469
 20
-2653.9392224051699
 30
0.0
 11
3624.6145219758482
 21
-2653.9392224051699
 31
0.0
  0
LINE
  5
CF3
  8
0
 10
2962.143184091386
 20
-5913.194662285634
 30
0.0
 11
2994.8598507580518
 21
-5611.194662285634
 31
0.0
  0
LINE
  5
CF4
  8
0
 10
2994.8598507580518
 20
-5611.194662285634
 30
0.0
 11
2837.6314822137601
 21
-5611.194662285634
 31
0.0
  0
LINE
  5
CF5
  8
0
 10
2837.6314822137601
 20
-5611.194662285634
 30
0.0
 11
2870.3481488804259
 21
-5913.194662285634
 31
0.0
  0
LINE
  5
CF6
  8
0
 10
2870.3481488804259
 20
-5913.194662285634
 30
0.0
 11
2962.143184091386
 21
-5913.194662285634
 31
0.0
  0
LINE
  5
CF7
  8
0
 10
2718.1824530977451
 20
-6012.3484737071913
 30
0.0
 11
2755.8653799270119
 21
-5600.3484737071922
 31
0.0
  0
LINE
  5
CF8
  8
0
 10
2755.8653799270119
 20
-5600.3484737071922
 30
0.0
 11
2588.6741049643601
 21
-5600.3484737071922
 31
0.0
  0
LINE
  5
CF9
  8
0
 10
2588.6741049643601
 20
-5600.3484737071922
 30
0.0
 11
2626.3570317936278
 21
-6012.3484737071913
 31
0.0
  0
LINE
  5
CFA
  8
0
 10
2626.3570317936278
 20
-6012.3484737071913
 30
0.0
 11
2718.1824530977451
 21
-6012.3484737071913
 31
0.0
  0
LINE
  5
D3E
  8
0
 62
     1
 10
4426.1370827119272
 20
-11022.78482493003
 30
0.0
 11
5786.1370827119281
 21
-11022.78482493003
 31
0.0
  0
LINE
  5
D63
  8
0
 10
-8543.1320607771922
 20
13.043327943043799
 30
0.0
 11
-8543.1320607771922
 21
-536.95667205695645
 31
0.0
  0
LINE
  5
DF9
  8
0
 10
-8543.1320607771922
 20
-536.95667205695645
 30
0.0
 11
-8448.1320607771922
 21
-536.95667205695645
 31
0.0
  0
LINE
  5
DFA
  8
0
 10
-8398.1320607771904
 20
-486.95667205695622
 30
0.0
 11
-8398.1320607771904
 21
-6.956672056956438
 31
0.0
  0
LINE
  5
DFB
  8
0
 10
-8448.1320607771922
 20
43.043327943043572
 30
0.0
 11
-8513.1320607771922
 21
43.043327943043529
 31
0.0
  0
LINE
  5
DFE
  8
0
 10
-8513.1320607771922
 20
43.043327943043529
 30
0.0
 11
-8543.1320607771922
 21
13.04332794304355
 31
0.0
  0
ARC
  5
DFF
  8
0
 10
-8448.1320607771922
 20
-6.956672056956438
 30
0.0
 40
50.0
 50
0.0
 51
90.0
  0
ARC
  5
E00
  8
0
 10
-8448.1320607771922
 20
-486.95667205695622
 30
0.0
 40
50.0
 50
270.0
 51
0.0
  0
ARC
  5
E02
  8
0
 10
-8448.1320607771922
 20
-246.95667205695639
 30
0.0
 40
20.0
 50
180.0
 51
0.0
  0
ARC
  5
E04
  8
0
 10
-8448.1320607771922
 20
-246.95667205695639
 30
0.0
 40
20.0
 50
0.0
 51
180.0
  0
LINE
  5
E05
  8
0
 10
-8468.1320607771904
 20
-246.95667205695639
 30
0.0
 11
-8461.2880288186116
 21
-248.6428015302518
 31
0.0
  0
LINE
  5
E06
  8
0
 10
-8468.1320607771904
 20
-246.95667205695639
 30
0.0
 11
-8457.8073341881391
 21
-244.7474943623092
 31
0.0
  0
LINE
  5
F6E
  8
0
 10
3027.3591673924229
 20
-10812.26970481126
 30
0.0
 11
3027.3591673924229
 21
-10807.26970481126
 31
0.0
  0
LINE
  5
F6F
  8
0
 10
3027.3591673924229
 20
-10807.26970481126
 30
0.0
 11
3293.9591673924242
 21
-10807.26970481126
 31
0.0
  0
LINE
  5
F70
  8
0
 10
3293.9591673924242
 20
-10807.26970481126
 30
0.0
 11
3293.9591673924242
 21
-10616.2496280868
 31
0.0
  0
LINE
  5
F71
  8
0
 10
3293.9591673924242
 20
-10616.2496280868
 30
0.0
 11
3168.6139749665081
 21
-10405.66970481126
 31
0.0
  0
LINE
  5
F72
  8
0
 10
3168.6139749665081
 20
-10405.66970481126
 30
0.0
 11
3027.3591673924229
 21
-10405.66970481126
 31
0.0
  0
LINE
  5
F73
  8
0
 10
3027.3591673924229
 20
-10405.66970481126
 30
0.0
 11
3027.3591673924229
 21
-10807.26970481126
 31
0.0
  0
LINE
  5
F74
  8
0
 10
3027.3591673924229
 20
-10807.26970481126
 30
0.0
 11
2760.7591673924221
 21
-10807.26970481126
 31
0.0
  0
LINE
  5
F75
  8
0
 10
2760.7591673924221
 20
-10807.26970481126
 30
0.0
 11
2760.7591673924221
 21
-10616.2496280868
 31
0.0
  0
LINE
  5
F76
  8
0
 10
2760.7591673924221
 20
-10616.2496280868
 30
0.0
 11
2886.1043598183378
 21
-10405.66970481126
 31
0.0
  0
LINE
  5
F77
  8
0
 10
2886.1043598183378
 20
-10405.66970481126
 30
0.0
 11
3027.3591673924229
 21
-10405.66970481126
 31
0.0
  0
LINE
  5
F78
  8
0
 10
3027.3591673924229
 20
-10405.66970481126
 30
0.0
 11
3027.3591673924229
 21
-10400.66970481126
 31
0.0
  0
LINE
  5
F7B
  8
0
 10
3570.561575337088
 20
-10812.26970481126
 30
0.0
 11
3570.561575337088
 21
-10807.26970481126
 31
0.0
  0
LINE
  5
F7C
  8
0
 10
3570.561575337088
 20
-10807.26970481126
 30
0.0
 11
3837.1615753370879
 21
-10807.26970481126
 31
0.0
  0
LINE
  5
F7D
  8
0
 10
3837.1615753370879
 20
-10807.26970481126
 30
0.0
 11
3837.1615753370879
 21
-10616.2496280868
 31
0.0
  0
LINE
  5
F7E
  8
0
 10
3837.1615753370879
 20
-10616.2496280868
 30
0.0
 11
3711.8163829111718
 21
-10405.66970481126
 31
0.0
  0
LINE
  5
F7F
  8
0
 10
3711.8163829111718
 20
-10405.66970481126
 30
0.0
 11
3570.561575337088
 21
-10405.66970481126
 31
0.0
  0
LINE
  5
F80
  8
0
 10
3570.561575337088
 20
-10405.66970481126
 30
0.0
 11
3570.561575337088
 21
-10807.26970481126
 31
0.0
  0
LINE
  5
F81
  8
0
 10
3570.561575337088
 20
-10807.26970481126
 30
0.0
 11
3303.9615753370872
 21
-10807.26970481126
 31
0.0
  0
LINE
  5
F82
  8
0
 10
3303.9615753370872
 20
-10807.26970481126
 30
0.0
 11
3303.9615753370872
 21
-10616.2496280868
 31
0.0
  0
LINE
  5
F83
  8
0
 10
3303.9615753370872
 20
-10616.2496280868
 30
0.0
 11
3429.3067677630038
 21
-10405.66970481126
 31
0.0
  0
LINE
  5
F84
  8
0
 10
3429.3067677630038
 20
-10405.66970481126
 30
0.0
 11
3570.561575337088
 21
-10405.66970481126
 31
0.0
  0
LINE
  5
F85
  8
0
 10
3570.561575337088
 20
-10405.66970481126
 30
0.0
 11
3570.561575337088
 21
-10400.66970481126
 31
0.0
  0
LINE
  5
F86
  8
0
 10
4113.7677951119904
 20
-10812.26970481126
 30
0.0
 11
4113.7677951119904
 21
-10807.26970481126
 31
0.0
  0
LINE
  5
F87
  8
0
 10
4113.7677951119904
 20
-10807.26970481126
 30
0.0
 11
4380.3677951119907
 21
-10807.26970481126
 31
0.0
  0
LINE
  5
F88
  8
0
 10
4380.3677951119907
 20
-10807.26970481126
 30
0.0
 11
4380.3677951119907
 21
-10616.2496280868
 31
0.0
  0
LINE
  5
F89
  8
0
 10
4380.3677951119907
 20
-10616.2496280868
 30
0.0
 11
4255.0226026860719
 21
-10405.66970481126
 31
0.0
  0
LINE
  5
F8A
  8
0
 10
4255.0226026860719
 20
-10405.66970481126
 30
0.0
 11
4113.7677951119904
 21
-10405.66970481126
 31
0.0
  0
LINE
  5
F8B
  8
0
 10
4113.7677951119904
 20
-10405.66970481126
 30
0.0
 11
4113.7677951119904
 21
-10807.26970481126
 31
0.0
  0
LINE
  5
F8C
  8
0
 10
4113.7677951119904
 20
-10807.26970481126
 30
0.0
 11
3847.1677951119891
 21
-10807.26970481126
 31
0.0
  0
LINE
  5
F8D
  8
0
 10
3847.1677951119891
 20
-10807.26970481126
 30
0.0
 11
3847.1677951119891
 21
-10616.2496280868
 31
0.0
  0
LINE
  5
F8E
  8
0
 10
3847.1677951119891
 20
-10616.2496280868
 30
0.0
 11
3972.5129875379062
 21
-10405.66970481126
 31
0.0
  0
LINE
  5
F8F
  8
0
 10
3972.5129875379062
 20
-10405.66970481126
 30
0.0
 11
4113.7677951119904
 21
-10405.66970481126
 31
0.0
  0
LINE
  5
F90
  8
0
 10
4113.7677951119904
 20
-10405.66970481126
 30
0.0
 11
4113.7677951119904
 21
-10400.66970481126
 31
0.0
  0
LINE
  5
F91
  8
0
 10
4420.6343865826202
 20
-10836.180785402939
 30
0.0
 11
4415.6343865826193
 21
-10836.180785402939
 31
0.0
  0
LINE
  5
F92
  8
0
 10
4415.6343865826193
 20
-10836.180785402939
 30
0.0
 11
4415.6343865826193
 21
-11022.110607531071
 31
0.0
  0
LINE
  5
F93
  8
0
 10
4415.6343865826193
 20
-11022.110607531071
 30
0.0
 11
4345.6343865826202
 21
-11232.110607531071
 31
0.0
  0
LINE
  5
F94
  8
0
 10
4345.6343865826202
 20
-11232.110607531071
 30
0.0
 11
4345.6343865826202
 21
-11547.78078540294
 31
0.0
  0
LINE
  5
F95
  8
0
 10
4345.6343865826202
 20
-11547.78078540294
 30
0.0
 11
2984.0343865826221
 21
-11547.78078540294
 31
0.0
  0
LINE
  5
F96
  8
0
 10
2984.0343865826221
 20
-11547.78078540294
 30
0.0
 11
2984.0343865826221
 21
-11232.110607531071
 31
0.0
  0
LINE
  5
F97
  8
0
 10
2984.0343865826221
 20
-11232.110607531071
 30
0.0
 11
2914.0343865826221
 21
-11022.110607531071
 31
0.0
  0
LINE
  5
F98
  8
0
 10
2914.0343865826221
 20
-11022.110607531071
 30
0.0
 11
2914.0343865826221
 21
-10836.180785402939
 31
0.0
  0
LINE
  5
F99
  8
0
 10
2914.0343865826221
 20
-10836.180785402939
 30
0.0
 11
4415.6343865826193
 21
-10836.180785402939
 31
0.0
  0
LINE
  5
F9A
  8
0
 10
4415.6343865826193
 20
-10836.180785402939
 30
0.0
 11
4415.6343865826193
 21
-10831.180785402939
 31
0.0
  0
LINE
  5
F9B
  8
0
 10
5111.9712430590034
 20
-10812.26970481126
 30
0.0
 11
5111.9712430590034
 21
-10807.26970481126
 31
0.0
  0
LINE
  5
F9C
  8
0
 10
5111.9712430590034
 20
-10807.26970481126
 30
0.0
 11
5833.5712430590011
 21
-10807.26970481126
 31
0.0
  0
LINE
  5
F9D
  8
0
 10
5833.5712430590011
 20
-10807.26970481126
 30
0.0
 11
5833.5712430590011
 21
-10506.12896558674
 31
0.0
  0
LINE
  5
F9E
  8
0
 10
5833.5712430590011
 20
-10506.12896558674
 30
0.0
 11
5652.842981153889
 21
-10332.457012419831
 31
0.0
  0
LINE
  5
F9F
  8
0
 10
5652.842981153889
 20
-10332.457012419831
 30
0.0
 11
5111.9712430590034
 21
-10315.644451059559
 31
0.0
  0
LINE
  5
FA0
  8
0
 10
5111.9712430590034
 20
-10315.644451059559
 30
0.0
 11
5111.9712430590034
 21
-10807.26970481126
 31
0.0
  0
LINE
  5
FA1
  8
0
 10
5111.9712430590034
 20
-10807.26970481126
 30
0.0
 11
4390.371243059004
 21
-10807.26970481126
 31
0.0
  0
LINE
  5
FA2
  8
0
 10
4390.371243059004
 20
-10807.26970481126
 30
0.0
 11
4390.371243059004
 21
-10506.12896558674
 31
0.0
  0
LINE
  5
FA3
  8
0
 10
4390.371243059004
 20
-10506.12896558674
 30
0.0
 11
4571.099504964116
 21
-10332.457012419831
 31
0.0
  0
LINE
  5
FA4
  8
0
 10
4571.099504964116
 20
-10332.457012419831
 30
0.0
 11
5111.9712430590034
 21
-10315.644451059559
 31
0.0
  0
LINE
  5
FA5
  8
0
 10
5111.9712430590034
 20
-10315.644451059559
 30
0.0
 11
5111.9712430590034
 21
-10310.644451059559
 31
0.0
  0
LINE
  5
FA6
  8
0
 10
5791.9370827119274
 20
-10821.605911655581
 30
0.0
 11
5786.9370827119274
 21
-10821.605911655581
 31
0.0
  0
LINE
  5
FA7
  8
0
 10
5786.9370827119274
 20
-10821.605911655581
 30
0.0
 11
5786.9370827119274
 21
-11022.654780206891
 31
0.0
  0
LINE
  5
FA8
  8
0
 10
5786.9370827119274
 20
-11022.654780206891
 30
0.0
 11
5856.9370827119301
 21
-11232.275866932439
 31
0.0
  0
LINE
  5
FA9
  8
0
 10
5856.9370827119301
 20
-11232.275866932439
 30
0.0
 11
5856.9370827119274
 21
-11623.205911655579
 31
0.0
  0
LINE
  5
FAA
  8
0
 10
5856.9370827119274
 20
-11623.205911655579
 30
0.0
 11
4355.3370827119288
 21
-11623.205911655579
 31
0.0
  0
LINE
  5
FAB
  8
0
 10
4355.3370827119288
 20
-11623.205911655579
 30
0.0
 11
4355.3370827119288
 21
-11232.275866932439
 31
0.0
  0
LINE
  5
FAC
  8
0
 10
4355.3370827119288
 20
-11232.275866932439
 30
0.0
 11
4425.3370827119261
 21
-11022.654780206891
 31
0.0
  0
LINE
  5
FAD
  8
0
 10
4425.3370827119261
 20
-11022.654780206891
 30
0.0
 11
4425.3370827119288
 21
-10821.605911655581
 31
0.0
  0
LINE
  5
FAE
  8
0
 10
4425.3370827119288
 20
-10821.605911655581
 30
0.0
 11
5786.9370827119274
 21
-10821.605911655581
 31
0.0
  0
LINE
  5
FAF
  8
0
 10
5786.9370827119274
 20
-10821.605911655581
 30
0.0
 11
5786.9370827119274
 21
-10816.60591165557
 31
0.0
  0
LINE
  5
FB0
  8
0
 10
6565.1754580738852
 20
-10812.26970481126
 30
0.0
 11
6565.1754580738852
 21
-10807.26970481126
 31
0.0
  0
LINE
  5
FB1
  8
0
 10
6565.1754580738852
 20
-10807.26970481126
 30
0.0
 11
7286.7754580738829
 21
-10807.26970481126
 31
0.0
  0
LINE
  5
FB2
  8
0
 10
7286.7754580738829
 20
-10807.26970481126
 30
0.0
 11
7286.7754580738829
 21
-10506.12896558674
 31
0.0
  0
LINE
  5
FB3
  8
0
 10
7286.7754580738829
 20
-10506.12896558674
 30
0.0
 11
7106.0471961687699
 21
-10332.457012419831
 31
0.0
  0
LINE
  5
FB4
  8
0
 10
7106.0471961687699
 20
-10332.457012419831
 30
0.0
 11
6565.1754580738852
 21
-10315.644451059559
 31
0.0
  0
LINE
  5
FB5
  8
0
 10
6565.1754580738852
 20
-10315.644451059559
 30
0.0
 11
6565.1754580738852
 21
-10807.26970481126
 31
0.0
  0
LINE
  5
FB6
  8
0
 10
6565.1754580738852
 20
-10807.26970481126
 30
0.0
 11
5843.5754580738849
 21
-10807.26970481126
 31
0.0
  0
LINE
  5
FB7
  8
0
 10
5843.5754580738849
 20
-10807.26970481126
 30
0.0
 11
5843.5754580738849
 21
-10506.12896558674
 31
0.0
  0
LINE
  5
FB8
  8
0
 10
5843.5754580738849
 20
-10506.12896558674
 30
0.0
 11
6024.3037199789978
 21
-10332.457012419831
 31
0.0
  0
LINE
  5
FB9
  8
0
 10
6024.3037199789978
 20
-10332.457012419831
 30
0.0
 11
6565.1754580738852
 21
-10315.644451059559
 31
0.0
  0
LINE
  5
FBA
  8
0
 10
6565.1754580738852
 20
-10315.644451059559
 30
0.0
 11
6565.1754580738852
 21
-10310.644451059559
 31
0.0
  0
LINE
  5
FBB
  8
0
 10
8018.6697691586824
 20
-10812.26970481126
 30
0.0
 11
8018.6697691586824
 21
-10807.26970481126
 31
0.0
  0
LINE
  5
FBC
  8
0
 10
8018.6697691586824
 20
-10807.26970481126
 30
0.0
 11
8740.2697691586764
 21
-10807.26970481126
 31
0.0
  0
LINE
  5
FBD
  8
0
 10
8740.2697691586764
 20
-10807.26970481126
 30
0.0
 11
8740.2697691586764
 21
-10506.12896558674
 31
0.0
  0
LINE
  5
FBE
  8
0
 10
8740.2697691586764
 20
-10506.12896558674
 30
0.0
 11
8559.5415072535707
 21
-10332.457012419831
 31
0.0
  0
LINE
  5
FBF
  8
0
 10
8559.5415072535707
 20
-10332.457012419831
 30
0.0
 11
8018.6697691586824
 21
-10315.644451059559
 31
0.0
  0
LINE
  5
FC0
  8
0
 10
8018.6697691586824
 20
-10315.644451059559
 30
0.0
 11
8018.6697691586824
 21
-10807.26970481126
 31
0.0
  0
LINE
  5
FC1
  8
0
 10
8018.6697691586824
 20
-10807.26970481126
 30
0.0
 11
7297.0697691586829
 21
-10807.26970481126
 31
0.0
  0
LINE
  5
FC2
  8
0
 10
7297.0697691586829
 20
-10807.26970481126
 30
0.0
 11
7297.0697691586829
 21
-10506.12896558674
 31
0.0
  0
LINE
  5
FC3
  8
0
 10
7297.0697691586829
 20
-10506.12896558674
 30
0.0
 11
7477.798031063795
 21
-10332.457012419831
 31
0.0
  0
LINE
  5
FC4
  8
0
 10
7477.798031063795
 20
-10332.457012419831
 30
0.0
 11
8018.6697691586824
 21
-10315.644451059559
 31
0.0
  0
LINE
  5
FC5
  8
0
 10
8018.6697691586824
 20
-10315.644451059559
 30
0.0
 11
8018.6697691586824
 21
-10310.644451059559
 31
0.0
  0
LINE
  5
108F
  8
0
 10
4097.0628706856769
 20
-9221.412890451862
 30
0.0
 11
4092.062870685676
 21
-9221.412890451862
 31
0.0
  0
LINE
  5
1090
  8
0
 10
4092.062870685676
 20
-9221.412890451862
 30
0.0
 11
4092.062870685676
 21
-9943.0128904518642
 31
0.0
  0
LINE
  5
1091
  8
0
 10
4092.062870685676
 20
-9943.0128904518642
 30
0.0
 11
3545.9656383595288
 21
-9943.0128904518642
 31
0.0
  0
LINE
  5
1092
  8
0
 10
3545.9656383595288
 20
-9943.0128904518642
 30
0.0
 11
3401.6254129659842
 21
-9818.5793489793577
 31
0.0
  0
LINE
  5
1093
  8
0
 10
3401.6254129659842
 20
-9818.5793489793577
 30
0.0
 11
3360.4628706856838
 21
-9612.291927299224
 31
0.0
  0
LINE
  5
1094
  8
0
 10
3360.4628706856838
 20
-9612.291927299224
 30
0.0
 11
3360.4628706856838
 21
-9221.4128904518602
 31
0.0
  0
LINE
  5
1095
  8
0
 10
3360.4628706856838
 20
-9221.4128904518602
 30
0.0
 11
4092.062870685676
 21
-9221.412890451862
 31
0.0
  0
LINE
  5
1096
  8
0
 10
4092.062870685676
 20
-9221.412890451862
 30
0.0
 11
4092.062870685676
 21
-8499.8128904518617
 31
0.0
  0
LINE
  5
1097
  8
0
 10
4092.062870685676
 20
-8499.8128904518617
 30
0.0
 11
3545.9656383595288
 21
-8499.8128904518617
 31
0.0
  0
LINE
  5
1098
  8
0
 10
3545.9656383595288
 20
-8499.8128904518617
 30
0.0
 11
3401.6254129659842
 21
-8624.2464319243663
 31
0.0
  0
LINE
  5
1099
  8
0
 10
3401.6254129659842
 20
-8624.2464319243663
 30
0.0
 11
3360.4628706856838
 21
-8830.5338536045037
 31
0.0
  0
LINE
  5
109A
  8
0
 10
3360.4628706856838
 20
-8830.5338536045037
 30
0.0
 11
3360.4628706856838
 21
-9221.4128904518602
 31
0.0
  0
LINE
  5
109B
  8
0
 10
3360.4628706856838
 20
-9221.4128904518602
 30
0.0
 11
3355.4628706856852
 21
-9221.4128904518602
 31
0.0
  0
LINE
  5
109E
  8
0
 10
4838.66287068567
 20
-9221.412890451862
 30
0.0
 11
4833.66287068567
 21
-9221.412890451862
 31
0.0
  0
LINE
  5
109F
  8
0
 10
4833.66287068567
 20
-9221.412890451862
 30
0.0
 11
4833.66287068567
 21
-9943.0128904518679
 31
0.0
  0
LINE
  5
10A0
  8
0
 10
4833.66287068567
 20
-9943.0128904518679
 30
0.0
 11
4287.5656383595197
 21
-9943.0128904518642
 31
0.0
  0
LINE
  5
10A1
  8
0
 10
4287.5656383595197
 20
-9943.0128904518642
 30
0.0
 11
4143.2254129659759
 21
-9818.5793489793577
 31
0.0
  0
LINE
  5
10A2
  8
0
 10
4143.2254129659759
 20
-9818.5793489793577
 30
0.0
 11
4102.0628706856769
 21
-9612.2919272992258
 31
0.0
  0
LINE
  5
10A3
  8
0
 10
4102.0628706856769
 20
-9612.2919272992258
 30
0.0
 11
4102.0628706856769
 21
-9221.412890451862
 31
0.0
  0
LINE
  5
10A4
  8
0
 10
4102.0628706856769
 20
-9221.412890451862
 30
0.0
 11
4833.66287068567
 21
-9221.412890451862
 31
0.0
  0
LINE
  5
10A5
  8
0
 10
4833.66287068567
 20
-9221.412890451862
 30
0.0
 11
4833.66287068567
 21
-8499.8128904518617
 31
0.0
  0
LINE
  5
10A6
  8
0
 10
4833.66287068567
 20
-8499.8128904518617
 30
0.0
 11
4287.5656383595197
 21
-8499.8128904518617
 31
0.0
  0
LINE
  5
10A7
  8
0
 10
4287.5656383595197
 20
-8499.8128904518617
 30
0.0
 11
4143.2254129659759
 21
-8624.2464319243663
 31
0.0
  0
LINE
  5
10A8
  8
0
 10
4143.2254129659759
 20
-8624.2464319243663
 30
0.0
 11
4102.0628706856769
 21
-8830.5338536045037
 31
0.0
  0
LINE
  5
10A9
  8
0
 10
4102.0628706856769
 20
-8830.5338536045037
 30
0.0
 11
4102.0628706856769
 21
-9221.412890451862
 31
0.0
  0
LINE
  5
10AA
  8
0
 10
4102.0628706856769
 20
-9221.412890451862
 30
0.0
 11
4097.0628706856769
 21
-9221.412890451862
 31
0.0
  0
LINE
  5
10AB
  8
0
 10
5580.2628706856631
 20
-9221.412890451862
 30
0.0
 11
5575.2628706856631
 21
-9221.412890451862
 31
0.0
  0
LINE
  5
10AC
  8
0
 10
5575.2628706856631
 20
-9221.412890451862
 30
0.0
 11
5575.2628706856631
 21
-9943.0128904518679
 31
0.0
  0
LINE
  5
10AD
  8
0
 10
5575.2628706856631
 20
-9943.0128904518679
 30
0.0
 11
5029.1656383595146
 21
-9943.0128904518679
 31
0.0
  0
LINE
  5
10AE
  8
0
 10
5029.1656383595146
 20
-9943.0128904518679
 30
0.0
 11
4884.8254129659699
 21
-9818.5793489793577
 31
0.0
  0
LINE
  5
10AF
  8
0
 10
4884.8254129659699
 20
-9818.5793489793577
 30
0.0
 11
4843.66287068567
 21
-9612.2919272992258
 31
0.0
  0
LINE
  5
10B0
  8
0
 10
4843.66287068567
 20
-9612.2919272992258
 30
0.0
 11
4843.66287068567
 21
-9221.412890451862
 31
0.0
  0
LINE
  5
10B1
  8
0
 10
4843.66287068567
 20
-9221.412890451862
 30
0.0
 11
5575.2628706856631
 21
-9221.412890451862
 31
0.0
  0
LINE
  5
10B2
  8
0
 10
5575.2628706856631
 20
-9221.412890451862
 30
0.0
 11
5575.2628706856631
 21
-8499.812890451869
 31
0.0
  0
LINE
  5
10B3
  8
0
 10
5575.2628706856631
 20
-8499.812890451869
 30
0.0
 11
5029.1656383595146
 21
-8499.8128904518617
 31
0.0
  0
LINE
  5
10B4
  8
0
 10
5029.1656383595146
 20
-8499.8128904518617
 30
0.0
 11
4884.8254129659699
 21
-8624.2464319243663
 31
0.0
  0
LINE
  5
10B5
  8
0
 10
4884.8254129659699
 20
-8624.2464319243663
 30
0.0
 11
4843.66287068567
 21
-8830.5338536045037
 31
0.0
  0
LINE
  5
10B6
  8
0
 10
4843.66287068567
 20
-8830.5338536045037
 30
0.0
 11
4843.66287068567
 21
-9221.412890451862
 31
0.0
  0
LINE
  5
10B7
  8
0
 10
4843.66287068567
 20
-9221.412890451862
 30
0.0
 11
4838.66287068567
 21
-9221.412890451862
 31
0.0
  0
LINE
  5
10B8
  8
0
 10
5586.7109522467663
 20
-8636.9315407458853
 30
0.0
 11
5586.7109522467663
 21
-8641.9315407458835
 31
0.0
  0
LINE
  5
10B9
  8
0
 10
5586.7109522467663
 20
-8641.9315407458835
 30
0.0
 11
6628.9453398458427
 21
-8641.9315407458835
 31
0.0
  0
LINE
  5
10BA
  8
0
 10
6628.9453398458427
 20
-8641.9315407458835
 30
0.0
 11
6463.401009948936
 21
-9128.5315407458838
 31
0.0
  0
LINE
  5
10BB
  8
0
 10
6463.401009948936
 20
-9128.5315407458838
 30
0.0
 11
5752.2552821436739
 21
-9128.5315407458838
 31
0.0
  0
LINE
  5
10BC
  8
0
 10
5752.2552821436739
 20
-9128.5315407458838
 30
0.0
 11
5586.7109522467663
 21
-8641.9315407458835
 31
0.0
  0
LINE
  5
10BD
  8
0
 10
5586.7109522467663
 20
-8641.9315407458835
 30
0.0
 11
5581.7109522467663
 21
-8641.9315407458835
 31
0.0
  0
LINE
  5
10BE
  8
0
 10
6639.2028261501118
 20
-8636.9315407458853
 30
0.0
 11
6639.2028261501118
 21
-8641.9315407458835
 31
0.0
  0
LINE
  5
10BF
  8
0
 10
6639.2028261501118
 20
-8641.9315407458835
 30
0.0
 11
7681.4372137491873
 21
-8641.9315407458835
 31
0.0
  0
LINE
  5
10C0
  8
0
 10
7681.4372137491873
 20
-8641.9315407458835
 30
0.0
 11
7515.8928838522806
 21
-9128.5315407458838
 31
0.0
  0
LINE
  5
10C1
  8
0
 10
7515.8928838522806
 20
-9128.5315407458838
 30
0.0
 11
6804.7471560470203
 21
-9128.5315407458838
 31
0.0
  0
LINE
  5
10C2
  8
0
 10
6804.7471560470203
 20
-9128.5315407458838
 30
0.0
 11
6639.2028261501118
 21
-8641.9315407458835
 31
0.0
  0
LINE
  5
10C3
  8
0
 10
6639.2028261501118
 20
-8641.9315407458835
 30
0.0
 11
6634.2028261501118
 21
-8641.9315407458835
 31
0.0
  0
LINE
  5
10C4
  8
0
 10
7692.0212414236594
 20
-8636.9315407458853
 30
0.0
 11
7692.0212414236594
 21
-8641.9315407458835
 31
0.0
  0
LINE
  5
10C5
  8
0
 10
7692.0212414236594
 20
-8641.9315407458835
 30
0.0
 11
8734.2556290227349
 21
-8641.9315407458835
 31
0.0
  0
LINE
  5
10C6
  8
0
 10
8734.2556290227349
 20
-8641.9315407458835
 30
0.0
 11
8568.7112991258273
 21
-9128.5315407458838
 31
0.0
  0
LINE
  5
10C7
  8
0
 10
8568.7112991258273
 20
-9128.5315407458838
 30
0.0
 11
7857.5655713205661
 21
-9128.5315407458838
 31
0.0
  0
LINE
  5
10C8
  8
0
 10
7857.5655713205661
 20
-9128.5315407458838
 30
0.0
 11
7692.0212414236594
 21
-8641.9315407458835
 31
0.0
  0
LINE
  5
10C9
  8
0
 10
7692.0212414236594
 20
-8641.9315407458835
 30
0.0
 11
7687.0212414236594
 21
-8641.9315407458835
 31
0.0
  0
LINE
  5
10CA
  8
0
 10
7303.2487457980569
 20
-9159.5575648476424
 30
0.0
 11
7298.2487457980578
 21
-9159.5575648476424
 31
0.0
  0
LINE
  5
10CB
  8
0
 10
7298.2487457980578
 20
-9159.5575648476424
 30
0.0
 11
7298.2487457980578
 21
-9345.4873869757757
 31
0.0
  0
LINE
  5
10CC
  8
0
 10
7298.2487457980578
 20
-9345.4873869757757
 30
0.0
 11
7228.2487457980578
 21
-9555.4873869757794
 31
0.0
  0
LINE
  5
10CD
  8
0
 10
7228.2487457980578
 20
-9555.4873869757794
 30
0.0
 11
7228.2487457980578
 21
-9871.1575648476428
 31
0.0
  0
LINE
  5
10CE
  8
0
 10
7228.2487457980578
 20
-9871.1575648476428
 30
0.0
 11
5866.6487457980602
 21
-9871.1575648476428
 31
0.0
  0
LINE
  5
10CF
  8
0
 10
5866.6487457980602
 20
-9871.1575648476428
 30
0.0
 11
5866.6487457980602
 21
-9555.4873869757794
 31
0.0
  0
LINE
  5
10D0
  8
0
 10
5866.6487457980602
 20
-9555.4873869757794
 30
0.0
 11
5796.6487457980602
 21
-9345.4873869757757
 31
0.0
  0
LINE
  5
10D1
  8
0
 10
5796.6487457980602
 20
-9345.4873869757757
 30
0.0
 11
5796.6487457980602
 21
-9159.5575648476424
 31
0.0
  0
LINE
  5
10D2
  8
0
 10
5796.6487457980602
 20
-9159.5575648476424
 30
0.0
 11
7298.2487457980578
 21
-9159.5575648476424
 31
0.0
  0
LINE
  5
10D3
  8
0
 10
7298.2487457980578
 20
-9159.5575648476424
 30
0.0
 11
7298.2487457980578
 21
-9154.5575648476442
 31
0.0
  0
LINE
  5
10D4
  8
0
 10
8744.8714581163349
 20
-9949.9452687143857
 30
0.0
 11
8676.0975901092752
 21
-9144.9826911002783
 31
0.0
  0
LINE
  5
10D5
  8
0
 10
8676.0975901092752
 20
-9144.9826911002783
 30
0.0
 11
8671.0975901092734
 21
-9144.9826911002783
 31
0.0
  0
LINE
  5
10D6
  8
0
 10
8671.0975901092734
 20
-9144.9826911002783
 30
0.0
 11
8671.0975901092734
 21
-9346.0315596515957
 31
0.0
  0
LINE
  5
10D7
  8
0
 10
8671.0975901092734
 20
-9346.0315596515957
 30
0.0
 11
8741.0975901092752
 21
-9555.6526463771515
 31
0.0
  0
LINE
  5
10D8
  8
0
 10
8741.0975901092752
 20
-9555.6526463771515
 30
0.0
 11
8741.0975901092752
 21
-9946.5826911002841
 31
0.0
  0
LINE
  5
10D9
  8
0
 10
8741.0975901092752
 20
-9946.5826911002841
 30
0.0
 11
7239.4975901092766
 21
-9946.5826911002841
 31
0.0
  0
LINE
  5
10DA
  8
0
 10
7239.4975901092766
 20
-9946.5826911002841
 30
0.0
 11
7239.4975901092766
 21
-9555.6526463771443
 31
0.0
  0
LINE
  5
10DB
  8
0
 10
7239.4975901092766
 20
-9555.6526463771443
 30
0.0
 11
7309.4975901092721
 21
-9346.0315596515957
 31
0.0
  0
LINE
  5
10DC
  8
0
 10
7309.4975901092721
 20
-9346.0315596515957
 30
0.0
 11
7309.4975901092776
 21
-9144.9826911002783
 31
0.0
  0
LINE
  5
10DD
  8
0
 10
7309.4975901092776
 20
-9144.9826911002783
 30
0.0
 11
8671.0975901092734
 21
-9144.9826911002783
 31
0.0
  0
LINE
  5
10DE
  8
0
 10
8671.0975901092734
 20
-9144.9826911002783
 30
0.0
 11
8671.0975901092734
 21
-9139.9826911002783
 31
0.0
  0
LINE
  5
1158
  8
0
 10
13279.7257639079
 20
-7155.3006897101804
 30
0.0
 11
13274.7257639079
 21
-7155.3006897101804
 31
0.0
  0
LINE
  5
11DE
  8
0
 10
-12693.135794109099
 20
-6454.2902248979372
 30
0.0
 11
-12693.135794109099
 21
-4954.2902248979372
 31
0.0
  0
LINE
  5
11DF
  8
0
 10
-12693.135794109099
 20
-4954.2902248979372
 30
0.0
 11
-9333.1357941090973
 21
-4954.2902248979372
 31
0.0
  0
LINE
  5
11E0
  8
0
 10
-9333.1357941090973
 20
-4954.2902248979372
 30
0.0
 11
-9333.1357941090973
 21
-5779.2902248979381
 31
0.0
  0
LINE
  5
11E2
  8
0
 10
-9333.1357941090973
 20
-5779.2902248979381
 30
0.0
 11
-10943.135794109099
 21
-5779.2902248979381
 31
0.0
  0
LINE
  5
11E3
  8
0
 10
-10943.135794109099
 20
-5779.2902248979381
 30
0.0
 11
-10943.135794109099
 21
-6454.2902248979372
 31
0.0
  0
LINE
  5
11E4
  8
0
 10
-10943.135794109099
 20
-6454.2902248979372
 30
0.0
 11
-12693.135794109099
 21
-6454.2902248979372
 31
0.0
  0
POLYLINE
  5
1202
  8
0
 66
     1
 10
0.0
 20
0.0
 30
0.0
  0
VERTEX
  5
123C
  8
0
 10
-9333.1357941090973
 20
-5779.2902248979381
 30
0.0
  0
VERTEX
  5
123D
  8
0
 10
-9801.3506907167393
 20
-5776.6129930999086
 30
0.0
  0
VERTEX
  5
123E
  8
0
 10
-9801.3506907167393
 20
-5771.6129930999105
 30
0.0
  0
VERTEX
  5
123F
  8
0
 10
-9390.3506907167393
 20
-5771.6129930999105
 30
0.0
 42
0.4142135623730951
  0
VERTEX
  5
1240
  8
0
 10
-9339.3506907167393
 20
-5720.6129930999086
 30
0.0
  0
VERTEX
  5
1241
  8
0
 10
-9339.350690716743
 20
-5639.6129930999123
 30
0.0
  0
VERTEX
  5
1242
  8
0
 10
-9499.3506907167393
 20
-5639.6129930999123
 30
0.0
  0
VERTEX
  5
1243
  8
0
 10
-9499.3506907167393
 20
-5539.5441066746826
 30
0.0
  0
VERTEX
  5
1244
  8
0
 10
-9801.3506907167393
 20
-5559.6774400080194
 30
0.0
  0
VERTEX
  5
1245
  8
0
 10
-9801.3506907167393
 20
-5771.6129930999105
 30
0.0
  0
VERTEX
  5
1246
  8
0
 10
-10212.350690716739
 20
-5771.6129930999105
 30
0.0
 42
-0.4142135623730951
  0
VERTEX
  5
1247
  8
0
 10
-10263.350690716739
 20
-5720.6129930999086
 30
0.0
  0
VERTEX
  5
1248
  8
0
 10
-10263.35069071673
 20
-5639.6129930999123
 30
0.0
  0
VERTEX
  5
1249
  8
0
 10
-10103.350690716739
 20
-5639.6129930999123
 30
0.0
  0
VERTEX
  5
124A
  8
0
 10
-10103.350690716739
 20
-5539.5441066746826
 30
0.0
  0
VERTEX
  5
124B
  8
0
 10
-9801.3506907167393
 20
-5559.6774400080194
 30
0.0
  0
VERTEX
  5
124C
  8
0
 10
-9801.3506907167393
 20
-5539.6774400080176
 30
0.0
  0
SEQEND
  5
124D
  8
0
  0
POLYLINE
  5
1204
  8
0
 66
     1
 10
0.0
 20
0.0
 30
0.0
  0
VERTEX
  5
124E
  8
0
 10
-9801.3506907167393
 20
-5539.6774400080176
 30
0.0
  0
VERTEX
  5
124F
  8
0
 10
-9801.3506907167393
 20
-5534.6774400080176
 30
0.0
  0
VERTEX
  5
1250
  8
0
 10
-9390.3506907167393
 20
-5534.6774400080176
 30
0.0
 42
0.4142135623730951
  0
VERTEX
  5
1251
  8
0
 10
-9339.3506907167393
 20
-5483.6774400080194
 30
0.0
  0
VERTEX
  5
1252
  8
0
 10
-9339.350690716743
 20
-5402.6774400080203
 30
0.0
  0
VERTEX
  5
1253
  8
0
 10
-9499.3506907167393
 20
-5402.6774400080203
 30
0.0
  0
VERTEX
  5
1254
  8
0
 10
-9499.3506907167393
 20
-5302.6085535827933
 30
0.0
  0
VERTEX
  5
1255
  8
0
 10
-9801.3506907167393
 20
-5322.7418869161274
 30
0.0
  0
VERTEX
  5
1256
  8
0
 10
-9801.3506907167393
 20
-5534.6774400080176
 30
0.0
  0
VERTEX
  5
1257
  8
0
 10
-10212.350690716739
 20
-5534.6774400080176
 30
0.0
 42
-0.4142135623730951
  0
VERTEX
  5
1258
  8
0
 10
-10263.350690716739
 20
-5483.6774400080194
 30
0.0
  0
VERTEX
  5
1259
  8
0
 10
-10263.35069071673
 20
-5402.6774400080203
 30
0.0
  0
VERTEX
  5
125A
  8
0
 10
-10103.350690716739
 20
-5402.6774400080203
 30
0.0
  0
VERTEX
  5
125B
  8
0
 10
-10103.350690716739
 20
-5302.6085535827933
 30
0.0
  0
VERTEX
  5
125C
  8
0
 10
-9801.3506907167393
 20
-5322.7418869161274
 30
0.0
  0
VERTEX
  5
125D
  8
0
 10
-9801.3506907167393
 20
-5302.7418869161274
 30
0.0
  0
SEQEND
  5
125E
  8
0
  0
POLYLINE
  5
1205
  8
0
 66
     1
 10
0.0
 20
0.0
 30
0.0
  0
VERTEX
  5
125F
  8
0
 10
-9801.3506907167393
 20
-5302.7418869161274
 30
0.0
  0
VERTEX
  5
1260
  8
0
 10
-9801.3506907167393
 20
-5297.7418869161284
 30
0.0
  0
VERTEX
  5
1261
  8
0
 10
-9390.3506907167393
 20
-5297.7418869161284
 30
0.0
 42
0.4142135623730951
  0
VERTEX
  5
1262
  8
0
 10
-9339.3506907167393
 20
-5246.7418869161284
 30
0.0
  0
VERTEX
  5
1263
  8
0
 10
-9339.350690716743
 20
-5165.7418869161293
 30
0.0
  0
VERTEX
  5
1264
  8
0
 10
-9499.3506907167393
 20
-5165.7418869161293
 30
0.0
  0
VERTEX
  5
1265
  8
0
 10
-9499.3506907167393
 20
-5065.6730004909014
 30
0.0
  0
VERTEX
  5
1266
  8
0
 10
-9801.3506907167393
 20
-5085.8063338242373
 30
0.0
  0
VERTEX
  5
1267
  8
0
 10
-9801.3506907167393
 20
-5297.7418869161284
 30
0.0
  0
VERTEX
  5
1268
  8
0
 10
-10212.350690716739
 20
-5297.7418869161284
 30
0.0
 42
-0.4142135623730951
  0
VERTEX
  5
1269
  8
0
 10
-10263.350690716739
 20
-5246.7418869161284
 30
0.0
  0
VERTEX
  5
126A
  8
0
 10
-10263.35069071673
 20
-5165.7418869161293
 30
0.0
  0
VERTEX
  5
126B
  8
0
 10
-10103.350690716739
 20
-5165.7418869161293
 30
0.0
  0
VERTEX
  5
126C
  8
0
 10
-10103.350690716739
 20
-5065.6730004909014
 30
0.0
  0
VERTEX
  5
126D
  8
0
 10
-9801.3506907167393
 20
-5085.8063338242373
 30
0.0
  0
VERTEX
  5
126E
  8
0
 10
-9801.3506907167393
 20
-5065.8063338242364
 30
0.0
  0
SEQEND
  5
126F
  8
0
  0
POLYLINE
  5
1206
  8
0
 66
     1
 10
0.0
 20
0.0
 30
0.0
  0
VERTEX
  5
1270
  8
0
 10
-10732.647431252941
 20
-5776.8944424195588
 30
0.0
  0
VERTEX
  5
1271
  8
0
 10
-10732.647431252941
 20
-5771.8944424195588
 30
0.0
  0
VERTEX
  5
1272
  8
0
 10
-10321.647431252941
 20
-5771.8944424195588
 30
0.0
 42
0.4142135623730951
  0
VERTEX
  5
1273
  8
0
 10
-10270.647431252941
 20
-5720.8944424195588
 30
0.0
  0
VERTEX
  5
1274
  8
0
 10
-10270.647431252941
 20
-5639.8944424195597
 30
0.0
  0
VERTEX
  5
1275
  8
0
 10
-10430.647431252941
 20
-5639.8944424195597
 30
0.0
  0
VERTEX
  5
1276
  8
0
 10
-10430.647431252941
 20
-5539.8255559943327
 30
0.0
  0
VERTEX
  5
1277
  8
0
 10
-10732.647431252941
 20
-5559.9588893276677
 30
0.0
  0
VERTEX
  5
1278
  8
0
 10
-10732.647431252941
 20
-5771.8944424195588
 30
0.0
  0
VERTEX
  5
1279
  8
0
 10
-11143.647431252941
 20
-5771.8944424195588
 30
0.0
 42
-0.4142135623730951
  0
VERTEX
  5
127A
  8
0
 10
-11194.647431252941
 20
-5720.8944424195588
 30
0.0
  0
VERTEX
  5
127B
  8
0
 10
-11194.64743125293
 20
-5639.8944424195597
 30
0.0
  0
VERTEX
  5
127C
  8
0
 10
-11034.647431252941
 20
-5639.8944424195597
 30
0.0
  0
VERTEX
  5
127D
  8
0
 10
-11034.647431252941
 20
-5539.8255559943327
 30
0.0
  0
VERTEX
  5
127E
  8
0
 10
-10732.647431252941
 20
-5559.9588893276677
 30
0.0
  0
VERTEX
  5
127F
  8
0
 10
-10732.647431252941
 20
-5539.9588893276668
 30
0.0
  0
SEQEND
  5
1280
  8
0
  0
POLYLINE
  5
120E
  8
0
 66
     1
 10
0.0
 20
0.0
 30
0.0
  0
VERTEX
  5
1281
  8
0
 10
-10272.91887692871
 20
-5322.0116191752268
 30
0.0
  0
VERTEX
  5
1282
  8
0
 10
-10277.91887692871
 20
-5322.0116191752268
 30
0.0
  0
VERTEX
  5
1283
  8
0
 10
-10277.91887692871
 20
-5120.0116191752268
 30
0.0
  0
VERTEX
  5
1284
  8
0
 10
-10359.00300974876
 20
-5120.0116191752268
 30
0.0
  0
VERTEX
  5
1285
  8
0
 10
-10569.41635161177
 20
-5155.6693520801928
 30
0.0
  0
VERTEX
  5
1286
  8
0
 10
-10569.41635161177
 20
-5271.9283580545434
 30
0.0
  0
VERTEX
  5
1287
  8
0
 10
-10519.333090491091
 20
-5322.0116191752268
 30
0.0
  0
VERTEX
  5
1288
  8
0
 10
-10277.91887692871
 20
-5322.0116191752268
 30
0.0
  0
VERTEX
  5
1289
  8
0
 10
-10277.91887692871
 20
-5524.0116191752268
 30
0.0
  0
VERTEX
  5
128A
  8
0
 10
-10359.00300974876
 20
-5524.0116191752268
 30
0.0
  0
VERTEX
  5
128B
  8
0
 10
-10569.41635161177
 20
-5488.3538862702599
 30
0.0
  0
VERTEX
  5
128C
  8
0
 10
-10569.41635161177
 20
-5372.094880295911
 30
0.0
  0
VERTEX
  5
128D
  8
0
 10
-10519.333090491091
 20
-5322.0116191752268
 30
0.0
  0
VERTEX
  5
128E
  8
0
 10
-10569.333090491091
 20
-5322.0116191752268
 30
0.0
  0
SEQEND
  5
128F
  8
0
  0
POLYLINE
  5
120F
  8
0
 66
     1
 10
0.0
 20
0.0
 30
0.0
  0
VERTEX
  5
1290
  8
0
 10
-10569.333090491091
 20
-5322.0116191752268
 30
0.0
  0
VERTEX
  5
1291
  8
0
 10
-10574.333090491091
 20
-5322.0116191752268
 30
0.0
  0
VERTEX
  5
1292
  8
0
 10
-10574.333090491091
 20
-5120.0116191752268
 30
0.0
  0
VERTEX
  5
1293
  8
0
 10
-10655.41722331114
 20
-5120.0116191752268
 30
0.0
  0
VERTEX
  5
1294
  8
0
 10
-10865.83056517415
 20
-5155.6693520801928
 30
0.0
  0
VERTEX
  5
1295
  8
0
 10
-10865.83056517415
 20
-5271.9283580545434
 30
0.0
  0
VERTEX
  5
1296
  8
0
 10
-10815.747304053461
 20
-5322.0116191752268
 30
0.0
  0
VERTEX
  5
1297
  8
0
 10
-10574.333090491091
 20
-5322.0116191752268
 30
0.0
  0
VERTEX
  5
1298
  8
0
 10
-10574.333090491091
 20
-5524.0116191752268
 30
0.0
  0
VERTEX
  5
1299
  8
0
 10
-10655.41722331114
 20
-5524.0116191752268
 30
0.0
  0
VERTEX
  5
129A
  8
0
 10
-10865.83056517415
 20
-5488.3538862702599
 30
0.0
  0
VERTEX
  5
129B
  8
0
 10
-10865.83056517415
 20
-5372.094880295911
 30
0.0
  0
VERTEX
  5
129C
  8
0
 10
-10815.747304053461
 20
-5322.0116191752268
 30
0.0
  0
VERTEX
  5
129D
  8
0
 10
-10865.747304053461
 20
-5322.0116191752268
 30
0.0
  0
SEQEND
  5
129E
  8
0
  0
POLYLINE
  5
1210
  8
0
 66
     1
 10
0.0
 20
0.0
 30
0.0
  0
VERTEX
  5
129F
  8
0
 10
-10865.747304053461
 20
-5322.0116191752268
 30
0.0
  0
VERTEX
  5
12A0
  8
0
 10
-10870.747304053461
 20
-5322.0116191752268
 30
0.0
  0
VERTEX
  5
12A1
  8
0
 10
-10870.747304053461
 20
-5120.0116191752268
 30
0.0
  0
VERTEX
  5
12A2
  8
0
 10
-10951.83143687351
 20
-5120.0116191752268
 30
0.0
  0
VERTEX
  5
12A3
  8
0
 10
-11162.24477873652
 20
-5155.6693520801928
 30
0.0
  0
VERTEX
  5
12A4
  8
0
 10
-11162.24477873652
 20
-5271.9283580545434
 30
0.0
  0
VERTEX
  5
12A5
  8
0
 10
-11112.161517615839
 20
-5322.0116191752268
 30
0.0
  0
VERTEX
  5
12A6
  8
0
 10
-10870.747304053461
 20
-5322.0116191752268
 30
0.0
  0
VERTEX
  5
12A7
  8
0
 10
-10870.747304053461
 20
-5524.0116191752268
 30
0.0
  0
VERTEX
  5
12A8
  8
0
 10
-10951.83143687351
 20
-5524.0116191752268
 30
0.0
  0
VERTEX
  5
12A9
  8
0
 10
-11162.24477873652
 20
-5488.3538862702599
 30
0.0
  0
VERTEX
  5
12AA
  8
0
 10
-11162.24477873652
 20
-5372.094880295911
 30
0.0
  0
VERTEX
  5
12AB
  8
0
 10
-11112.161517615839
 20
-5322.0116191752268
 30
0.0
  0
VERTEX
  5
12AC
  8
0
 10
-11162.161517615839
 20
-5322.0116191752268
 30
0.0
  0
SEQEND
  5
12AD
  8
0
  0
POLYLINE
  5
1211
  8
0
 66
     1
 10
0.0
 20
0.0
 30
0.0
  0
VERTEX
  5
12AE
  8
0
 10
-11157.191480043261
 20
-6446.69450461428
 30
0.0
  0
VERTEX
  5
12AF
  8
0
 10
-11157.191480043261
 20
-6441.6945046142791
 30
0.0
  0
VERTEX
  5
12B0
  8
0
 10
-10955.191480043261
 20
-6441.6945046142791
 30
0.0
  0
VERTEX
  5
12B1
  8
0
 10
-10955.191480043261
 20
-6360.6103717942278
 30
0.0
  0
VERTEX
  5
12B2
  8
0
 10
-10990.84921294822
 20
-6150.1970299312197
 30
0.0
  0
VERTEX
  5
12B3
  8
0
 10
-11107.108218922571
 20
-6150.1970299312197
 30
0.0
  0
VERTEX
  5
12B4
  8
0
 10
-11157.191480043261
 20
-6200.280291051904
 30
0.0
  0
VERTEX
  5
12B5
  8
0
 10
-11157.191480043261
 20
-6441.6945046142791
 30
0.0
  0
VERTEX
  5
12B6
  8
0
 10
-11359.191480043261
 20
-6441.6945046142791
 30
0.0
  0
VERTEX
  5
12B7
  8
0
 10
-11359.191480043261
 20
-6360.6103717942278
 30
0.0
  0
VERTEX
  5
12B8
  8
0
 10
-11323.53374713829
 20
-6150.1970299312197
 30
0.0
  0
VERTEX
  5
12B9
  8
0
 10
-11207.274741163939
 20
-6150.1970299312197
 30
0.0
  0
VERTEX
  5
12BA
  8
0
 10
-11157.191480043261
 20
-6200.280291051904
 30
0.0
  0
VERTEX
  5
12BB
  8
0
 10
-11157.191480043261
 20
-6150.280291051904
 30
0.0
  0
SEQEND
  5
12BC
  8
0
  0
POLYLINE
  5
1212
  8
0
 66
     1
 10
0.0
 20
0.0
 30
0.0
  0
VERTEX
  5
12BD
  8
0
 10
-11157.191480043261
 20
-6150.280291051904
 30
0.0
  0
VERTEX
  5
12BE
  8
0
 10
-11157.191480043261
 20
-6145.2802910519031
 30
0.0
  0
VERTEX
  5
12BF
  8
0
 10
-10955.191480043261
 20
-6145.2802910519031
 30
0.0
  0
VERTEX
  5
12C0
  8
0
 10
-10955.191480043261
 20
-6064.1961582318527
 30
0.0
  0
VERTEX
  5
12C1
  8
0
 10
-10990.84921294822
 20
-5853.7828163688446
 30
0.0
  0
VERTEX
  5
12C2
  8
0
 10
-11107.108218922571
 20
-5853.7828163688446
 30
0.0
  0
VERTEX
  5
12C3
  8
0
 10
-11157.191480043261
 20
-5903.8660774895288
 30
0.0
  0
VERTEX
  5
12C4
  8
0
 10
-11157.191480043261
 20
-6145.2802910519031
 30
0.0
  0
VERTEX
  5
12C5
  8
0
 10
-11359.191480043261
 20
-6145.2802910519031
 30
0.0
  0
VERTEX
  5
12C6
  8
0
 10
-11359.191480043261
 20
-6064.1961582318527
 30
0.0
  0
VERTEX
  5
12C7
  8
0
 10
-11323.53374713829
 20
-5853.7828163688446
 30
0.0
  0
VERTEX
  5
12C8
  8
0
 10
-11207.274741163939
 20
-5853.7828163688446
 30
0.0
  0
VERTEX
  5
12C9
  8
0
 10
-11157.191480043261
 20
-5903.8660774895288
 30
0.0
  0
VERTEX
  5
12CA
  8
0
 10
-11157.191480043261
 20
-5853.8660774895288
 30
0.0
  0
SEQEND
  5
12CB
  8
0
  0
LINE
  5
1213
  8
0
 10
14872.33744062615
 20
-8948.3018236658936
 30
0.0
 11
14856.7257639079
 21
-8272.1511225258
 31
0.0
  0
LINE
  5
1214
  8
0
 10
14856.7257639079
 20
-8272.1511225258
 30
0.0
 11
14851.7257639079
 21
-8272.1511225258
 31
0.0
  0
LINE
  5
1215
  8
0
 10
14851.7257639079
 20
-8272.1511225258
 30
0.0
 11
14851.7257639079
 21
-8343.0936209735974
 31
0.0
  0
LINE
  5
1216
  8
0
 10
14851.7257639079
 20
-8343.0936209735974
 30
0.0
 11
14866.7257639079
 21
-8473.0936209735919
 31
0.0
  0
LINE
  5
1217
  8
0
 10
14866.7257639079
 20
-8473.0936209735919
 30
0.0
 11
14866.7257639079
 21
-8743.2086240780063
 31
0.0
  0
LINE
  5
1218
  8
0
 10
14866.7257639079
 20
-8743.2086240780063
 30
0.0
 11
14851.7257639079
 21
-8873.2086240780063
 31
0.0
  0
LINE
  5
1219
  8
0
 10
14851.7257639079
 20
-8873.2086240780063
 30
0.0
 11
14851.7257639079
 21
-8944.1511225258
 31
0.0
  0
LINE
  5
121A
  8
0
 10
14851.7257639079
 20
-8944.1511225258
 30
0.0
 11
13279.7257639079
 21
-8944.1511225258
 31
0.0
  0
LINE
  5
121B
  8
0
 10
13279.7257639079
 20
-8944.1511225258
 30
0.0
 11
13279.7257639079
 21
-8873.2086240780063
 31
0.0
  0
LINE
  5
121C
  8
0
 10
13279.7257639079
 20
-8873.2086240780063
 30
0.0
 11
13264.7257639079
 21
-8743.2086240780063
 31
0.0
  0
LINE
  5
121D
  8
0
 10
13264.7257639079
 20
-8743.2086240780063
 30
0.0
 11
13264.7257639079
 21
-8473.0936209735919
 31
0.0
  0
LINE
  5
121E
  8
0
 10
13264.7257639079
 20
-8473.0936209735919
 30
0.0
 11
13279.7257639079
 21
-8343.0936209735974
 31
0.0
  0
LINE
  5
121F
  8
0
 10
13279.7257639079
 20
-8343.0936209735974
 30
0.0
 11
13279.7257639079
 21
-8272.1511225258
 31
0.0
  0
LINE
  5
1220
  8
0
 10
13279.7257639079
 20
-8272.1511225258
 30
0.0
 11
14851.7257639079
 21
-8272.1511225258
 31
0.0
  0
LINE
  5
1221
  8
0
 10
14851.7257639079
 20
-8272.1511225258
 30
0.0
 11
14851.7257639079
 21
-8267.1511225258018
 31
0.0
  0
ENDSEC
  0
EOF
