  0
SECTION
  2
HEADER
  9
$ACADVER
  1
AC1009
  9
$INSBASE
 10
0.0
 20
0.0
 30
0.0
  9
$EXTMIN
 10
448.83036252553939
 20
263.6969314394014
 30
0.0
  9
$EXTMAX
 10
2573.0801214446892
 20
1940.408073982873
 30
0.0
  9
$LIMMIN
 10
0.0
 20
0.0
  9
$LIMMAX
 10
420.0
 20
297.0
  9
$ORTHOMODE
 70
     1
  9
$REGENMODE
 70
     1
  9
$FILLMODE
 70
     1
  9
$QTEXTMODE
 70
     0
  9
$MIRRTEXT
 70
     0
  9
$DRAGMODE
 70
     2
  9
$LTSCALE
 40
1.0
  9
$OSMODE
 70
   279
  9
$ATTMODE
 70
     1
  9
$TEXTSIZE
 40
2.5
  9
$TRACEWID
 40
1.0
  9
$TEXTSTYLE
  7
STANDARD
  9
$CLAYER
  8
0
  9
$CELTYPE
  6
BYLAYER
  9
$CECOLOR
 62
   256
  9
$DIMSCALE
 40
1.0
  9
$DIMASZ
 40
2.5
  9
$DIMEXO
 40
0.625
  9
$DIMDLI
 40
3.75
  9
$DIMRND
 40
0.0
  9
$DIMDLE
 40
0.0
  9
$DIMEXE
 40
1.25
  9
$DIMTP
 40
0.0
  9
$DIMTM
 40
0.0
  9
$DIMTXT
 40
2.5
  9
$DIMCEN
 40
2.5
  9
$DIMTSZ
 40
0.0
  9
$DIMTOL
 70
     0
  9
$DIMLIM
 70
     0
  9
$DIMTIH
 70
     0
  9
$DIMTOH
 70
     0
  9
$DIMSE1
 70
     0
  9
$DIMSE2
 70
     0
  9
$DIMTAD
 70
     1
  9
$DIMZIN
 70
     8
  9
$DIMBLK
  1

  9
$DIMASO
 70
     1
  9
$DIMSHO
 70
     1
  9
$DIMPOST
  1

  9
$DIMAPOST
  1

  9
$DIMALT
 70
     0
  9
$DIMALTD
 70
     3
  9
$DIMALTF
 40
0.03937007874016
  9
$DIMLFAC
 40
1.0
  9
$DIMTOFL
 70
     1
  9
$DIMTVP
 40
0.0
  9
$DIMTIX
 70
     0
  9
$DIMSOXD
 70
     0
  9
$DIMSAH
 70
     0
  9
$DIMBLK1
  1

  9
$DIMBLK2
  1

  9
$DIMSTYLE
  2
ISO-25
  9
$DIMCLRD
 70
     0
  9
$DIMCLRE
 70
     0
  9
$DIMCLRT
 70
     0
  9
$DIMTFAC
 40
1.0
  9
$DIMGAP
 40
0.625
  9
$LUNITS
 70
     2
  9
$LUPREC
 70
     4
  9
$SKETCHINC
 40
1.0
  9
$FILLETRAD
 40
0.0
  9
$AUNITS
 70
     0
  9
$AUPREC
 70
     0
  9
$MENU
  1
.
  9
$ELEVATION
 40
0.0
  9
$PELEVATION
 40
0.0
  9
$THICKNESS
 40
0.0
  9
$LIMCHECK
 70
     0
  9
$BLIPMODE
 70
     0
  9
$CHAMFERA
 40
0.0
  9
$CHAMFERB
 40
0.0
  9
$SKPOLY
 70
     0
  9
$TDCREATE
 40
2455103.8365830202
  9
$TDUPDATE
 40
2455111.720493136
  9
$TDINDWG
 40
0.0044827083
  9
$TDUSRTIMER
 40
0.0044822454
  9
$USRTIMER
 70
     1
  9
$ANGBASE
 50
0.0
  9
$ANGDIR
 70
     0
  9
$PDMODE
 70
     0
  9
$PDSIZE
 40
0.0
  9
$PLINEWID
 40
0.0
  9
$COORDS
 70
     1
  9
$SPLFRAME
 70
     0
  9
$SPLINETYPE
 70
     6
  9
$SPLINESEGS
 70
     8
  9
$ATTDIA
 70
     0
  9
$ATTREQ
 70
     1
  9
$HANDLING
 70
     1
  9
$HANDSEED
  5
E2D
  9
$SURFTAB1
 70
     6
  9
$SURFTAB2
 70
     6
  9
$SURFTYPE
 70
     6
  9
$SURFU
 70
     6
  9
$SURFV
 70
     6
  9
$UCSNAME
  2

  9
$UCSORG
 10
0.0
 20
0.0
 30
0.0
  9
$UCSXDIR
 10
1.0
 20
0.0
 30
0.0
  9
$UCSYDIR
 10
0.0
 20
1.0
 30
0.0
  9
$PUCSNAME
  2

  9
$PUCSORG
 10
0.0
 20
0.0
 30
0.0
  9
$PUCSXDIR
 10
1.0
 20
0.0
 30
0.0
  9
$PUCSYDIR
 10
0.0
 20
1.0
 30
0.0
  9
$USERI1
 70
     0
  9
$USERI2
 70
     0
  9
$USERI3
 70
     0
  9
$USERI4
 70
     0
  9
$USERI5
 70
     0
  9
$USERR1
 40
0.0
  9
$USERR2
 40
0.0
  9
$USERR3
 40
0.0
  9
$USERR4
 40
0.0
  9
$USERR5
 40
0.0
  9
$WORLDVIEW
 70
     1
  9
$SHADEDGE
 70
     3
  9
$SHADEDIF
 70
    70
  9
$TILEMODE
 70
     1
  9
$MAXACTVP
 70
    64
  9
$PLIMCHECK
 70
     0
  9
$PEXTMIN
 10
0.0
 20
0.0
 30
0.0
  9
$PEXTMAX
 10
0.0
 20
0.0
 30
0.0
  9
$PLIMMIN
 10
0.0
 20
0.0
  9
$PLIMMAX
 10
12.0
 20
9.0
  9
$UNITMODE
 70
     0
  9
$VISRETAIN
 70
     1
  9
$PLINEGEN
 70
     0
  9
$PSLTSCALE
 70
     1
  0
ENDSEC
  0
SECTION
  2
TABLES
  0
TABLE
  2
VPORT
 70
     1
  0
VPORT
  2
*ACTIVE
 70
     0
 10
0.0
 20
0.0
 11
1.0
 21
1.0
 12
1842.8152334234039
 22
454.73584835685227
 13
0.0
 23
0.0
 14
10.0
 24
10.0
 15
10.0
 25
10.0
 16
0.0
 26
0.0
 36
1.0
 17
0.0
 27
0.0
 37
0.0
 40
2748.7339652977921
 41
1.783109404990403
 42
50.0
 43
0.0
 44
0.0
 50
0.0
 51
0.0
 71
     0
 72
  1000
 73
     1
 74
     3
 75
     0
 76
     0
 77
     0
 78
     0
  0
ENDTAB
  0
TABLE
  2
LTYPE
 70
     2
  0
LTYPE
  2
CONTINUOUS
 70
     0
  3
Solid line
 72
    65
 73
     0
 40
0.0
  0
ENDTAB
  0
TABLE
  2
LAYER
 70
     1
  0
LAYER
  2
0
 70
     0
 62
     7
  6
CONTINUOUS
  0
ENDTAB
  0
TABLE
  2
STYLE
 70
     1
  0
STYLE
  2
STANDARD
 70
     0
 40
0.0
 41
1.0
 50
0.0
 71
     0
 42
2.5
  3
txt
  4

  0
ENDTAB
  0
TABLE
  2
VIEW
 70
     0
  0
ENDTAB
  0
TABLE
  2
UCS
 70
     0
  0
ENDTAB
  0
TABLE
  2
APPID
 70
     3
  0
APPID
  2
ACAD
 70
     0
  0
APPID
  2
ACAD_PSEXT
 70
     0
  0
APPID
  2
ACAD_EXEMPT_FROM_CAD_STANDARDS
 70
     0
  0
ENDTAB
  0
TABLE
  2
DIMSTYLE
 70
     2
  0
DIMSTYLE
  2
ISO-25
 70
     0
  3

  4

  5

  6

  7

 40
1.0
 41
2.5
 42
0.625
 43
3.75
 44
1.25
 45
0.0
 46
0.0
 47
0.0
 48
0.0
140
2.5
141
2.5
142
0.0
143
0.03937007874016
144
1.0
145
0.0
146
1.0
147
0.625
 71
     0
 72
     0
 73
     0
 74
     0
 75
     0
 76
     0
 77
     1
 78
     8
170
     0
171
     3
172
     1
173
     0
174
     0
175
     0
176
     0
177
     0
178
     0
  0
ENDTAB
  0
ENDSEC
  0
SECTION
  2
BLOCKS
  0
BLOCK
  8
0
  2
$MODEL_SPACE
 70
     0
 10
0.0
 20
0.0
 30
0.0
  3
$MODEL_SPACE
  1

  0
ENDBLK
  5
9AF
  8
0
  0
BLOCK
 67
     1
  8
0
  2
$PAPER_SPACE
 70
     0
 10
0.0
 20
0.0
 30
0.0
  3
$PAPER_SPACE
  1

  0
ENDBLK
  5
9AB
 67
     1
  8
0
  0
ENDSEC
  0
SECTION
  2
ENTITIES
  0
LINE
  5
116
  8
0
 10
2408.8910706540428
 20
267.05612939127832
 30
0.0
 11
448.83036252553939
 21
263.6969314394014
 31
0.0
  0
LINE
  5
13A
  8
0
 10
573.08012144468898
 20
440.40807398287211
 30
0.0
 11
2573.0801214446892
 21
440.40807398287211
 31
0.0
  0
POLYLINE
  5
13D
  8
0
 66
     1
 10
0.0
 20
0.0
 30
0.0
  0
VERTEX
  5
9CA
  8
0
 10
2517.6361145400601
 20
495.92773826459239
 30
0.0
  0
VERTEX
  5
9CB
  8
0
 10
2517.6361145400601
 20
487.12773826459261
 30
0.0
 42
0.4142135623730951
  0
VERTEX
  5
9CC
  8
0
 10
2526.4361145400612
 20
495.92773826459239
 30
0.0
  0
VERTEX
  5
9CD
  8
0
 10
2526.4361145400599
 20
545.92773826459245
 30
0.0
 42
0.5661903789690591
  0
VERTEX
  5
9CE
  8
0
 10
2513.494938069472
 20
553.69244414694515
 30
0.0
  0
VERTEX
  5
9CF
  8
0
 10
2419.744938069472
 20
503.69244414694572
 30
0.0
 42
0.7807764064044159
  0
VERTEX
  5
9D0
  8
0
 10
2423.8861145400601
 20
487.12773826459272
 30
0.0
  0
VERTEX
  5
9D1
  8
0
 10
2517.6361145400601
 20
487.12773826459261
 30
0.0
  0
VERTEX
  5
9D2
  8
0
 10
2513.11125922468
 20
493.83074141755958
 30
0.0
  0
SEQEND
  5
9D3
  8
0
  0
POLYLINE
  5
13E
  8
0
 66
     1
 10
0.0
 20
0.0
 30
0.0
  0
VERTEX
  5
9D4
  8
0
 10
2534.610600316455
 20
618.18624573170825
 30
0.0
  0
VERTEX
  5
9D5
  8
0
 10
2537.6596439518248
 20
614.63362061753412
 30
0.0
 42
-0.5661903789690599
  0
VERTEX
  5
9D6
  8
0
 10
2568.83611454006
 20
595.9277382645929
 30
0.0
  0
VERTEX
  5
9D7
  8
0
 10
2568.83611454006
 20
465.92773826459268
 30
0.0
 42
-0.4142135623730951
  0
VERTEX
  5
9D8
  8
0
 10
2547.6361145400601
 20
444.72773826459257
 30
0.0
  0
VERTEX
  5
9D9
  8
0
 10
2277.636114540061
 20
444.72773826459269
 30
0.0
 42
-0.4142135623730951
  0
VERTEX
  5
9DA
  8
0
 10
2256.4361145400599
 20
465.9277382645929
 30
0.0
  0
VERTEX
  5
9DB
  8
0
 10
2256.4361145400599
 20
475.9277382645929
 30
0.0
 42
-0.4142135623730951
  0
VERTEX
  5
9DC
  8
0
 10
2277.636114540061
 20
497.12773826459278
 30
0.0
  0
VERTEX
  5
9DD
  8
0
 10
2317.3361145400609
 20
497.12773826459278
 30
0.0
  0
VERTEX
  5
9DE
  8
0
 10
2537.6596439518248
 20
614.63362061753412
 30
0.0
  0
VERTEX
  5
9DF
  8
0
 10
2532.5749719275009
 20
616.44598823669276
 30
0.0
  0
SEQEND
  5
9E0
  8
0
  0
POLYLINE
  5
13F
  8
0
 66
     1
 10
0.0
 20
0.0
 30
0.0
  0
VERTEX
  5
9E1
  8
0
 10
2307.636114540061
 20
621.5239549622537
 30
0.0
  0
VERTEX
  5
9E2
  8
0
 10
2307.636114540061
 20
630.32395496225377
 30
0.0
 42
0.4142135623730951
  0
VERTEX
  5
9E3
  8
0
 10
2298.83611454006
 20
621.5239549622537
 30
0.0
  0
VERTEX
  5
9E4
  8
0
 10
2298.83611454006
 20
571.52395496225415
 30
0.0
 42
0.5661903789690586
  0
VERTEX
  5
9E5
  8
0
 10
2311.7772910106492
 20
563.75924907990122
 30
0.0
  0
VERTEX
  5
9E6
  8
0
 10
2405.5272910106492
 20
613.75924907990077
 30
0.0
 42
0.7807764064044171
  0
VERTEX
  5
9E7
  8
0
 10
2401.3861145400601
 20
630.32395496225354
 30
0.0
  0
VERTEX
  5
9E8
  8
0
 10
2307.636114540061
 20
630.32395496225422
 30
0.0
  0
VERTEX
  5
9E9
  8
0
 10
2311.8017534467149
 20
622.87175348162975
 30
0.0
  0
SEQEND
  5
9EA
  8
0
  0
POLYLINE
  5
140
  8
0
 66
     1
 10
0.0
 20
0.0
 30
0.0
  0
VERTEX
  5
9EB
  8
0
 10
2552.3820109200951
 20
677.25301912875238
 30
0.0
  0
VERTEX
  5
9EC
  8
0
 10
2547.6361145400601
 20
672.72395496225329
 30
0.0
 42
-0.4142135623730951
  0
VERTEX
  5
9ED
  8
0
 10
2568.8361145400609
 20
651.52395496225336
 30
0.0
  0
VERTEX
  5
9EE
  8
0
 10
2568.83611454006
 20
641.52395496225301
 30
0.0
 42
-0.4142135623730951
  0
VERTEX
  5
9EF
  8
0
 10
2547.6361145400601
 20
620.32395496225331
 30
0.0
  0
VERTEX
  5
9F0
  8
0
 10
2507.9361145400599
 20
620.32395496225331
 30
0.0
  0
VERTEX
  5
9F1
  8
0
 10
2287.6125851282959
 20
502.81807260931203
 30
0.0
 42
-0.5661903789690586
  0
VERTEX
  5
9F2
  8
0
 10
2256.4361145400599
 20
521.5239549622537
 30
0.0
  0
VERTEX
  5
9F3
  8
0
 10
2256.4361145400599
 20
651.52395496225392
 30
0.0
 42
-0.4142135623730951
  0
VERTEX
  5
9F4
  8
0
 10
2277.636114540061
 20
672.72395496225374
 30
0.0
  0
VERTEX
  5
9F5
  8
0
 10
2547.6361145400601
 20
672.72395496225329
 30
0.0
  0
VERTEX
  5
9F6
  8
0
 10
2547.6361145400601
 20
677.99695815141411
 30
0.0
  0
SEQEND
  5
9F7
  8
0
  0
POLYLINE
  5
141
  8
0
 66
     1
 10
0.0
 20
0.0
 30
0.0
  0
VERTEX
  5
9F8
  8
0
 10
2517.6361145400601
 20
732.92773826459245
 30
0.0
  0
VERTEX
  5
9F9
  8
0
 10
2517.6361145400601
 20
724.12773826459238
 30
0.0
 42
0.4142135623730951
  0
VERTEX
  5
9FA
  8
0
 10
2526.4361145400612
 20
732.92773826459245
 30
0.0
  0
VERTEX
  5
9FB
  8
0
 10
2526.4361145400599
 20
782.92773826459245
 30
0.0
 42
0.5661903789690606
  0
VERTEX
  5
9FC
  8
0
 10
2513.494938069472
 20
790.69244414694515
 30
0.0
  0
VERTEX
  5
9FD
  8
0
 10
2419.744938069472
 20
740.6924441469456
 30
0.0
 42
0.7807764064044145
  0
VERTEX
  5
9FE
  8
0
 10
2423.8861145400601
 20
724.12773826459238
 30
0.0
  0
VERTEX
  5
9FF
  8
0
 10
2517.6361145400601
 20
724.12773826459238
 30
0.0
  0
VERTEX
  5
A00
  8
0
 10
2513.11125922468
 20
730.83074141755969
 30
0.0
  0
SEQEND
  5
A01
  8
0
  0
POLYLINE
  5
142
  8
0
 66
     1
 10
0.0
 20
0.0
 30
0.0
  0
VERTEX
  5
A02
  8
0
 10
2534.610600316455
 20
855.18624573170871
 30
0.0
  0
VERTEX
  5
A03
  8
0
 10
2537.6596439518248
 20
851.63362061753423
 30
0.0
 42
-0.5661903789690609
  0
VERTEX
  5
A04
  8
0
 10
2568.83611454006
 20
832.92773826459279
 30
0.0
  0
VERTEX
  5
A05
  8
0
 10
2568.83611454006
 20
702.92773826459268
 30
0.0
 42
-0.4142135623730951
  0
VERTEX
  5
A06
  8
0
 10
2547.6361145400601
 20
681.72773826459252
 30
0.0
  0
VERTEX
  5
A07
  8
0
 10
2277.636114540061
 20
681.72773826459274
 30
0.0
 42
-0.4142135623730951
  0
VERTEX
  5
A08
  8
0
 10
2256.4361145400599
 20
702.92773826459268
 30
0.0
  0
VERTEX
  5
A09
  8
0
 10
2256.4361145400599
 20
712.92773826459279
 30
0.0
 42
-0.4142135623730951
  0
VERTEX
  5
A0A
  8
0
 10
2277.636114540061
 20
734.12773826459295
 30
0.0
  0
VERTEX
  5
A0B
  8
0
 10
2317.3361145400609
 20
734.12773826459295
 30
0.0
  0
VERTEX
  5
A0C
  8
0
 10
2537.6596439518248
 20
851.63362061753423
 30
0.0
  0
VERTEX
  5
A0D
  8
0
 10
2532.5749719275009
 20
853.44598823669276
 30
0.0
  0
SEQEND
  5
A0E
  8
0
  0
POLYLINE
  5
143
  8
0
 66
     1
 10
0.0
 20
0.0
 30
0.0
  0
VERTEX
  5
A0F
  8
0
 10
2307.636114540061
 20
858.52395496225392
 30
0.0
  0
VERTEX
  5
A10
  8
0
 10
2307.636114540061
 20
867.32395496225377
 30
0.0
 42
0.4142135623730951
  0
VERTEX
  5
A11
  8
0
 10
2298.83611454006
 20
858.52395496225392
 30
0.0
  0
VERTEX
  5
A12
  8
0
 10
2298.83611454006
 20
808.52395496225404
 30
0.0
 42
0.5661903789690596
  0
VERTEX
  5
A13
  8
0
 10
2311.7772910106492
 20
800.75924907990066
 30
0.0
  0
VERTEX
  5
A14
  8
0
 10
2405.5272910106492
 20
850.75924907990054
 30
0.0
 42
0.7807764064044159
  0
VERTEX
  5
A15
  8
0
 10
2401.3861145400601
 20
867.32395496225377
 30
0.0
  0
VERTEX
  5
A16
  8
0
 10
2307.636114540061
 20
867.32395496225411
 30
0.0
  0
VERTEX
  5
A17
  8
0
 10
2311.8017534467149
 20
859.87175348162907
 30
0.0
  0
SEQEND
  5
A18
  8
0
  0
POLYLINE
  5
144
  8
0
 66
     1
 10
0.0
 20
0.0
 30
0.0
  0
VERTEX
  5
A19
  8
0
 10
2552.3820109200951
 20
914.25301912875204
 30
0.0
  0
VERTEX
  5
A1A
  8
0
 10
2547.6361145400601
 20
909.72395496225295
 30
0.0
 42
-0.4142135623730951
  0
VERTEX
  5
A1B
  8
0
 10
2568.8361145400609
 20
888.52395496225324
 30
0.0
  0
VERTEX
  5
A1C
  8
0
 10
2568.83611454006
 20
878.52395496225267
 30
0.0
 42
-0.4142135623730951
  0
VERTEX
  5
A1D
  8
0
 10
2547.6361145400601
 20
857.32395496225331
 30
0.0
  0
VERTEX
  5
A1E
  8
0
 10
2507.9361145400599
 20
857.32395496225331
 30
0.0
  0
VERTEX
  5
A1F
  8
0
 10
2287.6125851282959
 20
739.81807260931214
 30
0.0
 42
-0.5661903789690596
  0
VERTEX
  5
A20
  8
0
 10
2256.4361145400599
 20
758.52395496225324
 30
0.0
  0
VERTEX
  5
A21
  8
0
 10
2256.4361145400599
 20
888.52395496225381
 30
0.0
 42
-0.4142135623730951
  0
VERTEX
  5
A22
  8
0
 10
2277.636114540061
 20
909.72395496225363
 30
0.0
  0
VERTEX
  5
A23
  8
0
 10
2547.6361145400601
 20
909.72395496225295
 30
0.0
  0
VERTEX
  5
A24
  8
0
 10
2547.6361145400601
 20
914.99695815141422
 30
0.0
  0
SEQEND
  5
A25
  8
0
  0
POLYLINE
  5
145
  8
0
 66
     1
 10
0.0
 20
0.0
 30
0.0
  0
VERTEX
  5
A26
  8
0
 10
2517.6361145400601
 20
968.03696504135166
 30
0.0
  0
VERTEX
  5
A27
  8
0
 10
2517.6361145400601
 20
959.2369650413516
 30
0.0
 42
0.4142135623730951
  0
VERTEX
  5
A28
  8
0
 10
2526.4361145400612
 20
968.03696504135166
 30
0.0
  0
VERTEX
  5
A29
  8
0
 10
2526.4361145400599
 20
1018.036965041351
 30
0.0
 42
0.5661903789690606
  0
VERTEX
  5
A2A
  8
0
 10
2513.494938069472
 20
1025.801670923704
 30
0.0
  0
VERTEX
  5
A2B
  8
0
 10
2419.744938069472
 20
975.80167092370561
 30
0.0
 42
0.7807764064044145
  0
VERTEX
  5
A2C
  8
0
 10
2423.8861145400601
 20
959.23696504135228
 30
0.0
  0
VERTEX
  5
A2D
  8
0
 10
2517.6361145400601
 20
959.2369650413516
 30
0.0
  0
VERTEX
  5
A2E
  8
0
 10
2513.11125922468
 20
965.93996819431925
 30
0.0
  0
SEQEND
  5
A2F
  8
0
  0
POLYLINE
  5
146
  8
0
 66
     1
 10
0.0
 20
0.0
 30
0.0
  0
VERTEX
  5
A30
  8
0
 10
2534.610600316455
 20
1090.2954725084669
 30
0.0
  0
VERTEX
  5
A31
  8
0
 10
2537.6596439518248
 20
1086.742847394293
 30
0.0
 42
-0.5661903789690609
  0
VERTEX
  5
A32
  8
0
 10
2568.83611454006
 20
1068.036965041352
 30
0.0
  0
VERTEX
  5
A33
  8
0
 10
2568.83611454006
 20
938.03696504135235
 30
0.0
 42
-0.4142135623730951
  0
VERTEX
  5
A34
  8
0
 10
2547.6361145400601
 20
916.83696504135196
 30
0.0
  0
VERTEX
  5
A35
  8
0
 10
2277.636114540061
 20
916.83696504135196
 30
0.0
 42
-0.4142135623730951
  0
VERTEX
  5
A36
  8
0
 10
2256.4361145400599
 20
938.03696504135235
 30
0.0
  0
VERTEX
  5
A37
  8
0
 10
2256.4361145400599
 20
948.03696504135235
 30
0.0
 42
-0.4142135623730951
  0
VERTEX
  5
A38
  8
0
 10
2277.636114540061
 20
969.23696504135228
 30
0.0
  0
VERTEX
  5
A39
  8
0
 10
2317.3361145400609
 20
969.23696504135228
 30
0.0
  0
VERTEX
  5
A3A
  8
0
 10
2537.6596439518248
 20
1086.742847394293
 30
0.0
  0
VERTEX
  5
A3B
  8
0
 10
2532.5749719275009
 20
1088.555215013452
 30
0.0
  0
SEQEND
  5
A3C
  8
0
  0
POLYLINE
  5
147
  8
0
 66
     1
 10
0.0
 20
0.0
 30
0.0
  0
VERTEX
  5
A3D
  8
0
 10
2307.636114540061
 20
1093.633181739013
 30
0.0
  0
VERTEX
  5
A3E
  8
0
 10
2307.636114540061
 20
1102.433181739013
 30
0.0
 42
0.4142135623730951
  0
VERTEX
  5
A3F
  8
0
 10
2298.83611454006
 20
1093.633181739013
 30
0.0
  0
VERTEX
  5
A40
  8
0
 10
2298.83611454006
 20
1043.633181739013
 30
0.0
 42
0.5661903789690596
  0
VERTEX
  5
A41
  8
0
 10
2311.7772910106492
 20
1035.8684758566601
 30
0.0
  0
VERTEX
  5
A42
  8
0
 10
2405.5272910106492
 20
1085.8684758566601
 30
0.0
 42
0.7807764064044159
  0
VERTEX
  5
A43
  8
0
 10
2401.3861145400601
 20
1102.433181739013
 30
0.0
  0
VERTEX
  5
A44
  8
0
 10
2307.636114540061
 20
1102.433181739013
 30
0.0
  0
VERTEX
  5
A45
  8
0
 10
2311.8017534467149
 20
1094.9809802583891
 30
0.0
  0
SEQEND
  5
A46
  8
0
  0
POLYLINE
  5
148
  8
0
 66
     1
 10
0.0
 20
0.0
 30
0.0
  0
VERTEX
  5
A47
  8
0
 10
2552.3820109200951
 20
1149.3622459055109
 30
0.0
  0
VERTEX
  5
A48
  8
0
 10
2547.6361145400601
 20
1144.8331817390131
 30
0.0
 42
-0.4142135623730951
  0
VERTEX
  5
A49
  8
0
 10
2568.8361145400609
 20
1123.633181739013
 30
0.0
  0
VERTEX
  5
A4A
  8
0
 10
2568.83611454006
 20
1113.6331817390119
 30
0.0
 42
-0.4142135623730951
  0
VERTEX
  5
A4B
  8
0
 10
2547.6361145400601
 20
1092.4331817390121
 30
0.0
  0
VERTEX
  5
A4C
  8
0
 10
2507.9361145400599
 20
1092.4331817390121
 30
0.0
  0
VERTEX
  5
A4D
  8
0
 10
2287.6125851282959
 20
974.92729938607135
 30
0.0
 42
-0.5661903789690596
  0
VERTEX
  5
A4E
  8
0
 10
2256.4361145400599
 20
993.63318173901291
 30
0.0
  0
VERTEX
  5
A4F
  8
0
 10
2256.4361145400599
 20
1123.633181739013
 30
0.0
 42
-0.4142135623730951
  0
VERTEX
  5
A50
  8
0
 10
2277.636114540061
 20
1144.8331817390131
 30
0.0
  0
VERTEX
  5
A51
  8
0
 10
2547.6361145400601
 20
1144.8331817390119
 30
0.0
  0
VERTEX
  5
A52
  8
0
 10
2547.6361145400601
 20
1150.106184928173
 30
0.0
  0
SEQEND
  5
A53
  8
0
  0
POLYLINE
  5
149
  8
0
 66
     1
 10
0.0
 20
0.0
 30
0.0
  0
VERTEX
  5
A54
  8
0
 10
2517.6361145400601
 20
1202.8509650757071
 30
0.0
  0
VERTEX
  5
A55
  8
0
 10
2517.6361145400601
 20
1194.0509650757081
 30
0.0
 42
0.4142135623730951
  0
VERTEX
  5
A56
  8
0
 10
2526.4361145400612
 20
1202.8509650757071
 30
0.0
  0
VERTEX
  5
A57
  8
0
 10
2526.4361145400599
 20
1252.850965075708
 30
0.0
 42
0.5661903789690606
  0
VERTEX
  5
A58
  8
0
 10
2513.494938069472
 20
1260.61567095806
 30
0.0
  0
VERTEX
  5
A59
  8
0
 10
2419.744938069472
 20
1210.61567095806
 30
0.0
 42
0.7807764064044145
  0
VERTEX
  5
A5A
  8
0
 10
2423.8861145400601
 20
1194.0509650757081
 30
0.0
  0
VERTEX
  5
A5B
  8
0
 10
2517.6361145400601
 20
1194.0509650757081
 30
0.0
  0
VERTEX
  5
A5C
  8
0
 10
2513.11125922468
 20
1200.753968228674
 30
0.0
  0
SEQEND
  5
A5D
  8
0
  0
POLYLINE
  5
14A
  8
0
 66
     1
 10
0.0
 20
0.0
 30
0.0
  0
VERTEX
  5
A5E
  8
0
 10
2534.610600316455
 20
1325.1094725428241
 30
0.0
  0
VERTEX
  5
A5F
  8
0
 10
2537.6596439518248
 20
1321.556847428649
 30
0.0
 42
-0.5661903789690609
  0
VERTEX
  5
A60
  8
0
 10
2568.83611454006
 20
1302.8509650757071
 30
0.0
  0
VERTEX
  5
A61
  8
0
 10
2568.83611454006
 20
1172.8509650757071
 30
0.0
 42
-0.4142135623730951
  0
VERTEX
  5
A62
  8
0
 10
2547.6361145400601
 20
1151.6509650757071
 30
0.0
  0
VERTEX
  5
A63
  8
0
 10
2277.636114540061
 20
1151.6509650757071
 30
0.0
 42
-0.4142135623730951
  0
VERTEX
  5
A64
  8
0
 10
2256.4361145400599
 20
1172.850965075708
 30
0.0
  0
VERTEX
  5
A65
  8
0
 10
2256.4361145400599
 20
1182.850965075708
 30
0.0
 42
-0.4142135623730951
  0
VERTEX
  5
A66
  8
0
 10
2277.636114540061
 20
1204.0509650757081
 30
0.0
  0
VERTEX
  5
A67
  8
0
 10
2317.3361145400609
 20
1204.0509650757081
 30
0.0
  0
VERTEX
  5
A68
  8
0
 10
2537.6596439518248
 20
1321.556847428649
 30
0.0
  0
VERTEX
  5
A69
  8
0
 10
2532.5749719275009
 20
1323.3692150478071
 30
0.0
  0
SEQEND
  5
A6A
  8
0
  0
POLYLINE
  5
14B
  8
0
 66
     1
 10
0.0
 20
0.0
 30
0.0
  0
VERTEX
  5
A6B
  8
0
 10
2307.636114540061
 20
1328.447181773369
 30
0.0
  0
VERTEX
  5
A6C
  8
0
 10
2307.636114540061
 20
1337.2471817733681
 30
0.0
 42
0.4142135623730951
  0
VERTEX
  5
A6D
  8
0
 10
2298.83611454006
 20
1328.447181773369
 30
0.0
  0
VERTEX
  5
A6E
  8
0
 10
2298.83611454006
 20
1278.4471817733679
 30
0.0
 42
0.5661903789690596
  0
VERTEX
  5
A6F
  8
0
 10
2311.7772910106492
 20
1270.6824758910161
 30
0.0
  0
VERTEX
  5
A70
  8
0
 10
2405.5272910106492
 20
1320.6824758910161
 30
0.0
 42
0.7807764064044159
  0
VERTEX
  5
A71
  8
0
 10
2401.3861145400601
 20
1337.2471817733681
 30
0.0
  0
VERTEX
  5
A72
  8
0
 10
2307.636114540061
 20
1337.247181773369
 30
0.0
  0
VERTEX
  5
A73
  8
0
 10
2311.8017534467149
 20
1329.794980292744
 30
0.0
  0
SEQEND
  5
A74
  8
0
  0
POLYLINE
  5
14C
  8
0
 66
     1
 10
0.0
 20
0.0
 30
0.0
  0
VERTEX
  5
A75
  8
0
 10
2552.3820109200951
 20
1384.1762459398681
 30
0.0
  0
VERTEX
  5
A76
  8
0
 10
2547.6361145400601
 20
1379.6471817733679
 30
0.0
 42
-0.4142135623730951
  0
VERTEX
  5
A77
  8
0
 10
2568.8361145400609
 20
1358.4471817733679
 30
0.0
  0
VERTEX
  5
A78
  8
0
 10
2568.83611454006
 20
1348.4471817733679
 30
0.0
 42
-0.4142135623730951
  0
VERTEX
  5
A79
  8
0
 10
2547.6361145400601
 20
1327.2471817733681
 30
0.0
  0
VERTEX
  5
A7A
  8
0
 10
2507.9361145400599
 20
1327.2471817733681
 30
0.0
  0
VERTEX
  5
A7B
  8
0
 10
2287.6125851282959
 20
1209.7412994204269
 30
0.0
 42
-0.5661903789690596
  0
VERTEX
  5
A7C
  8
0
 10
2256.4361145400599
 20
1228.447181773369
 30
0.0
  0
VERTEX
  5
A7D
  8
0
 10
2256.4361145400599
 20
1358.447181773369
 30
0.0
 42
-0.4142135623730951
  0
VERTEX
  5
A7E
  8
0
 10
2277.636114540061
 20
1379.6471817733679
 30
0.0
  0
VERTEX
  5
A7F
  8
0
 10
2547.6361145400601
 20
1379.6471817733679
 30
0.0
  0
VERTEX
  5
A80
  8
0
 10
2547.6361145400601
 20
1384.920184962529
 30
0.0
  0
SEQEND
  5
A81
  8
0
  0
POLYLINE
  5
155
  8
0
 66
     1
 10
0.0
 20
0.0
 30
0.0
  0
VERTEX
  5
A82
  8
0
 10
2197.8328013172609
 20
495.92773826459239
 30
0.0
  0
VERTEX
  5
A83
  8
0
 10
2197.8328013172609
 20
487.12773826459261
 30
0.0
 42
0.4142135623730951
  0
VERTEX
  5
A84
  8
0
 10
2206.6328013172629
 20
495.92773826459239
 30
0.0
  0
VERTEX
  5
A85
  8
0
 10
2206.632801317262
 20
545.92773826459245
 30
0.0
 42
0.5661903789690591
  0
VERTEX
  5
A86
  8
0
 10
2193.6916248466741
 20
553.69244414694515
 30
0.0
  0
VERTEX
  5
A87
  8
0
 10
2099.9416248466741
 20
503.69244414694572
 30
0.0
 42
0.7807764064044159
  0
VERTEX
  5
A88
  8
0
 10
2104.0828013172609
 20
487.12773826459272
 30
0.0
  0
VERTEX
  5
A89
  8
0
 10
2197.8328013172609
 20
487.12773826459261
 30
0.0
  0
VERTEX
  5
A8A
  8
0
 10
2193.3079460018821
 20
493.83074141755958
 30
0.0
  0
SEQEND
  5
A8B
  8
0
  0
POLYLINE
  5
156
  8
0
 66
     1
 10
0.0
 20
0.0
 30
0.0
  0
VERTEX
  5
A8C
  8
0
 10
2214.8072870936562
 20
618.18624573170825
 30
0.0
  0
VERTEX
  5
A8D
  8
0
 10
2217.8563307290269
 20
614.63362061753412
 30
0.0
 42
-0.5661903789690599
  0
VERTEX
  5
A8E
  8
0
 10
2249.0328013172611
 20
595.9277382645929
 30
0.0
  0
VERTEX
  5
A8F
  8
0
 10
2249.0328013172611
 20
465.92773826459268
 30
0.0
 42
-0.4142135623730951
  0
VERTEX
  5
A90
  8
0
 10
2227.8328013172618
 20
444.72773826459257
 30
0.0
  0
VERTEX
  5
A91
  8
0
 10
1957.832801317262
 20
444.72773826459269
 30
0.0
 42
-0.4142135623730951
  0
VERTEX
  5
A92
  8
0
 10
1936.632801317262
 20
465.9277382645929
 30
0.0
  0
VERTEX
  5
A93
  8
0
 10
1936.632801317262
 20
475.9277382645929
 30
0.0
 42
-0.4142135623730951
  0
VERTEX
  5
A94
  8
0
 10
1957.832801317262
 20
497.12773826459278
 30
0.0
  0
VERTEX
  5
A95
  8
0
 10
1997.532801317263
 20
497.12773826459278
 30
0.0
  0
VERTEX
  5
A96
  8
0
 10
2217.8563307290269
 20
614.63362061753412
 30
0.0
  0
VERTEX
  5
A97
  8
0
 10
2212.771658704703
 20
616.44598823669276
 30
0.0
  0
SEQEND
  5
A98
  8
0
  0
POLYLINE
  5
157
  8
0
 66
     1
 10
0.0
 20
0.0
 30
0.0
  0
VERTEX
  5
A99
  8
0
 10
1987.832801317262
 20
621.5239549622537
 30
0.0
  0
VERTEX
  5
A9A
  8
0
 10
1987.832801317262
 20
630.32395496225377
 30
0.0
 42
0.4142135623730951
  0
VERTEX
  5
A9B
  8
0
 10
1979.0328013172621
 20
621.5239549622537
 30
0.0
  0
VERTEX
  5
A9C
  8
0
 10
1979.0328013172621
 20
571.52395496225415
 30
0.0
 42
0.5661903789690586
  0
VERTEX
  5
A9D
  8
0
 10
1991.973977787849
 20
563.75924907990122
 30
0.0
  0
VERTEX
  5
A9E
  8
0
 10
2085.7239777878499
 20
613.75924907990077
 30
0.0
 42
0.7807764064044171
  0
VERTEX
  5
A9F
  8
0
 10
2081.5828013172609
 20
630.32395496225354
 30
0.0
  0
VERTEX
  5
AA0
  8
0
 10
1987.832801317262
 20
630.32395496225422
 30
0.0
  0
VERTEX
  5
AA1
  8
0
 10
1991.9984402239161
 20
622.87175348162975
 30
0.0
  0
SEQEND
  5
AA2
  8
0
  0
POLYLINE
  5
158
  8
0
 66
     1
 10
0.0
 20
0.0
 30
0.0
  0
VERTEX
  5
AA3
  8
0
 10
2232.5786976972959
 20
677.25301912875238
 30
0.0
  0
VERTEX
  5
AA4
  8
0
 10
2227.8328013172618
 20
672.72395496225329
 30
0.0
 42
-0.4142135623730951
  0
VERTEX
  5
AA5
  8
0
 10
2249.032801317263
 20
651.52395496225336
 30
0.0
  0
VERTEX
  5
AA6
  8
0
 10
2249.0328013172611
 20
641.52395496225301
 30
0.0
 42
-0.4142135623730951
  0
VERTEX
  5
AA7
  8
0
 10
2227.8328013172618
 20
620.32395496225331
 30
0.0
  0
VERTEX
  5
AA8
  8
0
 10
2188.132801317262
 20
620.32395496225331
 30
0.0
  0
VERTEX
  5
AA9
  8
0
 10
1967.809271905498
 20
502.81807260931203
 30
0.0
 42
-0.5661903789690586
  0
VERTEX
  5
AAA
  8
0
 10
1936.632801317262
 20
521.5239549622537
 30
0.0
  0
VERTEX
  5
AAB
  8
0
 10
1936.632801317262
 20
651.52395496225392
 30
0.0
 42
-0.4142135623730951
  0
VERTEX
  5
AAC
  8
0
 10
1957.832801317262
 20
672.72395496225374
 30
0.0
  0
VERTEX
  5
AAD
  8
0
 10
2227.8328013172618
 20
672.72395496225329
 30
0.0
  0
VERTEX
  5
AAE
  8
0
 10
2227.8328013172618
 20
677.99695815141411
 30
0.0
  0
SEQEND
  5
AAF
  8
0
  0
POLYLINE
  5
159
  8
0
 66
     1
 10
0.0
 20
0.0
 30
0.0
  0
VERTEX
  5
AB0
  8
0
 10
2197.8328013172609
 20
732.92773826459245
 30
0.0
  0
VERTEX
  5
AB1
  8
0
 10
2197.8328013172609
 20
724.12773826459238
 30
0.0
 42
0.4142135623730951
  0
VERTEX
  5
AB2
  8
0
 10
2206.6328013172629
 20
732.92773826459245
 30
0.0
  0
VERTEX
  5
AB3
  8
0
 10
2206.632801317262
 20
782.92773826459245
 30
0.0
 42
0.5661903789690606
  0
VERTEX
  5
AB4
  8
0
 10
2193.6916248466741
 20
790.69244414694515
 30
0.0
  0
VERTEX
  5
AB5
  8
0
 10
2099.9416248466741
 20
740.6924441469456
 30
0.0
 42
0.7807764064044145
  0
VERTEX
  5
AB6
  8
0
 10
2104.0828013172609
 20
724.12773826459238
 30
0.0
  0
VERTEX
  5
AB7
  8
0
 10
2197.8328013172609
 20
724.12773826459238
 30
0.0
  0
VERTEX
  5
AB8
  8
0
 10
2193.3079460018821
 20
730.83074141755969
 30
0.0
  0
SEQEND
  5
AB9
  8
0
  0
POLYLINE
  5
15A
  8
0
 66
     1
 10
0.0
 20
0.0
 30
0.0
  0
VERTEX
  5
ABA
  8
0
 10
2214.8072870936562
 20
855.18624573170871
 30
0.0
  0
VERTEX
  5
ABB
  8
0
 10
2217.8563307290269
 20
851.63362061753423
 30
0.0
 42
-0.5661903789690609
  0
VERTEX
  5
ABC
  8
0
 10
2249.0328013172611
 20
832.92773826459279
 30
0.0
  0
VERTEX
  5
ABD
  8
0
 10
2249.0328013172611
 20
702.92773826459268
 30
0.0
 42
-0.4142135623730951
  0
VERTEX
  5
ABE
  8
0
 10
2227.8328013172618
 20
681.72773826459252
 30
0.0
  0
VERTEX
  5
ABF
  8
0
 10
1957.832801317262
 20
681.72773826459274
 30
0.0
 42
-0.4142135623730951
  0
VERTEX
  5
AC0
  8
0
 10
1936.632801317262
 20
702.92773826459268
 30
0.0
  0
VERTEX
  5
AC1
  8
0
 10
1936.632801317262
 20
712.92773826459279
 30
0.0
 42
-0.4142135623730951
  0
VERTEX
  5
AC2
  8
0
 10
1957.832801317262
 20
734.12773826459295
 30
0.0
  0
VERTEX
  5
AC3
  8
0
 10
1997.532801317263
 20
734.12773826459295
 30
0.0
  0
VERTEX
  5
AC4
  8
0
 10
2217.8563307290269
 20
851.63362061753423
 30
0.0
  0
VERTEX
  5
AC5
  8
0
 10
2212.771658704703
 20
853.44598823669276
 30
0.0
  0
SEQEND
  5
AC6
  8
0
  0
POLYLINE
  5
15B
  8
0
 66
     1
 10
0.0
 20
0.0
 30
0.0
  0
VERTEX
  5
AC7
  8
0
 10
1987.832801317262
 20
858.52395496225392
 30
0.0
  0
VERTEX
  5
AC8
  8
0
 10
1987.832801317262
 20
867.32395496225377
 30
0.0
 42
0.4142135623730951
  0
VERTEX
  5
AC9
  8
0
 10
1979.0328013172621
 20
858.52395496225392
 30
0.0
  0
VERTEX
  5
ACA
  8
0
 10
1979.0328013172621
 20
808.52395496225404
 30
0.0
 42
0.5661903789690596
  0
VERTEX
  5
ACB
  8
0
 10
1991.973977787849
 20
800.75924907990066
 30
0.0
  0
VERTEX
  5
ACC
  8
0
 10
2085.7239777878499
 20
850.75924907990054
 30
0.0
 42
0.7807764064044159
  0
VERTEX
  5
ACD
  8
0
 10
2081.5828013172609
 20
867.32395496225377
 30
0.0
  0
VERTEX
  5
ACE
  8
0
 10
1987.832801317262
 20
867.32395496225411
 30
0.0
  0
VERTEX
  5
ACF
  8
0
 10
1991.9984402239161
 20
859.87175348162907
 30
0.0
  0
SEQEND
  5
AD0
  8
0
  0
POLYLINE
  5
15C
  8
0
 66
     1
 10
0.0
 20
0.0
 30
0.0
  0
VERTEX
  5
AD1
  8
0
 10
2232.5786976972959
 20
914.25301912875204
 30
0.0
  0
VERTEX
  5
AD2
  8
0
 10
2227.8328013172618
 20
909.72395496225295
 30
0.0
 42
-0.4142135623730951
  0
VERTEX
  5
AD3
  8
0
 10
2249.032801317263
 20
888.52395496225324
 30
0.0
  0
VERTEX
  5
AD4
  8
0
 10
2249.0328013172611
 20
878.52395496225267
 30
0.0
 42
-0.4142135623730951
  0
VERTEX
  5
AD5
  8
0
 10
2227.8328013172618
 20
857.32395496225331
 30
0.0
  0
VERTEX
  5
AD6
  8
0
 10
2188.132801317262
 20
857.32395496225331
 30
0.0
  0
VERTEX
  5
AD7
  8
0
 10
1967.809271905498
 20
739.81807260931214
 30
0.0
 42
-0.5661903789690596
  0
VERTEX
  5
AD8
  8
0
 10
1936.632801317262
 20
758.52395496225324
 30
0.0
  0
VERTEX
  5
AD9
  8
0
 10
1936.632801317262
 20
888.52395496225381
 30
0.0
 42
-0.4142135623730951
  0
VERTEX
  5
ADA
  8
0
 10
1957.832801317262
 20
909.72395496225363
 30
0.0
  0
VERTEX
  5
ADB
  8
0
 10
2227.8328013172618
 20
909.72395496225295
 30
0.0
  0
VERTEX
  5
ADC
  8
0
 10
2227.8328013172618
 20
914.99695815141422
 30
0.0
  0
SEQEND
  5
ADD
  8
0
  0
POLYLINE
  5
15D
  8
0
 66
     1
 10
0.0
 20
0.0
 30
0.0
  0
VERTEX
  5
ADE
  8
0
 10
2197.8328013172609
 20
968.03696504135166
 30
0.0
  0
VERTEX
  5
ADF
  8
0
 10
2197.8328013172609
 20
959.2369650413516
 30
0.0
 42
0.4142135623730951
  0
VERTEX
  5
AE0
  8
0
 10
2206.6328013172629
 20
968.03696504135166
 30
0.0
  0
VERTEX
  5
AE1
  8
0
 10
2206.632801317262
 20
1018.036965041351
 30
0.0
 42
0.5661903789690606
  0
VERTEX
  5
AE2
  8
0
 10
2193.6916248466741
 20
1025.801670923704
 30
0.0
  0
VERTEX
  5
AE3
  8
0
 10
2099.9416248466741
 20
975.80167092370561
 30
0.0
 42
0.7807764064044145
  0
VERTEX
  5
AE4
  8
0
 10
2104.0828013172609
 20
959.23696504135228
 30
0.0
  0
VERTEX
  5
AE5
  8
0
 10
2197.8328013172609
 20
959.2369650413516
 30
0.0
  0
VERTEX
  5
AE6
  8
0
 10
2193.3079460018821
 20
965.93996819431925
 30
0.0
  0
SEQEND
  5
AE7
  8
0
  0
POLYLINE
  5
15E
  8
0
 66
     1
 10
0.0
 20
0.0
 30
0.0
  0
VERTEX
  5
AE8
  8
0
 10
2214.8072870936562
 20
1090.2954725084669
 30
0.0
  0
VERTEX
  5
AE9
  8
0
 10
2217.8563307290269
 20
1086.742847394293
 30
0.0
 42
-0.5661903789690609
  0
VERTEX
  5
AEA
  8
0
 10
2249.0328013172611
 20
1068.036965041352
 30
0.0
  0
VERTEX
  5
AEB
  8
0
 10
2249.0328013172611
 20
938.03696504135235
 30
0.0
 42
-0.4142135623730951
  0
VERTEX
  5
AEC
  8
0
 10
2227.8328013172618
 20
916.83696504135196
 30
0.0
  0
VERTEX
  5
AED
  8
0
 10
1957.832801317262
 20
916.83696504135196
 30
0.0
 42
-0.4142135623730951
  0
VERTEX
  5
AEE
  8
0
 10
1936.632801317262
 20
938.03696504135235
 30
0.0
  0
VERTEX
  5
AEF
  8
0
 10
1936.632801317262
 20
948.03696504135235
 30
0.0
 42
-0.4142135623730951
  0
VERTEX
  5
AF0
  8
0
 10
1957.832801317262
 20
969.23696504135228
 30
0.0
  0
VERTEX
  5
AF1
  8
0
 10
1997.532801317263
 20
969.23696504135228
 30
0.0
  0
VERTEX
  5
AF2
  8
0
 10
2217.8563307290269
 20
1086.742847394293
 30
0.0
  0
VERTEX
  5
AF3
  8
0
 10
2212.771658704703
 20
1088.555215013452
 30
0.0
  0
SEQEND
  5
AF4
  8
0
  0
POLYLINE
  5
15F
  8
0
 66
     1
 10
0.0
 20
0.0
 30
0.0
  0
VERTEX
  5
AF5
  8
0
 10
1987.832801317262
 20
1093.633181739013
 30
0.0
  0
VERTEX
  5
AF6
  8
0
 10
1987.832801317262
 20
1102.433181739013
 30
0.0
 42
0.4142135623730951
  0
VERTEX
  5
AF7
  8
0
 10
1979.0328013172621
 20
1093.633181739013
 30
0.0
  0
VERTEX
  5
AF8
  8
0
 10
1979.0328013172621
 20
1043.633181739013
 30
0.0
 42
0.5661903789690596
  0
VERTEX
  5
AF9
  8
0
 10
1991.973977787849
 20
1035.8684758566601
 30
0.0
  0
VERTEX
  5
AFA
  8
0
 10
2085.7239777878499
 20
1085.8684758566601
 30
0.0
 42
0.7807764064044159
  0
VERTEX
  5
AFB
  8
0
 10
2081.5828013172609
 20
1102.433181739013
 30
0.0
  0
VERTEX
  5
AFC
  8
0
 10
1987.832801317262
 20
1102.433181739013
 30
0.0
  0
VERTEX
  5
AFD
  8
0
 10
1991.9984402239161
 20
1094.9809802583891
 30
0.0
  0
SEQEND
  5
AFE
  8
0
  0
POLYLINE
  5
160
  8
0
 66
     1
 10
0.0
 20
0.0
 30
0.0
  0
VERTEX
  5
AFF
  8
0
 10
2232.5786976972959
 20
1149.3622459055109
 30
0.0
  0
VERTEX
  5
B00
  8
0
 10
2227.8328013172618
 20
1144.8331817390131
 30
0.0
 42
-0.4142135623730951
  0
VERTEX
  5
B01
  8
0
 10
2249.032801317263
 20
1123.633181739013
 30
0.0
  0
VERTEX
  5
B02
  8
0
 10
2249.0328013172611
 20
1113.6331817390119
 30
0.0
 42
-0.4142135623730951
  0
VERTEX
  5
B03
  8
0
 10
2227.8328013172618
 20
1092.4331817390121
 30
0.0
  0
VERTEX
  5
B04
  8
0
 10
2188.132801317262
 20
1092.4331817390121
 30
0.0
  0
VERTEX
  5
B05
  8
0
 10
1967.809271905498
 20
974.92729938607135
 30
0.0
 42
-0.5661903789690596
  0
VERTEX
  5
B06
  8
0
 10
1936.632801317262
 20
993.63318173901291
 30
0.0
  0
VERTEX
  5
B07
  8
0
 10
1936.632801317262
 20
1123.633181739013
 30
0.0
 42
-0.4142135623730951
  0
VERTEX
  5
B08
  8
0
 10
1957.832801317262
 20
1144.8331817390131
 30
0.0
  0
VERTEX
  5
B09
  8
0
 10
2227.8328013172618
 20
1144.8331817390119
 30
0.0
  0
VERTEX
  5
B0A
  8
0
 10
2227.8328013172618
 20
1150.106184928173
 30
0.0
  0
SEQEND
  5
B0B
  8
0
  0
POLYLINE
  5
161
  8
0
 66
     1
 10
0.0
 20
0.0
 30
0.0
  0
VERTEX
  5
B0C
  8
0
 10
2197.8328013172609
 20
1202.8509650757071
 30
0.0
  0
VERTEX
  5
B0D
  8
0
 10
2197.8328013172609
 20
1194.0509650757081
 30
0.0
 42
0.4142135623730951
  0
VERTEX
  5
B0E
  8
0
 10
2206.6328013172629
 20
1202.8509650757071
 30
0.0
  0
VERTEX
  5
B0F
  8
0
 10
2206.632801317262
 20
1252.850965075708
 30
0.0
 42
0.5661903789690606
  0
VERTEX
  5
B10
  8
0
 10
2193.6916248466741
 20
1260.61567095806
 30
0.0
  0
VERTEX
  5
B11
  8
0
 10
2099.9416248466741
 20
1210.61567095806
 30
0.0
 42
0.7807764064044145
  0
VERTEX
  5
B12
  8
0
 10
2104.0828013172609
 20
1194.0509650757081
 30
0.0
  0
VERTEX
  5
B13
  8
0
 10
2197.8328013172609
 20
1194.0509650757081
 30
0.0
  0
VERTEX
  5
B14
  8
0
 10
2193.3079460018821
 20
1200.753968228674
 30
0.0
  0
SEQEND
  5
B15
  8
0
  0
POLYLINE
  5
162
  8
0
 66
     1
 10
0.0
 20
0.0
 30
0.0
  0
VERTEX
  5
B16
  8
0
 10
2214.8072870936562
 20
1325.1094725428241
 30
0.0
  0
VERTEX
  5
B17
  8
0
 10
2217.8563307290269
 20
1321.556847428649
 30
0.0
 42
-0.5661903789690609
  0
VERTEX
  5
B18
  8
0
 10
2249.0328013172611
 20
1302.8509650757071
 30
0.0
  0
VERTEX
  5
B19
  8
0
 10
2249.0328013172611
 20
1172.8509650757071
 30
0.0
 42
-0.4142135623730951
  0
VERTEX
  5
B1A
  8
0
 10
2227.8328013172618
 20
1151.6509650757071
 30
0.0
  0
VERTEX
  5
B1B
  8
0
 10
1957.832801317262
 20
1151.6509650757071
 30
0.0
 42
-0.4142135623730951
  0
VERTEX
  5
B1C
  8
0
 10
1936.632801317262
 20
1172.850965075708
 30
0.0
  0
VERTEX
  5
B1D
  8
0
 10
1936.632801317262
 20
1182.850965075708
 30
0.0
 42
-0.4142135623730951
  0
VERTEX
  5
B1E
  8
0
 10
1957.832801317262
 20
1204.0509650757081
 30
0.0
  0
VERTEX
  5
B1F
  8
0
 10
1997.532801317263
 20
1204.0509650757081
 30
0.0
  0
VERTEX
  5
B20
  8
0
 10
2217.8563307290269
 20
1321.556847428649
 30
0.0
  0
VERTEX
  5
B21
  8
0
 10
2212.771658704703
 20
1323.3692150478071
 30
0.0
  0
SEQEND
  5
B22
  8
0
  0
POLYLINE
  5
163
  8
0
 66
     1
 10
0.0
 20
0.0
 30
0.0
  0
VERTEX
  5
B23
  8
0
 10
1987.832801317262
 20
1328.447181773369
 30
0.0
  0
VERTEX
  5
B24
  8
0
 10
1987.832801317262
 20
1337.2471817733681
 30
0.0
 42
0.4142135623730951
  0
VERTEX
  5
B25
  8
0
 10
1979.0328013172621
 20
1328.447181773369
 30
0.0
  0
VERTEX
  5
B26
  8
0
 10
1979.0328013172621
 20
1278.4471817733679
 30
0.0
 42
0.5661903789690596
  0
VERTEX
  5
B27
  8
0
 10
1991.973977787849
 20
1270.6824758910161
 30
0.0
  0
VERTEX
  5
B28
  8
0
 10
2085.7239777878499
 20
1320.6824758910161
 30
0.0
 42
0.7807764064044159
  0
VERTEX
  5
B29
  8
0
 10
2081.5828013172609
 20
1337.2471817733681
 30
0.0
  0
VERTEX
  5
B2A
  8
0
 10
1987.832801317262
 20
1337.247181773369
 30
0.0
  0
VERTEX
  5
B2B
  8
0
 10
1991.9984402239161
 20
1329.794980292744
 30
0.0
  0
SEQEND
  5
B2C
  8
0
  0
POLYLINE
  5
164
  8
0
 66
     1
 10
0.0
 20
0.0
 30
0.0
  0
VERTEX
  5
B2D
  8
0
 10
2232.5786976972959
 20
1384.1762459398681
 30
0.0
  0
VERTEX
  5
B2E
  8
0
 10
2227.8328013172618
 20
1379.6471817733679
 30
0.0
 42
-0.4142135623730951
  0
VERTEX
  5
B2F
  8
0
 10
2249.032801317263
 20
1358.4471817733679
 30
0.0
  0
VERTEX
  5
B30
  8
0
 10
2249.0328013172611
 20
1348.4471817733679
 30
0.0
 42
-0.4142135623730951
  0
VERTEX
  5
B31
  8
0
 10
2227.8328013172618
 20
1327.2471817733681
 30
0.0
  0
VERTEX
  5
B32
  8
0
 10
2188.132801317262
 20
1327.2471817733681
 30
0.0
  0
VERTEX
  5
B33
  8
0
 10
1967.809271905498
 20
1209.7412994204269
 30
0.0
 42
-0.5661903789690596
  0
VERTEX
  5
B34
  8
0
 10
1936.632801317262
 20
1228.447181773369
 30
0.0
  0
VERTEX
  5
B35
  8
0
 10
1936.632801317262
 20
1358.447181773369
 30
0.0
 42
-0.4142135623730951
  0
VERTEX
  5
B36
  8
0
 10
1957.832801317262
 20
1379.6471817733679
 30
0.0
  0
VERTEX
  5
B37
  8
0
 10
2227.8328013172618
 20
1379.6471817733679
 30
0.0
  0
VERTEX
  5
B38
  8
0
 10
2227.8328013172618
 20
1384.920184962529
 30
0.0
  0
SEQEND
  5
B39
  8
0
  0
POLYLINE
  5
16D
  8
0
 66
     1
 10
0.0
 20
0.0
 30
0.0
  0
VERTEX
  5
B3A
  8
0
 10
1878.6791691505671
 20
495.92773826459239
 30
0.0
  0
VERTEX
  5
B3B
  8
0
 10
1878.6791691505671
 20
487.12773826459261
 30
0.0
 42
0.4142135623730951
  0
VERTEX
  5
B3C
  8
0
 10
1887.4791691505679
 20
495.92773826459239
 30
0.0
  0
VERTEX
  5
B3D
  8
0
 10
1887.479169150567
 20
545.92773826459245
 30
0.0
 42
0.5661903789690591
  0
VERTEX
  5
B3E
  8
0
 10
1874.537992679979
 20
553.69244414694515
 30
0.0
  0
VERTEX
  5
B3F
  8
0
 10
1780.787992679979
 20
503.69244414694572
 30
0.0
 42
0.7807764064044159
  0
VERTEX
  5
B40
  8
0
 10
1784.9291691505671
 20
487.12773826459272
 30
0.0
  0
VERTEX
  5
B41
  8
0
 10
1878.6791691505671
 20
487.12773826459261
 30
0.0
  0
VERTEX
  5
B42
  8
0
 10
1874.1543138351869
 20
493.83074141755958
 30
0.0
  0
SEQEND
  5
B43
  8
0
  0
POLYLINE
  5
16E
  8
0
 66
     1
 10
0.0
 20
0.0
 30
0.0
  0
VERTEX
  5
B44
  8
0
 10
1895.6536549269611
 20
618.18624573170825
 30
0.0
  0
VERTEX
  5
B45
  8
0
 10
1898.7026985623311
 20
614.63362061753412
 30
0.0
 42
-0.5661903789690599
  0
VERTEX
  5
B46
  8
0
 10
1929.8791691505669
 20
595.9277382645929
 30
0.0
  0
VERTEX
  5
B47
  8
0
 10
1929.8791691505669
 20
465.92773826459268
 30
0.0
 42
-0.4142135623730951
  0
VERTEX
  5
B48
  8
0
 10
1908.6791691505671
 20
444.72773826459257
 30
0.0
  0
VERTEX
  5
B49
  8
0
 10
1638.679169150568
 20
444.72773826459269
 30
0.0
 42
-0.4142135623730951
  0
VERTEX
  5
B4A
  8
0
 10
1617.479169150567
 20
465.9277382645929
 30
0.0
  0
VERTEX
  5
B4B
  8
0
 10
1617.479169150567
 20
475.9277382645929
 30
0.0
 42
-0.4142135623730951
  0
VERTEX
  5
B4C
  8
0
 10
1638.679169150568
 20
497.12773826459278
 30
0.0
  0
VERTEX
  5
B4D
  8
0
 10
1678.379169150568
 20
497.12773826459278
 30
0.0
  0
VERTEX
  5
B4E
  8
0
 10
1898.7026985623311
 20
614.63362061753412
 30
0.0
  0
VERTEX
  5
B4F
  8
0
 10
1893.6180265380081
 20
616.44598823669276
 30
0.0
  0
SEQEND
  5
B50
  8
0
  0
POLYLINE
  5
16F
  8
0
 66
     1
 10
0.0
 20
0.0
 30
0.0
  0
VERTEX
  5
B51
  8
0
 10
1668.679169150568
 20
621.5239549622537
 30
0.0
  0
VERTEX
  5
B52
  8
0
 10
1668.679169150568
 20
630.32395496225377
 30
0.0
 42
0.4142135623730951
  0
VERTEX
  5
B53
  8
0
 10
1659.879169150566
 20
621.5239549622537
 30
0.0
  0
VERTEX
  5
B54
  8
0
 10
1659.879169150566
 20
571.52395496225415
 30
0.0
 42
0.5661903789690586
  0
VERTEX
  5
B55
  8
0
 10
1672.8203456211561
 20
563.75924907990122
 30
0.0
  0
VERTEX
  5
B56
  8
0
 10
1766.5703456211561
 20
613.75924907990077
 30
0.0
 42
0.7807764064044171
  0
VERTEX
  5
B57
  8
0
 10
1762.4291691505671
 20
630.32395496225354
 30
0.0
  0
VERTEX
  5
B58
  8
0
 10
1668.679169150568
 20
630.32395496225422
 30
0.0
  0
VERTEX
  5
B59
  8
0
 10
1672.8448080572221
 20
622.87175348162975
 30
0.0
  0
SEQEND
  5
B5A
  8
0
  0
POLYLINE
  5
170
  8
0
 66
     1
 10
0.0
 20
0.0
 30
0.0
  0
VERTEX
  5
B5B
  8
0
 10
1913.4250655306009
 20
677.25301912875238
 30
0.0
  0
VERTEX
  5
B5C
  8
0
 10
1908.6791691505671
 20
672.72395496225329
 30
0.0
 42
-0.4142135623730951
  0
VERTEX
  5
B5D
  8
0
 10
1929.879169150568
 20
651.52395496225336
 30
0.0
  0
VERTEX
  5
B5E
  8
0
 10
1929.8791691505669
 20
641.52395496225301
 30
0.0
 42
-0.4142135623730951
  0
VERTEX
  5
B5F
  8
0
 10
1908.6791691505671
 20
620.32395496225331
 30
0.0
  0
VERTEX
  5
B60
  8
0
 10
1868.979169150567
 20
620.32395496225331
 30
0.0
  0
VERTEX
  5
B61
  8
0
 10
1648.6556397388031
 20
502.81807260931203
 30
0.0
 42
-0.5661903789690586
  0
VERTEX
  5
B62
  8
0
 10
1617.479169150567
 20
521.5239549622537
 30
0.0
  0
VERTEX
  5
B63
  8
0
 10
1617.479169150567
 20
651.52395496225392
 30
0.0
 42
-0.4142135623730951
  0
VERTEX
  5
B64
  8
0
 10
1638.679169150568
 20
672.72395496225374
 30
0.0
  0
VERTEX
  5
B65
  8
0
 10
1908.6791691505671
 20
672.72395496225329
 30
0.0
  0
VERTEX
  5
B66
  8
0
 10
1908.6791691505671
 20
677.99695815141411
 30
0.0
  0
SEQEND
  5
B67
  8
0
  0
POLYLINE
  5
171
  8
0
 66
     1
 10
0.0
 20
0.0
 30
0.0
  0
VERTEX
  5
B68
  8
0
 10
1878.6791691505671
 20
732.92773826459245
 30
0.0
  0
VERTEX
  5
B69
  8
0
 10
1878.6791691505671
 20
724.12773826459238
 30
0.0
 42
0.4142135623730951
  0
VERTEX
  5
B6A
  8
0
 10
1887.4791691505679
 20
732.92773826459245
 30
0.0
  0
VERTEX
  5
B6B
  8
0
 10
1887.479169150567
 20
782.92773826459245
 30
0.0
 42
0.5661903789690606
  0
VERTEX
  5
B6C
  8
0
 10
1874.537992679979
 20
790.69244414694515
 30
0.0
  0
VERTEX
  5
B6D
  8
0
 10
1780.787992679979
 20
740.6924441469456
 30
0.0
 42
0.7807764064044145
  0
VERTEX
  5
B6E
  8
0
 10
1784.9291691505671
 20
724.12773826459238
 30
0.0
  0
VERTEX
  5
B6F
  8
0
 10
1878.6791691505671
 20
724.12773826459238
 30
0.0
  0
VERTEX
  5
B70
  8
0
 10
1874.1543138351869
 20
730.83074141755969
 30
0.0
  0
SEQEND
  5
B71
  8
0
  0
POLYLINE
  5
172
  8
0
 66
     1
 10
0.0
 20
0.0
 30
0.0
  0
VERTEX
  5
B72
  8
0
 10
1895.6536549269611
 20
855.18624573170871
 30
0.0
  0
VERTEX
  5
B73
  8
0
 10
1898.7026985623311
 20
851.63362061753423
 30
0.0
 42
-0.5661903789690609
  0
VERTEX
  5
B74
  8
0
 10
1929.8791691505669
 20
832.92773826459279
 30
0.0
  0
VERTEX
  5
B75
  8
0
 10
1929.8791691505669
 20
702.92773826459268
 30
0.0
 42
-0.4142135623730951
  0
VERTEX
  5
B76
  8
0
 10
1908.6791691505671
 20
681.72773826459252
 30
0.0
  0
VERTEX
  5
B77
  8
0
 10
1638.679169150568
 20
681.72773826459274
 30
0.0
 42
-0.4142135623730951
  0
VERTEX
  5
B78
  8
0
 10
1617.479169150567
 20
702.92773826459268
 30
0.0
  0
VERTEX
  5
B79
  8
0
 10
1617.479169150567
 20
712.92773826459279
 30
0.0
 42
-0.4142135623730951
  0
VERTEX
  5
B7A
  8
0
 10
1638.679169150568
 20
734.12773826459295
 30
0.0
  0
VERTEX
  5
B7B
  8
0
 10
1678.379169150568
 20
734.12773826459295
 30
0.0
  0
VERTEX
  5
B7C
  8
0
 10
1898.7026985623311
 20
851.63362061753423
 30
0.0
  0
VERTEX
  5
B7D
  8
0
 10
1893.6180265380081
 20
853.44598823669276
 30
0.0
  0
SEQEND
  5
B7E
  8
0
  0
POLYLINE
  5
173
  8
0
 66
     1
 10
0.0
 20
0.0
 30
0.0
  0
VERTEX
  5
B7F
  8
0
 10
1668.679169150568
 20
858.52395496225392
 30
0.0
  0
VERTEX
  5
B80
  8
0
 10
1668.679169150568
 20
867.32395496225377
 30
0.0
 42
0.4142135623730951
  0
VERTEX
  5
B81
  8
0
 10
1659.879169150566
 20
858.52395496225392
 30
0.0
  0
VERTEX
  5
B82
  8
0
 10
1659.879169150566
 20
808.52395496225404
 30
0.0
 42
0.5661903789690596
  0
VERTEX
  5
B83
  8
0
 10
1672.8203456211561
 20
800.75924907990066
 30
0.0
  0
VERTEX
  5
B84
  8
0
 10
1766.5703456211561
 20
850.75924907990054
 30
0.0
 42
0.7807764064044159
  0
VERTEX
  5
B85
  8
0
 10
1762.4291691505671
 20
867.32395496225377
 30
0.0
  0
VERTEX
  5
B86
  8
0
 10
1668.679169150568
 20
867.32395496225411
 30
0.0
  0
VERTEX
  5
B87
  8
0
 10
1672.8448080572221
 20
859.87175348162907
 30
0.0
  0
SEQEND
  5
B88
  8
0
  0
POLYLINE
  5
174
  8
0
 66
     1
 10
0.0
 20
0.0
 30
0.0
  0
VERTEX
  5
B89
  8
0
 10
1913.4250655306009
 20
914.25301912875204
 30
0.0
  0
VERTEX
  5
B8A
  8
0
 10
1908.6791691505671
 20
909.72395496225295
 30
0.0
 42
-0.4142135623730951
  0
VERTEX
  5
B8B
  8
0
 10
1929.879169150568
 20
888.52395496225324
 30
0.0
  0
VERTEX
  5
B8C
  8
0
 10
1929.8791691505669
 20
878.52395496225267
 30
0.0
 42
-0.4142135623730951
  0
VERTEX
  5
B8D
  8
0
 10
1908.6791691505671
 20
857.32395496225331
 30
0.0
  0
VERTEX
  5
B8E
  8
0
 10
1868.979169150567
 20
857.32395496225331
 30
0.0
  0
VERTEX
  5
B8F
  8
0
 10
1648.6556397388031
 20
739.81807260931214
 30
0.0
 42
-0.5661903789690596
  0
VERTEX
  5
B90
  8
0
 10
1617.479169150567
 20
758.52395496225324
 30
0.0
  0
VERTEX
  5
B91
  8
0
 10
1617.479169150567
 20
888.52395496225381
 30
0.0
 42
-0.4142135623730951
  0
VERTEX
  5
B92
  8
0
 10
1638.679169150568
 20
909.72395496225363
 30
0.0
  0
VERTEX
  5
B93
  8
0
 10
1908.6791691505671
 20
909.72395496225295
 30
0.0
  0
VERTEX
  5
B94
  8
0
 10
1908.6791691505671
 20
914.99695815141422
 30
0.0
  0
SEQEND
  5
B95
  8
0
  0
POLYLINE
  5
175
  8
0
 66
     1
 10
0.0
 20
0.0
 30
0.0
  0
VERTEX
  5
B96
  8
0
 10
1878.6791691505671
 20
968.03696504135166
 30
0.0
  0
VERTEX
  5
B97
  8
0
 10
1878.6791691505671
 20
959.2369650413516
 30
0.0
 42
0.4142135623730951
  0
VERTEX
  5
B98
  8
0
 10
1887.4791691505679
 20
968.03696504135166
 30
0.0
  0
VERTEX
  5
B99
  8
0
 10
1887.479169150567
 20
1018.036965041351
 30
0.0
 42
0.5661903789690606
  0
VERTEX
  5
B9A
  8
0
 10
1874.537992679979
 20
1025.801670923704
 30
0.0
  0
VERTEX
  5
B9B
  8
0
 10
1780.787992679979
 20
975.80167092370561
 30
0.0
 42
0.7807764064044145
  0
VERTEX
  5
B9C
  8
0
 10
1784.9291691505671
 20
959.23696504135228
 30
0.0
  0
VERTEX
  5
B9D
  8
0
 10
1878.6791691505671
 20
959.2369650413516
 30
0.0
  0
VERTEX
  5
B9E
  8
0
 10
1874.1543138351869
 20
965.93996819431925
 30
0.0
  0
SEQEND
  5
B9F
  8
0
  0
POLYLINE
  5
176
  8
0
 66
     1
 10
0.0
 20
0.0
 30
0.0
  0
VERTEX
  5
BA0
  8
0
 10
1895.6536549269611
 20
1090.2954725084669
 30
0.0
  0
VERTEX
  5
BA1
  8
0
 10
1898.7026985623311
 20
1086.742847394293
 30
0.0
 42
-0.5661903789690609
  0
VERTEX
  5
BA2
  8
0
 10
1929.8791691505669
 20
1068.036965041352
 30
0.0
  0
VERTEX
  5
BA3
  8
0
 10
1929.8791691505669
 20
938.03696504135235
 30
0.0
 42
-0.4142135623730951
  0
VERTEX
  5
BA4
  8
0
 10
1908.6791691505671
 20
916.83696504135196
 30
0.0
  0
VERTEX
  5
BA5
  8
0
 10
1638.679169150568
 20
916.83696504135196
 30
0.0
 42
-0.4142135623730951
  0
VERTEX
  5
BA6
  8
0
 10
1617.479169150567
 20
938.03696504135235
 30
0.0
  0
VERTEX
  5
BA7
  8
0
 10
1617.479169150567
 20
948.03696504135235
 30
0.0
 42
-0.4142135623730951
  0
VERTEX
  5
BA8
  8
0
 10
1638.679169150568
 20
969.23696504135228
 30
0.0
  0
VERTEX
  5
BA9
  8
0
 10
1678.379169150568
 20
969.23696504135228
 30
0.0
  0
VERTEX
  5
BAA
  8
0
 10
1898.7026985623311
 20
1086.742847394293
 30
0.0
  0
VERTEX
  5
BAB
  8
0
 10
1893.6180265380081
 20
1088.555215013452
 30
0.0
  0
SEQEND
  5
BAC
  8
0
  0
POLYLINE
  5
177
  8
0
 66
     1
 10
0.0
 20
0.0
 30
0.0
  0
VERTEX
  5
BAD
  8
0
 10
1668.679169150568
 20
1093.633181739013
 30
0.0
  0
VERTEX
  5
BAE
  8
0
 10
1668.679169150568
 20
1102.433181739013
 30
0.0
 42
0.4142135623730951
  0
VERTEX
  5
BAF
  8
0
 10
1659.879169150566
 20
1093.633181739013
 30
0.0
  0
VERTEX
  5
BB0
  8
0
 10
1659.879169150566
 20
1043.633181739013
 30
0.0
 42
0.5661903789690596
  0
VERTEX
  5
BB1
  8
0
 10
1672.8203456211561
 20
1035.8684758566601
 30
0.0
  0
VERTEX
  5
BB2
  8
0
 10
1766.5703456211561
 20
1085.8684758566601
 30
0.0
 42
0.7807764064044159
  0
VERTEX
  5
BB3
  8
0
 10
1762.4291691505671
 20
1102.433181739013
 30
0.0
  0
VERTEX
  5
BB4
  8
0
 10
1668.679169150568
 20
1102.433181739013
 30
0.0
  0
VERTEX
  5
BB5
  8
0
 10
1672.8448080572221
 20
1094.9809802583891
 30
0.0
  0
SEQEND
  5
BB6
  8
0
  0
POLYLINE
  5
178
  8
0
 66
     1
 10
0.0
 20
0.0
 30
0.0
  0
VERTEX
  5
BB7
  8
0
 10
1913.4250655306009
 20
1149.3622459055109
 30
0.0
  0
VERTEX
  5
BB8
  8
0
 10
1908.6791691505671
 20
1144.8331817390131
 30
0.0
 42
-0.4142135623730951
  0
VERTEX
  5
BB9
  8
0
 10
1929.879169150568
 20
1123.633181739013
 30
0.0
  0
VERTEX
  5
BBA
  8
0
 10
1929.8791691505669
 20
1113.6331817390119
 30
0.0
 42
-0.4142135623730951
  0
VERTEX
  5
BBB
  8
0
 10
1908.6791691505671
 20
1092.4331817390121
 30
0.0
  0
VERTEX
  5
BBC
  8
0
 10
1868.979169150567
 20
1092.4331817390121
 30
0.0
  0
VERTEX
  5
BBD
  8
0
 10
1648.6556397388031
 20
974.92729938607135
 30
0.0
 42
-0.5661903789690596
  0
VERTEX
  5
BBE
  8
0
 10
1617.479169150567
 20
993.63318173901291
 30
0.0
  0
VERTEX
  5
BBF
  8
0
 10
1617.479169150567
 20
1123.633181739013
 30
0.0
 42
-0.4142135623730951
  0
VERTEX
  5
BC0
  8
0
 10
1638.679169150568
 20
1144.8331817390131
 30
0.0
  0
VERTEX
  5
BC1
  8
0
 10
1908.6791691505671
 20
1144.8331817390119
 30
0.0
  0
VERTEX
  5
BC2
  8
0
 10
1908.6791691505671
 20
1150.106184928173
 30
0.0
  0
SEQEND
  5
BC3
  8
0
  0
POLYLINE
  5
179
  8
0
 66
     1
 10
0.0
 20
0.0
 30
0.0
  0
VERTEX
  5
BC4
  8
0
 10
1878.6791691505671
 20
1202.8509650757071
 30
0.0
  0
VERTEX
  5
BC5
  8
0
 10
1878.6791691505671
 20
1194.0509650757081
 30
0.0
 42
0.4142135623730951
  0
VERTEX
  5
BC6
  8
0
 10
1887.4791691505679
 20
1202.8509650757071
 30
0.0
  0
VERTEX
  5
BC7
  8
0
 10
1887.479169150567
 20
1252.850965075708
 30
0.0
 42
0.5661903789690606
  0
VERTEX
  5
BC8
  8
0
 10
1874.537992679979
 20
1260.61567095806
 30
0.0
  0
VERTEX
  5
BC9
  8
0
 10
1780.787992679979
 20
1210.61567095806
 30
0.0
 42
0.7807764064044145
  0
VERTEX
  5
BCA
  8
0
 10
1784.9291691505671
 20
1194.0509650757081
 30
0.0
  0
VERTEX
  5
BCB
  8
0
 10
1878.6791691505671
 20
1194.0509650757081
 30
0.0
  0
VERTEX
  5
BCC
  8
0
 10
1874.1543138351869
 20
1200.753968228674
 30
0.0
  0
SEQEND
  5
BCD
  8
0
  0
POLYLINE
  5
17A
  8
0
 66
     1
 10
0.0
 20
0.0
 30
0.0
  0
VERTEX
  5
BCE
  8
0
 10
1895.6536549269611
 20
1325.1094725428241
 30
0.0
  0
VERTEX
  5
BCF
  8
0
 10
1898.7026985623311
 20
1321.556847428649
 30
0.0
 42
-0.5661903789690609
  0
VERTEX
  5
BD0
  8
0
 10
1929.8791691505669
 20
1302.8509650757071
 30
0.0
  0
VERTEX
  5
BD1
  8
0
 10
1929.8791691505669
 20
1172.8509650757071
 30
0.0
 42
-0.4142135623730951
  0
VERTEX
  5
BD2
  8
0
 10
1908.6791691505671
 20
1151.6509650757071
 30
0.0
  0
VERTEX
  5
BD3
  8
0
 10
1638.679169150568
 20
1151.6509650757071
 30
0.0
 42
-0.4142135623730951
  0
VERTEX
  5
BD4
  8
0
 10
1617.479169150567
 20
1172.850965075708
 30
0.0
  0
VERTEX
  5
BD5
  8
0
 10
1617.479169150567
 20
1182.850965075708
 30
0.0
 42
-0.4142135623730951
  0
VERTEX
  5
BD6
  8
0
 10
1638.679169150568
 20
1204.0509650757081
 30
0.0
  0
VERTEX
  5
BD7
  8
0
 10
1678.379169150568
 20
1204.0509650757081
 30
0.0
  0
VERTEX
  5
BD8
  8
0
 10
1898.7026985623311
 20
1321.556847428649
 30
0.0
  0
VERTEX
  5
BD9
  8
0
 10
1893.6180265380081
 20
1323.3692150478071
 30
0.0
  0
SEQEND
  5
BDA
  8
0
  0
POLYLINE
  5
17B
  8
0
 66
     1
 10
0.0
 20
0.0
 30
0.0
  0
VERTEX
  5
BDB
  8
0
 10
1668.679169150568
 20
1328.447181773369
 30
0.0
  0
VERTEX
  5
BDC
  8
0
 10
1668.679169150568
 20
1337.2471817733681
 30
0.0
 42
0.4142135623730951
  0
VERTEX
  5
BDD
  8
0
 10
1659.879169150566
 20
1328.447181773369
 30
0.0
  0
VERTEX
  5
BDE
  8
0
 10
1659.879169150566
 20
1278.4471817733679
 30
0.0
 42
0.5661903789690596
  0
VERTEX
  5
BDF
  8
0
 10
1672.8203456211561
 20
1270.6824758910161
 30
0.0
  0
VERTEX
  5
BE0
  8
0
 10
1766.5703456211561
 20
1320.6824758910161
 30
0.0
 42
0.7807764064044159
  0
VERTEX
  5
BE1
  8
0
 10
1762.4291691505671
 20
1337.2471817733681
 30
0.0
  0
VERTEX
  5
BE2
  8
0
 10
1668.679169150568
 20
1337.247181773369
 30
0.0
  0
VERTEX
  5
BE3
  8
0
 10
1672.8448080572221
 20
1329.794980292744
 30
0.0
  0
SEQEND
  5
BE4
  8
0
  0
POLYLINE
  5
17C
  8
0
 66
     1
 10
0.0
 20
0.0
 30
0.0
  0
VERTEX
  5
BE5
  8
0
 10
1913.4250655306009
 20
1384.1762459398681
 30
0.0
  0
VERTEX
  5
BE6
  8
0
 10
1908.6791691505671
 20
1379.6471817733679
 30
0.0
 42
-0.4142135623730951
  0
VERTEX
  5
BE7
  8
0
 10
1929.879169150568
 20
1358.4471817733679
 30
0.0
  0
VERTEX
  5
BE8
  8
0
 10
1929.8791691505669
 20
1348.4471817733679
 30
0.0
 42
-0.4142135623730951
  0
VERTEX
  5
BE9
  8
0
 10
1908.6791691505671
 20
1327.2471817733681
 30
0.0
  0
VERTEX
  5
BEA
  8
0
 10
1868.979169150567
 20
1327.2471817733681
 30
0.0
  0
VERTEX
  5
BEB
  8
0
 10
1648.6556397388031
 20
1209.7412994204269
 30
0.0
 42
-0.5661903789690596
  0
VERTEX
  5
BEC
  8
0
 10
1617.479169150567
 20
1228.447181773369
 30
0.0
  0
VERTEX
  5
BED
  8
0
 10
1617.479169150567
 20
1358.447181773369
 30
0.0
 42
-0.4142135623730951
  0
VERTEX
  5
BEE
  8
0
 10
1638.679169150568
 20
1379.6471817733679
 30
0.0
  0
VERTEX
  5
BEF
  8
0
 10
1908.6791691505671
 20
1379.6471817733679
 30
0.0
  0
VERTEX
  5
BF0
  8
0
 10
1908.6791691505671
 20
1384.920184962529
 30
0.0
  0
SEQEND
  5
BF1
  8
0
  0
POLYLINE
  5
185
  8
0
 66
     1
 10
0.0
 20
0.0
 30
0.0
  0
VERTEX
  5
BF2
  8
0
 10
1559.9021759918221
 20
495.92773826459239
 30
0.0
  0
VERTEX
  5
BF3
  8
0
 10
1559.9021759918221
 20
487.12773826459261
 30
0.0
 42
0.4142135623730951
  0
VERTEX
  5
BF4
  8
0
 10
1568.702175991823
 20
495.92773826459239
 30
0.0
  0
VERTEX
  5
BF5
  8
0
 10
1568.702175991823
 20
545.92773826459245
 30
0.0
 42
0.5661903789690591
  0
VERTEX
  5
BF6
  8
0
 10
1555.7609995212349
 20
553.69244414694515
 30
0.0
  0
VERTEX
  5
BF7
  8
0
 10
1462.0109995212349
 20
503.69244414694572
 30
0.0
 42
0.7807764064044159
  0
VERTEX
  5
BF8
  8
0
 10
1466.1521759918221
 20
487.12773826459272
 30
0.0
  0
VERTEX
  5
BF9
  8
0
 10
1559.9021759918221
 20
487.12773826459261
 30
0.0
  0
VERTEX
  5
BFA
  8
0
 10
1555.377320676442
 20
493.83074141755958
 30
0.0
  0
SEQEND
  5
BFB
  8
0
  0
POLYLINE
  5
186
  8
0
 66
     1
 10
0.0
 20
0.0
 30
0.0
  0
VERTEX
  5
BFC
  8
0
 10
1576.876661768217
 20
618.18624573170825
 30
0.0
  0
VERTEX
  5
BFD
  8
0
 10
1579.9257054035879
 20
614.63362061753412
 30
0.0
 42
-0.5661903789690599
  0
VERTEX
  5
BFE
  8
0
 10
1611.1021759918219
 20
595.9277382645929
 30
0.0
  0
VERTEX
  5
BFF
  8
0
 10
1611.1021759918219
 20
465.92773826459268
 30
0.0
 42
-0.4142135623730951
  0
VERTEX
  5
C00
  8
0
 10
1589.9021759918221
 20
444.72773826459257
 30
0.0
  0
VERTEX
  5
C01
  8
0
 10
1319.902175991823
 20
444.72773826459269
 30
0.0
 42
-0.4142135623730951
  0
VERTEX
  5
C02
  8
0
 10
1298.702175991823
 20
465.9277382645929
 30
0.0
  0
VERTEX
  5
C03
  8
0
 10
1298.702175991823
 20
475.9277382645929
 30
0.0
 42
-0.4142135623730951
  0
VERTEX
  5
C04
  8
0
 10
1319.902175991823
 20
497.12773826459278
 30
0.0
  0
VERTEX
  5
C05
  8
0
 10
1359.602175991824
 20
497.12773826459278
 30
0.0
  0
VERTEX
  5
C06
  8
0
 10
1579.9257054035879
 20
614.63362061753412
 30
0.0
  0
VERTEX
  5
C07
  8
0
 10
1574.8410333792631
 20
616.44598823669276
 30
0.0
  0
SEQEND
  5
C08
  8
0
  0
POLYLINE
  5
187
  8
0
 66
     1
 10
0.0
 20
0.0
 30
0.0
  0
VERTEX
  5
C09
  8
0
 10
1349.902175991823
 20
621.5239549622537
 30
0.0
  0
VERTEX
  5
C0A
  8
0
 10
1349.902175991823
 20
630.32395496225377
 30
0.0
 42
0.4142135623730951
  0
VERTEX
  5
C0B
  8
0
 10
1341.1021759918231
 20
621.5239549622537
 30
0.0
  0
VERTEX
  5
C0C
  8
0
 10
1341.1021759918231
 20
571.52395496225415
 30
0.0
 42
0.5661903789690586
  0
VERTEX
  5
C0D
  8
0
 10
1354.04335246241
 20
563.75924907990122
 30
0.0
  0
VERTEX
  5
C0E
  8
0
 10
1447.7933524624109
 20
613.75924907990077
 30
0.0
 42
0.7807764064044171
  0
VERTEX
  5
C0F
  8
0
 10
1443.6521759918221
 20
630.32395496225354
 30
0.0
  0
VERTEX
  5
C10
  8
0
 10
1349.902175991823
 20
630.32395496225422
 30
0.0
  0
VERTEX
  5
C11
  8
0
 10
1354.0678148984771
 20
622.87175348162975
 30
0.0
  0
SEQEND
  5
C12
  8
0
  0
POLYLINE
  5
188
  8
0
 66
     1
 10
0.0
 20
0.0
 30
0.0
  0
VERTEX
  5
C13
  8
0
 10
1594.6480723718571
 20
677.25301912875238
 30
0.0
  0
VERTEX
  5
C14
  8
0
 10
1589.9021759918221
 20
672.72395496225329
 30
0.0
 42
-0.4142135623730951
  0
VERTEX
  5
C15
  8
0
 10
1611.102175991824
 20
651.52395496225336
 30
0.0
  0
VERTEX
  5
C16
  8
0
 10
1611.1021759918219
 20
641.52395496225301
 30
0.0
 42
-0.4142135623730951
  0
VERTEX
  5
C17
  8
0
 10
1589.9021759918221
 20
620.32395496225331
 30
0.0
  0
VERTEX
  5
C18
  8
0
 10
1550.202175991823
 20
620.32395496225331
 30
0.0
  0
VERTEX
  5
C19
  8
0
 10
1329.8786465800581
 20
502.81807260931203
 30
0.0
 42
-0.5661903789690586
  0
VERTEX
  5
C1A
  8
0
 10
1298.702175991823
 20
521.5239549622537
 30
0.0
  0
VERTEX
  5
C1B
  8
0
 10
1298.702175991823
 20
651.52395496225392
 30
0.0
 42
-0.4142135623730951
  0
VERTEX
  5
C1C
  8
0
 10
1319.902175991823
 20
672.72395496225374
 30
0.0
  0
VERTEX
  5
C1D
  8
0
 10
1589.9021759918221
 20
672.72395496225329
 30
0.0
  0
VERTEX
  5
C1E
  8
0
 10
1589.9021759918221
 20
677.99695815141411
 30
0.0
  0
SEQEND
  5
C1F
  8
0
  0
POLYLINE
  5
189
  8
0
 66
     1
 10
0.0
 20
0.0
 30
0.0
  0
VERTEX
  5
C20
  8
0
 10
1559.9021759918221
 20
732.92773826459245
 30
0.0
  0
VERTEX
  5
C21
  8
0
 10
1559.9021759918221
 20
724.12773826459238
 30
0.0
 42
0.4142135623730951
  0
VERTEX
  5
C22
  8
0
 10
1568.702175991823
 20
732.92773826459245
 30
0.0
  0
VERTEX
  5
C23
  8
0
 10
1568.702175991823
 20
782.92773826459245
 30
0.0
 42
0.5661903789690606
  0
VERTEX
  5
C24
  8
0
 10
1555.7609995212349
 20
790.69244414694515
 30
0.0
  0
VERTEX
  5
C25
  8
0
 10
1462.0109995212349
 20
740.6924441469456
 30
0.0
 42
0.7807764064044145
  0
VERTEX
  5
C26
  8
0
 10
1466.1521759918221
 20
724.12773826459238
 30
0.0
  0
VERTEX
  5
C27
  8
0
 10
1559.9021759918221
 20
724.12773826459238
 30
0.0
  0
VERTEX
  5
C28
  8
0
 10
1555.377320676442
 20
730.83074141755969
 30
0.0
  0
SEQEND
  5
C29
  8
0
  0
POLYLINE
  5
18A
  8
0
 66
     1
 10
0.0
 20
0.0
 30
0.0
  0
VERTEX
  5
C2A
  8
0
 10
1576.876661768217
 20
855.18624573170871
 30
0.0
  0
VERTEX
  5
C2B
  8
0
 10
1579.9257054035879
 20
851.63362061753423
 30
0.0
 42
-0.5661903789690609
  0
VERTEX
  5
C2C
  8
0
 10
1611.1021759918219
 20
832.92773826459279
 30
0.0
  0
VERTEX
  5
C2D
  8
0
 10
1611.1021759918219
 20
702.92773826459268
 30
0.0
 42
-0.4142135623730951
  0
VERTEX
  5
C2E
  8
0
 10
1589.9021759918221
 20
681.72773826459252
 30
0.0
  0
VERTEX
  5
C2F
  8
0
 10
1319.902175991823
 20
681.72773826459274
 30
0.0
 42
-0.4142135623730951
  0
VERTEX
  5
C30
  8
0
 10
1298.702175991823
 20
702.92773826459268
 30
0.0
  0
VERTEX
  5
C31
  8
0
 10
1298.702175991823
 20
712.92773826459279
 30
0.0
 42
-0.4142135623730951
  0
VERTEX
  5
C32
  8
0
 10
1319.902175991823
 20
734.12773826459295
 30
0.0
  0
VERTEX
  5
C33
  8
0
 10
1359.602175991824
 20
734.12773826459295
 30
0.0
  0
VERTEX
  5
C34
  8
0
 10
1579.9257054035879
 20
851.63362061753423
 30
0.0
  0
VERTEX
  5
C35
  8
0
 10
1574.8410333792631
 20
853.44598823669276
 30
0.0
  0
SEQEND
  5
C36
  8
0
  0
POLYLINE
  5
18B
  8
0
 66
     1
 10
0.0
 20
0.0
 30
0.0
  0
VERTEX
  5
C37
  8
0
 10
1349.902175991823
 20
858.52395496225392
 30
0.0
  0
VERTEX
  5
C38
  8
0
 10
1349.902175991823
 20
867.32395496225377
 30
0.0
 42
0.4142135623730951
  0
VERTEX
  5
C39
  8
0
 10
1341.1021759918231
 20
858.52395496225392
 30
0.0
  0
VERTEX
  5
C3A
  8
0
 10
1341.1021759918231
 20
808.52395496225404
 30
0.0
 42
0.5661903789690596
  0
VERTEX
  5
C3B
  8
0
 10
1354.04335246241
 20
800.75924907990066
 30
0.0
  0
VERTEX
  5
C3C
  8
0
 10
1447.7933524624109
 20
850.75924907990054
 30
0.0
 42
0.7807764064044159
  0
VERTEX
  5
C3D
  8
0
 10
1443.6521759918221
 20
867.32395496225377
 30
0.0
  0
VERTEX
  5
C3E
  8
0
 10
1349.902175991823
 20
867.32395496225411
 30
0.0
  0
VERTEX
  5
C3F
  8
0
 10
1354.0678148984771
 20
859.87175348162907
 30
0.0
  0
SEQEND
  5
C40
  8
0
  0
POLYLINE
  5
18C
  8
0
 66
     1
 10
0.0
 20
0.0
 30
0.0
  0
VERTEX
  5
C41
  8
0
 10
1594.6480723718571
 20
914.25301912875204
 30
0.0
  0
VERTEX
  5
C42
  8
0
 10
1589.9021759918221
 20
909.72395496225295
 30
0.0
 42
-0.4142135623730951
  0
VERTEX
  5
C43
  8
0
 10
1611.102175991824
 20
888.52395496225324
 30
0.0
  0
VERTEX
  5
C44
  8
0
 10
1611.1021759918219
 20
878.52395496225267
 30
0.0
 42
-0.4142135623730951
  0
VERTEX
  5
C45
  8
0
 10
1589.9021759918221
 20
857.32395496225331
 30
0.0
  0
VERTEX
  5
C46
  8
0
 10
1550.202175991823
 20
857.32395496225331
 30
0.0
  0
VERTEX
  5
C47
  8
0
 10
1329.8786465800581
 20
739.81807260931214
 30
0.0
 42
-0.5661903789690596
  0
VERTEX
  5
C48
  8
0
 10
1298.702175991823
 20
758.52395496225324
 30
0.0
  0
VERTEX
  5
C49
  8
0
 10
1298.702175991823
 20
888.52395496225381
 30
0.0
 42
-0.4142135623730951
  0
VERTEX
  5
C4A
  8
0
 10
1319.902175991823
 20
909.72395496225363
 30
0.0
  0
VERTEX
  5
C4B
  8
0
 10
1589.9021759918221
 20
909.72395496225295
 30
0.0
  0
VERTEX
  5
C4C
  8
0
 10
1589.9021759918221
 20
914.99695815141422
 30
0.0
  0
SEQEND
  5
C4D
  8
0
  0
POLYLINE
  5
18D
  8
0
 66
     1
 10
0.0
 20
0.0
 30
0.0
  0
VERTEX
  5
C4E
  8
0
 10
1559.9021759918221
 20
968.03696504135166
 30
0.0
  0
VERTEX
  5
C4F
  8
0
 10
1559.9021759918221
 20
959.2369650413516
 30
0.0
 42
0.4142135623730951
  0
VERTEX
  5
C50
  8
0
 10
1568.702175991823
 20
968.03696504135166
 30
0.0
  0
VERTEX
  5
C51
  8
0
 10
1568.702175991823
 20
1018.036965041351
 30
0.0
 42
0.5661903789690606
  0
VERTEX
  5
C52
  8
0
 10
1555.7609995212349
 20
1025.801670923704
 30
0.0
  0
VERTEX
  5
C53
  8
0
 10
1462.0109995212349
 20
975.80167092370561
 30
0.0
 42
0.7807764064044145
  0
VERTEX
  5
C54
  8
0
 10
1466.1521759918221
 20
959.23696504135228
 30
0.0
  0
VERTEX
  5
C55
  8
0
 10
1559.9021759918221
 20
959.2369650413516
 30
0.0
  0
VERTEX
  5
C56
  8
0
 10
1555.377320676442
 20
965.93996819431925
 30
0.0
  0
SEQEND
  5
C57
  8
0
  0
POLYLINE
  5
18E
  8
0
 66
     1
 10
0.0
 20
0.0
 30
0.0
  0
VERTEX
  5
C58
  8
0
 10
1576.876661768217
 20
1090.2954725084669
 30
0.0
  0
VERTEX
  5
C59
  8
0
 10
1579.9257054035879
 20
1086.742847394293
 30
0.0
 42
-0.5661903789690609
  0
VERTEX
  5
C5A
  8
0
 10
1611.1021759918219
 20
1068.036965041352
 30
0.0
  0
VERTEX
  5
C5B
  8
0
 10
1611.1021759918219
 20
938.03696504135235
 30
0.0
 42
-0.4142135623730951
  0
VERTEX
  5
C5C
  8
0
 10
1589.9021759918221
 20
916.83696504135196
 30
0.0
  0
VERTEX
  5
C5D
  8
0
 10
1319.902175991823
 20
916.83696504135196
 30
0.0
 42
-0.4142135623730951
  0
VERTEX
  5
C5E
  8
0
 10
1298.702175991823
 20
938.03696504135235
 30
0.0
  0
VERTEX
  5
C5F
  8
0
 10
1298.702175991823
 20
948.03696504135235
 30
0.0
 42
-0.4142135623730951
  0
VERTEX
  5
C60
  8
0
 10
1319.902175991823
 20
969.23696504135228
 30
0.0
  0
VERTEX
  5
C61
  8
0
 10
1359.602175991824
 20
969.23696504135228
 30
0.0
  0
VERTEX
  5
C62
  8
0
 10
1579.9257054035879
 20
1086.742847394293
 30
0.0
  0
VERTEX
  5
C63
  8
0
 10
1574.8410333792631
 20
1088.555215013452
 30
0.0
  0
SEQEND
  5
C64
  8
0
  0
POLYLINE
  5
18F
  8
0
 66
     1
 10
0.0
 20
0.0
 30
0.0
  0
VERTEX
  5
C65
  8
0
 10
1349.902175991823
 20
1093.633181739013
 30
0.0
  0
VERTEX
  5
C66
  8
0
 10
1349.902175991823
 20
1102.433181739013
 30
0.0
 42
0.4142135623730951
  0
VERTEX
  5
C67
  8
0
 10
1341.1021759918231
 20
1093.633181739013
 30
0.0
  0
VERTEX
  5
C68
  8
0
 10
1341.1021759918231
 20
1043.633181739013
 30
0.0
 42
0.5661903789690596
  0
VERTEX
  5
C69
  8
0
 10
1354.04335246241
 20
1035.8684758566601
 30
0.0
  0
VERTEX
  5
C6A
  8
0
 10
1447.7933524624109
 20
1085.8684758566601
 30
0.0
 42
0.7807764064044159
  0
VERTEX
  5
C6B
  8
0
 10
1443.6521759918221
 20
1102.433181739013
 30
0.0
  0
VERTEX
  5
C6C
  8
0
 10
1349.902175991823
 20
1102.433181739013
 30
0.0
  0
VERTEX
  5
C6D
  8
0
 10
1354.0678148984771
 20
1094.9809802583891
 30
0.0
  0
SEQEND
  5
C6E
  8
0
  0
POLYLINE
  5
190
  8
0
 66
     1
 10
0.0
 20
0.0
 30
0.0
  0
VERTEX
  5
C6F
  8
0
 10
1594.6480723718571
 20
1149.3622459055109
 30
0.0
  0
VERTEX
  5
C70
  8
0
 10
1589.9021759918221
 20
1144.8331817390131
 30
0.0
 42
-0.4142135623730951
  0
VERTEX
  5
C71
  8
0
 10
1611.102175991824
 20
1123.633181739013
 30
0.0
  0
VERTEX
  5
C72
  8
0
 10
1611.1021759918219
 20
1113.6331817390119
 30
0.0
 42
-0.4142135623730951
  0
VERTEX
  5
C73
  8
0
 10
1589.9021759918221
 20
1092.4331817390121
 30
0.0
  0
VERTEX
  5
C74
  8
0
 10
1550.202175991823
 20
1092.4331817390121
 30
0.0
  0
VERTEX
  5
C75
  8
0
 10
1329.8786465800581
 20
974.92729938607135
 30
0.0
 42
-0.5661903789690596
  0
VERTEX
  5
C76
  8
0
 10
1298.702175991823
 20
993.63318173901291
 30
0.0
  0
VERTEX
  5
C77
  8
0
 10
1298.702175991823
 20
1123.633181739013
 30
0.0
 42
-0.4142135623730951
  0
VERTEX
  5
C78
  8
0
 10
1319.902175991823
 20
1144.8331817390131
 30
0.0
  0
VERTEX
  5
C79
  8
0
 10
1589.9021759918221
 20
1144.8331817390119
 30
0.0
  0
VERTEX
  5
C7A
  8
0
 10
1589.9021759918221
 20
1150.106184928173
 30
0.0
  0
SEQEND
  5
C7B
  8
0
  0
POLYLINE
  5
191
  8
0
 66
     1
 10
0.0
 20
0.0
 30
0.0
  0
VERTEX
  5
C7C
  8
0
 10
1559.9021759918221
 20
1202.8509650757071
 30
0.0
  0
VERTEX
  5
C7D
  8
0
 10
1559.9021759918221
 20
1194.0509650757081
 30
0.0
 42
0.4142135623730951
  0
VERTEX
  5
C7E
  8
0
 10
1568.702175991823
 20
1202.8509650757071
 30
0.0
  0
VERTEX
  5
C7F
  8
0
 10
1568.702175991823
 20
1252.850965075708
 30
0.0
 42
0.5661903789690606
  0
VERTEX
  5
C80
  8
0
 10
1555.7609995212349
 20
1260.61567095806
 30
0.0
  0
VERTEX
  5
C81
  8
0
 10
1462.0109995212349
 20
1210.61567095806
 30
0.0
 42
0.7807764064044145
  0
VERTEX
  5
C82
  8
0
 10
1466.1521759918221
 20
1194.0509650757081
 30
0.0
  0
VERTEX
  5
C83
  8
0
 10
1559.9021759918221
 20
1194.0509650757081
 30
0.0
  0
VERTEX
  5
C84
  8
0
 10
1555.377320676442
 20
1200.753968228674
 30
0.0
  0
SEQEND
  5
C85
  8
0
  0
POLYLINE
  5
192
  8
0
 66
     1
 10
0.0
 20
0.0
 30
0.0
  0
VERTEX
  5
C86
  8
0
 10
1576.876661768217
 20
1325.1094725428241
 30
0.0
  0
VERTEX
  5
C87
  8
0
 10
1579.9257054035879
 20
1321.556847428649
 30
0.0
 42
-0.5661903789690609
  0
VERTEX
  5
C88
  8
0
 10
1611.1021759918219
 20
1302.8509650757071
 30
0.0
  0
VERTEX
  5
C89
  8
0
 10
1611.1021759918219
 20
1172.8509650757071
 30
0.0
 42
-0.4142135623730951
  0
VERTEX
  5
C8A
  8
0
 10
1589.9021759918221
 20
1151.6509650757071
 30
0.0
  0
VERTEX
  5
C8B
  8
0
 10
1319.902175991823
 20
1151.6509650757071
 30
0.0
 42
-0.4142135623730951
  0
VERTEX
  5
C8C
  8
0
 10
1298.702175991823
 20
1172.850965075708
 30
0.0
  0
VERTEX
  5
C8D
  8
0
 10
1298.702175991823
 20
1182.850965075708
 30
0.0
 42
-0.4142135623730951
  0
VERTEX
  5
C8E
  8
0
 10
1319.902175991823
 20
1204.0509650757081
 30
0.0
  0
VERTEX
  5
C8F
  8
0
 10
1359.602175991824
 20
1204.0509650757081
 30
0.0
  0
VERTEX
  5
C90
  8
0
 10
1579.9257054035879
 20
1321.556847428649
 30
0.0
  0
VERTEX
  5
C91
  8
0
 10
1574.8410333792631
 20
1323.3692150478071
 30
0.0
  0
SEQEND
  5
C92
  8
0
  0
POLYLINE
  5
193
  8
0
 66
     1
 10
0.0
 20
0.0
 30
0.0
  0
VERTEX
  5
C93
  8
0
 10
1349.902175991823
 20
1328.447181773369
 30
0.0
  0
VERTEX
  5
C94
  8
0
 10
1349.902175991823
 20
1337.2471817733681
 30
0.0
 42
0.4142135623730951
  0
VERTEX
  5
C95
  8
0
 10
1341.1021759918231
 20
1328.447181773369
 30
0.0
  0
VERTEX
  5
C96
  8
0
 10
1341.1021759918231
 20
1278.4471817733679
 30
0.0
 42
0.5661903789690596
  0
VERTEX
  5
C97
  8
0
 10
1354.04335246241
 20
1270.6824758910161
 30
0.0
  0
VERTEX
  5
C98
  8
0
 10
1447.7933524624109
 20
1320.6824758910161
 30
0.0
 42
0.7807764064044159
  0
VERTEX
  5
C99
  8
0
 10
1443.6521759918221
 20
1337.2471817733681
 30
0.0
  0
VERTEX
  5
C9A
  8
0
 10
1349.902175991823
 20
1337.247181773369
 30
0.0
  0
VERTEX
  5
C9B
  8
0
 10
1354.0678148984771
 20
1329.794980292744
 30
0.0
  0
SEQEND
  5
C9C
  8
0
  0
POLYLINE
  5
194
  8
0
 66
     1
 10
0.0
 20
0.0
 30
0.0
  0
VERTEX
  5
C9D
  8
0
 10
1594.6480723718571
 20
1384.1762459398681
 30
0.0
  0
VERTEX
  5
C9E
  8
0
 10
1589.9021759918221
 20
1379.6471817733679
 30
0.0
 42
-0.4142135623730951
  0
VERTEX
  5
C9F
  8
0
 10
1611.102175991824
 20
1358.4471817733679
 30
0.0
  0
VERTEX
  5
CA0
  8
0
 10
1611.1021759918219
 20
1348.4471817733679
 30
0.0
 42
-0.4142135623730951
  0
VERTEX
  5
CA1
  8
0
 10
1589.9021759918221
 20
1327.2471817733681
 30
0.0
  0
VERTEX
  5
CA2
  8
0
 10
1550.202175991823
 20
1327.2471817733681
 30
0.0
  0
VERTEX
  5
CA3
  8
0
 10
1329.8786465800581
 20
1209.7412994204269
 30
0.0
 42
-0.5661903789690596
  0
VERTEX
  5
CA4
  8
0
 10
1298.702175991823
 20
1228.447181773369
 30
0.0
  0
VERTEX
  5
CA5
  8
0
 10
1298.702175991823
 20
1358.447181773369
 30
0.0
 42
-0.4142135623730951
  0
VERTEX
  5
CA6
  8
0
 10
1319.902175991823
 20
1379.6471817733679
 30
0.0
  0
VERTEX
  5
CA7
  8
0
 10
1589.9021759918221
 20
1379.6471817733679
 30
0.0
  0
VERTEX
  5
CA8
  8
0
 10
1589.9021759918221
 20
1384.920184962529
 30
0.0
  0
SEQEND
  5
CA9
  8
0
  0
POLYLINE
  5
19D
  8
0
 66
     1
 10
0.0
 20
0.0
 30
0.0
  0
VERTEX
  5
CAA
  8
0
 10
1241.5839825353819
 20
495.92773826459239
 30
0.0
  0
VERTEX
  5
CAB
  8
0
 10
1241.5839825353819
 20
487.12773826459261
 30
0.0
 42
0.4142135623730951
  0
VERTEX
  5
CAC
  8
0
 10
1250.383982535383
 20
495.92773826459239
 30
0.0
  0
VERTEX
  5
CAD
  8
0
 10
1250.383982535383
 20
545.92773826459245
 30
0.0
 42
0.5661903789690591
  0
VERTEX
  5
CAE
  8
0
 10
1237.4428060647949
 20
553.69244414694515
 30
0.0
  0
VERTEX
  5
CAF
  8
0
 10
1143.6928060647949
 20
503.69244414694572
 30
0.0
 42
0.7807764064044159
  0
VERTEX
  5
CB0
  8
0
 10
1147.8339825353819
 20
487.12773826459272
 30
0.0
  0
VERTEX
  5
CB1
  8
0
 10
1241.5839825353819
 20
487.12773826459261
 30
0.0
  0
VERTEX
  5
CB2
  8
0
 10
1237.0591272200029
 20
493.83074141755958
 30
0.0
  0
SEQEND
  5
CB3
  8
0
  0
POLYLINE
  5
19E
  8
0
 66
     1
 10
0.0
 20
0.0
 30
0.0
  0
VERTEX
  5
CB4
  8
0
 10
1258.5584683117761
 20
618.18624573170825
 30
0.0
  0
VERTEX
  5
CB5
  8
0
 10
1261.6075119471479
 20
614.63362061753412
 30
0.0
 42
-0.5661903789690599
  0
VERTEX
  5
CB6
  8
0
 10
1292.7839825353819
 20
595.9277382645929
 30
0.0
  0
VERTEX
  5
CB7
  8
0
 10
1292.7839825353819
 20
465.92773826459268
 30
0.0
 42
-0.4142135623730951
  0
VERTEX
  5
CB8
  8
0
 10
1271.5839825353819
 20
444.72773826459257
 30
0.0
  0
VERTEX
  5
CB9
  8
0
 10
1001.583982535383
 20
444.72773826459269
 30
0.0
 42
-0.4142135623730951
  0
VERTEX
  5
CBA
  8
0
 10
980.38398253538264
 20
465.9277382645929
 30
0.0
  0
VERTEX
  5
CBB
  8
0
 10
980.38398253538264
 20
475.9277382645929
 30
0.0
 42
-0.4142135623730951
  0
VERTEX
  5
CBC
  8
0
 10
1001.583982535383
 20
497.12773826459278
 30
0.0
  0
VERTEX
  5
CBD
  8
0
 10
1041.283982535384
 20
497.12773826459278
 30
0.0
  0
VERTEX
  5
CBE
  8
0
 10
1261.6075119471479
 20
614.63362061753412
 30
0.0
  0
VERTEX
  5
CBF
  8
0
 10
1256.5228399228231
 20
616.44598823669276
 30
0.0
  0
SEQEND
  5
CC0
  8
0
  0
POLYLINE
  5
19F
  8
0
 66
     1
 10
0.0
 20
0.0
 30
0.0
  0
VERTEX
  5
CC1
  8
0
 10
1031.583982535383
 20
621.5239549622537
 30
0.0
  0
VERTEX
  5
CC2
  8
0
 10
1031.583982535383
 20
630.32395496225377
 30
0.0
 42
0.4142135623730951
  0
VERTEX
  5
CC3
  8
0
 10
1022.783982535383
 20
621.5239549622537
 30
0.0
  0
VERTEX
  5
CC4
  8
0
 10
1022.783982535383
 20
571.52395496225415
 30
0.0
 42
0.5661903789690586
  0
VERTEX
  5
CC5
  8
0
 10
1035.7251590059709
 20
563.75924907990122
 30
0.0
  0
VERTEX
  5
CC6
  8
0
 10
1129.4751590059709
 20
613.75924907990077
 30
0.0
 42
0.7807764064044171
  0
VERTEX
  5
CC7
  8
0
 10
1125.3339825353819
 20
630.32395496225354
 30
0.0
  0
VERTEX
  5
CC8
  8
0
 10
1031.583982535383
 20
630.32395496225422
 30
0.0
  0
VERTEX
  5
CC9
  8
0
 10
1035.7496214420371
 20
622.87175348162975
 30
0.0
  0
SEQEND
  5
CCA
  8
0
  0
POLYLINE
  5
1A0
  8
0
 66
     1
 10
0.0
 20
0.0
 30
0.0
  0
VERTEX
  5
CCB
  8
0
 10
1276.3298789154171
 20
677.25301912875238
 30
0.0
  0
VERTEX
  5
CCC
  8
0
 10
1271.5839825353819
 20
672.72395496225329
 30
0.0
 42
-0.4142135623730951
  0
VERTEX
  5
CCD
  8
0
 10
1292.783982535384
 20
651.52395496225336
 30
0.0
  0
VERTEX
  5
CCE
  8
0
 10
1292.7839825353819
 20
641.52395496225301
 30
0.0
 42
-0.4142135623730951
  0
VERTEX
  5
CCF
  8
0
 10
1271.5839825353819
 20
620.32395496225331
 30
0.0
  0
VERTEX
  5
CD0
  8
0
 10
1231.883982535383
 20
620.32395496225331
 30
0.0
  0
VERTEX
  5
CD1
  8
0
 10
1011.560453123618
 20
502.81807260931203
 30
0.0
 42
-0.5661903789690586
  0
VERTEX
  5
CD2
  8
0
 10
980.38398253538264
 20
521.5239549622537
 30
0.0
  0
VERTEX
  5
CD3
  8
0
 10
980.38398253538264
 20
651.52395496225392
 30
0.0
 42
-0.4142135623730951
  0
VERTEX
  5
CD4
  8
0
 10
1001.583982535383
 20
672.72395496225374
 30
0.0
  0
VERTEX
  5
CD5
  8
0
 10
1271.5839825353819
 20
672.72395496225329
 30
0.0
  0
VERTEX
  5
CD6
  8
0
 10
1271.5839825353819
 20
677.99695815141411
 30
0.0
  0
SEQEND
  5
CD7
  8
0
  0
POLYLINE
  5
1A1
  8
0
 66
     1
 10
0.0
 20
0.0
 30
0.0
  0
VERTEX
  5
CD8
  8
0
 10
1241.5839825353819
 20
732.92773826459245
 30
0.0
  0
VERTEX
  5
CD9
  8
0
 10
1241.5839825353819
 20
724.12773826459238
 30
0.0
 42
0.4142135623730951
  0
VERTEX
  5
CDA
  8
0
 10
1250.383982535383
 20
732.92773826459245
 30
0.0
  0
VERTEX
  5
CDB
  8
0
 10
1250.383982535383
 20
782.92773826459245
 30
0.0
 42
0.5661903789690606
  0
VERTEX
  5
CDC
  8
0
 10
1237.4428060647949
 20
790.69244414694515
 30
0.0
  0
VERTEX
  5
CDD
  8
0
 10
1143.6928060647949
 20
740.6924441469456
 30
0.0
 42
0.7807764064044145
  0
VERTEX
  5
CDE
  8
0
 10
1147.8339825353819
 20
724.12773826459238
 30
0.0
  0
VERTEX
  5
CDF
  8
0
 10
1241.5839825353819
 20
724.12773826459238
 30
0.0
  0
VERTEX
  5
CE0
  8
0
 10
1237.0591272200029
 20
730.83074141755969
 30
0.0
  0
SEQEND
  5
CE1
  8
0
  0
POLYLINE
  5
1A2
  8
0
 66
     1
 10
0.0
 20
0.0
 30
0.0
  0
VERTEX
  5
CE2
  8
0
 10
1258.5584683117761
 20
855.18624573170871
 30
0.0
  0
VERTEX
  5
CE3
  8
0
 10
1261.6075119471479
 20
851.63362061753423
 30
0.0
 42
-0.5661903789690609
  0
VERTEX
  5
CE4
  8
0
 10
1292.7839825353819
 20
832.92773826459279
 30
0.0
  0
VERTEX
  5
CE5
  8
0
 10
1292.7839825353819
 20
702.92773826459268
 30
0.0
 42
-0.4142135623730951
  0
VERTEX
  5
CE6
  8
0
 10
1271.5839825353819
 20
681.72773826459252
 30
0.0
  0
VERTEX
  5
CE7
  8
0
 10
1001.583982535383
 20
681.72773826459274
 30
0.0
 42
-0.4142135623730951
  0
VERTEX
  5
CE8
  8
0
 10
980.38398253538264
 20
702.92773826459268
 30
0.0
  0
VERTEX
  5
CE9
  8
0
 10
980.38398253538264
 20
712.92773826459279
 30
0.0
 42
-0.4142135623730951
  0
VERTEX
  5
CEA
  8
0
 10
1001.583982535383
 20
734.12773826459295
 30
0.0
  0
VERTEX
  5
CEB
  8
0
 10
1041.283982535384
 20
734.12773826459295
 30
0.0
  0
VERTEX
  5
CEC
  8
0
 10
1261.6075119471479
 20
851.63362061753423
 30
0.0
  0
VERTEX
  5
CED
  8
0
 10
1256.5228399228231
 20
853.44598823669276
 30
0.0
  0
SEQEND
  5
CEE
  8
0
  0
POLYLINE
  5
1A3
  8
0
 66
     1
 10
0.0
 20
0.0
 30
0.0
  0
VERTEX
  5
CEF
  8
0
 10
1031.583982535383
 20
858.52395496225392
 30
0.0
  0
VERTEX
  5
CF0
  8
0
 10
1031.583982535383
 20
867.32395496225377
 30
0.0
 42
0.4142135623730951
  0
VERTEX
  5
CF1
  8
0
 10
1022.783982535383
 20
858.52395496225392
 30
0.0
  0
VERTEX
  5
CF2
  8
0
 10
1022.783982535383
 20
808.52395496225404
 30
0.0
 42
0.5661903789690596
  0
VERTEX
  5
CF3
  8
0
 10
1035.7251590059709
 20
800.75924907990066
 30
0.0
  0
VERTEX
  5
CF4
  8
0
 10
1129.4751590059709
 20
850.75924907990054
 30
0.0
 42
0.7807764064044159
  0
VERTEX
  5
CF5
  8
0
 10
1125.3339825353819
 20
867.32395496225377
 30
0.0
  0
VERTEX
  5
CF6
  8
0
 10
1031.583982535383
 20
867.32395496225411
 30
0.0
  0
VERTEX
  5
CF7
  8
0
 10
1035.7496214420371
 20
859.87175348162907
 30
0.0
  0
SEQEND
  5
CF8
  8
0
  0
POLYLINE
  5
1A4
  8
0
 66
     1
 10
0.0
 20
0.0
 30
0.0
  0
VERTEX
  5
CF9
  8
0
 10
1276.3298789154171
 20
914.25301912875204
 30
0.0
  0
VERTEX
  5
CFA
  8
0
 10
1271.5839825353819
 20
909.72395496225295
 30
0.0
 42
-0.4142135623730951
  0
VERTEX
  5
CFB
  8
0
 10
1292.783982535384
 20
888.52395496225324
 30
0.0
  0
VERTEX
  5
CFC
  8
0
 10
1292.7839825353819
 20
878.52395496225267
 30
0.0
 42
-0.4142135623730951
  0
VERTEX
  5
CFD
  8
0
 10
1271.5839825353819
 20
857.32395496225331
 30
0.0
  0
VERTEX
  5
CFE
  8
0
 10
1231.883982535383
 20
857.32395496225331
 30
0.0
  0
VERTEX
  5
CFF
  8
0
 10
1011.560453123618
 20
739.81807260931214
 30
0.0
 42
-0.5661903789690596
  0
VERTEX
  5
D00
  8
0
 10
980.38398253538264
 20
758.52395496225324
 30
0.0
  0
VERTEX
  5
D01
  8
0
 10
980.38398253538264
 20
888.52395496225381
 30
0.0
 42
-0.4142135623730951
  0
VERTEX
  5
D02
  8
0
 10
1001.583982535383
 20
909.72395496225363
 30
0.0
  0
VERTEX
  5
D03
  8
0
 10
1271.5839825353819
 20
909.72395496225295
 30
0.0
  0
VERTEX
  5
D04
  8
0
 10
1271.5839825353819
 20
914.99695815141422
 30
0.0
  0
SEQEND
  5
D05
  8
0
  0
POLYLINE
  5
1A5
  8
0
 66
     1
 10
0.0
 20
0.0
 30
0.0
  0
VERTEX
  5
D06
  8
0
 10
1241.5839825353819
 20
968.03696504135166
 30
0.0
  0
VERTEX
  5
D07
  8
0
 10
1241.5839825353819
 20
959.2369650413516
 30
0.0
 42
0.4142135623730951
  0
VERTEX
  5
D08
  8
0
 10
1250.383982535383
 20
968.03696504135166
 30
0.0
  0
VERTEX
  5
D09
  8
0
 10
1250.383982535383
 20
1018.036965041351
 30
0.0
 42
0.5661903789690606
  0
VERTEX
  5
D0A
  8
0
 10
1237.4428060647949
 20
1025.801670923704
 30
0.0
  0
VERTEX
  5
D0B
  8
0
 10
1143.6928060647949
 20
975.80167092370561
 30
0.0
 42
0.7807764064044145
  0
VERTEX
  5
D0C
  8
0
 10
1147.8339825353819
 20
959.23696504135228
 30
0.0
  0
VERTEX
  5
D0D
  8
0
 10
1241.5839825353819
 20
959.2369650413516
 30
0.0
  0
VERTEX
  5
D0E
  8
0
 10
1237.0591272200029
 20
965.93996819431925
 30
0.0
  0
SEQEND
  5
D0F
  8
0
  0
POLYLINE
  5
1A6
  8
0
 66
     1
 10
0.0
 20
0.0
 30
0.0
  0
VERTEX
  5
D10
  8
0
 10
1258.5584683117761
 20
1090.2954725084669
 30
0.0
  0
VERTEX
  5
D11
  8
0
 10
1261.6075119471479
 20
1086.742847394293
 30
0.0
 42
-0.5661903789690609
  0
VERTEX
  5
D12
  8
0
 10
1292.7839825353819
 20
1068.036965041352
 30
0.0
  0
VERTEX
  5
D13
  8
0
 10
1292.7839825353819
 20
938.03696504135235
 30
0.0
 42
-0.4142135623730951
  0
VERTEX
  5
D14
  8
0
 10
1271.5839825353819
 20
916.83696504135196
 30
0.0
  0
VERTEX
  5
D15
  8
0
 10
1001.583982535383
 20
916.83696504135196
 30
0.0
 42
-0.4142135623730951
  0
VERTEX
  5
D16
  8
0
 10
980.38398253538264
 20
938.03696504135235
 30
0.0
  0
VERTEX
  5
D17
  8
0
 10
980.38398253538264
 20
948.03696504135235
 30
0.0
 42
-0.4142135623730951
  0
VERTEX
  5
D18
  8
0
 10
1001.583982535383
 20
969.23696504135228
 30
0.0
  0
VERTEX
  5
D19
  8
0
 10
1041.283982535384
 20
969.23696504135228
 30
0.0
  0
VERTEX
  5
D1A
  8
0
 10
1261.6075119471479
 20
1086.742847394293
 30
0.0
  0
VERTEX
  5
D1B
  8
0
 10
1256.5228399228231
 20
1088.555215013452
 30
0.0
  0
SEQEND
  5
D1C
  8
0
  0
POLYLINE
  5
1A7
  8
0
 66
     1
 10
0.0
 20
0.0
 30
0.0
  0
VERTEX
  5
D1D
  8
0
 10
1031.583982535383
 20
1093.633181739013
 30
0.0
  0
VERTEX
  5
D1E
  8
0
 10
1031.583982535383
 20
1102.433181739013
 30
0.0
 42
0.4142135623730951
  0
VERTEX
  5
D1F
  8
0
 10
1022.783982535383
 20
1093.633181739013
 30
0.0
  0
VERTEX
  5
D20
  8
0
 10
1022.783982535383
 20
1043.633181739013
 30
0.0
 42
0.5661903789690596
  0
VERTEX
  5
D21
  8
0
 10
1035.7251590059709
 20
1035.8684758566601
 30
0.0
  0
VERTEX
  5
D22
  8
0
 10
1129.4751590059709
 20
1085.8684758566601
 30
0.0
 42
0.7807764064044159
  0
VERTEX
  5
D23
  8
0
 10
1125.3339825353819
 20
1102.433181739013
 30
0.0
  0
VERTEX
  5
D24
  8
0
 10
1031.583982535383
 20
1102.433181739013
 30
0.0
  0
VERTEX
  5
D25
  8
0
 10
1035.7496214420371
 20
1094.9809802583891
 30
0.0
  0
SEQEND
  5
D26
  8
0
  0
POLYLINE
  5
1A8
  8
0
 66
     1
 10
0.0
 20
0.0
 30
0.0
  0
VERTEX
  5
D27
  8
0
 10
1276.3298789154171
 20
1149.3622459055109
 30
0.0
  0
VERTEX
  5
D28
  8
0
 10
1271.5839825353819
 20
1144.8331817390131
 30
0.0
 42
-0.4142135623730951
  0
VERTEX
  5
D29
  8
0
 10
1292.783982535384
 20
1123.633181739013
 30
0.0
  0
VERTEX
  5
D2A
  8
0
 10
1292.7839825353819
 20
1113.6331817390119
 30
0.0
 42
-0.4142135623730951
  0
VERTEX
  5
D2B
  8
0
 10
1271.5839825353819
 20
1092.4331817390121
 30
0.0
  0
VERTEX
  5
D2C
  8
0
 10
1231.883982535383
 20
1092.4331817390121
 30
0.0
  0
VERTEX
  5
D2D
  8
0
 10
1011.560453123618
 20
974.92729938607135
 30
0.0
 42
-0.5661903789690596
  0
VERTEX
  5
D2E
  8
0
 10
980.38398253538264
 20
993.63318173901291
 30
0.0
  0
VERTEX
  5
D2F
  8
0
 10
980.38398253538264
 20
1123.633181739013
 30
0.0
 42
-0.4142135623730951
  0
VERTEX
  5
D30
  8
0
 10
1001.583982535383
 20
1144.8331817390131
 30
0.0
  0
VERTEX
  5
D31
  8
0
 10
1271.5839825353819
 20
1144.8331817390119
 30
0.0
  0
VERTEX
  5
D32
  8
0
 10
1271.5839825353819
 20
1150.106184928173
 30
0.0
  0
SEQEND
  5
D33
  8
0
  0
POLYLINE
  5
1A9
  8
0
 66
     1
 10
0.0
 20
0.0
 30
0.0
  0
VERTEX
  5
D34
  8
0
 10
1241.5839825353819
 20
1202.8509650757071
 30
0.0
  0
VERTEX
  5
D35
  8
0
 10
1241.5839825353819
 20
1194.0509650757081
 30
0.0
 42
0.4142135623730951
  0
VERTEX
  5
D36
  8
0
 10
1250.383982535383
 20
1202.8509650757071
 30
0.0
  0
VERTEX
  5
D37
  8
0
 10
1250.383982535383
 20
1252.850965075708
 30
0.0
 42
0.5661903789690606
  0
VERTEX
  5
D38
  8
0
 10
1237.4428060647949
 20
1260.61567095806
 30
0.0
  0
VERTEX
  5
D39
  8
0
 10
1143.6928060647949
 20
1210.61567095806
 30
0.0
 42
0.7807764064044145
  0
VERTEX
  5
D3A
  8
0
 10
1147.8339825353819
 20
1194.0509650757081
 30
0.0
  0
VERTEX
  5
D3B
  8
0
 10
1241.5839825353819
 20
1194.0509650757081
 30
0.0
  0
VERTEX
  5
D3C
  8
0
 10
1237.0591272200029
 20
1200.753968228674
 30
0.0
  0
SEQEND
  5
D3D
  8
0
  0
POLYLINE
  5
1AA
  8
0
 66
     1
 10
0.0
 20
0.0
 30
0.0
  0
VERTEX
  5
D3E
  8
0
 10
1258.5584683117761
 20
1325.1094725428241
 30
0.0
  0
VERTEX
  5
D3F
  8
0
 10
1261.6075119471479
 20
1321.556847428649
 30
0.0
 42
-0.5661903789690609
  0
VERTEX
  5
D40
  8
0
 10
1292.7839825353819
 20
1302.8509650757071
 30
0.0
  0
VERTEX
  5
D41
  8
0
 10
1292.7839825353819
 20
1172.8509650757071
 30
0.0
 42
-0.4142135623730951
  0
VERTEX
  5
D42
  8
0
 10
1271.5839825353819
 20
1151.6509650757071
 30
0.0
  0
VERTEX
  5
D43
  8
0
 10
1001.583982535383
 20
1151.6509650757071
 30
0.0
 42
-0.4142135623730951
  0
VERTEX
  5
D44
  8
0
 10
980.38398253538264
 20
1172.850965075708
 30
0.0
  0
VERTEX
  5
D45
  8
0
 10
980.38398253538264
 20
1182.850965075708
 30
0.0
 42
-0.4142135623730951
  0
VERTEX
  5
D46
  8
0
 10
1001.583982535383
 20
1204.0509650757081
 30
0.0
  0
VERTEX
  5
D47
  8
0
 10
1041.283982535384
 20
1204.0509650757081
 30
0.0
  0
VERTEX
  5
D48
  8
0
 10
1261.6075119471479
 20
1321.556847428649
 30
0.0
  0
VERTEX
  5
D49
  8
0
 10
1256.5228399228231
 20
1323.3692150478071
 30
0.0
  0
SEQEND
  5
D4A
  8
0
  0
POLYLINE
  5
1AB
  8
0
 66
     1
 10
0.0
 20
0.0
 30
0.0
  0
VERTEX
  5
D4B
  8
0
 10
1031.583982535383
 20
1328.447181773369
 30
0.0
  0
VERTEX
  5
D4C
  8
0
 10
1031.583982535383
 20
1337.2471817733681
 30
0.0
 42
0.4142135623730951
  0
VERTEX
  5
D4D
  8
0
 10
1022.783982535383
 20
1328.447181773369
 30
0.0
  0
VERTEX
  5
D4E
  8
0
 10
1022.783982535383
 20
1278.4471817733679
 30
0.0
 42
0.5661903789690596
  0
VERTEX
  5
D4F
  8
0
 10
1035.7251590059709
 20
1270.6824758910161
 30
0.0
  0
VERTEX
  5
D50
  8
0
 10
1129.4751590059709
 20
1320.6824758910161
 30
0.0
 42
0.7807764064044159
  0
VERTEX
  5
D51
  8
0
 10
1125.3339825353819
 20
1337.2471817733681
 30
0.0
  0
VERTEX
  5
D52
  8
0
 10
1031.583982535383
 20
1337.247181773369
 30
0.0
  0
VERTEX
  5
D53
  8
0
 10
1035.7496214420371
 20
1329.794980292744
 30
0.0
  0
SEQEND
  5
D54
  8
0
  0
POLYLINE
  5
1AC
  8
0
 66
     1
 10
0.0
 20
0.0
 30
0.0
  0
VERTEX
  5
D55
  8
0
 10
1276.3298789154171
 20
1384.1762459398681
 30
0.0
  0
VERTEX
  5
D56
  8
0
 10
1271.5839825353819
 20
1379.6471817733679
 30
0.0
 42
-0.4142135623730951
  0
VERTEX
  5
D57
  8
0
 10
1292.783982535384
 20
1358.4471817733679
 30
0.0
  0
VERTEX
  5
D58
  8
0
 10
1292.7839825353819
 20
1348.4471817733679
 30
0.0
 42
-0.4142135623730951
  0
VERTEX
  5
D59
  8
0
 10
1271.5839825353819
 20
1327.2471817733681
 30
0.0
  0
VERTEX
  5
D5A
  8
0
 10
1231.883982535383
 20
1327.2471817733681
 30
0.0
  0
VERTEX
  5
D5B
  8
0
 10
1011.560453123618
 20
1209.7412994204269
 30
0.0
 42
-0.5661903789690596
  0
VERTEX
  5
D5C
  8
0
 10
980.38398253538264
 20
1228.447181773369
 30
0.0
  0
VERTEX
  5
D5D
  8
0
 10
980.38398253538264
 20
1358.447181773369
 30
0.0
 42
-0.4142135623730951
  0
VERTEX
  5
D5E
  8
0
 10
1001.583982535383
 20
1379.6471817733679
 30
0.0
  0
VERTEX
  5
D5F
  8
0
 10
1271.5839825353819
 20
1379.6471817733679
 30
0.0
  0
VERTEX
  5
D60
  8
0
 10
1271.5839825353819
 20
1384.920184962529
 30
0.0
  0
SEQEND
  5
D61
  8
0
  0
POLYLINE
  5
1B5
  8
0
 66
     1
 10
0.0
 20
0.0
 30
0.0
  0
VERTEX
  5
D62
  8
0
 10
924.01513596114364
 20
495.92773826459239
 30
0.0
  0
VERTEX
  5
D63
  8
0
 10
924.01513596114364
 20
487.12773826459261
 30
0.0
 42
0.4142135623730951
  0
VERTEX
  5
D64
  8
0
 10
932.81513596114485
 20
495.92773826459239
 30
0.0
  0
VERTEX
  5
D65
  8
0
 10
932.81513596114394
 20
545.92773826459245
 30
0.0
 42
0.5661903789690591
  0
VERTEX
  5
D66
  8
0
 10
919.87395949055588
 20
553.69244414694515
 30
0.0
  0
VERTEX
  5
D67
  8
0
 10
826.12395949055588
 20
503.69244414694572
 30
0.0
 42
0.7807764064044159
  0
VERTEX
  5
D68
  8
0
 10
830.26513596114364
 20
487.12773826459272
 30
0.0
  0
VERTEX
  5
D69
  8
0
 10
924.01513596114364
 20
487.12773826459261
 30
0.0
  0
VERTEX
  5
D6A
  8
0
 10
919.49028064576385
 20
493.83074141755958
 30
0.0
  0
SEQEND
  5
D6B
  8
0
  0
POLYLINE
  5
1B6
  8
0
 66
     1
 10
0.0
 20
0.0
 30
0.0
  0
VERTEX
  5
D6C
  8
0
 10
940.98962173753773
 20
618.18624573170825
 30
0.0
  0
VERTEX
  5
D6D
  8
0
 10
944.03866537290901
 20
614.63362061753412
 30
0.0
 42
-0.5661903789690599
  0
VERTEX
  5
D6E
  8
0
 10
975.21513596114335
 20
595.9277382645929
 30
0.0
  0
VERTEX
  5
D6F
  8
0
 10
975.21513596114335
 20
465.92773826459268
 30
0.0
 42
-0.4142135623730951
  0
VERTEX
  5
D70
  8
0
 10
954.01513596114376
 20
444.72773826459257
 30
0.0
  0
VERTEX
  5
D71
  8
0
 10
684.01513596114444
 20
444.72773826459269
 30
0.0
 42
-0.4142135623730951
  0
VERTEX
  5
D72
  8
0
 10
662.81513596114405
 20
465.9277382645929
 30
0.0
  0
VERTEX
  5
D73
  8
0
 10
662.81513596114405
 20
475.9277382645929
 30
0.0
 42
-0.4142135623730951
  0
VERTEX
  5
D74
  8
0
 10
684.01513596114444
 20
497.12773826459278
 30
0.0
  0
VERTEX
  5
D75
  8
0
 10
723.71513596114505
 20
497.12773826459278
 30
0.0
  0
VERTEX
  5
D76
  8
0
 10
944.03866537290901
 20
614.63362061753412
 30
0.0
  0
VERTEX
  5
D77
  8
0
 10
938.95399334858473
 20
616.44598823669276
 30
0.0
  0
SEQEND
  5
D78
  8
0
  0
POLYLINE
  5
1B7
  8
0
 66
     1
 10
0.0
 20
0.0
 30
0.0
  0
VERTEX
  5
D79
  8
0
 10
714.01513596114455
 20
621.5239549622537
 30
0.0
  0
VERTEX
  5
D7A
  8
0
 10
714.01513596114455
 20
630.32395496225377
 30
0.0
 42
0.4142135623730951
  0
VERTEX
  5
D7B
  8
0
 10
705.21513596114437
 20
621.5239549622537
 30
0.0
  0
VERTEX
  5
D7C
  8
0
 10
705.21513596114437
 20
571.52395496225415
 30
0.0
 42
0.5661903789690586
  0
VERTEX
  5
D7D
  8
0
 10
718.15631243173243
 20
563.75924907990122
 30
0.0
  0
VERTEX
  5
D7E
  8
0
 10
811.90631243173254
 20
613.75924907990077
 30
0.0
 42
0.7807764064044171
  0
VERTEX
  5
D7F
  8
0
 10
807.76513596114364
 20
630.32395496225354
 30
0.0
  0
VERTEX
  5
D80
  8
0
 10
714.01513596114455
 20
630.32395496225422
 30
0.0
  0
VERTEX
  5
D81
  8
0
 10
718.18077486779816
 20
622.87175348162975
 30
0.0
  0
SEQEND
  5
D82
  8
0
  0
POLYLINE
  5
1B8
  8
0
 66
     1
 10
0.0
 20
0.0
 30
0.0
  0
VERTEX
  5
D83
  8
0
 10
958.76103234117784
 20
677.25301912875238
 30
0.0
  0
VERTEX
  5
D84
  8
0
 10
954.01513596114376
 20
672.72395496225329
 30
0.0
 42
-0.4142135623730951
  0
VERTEX
  5
D85
  8
0
 10
975.21513596114528
 20
651.52395496225336
 30
0.0
  0
VERTEX
  5
D86
  8
0
 10
975.21513596114335
 20
641.52395496225301
 30
0.0
 42
-0.4142135623730951
  0
VERTEX
  5
D87
  8
0
 10
954.01513596114376
 20
620.32395496225331
 30
0.0
  0
VERTEX
  5
D88
  8
0
 10
914.31513596114382
 20
620.32395496225331
 30
0.0
  0
VERTEX
  5
D89
  8
0
 10
693.99160654937987
 20
502.81807260931203
 30
0.0
 42
-0.5661903789690586
  0
VERTEX
  5
D8A
  8
0
 10
662.81513596114405
 20
521.5239549622537
 30
0.0
  0
VERTEX
  5
D8B
  8
0
 10
662.81513596114405
 20
651.52395496225392
 30
0.0
 42
-0.4142135623730951
  0
VERTEX
  5
D8C
  8
0
 10
684.01513596114444
 20
672.72395496225374
 30
0.0
  0
VERTEX
  5
D8D
  8
0
 10
954.01513596114376
 20
672.72395496225329
 30
0.0
  0
VERTEX
  5
D8E
  8
0
 10
954.01513596114376
 20
677.99695815141411
 30
0.0
  0
SEQEND
  5
D8F
  8
0
  0
POLYLINE
  5
1B9
  8
0
 66
     1
 10
0.0
 20
0.0
 30
0.0
  0
VERTEX
  5
D90
  8
0
 10
924.01513596114364
 20
732.92773826459245
 30
0.0
  0
VERTEX
  5
D91
  8
0
 10
924.01513596114364
 20
724.12773826459238
 30
0.0
 42
0.4142135623730951
  0
VERTEX
  5
D92
  8
0
 10
932.81513596114485
 20
732.92773826459245
 30
0.0
  0
VERTEX
  5
D93
  8
0
 10
932.81513596114394
 20
782.92773826459245
 30
0.0
 42
0.5661903789690606
  0
VERTEX
  5
D94
  8
0
 10
919.87395949055588
 20
790.69244414694515
 30
0.0
  0
VERTEX
  5
D95
  8
0
 10
826.12395949055588
 20
740.6924441469456
 30
0.0
 42
0.7807764064044145
  0
VERTEX
  5
D96
  8
0
 10
830.26513596114364
 20
724.12773826459238
 30
0.0
  0
VERTEX
  5
D97
  8
0
 10
924.01513596114364
 20
724.12773826459238
 30
0.0
  0
VERTEX
  5
D98
  8
0
 10
919.49028064576385
 20
730.83074141755969
 30
0.0
  0
SEQEND
  5
D99
  8
0
  0
POLYLINE
  5
1BA
  8
0
 66
     1
 10
0.0
 20
0.0
 30
0.0
  0
VERTEX
  5
D9A
  8
0
 10
940.98962173753773
 20
855.18624573170871
 30
0.0
  0
VERTEX
  5
D9B
  8
0
 10
944.03866537290901
 20
851.63362061753423
 30
0.0
 42
-0.5661903789690609
  0
VERTEX
  5
D9C
  8
0
 10
975.21513596114335
 20
832.92773826459279
 30
0.0
  0
VERTEX
  5
D9D
  8
0
 10
975.21513596114335
 20
702.92773826459268
 30
0.0
 42
-0.4142135623730951
  0
VERTEX
  5
D9E
  8
0
 10
954.01513596114376
 20
681.72773826459252
 30
0.0
  0
VERTEX
  5
D9F
  8
0
 10
684.01513596114444
 20
681.72773826459274
 30
0.0
 42
-0.4142135623730951
  0
VERTEX
  5
DA0
  8
0
 10
662.81513596114405
 20
702.92773826459268
 30
0.0
  0
VERTEX
  5
DA1
  8
0
 10
662.81513596114405
 20
712.92773826459279
 30
0.0
 42
-0.4142135623730951
  0
VERTEX
  5
DA2
  8
0
 10
684.01513596114444
 20
734.12773826459295
 30
0.0
  0
VERTEX
  5
DA3
  8
0
 10
723.71513596114505
 20
734.12773826459295
 30
0.0
  0
VERTEX
  5
DA4
  8
0
 10
944.03866537290901
 20
851.63362061753423
 30
0.0
  0
VERTEX
  5
DA5
  8
0
 10
938.95399334858473
 20
853.44598823669276
 30
0.0
  0
SEQEND
  5
DA6
  8
0
  0
POLYLINE
  5
1BB
  8
0
 66
     1
 10
0.0
 20
0.0
 30
0.0
  0
VERTEX
  5
DA7
  8
0
 10
714.01513596114455
 20
858.52395496225392
 30
0.0
  0
VERTEX
  5
DA8
  8
0
 10
714.01513596114455
 20
867.32395496225377
 30
0.0
 42
0.4142135623730951
  0
VERTEX
  5
DA9
  8
0
 10
705.21513596114437
 20
858.52395496225392
 30
0.0
  0
VERTEX
  5
DAA
  8
0
 10
705.21513596114437
 20
808.52395496225404
 30
0.0
 42
0.5661903789690596
  0
VERTEX
  5
DAB
  8
0
 10
718.15631243173243
 20
800.75924907990066
 30
0.0
  0
VERTEX
  5
DAC
  8
0
 10
811.90631243173254
 20
850.75924907990054
 30
0.0
 42
0.7807764064044159
  0
VERTEX
  5
DAD
  8
0
 10
807.76513596114364
 20
867.32395496225377
 30
0.0
  0
VERTEX
  5
DAE
  8
0
 10
714.01513596114455
 20
867.32395496225411
 30
0.0
  0
VERTEX
  5
DAF
  8
0
 10
718.18077486779816
 20
859.87175348162907
 30
0.0
  0
SEQEND
  5
DB0
  8
0
  0
POLYLINE
  5
1BC
  8
0
 66
     1
 10
0.0
 20
0.0
 30
0.0
  0
VERTEX
  5
DB1
  8
0
 10
958.76103234117784
 20
914.25301912875204
 30
0.0
  0
VERTEX
  5
DB2
  8
0
 10
954.01513596114376
 20
909.72395496225295
 30
0.0
 42
-0.4142135623730951
  0
VERTEX
  5
DB3
  8
0
 10
975.21513596114528
 20
888.52395496225324
 30
0.0
  0
VERTEX
  5
DB4
  8
0
 10
975.21513596114335
 20
878.52395496225267
 30
0.0
 42
-0.4142135623730951
  0
VERTEX
  5
DB5
  8
0
 10
954.01513596114376
 20
857.32395496225331
 30
0.0
  0
VERTEX
  5
DB6
  8
0
 10
914.31513596114382
 20
857.32395496225331
 30
0.0
  0
VERTEX
  5
DB7
  8
0
 10
693.99160654937987
 20
739.81807260931214
 30
0.0
 42
-0.5661903789690596
  0
VERTEX
  5
DB8
  8
0
 10
662.81513596114405
 20
758.52395496225324
 30
0.0
  0
VERTEX
  5
DB9
  8
0
 10
662.81513596114405
 20
888.52395496225381
 30
0.0
 42
-0.4142135623730951
  0
VERTEX
  5
DBA
  8
0
 10
684.01513596114444
 20
909.72395496225363
 30
0.0
  0
VERTEX
  5
DBB
  8
0
 10
954.01513596114376
 20
909.72395496225295
 30
0.0
  0
VERTEX
  5
DBC
  8
0
 10
954.01513596114376
 20
914.99695815141422
 30
0.0
  0
SEQEND
  5
DBD
  8
0
  0
POLYLINE
  5
1BD
  8
0
 66
     1
 10
0.0
 20
0.0
 30
0.0
  0
VERTEX
  5
DBE
  8
0
 10
924.01513596114364
 20
968.03696504135166
 30
0.0
  0
VERTEX
  5
DBF
  8
0
 10
924.01513596114364
 20
959.2369650413516
 30
0.0
 42
0.4142135623730951
  0
VERTEX
  5
DC0
  8
0
 10
932.81513596114485
 20
968.03696504135166
 30
0.0
  0
VERTEX
  5
DC1
  8
0
 10
932.81513596114394
 20
1018.036965041351
 30
0.0
 42
0.5661903789690606
  0
VERTEX
  5
DC2
  8
0
 10
919.87395949055588
 20
1025.801670923704
 30
0.0
  0
VERTEX
  5
DC3
  8
0
 10
826.12395949055588
 20
975.80167092370561
 30
0.0
 42
0.7807764064044145
  0
VERTEX
  5
DC4
  8
0
 10
830.26513596114364
 20
959.23696504135228
 30
0.0
  0
VERTEX
  5
DC5
  8
0
 10
924.01513596114364
 20
959.2369650413516
 30
0.0
  0
VERTEX
  5
DC6
  8
0
 10
919.49028064576385
 20
965.93996819431925
 30
0.0
  0
SEQEND
  5
DC7
  8
0
  0
POLYLINE
  5
1BE
  8
0
 66
     1
 10
0.0
 20
0.0
 30
0.0
  0
VERTEX
  5
DC8
  8
0
 10
940.98962173753773
 20
1090.2954725084669
 30
0.0
  0
VERTEX
  5
DC9
  8
0
 10
944.03866537290901
 20
1086.742847394293
 30
0.0
 42
-0.5661903789690609
  0
VERTEX
  5
DCA
  8
0
 10
975.21513596114335
 20
1068.036965041352
 30
0.0
  0
VERTEX
  5
DCB
  8
0
 10
975.21513596114335
 20
938.03696504135235
 30
0.0
 42
-0.4142135623730951
  0
VERTEX
  5
DCC
  8
0
 10
954.01513596114376
 20
916.83696504135196
 30
0.0
  0
VERTEX
  5
DCD
  8
0
 10
684.01513596114444
 20
916.83696504135196
 30
0.0
 42
-0.4142135623730951
  0
VERTEX
  5
DCE
  8
0
 10
662.81513596114405
 20
938.03696504135235
 30
0.0
  0
VERTEX
  5
DCF
  8
0
 10
662.81513596114405
 20
948.03696504135235
 30
0.0
 42
-0.4142135623730951
  0
VERTEX
  5
DD0
  8
0
 10
684.01513596114444
 20
969.23696504135228
 30
0.0
  0
VERTEX
  5
DD1
  8
0
 10
723.71513596114505
 20
969.23696504135228
 30
0.0
  0
VERTEX
  5
DD2
  8
0
 10
944.03866537290901
 20
1086.742847394293
 30
0.0
  0
VERTEX
  5
DD3
  8
0
 10
938.95399334858473
 20
1088.555215013452
 30
0.0
  0
SEQEND
  5
DD4
  8
0
  0
POLYLINE
  5
1BF
  8
0
 66
     1
 10
0.0
 20
0.0
 30
0.0
  0
VERTEX
  5
DD5
  8
0
 10
714.01513596114455
 20
1093.633181739013
 30
0.0
  0
VERTEX
  5
DD6
  8
0
 10
714.01513596114455
 20
1102.433181739013
 30
0.0
 42
0.4142135623730951
  0
VERTEX
  5
DD7
  8
0
 10
705.21513596114437
 20
1093.633181739013
 30
0.0
  0
VERTEX
  5
DD8
  8
0
 10
705.21513596114437
 20
1043.633181739013
 30
0.0
 42
0.5661903789690596
  0
VERTEX
  5
DD9
  8
0
 10
718.15631243173243
 20
1035.8684758566601
 30
0.0
  0
VERTEX
  5
DDA
  8
0
 10
811.90631243173254
 20
1085.8684758566601
 30
0.0
 42
0.7807764064044159
  0
VERTEX
  5
DDB
  8
0
 10
807.76513596114364
 20
1102.433181739013
 30
0.0
  0
VERTEX
  5
DDC
  8
0
 10
714.01513596114455
 20
1102.433181739013
 30
0.0
  0
VERTEX
  5
DDD
  8
0
 10
718.18077486779816
 20
1094.9809802583891
 30
0.0
  0
SEQEND
  5
DDE
  8
0
  0
POLYLINE
  5
1C0
  8
0
 66
     1
 10
0.0
 20
0.0
 30
0.0
  0
VERTEX
  5
DDF
  8
0
 10
958.76103234117784
 20
1149.3622459055109
 30
0.0
  0
VERTEX
  5
DE0
  8
0
 10
954.01513596114376
 20
1144.8331817390131
 30
0.0
 42
-0.4142135623730951
  0
VERTEX
  5
DE1
  8
0
 10
975.21513596114528
 20
1123.633181739013
 30
0.0
  0
VERTEX
  5
DE2
  8
0
 10
975.21513596114335
 20
1113.6331817390119
 30
0.0
 42
-0.4142135623730951
  0
VERTEX
  5
DE3
  8
0
 10
954.01513596114376
 20
1092.4331817390121
 30
0.0
  0
VERTEX
  5
DE4
  8
0
 10
914.31513596114382
 20
1092.4331817390121
 30
0.0
  0
VERTEX
  5
DE5
  8
0
 10
693.99160654937987
 20
974.92729938607135
 30
0.0
 42
-0.5661903789690596
  0
VERTEX
  5
DE6
  8
0
 10
662.81513596114405
 20
993.63318173901291
 30
0.0
  0
VERTEX
  5
DE7
  8
0
 10
662.81513596114405
 20
1123.633181739013
 30
0.0
 42
-0.4142135623730951
  0
VERTEX
  5
DE8
  8
0
 10
684.01513596114444
 20
1144.8331817390131
 30
0.0
  0
VERTEX
  5
DE9
  8
0
 10
954.01513596114376
 20
1144.8331817390119
 30
0.0
  0
VERTEX
  5
DEA
  8
0
 10
954.01513596114376
 20
1150.106184928173
 30
0.0
  0
SEQEND
  5
DEB
  8
0
  0
POLYLINE
  5
1C1
  8
0
 66
     1
 10
0.0
 20
0.0
 30
0.0
  0
VERTEX
  5
DEC
  8
0
 10
924.01513596114364
 20
1202.8509650757071
 30
0.0
  0
VERTEX
  5
DED
  8
0
 10
924.01513596114364
 20
1194.0509650757081
 30
0.0
 42
0.4142135623730951
  0
VERTEX
  5
DEE
  8
0
 10
932.81513596114485
 20
1202.8509650757071
 30
0.0
  0
VERTEX
  5
DEF
  8
0
 10
932.81513596114394
 20
1252.850965075708
 30
0.0
 42
0.5661903789690606
  0
VERTEX
  5
DF0
  8
0
 10
919.87395949055588
 20
1260.61567095806
 30
0.0
  0
VERTEX
  5
DF1
  8
0
 10
826.12395949055588
 20
1210.61567095806
 30
0.0
 42
0.7807764064044145
  0
VERTEX
  5
DF2
  8
0
 10
830.26513596114364
 20
1194.0509650757081
 30
0.0
  0
VERTEX
  5
DF3
  8
0
 10
924.01513596114364
 20
1194.0509650757081
 30
0.0
  0
VERTEX
  5
DF4
  8
0
 10
919.49028064576385
 20
1200.753968228674
 30
0.0
  0
SEQEND
  5
DF5
  8
0
  0
POLYLINE
  5
1C2
  8
0
 66
     1
 10
0.0
 20
0.0
 30
0.0
  0
VERTEX
  5
DF6
  8
0
 10
940.98962173753773
 20
1325.1094725428241
 30
0.0
  0
VERTEX
  5
DF7
  8
0
 10
944.03866537290901
 20
1321.556847428649
 30
0.0
 42
-0.5661903789690609
  0
VERTEX
  5
DF8
  8
0
 10
975.21513596114335
 20
1302.8509650757071
 30
0.0
  0
VERTEX
  5
DF9
  8
0
 10
975.21513596114335
 20
1172.8509650757071
 30
0.0
 42
-0.4142135623730951
  0
VERTEX
  5
DFA
  8
0
 10
954.01513596114376
 20
1151.6509650757071
 30
0.0
  0
VERTEX
  5
DFB
  8
0
 10
684.01513596114444
 20
1151.6509650757071
 30
0.0
 42
-0.4142135623730951
  0
VERTEX
  5
DFC
  8
0
 10
662.81513596114405
 20
1172.850965075708
 30
0.0
  0
VERTEX
  5
DFD
  8
0
 10
662.81513596114405
 20
1182.850965075708
 30
0.0
 42
-0.4142135623730951
  0
VERTEX
  5
DFE
  8
0
 10
684.01513596114444
 20
1204.0509650757081
 30
0.0
  0
VERTEX
  5
DFF
  8
0
 10
723.71513596114505
 20
1204.0509650757081
 30
0.0
  0
VERTEX
  5
E00
  8
0
 10
944.03866537290901
 20
1321.556847428649
 30
0.0
  0
VERTEX
  5
E01
  8
0
 10
938.95399334858473
 20
1323.3692150478071
 30
0.0
  0
SEQEND
  5
E02
  8
0
  0
POLYLINE
  5
1C3
  8
0
 66
     1
 10
0.0
 20
0.0
 30
0.0
  0
VERTEX
  5
E03
  8
0
 10
714.01513596114455
 20
1328.447181773369
 30
0.0
  0
VERTEX
  5
E04
  8
0
 10
714.01513596114455
 20
1337.2471817733681
 30
0.0
 42
0.4142135623730951
  0
VERTEX
  5
E05
  8
0
 10
705.21513596114437
 20
1328.447181773369
 30
0.0
  0
VERTEX
  5
E06
  8
0
 10
705.21513596114437
 20
1278.4471817733679
 30
0.0
 42
0.5661903789690596
  0
VERTEX
  5
E07
  8
0
 10
718.15631243173243
 20
1270.6824758910161
 30
0.0
  0
VERTEX
  5
E08
  8
0
 10
811.90631243173254
 20
1320.6824758910161
 30
0.0
 42
0.7807764064044159
  0
VERTEX
  5
E09
  8
0
 10
807.76513596114364
 20
1337.2471817733681
 30
0.0
  0
VERTEX
  5
E0A
  8
0
 10
714.01513596114455
 20
1337.247181773369
 30
0.0
  0
VERTEX
  5
E0B
  8
0
 10
718.18077486779816
 20
1329.794980292744
 30
0.0
  0
SEQEND
  5
E0C
  8
0
  0
POLYLINE
  5
1C4
  8
0
 66
     1
 10
0.0
 20
0.0
 30
0.0
  0
VERTEX
  5
E0D
  8
0
 10
958.76103234117784
 20
1384.1762459398681
 30
0.0
  0
VERTEX
  5
E0E
  8
0
 10
954.01513596114376
 20
1379.6471817733679
 30
0.0
 42
-0.4142135623730951
  0
VERTEX
  5
E0F
  8
0
 10
975.21513596114528
 20
1358.4471817733679
 30
0.0
  0
VERTEX
  5
E10
  8
0
 10
975.21513596114335
 20
1348.4471817733679
 30
0.0
 42
-0.4142135623730951
  0
VERTEX
  5
E11
  8
0
 10
954.01513596114376
 20
1327.2471817733681
 30
0.0
  0
VERTEX
  5
E12
  8
0
 10
914.31513596114382
 20
1327.2471817733681
 30
0.0
  0
VERTEX
  5
E13
  8
0
 10
693.99160654937987
 20
1209.7412994204269
 30
0.0
 42
-0.5661903789690596
  0
VERTEX
  5
E14
  8
0
 10
662.81513596114405
 20
1228.447181773369
 30
0.0
  0
VERTEX
  5
E15
  8
0
 10
662.81513596114405
 20
1358.447181773369
 30
0.0
 42
-0.4142135623730951
  0
VERTEX
  5
E16
  8
0
 10
684.01513596114444
 20
1379.6471817733679
 30
0.0
  0
VERTEX
  5
E17
  8
0
 10
954.01513596114376
 20
1379.6471817733679
 30
0.0
  0
VERTEX
  5
E18
  8
0
 10
954.01513596114376
 20
1384.920184962529
 30
0.0
  0
SEQEND
  5
E19
  8
0
  0
LINE
  5
9C1
  8
0
 10
573.08012144468898
 20
440.40807398287211
 30
0.0
 11
573.08012144468898
 21
1440.4080739828721
 31
0.0
  0
LINE
  5
9C2
  8
0
 10
573.08012144468898
 20
1440.4080739828721
 30
0.0
 11
2573.0801214446892
 21
1440.4080739828721
 31
0.0
  0
LINE
  5
9C3
  8
0
 10
2573.0801214446892
 20
1440.4080739828721
 30
0.0
 11
2573.0801214446892
 21
440.40807398287211
 31
0.0
  0
ENDSEC
  0
EOF
