  0
SECTION
  2
HEADER
  9
$ACADVER
  1
AC1009
  9
$INSBASE
 10
0.0
 20
0.0
 30
0.0
  9
$EXTMIN
 10
-2938.129342720249
 20
-3087.6441533499578
 30
0.0
  9
$EXTMAX
 10
8704.4918998591456
 20
4771.275104954264
 30
0.0
  9
$LIMMIN
 10
0.0
 20
0.0
  9
$LIMMAX
 10
420.0
 20
297.0
  9
$ORTHOMODE
 70
     0
  9
$REGENMODE
 70
     1
  9
$FILLMODE
 70
     1
  9
$QTEXTMODE
 70
     0
  9
$MIRRTEXT
 70
     0
  9
$DRAGMODE
 70
     2
  9
$LTSCALE
 40
1.0
  9
$OSMODE
 70
   279
  9
$ATTMODE
 70
     1
  9
$TEXTSIZE
 40
200.0
  9
$TRACEWID
 40
1.0
  9
$TEXTSTYLE
  7
STANDARD
  9
$CLAYER
  8
0
  9
$CELTYPE
  6
BYLAYER
  9
$CECOLOR
 62
   256
  9
$DIMSCALE
 40
1.0
  9
$DIMASZ
 40
2.5
  9
$DIMEXO
 40
0.625
  9
$DIMDLI
 40
3.75
  9
$DIMRND
 40
0.0
  9
$DIMDLE
 40
0.0
  9
$DIMEXE
 40
1.25
  9
$DIMTP
 40
0.0
  9
$DIMTM
 40
0.0
  9
$DIMTXT
 40
2.5
  9
$DIMCEN
 40
2.5
  9
$DIMTSZ
 40
0.0
  9
$DIMTOL
 70
     0
  9
$DIMLIM
 70
     0
  9
$DIMTIH
 70
     0
  9
$DIMTOH
 70
     0
  9
$DIMSE1
 70
     0
  9
$DIMSE2
 70
     0
  9
$DIMTAD
 70
     1
  9
$DIMZIN
 70
     8
  9
$DIMBLK
  1

  9
$DIMASO
 70
     1
  9
$DIMSHO
 70
     1
  9
$DIMPOST
  1

  9
$DIMAPOST
  1

  9
$DIMALT
 70
     0
  9
$DIMALTD
 70
     3
  9
$DIMALTF
 40
0.03937007874016
  9
$DIMLFAC
 40
1.0
  9
$DIMTOFL
 70
     1
  9
$DIMTVP
 40
0.0
  9
$DIMTIX
 70
     0
  9
$DIMSOXD
 70
     0
  9
$DIMSAH
 70
     0
  9
$DIMBLK1
  1

  9
$DIMBLK2
  1

  9
$DIMSTYLE
  2
ISO-25
  9
$DIMCLRD
 70
     0
  9
$DIMCLRE
 70
     0
  9
$DIMCLRT
 70
     0
  9
$DIMTFAC
 40
1.0
  9
$DIMGAP
 40
0.625
  9
$LUNITS
 70
     2
  9
$LUPREC
 70
     4
  9
$SKETCHINC
 40
1.0
  9
$FILLETRAD
 40
10.0
  9
$AUNITS
 70
     0
  9
$AUPREC
 70
     0
  9
$MENU
  1
.
  9
$ELEVATION
 40
0.0
  9
$PELEVATION
 40
0.0
  9
$THICKNESS
 40
0.0
  9
$LIMCHECK
 70
     0
  9
$BLIPMODE
 70
     0
  9
$CHAMFERA
 40
0.0
  9
$CHAMFERB
 40
0.0
  9
$SKPOLY
 70
     0
  9
$TDCREATE
 40
2455118.6678254749
  9
$TDUPDATE
 40
2455134.5969842938
  9
$TDINDWG
 40
0.2132865394
  9
$TDUSRTIMER
 40
0.2132584838
  9
$USRTIMER
 70
     1
  9
$ANGBASE
 50
0.0
  9
$ANGDIR
 70
     0
  9
$PDMODE
 70
     0
  9
$PDSIZE
 40
0.0
  9
$PLINEWID
 40
0.0
  9
$COORDS
 70
     1
  9
$SPLFRAME
 70
     0
  9
$SPLINETYPE
 70
     6
  9
$SPLINESEGS
 70
     8
  9
$ATTDIA
 70
     0
  9
$ATTREQ
 70
     1
  9
$HANDLING
 70
     1
  9
$HANDSEED
  5
22A5
  9
$SURFTAB1
 70
     6
  9
$SURFTAB2
 70
     6
  9
$SURFTYPE
 70
     6
  9
$SURFU
 70
     6
  9
$SURFV
 70
     6
  9
$UCSNAME
  2

  9
$UCSORG
 10
0.0
 20
0.0
 30
0.0
  9
$UCSXDIR
 10
1.0
 20
0.0
 30
0.0
  9
$UCSYDIR
 10
0.0
 20
1.0
 30
0.0
  9
$PUCSNAME
  2

  9
$PUCSORG
 10
0.0
 20
0.0
 30
0.0
  9
$PUCSXDIR
 10
1.0
 20
0.0
 30
0.0
  9
$PUCSYDIR
 10
0.0
 20
1.0
 30
0.0
  9
$USERI1
 70
     0
  9
$USERI2
 70
     0
  9
$USERI3
 70
     0
  9
$USERI4
 70
     0
  9
$USERI5
 70
     0
  9
$USERR1
 40
0.0
  9
$USERR2
 40
0.0
  9
$USERR3
 40
0.0
  9
$USERR4
 40
0.0
  9
$USERR5
 40
0.0
  9
$WORLDVIEW
 70
     1
  9
$SHADEDGE
 70
     3
  9
$SHADEDIF
 70
    70
  9
$TILEMODE
 70
     1
  9
$MAXACTVP
 70
    64
  9
$PLIMCHECK
 70
     0
  9
$PEXTMIN
 10
0.0
 20
0.0
 30
0.0
  9
$PEXTMAX
 10
0.0
 20
0.0
 30
0.0
  9
$PLIMMIN
 10
0.0
 20
0.0
  9
$PLIMMAX
 10
12.0
 20
9.0
  9
$UNITMODE
 70
     0
  9
$VISRETAIN
 70
     1
  9
$PLINEGEN
 70
     0
  9
$PSLTSCALE
 70
     1
  0
ENDSEC
  0
SECTION
  2
TABLES
  0
TABLE
  2
VPORT
 70
     1
  0
VPORT
  2
*ACTIVE
 70
     0
 10
0.0
 20
0.0
 11
1.0
 21
1.0
 12
5246.8265949555389
 22
3552.451010103644
 13
0.0
 23
0.0
 14
10.0
 24
10.0
 15
10.0
 25
10.0
 16
0.0
 26
0.0
 36
1.0
 17
0.0
 27
0.0
 37
0.0
 40
966.0105977456717
 41
1.735124760076775
 42
50.0
 43
0.0
 44
0.0
 50
0.0
 51
0.0
 71
     0
 72
  1000
 73
     1
 74
     3
 75
     0
 76
     0
 77
     0
 78
     0
  0
ENDTAB
  0
TABLE
  2
LTYPE
 70
     2
  0
LTYPE
  2
CONTINUOUS
 70
     0
  3
Solid line
 72
    65
 73
     0
 40
0.0
  0
ENDTAB
  0
TABLE
  2
LAYER
 70
     1
  0
LAYER
  2
0
 70
     0
 62
     7
  6
CONTINUOUS
  0
ENDTAB
  0
TABLE
  2
STYLE
 70
     1
  0
STYLE
  2
STANDARD
 70
     0
 40
0.0
 41
1.0
 50
0.0
 71
     0
 42
200.0
  3
txt
  4

  0
ENDTAB
  0
TABLE
  2
VIEW
 70
     0
  0
ENDTAB
  0
TABLE
  2
UCS
 70
     0
  0
ENDTAB
  0
TABLE
  2
APPID
 70
     3
  0
APPID
  2
ACAD
 70
     0
  0
APPID
  2
ACAD_PSEXT
 70
     0
  0
APPID
  2
ACAD_EXEMPT_FROM_CAD_STANDARDS
 70
     0
  0
ENDTAB
  0
TABLE
  2
DIMSTYLE
 70
     2
  0
DIMSTYLE
  2
ISO-25
 70
     0
  3

  4

  5

  6

  7

 40
1.0
 41
2.5
 42
0.625
 43
3.75
 44
1.25
 45
0.0
 46
0.0
 47
0.0
 48
0.0
140
2.5
141
2.5
142
0.0
143
0.03937007874016
144
1.0
145
0.0
146
1.0
147
0.625
 71
     0
 72
     0
 73
     0
 74
     0
 75
     0
 76
     0
 77
     1
 78
     8
170
     0
171
     3
172
     1
173
     0
174
     0
175
     0
176
     0
177
     0
178
     0
  0
ENDTAB
  0
ENDSEC
  0
SECTION
  2
BLOCKS
  0
BLOCK
  8
0
  2
$MODEL_SPACE
 70
     0
 10
0.0
 20
0.0
 30
0.0
  3
$MODEL_SPACE
  1

  0
ENDBLK
  5
217E
  8
0
  0
BLOCK
 67
     1
  8
0
  2
$PAPER_SPACE
 70
     0
 10
0.0
 20
0.0
 30
0.0
  3
$PAPER_SPACE
  1

  0
ENDBLK
  5
217A
 67
     1
  8
0
  0
ENDSEC
  0
SECTION
  2
ENTITIES
  0
LINE
  5
29B
  8
0
 10
383.14495637661452
 20
-1587.644153349956
 30
0.0
 11
383.14495637661452
 21
-3087.6441533499578
 31
0.0
  0
LINE
  5
29C
  8
0
 10
383.14495637661452
 20
-3087.6441533499578
 30
0.0
 11
-636.85504362338543
 21
-3087.6441533499578
 31
0.0
  0
LINE
  5
29E
  8
0
 10
-636.85504362338543
 20
-1587.644153349956
 30
0.0
 11
383.14495637661452
 21
-1587.644153349956
 31
0.0
  0
CIRCLE
  5
29F
  8
0
 10
226.44705423018149
 20
-2965.0772528570651
 30
0.0
 40
21.5
  0
CIRCLE
  5
2A0
  8
0
 10
226.44705423018149
 20
-2965.0772528570651
 30
0.0
 40
20.0
  0
CIRCLE
  5
2A1
  8
0
 10
346.44705423018149
 20
-2965.0772528570651
 30
0.0
 40
21.5
  0
CIRCLE
  5
2A2
  8
0
 10
346.44705423018149
 20
-2965.0772528570651
 30
0.0
 40
20.0
  0
LINE
  5
1322
  8
0
 10
-636.85504362338543
 20
-3087.6441533499578
 30
0.0
 11
-636.85504362338543
 21
-1587.644153349956
 31
0.0
  0
LINE
  5
1742
  8
0
 10
999.74959171351475
 20
3062.389464257571
 30
0.0
 11
999.74959171351475
 21
2062.3894642575701
 31
0.0
  0
LINE
  5
1743
  8
0
 10
999.74959171351475
 20
2062.3894642575701
 30
0.0
 11
1739.749591713515
 21
2062.3894642575701
 31
0.0
  0
LINE
  5
1744
  8
0
 10
1739.749591713515
 20
2062.3894642575701
 30
0.0
 11
1739.749591713515
 21
3062.389464257571
 31
0.0
  0
LINE
  5
1745
  8
0
 10
1739.749591713515
 20
3062.389464257571
 30
0.0
 11
999.74959171351475
 21
3062.389464257571
 31
0.0
  0
CIRCLE
  5
1748
  8
0
 10
1141.7495917135141
 20
2244.3894642575701
 30
0.0
 40
75.0
  0
CIRCLE
  5
1749
  8
0
 10
1141.7495917135141
 20
2577.3894642575701
 30
0.0
 40
75.0
  0
CIRCLE
  5
1751
  8
0
 10
1141.7495917135141
 20
2937.3894642575701
 30
0.0
 40
75.0
  0
CIRCLE
  5
1755
  8
0
 10
1489.749591713515
 20
3032.3894642575701
 30
0.0
 40
20.0
  0
CIRCLE
  5
1756
  8
0
 10
1644.7495917135141
 20
3032.3894642575701
 30
0.0
 40
20.0
  0
CIRCLE
  5
1759
  8
0
 10
1324.749591713515
 20
3032.3894642575701
 30
0.0
 40
7.0
  0
CIRCLE
  5
175F
  8
0
 10
1684.749591713515
 20
2992.3894642575701
 30
0.0
 40
4.0
  0
CIRCLE
  5
1760
  8
0
 10
1599.7495917135141
 20
2992.3894642575701
 30
0.0
 40
4.0
  0
CIRCLE
  5
1762
  8
0
 10
1529.749591713515
 20
2992.3894642575701
 30
0.0
 40
4.0
  0
CIRCLE
  5
1763
  8
0
 10
1444.749591713515
 20
2992.3894642575701
 30
0.0
 40
4.0
  0
CIRCLE
  5
1769
  8
0
 10
1076.749591713515
 20
2872.3894642575701
 30
0.0
 40
7.0
  0
CIRCLE
  5
176A
  8
0
 10
1206.749591713515
 20
2872.3894642575701
 30
0.0
 40
7.0
  0
CIRCLE
  5
176B
  8
0
 10
1206.749591713515
 20
3002.3894642575701
 30
0.0
 40
7.0
  0
CIRCLE
  5
176C
  8
0
 10
1076.749591713515
 20
3002.3894642575701
 30
0.0
 40
7.0
  0
CIRCLE
  5
176D
  8
0
 10
1076.749591713515
 20
2512.3894642575701
 30
0.0
 40
7.0
  0
CIRCLE
  5
176E
  8
0
 10
1206.749591713515
 20
2512.3894642575701
 30
0.0
 40
7.0
  0
CIRCLE
  5
176F
  8
0
 10
1206.749591713515
 20
2642.3894642575701
 30
0.0
 40
7.0
  0
CIRCLE
  5
1770
  8
0
 10
1076.749591713515
 20
2642.3894642575701
 30
0.0
 40
7.0
  0
CIRCLE
  5
1776
  8
0
 10
1041.7495917135141
 20
2344.3894642575701
 30
0.0
 40
6.0
  0
CIRCLE
  5
1777
  8
0
 10
1241.749591713515
 20
2344.3894642575701
 30
0.0
 40
6.0
  0
CIRCLE
  5
1778
  8
0
 10
1241.749591713515
 20
2144.3894642575701
 30
0.0
 40
6.0
  0
CIRCLE
  5
1779
  8
0
 10
1041.7495917135141
 20
2144.3894642575701
 30
0.0
 40
6.0
  0
CIRCLE
  5
177C
  8
0
 10
1434.749591713515
 20
2633.3894642575701
 30
0.0
 40
20.0
  0
LINE
  5
177E
  8
0
 10
1739.749591713515
 20
2062.3894642575701
 30
0.0
 11
1739.749591713515
 21
2577.3894642575701
 31
0.0
  0
LINE
  5
177F
  8
0
 10
1739.749591713515
 20
2577.3894642575701
 30
0.0
 11
1739.749591713515
 21
2687.3894642575701
 31
0.0
  0
CIRCLE
  5
1788
  8
0
 10
1359.7495917135141
 20
2655.3894642575692
 30
0.0
 40
4.0
  0
CIRCLE
  5
1789
  8
0
 10
1359.7495917135141
 20
2611.3894642575692
 30
0.0
 40
4.0
  0
CIRCLE
  5
178C
  8
0
 10
1719.749591713515
 20
3042.389464257571
 30
0.0
 40
8.0
  0
CIRCLE
  5
178D
  8
0
 10
1719.749591713515
 20
2082.3894642575701
 30
0.0
 40
8.0
  0
CIRCLE
  5
178E
  8
0
 10
1019.749591713515
 20
3042.389464257571
 30
0.0
 40
8.0
  0
CIRCLE
  5
178F
  8
0
 10
1019.749591713515
 20
2082.3894642575701
 30
0.0
 40
8.0
  0
CIRCLE
  5
1790
  8
0
 10
1719.749591713515
 20
2657.3894642575701
 30
0.0
 40
8.0
  0
CIRCLE
  5
1795
  8
0
 10
1714.749591713515
 20
2687.3894642575701
 30
0.0
 40
8.0
  0
CIRCLE
  5
1796
  8
0
 10
1714.749591713515
 20
2577.3894642575701
 30
0.0
 40
8.0
  0
LINE
  5
1798
  8
0
 10
1689.7495917135141
 20
2737.3894642575701
 30
0.0
 11
1689.749591713515
 21
2897.3894642575701
 31
0.0
  0
LINE
  5
1799
  8
0
 10
1669.749591713515
 20
2917.389464257571
 30
0.0
 11
1409.749591713515
 21
2917.389464257571
 31
0.0
  0
LINE
  5
179A
  8
0
 10
1389.7495917135141
 20
2897.3894642575701
 30
0.0
 11
1389.7495917135141
 21
2737.3894642575692
 31
0.0
  0
LINE
  5
179B
  8
0
 10
1409.749591713515
 20
2717.3894642575701
 30
0.0
 11
1669.749591713515
 21
2717.3894642575701
 31
0.0
  0
ARC
  5
179C
  8
0
 10
1669.749591713515
 20
2897.3894642575701
 30
0.0
 40
20.0
 50
0.0
 51
90.0
  0
ARC
  5
179F
  8
0
 10
1669.749591713515
 20
2737.3894642575701
 30
0.0
 40
20.0
 50
270.0
 51
0.0
  0
ARC
  5
17A0
  8
0
 10
1409.749591713515
 20
2737.3894642575692
 30
0.0
 40
20.0
 50
180.0
 51
270.0
  0
ARC
  5
17A1
  8
0
 10
1409.749591713515
 20
2897.3894642575701
 30
0.0
 40
20.0
 50
90.0
 51
180.0
  0
LINE
  5
17A2
  8
0
 10
1689.7495917135141
 20
2377.3894642575701
 30
0.0
 11
1689.749591713515
 21
2537.3894642575701
 31
0.0
  0
ARC
  5
17A3
  8
0
 10
1669.749591713515
 20
2537.3894642575701
 30
0.0
 40
20.0
 50
0.0
 51
90.0
  0
LINE
  5
17A4
  8
0
 10
1669.749591713515
 20
2557.3894642575701
 30
0.0
 11
1409.749591713515
 21
2557.3894642575701
 31
0.0
  0
ARC
  5
17A5
  8
0
 10
1409.749591713515
 20
2537.3894642575701
 30
0.0
 40
20.0
 50
90.0
 51
180.0
  0
LINE
  5
17A6
  8
0
 10
1389.7495917135141
 20
2537.3894642575701
 30
0.0
 11
1389.7495917135141
 21
2377.3894642575692
 31
0.0
  0
ARC
  5
17A7
  8
0
 10
1409.749591713515
 20
2377.3894642575692
 30
0.0
 40
20.0
 50
180.0
 51
270.0
  0
LINE
  5
17A8
  8
0
 10
1409.749591713515
 20
2357.3894642575692
 30
0.0
 11
1669.749591713515
 21
2357.3894642575701
 31
0.0
  0
ARC
  5
17A9
  8
0
 10
1669.749591713515
 20
2377.3894642575701
 30
0.0
 40
20.0
 50
270.0
 51
0.0
  0
LINE
  5
17AA
  8
0
 10
1351.749591713515
 20
2097.3892946243918
 30
0.0
 11
1487.749591713515
 21
2097.3892946243918
 31
0.0
  0
LINE
  5
17AB
  8
0
 10
1341.749591713515
 20
2107.3892946243918
 30
0.0
 11
1341.749591713515
 21
2227.3892946243918
 31
0.0
  0
LINE
  5
17AC
  8
0
 10
1351.749591713515
 20
2237.3892946243918
 30
0.0
 11
1487.749591713515
 21
2237.3892946243918
 31
0.0
  0
LINE
  5
17AD
  8
0
 10
1497.749591713515
 20
2227.3892946243918
 30
0.0
 11
1497.749591713515
 21
2197.3892946243918
 31
0.0
  0
LINE
  5
17AF
  8
0
 10
1527.7495917135141
 20
2177.3892946243918
 30
0.0
 11
1527.749591713515
 21
2157.3892946243918
 31
0.0
  0
LINE
  5
17B0
  8
0
 10
1517.7495917135141
 20
2187.3892946243918
 30
0.0
 11
1507.749591713515
 21
2187.3892946243918
 31
0.0
  0
LINE
  5
17B1
  8
0
 10
1517.749591713515
 20
2147.3892946243918
 30
0.0
 11
1507.749591713515
 21
2147.3892946243918
 31
0.0
  0
LINE
  5
17B2
  8
0
 10
1497.749591713515
 20
2137.3892946243932
 30
0.0
 11
1497.749591713515
 21
2107.3892946243918
 31
0.0
  0
ARC
  5
17B4
  8
0
 10
1517.749591713515
 20
2157.3892946243918
 30
0.0
 40
10.0
 50
270.0
 51
0.0
  0
ARC
  5
17B5
  8
0
 10
1517.7495917135141
 20
2177.3892946243918
 30
0.0
 40
10.0
 50
0.0
 51
90.0
  0
ARC
  5
17B6
  8
0
 10
1507.749591713515
 20
2197.3892946243918
 30
0.0
 40
10.0
 50
180.0
 51
270.0
  0
ARC
  5
17B7
  8
0
 10
1487.749591713515
 20
2227.3892946243918
 30
0.0
 40
10.0
 50
0.0
 51
90.0
  0
ARC
  5
17B8
  8
0
 10
1351.749591713515
 20
2227.3892946243918
 30
0.0
 40
10.0
 50
90.0
 51
180.0
  0
ARC
  5
17B9
  8
0
 10
1351.749591713515
 20
2107.3892946243918
 30
0.0
 40
10.0
 50
180.00000000000011
 51
270.0
  0
ARC
  5
17BA
  8
0
 10
1487.749591713515
 20
2107.3892946243918
 30
0.0
 40
10.0
 50
270.0
 51
0.0
  0
ARC
  5
17BB
  8
0
 10
1507.749591713515
 20
2137.3892946243932
 30
0.0
 40
10.0
 50
90.0
 51
180.0
  0
CIRCLE
  5
17BE
  8
0
 10
1584.749591713515
 20
2282.3894642575701
 30
0.0
 40
20.0
  0
CIRCLE
  5
17C1
  8
0
 10
1664.749591713515
 20
2152.3894642575701
 30
0.0
 40
20.0
  0
CIRCLE
  5
17C5
  8
0
 10
1687.749591713515
 20
2114.3894642575701
 30
0.0
 40
4.0
  0
CIRCLE
  5
17C8
  8
0
 10
1627.749591713515
 20
2242.3894642575701
 30
0.0
 40
4.0
  0
CIRCLE
  5
17CC
  8
0
 10
1134.7495917135129
 20
2122.3894642575701
 30
0.0
 40
8.0
  0
CIRCLE
  5
17D0
  8
0
 10
1344.749591713515
 20
2252.3894642575701
 30
0.0
 40
4.0
  0
CIRCLE
  5
17D1
  8
0
 10
1419.749591713515
 20
2252.3894642575701
 30
0.0
 40
4.0
  0
CIRCLE
  5
17D2
  8
0
 10
1344.749591713515
 20
2082.3894642575701
 30
0.0
 40
4.0
  0
CIRCLE
  5
17D3
  8
0
 10
1419.749591713515
 20
2082.3894642575701
 30
0.0
 40
4.0
  0
CIRCLE
  5
17D5
  8
0
 10
1647.749591713515
 20
2114.3894642575701
 30
0.0
 40
4.0
  0
LINE
  5
1BF5
  8
0
 10
-2938.129342720249
 20
4499.486450112362
 30
0.0
 11
-2938.129342720249
 21
372.4963806809065
 31
0.0
  0
LINE
  5
1BF6
  8
0
 10
-2938.129342720249
 20
372.4963806809065
 30
0.0
 11
765.46180483556225
 21
372.4963806809065
 31
0.0
  0
LINE
  5
1BF7
  8
0
 10
765.46180483556225
 20
372.4963806809065
 30
0.0
 11
765.46180483556225
 21
4469.0289577666126
 31
0.0
  0
LINE
  5
1BF8
  8
0
 10
765.46180483556225
 20
372.4963806809065
 30
0.0
 11
4530.0174193931998
 21
372.4963806809065
 31
0.0
  0
LINE
  5
1BF9
  8
0
 10
4530.0174193931998
 20
372.4963806809065
 30
0.0
 11
4530.0174193931998
 21
4529.9439424581124
 31
0.0
  0
TEXT
  5
1BFB
  8
0
 10
-2832.7902584249991
 20
4571.275104954263
 30
0.0
 40
200.0
  1
m30
  0
TEXT
  5
1BFC
  8
0
 10
851.02598874527007
 20
4475.2383134971633
 30
0.0
 40
200.0
  1
m12
  0
CIRCLE
  5
1C05
  8
0
 10
-2370.324840774294
 20
3233.9292972882772
 30
0.0
 40
21.5
  0
LINE
  5
1C3D
  8
0
 10
-532.11996823205584
 20
-1871.467363687058
 30
0.0
 11
-532.11996823205584
 21
-1868.467363687058
 31
0.0
  0
LINE
  5
1C3E
  8
0
 10
-532.11996823205584
 20
-1868.467363687058
 30
0.0
 11
-501.63528531331042
 21
-1868.467363687058
 31
0.0
  0
ARC
  5
1C3F
  8
0
 10
-501.6352853133107
 20
-1861.967363687058
 30
0.0
 40
6.5000000000002274
 50
270.00000000000449
 51
347.533346655461
  0
LINE
  5
1C40
  8
0
 10
-495.28854353824278
 20
-1863.370527555109
 30
0.0
 11
-488.6956841602024
 21
-1833.5499364007439
 31
0.0
  0
ARC
  5
1C41
  8
0
 10
-469.16724792922332
 20
-1837.867363687066
 30
0.0
 40
20.00000000000243
 50
20.389060103114002
 51
167.5333466554375
  0
ARC
  5
1C42
  8
0
 10
-625.61996823203265
 20
-1766.96736368706
 30
0.0
 40
186.4999999999774
 50
339.95246282997942
 51
20.04753717001574
  0
ARC
  5
1C43
  8
0
 10
-469.16724792921781
 20
-1696.0673636870581
 30
0.0
 40
20.000000000006299
 50
192.4666533445419
 51
339.61093989685747
  0
LINE
  5
1C44
  8
0
 10
-488.69568416020252
 20
-1700.3847909733729
 30
0.0
 11
-495.28854353824357
 21
-1670.5641998190049
 31
0.0
  0
ARC
  5
1C45
  8
0
 10
-501.63528531331042
 20
-1671.9673636870571
 30
0.0
 40
6.4999999999990701
 50
12.466653344543159
 51
90.000000000000469
  0
LINE
  5
1C46
  8
0
 10
-501.63528531331042
 20
-1665.467363687058
 30
0.0
 11
-532.11996823205584
 21
-1665.467363687058
 31
0.0
  0
LINE
  5
1C47
  8
0
 10
-532.11996823205584
 20
-1665.467363687058
 30
0.0
 11
-532.11996823205584
 21
-1868.467363687058
 31
0.0
  0
LINE
  5
1C48
  8
0
 10
-532.11996823205584
 20
-1868.467363687058
 30
0.0
 11
-562.60465115080183
 21
-1868.467363687058
 31
0.0
  0
ARC
  5
1C49
  8
0
 10
-562.60465115080081
 20
-1861.9673636870591
 30
0.0
 40
6.4999999999995444
 50
192.4666533445338
 51
269.99999999999199
  0
LINE
  5
1C4A
  8
0
 10
-568.95139292586873
 20
-1863.370527555109
 30
0.0
 11
-575.54425230390916
 21
-1833.5499364007439
 31
0.0
  0
ARC
  5
1C4B
  8
0
 10
-595.07268853489506
 20
-1837.8673636870581
 30
0.0
 40
20.000000000006938
 50
12.466653344534279
 51
159.6109398968573
  0
ARC
  5
1C4C
  8
0
 10
-438.61996823204828
 20
-1766.967363687058
 30
0.0
 40
186.50000000000651
 50
159.95246282998741
 51
200.04753717001151
  0
ARC
  5
1C4D
  8
0
 10
-595.07268853489347
 20
-1696.0673636870581
 30
0.0
 40
20.000000000006189
 50
200.38906010313571
 51
347.5333466554593
  0
LINE
  5
1C4E
  8
0
 10
-575.54425230390905
 20
-1700.3847909733729
 30
0.0
 11
-568.95139292586805
 21
-1670.5641998190049
 31
0.0
  0
ARC
  5
1C4F
  8
0
 10
-562.60465115080081
 20
-1671.967363687058
 30
0.0
 40
6.4999999999996589
 50
90.000000000001009
 51
167.53334665545179
  0
LINE
  5
1C50
  8
0
 10
-562.60465115080081
 20
-1665.467363687058
 30
0.0
 11
-532.11996823205584
 21
-1665.467363687058
 31
0.0
  0
LINE
  5
1C51
  8
0
 10
-532.11996823205584
 20
-1665.467363687058
 30
0.0
 11
-532.11996823205584
 21
-1631.845385853057
 31
0.0
  0
LINE
  5
1C52
  8
0
 10
-532.11996823205584
 20
-2111.0893415210599
 30
0.0
 11
-532.11996823205584
 21
-2108.0893415210589
 31
0.0
  0
LINE
  5
1C53
  8
0
 10
-532.11996823205584
 20
-2108.0893415210589
 30
0.0
 11
-501.63528531331042
 21
-2108.0893415210589
 31
0.0
  0
ARC
  5
1C54
  8
0
 10
-501.63528531331042
 20
-2101.5893415210599
 30
0.0
 40
6.4999999999995444
 50
269.99999999999949
 51
347.53334665545822
  0
LINE
  5
1C55
  8
0
 10
-495.28854353824278
 20
-2102.992505389112
 30
0.0
 11
-488.6956841602024
 21
-2073.1719142347461
 31
0.0
  0
ARC
  5
1C56
  8
0
 10
-469.16724792922309
 20
-2077.4893415210672
 30
0.0
 40
20.000000000002501
 50
20.389060103115391
 51
167.53334665543881
  0
ARC
  5
1C57
  8
0
 10
-625.61996823203185
 20
-2006.589341521061
 30
0.0
 40
186.49999999997689
 50
339.95246282997942
 51
20.04753717001574
  0
ARC
  5
1C58
  8
0
 10
-469.16724792921781
 20
-1935.689341521057
 30
0.0
 40
20.000000000006299
 50
192.4666533445419
 51
339.61093989685747
  0
LINE
  5
1C59
  8
0
 10
-488.69568416020252
 20
-1940.006768807375
 30
0.0
 11
-495.28854353824357
 21
-1910.1861776530061
 31
0.0
  0
ARC
  5
1C5A
  8
0
 10
-501.63528531331042
 20
-1911.589341521058
 30
0.0
 40
6.4999999999990701
 50
12.466653344543159
 51
90.000000000000469
  0
LINE
  5
1C5B
  8
0
 10
-501.63528531331042
 20
-1905.089341521058
 30
0.0
 11
-532.11996823205584
 21
-1905.089341521058
 31
0.0
  0
LINE
  5
1C5C
  8
0
 10
-532.11996823205584
 20
-1905.089341521058
 30
0.0
 11
-532.11996823205584
 21
-2108.0893415210589
 31
0.0
  0
LINE
  5
1C5D
  8
0
 10
-532.11996823205584
 20
-2108.0893415210589
 30
0.0
 11
-562.60465115080183
 21
-2108.0893415210589
 31
0.0
  0
ARC
  5
1C5E
  8
0
 10
-562.60465115080149
 20
-2101.5893415210599
 30
0.0
 40
6.499999999999087
 50
192.4666533445388
 51
269.99999999999699
  0
LINE
  5
1C5F
  8
0
 10
-568.95139292586873
 20
-2102.992505389112
 30
0.0
 11
-575.54425230390916
 21
-2073.1719142347461
 31
0.0
  0
ARC
  5
1C60
  8
0
 10
-595.07268853489506
 20
-2077.489341521059
 30
0.0
 40
20.000000000006938
 50
12.466653344534279
 51
159.61093989685611
  0
ARC
  5
1C61
  8
0
 10
-438.61996823204828
 20
-2006.5893415210589
 30
0.0
 40
186.50000000000651
 50
159.95246282998741
 51
200.04753717001151
  0
ARC
  5
1C62
  8
0
 10
-595.07268853489347
 20
-1935.6893415210591
 30
0.0
 40
20.000000000006189
 50
200.38906010313571
 51
347.5333466554593
  0
LINE
  5
1C63
  8
0
 10
-575.54425230390905
 20
-1940.006768807375
 30
0.0
 11
-568.95139292586805
 21
-1910.1861776530061
 31
0.0
  0
ARC
  5
1C64
  8
0
 10
-562.60465115080081
 20
-1911.5893415210589
 30
0.0
 40
6.4999999999996589
 50
90.000000000001009
 51
167.53334665545179
  0
LINE
  5
1C65
  8
0
 10
-562.60465115080081
 20
-1905.089341521058
 30
0.0
 11
-532.11996823205584
 21
-1905.089341521058
 31
0.0
  0
LINE
  5
1C66
  8
0
 10
-532.11996823205584
 20
-1905.089341521058
 30
0.0
 11
-532.11996823205584
 21
-1871.467363687058
 31
0.0
  0
LINE
  5
1C67
  8
0
 10
-532.11996823205584
 20
-2350.7113193550608
 30
0.0
 11
-532.11996823205584
 21
-2347.7113193550599
 31
0.0
  0
LINE
  5
1C68
  8
0
 10
-532.11996823205584
 20
-2347.7113193550599
 30
0.0
 11
-501.63528531331042
 21
-2347.7113193550599
 31
0.0
  0
ARC
  5
1C69
  8
0
 10
-501.63528531331042
 20
-2341.2113193550599
 30
0.0
 40
6.5
 50
270.00000000000199
 51
347.53334665545862
  0
LINE
  5
1C6A
  8
0
 10
-495.28854353824278
 20
-2342.614483223113
 30
0.0
 11
-488.6956841602024
 21
-2312.7938920687461
 31
0.0
  0
ARC
  5
1C6B
  8
0
 10
-469.16724792922309
 20
-2317.1113193550682
 30
0.0
 40
20.000000000002501
 50
20.389060103115391
 51
167.53334665543881
  0
ARC
  5
1C6C
  8
0
 10
-625.61996823203185
 20
-2246.2113193550631
 30
0.0
 40
186.49999999997681
 50
339.95246282997942
 51
20.047537170015801
  0
ARC
  5
1C6D
  8
0
 10
-469.16724792921781
 20
-2175.3113193550598
 30
0.0
 40
20.000000000006271
 50
192.46665334454269
 51
339.61093989685799
  0
LINE
  5
1C6E
  8
0
 10
-488.69568416020252
 20
-2179.628746641376
 30
0.0
 11
-495.28854353824357
 21
-2149.8081554870059
 31
0.0
  0
ARC
  5
1C6F
  8
0
 10
-501.63528531331002
 20
-2151.211319355059
 30
0.0
 40
6.4999999999986144
 50
12.466653344548151
 51
90.0000000000055
  0
LINE
  5
1C70
  8
0
 10
-501.63528531331042
 20
-2144.7113193550599
 30
0.0
 11
-532.11996823205584
 21
-2144.7113193550599
 31
0.0
  0
LINE
  5
1C71
  8
0
 10
-532.11996823205584
 20
-2144.7113193550599
 30
0.0
 11
-532.11996823205584
 21
-2347.7113193550599
 31
0.0
  0
LINE
  5
1C72
  8
0
 10
-532.11996823205584
 20
-2347.7113193550599
 30
0.0
 11
-562.60465115080183
 21
-2347.7113193550599
 31
0.0
  0
ARC
  5
1C73
  8
0
 10
-562.60465115080115
 20
-2341.2113193550608
 30
0.0
 40
6.4999999999995444
 50
192.4666533445382
 51
269.999999999995
  0
LINE
  5
1C74
  8
0
 10
-568.95139292586873
 20
-2342.614483223113
 30
0.0
 11
-575.54425230390916
 21
-2312.7938920687461
 31
0.0
  0
ARC
  5
1C75
  8
0
 10
-595.07268853489506
 20
-2317.11131935506
 30
0.0
 40
20.000000000006938
 50
12.466653344534279
 51
159.61093989685611
  0
ARC
  5
1C76
  8
0
 10
-438.61996823204669
 20
-2246.211319355059
 30
0.0
 40
186.5000000000087
 50
159.95246282998761
 51
200.04753717001159
  0
ARC
  5
1C77
  8
0
 10
-595.07268853489325
 20
-2175.3113193550589
 30
0.0
 40
20.000000000006281
 50
200.38906010313349
 51
347.53334665545577
  0
LINE
  5
1C78
  8
0
 10
-575.54425230390905
 20
-2179.628746641376
 30
0.0
 11
-568.95139292586805
 21
-2149.8081554870059
 31
0.0
  0
ARC
  5
1C79
  8
0
 10
-562.60465115080115
 20
-2151.2113193550599
 30
0.0
 40
6.4999999999992522
 50
89.999999999996007
 51
167.5333466554448
  0
LINE
  5
1C7A
  8
0
 10
-562.60465115080081
 20
-2144.7113193550599
 30
0.0
 11
-532.11996823205584
 21
-2144.7113193550599
 31
0.0
  0
LINE
  5
1C7B
  8
0
 10
-532.11996823205584
 20
-2144.7113193550599
 30
0.0
 11
-532.11996823205584
 21
-2111.0893415210599
 31
0.0
  0
LINE
  5
1C7C
  8
0
 10
-532.11996823205584
 20
-2590.3332971890609
 30
0.0
 11
-532.11996823205584
 21
-2587.3332971890618
 31
0.0
  0
LINE
  5
1C7D
  8
0
 10
-532.11996823205584
 20
-2587.3332971890618
 30
0.0
 11
-501.63528531331042
 21
-2587.3332971890618
 31
0.0
  0
ARC
  5
1C7E
  8
0
 10
-501.63528531331121
 20
-2580.8332971890609
 30
0.0
 40
6.5
 50
270.00000000000699
 51
347.53334665546748
  0
LINE
  5
1C7F
  8
0
 10
-495.28854353824278
 20
-2582.236461057113
 30
0.0
 11
-488.6956841602024
 21
-2552.415869902748
 31
0.0
  0
ARC
  5
1C80
  8
0
 10
-469.16724792922281
 20
-2556.7332971890701
 30
0.0
 40
20.000000000002551
 50
20.389060103116659
 51
167.53334665543889
  0
ARC
  5
1C81
  8
0
 10
-625.61996823203185
 20
-2485.8332971890632
 30
0.0
 40
186.49999999997681
 50
339.95246282997942
 51
20.047537170015801
  0
ARC
  5
1C82
  8
0
 10
-469.16724792921781
 20
-2414.9332971890608
 30
0.0
 40
20.000000000006221
 50
192.46665334454141
 51
339.61093989685799
  0
LINE
  5
1C83
  8
0
 10
-488.69568416020252
 20
-2419.250724475377
 30
0.0
 11
-495.28854353824357
 21
-2389.4301333210069
 31
0.0
  0
ARC
  5
1C84
  8
0
 10
-501.63528531331002
 20
-2390.83329718906
 30
0.0
 40
6.4999999999986144
 50
12.466653344548151
 51
90.0000000000055
  0
LINE
  5
1C85
  8
0
 10
-501.63528531331042
 20
-2384.3332971890618
 30
0.0
 11
-532.11996823205584
 21
-2384.3332971890618
 31
0.0
  0
LINE
  5
1C86
  8
0
 10
-532.11996823205584
 20
-2384.3332971890618
 30
0.0
 11
-532.11996823205584
 21
-2587.3332971890618
 31
0.0
  0
LINE
  5
1C87
  8
0
 10
-532.11996823205584
 20
-2587.3332971890618
 30
0.0
 11
-562.60465115080183
 21
-2587.3332971890618
 31
0.0
  0
ARC
  5
1C88
  8
0
 10
-562.60465115080081
 20
-2580.8332971890618
 30
0.0
 40
6.4999999999995444
 50
192.4666533445295
 51
269.99999999999
  0
LINE
  5
1C89
  8
0
 10
-568.95139292586873
 20
-2582.236461057113
 30
0.0
 11
-575.54425230390916
 21
-2552.415869902748
 31
0.0
  0
ARC
  5
1C8A
  8
0
 10
-595.07268853489506
 20
-2556.733297189061
 30
0.0
 40
20.00000000000696
 50
12.46665334453294
 51
159.610939896856
  0
ARC
  5
1C8B
  8
0
 10
-438.6199682320497
 20
-2485.8332971890618
 30
0.0
 40
186.5000000000052
 50
159.9524628299875
 51
200.04753717001159
  0
ARC
  5
1C8C
  8
0
 10
-595.07268853489359
 20
-2414.9332971890608
 30
0.0
 40
20.000000000006331
 50
200.38906010313769
 51
347.53334665545998
  0
LINE
  5
1C8D
  8
0
 10
-575.54425230390905
 20
-2419.250724475377
 30
0.0
 11
-568.95139292586805
 21
-2389.4301333210069
 31
0.0
  0
ARC
  5
1C8E
  8
0
 10
-562.60465115080115
 20
-2390.8332971890609
 30
0.0
 40
6.4999999999992522
 50
89.999999999996007
 51
167.5333466554448
  0
LINE
  5
1C8F
  8
0
 10
-562.60465115080081
 20
-2384.3332971890618
 30
0.0
 11
-532.11996823205584
 21
-2384.3332971890618
 31
0.0
  0
LINE
  5
1C90
  8
0
 10
-532.11996823205584
 20
-2384.3332971890618
 30
0.0
 11
-532.11996823205584
 21
-2350.7113193550608
 31
0.0
  0
LINE
  5
1C91
  8
0
 10
-532.11996823205584
 20
-2829.9552750230619
 30
0.0
 11
-532.11996823205584
 21
-2826.9552750230619
 31
0.0
  0
LINE
  5
1C92
  8
0
 10
-532.11996823205584
 20
-2826.9552750230619
 30
0.0
 11
-501.63528531331042
 21
-2826.9552750230619
 31
0.0
  0
ARC
  5
1C93
  8
0
 10
-501.63528531331002
 20
-2820.4552750230619
 30
0.0
 40
6.499999999999087
 50
269.99999999999699
 51
347.53334665545748
  0
LINE
  5
1C94
  8
0
 10
-495.28854353824278
 20
-2821.8584388911149
 30
0.0
 11
-488.6956841602024
 21
-2792.0378477367481
 31
0.0
  0
ARC
  5
1C95
  8
0
 10
-469.16724792922281
 20
-2796.3552750230692
 30
0.0
 40
20.000000000002451
 50
20.38906010311544
 51
167.5333466554402
  0
ARC
  5
1C96
  8
0
 10
-625.61996823203151
 20
-2725.4552750230619
 30
0.0
 40
186.49999999997621
 50
339.95246282997942
 51
20.04753717001574
  0
ARC
  5
1C97
  8
0
 10
-469.16724792921781
 20
-2654.5552750230609
 30
0.0
 40
20.00000000000632
 50
192.466653344544
 51
339.61093989685821
  0
LINE
  5
1C98
  8
0
 10
-488.69568416020252
 20
-2658.872702309377
 30
0.0
 11
-495.28854353824357
 21
-2629.0521111550088
 31
0.0
  0
ARC
  5
1C99
  8
0
 10
-501.63528531331059
 20
-2630.4552750230609
 30
0.0
 40
6.4999999999992468
 50
12.466653344538701
 51
89.999999999997996
  0
LINE
  5
1C9A
  8
0
 10
-501.63528531331042
 20
-2623.9552750230619
 30
0.0
 11
-532.11996823205584
 21
-2623.9552750230619
 31
0.0
  0
LINE
  5
1C9B
  8
0
 10
-532.11996823205584
 20
-2623.9552750230619
 30
0.0
 11
-532.11996823205584
 21
-2826.9552750230619
 31
0.0
  0
LINE
  5
1C9C
  8
0
 10
-532.11996823205584
 20
-2826.9552750230619
 30
0.0
 11
-562.60465115080183
 21
-2826.9552750230619
 31
0.0
  0
ARC
  5
1C9D
  8
0
 10
-562.60465115080183
 20
-2820.4552750230632
 30
0.0
 40
6.4999999999986331
 50
192.46665334453951
 51
270.0
  0
LINE
  5
1C9E
  8
0
 10
-568.95139292586873
 20
-2821.8584388911149
 30
0.0
 11
-575.54425230390916
 21
-2792.0378477367481
 31
0.0
  0
ARC
  5
1C9F
  8
0
 10
-595.07268853489484
 20
-2796.3552750230619
 30
0.0
 40
20.000000000006931
 50
12.46665334453562
 51
159.61093989685739
  0
ARC
  5
1CA0
  8
0
 10
-438.61996823204828
 20
-2725.4552750230619
 30
0.0
 40
186.50000000000671
 50
159.9524628299875
 51
200.04753717001159
  0
ARC
  5
1CA1
  8
0
 10
-595.07268853489347
 20
-2654.5552750230622
 30
0.0
 40
20.000000000006121
 50
200.38906010313511
 51
347.53334665545992
  0
LINE
  5
1CA2
  8
0
 10
-575.54425230390905
 20
-2658.872702309377
 30
0.0
 11
-568.95139292586805
 21
-2629.0521111550088
 31
0.0
  0
ARC
  5
1CA3
  8
0
 10
-562.60465115080035
 20
-2630.4552750230619
 30
0.0
 40
6.4999999999999432
 50
90.000000000004036
 51
167.53334665545441
  0
LINE
  5
1CA4
  8
0
 10
-562.60465115080081
 20
-2623.9552750230619
 30
0.0
 11
-532.11996823205584
 21
-2623.9552750230619
 31
0.0
  0
LINE
  5
1CA5
  8
0
 10
-532.11996823205584
 20
-2623.9552750230619
 30
0.0
 11
-532.11996823205584
 21
-2590.3332971890609
 31
0.0
  0
LINE
  5
1CA6
  8
0
 10
-396.01168055774832
 20
-2980.463350984543
 30
0.0
 11
-396.01168055774832
 21
-3071.704228393688
 31
0.0
  0
LINE
  5
1CA7
  8
0
 10
-396.01168055774832
 20
-3071.704228393688
 30
0.0
 11
-532.11996823205584
 21
-3069.5772528570628
 31
0.0
  0
LINE
  5
1CA8
  8
0
 10
-532.11996823205584
 20
-3069.5772528570628
 30
0.0
 11
-532.11996823205584
 21
-3066.5772528570619
 31
0.0
  0
LINE
  5
1CA9
  8
0
 10
-532.11996823205584
 20
-3066.5772528570619
 30
0.0
 11
-501.63528531331042
 21
-3066.5772528570619
 31
0.0
  0
ARC
  5
1CAA
  8
0
 10
-501.63528531331042
 20
-3060.0772528570628
 30
0.0
 40
6.4999999999995444
 50
269.99999999999949
 51
347.53334665545822
  0
LINE
  5
1CAB
  8
0
 10
-495.28854353824278
 20
-3061.480416725115
 30
0.0
 11
-488.6956841602024
 21
-3031.659825570749
 31
0.0
  0
ARC
  5
1CAC
  8
0
 10
-469.16724792922309
 20
-3035.9772528570702
 30
0.0
 40
20.000000000002501
 50
20.389060103115391
 51
167.53334665543881
  0
ARC
  5
1CAD
  8
0
 10
-625.61996823203185
 20
-2965.0772528570642
 30
0.0
 40
186.49999999997681
 50
339.95246282997942
 51
20.047537170015801
  0
ARC
  5
1CAE
  8
0
 10
-469.16724792921781
 20
-2894.1772528570618
 30
0.0
 40
20.00000000000632
 50
192.4666533445413
 51
339.61093989685679
  0
LINE
  5
1CAF
  8
0
 10
-488.69568416020252
 20
-2898.4946801433771
 30
0.0
 11
-495.28854353824357
 21
-2868.6740889890111
 31
0.0
  0
ARC
  5
1CB0
  8
0
 10
-501.63528531331048
 20
-2870.0772528570619
 30
0.0
 40
6.4999999999991953
 50
12.466653344538811
 51
89.999999999998494
  0
LINE
  5
1CB1
  8
0
 10
-501.63528531331042
 20
-2863.5772528570628
 30
0.0
 11
-532.11996823205584
 21
-2863.5772528570628
 31
0.0
  0
LINE
  5
1CB2
  8
0
 10
-532.11996823205584
 20
-2863.5772528570628
 30
0.0
 11
-532.11996823205584
 21
-3066.5772528570619
 31
0.0
  0
LINE
  5
1CB3
  8
0
 10
-532.11996823205584
 20
-3066.5772528570619
 30
0.0
 11
-562.60465115080183
 21
-3066.5772528570619
 31
0.0
  0
ARC
  5
1CB4
  8
0
 10
-562.60465115080149
 20
-3060.0772528570628
 30
0.0
 40
6.499999999999087
 50
192.4666533445388
 51
269.99999999999699
  0
LINE
  5
1CB5
  8
0
 10
-568.95139292586873
 20
-3061.480416725115
 30
0.0
 11
-575.54425230390916
 21
-3031.659825570749
 31
0.0
  0
ARC
  5
1CB6
  8
0
 10
-595.07268853489506
 20
-3035.977252857062
 30
0.0
 40
20.000000000006938
 50
12.466653344534279
 51
159.61093989685611
  0
ARC
  5
1CB7
  8
0
 10
-438.61996823204788
 20
-2965.0772528570619
 30
0.0
 40
186.50000000000711
 50
159.95246282998741
 51
200.04753717001151
  0
ARC
  5
1CB8
  8
0
 10
-595.07268853489347
 20
-2894.1772528570618
 30
0.0
 40
20.000000000006271
 50
200.3890601031363
 51
347.53334665545862
  0
LINE
  5
1CB9
  8
0
 10
-575.54425230390905
 20
-2898.4946801433771
 30
0.0
 11
-568.95139292586805
 21
-2868.6740889890111
 31
0.0
  0
ARC
  5
1CBA
  8
0
 10
-562.60465115080035
 20
-2870.0772528570628
 30
0.0
 40
6.4999999999998321
 50
90.000000000003013
 51
167.53334665545421
  0
LINE
  5
1CBB
  8
0
 10
-562.60465115080081
 20
-2863.5772528570628
 30
0.0
 11
-532.11996823205584
 21
-2863.5772528570628
 31
0.0
  0
LINE
  5
1CBC
  8
0
 10
-532.11996823205584
 20
-2863.5772528570628
 30
0.0
 11
-532.11996823205584
 21
-2829.9552750230619
 31
0.0
  0
LINE
  5
1CBD
  8
0
 10
-396.01168055774832
 20
-2740.8413731505429
 30
0.0
 11
-396.01168055774832
 21
-2743.8413731505429
 31
0.0
  0
LINE
  5
1CBE
  8
0
 10
-396.01168055774832
 20
-2743.8413731505429
 30
0.0
 11
-365.52699763900313
 21
-2743.8413731505429
 31
0.0
  0
ARC
  5
1CBF
  8
0
 10
-365.5269976390033
 20
-2750.3413731505439
 30
0.0
 40
6.5
 50
12.466653344537081
 51
89.999999999998494
  0
LINE
  5
1CC0
  8
0
 10
-359.1802558639352
 20
-2748.9382092824908
 30
0.0
 11
-352.58739648589483
 21
-2778.7588004368572
 31
0.0
  0
ARC
  5
1CC1
  8
0
 10
-333.05896025491552
 20
-2774.4413731505351
 30
0.0
 40
20.000000000002441
 50
192.46665334456111
 51
339.61093989688601
  0
ARC
  5
1CC2
  8
0
 10
-489.51168055772462
 20
-2845.3413731505411
 30
0.0
 40
186.49999999997689
 50
339.95246282998397
 51
20.047537170020561
  0
ARC
  5
1CC3
  8
0
 10
-333.05896025491057
 20
-2916.241373150544
 30
0.0
 40
20.000000000006541
 50
20.38906010314302
 51
167.53334665545739
  0
LINE
  5
1CC4
  8
0
 10
-352.58739648589523
 20
-2911.9239458642278
 30
0.0
 11
-359.18025586393622
 21
-2941.7445370185951
 31
0.0
  0
ARC
  5
1CC5
  8
0
 10
-365.52699763900341
 20
-2940.3413731505429
 30
0.0
 40
6.4999999999991394
 50
270.00000000000148
 51
347.533346655461
  0
LINE
  5
1CC6
  8
0
 10
-365.52699763900318
 20
-2946.841373150542
 30
0.0
 11
-396.01168055774832
 21
-2946.841373150542
 31
0.0
  0
LINE
  5
1CC7
  8
0
 10
-396.01168055774832
 20
-2946.841373150542
 30
0.0
 11
-396.01168055774832
 21
-2743.8413731505429
 31
0.0
  0
LINE
  5
1CC8
  8
0
 10
-396.01168055774832
 20
-2743.8413731505429
 30
0.0
 11
-426.49636347649403
 21
-2743.8413731505429
 31
0.0
  0
ARC
  5
1CC9
  8
0
 10
-426.49636347649351
 20
-2750.341373150542
 30
0.0
 40
6.4999999999995444
 50
90.000000000004036
 51
167.53334665546581
  0
LINE
  5
1CCA
  8
0
 10
-432.84310525156121
 20
-2748.9382092824908
 30
0.0
 11
-439.43596462960159
 21
-2778.7588004368572
 31
0.0
  0
ARC
  5
1CCB
  8
0
 10
-458.96440086058709
 20
-2774.4413731505442
 30
0.0
 40
20.00000000000685
 50
200.3890601031427
 51
347.53334665546708
  0
ARC
  5
1CCC
  8
0
 10
-302.5116805577415
 20
-2845.3413731505439
 30
0.0
 40
186.500000000006
 50
159.95246282998841
 51
200.04753717001259
  0
ARC
  5
1CCD
  8
0
 10
-458.96440086058578
 20
-2916.241373150543
 30
0.0
 40
20.000000000006121
 50
12.466653344540109
 51
159.61093989686481
  0
LINE
  5
1CCE
  8
0
 10
-439.43596462960141
 20
-2911.9239458642278
 30
0.0
 11
-432.8431052515603
 21
-2941.7445370185951
 31
0.0
  0
ARC
  5
1CCF
  8
0
 10
-426.49636347649277
 20
-2940.3413731505429
 30
0.0
 40
6.4999999999995151
 50
192.46665334454221
 51
269.99999999999648
  0
LINE
  5
1CD0
  8
0
 10
-426.49636347649317
 20
-2946.841373150542
 30
0.0
 11
-396.01168055774832
 21
-2946.841373150542
 31
0.0
  0
LINE
  5
1CD1
  8
0
 10
-396.01168055774832
 20
-2946.841373150542
 30
0.0
 11
-396.01168055774832
 21
-2980.463350984543
 31
0.0
  0
LINE
  5
1CD2
  8
0
 10
-396.01168055774832
 20
-2501.2193953165429
 30
0.0
 11
-396.01168055774832
 21
-2504.219395316542
 31
0.0
  0
LINE
  5
1CD3
  8
0
 10
-396.01168055774832
 20
-2504.219395316542
 30
0.0
 11
-365.52699763900313
 21
-2504.219395316542
 31
0.0
  0
ARC
  5
1CD4
  8
0
 10
-365.52699763900313
 20
-2510.719395316542
 30
0.0
 40
6.5
 50
12.466653344541539
 51
90.000000000001009
  0
LINE
  5
1CD5
  8
0
 10
-359.1802558639352
 20
-2509.3162314484889
 30
0.0
 11
-352.58739648589483
 21
-2539.1368226028558
 31
0.0
  0
ARC
  5
1CD6
  8
0
 10
-333.05896025491552
 20
-2534.8193953165351
 30
0.0
 40
20.000000000002501
 50
192.46665334456111
 51
339.6109398968847
  0
ARC
  5
1CD7
  8
0
 10
-489.51168055772388
 20
-2605.7193953165411
 30
0.0
 40
186.4999999999763
 50
339.95246282998431
 51
20.047537170020629
  0
ARC
  5
1CD8
  8
0
 10
-333.05896025491069
 20
-2676.619395316543
 30
0.0
 40
20.00000000000664
 50
20.38906010314291
 51
167.53334665545481
  0
LINE
  5
1CD9
  8
0
 10
-352.58739648589523
 20
-2672.3019680302259
 30
0.0
 11
-359.18025586393622
 21
-2702.1225591845941
 31
0.0
  0
ARC
  5
1CDA
  8
0
 10
-365.52699763900398
 20
-2700.7193953165429
 30
0.0
 40
6.4999999999995932
 50
270.00000000000648
 51
347.53334665546612
  0
LINE
  5
1CDB
  8
0
 10
-365.52699763900318
 20
-2707.219395316542
 30
0.0
 11
-396.01168055774832
 21
-2707.219395316542
 31
0.0
  0
LINE
  5
1CDC
  8
0
 10
-396.01168055774832
 20
-2707.219395316542
 30
0.0
 11
-396.01168055774832
 21
-2504.219395316542
 31
0.0
  0
LINE
  5
1CDD
  8
0
 10
-396.01168055774832
 20
-2504.219395316542
 30
0.0
 11
-426.49636347649403
 21
-2504.219395316542
 31
0.0
  0
ARC
  5
1CDE
  8
0
 10
-426.4963634764938
 20
-2510.7193953165411
 30
0.0
 40
6.4999999999995444
 50
90.000000000001506
 51
167.5333466554614
  0
LINE
  5
1CDF
  8
0
 10
-432.84310525156121
 20
-2509.3162314484889
 30
0.0
 11
-439.43596462960159
 21
-2539.1368226028558
 31
0.0
  0
ARC
  5
1CE0
  8
0
 10
-458.96440086058738
 20
-2534.8193953165442
 30
0.0
 40
20.00000000000686
 50
200.389060103144
 51
347.53334665546822
  0
ARC
  5
1CE1
  8
0
 10
-302.51168055774269
 20
-2605.7193953165429
 30
0.0
 40
186.5000000000048
 50
159.95246282998841
 51
200.0475371700125
  0
ARC
  5
1CE2
  8
0
 10
-458.96440086058573
 20
-2676.6193953165421
 30
0.0
 40
20.000000000006281
 50
12.46665334454276
 51
159.61093989686501
  0
LINE
  5
1CE3
  8
0
 10
-439.43596462960141
 20
-2672.3019680302259
 30
0.0
 11
-432.8431052515603
 21
-2702.1225591845941
 31
0.0
  0
ARC
  5
1CE4
  8
0
 10
-426.49636347649232
 20
-2700.7193953165429
 30
0.0
 40
6.4999999999999689
 50
192.46665334453721
 51
269.99999999999147
  0
LINE
  5
1CE5
  8
0
 10
-426.49636347649317
 20
-2707.219395316542
 30
0.0
 11
-396.01168055774832
 21
-2707.219395316542
 31
0.0
  0
LINE
  5
1CE6
  8
0
 10
-396.01168055774832
 20
-2707.219395316542
 30
0.0
 11
-396.01168055774832
 21
-2740.8413731505429
 31
0.0
  0
LINE
  5
1CE7
  8
0
 10
-396.01168055774832
 20
-2261.597417482541
 30
0.0
 11
-396.01168055774832
 21
-2264.5974174825419
 31
0.0
  0
LINE
  5
1CE8
  8
0
 10
-396.01168055774832
 20
-2264.5974174825419
 30
0.0
 11
-365.52699763900313
 21
-2264.5974174825419
 31
0.0
  0
ARC
  5
1CE9
  8
0
 10
-365.52699763900313
 20
-2271.0974174825419
 30
0.0
 40
6.5
 50
12.466653344541539
 51
90.000000000001009
  0
LINE
  5
1CEA
  8
0
 10
-359.1802558639352
 20
-2269.6942536144888
 30
0.0
 11
-352.58739648589483
 21
-2299.5148447688539
 31
0.0
  0
ARC
  5
1CEB
  8
0
 10
-333.05896025491529
 20
-2295.1974174825332
 30
0.0
 40
20.000000000002512
 50
192.46665334455969
 51
339.61093989688339
  0
ARC
  5
1CEC
  8
0
 10
-489.51168055772462
 20
-2366.0974174825401
 30
0.0
 40
186.49999999997689
 50
339.95246282998397
 51
20.047537170020561
  0
ARC
  5
1CED
  8
0
 10
-333.05896025491057
 20
-2436.9974174825429
 30
0.0
 40
20.000000000006541
 50
20.38906010314302
 51
167.53334665545739
  0
LINE
  5
1CEE
  8
0
 10
-352.58739648589523
 20
-2432.6799901962272
 30
0.0
 11
-359.18025586393622
 21
-2462.500581350595
 31
0.0
  0
ARC
  5
1CEF
  8
0
 10
-365.52699763900279
 20
-2461.0974174825428
 30
0.0
 40
6.4999999999986811
 50
269.99999999999648
 51
347.53334665545611
  0
LINE
  5
1CF0
  8
0
 10
-365.52699763900318
 20
-2467.5974174825419
 30
0.0
 11
-396.01168055774832
 21
-2467.5974174825419
 31
0.0
  0
LINE
  5
1CF1
  8
0
 10
-396.01168055774832
 20
-2467.5974174825419
 30
0.0
 11
-396.01168055774832
 21
-2264.5974174825419
 31
0.0
  0
LINE
  5
1CF2
  8
0
 10
-396.01168055774832
 20
-2264.5974174825419
 30
0.0
 11
-426.49636347649403
 21
-2264.5974174825419
 31
0.0
  0
ARC
  5
1CF3
  8
0
 10
-426.4963634764938
 20
-2271.097417482541
 30
0.0
 40
6.4999999999995444
 50
90.000000000001506
 51
167.5333466554614
  0
LINE
  5
1CF4
  8
0
 10
-432.84310525156121
 20
-2269.6942536144888
 30
0.0
 11
-439.43596462960159
 21
-2299.5148447688539
 31
0.0
  0
ARC
  5
1CF5
  8
0
 10
-458.96440086058738
 20
-2295.1974174825409
 30
0.0
 40
20.00000000000686
 50
200.389060103144
 51
347.53334665546822
  0
ARC
  5
1CF6
  8
0
 10
-302.51168055773962
 20
-2366.0974174825419
 30
0.0
 40
186.50000000000799
 50
159.95246282998841
 51
200.0475371700125
  0
ARC
  5
1CF7
  8
0
 10
-458.96440086058573
 20
-2436.9974174825429
 30
0.0
 40
20.000000000006281
 50
12.46665334454276
 51
159.61093989686501
  0
LINE
  5
1CF8
  8
0
 10
-439.43596462960141
 20
-2432.6799901962272
 30
0.0
 11
-432.8431052515603
 21
-2462.500581350595
 31
0.0
  0
ARC
  5
1CF9
  8
0
 10
-426.49636347649317
 20
-2461.0974174825428
 30
0.0
 40
6.499999999999055
 50
192.4666533445473
 51
270.00000000000148
  0
LINE
  5
1CFA
  8
0
 10
-426.49636347649317
 20
-2467.5974174825419
 30
0.0
 11
-396.01168055774832
 21
-2467.5974174825419
 31
0.0
  0
LINE
  5
1CFB
  8
0
 10
-396.01168055774832
 20
-2467.5974174825419
 30
0.0
 11
-396.01168055774832
 21
-2501.2193953165429
 31
0.0
  0
LINE
  5
1CFC
  8
0
 10
-396.01168055774832
 20
-2021.97543964854
 30
0.0
 11
-396.01168055774832
 21
-2024.9754396485409
 31
0.0
  0
LINE
  5
1CFD
  8
0
 10
-396.01168055774832
 20
-2024.9754396485409
 30
0.0
 11
-365.52699763900313
 21
-2024.9754396485409
 31
0.0
  0
ARC
  5
1CFE
  8
0
 10
-365.52699763900313
 20
-2031.47543964854
 30
0.0
 40
6.4999999999997691
 50
12.46665334453958
 51
90.000000000001009
  0
LINE
  5
1CFF
  8
0
 10
-359.1802558639352
 20
-2030.0722757804881
 30
0.0
 11
-352.58739648589483
 21
-2059.8928669348538
 31
0.0
  0
ARC
  5
1D00
  8
0
 10
-333.05896025491569
 20
-2055.5754396485322
 30
0.0
 40
20.00000000000243
 50
192.4666533445625
 51
339.61093989688612
  0
ARC
  5
1D01
  8
0
 10
-489.51168055772581
 20
-2126.4754396485391
 30
0.0
 40
186.49999999997809
 50
339.95246282998397
 51
20.047537170020561
  0
ARC
  5
1D02
  8
0
 10
-333.05896025491057
 20
-2197.3754396485419
 30
0.0
 40
20.000000000006541
 50
20.38906010314302
 51
167.53334665545739
  0
LINE
  5
1D03
  8
0
 10
-352.58739648589523
 20
-2193.0580123622249
 30
0.0
 11
-359.18025586393622
 21
-2222.878603516594
 31
0.0
  0
ARC
  5
1D04
  8
0
 10
-365.52699763900313
 20
-2221.47543964854
 30
0.0
 40
6.4999999999988622
 50
269.99999999999898
 51
347.5333466554606
  0
LINE
  5
1D05
  8
0
 10
-365.52699763900318
 20
-2227.97543964854
 30
0.0
 11
-396.01168055774832
 21
-2227.97543964854
 31
0.0
  0
LINE
  5
1D06
  8
0
 10
-396.01168055774832
 20
-2227.97543964854
 30
0.0
 11
-396.01168055774832
 21
-2024.9754396485409
 31
0.0
  0
LINE
  5
1D07
  8
0
 10
-396.01168055774832
 20
-2024.9754396485409
 30
0.0
 11
-426.49636347649403
 21
-2024.9754396485409
 31
0.0
  0
ARC
  5
1D08
  8
0
 10
-426.4963634764938
 20
-2031.47543964854
 30
0.0
 40
6.4999999999993161
 50
90.000000000001506
 51
167.5333466554635
  0
LINE
  5
1D09
  8
0
 10
-432.84310525156121
 20
-2030.0722757804881
 30
0.0
 11
-439.43596462960159
 21
-2059.8928669348538
 31
0.0
  0
ARC
  5
1D0A
  8
0
 10
-458.96440086058709
 20
-2055.5754396485409
 30
0.0
 40
20.00000000000685
 50
200.3890601031427
 51
347.53334665546708
  0
ARC
  5
1D0B
  8
0
 10
-302.51168055774019
 20
-2126.47543964854
 30
0.0
 40
186.5000000000073
 50
159.95246282998841
 51
200.04753717001259
  0
ARC
  5
1D0C
  8
0
 10
-458.96440086058578
 20
-2197.375439648541
 30
0.0
 40
20.000000000006231
 50
12.46665334454145
 51
159.61093989686501
  0
LINE
  5
1D0D
  8
0
 10
-439.43596462960141
 20
-2193.0580123622249
 30
0.0
 11
-432.8431052515603
 21
-2222.878603516594
 31
0.0
  0
ARC
  5
1D0E
  8
0
 10
-426.49636347649317
 20
-2221.47543964854
 30
0.0
 40
6.4999999999992371
 50
192.46665334454281
 51
269.99999999999898
  0
LINE
  5
1D0F
  8
0
 10
-426.49636347649317
 20
-2227.97543964854
 30
0.0
 11
-396.01168055774832
 21
-2227.97543964854
 31
0.0
  0
LINE
  5
1D10
  8
0
 10
-396.01168055774832
 20
-2227.97543964854
 30
0.0
 11
-396.01168055774832
 21
-2261.597417482541
 31
0.0
  0
LINE
  5
1D11
  8
0
 10
-277.5179014132421
 20
-1597.5825765824161
 30
0.0
 11
-493.21768282686639
 21
-1597.5825765824161
 31
0.0
  0
LINE
  5
1D12
  8
0
 10
-493.21768282686639
 20
-1597.5825765824161
 30
0.0
 11
-493.21768282686639
 21
-1655.4650418665731
 31
0.0
  0
LINE
  5
1D13
  8
0
 10
-493.21768282686639
 20
-1655.4650418665731
 30
0.0
 11
-396.71316868865762
 21
-1732.111510432461
 31
0.0
  0
LINE
  5
1D14
  8
0
 10
-396.71316868865762
 20
-1732.111510432461
 30
0.0
 11
-396.01168055774832
 21
-1782.3534618145411
 31
0.0
  0
LINE
  5
1D15
  8
0
 10
-396.01168055774832
 20
-1782.3534618145411
 30
0.0
 11
-396.01168055774832
 21
-1785.3534618145411
 31
0.0
  0
LINE
  5
1D16
  8
0
 10
-396.01168055774832
 20
-1785.3534618145411
 30
0.0
 11
-365.52699763900313
 21
-1785.3534618145411
 31
0.0
  0
ARC
  5
1D17
  8
0
 10
-365.52699763900239
 20
-1791.85346181454
 30
0.0
 40
6.4999999999993161
 50
12.46665334454881
 51
90.000000000007489
  0
LINE
  5
1D18
  8
0
 10
-359.1802558639352
 20
-1790.4502979464869
 30
0.0
 11
-352.58739648589483
 21
-1820.270889100854
 31
0.0
  0
ARC
  5
1D19
  8
0
 10
-333.05896025491569
 20
-1815.9534618145319
 30
0.0
 40
20.00000000000243
 50
192.4666533445625
 51
339.61093989688601
  0
ARC
  5
1D1A
  8
0
 10
-489.51168055772462
 20
-1886.853461814537
 30
0.0
 40
186.49999999997681
 50
339.95246282998397
 51
20.047537170020561
  0
ARC
  5
1D1B
  8
0
 10
-333.05896025491057
 20
-1957.7534618145401
 30
0.0
 40
20.000000000006541
 50
20.38906010314302
 51
167.53334665545739
  0
LINE
  5
1D1C
  8
0
 10
-352.58739648589523
 20
-1953.436034528223
 30
0.0
 11
-359.18025586393622
 21
-1983.2566256825919
 31
0.0
  0
ARC
  5
1D1D
  8
0
 10
-365.52699763900353
 20
-1981.8534618145411
 30
0.0
 40
6.4999999999992442
 50
270.00000000000148
 51
347.53334665545918
  0
LINE
  5
1D1E
  8
0
 10
-365.5269976390033
 20
-1988.35346181454
 30
0.0
 11
-396.01168055774832
 21
-1988.35346181454
 31
0.0
  0
LINE
  5
1D1F
  8
0
 10
-396.01168055774832
 20
-1988.35346181454
 30
0.0
 11
-396.01168055774832
 21
-1785.3534618145411
 31
0.0
  0
LINE
  5
1D20
  8
0
 10
-396.01168055774832
 20
-1785.3534618145411
 30
0.0
 11
-426.49636347649403
 21
-1785.3534618145411
 31
0.0
  0
ARC
  5
1D21
  8
0
 10
-426.49636347649448
 20
-1791.85346181454
 30
0.0
 40
6.4999999999988631
 50
89.999999999994984
 51
167.53334665545421
  0
LINE
  5
1D22
  8
0
 10
-432.84310525156121
 20
-1790.4502979464869
 30
0.0
 11
-439.43596462960159
 21
-1820.270889100854
 31
0.0
  0
ARC
  5
1D23
  8
0
 10
-458.96440086058709
 20
-1815.953461814541
 30
0.0
 40
20.000000000006729
 50
200.38906010314071
 51
347.53334665546618
  0
ARC
  5
1D24
  8
0
 10
-302.51168055774087
 20
-1886.85346181454
 30
0.0
 40
186.50000000000651
 50
159.95246282998841
 51
200.04753717001259
  0
ARC
  5
1D25
  8
0
 10
-458.96440086058578
 20
-1957.7534618145401
 30
0.0
 40
20.000000000006249
 50
12.466653344540781
 51
159.61093989686429
  0
LINE
  5
1D26
  8
0
 10
-439.43596462960141
 20
-1953.436034528223
 30
0.0
 11
-432.8431052515603
 21
-1983.2566256825919
 31
0.0
  0
ARC
  5
1D27
  8
0
 10
-426.49636347649272
 20
-1981.85346181454
 30
0.0
 40
6.4999999999996732
 50
192.466653344544
 51
269.99999999999551
  0
LINE
  5
1D28
  8
0
 10
-426.49636347649317
 20
-1988.35346181454
 30
0.0
 11
-396.01168055774832
 21
-1988.35346181454
 31
0.0
  0
LINE
  5
1D29
  8
0
 10
-396.01168055774832
 20
-1988.35346181454
 30
0.0
 11
-396.01168055774832
 21
-2021.97543964854
 31
0.0
  0
LINE
  5
1D2A
  8
0
 10
-259.26429407797667
 20
-1631.8453858530579
 30
0.0
 11
-272.5179014132421
 21
-1602.5825765824161
 31
0.0
  0
LINE
  5
1D2B
  8
0
 10
-272.5179014132421
 20
-1602.5825765824161
 30
0.0
 11
-277.5179014132421
 21
-1602.5825765824161
 31
0.0
  0
LINE
  5
1D2C
  8
0
 10
-277.5179014132421
 20
-1602.5825765824161
 30
0.0
 11
-277.5179014132421
 21
-1633.0672595011611
 31
0.0
  0
ARC
  5
1D2D
  8
0
 10
-284.01790141324051
 20
-1633.0672595011611
 30
0.0
 40
6.4999999999984084
 50
282.46665334453968
 51
359.99999999999801
  0
LINE
  5
1D2E
  8
0
 10
-282.6147375451888
 20
-1639.4140012762271
 30
0.0
 11
-312.43532869955732
 21
-1646.00686065427
 31
0.0
  0
ARC
  5
1D2F
  8
0
 10
-308.11790141325048
 20
-1665.5352968852619
 30
0.0
 40
20.00000000001117
 50
102.4666533445121
 51
249.6109398968222
  0
ARC
  5
1D30
  8
0
 10
-379.01790141324398
 20
-1509.0825765825
 30
0.0
 40
186.49999999992011
 50
249.9524628299736
 51
290.047537170015
  0
ARC
  5
1D31
  8
0
 10
-449.917901413251
 20
-1665.5352968852501
 30
0.0
 40
20.00000000000297
 50
290.3890601031211
 51
77.533346655435778
  0
LINE
  5
1D32
  8
0
 10
-445.6004741269283
 20
-1646.00686065427
 30
0.0
 11
-475.4210652812946
 21
-1639.4140012762291
 31
0.0
  0
ARC
  5
1D33
  8
0
 10
-474.01790141324159
 20
-1633.0672595011611
 30
0.0
 40
6.500000000000191
 50
179.99999999999599
 51
257.5333466554539
  0
LINE
  5
1D34
  8
0
 10
-480.5179014132421
 20
-1633.0672595011611
 30
0.0
 11
-480.5179014132421
 21
-1602.5825765824161
 31
0.0
  0
LINE
  5
1D35
  8
0
 10
-480.5179014132421
 20
-1602.5825765824161
 30
0.0
 11
-277.5179014132421
 21
-1602.5825765824161
 31
0.0
  0
LINE
  5
1D36
  8
0
 10
-277.5179014132421
 20
-1602.5825765824161
 30
0.0
 11
-277.5179014132421
 21
-1597.5825765824161
 31
0.0
  0
LINE
  5
1D37
  8
0
 10
-259.26429407797667
 20
-1871.46736368706
 30
0.0
 11
-259.26429407797667
 21
-1868.46736368706
 31
0.0
  0
LINE
  5
1D38
  8
0
 10
-259.26429407797667
 20
-1868.46736368706
 30
0.0
 11
-228.77961115923151
 21
-1868.46736368706
 31
0.0
  0
ARC
  5
1D39
  8
0
 10
-228.77961115923191
 20
-1861.96736368706
 30
0.0
 40
6.5000000000002274
 50
270.00000000000369
 51
347.53334665546117
  0
LINE
  5
1D3A
  8
0
 10
-222.43286938416369
 20
-1863.370527555111
 30
0.0
 11
-215.84001000612321
 21
-1833.549936400746
 31
0.0
  0
ARC
  5
1D3B
  8
0
 10
-196.3115737751439
 20
-1837.8673636870669
 30
0.0
 40
20.000000000002419
 50
20.389060103116108
 51
167.5333466554394
  0
ARC
  5
1D3C
  8
0
 10
-352.76429407795189
 20
-1766.96736368706
 30
0.0
 40
186.49999999997561
 50
339.95246282997942
 51
20.04753717001574
  0
ARC
  5
1D3D
  8
0
 10
-196.31157377513901
 20
-1696.067363687059
 30
0.0
 40
20.00000000000632
 50
192.46665334454269
 51
339.61093989685821
  0
LINE
  5
1D3E
  8
0
 10
-215.84001000612349
 20
-1700.384790973374
 30
0.0
 11
-222.4328693841646
 21
-1670.5641998190081
 31
0.0
  0
ARC
  5
1D3F
  8
0
 10
-228.7796111592325
 20
-1671.9673636870591
 30
0.0
 40
6.4999999999997851
 50
12.46665334453561
 51
89.99999999999298
  0
LINE
  5
1D40
  8
0
 10
-228.77961115923171
 20
-1665.46736368706
 30
0.0
 11
-259.26429407797667
 21
-1665.46736368706
 31
0.0
  0
LINE
  5
1D41
  8
0
 10
-259.26429407797667
 20
-1665.46736368706
 30
0.0
 11
-259.26429407797667
 21
-1868.46736368706
 31
0.0
  0
LINE
  5
1D42
  8
0
 10
-259.26429407797667
 20
-1868.46736368706
 30
0.0
 11
-289.74897699672277
 21
-1868.46736368706
 31
0.0
  0
ARC
  5
1D43
  8
0
 10
-289.74897699672198
 20
-1861.96736368706
 30
0.0
 40
6.4999999999995444
 50
192.4666533445338
 51
269.99999999999238
  0
LINE
  5
1D44
  8
0
 10
-296.09571877178968
 20
-1863.370527555111
 30
0.0
 11
-302.68857814983022
 21
-1833.549936400746
 31
0.0
  0
ARC
  5
1D45
  8
0
 10
-322.21701438081573
 20
-1837.867363687059
 30
0.0
 40
20.000000000006839
 50
12.466653344533681
 51
159.61093989685671
  0
ARC
  5
1D46
  8
0
 10
-165.76429407796871
 20
-1766.9673636870591
 30
0.0
 40
186.50000000000711
 50
159.95246282998741
 51
200.0475371700114
  0
ARC
  5
1D47
  8
0
 10
-322.21701438081419
 20
-1696.067363687059
 30
0.0
 40
20.000000000006121
 50
200.3890601031336
 51
347.53334665545708
  0
LINE
  5
1D48
  8
0
 10
-302.68857814982988
 20
-1700.384790973374
 30
0.0
 11
-296.09571877178882
 21
-1670.5641998190081
 31
0.0
  0
ARC
  5
1D49
  8
0
 10
-289.74897699672061
 20
-1671.96736368706
 30
0.0
 40
6.5000000000001874
 50
90.000000000009521
 51
167.533346655461
  0
LINE
  5
1D4A
  8
0
 10
-289.74897699672169
 20
-1665.46736368706
 30
0.0
 11
-259.26429407797667
 21
-1665.46736368706
 31
0.0
  0
LINE
  5
1D4B
  8
0
 10
-259.26429407797667
 20
-1665.46736368706
 30
0.0
 11
-259.26429407797667
 21
-1631.8453858530579
 31
0.0
  0
LINE
  5
1D4C
  8
0
 10
-259.26429407797667
 20
-2111.0893415210599
 30
0.0
 11
-259.26429407797667
 21
-2108.0893415210589
 31
0.0
  0
LINE
  5
1D4D
  8
0
 10
-259.26429407797667
 20
-2108.0893415210589
 30
0.0
 11
-228.77961115923151
 21
-2108.0893415210589
 31
0.0
  0
ARC
  5
1D4E
  8
0
 10
-228.77961115923111
 20
-2101.5893415210599
 30
0.0
 40
6.4999999999995444
 50
269.99999999999608
 51
347.53334665545373
  0
LINE
  5
1D4F
  8
0
 10
-222.43286938416369
 20
-2102.9925053891129
 30
0.0
 11
-215.84001000612321
 21
-2073.1719142347461
 31
0.0
  0
ARC
  5
1D50
  8
0
 10
-196.31157377514401
 20
-2077.4893415210681
 30
0.0
 40
20.00000000000238
 50
20.389060103115401
 51
167.53334665543881
  0
ARC
  5
1D51
  8
0
 10
-352.76429407795302
 20
-2006.5893415210619
 30
0.0
 40
186.49999999997689
 50
339.95246282997942
 51
20.04753717001574
  0
ARC
  5
1D52
  8
0
 10
-196.31157377513881
 20
-1935.6893415210591
 30
0.0
 40
20.000000000006349
 50
192.4666533445405
 51
339.610939896856
  0
LINE
  5
1D53
  8
0
 10
-215.84001000612349
 20
-1940.006768807375
 30
0.0
 11
-222.4328693841646
 21
-1910.1861776530061
 31
0.0
  0
ARC
  5
1D54
  8
0
 10
-228.77961115923111
 20
-1911.5893415210589
 30
0.0
 40
6.4999999999986411
 50
12.466653344548099
 51
90.0000000000055
  0
LINE
  5
1D55
  8
0
 10
-228.77961115923171
 20
-1905.0893415210601
 30
0.0
 11
-259.26429407797667
 21
-1905.0893415210601
 31
0.0
  0
LINE
  5
1D56
  8
0
 10
-259.26429407797667
 20
-1905.0893415210601
 30
0.0
 11
-259.26429407797667
 21
-2108.0893415210589
 31
0.0
  0
LINE
  5
1D57
  8
0
 10
-259.26429407797667
 20
-2108.0893415210589
 30
0.0
 11
-289.74897699672277
 21
-2108.0893415210589
 31
0.0
  0
ARC
  5
1D58
  8
0
 10
-289.74897699672277
 20
-2101.5893415210612
 30
0.0
 40
6.4999999999986331
 50
192.46665334453951
 51
270.0
  0
LINE
  5
1D59
  8
0
 10
-296.09571877178968
 20
-2102.9925053891129
 30
0.0
 11
-302.68857814983022
 21
-2073.1719142347461
 31
0.0
  0
ARC
  5
1D5A
  8
0
 10
-322.21701438081573
 20
-2077.4893415210599
 30
0.0
 40
20.000000000006889
 50
12.46665334453432
 51
159.61093989685611
  0
ARC
  5
1D5B
  8
0
 10
-165.76429407797059
 20
-2006.589341521061
 30
0.0
 40
186.5000000000052
 50
159.95246282998741
 51
200.0475371700114
  0
ARC
  5
1D5C
  8
0
 10
-322.21701438081459
 20
-1935.68934152106
 30
0.0
 40
20.000000000006249
 50
200.38906010313849
 51
347.53334665546203
  0
LINE
  5
1D5D
  8
0
 10
-302.68857814982988
 20
-1940.006768807375
 30
0.0
 11
-296.09571877178882
 21
-1910.1861776530061
 31
0.0
  0
ARC
  5
1D5E
  8
0
 10
-289.74897699672198
 20
-1911.5893415210589
 30
0.0
 40
6.4999999999991012
 50
89.999999999997442
 51
167.5333466554487
  0
LINE
  5
1D5F
  8
0
 10
-289.74897699672169
 20
-1905.0893415210601
 30
0.0
 11
-259.26429407797667
 21
-1905.0893415210601
 31
0.0
  0
LINE
  5
1D60
  8
0
 10
-259.26429407797667
 20
-1905.0893415210601
 30
0.0
 11
-259.26429407797667
 21
-1871.46736368706
 31
0.0
  0
LINE
  5
1D61
  8
0
 10
-259.26429407797667
 20
-2350.7113193550608
 30
0.0
 11
-259.26429407797667
 21
-2347.7113193550608
 31
0.0
  0
LINE
  5
1D62
  8
0
 10
-259.26429407797667
 20
-2347.7113193550608
 30
0.0
 11
-228.77961115923151
 21
-2347.7113193550608
 31
0.0
  0
ARC
  5
1D63
  8
0
 10
-228.77961115923111
 20
-2341.2113193550631
 30
0.0
 40
6.4999999999995444
 50
269.99999999999608
 51
347.53334665545373
  0
LINE
  5
1D64
  8
0
 10
-222.43286938416369
 20
-2342.6144832231148
 30
0.0
 11
-215.84001000612321
 21
-2312.7938920687479
 31
0.0
  0
ARC
  5
1D65
  8
0
 10
-196.31157377514401
 20
-2317.1113193550691
 30
0.0
 40
20.00000000000238
 50
20.389060103115401
 51
167.53334665543881
  0
ARC
  5
1D66
  8
0
 10
-352.76429407795302
 20
-2246.2113193550631
 30
0.0
 40
186.49999999997681
 50
339.95246282997942
 51
20.047537170015801
  0
ARC
  5
1D67
  8
0
 10
-196.3115737751389
 20
-2175.3113193550612
 30
0.0
 40
20.000000000006249
 50
192.4666533445413
 51
339.61093989685799
  0
LINE
  5
1D68
  8
0
 10
-215.84001000612349
 20
-2179.6287466413769
 30
0.0
 11
-222.4328693841646
 21
-2149.8081554870091
 31
0.0
  0
ARC
  5
1D69
  8
0
 10
-228.7796111592321
 20
-2151.2113193550608
 30
0.0
 40
6.4999999999995524
 50
12.466653344538109
 51
89.999999999995481
  0
LINE
  5
1D6A
  8
0
 10
-228.77961115923171
 20
-2144.7113193550608
 30
0.0
 11
-259.26429407797667
 21
-2144.7113193550608
 31
0.0
  0
LINE
  5
1D6B
  8
0
 10
-259.26429407797667
 20
-2144.7113193550608
 30
0.0
 11
-259.26429407797667
 21
-2347.7113193550608
 31
0.0
  0
LINE
  5
1D6C
  8
0
 10
-259.26429407797667
 20
-2347.7113193550608
 30
0.0
 11
-289.74897699672277
 21
-2347.7113193550608
 31
0.0
  0
ARC
  5
1D6D
  8
0
 10
-289.74897699672277
 20
-2341.2113193550631
 30
0.0
 40
6.4999999999986331
 50
192.46665334453951
 51
270.0
  0
LINE
  5
1D6E
  8
0
 10
-296.09571877178968
 20
-2342.6144832231148
 30
0.0
 11
-302.68857814983022
 21
-2312.7938920687479
 31
0.0
  0
ARC
  5
1D6F
  8
0
 10
-322.21701438081573
 20
-2317.1113193550609
 30
0.0
 40
20.000000000006889
 50
12.46665334453432
 51
159.61093989685611
  0
ARC
  5
1D70
  8
0
 10
-165.76429407796999
 20
-2246.2113193550631
 30
0.0
 40
186.500000000006
 50
159.95246282998741
 51
200.04753717001151
  0
ARC
  5
1D71
  8
0
 10
-322.21701438081442
 20
-2175.3113193550612
 30
0.0
 40
20.000000000006231
 50
200.38906010313639
 51
347.53334665545981
  0
LINE
  5
1D72
  8
0
 10
-302.68857814982988
 20
-2179.6287466413769
 30
0.0
 11
-296.09571877178882
 21
-2149.8081554870091
 31
0.0
  0
ARC
  5
1D73
  8
0
 10
-289.7489769967209
 20
-2151.2113193550608
 30
0.0
 40
6.4999999999999591
 50
90.000000000007006
 51
167.5333466554585
  0
LINE
  5
1D74
  8
0
 10
-289.74897699672169
 20
-2144.7113193550608
 30
0.0
 11
-259.26429407797667
 21
-2144.7113193550608
 31
0.0
  0
LINE
  5
1D75
  8
0
 10
-259.26429407797667
 20
-2144.7113193550608
 30
0.0
 11
-259.26429407797667
 21
-2111.0893415210599
 31
0.0
  0
LINE
  5
1D76
  8
0
 10
-259.26429407797667
 20
-2590.3332971890618
 30
0.0
 11
-259.26429407797667
 21
-2587.3332971890618
 31
0.0
  0
LINE
  5
1D77
  8
0
 10
-259.26429407797667
 20
-2587.3332971890618
 30
0.0
 11
-228.77961115923151
 21
-2587.3332971890618
 31
0.0
  0
ARC
  5
1D78
  8
0
 10
-228.77961115923111
 20
-2580.8332971890618
 30
0.0
 40
6.4999999999995444
 50
269.99999999999608
 51
347.53334665545373
  0
LINE
  5
1D79
  8
0
 10
-222.43286938416369
 20
-2582.2364610571149
 30
0.0
 11
-215.84001000612321
 21
-2552.4158699027489
 31
0.0
  0
ARC
  5
1D7A
  8
0
 10
-196.31157377514401
 20
-2556.7332971890701
 30
0.0
 40
20.00000000000238
 50
20.389060103115401
 51
167.53334665543881
  0
ARC
  5
1D7B
  8
0
 10
-352.76429407795302
 20
-2485.8332971890641
 30
0.0
 40
186.49999999997681
 50
339.95246282997942
 51
20.047537170015801
  0
ARC
  5
1D7C
  8
0
 10
-196.3115737751389
 20
-2414.9332971890631
 30
0.0
 40
20.000000000006249
 50
192.4666533445413
 51
339.61093989685799
  0
LINE
  5
1D7D
  8
0
 10
-215.84001000612349
 20
-2419.250724475377
 30
0.0
 11
-222.4328693841646
 21
-2389.4301333210101
 31
0.0
  0
ARC
  5
1D7E
  8
0
 10
-228.77961115923159
 20
-2390.8332971890618
 30
0.0
 40
6.4999999999990949
 50
12.46665334454311
 51
90.000000000000469
  0
LINE
  5
1D7F
  8
0
 10
-228.77961115923171
 20
-2384.3332971890632
 30
0.0
 11
-259.26429407797667
 21
-2384.3332971890632
 31
0.0
  0
LINE
  5
1D80
  8
0
 10
-259.26429407797667
 20
-2384.3332971890632
 30
0.0
 11
-259.26429407797667
 21
-2587.3332971890618
 31
0.0
  0
LINE
  5
1D81
  8
0
 10
-259.26429407797667
 20
-2587.3332971890618
 30
0.0
 11
-289.74897699672277
 21
-2587.3332971890618
 31
0.0
  0
ARC
  5
1D82
  8
0
 10
-289.74897699672277
 20
-2580.8332971890632
 30
0.0
 40
6.4999999999986331
 50
192.46665334453951
 51
270.0
  0
LINE
  5
1D83
  8
0
 10
-296.09571877178968
 20
-2582.2364610571149
 30
0.0
 11
-302.68857814983022
 21
-2552.4158699027489
 31
0.0
  0
ARC
  5
1D84
  8
0
 10
-322.21701438081573
 20
-2556.7332971890619
 30
0.0
 40
20.000000000006828
 50
12.46665334453435
 51
159.61093989685739
  0
ARC
  5
1D85
  8
0
 10
-165.76429407796871
 20
-2485.8332971890618
 30
0.0
 40
186.5000000000073
 50
159.95246282998741
 51
200.04753717001151
  0
ARC
  5
1D86
  8
0
 10
-322.21701438081431
 20
-2414.9332971890631
 30
0.0
 40
20.000000000006121
 50
200.38906010313511
 51
347.53334665545981
  0
LINE
  5
1D87
  8
0
 10
-302.68857814982988
 20
-2419.250724475377
 30
0.0
 11
-296.09571877178882
 21
-2389.4301333210101
 31
0.0
  0
ARC
  5
1D88
  8
0
 10
-289.74897699672141
 20
-2390.8332971890618
 30
0.0
 40
6.4999999999995541
 50
90.000000000002487
 51
167.53334665545361
  0
LINE
  5
1D89
  8
0
 10
-289.74897699672169
 20
-2384.3332971890632
 30
0.0
 11
-259.26429407797667
 21
-2384.3332971890632
 31
0.0
  0
LINE
  5
1D8A
  8
0
 10
-259.26429407797667
 20
-2384.3332971890632
 30
0.0
 11
-259.26429407797667
 21
-2350.7113193550608
 31
0.0
  0
LINE
  5
1D8B
  8
0
 10
-259.26429407797667
 20
-2829.9552750230632
 30
0.0
 11
-259.26429407797667
 21
-2826.9552750230641
 31
0.0
  0
LINE
  5
1D8C
  8
0
 10
-259.26429407797667
 20
-2826.9552750230641
 30
0.0
 11
-228.77961115923151
 21
-2826.9552750230641
 31
0.0
  0
ARC
  5
1D8D
  8
0
 10
-228.77961115923171
 20
-2820.4552750230632
 30
0.0
 40
6.5000000000004521
 50
270.00000000000119
 51
347.53334665545469
  0
LINE
  5
1D8E
  8
0
 10
-222.43286938416369
 20
-2821.8584388911158
 30
0.0
 11
-215.84001000612321
 21
-2792.0378477367499
 31
0.0
  0
ARC
  5
1D8F
  8
0
 10
-196.31157377514401
 20
-2796.355275023072
 30
0.0
 40
20.00000000000238
 50
20.389060103115401
 51
167.53334665543881
  0
ARC
  5
1D90
  8
0
 10
-352.76429407795189
 20
-2725.455275023065
 30
0.0
 40
186.4999999999755
 50
339.95246282997942
 51
20.047537170015801
  0
ARC
  5
1D91
  8
0
 10
-196.3115737751387
 20
-2654.5552750230631
 30
0.0
 40
20.00000000000632
 50
192.4666533445386
 51
339.61093989685543
  0
LINE
  5
1D92
  8
0
 10
-215.84001000612349
 20
-2658.872702309377
 30
0.0
 11
-222.4328693841646
 21
-2629.0521111550111
 31
0.0
  0
ARC
  5
1D93
  8
0
 10
-228.77961115923111
 20
-2630.4552750230632
 30
0.0
 40
6.4999999999985443
 50
12.46665334454419
 51
90.0000000000055
  0
LINE
  5
1D94
  8
0
 10
-228.77961115923171
 20
-2623.955275023065
 30
0.0
 11
-259.26429407797667
 21
-2623.955275023065
 31
0.0
  0
LINE
  5
1D95
  8
0
 10
-259.26429407797667
 20
-2623.955275023065
 30
0.0
 11
-259.26429407797667
 21
-2826.9552750230641
 31
0.0
  0
LINE
  5
1D96
  8
0
 10
-259.26429407797667
 20
-2826.9552750230641
 30
0.0
 11
-289.74897699672277
 21
-2826.9552750230641
 31
0.0
  0
ARC
  5
1D97
  8
0
 10
-289.74897699672221
 20
-2820.455275023065
 30
0.0
 40
6.4999999999995444
 50
192.4666533445382
 51
269.999999999995
  0
LINE
  5
1D98
  8
0
 10
-296.09571877178968
 20
-2821.8584388911158
 30
0.0
 11
-302.68857814983022
 21
-2792.0378477367499
 31
0.0
  0
ARC
  5
1D99
  8
0
 10
-322.21701438081573
 20
-2796.3552750230629
 30
0.0
 40
20.000000000006889
 50
12.46665334453432
 51
159.61093989685611
  0
ARC
  5
1D9A
  8
0
 10
-165.7642940779694
 20
-2725.4552750230641
 30
0.0
 40
186.50000000000651
 50
159.95246282998741
 51
200.0475371700114
  0
ARC
  5
1D9B
  8
0
 10
-322.21701438081459
 20
-2654.5552750230622
 30
0.0
 40
20.000000000006271
 50
200.38906010313789
 51
347.53334665545998
  0
LINE
  5
1D9C
  8
0
 10
-302.68857814982988
 20
-2658.872702309377
 30
0.0
 11
-296.09571877178882
 21
-2629.0521111550111
 31
0.0
  0
ARC
  5
1D9D
  8
0
 10
-289.74897699672198
 20
-2630.4552750230632
 30
0.0
 40
6.4999999999989999
 50
89.999999999997442
 51
167.53334665545259
  0
LINE
  5
1D9E
  8
0
 10
-289.74897699672169
 20
-2623.955275023065
 30
0.0
 11
-259.26429407797667
 21
-2623.955275023065
 31
0.0
  0
LINE
  5
1D9F
  8
0
 10
-259.26429407797667
 20
-2623.955275023065
 30
0.0
 11
-259.26429407797667
 21
-2590.3332971890618
 31
0.0
  0
LINE
  5
1DA0
  8
0
 10
-123.1560064036691
 20
-2980.4633509845448
 30
0.0
 11
-123.1560064036691
 21
-3071.704228393688
 31
0.0
  0
LINE
  5
1DA1
  8
0
 10
-123.1560064036691
 20
-3071.704228393688
 30
0.0
 11
-259.26429407797667
 21
-3069.5772528570628
 31
0.0
  0
LINE
  5
1DA2
  8
0
 10
-259.26429407797667
 20
-3069.5772528570628
 30
0.0
 11
-259.26429407797667
 21
-3066.5772528570642
 31
0.0
  0
LINE
  5
1DA3
  8
0
 10
-259.26429407797667
 20
-3066.5772528570642
 30
0.0
 11
-228.77961115923151
 21
-3066.5772528570642
 31
0.0
  0
ARC
  5
1DA4
  8
0
 10
-228.77961115923171
 20
-3060.0772528570628
 30
0.0
 40
6.5000000000004521
 50
270.00000000000119
 51
347.53334665545469
  0
LINE
  5
1DA5
  8
0
 10
-222.43286938416369
 20
-3061.4804167251159
 30
0.0
 11
-215.84001000612321
 21
-3031.6598255707509
 31
0.0
  0
ARC
  5
1DA6
  8
0
 10
-196.31157377514381
 20
-3035.977252857072
 30
0.0
 40
20.000000000002419
 50
20.38906010311678
 51
167.53334665544011
  0
ARC
  5
1DA7
  8
0
 10
-352.76429407795302
 20
-2965.0772528570651
 30
0.0
 40
186.49999999997681
 50
339.95246282997942
 51
20.047537170015801
  0
ARC
  5
1DA8
  8
0
 10
-196.3115737751391
 20
-2894.1772528570632
 30
0.0
 40
20.000000000006271
 50
192.466653344544
 51
339.61093989685952
  0
LINE
  5
1DA9
  8
0
 10
-215.84001000612349
 20
-2898.4946801433812
 30
0.0
 11
-222.4328693841646
 21
-2868.6740889890111
 31
0.0
  0
ARC
  5
1DAA
  8
0
 10
-228.779611159231
 20
-2870.0772528570628
 30
0.0
 40
6.4999999999984883
 50
12.466653344544291
 51
90.000000000005983
  0
LINE
  5
1DAB
  8
0
 10
-228.77961115923171
 20
-2863.5772528570651
 30
0.0
 11
-259.26429407797667
 21
-2863.5772528570651
 31
0.0
  0
LINE
  5
1DAC
  8
0
 10
-259.26429407797667
 20
-2863.5772528570651
 30
0.0
 11
-259.26429407797667
 21
-3066.5772528570642
 31
0.0
  0
LINE
  5
1DAD
  8
0
 10
-259.26429407797667
 20
-3066.5772528570642
 30
0.0
 11
-289.74897699672277
 21
-3066.5772528570642
 31
0.0
  0
ARC
  5
1DAE
  8
0
 10
-289.74897699672221
 20
-3060.0772528570651
 30
0.0
 40
6.4999999999995444
 50
192.4666533445382
 51
269.999999999995
  0
LINE
  5
1DAF
  8
0
 10
-296.09571877178968
 20
-3061.4804167251159
 30
0.0
 11
-302.68857814983022
 21
-3031.6598255707509
 31
0.0
  0
ARC
  5
1DB0
  8
0
 10
-322.21701438081601
 20
-3035.9772528570638
 30
0.0
 40
20.00000000000696
 50
12.46665334453294
 51
159.61093989685469
  0
ARC
  5
1DB1
  8
0
 10
-165.76429407797059
 20
-2965.0772528570642
 30
0.0
 40
186.5000000000052
 50
159.95246282998741
 51
200.0475371700114
  0
ARC
  5
1DB2
  8
0
 10
-322.21701438081419
 20
-2894.1772528570641
 30
0.0
 40
20.000000000006171
 50
200.38906010313511
 51
347.53334665545862
  0
LINE
  5
1DB3
  8
0
 10
-302.68857814982988
 20
-2898.4946801433812
 30
0.0
 11
-296.09571877178882
 21
-2868.6740889890111
 31
0.0
  0
ARC
  5
1DB4
  8
0
 10
-289.74897699672198
 20
-2870.0772528570628
 30
0.0
 40
6.499999999998944
 50
89.999999999996987
 51
167.53334665545239
  0
LINE
  5
1DB5
  8
0
 10
-289.74897699672169
 20
-2863.5772528570651
 30
0.0
 11
-259.26429407797667
 21
-2863.5772528570651
 31
0.0
  0
LINE
  5
1DB6
  8
0
 10
-259.26429407797667
 20
-2863.5772528570651
 30
0.0
 11
-259.26429407797667
 21
-2829.9552750230632
 31
0.0
  0
LINE
  5
1DB7
  8
0
 10
-123.1560064036691
 20
-2740.8413731505452
 30
0.0
 11
-123.1560064036691
 21
-2743.8413731505452
 31
0.0
  0
LINE
  5
1DB8
  8
0
 10
-123.1560064036691
 20
-2743.8413731505452
 30
0.0
 11
-92.671323484923946
 21
-2743.8413731505452
 31
0.0
  0
ARC
  5
1DB9
  8
0
 10
-92.671323484923306
 20
-2750.3413731505439
 30
0.0
 40
6.4999999999995444
 50
12.466653344546801
 51
90.000000000005613
  0
LINE
  5
1DBA
  8
0
 10
-86.324581709856119
 20
-2748.9382092824922
 30
0.0
 11
-79.731722331815703
 21
-2778.7588004368572
 31
0.0
  0
ARC
  5
1DBB
  8
0
 10
-60.203286100836372
 20
-2774.441373150536
 30
0.0
 40
20.00000000000254
 50
192.46665334456111
 51
339.6109398968847
  0
ARC
  5
1DBC
  8
0
 10
-216.65600640364551
 20
-2845.341373150542
 30
0.0
 40
186.49999999997689
 50
339.95246282998397
 51
20.047537170020561
  0
ARC
  5
1DBD
  8
0
 10
-60.203286100831328
 20
-2916.241373150544
 30
0.0
 40
20.00000000000637
 50
20.389060103143191
 51
167.53334665545859
  0
LINE
  5
1DBE
  8
0
 10
-79.731722331815945
 20
-2911.9239458642292
 30
0.0
 11
-86.324581709857057
 21
-2941.744537018596
 31
0.0
  0
ARC
  5
1DBF
  8
0
 10
-92.67132348492504
 20
-2940.3413731505461
 30
0.0
 40
6.4999999999997451
 50
270.00000000000853
 51
347.5333466554705
  0
LINE
  5
1DC0
  8
0
 10
-92.671323484924073
 20
-2946.8413731505461
 30
0.0
 11
-123.1560064036691
 21
-2946.8413731505461
 31
0.0
  0
LINE
  5
1DC1
  8
0
 10
-123.1560064036691
 20
-2946.8413731505461
 30
0.0
 11
-123.1560064036691
 21
-2743.8413731505452
 31
0.0
  0
LINE
  5
1DC2
  8
0
 10
-123.1560064036691
 20
-2743.8413731505452
 30
0.0
 11
-153.640689322415
 21
-2743.8413731505452
 31
0.0
  0
ARC
  5
1DC3
  8
0
 10
-153.64068932241511
 20
-2750.3413731505439
 30
0.0
 40
6.499999999999087
 50
89.999999999997442
 51
167.5333466554564
  0
LINE
  5
1DC4
  8
0
 10
-159.9874310974821
 20
-2748.9382092824922
 30
0.0
 11
-166.58029047552259
 21
-2778.7588004368572
 31
0.0
  0
ARC
  5
1DC5
  8
0
 10
-186.10872670650841
 20
-2774.4413731505451
 30
0.0
 40
20.00000000000685
 50
200.38906010314409
 51
347.5333466554697
  0
ARC
  5
1DC6
  8
0
 10
-29.656006403663682
 20
-2845.3413731505439
 30
0.0
 40
186.50000000000469
 50
159.95246282998841
 51
200.04753717001259
  0
ARC
  5
1DC7
  8
0
 10
-186.10872670650679
 20
-2916.241373150544
 30
0.0
 40
20.00000000000643
 50
12.46665334454133
 51
159.61093989686239
  0
LINE
  5
1DC8
  8
0
 10
-166.5802904755223
 20
-2911.9239458642292
 30
0.0
 11
-159.98743109748119
 21
-2941.744537018596
 31
0.0
  0
ARC
  5
1DC9
  8
0
 10
-153.64068932241281
 20
-2940.3413731505452
 30
0.0
 40
6.5000000000002309
 50
192.46665334453269
 51
269.99999999998852
  0
LINE
  5
1DCA
  8
0
 10
-153.64068932241409
 20
-2946.8413731505461
 30
0.0
 11
-123.1560064036691
 21
-2946.8413731505461
 31
0.0
  0
LINE
  5
1DCB
  8
0
 10
-123.1560064036691
 20
-2946.8413731505461
 30
0.0
 11
-123.1560064036691
 21
-2980.4633509845448
 31
0.0
  0
LINE
  5
1DCC
  8
0
 10
-123.1560064036691
 20
-2501.2193953165429
 30
0.0
 11
-123.1560064036691
 21
-2504.2193953165429
 31
0.0
  0
LINE
  5
1DCD
  8
0
 10
-123.1560064036691
 20
-2504.2193953165429
 30
0.0
 11
-92.671323484923946
 21
-2504.2193953165429
 31
0.0
  0
ARC
  5
1DCE
  8
0
 10
-92.671323484924145
 20
-2510.7193953165438
 30
0.0
 40
6.5
 50
12.466653344537351
 51
89.99999999999811
  0
LINE
  5
1DCF
  8
0
 10
-86.324581709856119
 20
-2509.3162314484921
 30
0.0
 11
-79.731722331815703
 21
-2539.136822602858
 31
0.0
  0
ARC
  5
1DD0
  8
0
 10
-60.203286100836372
 20
-2534.819395316536
 30
0.0
 40
20.00000000000254
 50
192.46665334456111
 51
339.6109398968847
  0
ARC
  5
1DD1
  8
0
 10
-216.65600640364491
 20
-2605.7193953165429
 30
0.0
 40
186.4999999999763
 50
339.95246282998431
 51
20.047537170020629
  0
ARC
  5
1DD2
  8
0
 10
-60.203286100831328
 20
-2676.6193953165439
 30
0.0
 40
20.00000000000637
 50
20.389060103143191
 51
167.53334665545859
  0
LINE
  5
1DD3
  8
0
 10
-79.731722331815945
 20
-2672.3019680302291
 30
0.0
 11
-86.324581709857057
 21
-2702.1225591845969
 31
0.0
  0
ARC
  5
1DD4
  8
0
 10
-92.671323484923647
 20
-2700.7193953165452
 30
0.0
 40
6.4999999999986651
 50
269.99999999999608
 51
347.53334665545611
  0
LINE
  5
1DD5
  8
0
 10
-92.671323484924073
 20
-2707.2193953165438
 30
0.0
 11
-123.1560064036691
 21
-2707.2193953165438
 31
0.0
  0
LINE
  5
1DD6
  8
0
 10
-123.1560064036691
 20
-2707.2193953165438
 30
0.0
 11
-123.1560064036691
 21
-2504.2193953165429
 31
0.0
  0
LINE
  5
1DD7
  8
0
 10
-123.1560064036691
 20
-2504.2193953165429
 30
0.0
 11
-153.640689322415
 21
-2504.2193953165429
 31
0.0
  0
ARC
  5
1DD8
  8
0
 10
-153.6406893224144
 20
-2510.7193953165429
 30
0.0
 40
6.4999999999995444
 50
90.000000000005016
 51
167.53334665546581
  0
LINE
  5
1DD9
  8
0
 10
-159.9874310974821
 20
-2509.3162314484921
 30
0.0
 11
-166.58029047552259
 21
-2539.136822602858
 31
0.0
  0
ARC
  5
1DDA
  8
0
 10
-186.10872670650821
 20
-2534.8193953165442
 30
0.0
 40
20.000000000006889
 50
200.38906010314261
 51
347.53334665546572
  0
ARC
  5
1DDB
  8
0
 10
-29.65600640366242
 20
-2605.7193953165438
 30
0.0
 40
186.500000000006
 50
159.95246282998841
 51
200.04753717001259
  0
ARC
  5
1DDC
  8
0
 10
-186.1087267065069
 20
-2676.6193953165439
 30
0.0
 40
20.000000000006349
 50
12.466653344539999
 51
159.61093989686231
  0
LINE
  5
1DDD
  8
0
 10
-166.5802904755223
 20
-2672.3019680302291
 30
0.0
 11
-159.98743109748119
 21
-2702.1225591845969
 31
0.0
  0
ARC
  5
1DDE
  8
0
 10
-153.64068932241409
 20
-2700.7193953165452
 30
0.0
 40
6.499999999999142
 50
192.46665334454701
 51
270.00000000000102
  0
LINE
  5
1DDF
  8
0
 10
-153.64068932241409
 20
-2707.2193953165438
 30
0.0
 11
-123.1560064036691
 21
-2707.2193953165438
 31
0.0
  0
LINE
  5
1DE0
  8
0
 10
-123.1560064036691
 20
-2707.2193953165438
 30
0.0
 11
-123.1560064036691
 21
-2740.8413731505452
 31
0.0
  0
LINE
  5
1DE1
  8
0
 10
-123.1560064036691
 20
-2261.597417482541
 30
0.0
 11
-123.1560064036691
 21
-2264.5974174825419
 31
0.0
  0
LINE
  5
1DE2
  8
0
 10
-123.1560064036691
 20
-2264.5974174825419
 30
0.0
 11
-92.671323484923946
 21
-2264.5974174825419
 31
0.0
  0
ARC
  5
1DE3
  8
0
 10
-92.671323484923875
 20
-2271.0974174825419
 30
0.0
 40
6.5
 50
12.466653344541809
 51
90.000000000000625
  0
LINE
  5
1DE4
  8
0
 10
-86.324581709856119
 20
-2269.6942536144902
 30
0.0
 11
-79.731722331815703
 21
-2299.5148447688571
 31
0.0
  0
ARC
  5
1DE5
  8
0
 10
-60.203286100836557
 20
-2295.1974174825341
 30
0.0
 40
20.00000000000254
 50
192.46665334456381
 51
339.61093989688612
  0
ARC
  5
1DE6
  8
0
 10
-216.6560064036492
 20
-2366.0974174825419
 30
0.0
 40
186.4999999999809
 50
339.95246282998397
 51
20.047537170020561
  0
ARC
  5
1DE7
  8
0
 10
-60.203286100831527
 20
-2436.9974174825452
 30
0.0
 40
20.000000000006398
 50
20.38906010314178
 51
167.533346655456
  0
LINE
  5
1DE8
  8
0
 10
-79.731722331815945
 20
-2432.6799901962281
 30
0.0
 11
-86.324581709857057
 21
-2462.5005813505959
 31
0.0
  0
ARC
  5
1DE9
  8
0
 10
-92.671323484923946
 20
-2461.0974174825442
 30
0.0
 40
6.4999999999988471
 50
269.99999999999881
 51
347.5333466554606
  0
LINE
  5
1DEA
  8
0
 10
-92.671323484924073
 20
-2467.5974174825419
 30
0.0
 11
-123.1560064036691
 21
-2467.5974174825419
 31
0.0
  0
LINE
  5
1DEB
  8
0
 10
-123.1560064036691
 20
-2467.5974174825419
 30
0.0
 11
-123.1560064036691
 21
-2264.5974174825419
 31
0.0
  0
LINE
  5
1DEC
  8
0
 10
-123.1560064036691
 20
-2264.5974174825419
 30
0.0
 11
-153.640689322415
 21
-2264.5974174825419
 31
0.0
  0
ARC
  5
1DED
  8
0
 10
-153.64068932241469
 20
-2271.0974174825419
 30
0.0
 40
6.4999999999995444
 50
90.000000000002487
 51
167.5333466554614
  0
LINE
  5
1DEE
  8
0
 10
-159.9874310974821
 20
-2269.6942536144902
 30
0.0
 11
-166.58029047552259
 21
-2299.5148447688571
 31
0.0
  0
ARC
  5
1DEF
  8
0
 10
-186.10872670650821
 20
-2295.1974174825441
 30
0.0
 40
20.00000000000685
 50
200.3890601031427
 51
347.53334665546708
  0
ARC
  5
1DF0
  8
0
 10
-29.65600640366242
 20
-2366.0974174825419
 30
0.0
 40
186.5000000000058
 50
159.9524628299886
 51
200.0475371700127
  0
ARC
  5
1DF1
  8
0
 10
-186.1087267065069
 20
-2436.9974174825438
 30
0.0
 40
20.000000000006509
 50
12.46665334454128
 51
159.61093989686111
  0
LINE
  5
1DF2
  8
0
 10
-166.5802904755223
 20
-2432.6799901962281
 30
0.0
 11
-159.98743109748119
 21
-2462.5005813505959
 31
0.0
  0
ARC
  5
1DF3
  8
0
 10
-153.64068932241389
 20
-2461.0974174825428
 30
0.0
 40
6.4999999999993214
 50
192.46665334454269
 51
269.99999999999852
  0
LINE
  5
1DF4
  8
0
 10
-153.64068932241409
 20
-2467.5974174825419
 30
0.0
 11
-123.1560064036691
 21
-2467.5974174825419
 31
0.0
  0
LINE
  5
1DF5
  8
0
 10
-123.1560064036691
 20
-2467.5974174825419
 30
0.0
 11
-123.1560064036691
 21
-2501.2193953165429
 31
0.0
  0
LINE
  5
1DF6
  8
0
 10
-123.1560064036691
 20
-2021.9754396485421
 30
0.0
 11
-123.1560064036691
 21
-2024.9754396485421
 31
0.0
  0
LINE
  5
1DF7
  8
0
 10
-123.1560064036691
 20
-2024.9754396485421
 30
0.0
 11
-92.671323484923946
 21
-2024.9754396485421
 31
0.0
  0
ARC
  5
1DF8
  8
0
 10
-92.671323484924145
 20
-2031.4754396485421
 30
0.0
 40
6.5
 50
12.466653344537351
 51
89.99999999999811
  0
LINE
  5
1DF9
  8
0
 10
-86.324581709856119
 20
-2030.0722757804899
 30
0.0
 11
-79.731722331815703
 21
-2059.8928669348561
 31
0.0
  0
ARC
  5
1DFA
  8
0
 10
-60.203286100836422
 20
-2055.575439648534
 30
0.0
 40
20.000000000002562
 50
192.46665334456239
 51
339.61093989688482
  0
ARC
  5
1DFB
  8
0
 10
-216.6560064036467
 20
-2126.47543964854
 30
0.0
 40
186.49999999997809
 50
339.95246282998397
 51
20.047537170020561
  0
ARC
  5
1DFC
  8
0
 10
-60.203286100831527
 20
-2197.3754396485429
 30
0.0
 40
20.000000000006239
 50
20.389060103140562
 51
167.53334665545731
  0
LINE
  5
1DFD
  8
0
 10
-79.731722331815945
 20
-2193.0580123622271
 30
0.0
 11
-86.324581709857057
 21
-2222.8786035165949
 31
0.0
  0
ARC
  5
1DFE
  8
0
 10
-92.671323484923946
 20
-2221.4754396485432
 30
0.0
 40
6.4999999999988471
 50
269.99999999999881
 51
347.5333466554606
  0
LINE
  5
1DFF
  8
0
 10
-92.671323484924073
 20
-2227.9754396485419
 30
0.0
 11
-123.1560064036691
 21
-2227.9754396485419
 31
0.0
  0
LINE
  5
1E00
  8
0
 10
-123.1560064036691
 20
-2227.9754396485419
 30
0.0
 11
-123.1560064036691
 21
-2024.9754396485421
 31
0.0
  0
LINE
  5
1E01
  8
0
 10
-123.1560064036691
 20
-2024.9754396485421
 30
0.0
 11
-153.640689322415
 21
-2024.9754396485421
 31
0.0
  0
ARC
  5
1E02
  8
0
 10
-153.6406893224144
 20
-2031.4754396485421
 30
0.0
 40
6.4999999999995444
 50
90.000000000005016
 51
167.53334665546581
  0
LINE
  5
1E03
  8
0
 10
-159.9874310974821
 20
-2030.0722757804899
 30
0.0
 11
-166.58029047552259
 21
-2059.8928669348561
 31
0.0
  0
ARC
  5
1E04
  8
0
 10
-186.10872670650821
 20
-2055.575439648544
 30
0.0
 40
20.00000000000685
 50
200.3890601031427
 51
347.53334665546708
  0
ARC
  5
1E05
  8
0
 10
-29.65600640366117
 20
-2126.4754396485419
 30
0.0
 40
186.50000000000711
 50
159.9524628299886
 51
200.0475371700127
  0
ARC
  5
1E06
  8
0
 10
-186.10872670650659
 20
-2197.3754396485429
 30
0.0
 40
20.00000000000631
 50
12.466653344542721
 51
159.61093989686501
  0
LINE
  5
1E07
  8
0
 10
-166.5802904755223
 20
-2193.0580123622271
 30
0.0
 11
-159.98743109748119
 21
-2222.8786035165949
 31
0.0
  0
ARC
  5
1E08
  8
0
 10
-153.64068932241389
 20
-2221.4754396485432
 30
0.0
 40
6.4999999999993214
 50
192.46665334454269
 51
269.99999999999852
  0
LINE
  5
1E09
  8
0
 10
-153.64068932241409
 20
-2227.9754396485419
 30
0.0
 11
-123.1560064036691
 21
-2227.9754396485419
 31
0.0
  0
LINE
  5
1E0A
  8
0
 10
-123.1560064036691
 20
-2227.9754396485419
 30
0.0
 11
-123.1560064036691
 21
-2261.597417482541
 31
0.0
  0
LINE
  5
1E0B
  8
0
 10
-4.6622272591629841
 20
-1597.582576582417
 30
0.0
 11
-220.36200867278731
 21
-1597.582576582417
 31
0.0
  0
LINE
  5
1E0C
  8
0
 10
-220.36200867278731
 20
-1597.582576582417
 30
0.0
 11
-220.36200867278731
 21
-1655.465041866574
 31
0.0
  0
LINE
  5
1E0D
  8
0
 10
-220.36200867278731
 20
-1655.465041866574
 30
0.0
 11
-123.85749453457839
 21
-1732.111510432461
 31
0.0
  0
LINE
  5
1E0E
  8
0
 10
-123.85749453457839
 20
-1732.111510432461
 30
0.0
 11
-123.1560064036691
 21
-1782.3534618145411
 31
0.0
  0
LINE
  5
1E0F
  8
0
 10
-123.1560064036691
 20
-1782.3534618145411
 30
0.0
 11
-123.1560064036691
 21
-1785.3534618145411
 31
0.0
  0
LINE
  5
1E10
  8
0
 10
-123.1560064036691
 20
-1785.3534618145411
 30
0.0
 11
-92.671323484923946
 21
-1785.3534618145411
 31
0.0
  0
ARC
  5
1E11
  8
0
 10
-92.671323484924258
 20
-1791.8534618145411
 30
0.0
 40
6.5
 50
12.46665334453713
 51
89.999999999997144
  0
LINE
  5
1E12
  8
0
 10
-86.324581709856119
 20
-1790.4502979464901
 30
0.0
 11
-79.731722331815703
 21
-1820.270889100856
 31
0.0
  0
ARC
  5
1E13
  8
0
 10
-60.203286100836529
 20
-1815.953461814534
 30
0.0
 40
20.000000000002451
 50
192.46665334456239
 51
339.61093989688601
  0
ARC
  5
1E14
  8
0
 10
-216.65600640364551
 20
-1886.85346181454
 30
0.0
 40
186.49999999997681
 50
339.95246282998397
 51
20.047537170020561
  0
ARC
  5
1E15
  8
0
 10
-60.203286100831392
 20
-1957.7534618145421
 30
0.0
 40
20.000000000006441
 50
20.38906010314313
 51
167.53334665545739
  0
LINE
  5
1E16
  8
0
 10
-79.731722331815945
 20
-1953.436034528225
 30
0.0
 11
-86.324581709857057
 21
-1983.256625682593
 31
0.0
  0
ARC
  5
1E17
  8
0
 10
-92.671323484924073
 20
-1981.853461814542
 30
0.0
 40
6.4999999999990701
 50
269.99999999999898
 51
347.53334665545691
  0
LINE
  5
1E18
  8
0
 10
-92.671323484924187
 20
-1988.3534618145411
 30
0.0
 11
-123.1560064036691
 21
-1988.3534618145411
 31
0.0
  0
LINE
  5
1E19
  8
0
 10
-123.1560064036691
 20
-1988.3534618145411
 30
0.0
 11
-123.1560064036691
 21
-1785.3534618145411
 31
0.0
  0
LINE
  5
1E1A
  8
0
 10
-123.1560064036691
 20
-1785.3534618145411
 30
0.0
 11
-153.640689322415
 21
-1785.3534618145411
 31
0.0
  0
ARC
  5
1E1B
  8
0
 10
-153.64068932241429
 20
-1791.8534618145411
 30
0.0
 40
6.4999999999995444
 50
90.000000000005727
 51
167.533346655466
  0
LINE
  5
1E1C
  8
0
 10
-159.9874310974821
 20
-1790.4502979464901
 30
0.0
 11
-166.58029047552259
 21
-1820.270889100856
 31
0.0
  0
ARC
  5
1E1D
  8
0
 10
-186.10872670650809
 20
-1815.9534618145431
 30
0.0
 40
20.000000000006739
 50
200.38906010314139
 51
347.53334665546691
  0
ARC
  5
1E1E
  8
0
 10
-29.656006403660712
 20
-1886.853461814542
 30
0.0
 40
186.5000000000077
 50
159.95246282998841
 51
200.04753717001259
  0
ARC
  5
1E1F
  8
0
 10
-186.10872670650659
 20
-1957.7534618145421
 30
0.0
 40
20.000000000006231
 50
12.46665334454277
 51
159.6109398968664
  0
LINE
  5
1E20
  8
0
 10
-166.5802904755223
 20
-1953.436034528225
 30
0.0
 11
-159.98743109748119
 21
-1983.256625682593
 31
0.0
  0
ARC
  5
1E21
  8
0
 10
-153.64068932241381
 20
-1981.853461814542
 30
0.0
 40
6.4999999999995284
 50
192.4666533445463
 51
269.9999999999975
  0
LINE
  5
1E22
  8
0
 10
-153.64068932241409
 20
-1988.3534618145411
 30
0.0
 11
-123.1560064036691
 21
-1988.3534618145411
 31
0.0
  0
LINE
  5
1E23
  8
0
 10
-123.1560064036691
 20
-1988.3534618145411
 30
0.0
 11
-123.1560064036691
 21
-2021.9754396485421
 31
0.0
  0
LINE
  5
1E24
  8
0
 10
13.59138007610238
 20
-1631.8453858530579
 30
0.0
 11
0.3377727408370106
 21
-1602.5825765824179
 31
0.0
  0
LINE
  5
1E25
  8
0
 10
0.3377727408370106
 20
-1602.5825765824179
 30
0.0
 11
-4.6622272591629841
 21
-1602.5825765824179
 31
0.0
  0
LINE
  5
1E26
  8
0
 10
-4.6622272591629841
 20
-1602.5825765824179
 30
0.0
 11
-4.6622272591630463
 21
-1633.067259501164
 31
0.0
  0
ARC
  5
1E27
  8
0
 10
-11.16222725916119
 20
-1633.0672595011631
 30
0.0
 40
6.499999999998149
 50
282.46665334453712
 51
359.99999999999602
  0
LINE
  5
1E28
  8
0
 10
-9.7590633911099172
 20
-1639.4140012762291
 30
0.0
 11
-39.579654545478171
 21
-1646.006860654272
 31
0.0
  0
ARC
  5
1E29
  8
0
 10
-35.262227259171283
 20
-1665.5352968852631
 30
0.0
 40
20.000000000011418
 50
102.4666533445122
 51
249.61093989682209
  0
ARC
  5
1E2A
  8
0
 10
-106.16222725916251
 20
-1509.0825765825009
 30
0.0
 40
186.4999999999205
 50
249.95246282997269
 51
290.04753717001421
  0
ARC
  5
1E2B
  8
0
 10
-177.06222725917181
 20
-1665.5352968852501
 30
0.0
 40
20.000000000002231
 50
290.3890601031211
 51
77.533346655435579
  0
LINE
  5
1E2C
  8
0
 10
-172.74479997284919
 20
-1646.006860654272
 30
0.0
 11
-202.56539112721549
 21
-1639.4140012762291
 31
0.0
  0
ARC
  5
1E2D
  8
0
 10
-201.1622272591645
 20
-1633.0672595011631
 30
0.0
 40
6.4999999999984732
 50
180.00000000000799
 51
257.53334665546669
  0
LINE
  5
1E2E
  8
0
 10
-207.66222725916299
 20
-1633.067259501164
 30
0.0
 11
-207.66222725916299
 21
-1602.5825765824179
 31
0.0
  0
LINE
  5
1E2F
  8
0
 10
-207.66222725916299
 20
-1602.5825765824179
 30
0.0
 11
-4.6622272591629841
 21
-1602.5825765824179
 31
0.0
  0
LINE
  5
1E30
  8
0
 10
-4.6622272591629841
 20
-1602.5825765824179
 30
0.0
 11
-4.6622272591629841
 21
-1597.582576582417
 31
0.0
  0
LINE
  5
1E31
  8
0
 10
13.59138007610238
 20
-1871.4673636870609
 30
0.0
 11
13.59138007610238
 21
-1868.4673636870609
 31
0.0
  0
LINE
  5
1E32
  8
0
 10
13.59138007610238
 20
-1868.4673636870609
 30
0.0
 11
44.076062994847568
 21
-1868.4673636870609
 31
0.0
  0
ARC
  5
1E33
  8
0
 10
44.076062994847128
 20
-1861.9673636870609
 30
0.0
 40
6.5000000000002274
 50
270.00000000000381
 51
347.53334665546112
  0
LINE
  5
1E34
  8
0
 10
50.422804769915381
 20
-1863.3705275551119
 30
0.0
 11
57.015664147955817
 21
-1833.549936400746
 31
0.0
  0
ARC
  5
1E35
  8
0
 10
76.544100378935013
 20
-1837.867363687069
 30
0.0
 40
20.000000000002451
 50
20.389060103114709
 51
167.53334665543809
  0
ARC
  5
1E36
  8
0
 10
-79.908619923874014
 20
-1766.967363687063
 30
0.0
 40
186.49999999997681
 50
339.95246282997942
 51
20.047537170015801
  0
ARC
  5
1E37
  8
0
 10
76.544100378940186
 20
-1696.0673636870599
 30
0.0
 40
20.000000000006381
 50
192.4666533445413
 51
339.61093989685679
  0
LINE
  5
1E38
  8
0
 10
57.01566414795559
 20
-1700.3847909733761
 30
0.0
 11
50.422804769914471
 21
-1670.5641998190081
 31
0.0
  0
ARC
  5
1E39
  8
0
 10
44.076062994846609
 20
-1671.96736368706
 30
0.0
 40
6.4999999999997362
 50
12.4666533445357
 51
89.999999999993051
  0
LINE
  5
1E3A
  8
0
 10
44.076062994847398
 20
-1665.46736368706
 30
0.0
 11
13.59138007610238
 21
-1665.46736368706
 31
0.0
  0
LINE
  5
1E3B
  8
0
 10
13.59138007610238
 20
-1665.46736368706
 30
0.0
 11
13.59138007610238
 21
-1868.4673636870609
 31
0.0
  0
LINE
  5
1E3C
  8
0
 10
13.59138007610238
 20
-1868.4673636870609
 30
0.0
 11
-16.893302842643521
 21
-1868.4673636870609
 31
0.0
  0
ARC
  5
1E3D
  8
0
 10
-16.893302842642751
 20
-1861.9673636870621
 30
0.0
 40
6.4999999999997691
 50
192.46665334453539
 51
269.99999999999318
  0
LINE
  5
1E3E
  8
0
 10
-23.24004461771062
 20
-1863.3705275551119
 30
0.0
 11
-29.832903995751028
 21
-1833.549936400746
 31
0.0
  0
ARC
  5
1E3F
  8
0
 10
-49.361340226736779
 20
-1837.867363687061
 30
0.0
 40
20.00000000000702
 50
12.46665334453423
 51
159.61093989685611
  0
ARC
  5
1E40
  8
0
 10
107.091380076109
 20
-1766.9673636870609
 30
0.0
 40
186.50000000000591
 50
159.95246282998741
 51
200.04753717001151
  0
ARC
  5
1E41
  8
0
 10
-49.361340226735379
 20
-1696.0673636870611
 30
0.0
 40
20.000000000006271
 50
200.3890601031363
 51
347.53334665545998
  0
LINE
  5
1E42
  8
0
 10
-29.832903995750801
 20
-1700.3847909733761
 30
0.0
 11
-23.240044617709721
 21
-1670.5641998190081
 31
0.0
  0
ARC
  5
1E43
  8
0
 10
-16.893302842641479
 20
-1671.96736368706
 30
0.0
 40
6.5000000000001981
 50
90.000000000009805
 51
167.53334665546109
  0
LINE
  5
1E44
  8
0
 10
-16.893302842642608
 20
-1665.46736368706
 30
0.0
 11
13.59138007610238
 21
-1665.46736368706
 31
0.0
  0
LINE
  5
1E45
  8
0
 10
13.59138007610238
 20
-1665.46736368706
 30
0.0
 11
13.59138007610238
 21
-1631.8453858530579
 31
0.0
  0
LINE
  5
1E46
  8
0
 10
13.59138007610238
 20
-2111.0893415210612
 30
0.0
 11
13.59138007610238
 21
-2108.0893415210612
 31
0.0
  0
LINE
  5
1E47
  8
0
 10
13.59138007610238
 20
-2108.0893415210612
 30
0.0
 11
44.076062994847568
 21
-2108.0893415210612
 31
0.0
  0
ARC
  5
1E48
  8
0
 10
44.076062994847987
 20
-2101.5893415210621
 30
0.0
 40
6.499999999999087
 50
269.99999999999631
 51
347.53334665545748
  0
LINE
  5
1E49
  8
0
 10
50.422804769915381
 20
-2102.9925053891138
 30
0.0
 11
57.015664147955817
 21
-2073.1719142347488
 31
0.0
  0
ARC
  5
1E4A
  8
0
 10
76.54410037893517
 20
-2077.4893415210699
 30
0.0
 40
20.00000000000254
 50
20.38906010311668
 51
167.53334665543889
  0
ARC
  5
1E4B
  8
0
 10
-79.908619923874014
 20
-2006.589341521063
 30
0.0
 40
186.49999999997681
 50
339.95246282997942
 51
20.047537170015801
  0
ARC
  5
1E4C
  8
0
 10
76.544100378940144
 20
-1935.6893415210609
 30
0.0
 40
20.000000000006349
 50
192.4666533445419
 51
339.61093989685747
  0
LINE
  5
1E4D
  8
0
 10
57.01566414795559
 20
-1940.0067688073759
 30
0.0
 11
50.422804769914471
 21
-1910.18617765301
 31
0.0
  0
ARC
  5
1E4E
  8
0
 10
44.076062994846879
 20
-1911.589341521061
 30
0.0
 40
6.4999999999995071
 50
12.4666533445382
 51
89.999999999995552
  0
LINE
  5
1E4F
  8
0
 10
44.076062994847398
 20
-1905.089341521061
 30
0.0
 11
13.59138007610238
 21
-1905.089341521061
 31
0.0
  0
LINE
  5
1E50
  8
0
 10
13.59138007610238
 20
-1905.089341521061
 30
0.0
 11
13.59138007610238
 21
-2108.0893415210612
 31
0.0
  0
LINE
  5
1E51
  8
0
 10
13.59138007610238
 20
-2108.0893415210612
 30
0.0
 11
-16.893302842643521
 21
-2108.0893415210612
 31
0.0
  0
ARC
  5
1E52
  8
0
 10
-16.893302842643589
 20
-2101.589341521063
 30
0.0
 40
6.4999999999986331
 50
192.4666533445392
 51
270.00000000000068
  0
LINE
  5
1E53
  8
0
 10
-23.24004461771062
 20
-2102.9925053891138
 30
0.0
 11
-29.832903995751028
 21
-2073.1719142347488
 31
0.0
  0
ARC
  5
1E54
  8
0
 10
-49.361340226736779
 20
-2077.4893415210631
 30
0.0
 40
20.00000000000702
 50
12.46665334453423
 51
159.61093989685611
  0
ARC
  5
1E55
  8
0
 10
107.0913800761102
 20
-2006.5893415210619
 30
0.0
 40
186.50000000000711
 50
159.95246282998741
 51
200.04753717001151
  0
ARC
  5
1E56
  8
0
 10
-49.361340226735273
 20
-1935.689341521062
 30
0.0
 40
20.000000000006249
 50
200.38906010313571
 51
347.53334665545918
  0
LINE
  5
1E57
  8
0
 10
-29.832903995750801
 20
-1940.0067688073759
 30
0.0
 11
-23.240044617709721
 21
-1910.18617765301
 31
0.0
  0
ARC
  5
1E58
  8
0
 10
-16.89330284264177
 20
-1911.589341521061
 30
0.0
 40
6.499999999999976
 50
90.000000000007347
 51
167.53334665545859
  0
LINE
  5
1E59
  8
0
 10
-16.893302842642608
 20
-1905.089341521061
 30
0.0
 11
13.59138007610238
 21
-1905.089341521061
 31
0.0
  0
LINE
  5
1E5A
  8
0
 10
13.59138007610238
 20
-1905.089341521061
 30
0.0
 11
13.59138007610238
 21
-1871.4673636870609
 31
0.0
  0
LINE
  5
1E5B
  8
0
 10
13.59138007610238
 20
-2350.711319355064
 30
0.0
 11
13.59138007610238
 21
-2347.7113193550649
 31
0.0
  0
LINE
  5
1E5C
  8
0
 10
13.59138007610238
 20
-2347.7113193550649
 30
0.0
 11
44.076062994847568
 21
-2347.7113193550649
 31
0.0
  0
ARC
  5
1E5D
  8
0
 10
44.076062994846012
 20
-2341.211319355064
 30
0.0
 40
6.5000000000009059
 50
270.00000000001381
 51
347.533346655473
  0
LINE
  5
1E5E
  8
0
 10
50.422804769915381
 20
-2342.6144832231148
 30
0.0
 11
57.015664147955817
 21
-2312.7938920687511
 31
0.0
  0
ARC
  5
1E5F
  8
0
 10
76.544100378935056
 20
-2317.1113193550709
 30
0.0
 40
20.000000000002458
 50
20.389060103115391
 51
167.53334665543881
  0
ARC
  5
1E60
  8
0
 10
-79.908619923872124
 20
-2246.2113193550649
 30
0.0
 40
186.4999999999749
 50
339.95246282997942
 51
20.04753717001574
  0
ARC
  5
1E61
  8
0
 10
76.544100378940271
 20
-2175.311319355063
 30
0.0
 40
20.00000000000631
 50
192.46665334453999
 51
339.61093989685679
  0
LINE
  5
1E62
  8
0
 10
57.01566414795559
 20
-2179.6287466413801
 30
0.0
 11
50.422804769914471
 21
-2149.80815548701
 31
0.0
  0
ARC
  5
1E63
  8
0
 10
44.076062994846879
 20
-2151.2113193550631
 30
0.0
 40
6.4999999999994094
 50
12.46665334453429
 51
89.999999999995552
  0
LINE
  5
1E64
  8
0
 10
44.076062994847398
 20
-2144.7113193550631
 30
0.0
 11
13.59138007610238
 21
-2144.7113193550631
 31
0.0
  0
LINE
  5
1E65
  8
0
 10
13.59138007610238
 20
-2144.7113193550631
 30
0.0
 11
13.59138007610238
 21
-2347.7113193550649
 31
0.0
  0
LINE
  5
1E66
  8
0
 10
13.59138007610238
 20
-2347.7113193550649
 30
0.0
 11
-16.893302842643521
 21
-2347.7113193550649
 31
0.0
  0
ARC
  5
1E67
  8
0
 10
-16.89330284264161
 20
-2341.211319355064
 30
0.0
 40
6.5000000000004521
 50
192.46665334452371
 51
269.99999999998317
  0
LINE
  5
1E68
  8
0
 10
-23.24004461771062
 20
-2342.6144832231148
 30
0.0
 11
-29.832903995751028
 21
-2312.7938920687511
 31
0.0
  0
ARC
  5
1E69
  8
0
 10
-49.361340226736779
 20
-2317.1113193550632
 30
0.0
 40
20.00000000000702
 50
12.46665334453423
 51
159.61093989685611
  0
ARC
  5
1E6A
  8
0
 10
107.0913800761096
 20
-2246.2113193550631
 30
0.0
 40
186.50000000000651
 50
159.95246282998741
 51
200.0475371700114
  0
ARC
  5
1E6B
  8
0
 10
-49.361340226735237
 20
-2175.311319355063
 30
0.0
 40
20.000000000006231
 50
200.38906010313499
 51
347.53334665545862
  0
LINE
  5
1E6C
  8
0
 10
-29.832903995750801
 20
-2179.6287466413801
 30
0.0
 11
-23.240044617709721
 21
-2149.80815548701
 31
0.0
  0
ARC
  5
1E6D
  8
0
 10
-16.89330284264177
 20
-2151.2113193550631
 30
0.0
 40
6.4999999999998783
 50
90.000000000007347
 51
167.53334665546251
  0
LINE
  5
1E6E
  8
0
 10
-16.893302842642608
 20
-2144.7113193550631
 30
0.0
 11
13.59138007610238
 21
-2144.7113193550631
 31
0.0
  0
LINE
  5
1E6F
  8
0
 10
13.59138007610238
 20
-2144.7113193550631
 30
0.0
 11
13.59138007610238
 21
-2111.0893415210612
 31
0.0
  0
LINE
  5
1E70
  8
0
 10
13.59138007610238
 20
-2590.3332971890641
 30
0.0
 11
13.59138007610238
 21
-2587.3332971890641
 31
0.0
  0
LINE
  5
1E71
  8
0
 10
13.59138007610238
 20
-2587.3332971890641
 30
0.0
 11
44.076062994847568
 21
-2587.3332971890641
 31
0.0
  0
ARC
  5
1E72
  8
0
 10
44.07606299484771
 20
-2580.833297189065
 30
0.0
 40
6.4999999999995444
 50
269.99999999999881
 51
347.53334665545822
  0
LINE
  5
1E73
  8
0
 10
50.422804769915381
 20
-2582.2364610571171
 30
0.0
 11
57.015664147955817
 21
-2552.4158699027498
 31
0.0
  0
ARC
  5
1E74
  8
0
 10
76.544100378935056
 20
-2556.733297189071
 30
0.0
 40
20.000000000002458
 50
20.389060103115391
 51
167.53334665543881
  0
ARC
  5
1E75
  8
0
 10
-79.908619923872763
 20
-2485.833297189065
 30
0.0
 40
186.4999999999755
 50
339.95246282997942
 51
20.047537170015801
  0
ARC
  5
1E76
  8
0
 10
76.544100378940271
 20
-2414.9332971890631
 30
0.0
 40
20.000000000006469
 50
192.46665334454121
 51
339.6109398968556
  0
LINE
  5
1E77
  8
0
 10
57.01566414795559
 20
-2419.2507244753788
 30
0.0
 11
50.422804769914471
 21
-2389.430133321011
 31
0.0
  0
ARC
  5
1E78
  8
0
 10
44.07606299484803
 20
-2390.8332971890632
 30
0.0
 40
6.499999999998499
 50
12.46665334454427
 51
90.0000000000055
  0
LINE
  5
1E79
  8
0
 10
44.076062994847398
 20
-2384.333297189065
 30
0.0
 11
13.59138007610238
 21
-2384.333297189065
 31
0.0
  0
LINE
  5
1E7A
  8
0
 10
13.59138007610238
 20
-2384.333297189065
 30
0.0
 11
13.59138007610238
 21
-2587.3332971890641
 31
0.0
  0
LINE
  5
1E7B
  8
0
 10
13.59138007610238
 20
-2587.3332971890641
 30
0.0
 11
-16.893302842643521
 21
-2587.3332971890641
 31
0.0
  0
ARC
  5
1E7C
  8
0
 10
-16.893302842643301
 20
-2580.833297189065
 30
0.0
 40
6.499999999999087
 50
192.46665334453871
 51
269.99999999999818
  0
LINE
  5
1E7D
  8
0
 10
-23.24004461771062
 20
-2582.2364610571171
 30
0.0
 11
-29.832903995751028
 21
-2552.4158699027498
 31
0.0
  0
ARC
  5
1E7E
  8
0
 10
-49.361340226736573
 20
-2556.7332971890642
 30
0.0
 40
20.00000000000702
 50
12.466653344536899
 51
159.6109398968575
  0
ARC
  5
1E7F
  8
0
 10
107.09138007611141
 20
-2485.8332971890641
 30
0.0
 40
186.50000000000841
 50
159.9524628299873
 51
200.0475371700114
  0
ARC
  5
1E80
  8
0
 10
-49.361340226735273
 20
-2414.9332971890631
 30
0.0
 40
20.000000000006171
 50
200.38906010313511
 51
347.53334665545992
  0
LINE
  5
1E81
  8
0
 10
-29.832903995750801
 20
-2419.2507244753788
 30
0.0
 11
-23.240044617709721
 21
-2389.430133321011
 31
0.0
  0
ARC
  5
1E82
  8
0
 10
-16.89330284264291
 20
-2390.8332971890632
 30
0.0
 40
6.499999999998967
 50
89.999999999997371
 51
167.5333466554525
  0
LINE
  5
1E83
  8
0
 10
-16.893302842642608
 20
-2384.333297189065
 30
0.0
 11
13.59138007610238
 21
-2384.333297189065
 31
0.0
  0
LINE
  5
1E84
  8
0
 10
13.59138007610238
 20
-2384.333297189065
 30
0.0
 11
13.59138007610238
 21
-2350.711319355064
 31
0.0
  0
LINE
  5
1E85
  8
0
 10
13.59138007610238
 20
-2829.955275023065
 30
0.0
 11
13.59138007610238
 21
-2826.955275023065
 31
0.0
  0
LINE
  5
1E86
  8
0
 10
13.59138007610238
 20
-2826.955275023065
 30
0.0
 11
44.076062994847568
 21
-2826.955275023065
 31
0.0
  0
ARC
  5
1E87
  8
0
 10
44.076062994847433
 20
-2820.455275023065
 30
0.0
 40
6.4999999999995444
 50
270.00000000000131
 51
347.53334665546259
  0
LINE
  5
1E88
  8
0
 10
50.422804769915381
 20
-2821.8584388911172
 30
0.0
 11
57.015664147955817
 21
-2792.0378477367522
 31
0.0
  0
ARC
  5
1E89
  8
0
 10
76.544100378935227
 20
-2796.3552750230729
 30
0.0
 40
20.000000000002501
 50
20.389060103116741
 51
167.5333466554402
  0
ARC
  5
1E8A
  8
0
 10
-79.908619923873374
 20
-2725.455275023066
 30
0.0
 40
186.49999999997601
 50
339.95246282997948
 51
20.047537170015872
  0
ARC
  5
1E8B
  8
0
 10
76.544100378939987
 20
-2654.555275023064
 30
0.0
 40
20.000000000006249
 50
192.46665334454269
 51
339.61093989685952
  0
LINE
  5
1E8C
  8
0
 10
57.01566414795559
 20
-2658.8727023093811
 30
0.0
 11
50.422804769914471
 21
-2629.052111155012
 31
0.0
  0
ARC
  5
1E8D
  8
0
 10
44.076062994846879
 20
-2630.4552750230641
 30
0.0
 40
6.4999999999994094
 50
12.46665334453429
 51
89.999999999995552
  0
LINE
  5
1E8E
  8
0
 10
44.076062994847398
 20
-2623.955275023065
 30
0.0
 11
13.59138007610238
 21
-2623.955275023065
 31
0.0
  0
LINE
  5
1E8F
  8
0
 10
13.59138007610238
 20
-2623.955275023065
 30
0.0
 11
13.59138007610238
 21
-2826.955275023065
 31
0.0
  0
LINE
  5
1E90
  8
0
 10
13.59138007610238
 20
-2826.955275023065
 30
0.0
 11
-16.893302842643521
 21
-2826.955275023065
 31
0.0
  0
ARC
  5
1E91
  8
0
 10
-16.893302842643031
 20
-2820.455275023066
 30
0.0
 40
6.499999999999087
 50
192.46665334453411
 51
269.99999999999568
  0
LINE
  5
1E92
  8
0
 10
-23.24004461771062
 20
-2821.8584388911172
 30
0.0
 11
-29.832903995751028
 21
-2792.0378477367522
 31
0.0
  0
ARC
  5
1E93
  8
0
 10
-49.361340226736921
 20
-2796.3552750230642
 30
0.0
 40
20.000000000007059
 50
12.46665334453288
 51
159.6109398968548
  0
ARC
  5
1E94
  8
0
 10
107.0913800761108
 20
-2725.4552750230641
 30
0.0
 40
186.5000000000077
 50
159.95246282998741
 51
200.0475371700114
  0
ARC
  5
1E95
  8
0
 10
-49.361340226734967
 20
-2654.555275023064
 30
0.0
 40
20.000000000006171
 50
200.38906010313229
 51
347.53334665545577
  0
LINE
  5
1E96
  8
0
 10
-29.832903995750801
 20
-2658.8727023093811
 30
0.0
 11
-23.240044617709721
 21
-2629.052111155012
 31
0.0
  0
ARC
  5
1E97
  8
0
 10
-16.89330284264177
 20
-2630.4552750230641
 30
0.0
 40
6.4999999999998783
 50
90.000000000007347
 51
167.53334665546251
  0
LINE
  5
1E98
  8
0
 10
-16.893302842642608
 20
-2623.955275023065
 30
0.0
 11
13.59138007610238
 21
-2623.955275023065
 31
0.0
  0
LINE
  5
1E99
  8
0
 10
13.59138007610238
 20
-2623.955275023065
 30
0.0
 11
13.59138007610238
 21
-2590.3332971890641
 31
0.0
  0
LINE
  5
1E9A
  8
0
 10
149.6996677504099
 20
-2980.4633509845448
 30
0.0
 11
149.6996677504099
 21
-3071.7042283936898
 31
0.0
  0
LINE
  5
1E9B
  8
0
 10
149.6996677504099
 20
-3071.7042283936898
 30
0.0
 11
13.59138007610238
 21
-3069.577252857066
 31
0.0
  0
LINE
  5
1E9C
  8
0
 10
13.59138007610238
 20
-3069.577252857066
 30
0.0
 11
13.59138007610238
 21
-3066.5772528570651
 31
0.0
  0
LINE
  5
1E9D
  8
0
 10
13.59138007610238
 20
-3066.5772528570651
 30
0.0
 11
44.076062994847568
 21
-3066.5772528570651
 31
0.0
  0
ARC
  5
1E9E
  8
0
 10
44.076062994847987
 20
-3060.0772528570651
 30
0.0
 40
6.4999999999995444
 50
269.99999999999631
 51
347.53334665545373
  0
LINE
  5
1E9F
  8
0
 10
50.422804769915381
 20
-3061.4804167251191
 30
0.0
 11
57.015664147955817
 21
-3031.6598255707522
 31
0.0
  0
ARC
  5
1EA0
  8
0
 10
76.544100378935056
 20
-3035.9772528570729
 30
0.0
 40
20.000000000002458
 50
20.389060103115391
 51
167.53334665543881
  0
ARC
  5
1EA1
  8
0
 10
-79.908619923874014
 20
-2965.0772528570678
 30
0.0
 40
186.49999999997681
 50
339.95246282997942
 51
20.047537170015801
  0
ARC
  5
1EA2
  8
0
 10
76.544100378940058
 20
-2894.177252857065
 30
0.0
 40
20.000000000006349
 50
192.46665334454229
 51
339.61093989685821
  0
LINE
  5
1EA3
  8
0
 10
57.01566414795559
 20
-2898.4946801433812
 30
0.0
 11
50.422804769914471
 21
-2868.674088989012
 31
0.0
  0
ARC
  5
1EA4
  8
0
 10
44.076062994848073
 20
-2870.0772528570651
 30
0.0
 40
6.499999999998443
 50
12.46665334454438
 51
90.000000000005983
  0
LINE
  5
1EA5
  8
0
 10
44.076062994847398
 20
-2863.5772528570669
 30
0.0
 11
13.59138007610238
 21
-2863.5772528570669
 31
0.0
  0
LINE
  5
1EA6
  8
0
 10
13.59138007610238
 20
-2863.5772528570669
 30
0.0
 11
13.59138007610238
 21
-3066.5772528570651
 31
0.0
  0
LINE
  5
1EA7
  8
0
 10
13.59138007610238
 20
-3066.5772528570651
 30
0.0
 11
-16.893302842643521
 21
-3066.5772528570651
 31
0.0
  0
ARC
  5
1EA8
  8
0
 10
-16.893302842643589
 20
-3060.077252857066
 30
0.0
 40
6.499999999999087
 50
192.46665334454309
 51
270.00000000000068
  0
LINE
  5
1EA9
  8
0
 10
-23.24004461771062
 20
-3061.4804167251191
 30
0.0
 11
-29.832903995751028
 21
-3031.6598255707522
 31
0.0
  0
ARC
  5
1EAA
  8
0
 10
-49.361340226736779
 20
-3035.9772528570652
 30
0.0
 40
20.00000000000702
 50
12.46665334453423
 51
159.61093989685611
  0
ARC
  5
1EAB
  8
0
 10
107.0913800761096
 20
-2965.0772528570651
 30
0.0
 40
186.50000000000651
 50
159.95246282998741
 51
200.0475371700114
  0
ARC
  5
1EAC
  8
0
 10
-49.361340226735237
 20
-2894.177252857065
 30
0.0
 40
20.000000000006231
 50
200.38906010313499
 51
347.53334665545862
  0
LINE
  5
1EAD
  8
0
 10
-29.832903995750801
 20
-2898.4946801433812
 30
0.0
 11
-23.240044617709721
 21
-2868.674088989012
 31
0.0
  0
ARC
  5
1EAE
  8
0
 10
-16.89330284264296
 20
-2870.0772528570651
 30
0.0
 40
6.4999999999989164
 50
89.999999999996916
 51
167.53334665545239
  0
LINE
  5
1EAF
  8
0
 10
-16.893302842642608
 20
-2863.5772528570669
 30
0.0
 11
13.59138007610238
 21
-2863.5772528570669
 31
0.0
  0
LINE
  5
1EB0
  8
0
 10
13.59138007610238
 20
-2863.5772528570669
 30
0.0
 11
13.59138007610238
 21
-2829.955275023065
 31
0.0
  0
LINE
  5
1EB1
  8
0
 10
149.6996677504099
 20
-2740.8413731505452
 30
0.0
 11
149.6996677504099
 21
-2743.8413731505452
 31
0.0
  0
LINE
  5
1EB2
  8
0
 10
149.6996677504099
 20
-2743.8413731505452
 30
0.0
 11
180.18435066915509
 21
-2743.8413731505452
 31
0.0
  0
ARC
  5
1EB3
  8
0
 10
180.18435066915481
 20
-2750.3413731505461
 30
0.0
 40
6.5
 50
12.466653344537461
 51
89.999999999997726
  0
LINE
  5
1EB4
  8
0
 10
186.53109244422279
 20
-2748.938209282494
 30
0.0
 11
193.12395182226331
 21
-2778.7588004368599
 31
0.0
  0
ARC
  5
1EB5
  8
0
 10
212.65238805324279
 20
-2774.4413731505379
 30
0.0
 40
20.00000000000264
 50
192.4666533445608
 51
339.61093989688339
  0
ARC
  5
1EB6
  8
0
 10
56.199667750434877
 20
-2845.3413731505439
 30
0.0
 40
186.4999999999755
 50
339.95246282998397
 51
20.047537170020561
  0
ARC
  5
1EB7
  8
0
 10
212.6523880532479
 20
-2916.2413731505471
 30
0.0
 40
20.000000000006619
 50
20.38906010314572
 51
167.53334665545879
  0
LINE
  5
1EB8
  8
0
 10
193.12395182226311
 20
-2911.9239458642319
 30
0.0
 11
186.531092444222
 21
-2941.7445370185992
 31
0.0
  0
ARC
  5
1EB9
  8
0
 10
180.18435066915541
 20
-2940.341373150547
 30
0.0
 40
6.4999999999986553
 50
269.99999999999648
 51
347.53334665545611
  0
LINE
  5
1EBA
  8
0
 10
180.18435066915501
 20
-2946.8413731505461
 30
0.0
 11
149.6996677504099
 21
-2946.8413731505461
 31
0.0
  0
LINE
  5
1EBB
  8
0
 10
149.6996677504099
 20
-2946.8413731505461
 30
0.0
 11
149.6996677504099
 21
-2743.8413731505452
 31
0.0
  0
LINE
  5
1EBC
  8
0
 10
149.6996677504099
 20
-2743.8413731505452
 30
0.0
 11
119.2149848316641
 21
-2743.8413731505452
 31
0.0
  0
ARC
  5
1EBD
  8
0
 10
119.21498483166449
 20
-2750.3413731505461
 30
0.0
 40
6.4999999999995444
 50
90.000000000004349
 51
167.53334665546581
  0
LINE
  5
1EBE
  8
0
 10
112.8682430565969
 20
-2748.938209282494
 30
0.0
 11
106.27538367855649
 21
-2778.7588004368599
 31
0.0
  0
ARC
  5
1EBF
  8
0
 10
86.746947447570733
 20
-2774.441373150547
 30
0.0
 40
20.0000000000068
 50
200.38906010314281
 51
347.53334665546822
  0
ARC
  5
1EC0
  8
0
 10
243.19966775041669
 20
-2845.341373150547
 30
0.0
 40
186.5000000000062
 50
159.95246282998841
 51
200.0475371700125
  0
ARC
  5
1EC1
  8
0
 10
86.746947447572083
 20
-2916.2413731505462
 30
0.0
 40
20.00000000000615
 50
12.46665334453875
 51
159.6109398968635
  0
LINE
  5
1EC2
  8
0
 10
106.27538367855669
 20
-2911.9239458642319
 30
0.0
 11
112.86824305659781
 21
-2941.7445370185992
 31
0.0
  0
ARC
  5
1EC3
  8
0
 10
119.21498483166479
 20
-2940.3413731505461
 30
0.0
 40
6.499999999999166
 50
192.46665334454701
 51
270.00000000000171
  0
LINE
  5
1EC4
  8
0
 10
119.21498483166501
 20
-2946.8413731505461
 30
0.0
 11
149.6996677504099
 21
-2946.8413731505461
 31
0.0
  0
LINE
  5
1EC5
  8
0
 10
149.6996677504099
 20
-2946.8413731505461
 30
0.0
 11
149.6996677504099
 21
-2980.4633509845448
 31
0.0
  0
LINE
  5
1EC6
  8
0
 10
149.6996677504099
 20
-2501.2193953165452
 30
0.0
 11
149.6996677504099
 21
-2504.2193953165452
 31
0.0
  0
LINE
  5
1EC7
  8
0
 10
149.6996677504099
 20
-2504.2193953165452
 30
0.0
 11
180.18435066915509
 21
-2504.2193953165452
 31
0.0
  0
ARC
  5
1EC8
  8
0
 10
180.18435066915509
 20
-2510.7193953165438
 30
0.0
 40
6.4999999999995444
 50
12.466653344538001
 51
90.000000000000213
  0
LINE
  5
1EC9
  8
0
 10
186.53109244422279
 20
-2509.3162314484921
 30
0.0
 11
193.12395182226331
 21
-2539.136822602859
 31
0.0
  0
ARC
  5
1ECA
  8
0
 10
212.6523880532427
 20
-2534.8193953165369
 30
0.0
 40
20.000000000002551
 50
192.46665334456111
 51
339.61093989688482
  0
ARC
  5
1ECB
  8
0
 10
56.199667750433633
 20
-2605.7193953165438
 30
0.0
 40
186.49999999997689
 50
339.95246282998397
 51
20.047537170020561
  0
ARC
  5
1ECC
  8
0
 10
212.65238805324771
 20
-2676.6193953165471
 30
0.0
 40
20.00000000000664
 50
20.389060103144299
 51
167.53334665545611
  0
LINE
  5
1ECD
  8
0
 10
193.12395182226311
 20
-2672.30196803023
 30
0.0
 11
186.531092444222
 21
-2702.1225591845969
 31
0.0
  0
ARC
  5
1ECE
  8
0
 10
180.18435066915541
 20
-2700.7193953165461
 30
0.0
 40
6.4999999999986553
 50
269.99999999999648
 51
347.53334665545611
  0
LINE
  5
1ECF
  8
0
 10
180.18435066915501
 20
-2707.2193953165438
 30
0.0
 11
149.6996677504099
 21
-2707.2193953165438
 31
0.0
  0
LINE
  5
1ED0
  8
0
 10
149.6996677504099
 20
-2707.2193953165438
 30
0.0
 11
149.6996677504099
 21
-2504.2193953165452
 31
0.0
  0
LINE
  5
1ED1
  8
0
 10
149.6996677504099
 20
-2504.2193953165452
 30
0.0
 11
119.2149848316641
 21
-2504.2193953165452
 31
0.0
  0
ARC
  5
1ED2
  8
0
 10
119.2149848316643
 20
-2510.7193953165438
 30
0.0
 40
6.499999999999087
 50
90.000000000001876
 51
167.5333466554651
  0
LINE
  5
1ED3
  8
0
 10
112.8682430565969
 20
-2509.3162314484921
 30
0.0
 11
106.27538367855649
 21
-2539.136822602859
 31
0.0
  0
ARC
  5
1ED4
  8
0
 10
86.746947447570804
 20
-2534.819395316546
 30
0.0
 40
20.000000000006828
 50
200.3890601031427
 51
347.53334665546708
  0
ARC
  5
1ED5
  8
0
 10
243.19966775041729
 20
-2605.7193953165452
 30
0.0
 40
186.50000000000679
 50
159.95246282998841
 51
200.0475371700125
  0
ARC
  5
1ED6
  8
0
 10
86.746947447572211
 20
-2676.6193953165448
 30
0.0
 40
20.000000000006271
 50
12.466653344541379
 51
159.61093989686361
  0
LINE
  5
1ED7
  8
0
 10
106.27538367855669
 20
-2672.30196803023
 30
0.0
 11
112.86824305659781
 21
-2702.1225591845969
 31
0.0
  0
ARC
  5
1ED8
  8
0
 10
119.21498483166479
 20
-2700.7193953165452
 30
0.0
 40
6.499999999999166
 50
192.46665334454701
 51
270.00000000000171
  0
LINE
  5
1ED9
  8
0
 10
119.21498483166501
 20
-2707.2193953165438
 30
0.0
 11
149.6996677504099
 21
-2707.2193953165438
 31
0.0
  0
LINE
  5
1EDA
  8
0
 10
149.6996677504099
 20
-2707.2193953165438
 30
0.0
 11
149.6996677504099
 21
-2740.8413731505452
 31
0.0
  0
LINE
  5
1EDB
  8
0
 10
149.6996677504099
 20
-2261.5974174825451
 30
0.0
 11
149.6996677504099
 21
-2264.5974174825451
 31
0.0
  0
LINE
  5
1EDC
  8
0
 10
149.6996677504099
 20
-2264.5974174825451
 30
0.0
 11
180.18435066915509
 21
-2264.5974174825451
 31
0.0
  0
ARC
  5
1EDD
  8
0
 10
180.18435066915541
 20
-2271.0974174825442
 30
0.0
 40
6.4999999999995444
 50
12.466653344542401
 51
90.000000000002487
  0
LINE
  5
1EDE
  8
0
 10
186.53109244422279
 20
-2269.694253614492
 30
0.0
 11
193.12395182226331
 21
-2299.5148447688571
 31
0.0
  0
ARC
  5
1EDF
  8
0
 10
212.6523880532427
 20
-2295.1974174825359
 30
0.0
 40
20.000000000002551
 50
192.46665334456111
 51
339.61093989688482
  0
ARC
  5
1EE0
  8
0
 10
56.199667750433008
 20
-2366.0974174825419
 30
0.0
 40
186.4999999999774
 50
339.95246282998397
 51
20.047537170020501
  0
ARC
  5
1EE1
  8
0
 10
212.65238805324779
 20
-2436.9974174825461
 30
0.0
 40
20.00000000000659
 50
20.389060103144349
 51
167.53334665545739
  0
LINE
  5
1EE2
  8
0
 10
193.12395182226311
 20
-2432.6799901962299
 30
0.0
 11
186.531092444222
 21
-2462.5005813505968
 31
0.0
  0
ARC
  5
1EE3
  8
0
 10
180.1843506691545
 20
-2461.097417482546
 30
0.0
 40
6.4999999999992912
 50
270.00000000000409
 51
347.53334665546538
  0
LINE
  5
1EE4
  8
0
 10
180.18435066915501
 20
-2467.5974174825451
 30
0.0
 11
149.6996677504099
 21
-2467.5974174825451
 31
0.0
  0
LINE
  5
1EE5
  8
0
 10
149.6996677504099
 20
-2467.5974174825451
 30
0.0
 11
149.6996677504099
 21
-2264.5974174825451
 31
0.0
  0
LINE
  5
1EE6
  8
0
 10
149.6996677504099
 20
-2264.5974174825451
 30
0.0
 11
119.2149848316641
 21
-2264.5974174825451
 31
0.0
  0
ARC
  5
1EE7
  8
0
 10
119.214984831664
 20
-2271.0974174825442
 30
0.0
 40
6.499999999999087
 50
89.999999999999375
 51
167.5333466554608
  0
LINE
  5
1EE8
  8
0
 10
112.8682430565969
 20
-2269.694253614492
 30
0.0
 11
106.27538367855649
 21
-2299.5148447688571
 31
0.0
  0
ARC
  5
1EE9
  8
0
 10
86.746947447570804
 20
-2295.1974174825441
 30
0.0
 40
20.000000000006828
 50
200.3890601031427
 51
347.53334665546708
  0
ARC
  5
1EEA
  8
0
 10
243.19966775041851
 20
-2366.0974174825451
 30
0.0
 40
186.50000000000799
 50
159.95246282998841
 51
200.0475371700125
  0
ARC
  5
1EEB
  8
0
 10
86.746947447572211
 20
-2436.9974174825452
 30
0.0
 40
20.000000000006271
 50
12.466653344541379
 51
159.61093989686361
  0
LINE
  5
1EEC
  8
0
 10
106.27538367855669
 20
-2432.6799901962299
 30
0.0
 11
112.86824305659781
 21
-2462.5005813505968
 31
0.0
  0
ARC
  5
1EED
  8
0
 10
119.2149848316657
 20
-2461.0974174825451
 30
0.0
 40
6.4999999999998064
 50
192.4666533445376
 51
269.99999999999409
  0
LINE
  5
1EEE
  8
0
 10
119.21498483166501
 20
-2467.5974174825451
 30
0.0
 11
149.6996677504099
 21
-2467.5974174825451
 31
0.0
  0
LINE
  5
1EEF
  8
0
 10
149.6996677504099
 20
-2467.5974174825451
 30
0.0
 11
149.6996677504099
 21
-2501.2193953165452
 31
0.0
  0
LINE
  5
1EF0
  8
0
 10
149.6996677504099
 20
-2021.9754396485439
 30
0.0
 11
149.6996677504099
 21
-2024.9754396485439
 31
0.0
  0
LINE
  5
1EF1
  8
0
 10
149.6996677504099
 20
-2024.9754396485439
 30
0.0
 11
180.18435066915509
 21
-2024.9754396485439
 31
0.0
  0
ARC
  5
1EF2
  8
0
 10
180.18435066915509
 20
-2031.4754396485439
 30
0.0
 40
6.4999999999995444
 50
12.466653344538001
 51
90.000000000000213
  0
LINE
  5
1EF3
  8
0
 10
186.53109244422279
 20
-2030.072275780492
 30
0.0
 11
193.12395182226331
 21
-2059.892866934857
 31
0.0
  0
ARC
  5
1EF4
  8
0
 10
212.6523880532427
 20
-2055.5754396485358
 30
0.0
 40
20.000000000002551
 50
192.46665334456111
 51
339.61093989688482
  0
ARC
  5
1EF5
  8
0
 10
56.19966775043239
 20
-2126.4754396485432
 30
0.0
 40
186.49999999997809
 50
339.95246282998397
 51
20.047537170020561
  0
ARC
  5
1EF6
  8
0
 10
212.65238805324751
 20
-2197.3754396485451
 30
0.0
 40
20.000000000006459
 50
20.389060103141709
 51
167.533346655456
  0
LINE
  5
1EF7
  8
0
 10
193.12395182226311
 20
-2193.058012362229
 30
0.0
 11
186.531092444222
 21
-2222.8786035165949
 31
0.0
  0
ARC
  5
1EF8
  8
0
 10
180.18435066915399
 20
-2221.4754396485441
 30
0.0
 40
6.4999999999997451
 50
270.00000000000898
 51
347.5333466554705
  0
LINE
  5
1EF9
  8
0
 10
180.18435066915501
 20
-2227.9754396485441
 30
0.0
 11
149.6996677504099
 21
-2227.9754396485441
 31
0.0
  0
LINE
  5
1EFA
  8
0
 10
149.6996677504099
 20
-2227.9754396485441
 30
0.0
 11
149.6996677504099
 21
-2024.9754396485439
 31
0.0
  0
LINE
  5
1EFB
  8
0
 10
149.6996677504099
 20
-2024.9754396485439
 30
0.0
 11
119.2149848316641
 21
-2024.9754396485439
 31
0.0
  0
ARC
  5
1EFC
  8
0
 10
119.2149848316643
 20
-2031.475439648543
 30
0.0
 40
6.4999999999993161
 50
90.000000000001876
 51
167.53334665546339
  0
LINE
  5
1EFD
  8
0
 10
112.8682430565969
 20
-2030.072275780492
 30
0.0
 11
106.27538367855649
 21
-2059.892866934857
 31
0.0
  0
ARC
  5
1EFE
  8
0
 10
86.746947447570804
 20
-2055.575439648544
 30
0.0
 40
20.000000000006828
 50
200.3890601031427
 51
347.53334665546708
  0
ARC
  5
1EFF
  8
0
 10
243.19966775041729
 20
-2126.4754396485441
 30
0.0
 40
186.50000000000679
 50
159.95246282998841
 51
200.0475371700125
  0
ARC
  5
1F00
  8
0
 10
86.746947447572211
 20
-2197.3754396485442
 30
0.0
 40
20.000000000006271
 50
12.466653344541379
 51
159.61093989686361
  0
LINE
  5
1F01
  8
0
 10
106.27538367855669
 20
-2193.058012362229
 30
0.0
 11
112.86824305659781
 21
-2222.8786035165949
 31
0.0
  0
ARC
  5
1F02
  8
0
 10
119.2149848316662
 20
-2221.4754396485441
 30
0.0
 40
6.5000000000002451
 50
192.4666533445324
 51
269.9999999999892
  0
LINE
  5
1F03
  8
0
 10
119.21498483166501
 20
-2227.9754396485441
 30
0.0
 11
149.6996677504099
 21
-2227.9754396485441
 31
0.0
  0
LINE
  5
1F04
  8
0
 10
149.6996677504099
 20
-2227.9754396485441
 30
0.0
 11
149.6996677504099
 21
-2261.5974174825451
 31
0.0
  0
LINE
  5
1F05
  8
0
 10
268.19344689491612
 20
-1597.5825765824191
 30
0.0
 11
52.493665481291828
 21
-1597.5825765824191
 31
0.0
  0
LINE
  5
1F06
  8
0
 10
52.493665481291828
 20
-1597.5825765824191
 30
0.0
 11
52.493665481291828
 21
-1655.4650418665749
 31
0.0
  0
LINE
  5
1F07
  8
0
 10
52.493665481291828
 20
-1655.4650418665749
 30
0.0
 11
148.9981796195006
 21
-1732.111510432462
 31
0.0
  0
LINE
  5
1F08
  8
0
 10
148.9981796195006
 20
-1732.111510432462
 30
0.0
 11
149.6996677504099
 21
-1782.3534618145441
 31
0.0
  0
LINE
  5
1F09
  8
0
 10
149.6996677504099
 20
-1782.3534618145441
 30
0.0
 11
149.6996677504099
 21
-1785.353461814542
 31
0.0
  0
LINE
  5
1F0A
  8
0
 10
149.6996677504099
 20
-1785.353461814542
 30
0.0
 11
180.18435066915509
 21
-1785.353461814542
 31
0.0
  0
ARC
  5
1F0B
  8
0
 10
180.18435066915521
 20
-1791.853461814542
 30
0.0
 40
6.4999999999995444
 50
12.466653344542239
 51
90.000000000001776
  0
LINE
  5
1F0C
  8
0
 10
186.53109244422279
 20
-1790.4502979464901
 30
0.0
 11
193.12395182226331
 21
-1820.270889100856
 31
0.0
  0
ARC
  5
1F0D
  8
0
 10
212.65238805324259
 20
-1815.9534618145351
 30
0.0
 40
20.000000000002501
 50
192.46665334456111
 51
339.6109398968847
  0
ARC
  5
1F0E
  8
0
 10
56.199667750433584
 20
-1886.85346181454
 30
0.0
 40
186.49999999997689
 50
339.95246282998431
 51
20.047537170020629
  0
ARC
  5
1F0F
  8
0
 10
212.65238805324779
 20
-1957.7534618145439
 30
0.0
 40
20.000000000006509
 50
20.389060103143741
 51
167.53334665545799
  0
LINE
  5
1F10
  8
0
 10
193.12395182226311
 20
-1953.436034528228
 30
0.0
 11
186.531092444222
 21
-1983.256625682596
 31
0.0
  0
ARC
  5
1F11
  8
0
 10
180.18435066915501
 20
-1981.8534618145429
 30
0.0
 40
6.4999999999990701
 50
269.99999999999932
 51
347.53334665545691
  0
LINE
  5
1F12
  8
0
 10
180.1843506691549
 20
-1988.3534618145429
 30
0.0
 11
149.6996677504099
 21
-1988.3534618145429
 31
0.0
  0
LINE
  5
1F13
  8
0
 10
149.6996677504099
 20
-1988.3534618145429
 30
0.0
 11
149.6996677504099
 21
-1785.353461814542
 31
0.0
  0
LINE
  5
1F14
  8
0
 10
149.6996677504099
 20
-1785.353461814542
 30
0.0
 11
119.2149848316641
 21
-1785.353461814542
 31
0.0
  0
ARC
  5
1F15
  8
0
 10
119.2149848316641
 20
-1791.853461814542
 30
0.0
 40
6.499999999999087
 50
90.000000000000298
 51
167.53334665546109
  0
LINE
  5
1F16
  8
0
 10
112.8682430565969
 20
-1790.4502979464901
 30
0.0
 11
106.27538367855649
 21
-1820.270889100856
 31
0.0
  0
ARC
  5
1F17
  8
0
 10
86.746947447570861
 20
-1815.953461814544
 30
0.0
 40
20.00000000000675
 50
200.3890601031421
 51
347.5333466554676
  0
ARC
  5
1F18
  8
0
 10
243.19966775041709
 20
-1886.8534618145429
 30
0.0
 40
186.50000000000639
 50
159.95246282998841
 51
200.04753717001259
  0
ARC
  5
1F19
  8
0
 10
86.74694744757214
 20
-1957.753461814543
 30
0.0
 40
20.000000000006231
 50
12.46665334454007
 51
159.61093989686361
  0
LINE
  5
1F1A
  8
0
 10
106.27538367855669
 20
-1953.436034528228
 30
0.0
 11
112.86824305659781
 21
-1983.256625682596
 31
0.0
  0
ARC
  5
1F1B
  8
0
 10
119.21498483166521
 20
-1981.8534618145429
 30
0.0
 40
6.4999999999995541
 50
192.4666533445463
 51
269.99999999999812
  0
LINE
  5
1F1C
  8
0
 10
119.21498483166501
 20
-1988.3534618145429
 30
0.0
 11
149.6996677504099
 21
-1988.3534618145429
 31
0.0
  0
LINE
  5
1F1D
  8
0
 10
149.6996677504099
 20
-1988.3534618145429
 30
0.0
 11
149.6996677504099
 21
-2021.9754396485439
 31
0.0
  0
LINE
  5
1F1E
  8
0
 10
286.44705423018149
 20
-1631.8453858530611
 30
0.0
 11
273.19344689491612
 21
-1602.5825765824191
 31
0.0
  0
LINE
  5
1F1F
  8
0
 10
273.19344689491612
 20
-1602.5825765824191
 30
0.0
 11
268.19344689491612
 21
-1602.5825765824191
 31
0.0
  0
LINE
  5
1F20
  8
0
 10
268.19344689491612
 20
-1602.5825765824191
 30
0.0
 11
268.19344689491612
 21
-1633.0672595011649
 31
0.0
  0
ARC
  5
1F21
  8
0
 10
261.69344689491788
 20
-1633.0672595011649
 30
0.0
 40
6.499999999998181
 50
282.46665334453718
 51
359.99999999999602
  0
LINE
  5
1F22
  8
0
 10
263.09661076296919
 20
-1639.4140012762309
 30
0.0
 11
233.27601960860099
 21
-1646.0068606542741
 31
0.0
  0
ARC
  5
1F23
  8
0
 10
237.5934468949078
 20
-1665.5352968852651
 30
0.0
 40
20.000000000011191
 50
102.4666533445122
 51
249.610939896822
  0
ARC
  5
1F24
  8
0
 10
166.6934468949141
 20
-1509.082576582503
 30
0.0
 40
186.4999999999207
 50
249.9524628299736
 51
290.047537170015
  0
ARC
  5
1F25
  8
0
 10
95.793446894907049
 20
-1665.535296885253
 30
0.0
 40
20.00000000000291
 50
290.3890601031207
 51
77.533346655435395
  0
LINE
  5
1F26
  8
0
 10
100.1108741812299
 20
-1646.0068606542741
 30
0.0
 11
70.290283026863591
 21
-1639.414001276233
 31
0.0
  0
ARC
  5
1F27
  8
0
 10
71.693446894915439
 20
-1633.0672595011649
 30
0.0
 40
6.4999999999993321
 50
180.00000000000199
 51
257.53334665546032
  0
LINE
  5
1F28
  8
0
 10
65.193446894916121
 20
-1633.0672595011649
 30
0.0
 11
65.193446894916121
 21
-1602.5825765824191
 31
0.0
  0
LINE
  5
1F29
  8
0
 10
65.193446894916121
 20
-1602.5825765824191
 30
0.0
 11
268.19344689491612
 21
-1602.5825765824191
 31
0.0
  0
LINE
  5
1F2A
  8
0
 10
268.19344689491612
 20
-1602.5825765824191
 30
0.0
 11
268.19344689491612
 21
-1597.5825765824191
 31
0.0
  0
LINE
  5
1F2B
  8
0
 10
286.44705423018149
 20
-1871.4673636870609
 30
0.0
 11
286.44705423018149
 21
-1868.4673636870609
 31
0.0
  0
LINE
  5
1F2C
  8
0
 10
286.44705423018149
 20
-1868.4673636870609
 30
0.0
 11
316.93173714892669
 21
-1868.4673636870609
 31
0.0
  0
ARC
  5
1F2D
  8
0
 10
316.93173714892708
 20
-1861.9673636870621
 30
0.0
 40
6.4999999999995444
 50
269.99999999999602
 51
347.5333466554535
  0
LINE
  5
1F2E
  8
0
 10
323.2784789239945
 20
-1863.3705275551149
 30
0.0
 11
329.87133830203493
 21
-1833.549936400748
 31
0.0
  0
ARC
  5
1F2F
  8
0
 10
349.39977453301441
 20
-1837.8673636870701
 30
0.0
 40
20.000000000002562
 50
20.389060103116051
 51
167.5333466554396
  0
ARC
  5
1F30
  8
0
 10
192.94705423020571
 20
-1766.967363687063
 30
0.0
 40
186.49999999997621
 50
339.95246282997942
 51
20.047537170015811
  0
ARC
  5
1F31
  8
0
 10
349.39977453301941
 20
-1696.067363687062
 30
0.0
 40
20.000000000006381
 50
192.4666533445413
 51
339.61093989685679
  0
LINE
  5
1F32
  8
0
 10
329.8713383020347
 20
-1700.384790973377
 30
0.0
 11
323.27847892399359
 21
-1670.5641998190099
 31
0.0
  0
ARC
  5
1F33
  8
0
 10
316.93173714892572
 20
-1671.9673636870609
 30
0.0
 40
6.4999999999996971
 50
12.46665334453577
 51
89.999999999993477
  0
LINE
  5
1F34
  8
0
 10
316.93173714892652
 20
-1665.4673636870609
 30
0.0
 11
286.44705423018149
 21
-1665.4673636870609
 31
0.0
  0
LINE
  5
1F35
  8
0
 10
286.44705423018149
 20
-1665.4673636870609
 30
0.0
 11
286.44705423018149
 21
-1868.4673636870609
 31
0.0
  0
LINE
  5
1F36
  8
0
 10
286.44705423018149
 20
-1868.4673636870609
 30
0.0
 11
255.96237131143559
 21
-1868.4673636870609
 31
0.0
  0
ARC
  5
1F37
  8
0
 10
255.9623713114355
 20
-1861.9673636870621
 30
0.0
 40
6.499999999999087
 50
192.4666533445432
 51
270.00000000000068
  0
LINE
  5
1F38
  8
0
 10
249.61562953636849
 20
-1863.3705275551149
 30
0.0
 11
243.02277015832809
 21
-1833.549936400748
 31
0.0
  0
ARC
  5
1F39
  8
0
 10
223.4943339273423
 20
-1837.867363687061
 30
0.0
 40
20.00000000000691
 50
12.4666533445323
 51
159.61093989685659
  0
ARC
  5
1F3A
  8
0
 10
379.94705423018883
 20
-1766.9673636870621
 30
0.0
 40
186.50000000000651
 50
159.95246282998741
 51
200.04753717001151
  0
ARC
  5
1F3B
  8
0
 10
223.49433392734389
 20
-1696.067363687062
 30
0.0
 40
20.000000000006231
 50
200.38906010313571
 51
347.5333466554593
  0
LINE
  5
1F3C
  8
0
 10
243.02277015832831
 20
-1700.384790973377
 30
0.0
 11
249.6156295363694
 21
-1670.5641998190099
 31
0.0
  0
ARC
  5
1F3D
  8
0
 10
255.96237131143761
 20
-1671.9673636870621
 30
0.0
 40
6.500000000000159
 50
90.000000000009521
 51
167.533346655461
  0
LINE
  5
1F3E
  8
0
 10
255.9623713114365
 20
-1665.4673636870609
 30
0.0
 11
286.44705423018149
 21
-1665.4673636870609
 31
0.0
  0
LINE
  5
1F3F
  8
0
 10
286.44705423018149
 20
-1665.4673636870609
 30
0.0
 11
286.44705423018149
 21
-1631.8453858530611
 31
0.0
  0
LINE
  5
1F40
  8
0
 10
286.44705423018149
 20
-2111.0893415210612
 30
0.0
 11
286.44705423018149
 21
-2108.0893415210612
 31
0.0
  0
LINE
  5
1F41
  8
0
 10
286.44705423018149
 20
-2108.0893415210612
 30
0.0
 11
316.93173714892669
 21
-2108.0893415210612
 31
0.0
  0
ARC
  5
1F42
  8
0
 10
316.93173714892708
 20
-2101.5893415210621
 30
0.0
 40
6.499999999999087
 50
269.99999999999602
 51
347.53334665545748
  0
LINE
  5
1F43
  8
0
 10
323.2784789239945
 20
-2102.9925053891138
 30
0.0
 11
329.87133830203493
 21
-2073.1719142347488
 31
0.0
  0
ARC
  5
1F44
  8
0
 10
349.39977453301441
 20
-2077.4893415210699
 30
0.0
 40
20.000000000002611
 50
20.389060103116659
 51
167.53334665543889
  0
ARC
  5
1F45
  8
0
 10
192.9470542302052
 20
-2006.589341521063
 30
0.0
 40
186.49999999997681
 50
339.95246282997942
 51
20.047537170015811
  0
ARC
  5
1F46
  8
0
 10
349.39977453301918
 20
-1935.689341521062
 30
0.0
 40
20.000000000006271
 50
192.4666533445413
 51
339.61093989685799
  0
LINE
  5
1F47
  8
0
 10
329.8713383020347
 20
-1940.0067688073759
 30
0.0
 11
323.27847892399359
 21
-1910.18617765301
 31
0.0
  0
ARC
  5
1F48
  8
0
 10
316.931737148926
 20
-1911.589341521061
 30
0.0
 40
6.4999999999995284
 50
12.466653344538161
 51
89.999999999995481
  0
LINE
  5
1F49
  8
0
 10
316.93173714892652
 20
-1905.089341521061
 30
0.0
 11
286.44705423018149
 21
-1905.089341521061
 31
0.0
  0
LINE
  5
1F4A
  8
0
 10
286.44705423018149
 20
-1905.089341521061
 30
0.0
 11
286.44705423018149
 21
-2108.0893415210612
 31
0.0
  0
LINE
  5
1F4B
  8
0
 10
286.44705423018149
 20
-2108.0893415210612
 30
0.0
 11
255.96237131143559
 21
-2108.0893415210612
 31
0.0
  0
ARC
  5
1F4C
  8
0
 10
255.9623713114355
 20
-2101.589341521063
 30
0.0
 40
6.4999999999986331
 50
192.4666533445392
 51
270.00000000000068
  0
LINE
  5
1F4D
  8
0
 10
249.61562953636849
 20
-2102.9925053891138
 30
0.0
 11
243.02277015832809
 21
-2073.1719142347488
 31
0.0
  0
ARC
  5
1F4E
  8
0
 10
223.49433392734241
 20
-2077.4893415210631
 30
0.0
 40
20.000000000006871
 50
12.46665334453299
 51
159.6109398968573
  0
ARC
  5
1F4F
  8
0
 10
379.94705423018928
 20
-2006.5893415210619
 30
0.0
 40
186.50000000000711
 50
159.95246282998741
 51
200.04753717001151
  0
ARC
  5
1F50
  8
0
 10
223.49433392734389
 20
-1935.689341521062
 30
0.0
 40
20.000000000006231
 50
200.38906010313571
 51
347.5333466554593
  0
LINE
  5
1F51
  8
0
 10
243.02277015832831
 20
-1940.0067688073759
 30
0.0
 11
249.6156295363694
 21
-1910.18617765301
 31
0.0
  0
ARC
  5
1F52
  8
0
 10
255.96237131143729
 20
-1911.589341521061
 30
0.0
 40
6.4999999999999281
 50
90.000000000007006
 51
167.5333466554585
  0
LINE
  5
1F53
  8
0
 10
255.9623713114365
 20
-1905.089341521061
 30
0.0
 11
286.44705423018149
 21
-1905.089341521061
 31
0.0
  0
LINE
  5
1F54
  8
0
 10
286.44705423018149
 20
-1905.089341521061
 30
0.0
 11
286.44705423018149
 21
-1871.4673636870609
 31
0.0
  0
LINE
  5
1F55
  8
0
 10
286.44705423018149
 20
-2350.711319355064
 30
0.0
 11
286.44705423018149
 21
-2347.7113193550649
 31
0.0
  0
LINE
  5
1F56
  8
0
 10
286.44705423018149
 20
-2347.7113193550649
 30
0.0
 11
316.93173714892669
 21
-2347.7113193550649
 31
0.0
  0
ARC
  5
1F57
  8
0
 10
316.93173714892521
 20
-2341.211319355064
 30
0.0
 40
6.5000000000009059
 50
270.00000000001347
 51
347.533346655473
  0
LINE
  5
1F58
  8
0
 10
323.2784789239945
 20
-2342.6144832231148
 30
0.0
 11
329.87133830203493
 21
-2312.7938920687511
 31
0.0
  0
ARC
  5
1F59
  8
0
 10
349.39977453301418
 20
-2317.1113193550709
 30
0.0
 40
20.000000000002551
 50
20.389060103115391
 51
167.53334665543889
  0
ARC
  5
1F5A
  8
0
 10
192.94705423020699
 20
-2246.2113193550649
 30
0.0
 40
186.4999999999749
 50
339.95246282997942
 51
20.047537170015751
  0
ARC
  5
1F5B
  8
0
 10
349.39977453301941
 20
-2175.311319355063
 30
0.0
 40
20.00000000000632
 50
192.46665334453999
 51
339.61093989685679
  0
LINE
  5
1F5C
  8
0
 10
329.8713383020347
 20
-2179.6287466413801
 30
0.0
 11
323.27847892399359
 21
-2149.8081554870091
 31
0.0
  0
ARC
  5
1F5D
  8
0
 10
316.93173714892691
 20
-2151.2113193550608
 30
0.0
 40
6.4999999999987921
 50
12.466653344543699
 51
90.000000000003013
  0
LINE
  5
1F5E
  8
0
 10
316.93173714892652
 20
-2144.7113193550631
 30
0.0
 11
286.44705423018149
 21
-2144.7113193550631
 31
0.0
  0
LINE
  5
1F5F
  8
0
 10
286.44705423018149
 20
-2144.7113193550631
 30
0.0
 11
286.44705423018149
 21
-2347.7113193550649
 31
0.0
  0
LINE
  5
1F60
  8
0
 10
286.44705423018149
 20
-2347.7113193550649
 30
0.0
 11
255.96237131143559
 21
-2347.7113193550649
 31
0.0
  0
ARC
  5
1F61
  8
0
 10
255.96237131143749
 20
-2341.211319355064
 30
0.0
 40
6.5000000000004521
 50
192.46665334452371
 51
269.99999999998317
  0
LINE
  5
1F62
  8
0
 10
249.61562953636849
 20
-2342.6144832231148
 30
0.0
 11
243.02277015832809
 21
-2312.7938920687511
 31
0.0
  0
ARC
  5
1F63
  8
0
 10
223.49433392734241
 20
-2317.1113193550618
 30
0.0
 40
20.000000000006871
 50
12.46665334453299
 51
159.6109398968573
  0
ARC
  5
1F64
  8
0
 10
379.94705423018883
 20
-2246.2113193550631
 30
0.0
 40
186.50000000000671
 50
159.9524628299875
 51
200.04753717001159
  0
ARC
  5
1F65
  8
0
 10
223.49433392734389
 20
-2175.311319355063
 30
0.0
 40
20.000000000006231
 50
200.38906010313499
 51
347.53334665545862
  0
LINE
  5
1F66
  8
0
 10
243.02277015832831
 20
-2179.6287466413801
 30
0.0
 11
249.6156295363694
 21
-2149.8081554870091
 31
0.0
  0
ARC
  5
1F67
  8
0
 10
255.9623713114365
 20
-2151.2113193550631
 30
0.0
 40
6.499999999999222
 50
89.99999999999973
 51
167.53334665545299
  0
LINE
  5
1F68
  8
0
 10
255.9623713114365
 20
-2144.7113193550631
 30
0.0
 11
286.44705423018149
 21
-2144.7113193550631
 31
0.0
  0
LINE
  5
1F69
  8
0
 10
286.44705423018149
 20
-2144.7113193550631
 30
0.0
 11
286.44705423018149
 21
-2111.0893415210612
 31
0.0
  0
LINE
  5
1F6A
  8
0
 10
286.44705423018149
 20
-2590.3332971890641
 30
0.0
 11
286.44705423018149
 21
-2587.3332971890641
 31
0.0
  0
LINE
  5
1F6B
  8
0
 10
286.44705423018149
 20
-2587.3332971890641
 30
0.0
 11
316.93173714892669
 21
-2587.3332971890641
 31
0.0
  0
ARC
  5
1F6C
  8
0
 10
316.93173714892691
 20
-2580.833297189065
 30
0.0
 40
6.4999999999995444
 50
269.99999999999852
 51
347.53334665545822
  0
LINE
  5
1F6D
  8
0
 10
323.2784789239945
 20
-2582.2364610571171
 30
0.0
 11
329.87133830203493
 21
-2552.4158699027498
 31
0.0
  0
ARC
  5
1F6E
  8
0
 10
349.39977453301418
 20
-2556.733297189071
 30
0.0
 40
20.000000000002551
 50
20.389060103115391
 51
167.53334665543889
  0
ARC
  5
1F6F
  8
0
 10
192.9470542302038
 20
-2485.8332971890641
 30
0.0
 40
186.49999999997809
 50
339.95246282997942
 51
20.047537170015811
  0
ARC
  5
1F70
  8
0
 10
349.39977453301918
 20
-2414.9332971890631
 30
0.0
 40
20.00000000000643
 50
192.466653344544
 51
339.61093989685838
  0
LINE
  5
1F71
  8
0
 10
329.8713383020347
 20
-2419.2507244753788
 30
0.0
 11
323.27847892399359
 21
-2389.430133321011
 31
0.0
  0
ARC
  5
1F72
  8
0
 10
316.93173714892657
 20
-2390.8332971890641
 30
0.0
 40
6.4999999999990701
 50
12.466653344543159
 51
90.000000000000469
  0
LINE
  5
1F73
  8
0
 10
316.93173714892652
 20
-2384.333297189065
 30
0.0
 11
286.44705423018149
 21
-2384.333297189065
 31
0.0
  0
LINE
  5
1F74
  8
0
 10
286.44705423018149
 20
-2384.333297189065
 30
0.0
 11
286.44705423018149
 21
-2587.3332971890641
 31
0.0
  0
LINE
  5
1F75
  8
0
 10
286.44705423018149
 20
-2587.3332971890641
 30
0.0
 11
255.96237131143559
 21
-2587.3332971890641
 31
0.0
  0
ARC
  5
1F76
  8
0
 10
255.9623713114357
 20
-2580.833297189065
 30
0.0
 40
6.499999999999087
 50
192.46665334453871
 51
269.99999999999829
  0
LINE
  5
1F77
  8
0
 10
249.61562953636849
 20
-2582.2364610571171
 30
0.0
 11
243.02277015832809
 21
-2552.4158699027498
 31
0.0
  0
ARC
  5
1F78
  8
0
 10
223.49433392734241
 20
-2556.7332971890628
 30
0.0
 40
20.000000000006871
 50
12.46665334453299
 51
159.6109398968573
  0
ARC
  5
1F79
  8
0
 10
379.94705423018883
 20
-2485.8332971890632
 30
0.0
 40
186.50000000000671
 50
159.9524628299875
 51
200.04753717001159
  0
ARC
  5
1F7A
  8
0
 10
223.49433392734389
 20
-2414.9332971890631
 30
0.0
 40
20.00000000000615
 50
200.38906010313511
 51
347.53334665545992
  0
LINE
  5
1F7B
  8
0
 10
243.02277015832831
 20
-2419.2507244753788
 30
0.0
 11
249.6156295363694
 21
-2389.430133321011
 31
0.0
  0
ARC
  5
1F7C
  8
0
 10
255.9623713114367
 20
-2390.8332971890641
 30
0.0
 40
6.4999999999994751
 50
90.000000000002018
 51
167.5333466554535
  0
LINE
  5
1F7D
  8
0
 10
255.9623713114365
 20
-2384.333297189065
 30
0.0
 11
286.44705423018149
 21
-2384.333297189065
 31
0.0
  0
LINE
  5
1F7E
  8
0
 10
286.44705423018149
 20
-2384.333297189065
 30
0.0
 11
286.44705423018149
 21
-2350.711319355064
 31
0.0
  0
LINE
  5
1F7F
  8
0
 10
286.44705423018149
 20
-2829.955275023065
 30
0.0
 11
286.44705423018149
 21
-2826.955275023065
 31
0.0
  0
LINE
  5
1F80
  8
0
 10
286.44705423018149
 20
-2826.955275023065
 30
0.0
 11
316.93173714892669
 21
-2826.955275023065
 31
0.0
  0
ARC
  5
1F81
  8
0
 10
316.93173714892657
 20
-2820.455275023065
 30
0.0
 40
6.4999999999995444
 50
270.00000000000102
 51
347.53334665546248
  0
LINE
  5
1F82
  8
0
 10
323.2784789239945
 20
-2821.8584388911172
 30
0.0
 11
329.87133830203493
 21
-2792.0378477367522
 31
0.0
  0
ARC
  5
1F83
  8
0
 10
349.39977453301441
 20
-2796.3552750230729
 30
0.0
 40
20.000000000002569
 50
20.389060103116719
 51
167.5333466554402
  0
ARC
  5
1F84
  8
0
 10
192.94705423020571
 20
-2725.455275023066
 30
0.0
 40
186.49999999997601
 50
339.95246282997948
 51
20.047537170015872
  0
ARC
  5
1F85
  8
0
 10
349.39977453301918
 20
-2654.555275023064
 30
0.0
 40
20.000000000006271
 50
192.46665334454269
 51
339.61093989685952
  0
LINE
  5
1F86
  8
0
 10
329.8713383020347
 20
-2658.8727023093811
 30
0.0
 11
323.27847892399359
 21
-2629.052111155012
 31
0.0
  0
ARC
  5
1F87
  8
0
 10
316.931737148926
 20
-2630.4552750230641
 30
0.0
 40
6.499999999999428
 50
12.466653344534249
 51
89.999999999995481
  0
LINE
  5
1F88
  8
0
 10
316.93173714892652
 20
-2623.955275023065
 30
0.0
 11
286.44705423018149
 21
-2623.955275023065
 31
0.0
  0
LINE
  5
1F89
  8
0
 10
286.44705423018149
 20
-2623.955275023065
 30
0.0
 11
286.44705423018149
 21
-2826.955275023065
 31
0.0
  0
LINE
  5
1F8A
  8
0
 10
286.44705423018149
 20
-2826.955275023065
 30
0.0
 11
255.96237131143559
 21
-2826.955275023065
 31
0.0
  0
ARC
  5
1F8B
  8
0
 10
255.9623713114361
 20
-2820.455275023066
 30
0.0
 40
6.499999999999087
 50
192.46665334453411
 51
269.99999999999568
  0
LINE
  5
1F8C
  8
0
 10
249.61562953636849
 20
-2821.8584388911172
 30
0.0
 11
243.02277015832809
 21
-2792.0378477367522
 31
0.0
  0
ARC
  5
1F8D
  8
0
 10
223.4943339273423
 20
-2796.3552750230642
 30
0.0
 40
20.00000000000691
 50
12.466653344531631
 51
159.61093989685591
  0
ARC
  5
1F8E
  8
0
 10
379.94705423019002
 20
-2725.4552750230641
 30
0.0
 40
186.5000000000079
 50
159.9524628299875
 51
200.04753717001159
  0
ARC
  5
1F8F
  8
0
 10
223.49433392734409
 20
-2654.555275023064
 30
0.0
 40
20.00000000000615
 50
200.38906010313229
 51
347.53334665545577
  0
LINE
  5
1F90
  8
0
 10
243.02277015832831
 20
-2658.8727023093811
 30
0.0
 11
249.6156295363694
 21
-2629.052111155012
 31
0.0
  0
ARC
  5
1F91
  8
0
 10
255.96237131143729
 20
-2630.4552750230641
 30
0.0
 40
6.4999999999998321
 50
90.000000000007006
 51
167.5333466554624
  0
LINE
  5
1F92
  8
0
 10
255.9623713114365
 20
-2623.955275023065
 30
0.0
 11
286.44705423018149
 21
-2623.955275023065
 31
0.0
  0
LINE
  5
1F93
  8
0
 10
286.44705423018149
 20
-2623.955275023065
 30
0.0
 11
286.44705423018149
 21
-2590.3332971890641
 31
0.0
  0
LINE
  5
1F94
  8
0
 10
286.44705423018149
 20
-3069.577252857066
 30
0.0
 11
286.44705423018149
 21
-3066.5772528570651
 31
0.0
  0
LINE
  5
1F95
  8
0
 10
286.44705423018149
 20
-3066.5772528570651
 30
0.0
 11
316.93173714892669
 21
-3066.5772528570651
 31
0.0
  0
ARC
  5
1F96
  8
0
 10
316.93173714892708
 20
-3060.0772528570651
 30
0.0
 40
6.4999999999995444
 50
269.99999999999602
 51
347.5333466554535
  0
LINE
  5
1F97
  8
0
 10
323.2784789239945
 20
-3061.4804167251191
 30
0.0
 11
329.87133830203493
 21
-3031.6598255707522
 31
0.0
  0
ARC
  5
1F98
  8
0
 10
349.39977453301418
 20
-3035.9772528570729
 30
0.0
 40
20.000000000002551
 50
20.389060103115391
 51
167.53334665543889
  0
ARC
  5
1F99
  8
0
 10
192.9470542302052
 20
-2965.0772528570678
 30
0.0
 40
186.49999999997681
 50
339.95246282997942
 51
20.047537170015811
  0
ARC
  5
1F9A
  8
0
 10
349.39977453301918
 20
-2894.177252857065
 30
0.0
 40
20.000000000006381
 50
192.46665334454269
 51
339.61093989685821
  0
LINE
  5
1F9B
  8
0
 10
329.8713383020347
 20
-2898.4946801433812
 30
0.0
 11
323.27847892399359
 21
-2868.674088989012
 31
0.0
  0
ARC
  5
1F9C
  8
0
 10
316.93173714892708
 20
-2870.0772528570651
 30
0.0
 40
6.4999999999985132
 50
12.466653344544239
 51
90.0000000000055
  0
LINE
  5
1F9D
  8
0
 10
316.93173714892652
 20
-2863.5772528570669
 30
0.0
 11
286.44705423018149
 21
-2863.5772528570669
 31
0.0
  0
LINE
  5
1F9E
  8
0
 10
286.44705423018149
 20
-2863.5772528570669
 30
0.0
 11
286.44705423018149
 21
-3066.5772528570651
 31
0.0
  0
LINE
  5
1F9F
  8
0
 10
286.44705423018149
 20
-3066.5772528570651
 30
0.0
 11
255.96237131143559
 21
-3066.5772528570651
 31
0.0
  0
ARC
  5
1FA0
  8
0
 10
255.9623713114355
 20
-3060.077252857066
 30
0.0
 40
6.499999999999087
 50
192.4666533445432
 51
270.00000000000068
  0
LINE
  5
1FA1
  8
0
 10
249.61562953636849
 20
-3061.4804167251191
 30
0.0
 11
243.02277015832809
 21
-3031.6598255707522
 31
0.0
  0
ARC
  5
1FA2
  8
0
 10
223.49433392734241
 20
-3035.9772528570638
 30
0.0
 40
20.000000000006871
 50
12.46665334453299
 51
159.6109398968573
  0
ARC
  5
1FA3
  8
0
 10
379.94705423018883
 20
-2965.0772528570651
 30
0.0
 40
186.50000000000671
 50
159.9524628299875
 51
200.04753717001159
  0
ARC
  5
1FA4
  8
0
 10
223.49433392734389
 20
-2894.177252857065
 30
0.0
 40
20.000000000006231
 50
200.38906010313499
 51
347.53334665545862
  0
LINE
  5
1FA5
  8
0
 10
243.02277015832831
 20
-2898.4946801433812
 30
0.0
 11
249.6156295363694
 21
-2868.674088989012
 31
0.0
  0
ARC
  5
1FA6
  8
0
 10
255.9623713114361
 20
-2870.0772528570651
 30
0.0
 40
6.499999999998944
 50
89.999999999997257
 51
167.53334665545239
  0
LINE
  5
1FA7
  8
0
 10
255.9623713114365
 20
-2863.5772528570669
 30
0.0
 11
286.44705423018149
 21
-2863.5772528570669
 31
0.0
  0
LINE
  5
1FA8
  8
0
 10
286.44705423018149
 20
-2863.5772528570669
 30
0.0
 11
286.44705423018149
 21
-2829.955275023065
 31
0.0
  0
ARC
  5
20DC
  8
0
 10
-2280.324840774294
 20
3205.4292972882781
 30
0.0
 40
10.0
 50
0.0
 51
90.0
  0
LINE
  5
20DD
  8
0
 10
-2270.324840774294
 20
3205.4292972882781
 30
0.0
 11
-2270.324840774294
 21
3180.4292972882781
 31
0.0
  0
LINE
  5
20DE
  8
0
 10
-2270.324840774294
 20
3180.4292972882781
 30
0.0
 11
-2470.324840774294
 21
3180.4292972882781
 31
0.0
  0
LINE
  5
20DF
  8
0
 10
-2470.324840774294
 20
3180.4292972882781
 30
0.0
 11
-2470.324840774294
 21
3205.4292972882781
 31
0.0
  0
ARC
  5
20E0
  8
0
 10
-2460.324840774294
 20
3205.4292972882781
 30
0.0
 40
10.0
 50
90.0
 51
180.0
  0
LINE
  5
20E1
  8
0
 10
-2460.324840774294
 20
3215.4292972882781
 30
0.0
 11
-2442.324840774294
 21
3215.4292972882781
 31
0.0
  0
ARC
  5
20E2
  8
0
 10
-2442.324840774294
 20
3236.9292972882781
 30
0.0
 40
21.5
 50
270.0
 51
46.174557268048233
  0
ARC
  5
20E3
  8
0
 10
-2425.359482327739
 20
3254.604890992025
 30
0.0
 40
3.0000000000000031
 50
116.2344531838079
 51
226.1745572680525
  0
ARC
  5
20E4
  8
0
 10
-2370.324840774294
 20
3142.929297288279
 30
0.0
 40
127.4999999999999
 50
63.765546816186252
 51
116.2344531838133
  0
ARC
  5
20E5
  8
0
 10
-2315.2901992208499
 20
3254.604890992025
 30
0.0
 40
2.999999999999813
 50
313.82544273194748
 51
63.765546816188269
  0
ARC
  5
20E6
  8
0
 10
-2298.324840774294
 20
3236.9292972882781
 30
0.0
 40
21.5
 50
133.82544273195171
 51
270.0
  0
LINE
  5
20E7
  8
0
 10
-2298.324840774294
 20
3215.4292972882781
 30
0.0
 11
-2280.324840774294
 21
3215.4292972882781
 31
0.0
  0
LINE
  5
2190
  8
0
 10
4530.0174193931998
 20
372.4963806809065
 30
0.0
 11
8704.4918998591456
 21
372.4963806809065
 31
0.0
  0
LINE
  5
2191
  8
0
 10
8704.4918998591456
 20
372.4963806809065
 30
0.0
 11
8704.4918998591456
 21
4733.698551869601
 31
0.0
  0
TEXT
  5
2192
  8
0
 10
4788.4871280007928
 20
4519.3491326982548
 30
0.0
 40
200.0
  1
m200
  0
POLYLINE
  5
2233
  8
0
 66
     1
 10
0.0
 20
0.0
 30
0.0
 70
     1
  0
VERTEX
  5
2274
  8
0
 10
5076.7666803247266
 20
3652.2135346860641
 30
0.0
 42
0.9847006621734241
  0
VERTEX
  5
2275
  8
0
 10
5076.7666803247257
 20
3559.22458672427
 30
0.0
  0
VERTEX
  5
2276
  8
0
 10
5141.9835410083324
 20
3558.2190607051671
 30
0.0
  0
VERTEX
  5
2277
  8
0
 10
5180.3450900881253
 20
3562.0172338813841
 30
0.0
 42
-0.4732789919379679
  0
VERTEX
  5
2278
  8
0
 10
5191.2817141845508
 20
3551.0806097849568
 30
0.0
  0
VERTEX
  5
2279
  8
0
 10
5187.4835410083342
 20
3512.7190607051671
 30
0.0
  0
VERTEX
  5
227A
  8
0
 10
5188.4890670274372
 20
3447.5022000215622
 30
0.0
 42
0.9847006621734497
  0
VERTEX
  5
227B
  8
0
 10
5281.4780149892313
 20
3447.5022000215599
 30
0.0
  0
VERTEX
  5
227C
  8
0
 10
5282.4835410083351
 20
3512.7190607051671
 30
0.0
  0
VERTEX
  5
227D
  8
0
 10
5278.6853678321177
 20
3551.0806097849568
 30
0.0
 42
-0.4732789919379675
  0
VERTEX
  5
227E
  8
0
 10
5289.621991928544
 20
3562.0172338813841
 30
0.0
  0
VERTEX
  5
227F
  8
0
 10
5327.9835410083342
 20
3558.219060705168
 30
0.0
  0
VERTEX
  5
2280
  8
0
 10
5393.2004016919182
 20
3559.2245867242709
 30
0.0
 42
0.9847006621738835
  0
VERTEX
  5
2281
  8
0
 10
5393.2004016919409
 20
3652.213534686065
 30
0.0
  0
VERTEX
  5
2282
  8
0
 10
5327.9835410083342
 20
3653.219060705168
 30
0.0
  0
VERTEX
  5
2283
  8
0
 10
5289.6219919285422
 20
3649.420887528951
 30
0.0
 42
-0.4732789919379678
  0
VERTEX
  5
2284
  8
0
 10
5278.6853678321158
 20
3660.3575116253769
 30
0.0
  0
VERTEX
  5
2285
  8
0
 10
5282.4835410083324
 20
3698.7190607051689
 30
0.0
  0
VERTEX
  5
2286
  8
0
 10
5281.4780149892295
 20
3763.9359213887528
 30
0.0
 42
0.984700662173887
  0
VERTEX
  5
2287
  8
0
 10
5188.4890670274362
 20
3763.935921388776
 30
0.0
  0
VERTEX
  5
2288
  8
0
 10
5187.4835410083333
 20
3698.7190607051689
 30
0.0
  0
VERTEX
  5
2289
  8
0
 10
5191.2817141845499
 20
3660.3575116253769
 30
0.0
 42
-0.4732789919379679
  0
VERTEX
  5
228A
  8
0
 10
5180.3450900881244
 20
3649.420887528951
 30
0.0
  0
VERTEX
  5
228B
  8
0
 10
5141.9835410083324
 20
3653.2190607051671
 30
0.0
  0
SEQEND
  5
228C
  8
0
  0
POLYLINE
  5
2239
  8
0
 66
     1
 10
0.0
 20
0.0
 30
0.0
  0
VERTEX
  5
228D
  8
0
 10
5077.4835410083333
 20
3605.719060705168
 30
0.0
  0
VERTEX
  5
228E
  8
0
 10
5052.9835410083324
 20
3605.719060705168
 30
0.0
 42
-0.9999999999999998
  0
VERTEX
  5
228F
  8
0
 10
5101.9835410083324
 20
3605.719060705168
 30
0.0
 42
-0.9999999999999998
  0
VERTEX
  5
2290
  8
0
 10
5052.9835410083324
 20
3605.719060705168
 30
0.0
  0
VERTEX
  5
2291
  8
0
 10
5072.2193541556844
 20
3599.1906003564332
 30
0.0
  0
SEQEND
  5
2292
  8
0
  0
POLYLINE
  5
223A
  8
0
 66
     1
 10
0.0
 20
0.0
 30
0.0
  0
VERTEX
  5
2293
  8
0
 10
5234.9835410083342
 20
3448.2190607051671
 30
0.0
  0
VERTEX
  5
2294
  8
0
 10
5234.9835410083342
 20
3423.7190607051671
 30
0.0
 42
-0.9999999999999998
  0
VERTEX
  5
2295
  8
0
 10
5234.9835410083342
 20
3472.719060705168
 30
0.0
 42
-0.9999999999999998
  0
VERTEX
  5
2296
  8
0
 10
5234.9835410083342
 20
3423.7190607051671
 30
0.0
  0
VERTEX
  5
2297
  8
0
 10
5241.5120013570686
 20
3442.9548738525191
 30
0.0
  0
SEQEND
  5
2298
  8
0
  0
POLYLINE
  5
223B
  8
0
 66
     1
 10
0.0
 20
0.0
 30
0.0
  0
VERTEX
  5
2299
  8
0
 10
5392.4835410083351
 20
3605.719060705168
 30
0.0
  0
VERTEX
  5
229A
  8
0
 10
5416.9835410083351
 20
3605.719060705168
 30
0.0
 42
-0.9999999999999998
  0
VERTEX
  5
229B
  8
0
 10
5367.9835410083342
 20
3605.719060705168
 30
0.0
 42
-0.9999999999999998
  0
VERTEX
  5
229C
  8
0
 10
5416.9835410083351
 20
3605.719060705168
 30
0.0
  0
VERTEX
  5
229D
  8
0
 10
5397.7477278609822
 20
3612.2475210539019
 30
0.0
  0
SEQEND
  5
229E
  8
0
  0
POLYLINE
  5
223C
  8
0
 66
     1
 10
0.0
 20
0.0
 30
0.0
  0
VERTEX
  5
229F
  8
0
 10
5234.9835410083324
 20
3763.2190607051689
 30
0.0
  0
VERTEX
  5
22A0
  8
0
 10
5234.9835410083324
 20
3787.7190607051689
 30
0.0
 42
-0.9999999999999998
  0
VERTEX
  5
22A1
  8
0
 10
5234.9835410083324
 20
3738.7190607051689
 30
0.0
 42
-0.9999999999999998
  0
VERTEX
  5
22A2
  8
0
 10
5234.9835410083324
 20
3787.7190607051689
 30
0.0
  0
VERTEX
  5
22A3
  8
0
 10
5228.455080659598
 20
3768.4832475578169
 30
0.0
  0
SEQEND
  5
22A4
  8
0
  0
LINE
  5
223D
  8
0
 10
-2262.324840774294
 20
3009.512404639554
 30
0.0
 11
-2269.324840774294
 21
3009.512404639554
 31
0.0
  0
LINE
  5
223E
  8
0
 10
-2269.324840774294
 20
3009.512404639554
 30
0.0
 11
-2269.324840774294
 21
2983.512404639554
 31
0.0
  0
ARC
  5
223F
  8
0
 10
-2280.324840774294
 20
2983.512404639554
 30
0.0
 40
11.0
 50
270.0
 51
0.0
  0
LINE
  5
2240
  8
0
 10
-2280.324840774294
 20
2972.512404639554
 30
0.0
 11
-2298.324840774294
 21
2972.512404639554
 31
0.0
  0
ARC
  5
2241
  8
0
 10
-2298.3248407742908
 20
2952.0124046395531
 30
0.0
 40
20.500000000000909
 50
90.000000000006366
 51
226.174557268039
  0
ARC
  5
2242
  8
0
 10
-2315.2901992208381
 20
2934.3368109358071
 30
0.0
 40
3.9999999999931308
 50
296.23445318394118
 51
46.17455726819275
  0
ARC
  5
2243
  8
0
 10
-2370.324840774294
 20
3046.0124046395322
 30
0.0
 40
128.4999999999788
 50
243.7655468161818
 51
296.2344531838263
  0
ARC
  5
2244
  8
0
 10
-2425.359482327734
 20
2934.3368109358098
 30
0.0
 40
4.0000000000020988
 50
133.82544273192039
 51
243.7655468161249
  0
ARC
  5
2245
  8
0
 10
-2442.324840774294
 20
2952.012404639554
 30
0.0
 40
20.500000000000199
 50
313.82544273196908
 51
90.0
  0
LINE
  5
2246
  8
0
 10
-2442.324840774294
 20
2972.512404639554
 30
0.0
 11
-2460.324840774294
 21
2972.512404639554
 31
0.0
  0
ARC
  5
2247
  8
0
 10
-2460.324840774294
 20
2983.512404639554
 30
0.0
 40
11.0
 50
180.0
 51
270.0
  0
LINE
  5
2248
  8
0
 10
-2471.324840774294
 20
2983.512404639554
 30
0.0
 11
-2471.324840774294
 21
3009.512404639554
 31
0.0
  0
LINE
  5
2249
  8
0
 10
-2471.324840774294
 20
3009.512404639554
 30
0.0
 11
-2269.324840774294
 21
3009.512404639554
 31
0.0
  0
LINE
  5
224A
  8
0
 10
-2269.324840774294
 20
3009.512404639554
 30
0.0
 11
-2269.324840774294
 21
3035.512404639554
 31
0.0
  0
ARC
  5
224B
  8
0
 10
-2280.324840774294
 20
3035.512404639554
 30
0.0
 40
11.0
 50
0.0
 51
90.0
  0
LINE
  5
224C
  8
0
 10
-2280.324840774294
 20
3046.512404639554
 30
0.0
 11
-2298.324840774294
 21
3046.512404639554
 31
0.0
  0
ARC
  5
224D
  8
0
 10
-2298.324840774294
 20
3067.012404639554
 30
0.0
 40
20.499999999999542
 50
133.825442731951
 51
270.0
  0
ARC
  5
224E
  8
0
 10
-2315.2901992208499
 20
3084.6879983432991
 30
0.0
 40
4.0000000000003206
 50
313.82544273195208
 51
63.765546816200839
  0
ARC
  5
224F
  8
0
 10
-2370.3248407742931
 20
2973.0124046395558
 30
0.0
 40
128.49999999999869
 50
63.765546816186919
 51
116.234453183814
  0
ARC
  5
2250
  8
0
 10
-2425.359482327739
 20
3084.6879983432991
 30
0.0
 40
3.9999999999996869
 50
116.2344531838049
 51
226.1745572680482
  0
ARC
  5
2251
  8
0
 10
-2442.324840774294
 20
3067.0124046395549
 30
0.0
 40
20.50000000000032
 50
270.0
 51
46.174557268047117
  0
LINE
  5
2252
  8
0
 10
-2442.324840774294
 20
3046.512404639554
 30
0.0
 11
-2460.324840774294
 21
3046.512404639554
 31
0.0
  0
ARC
  5
2253
  8
0
 10
-2460.324840774294
 20
3035.512404639554
 30
0.0
 40
11.0
 50
90.0
 51
180.0
  0
LINE
  5
2254
  8
0
 10
-2471.324840774294
 20
3035.512404639554
 30
0.0
 11
-2471.324840774294
 21
3009.512404639554
 31
0.0
  0
LINE
  5
2255
  8
0
 10
-2471.324840774294
 20
3009.512404639554
 30
0.0
 11
-2478.324840774294
 21
3009.512404639554
 31
0.0
  0
LINE
  5
2256
  8
0
 10
-2380.8993244486519
 20
2952.427689781638
 30
0.0
 11
-2390.824840774294
 21
2955.0124046395549
 31
0.0
  0
ARC
  5
2257
  8
0
 10
-2370.324840774294
 20
2955.0124046395549
 30
0.0
 40
20.5
 50
180.0
 51
0.0
  0
ARC
  5
2258
  8
0
 10
-2370.324840774294
 20
2955.0124046395549
 30
0.0
 40
20.5
 50
0.0
 51
180.0
  0
LINE
  5
2259
  8
0
 10
-2390.824840774294
 20
2955.0124046395549
 30
0.0
 11
-2381.0135199514689
 21
2956.9916798231279
 31
0.0
  0
LINE
  5
225A
  8
0
 10
-2380.8993244486519
 20
3066.59711949747
 30
0.0
 11
-2390.824840774294
 21
3064.0124046395531
 31
0.0
  0
ARC
  5
225B
  8
0
 10
-2370.324840774294
 20
3064.0124046395531
 30
0.0
 40
20.5
 50
0.0
 51
180.0
  0
ARC
  5
225C
  8
0
 10
-2370.324840774294
 20
3064.0124046395531
 30
0.0
 40
20.5
 50
180.0
 51
0.0
  0
LINE
  5
225D
  8
0
 10
-2390.824840774294
 20
3064.0124046395531
 30
0.0
 11
-2381.0135199514689
 21
3062.0331294559801
 31
0.0
  0
ENDSEC
  0
EOF
