  0
SECTION
  2
HEADER
  9
$ACADVER
  1
AC1009
  9
$INSBASE
 10
0.0
 20
0.0
 30
0.0
  9
$EXTMIN
 10
486.70271174590329
 20
-430.27860399999992
 30
0.0
  9
$EXTMAX
 10
856.33034128515794
 20
538.47989385444509
 30
0.0
  9
$LIMMIN
 10
0.0
 20
0.0
  9
$LIMMAX
 10
420.0
 20
297.0
  9
$ORTHOMODE
 70
     0
  9
$REGENMODE
 70
     1
  9
$FILLMODE
 70
     1
  9
$QTEXTMODE
 70
     0
  9
$MIRRTEXT
 70
     1
  9
$DRAGMODE
 70
     2
  9
$LTSCALE
 40
1.0
  9
$OSMODE
 70
    19
  9
$ATTMODE
 70
     1
  9
$TEXTSIZE
 40
2.5
  9
$TRACEWID
 40
1.0
  9
$TEXTSTYLE
  7
STANDARD
  9
$CLAYER
  8
0
  9
$CELTYPE
  6
BYLAYER
  9
$CECOLOR
 62
   256
  9
$DIMSCALE
 40
1.0
  9
$DIMASZ
 40
2.5
  9
$DIMEXO
 40
0.625
  9
$DIMDLI
 40
3.75
  9
$DIMRND
 40
0.0
  9
$DIMDLE
 40
0.0
  9
$DIMEXE
 40
1.25
  9
$DIMTP
 40
0.0
  9
$DIMTM
 40
0.0
  9
$DIMTXT
 40
2.5
  9
$DIMCEN
 40
2.5
  9
$DIMTSZ
 40
0.0
  9
$DIMTOL
 70
     0
  9
$DIMLIM
 70
     0
  9
$DIMTIH
 70
     0
  9
$DIMTOH
 70
     0
  9
$DIMSE1
 70
     0
  9
$DIMSE2
 70
     0
  9
$DIMTAD
 70
     1
  9
$DIMZIN
 70
     8
  9
$DIMBLK
  1

  9
$DIMASO
 70
     1
  9
$DIMSHO
 70
     1
  9
$DIMPOST
  1

  9
$DIMAPOST
  1

  9
$DIMALT
 70
     0
  9
$DIMALTD
 70
     4
  9
$DIMALTF
 40
0.0394
  9
$DIMLFAC
 40
1.0
  9
$DIMTOFL
 70
     1
  9
$DIMTVP
 40
0.0
  9
$DIMTIX
 70
     0
  9
$DIMSOXD
 70
     0
  9
$DIMSAH
 70
     0
  9
$DIMBLK1
  1

  9
$DIMBLK2
  1

  9
$DIMSTYLE
  2
STANDARD
  9
$DIMCLRD
 70
     0
  9
$DIMCLRE
 70
     0
  9
$DIMCLRT
 70
     0
  9
$DIMTFAC
 40
1.0
  9
$DIMGAP
 40
0.625
  9
$LUNITS
 70
     2
  9
$LUPREC
 70
     4
  9
$SKETCHINC
 40
1.0
  9
$FILLETRAD
 40
10.0
  9
$AUNITS
 70
     0
  9
$AUPREC
 70
     0
  9
$MENU
  1
.
  9
$ELEVATION
 40
0.0
  9
$PELEVATION
 40
0.0
  9
$THICKNESS
 40
0.0
  9
$LIMCHECK
 70
     0
  9
$BLIPMODE
 70
     0
  9
$CHAMFERA
 40
10.0
  9
$CHAMFERB
 40
10.0
  9
$SKPOLY
 70
     0
  9
$TDCREATE
 40
2453999.5713150692
  9
$TDUPDATE
 40
2454204.6066071638
  9
$TDINDWG
 40
0.000256794
  9
$TDUSRTIMER
 40
0.0002566088
  9
$USRTIMER
 70
     1
  9
$ANGBASE
 50
0.0
  9
$ANGDIR
 70
     0
  9
$PDMODE
 70
     0
  9
$PDSIZE
 40
0.0
  9
$PLINEWID
 40
0.0
  9
$COORDS
 70
     1
  9
$SPLFRAME
 70
     0
  9
$SPLINETYPE
 70
     6
  9
$SPLINESEGS
 70
     8
  9
$ATTDIA
 70
     0
  9
$ATTREQ
 70
     1
  9
$HANDLING
 70
     1
  9
$HANDSEED
  5
E3
  9
$SURFTAB1
 70
     6
  9
$SURFTAB2
 70
     6
  9
$SURFTYPE
 70
     6
  9
$SURFU
 70
     6
  9
$SURFV
 70
     6
  9
$UCSNAME
  2

  9
$UCSORG
 10
0.0
 20
0.0
 30
0.0
  9
$UCSXDIR
 10
1.0
 20
0.0
 30
0.0
  9
$UCSYDIR
 10
0.0
 20
1.0
 30
0.0
  9
$PUCSNAME
  2

  9
$PUCSORG
 10
0.0
 20
0.0
 30
0.0
  9
$PUCSXDIR
 10
1.0
 20
0.0
 30
0.0
  9
$PUCSYDIR
 10
0.0
 20
1.0
 30
0.0
  9
$USERI1
 70
     0
  9
$USERI2
 70
     0
  9
$USERI3
 70
     0
  9
$USERI4
 70
     0
  9
$USERI5
 70
     0
  9
$USERR1
 40
0.0
  9
$USERR2
 40
0.0
  9
$USERR3
 40
0.0
  9
$USERR4
 40
0.0
  9
$USERR5
 40
0.0
  9
$WORLDVIEW
 70
     1
  9
$SHADEDGE
 70
     3
  9
$SHADEDIF
 70
    70
  9
$TILEMODE
 70
     1
  9
$MAXACTVP
 70
    48
  9
$PLIMCHECK
 70
     0
  9
$PEXTMIN
 10
1.0000000000000000E+020
 20
1.0000000000000000E+020
 30
1.0000000000000000E+020
  9
$PEXTMAX
 10
-1.0000000000000000E+020
 20
-1.0000000000000000E+020
 30
-1.0000000000000000E+020
  9
$PLIMMIN
 10
0.0
 20
0.0
  9
$PLIMMAX
 10
420.0
 20
297.0
  9
$UNITMODE
 70
     0
  9
$VISRETAIN
 70
     1
  9
$PLINEGEN
 70
     0
  9
$PSLTSCALE
 70
     1
  0
ENDSEC
  0
SECTION
  2
TABLES
  0
TABLE
  2
VPORT
 70
     2
  0
VPORT
  2
*ACTIVE
 70
     0
 10
0.0
 20
0.0
 11
1.0
 21
1.0
 12
788.86396070994408
 22
53.745727999999993
 13
0.0
 23
0.0
 14
10.0
 24
10.0
 15
10.0
 25
10.0
 16
0.0
 26
0.0
 36
1.0
 17
0.0
 27
0.0
 37
0.0
 40
1040.574392999999
 41
2.1420959147424501
 42
50.0
 43
0.0
 44
0.0
 50
0.0
 51
0.0
 71
     0
 72
   100
 73
     1
 74
     1
 75
     0
 76
     0
 77
     0
 78
     0
  0
ENDTAB
  0
TABLE
  2
LTYPE
 70
     1
  0
LTYPE
  2
CONTINUOUS
 70
     0
  3
Solid line
 72
    65
 73
     0
 40
0.0
  0
ENDTAB
  0
TABLE
  2
LAYER
 70
     1
  0
LAYER
  2
0
 70
     0
 62
     7
  6
CONTINUOUS
  0
ENDTAB
  0
TABLE
  2
STYLE
 70
     1
  0
STYLE
  2
STANDARD
 70
     0
 40
0.0
 41
1.0
 50
0.0
 71
     0
 42
2.5
  3
txt
  4

  0
ENDTAB
  0
TABLE
  2
VIEW
 70
     0
  0
ENDTAB
  0
TABLE
  2
UCS
 70
     0
  0
ENDTAB
  0
TABLE
  2
APPID
 70
     1
  0
APPID
  2
ACAD
 70
     0
  0
ENDTAB
  0
TABLE
  2
DIMSTYLE
 70
     1
  0
DIMSTYLE
  2
STANDARD
 70
     0
  3

  4

  5

  6

  7

 40
1.0
 41
0.18
 42
0.0625
 43
0.38
 44
0.18
 45
0.0
 46
0.0
 47
0.0
 48
0.0
140
0.18
141
0.09
142
0.0
143
25.399999999999999
144
1.0
145
0.0
146
1.0
147
0.09
 71
     0
 72
     0
 73
     1
 74
     1
 75
     0
 76
     0
 77
     0
 78
     0
170
     0
171
     2
172
     0
173
     0
174
     0
175
     0
176
     0
177
     0
178
     0
  0
ENDTAB
  0
ENDSEC
  0
SECTION
  2
BLOCKS
  0
BLOCK
  8
0
  2
$MODEL_SPACE
 70
     0
 10
0.0
 20
0.0
 30
0.0
  3
$MODEL_SPACE
  1

  0
ENDBLK
  5
6
  8
0
  0
BLOCK
 67
     1
  8
0
  2
$PAPER_SPACE
 70
     0
 10
0.0
 20
0.0
 30
0.0
  3
$PAPER_SPACE
  1

  0
ENDBLK
  5
9
 67
     1
  8
0
  0
ENDSEC
  0
SECTION
  2
ENTITIES
  0
POLYLINE
  5
1D
  8
0
 66
     1
 10
0.0
 20
0.0
 30
0.0
  0
VERTEX
  5
3F
  8
0
 10
722.38815799999986
 20
-430.27860399999992
 30
0.0
  0
VERTEX
  5
40
  8
0
 10
722.38815799999986
 20
-408.59360499999991
 30
0.0
 42
0.8044
  0
VERTEX
  5
41
  8
0
 10
763.41246599999999
 20
-408.51536900000002
 30
0.0
  0
VERTEX
  5
42
  8
0
 10
781.62451799999997
 20
-324.73701199999999
 30
0.0
 42
-0.165626
  0
VERTEX
  5
43
  8
0
 10
784.61978199999999
 20
-319.76639599999999
 30
0.0
  0
VERTEX
  5
44
  8
0
 10
848.86213399999986
 20
-265.63382100000001
 30
0.0
 42
0.8070289999999999
  0
VERTEX
  5
45
  8
0
 10
829.63478699999985
 20
-229.36196200000001
 30
0.0
  0
VERTEX
  5
46
  8
0
 10
744.87722699999995
 20
-253.24484100000001
 30
0.0
 42
-0.135812
  0
VERTEX
  5
47
  8
0
 10
740.07659699999999
 20
-253.26733300000001
 30
0.0
  0
VERTEX
  5
48
  8
0
 10
655.12020499999994
 20
-230.18547799999999
 30
0.0
 42
0.804405
  0
VERTEX
  5
49
  8
0
 10
636.13084600000002
 20
-266.55042500000002
 30
0.0
  0
VERTEX
  5
4A
  8
0
 10
701.07105499999989
 20
-320.9380450000001
 30
0.0
 42
-0.165418
  0
VERTEX
  5
4B
  8
0
 10
704.07967900000006
 20
-325.89253400000001
 30
0.0
  0
VERTEX
  5
4C
  8
0
 10
722.38815799999986
 20
-408.59360499999991
 30
0.0
  0
VERTEX
  5
4D
  8
0
 10
717.38815799999986
 20
-408.59360499999991
 30
0.0
  0
SEQEND
  5
4E
  8
0
  0
POLYLINE
  5
1E
  8
0
 66
     1
 10
0.0
 20
0.0
 30
0.0
  0
VERTEX
  5
4F
  8
0
 10
513.35970899999995
 20
-430.27860399999992
 30
0.0
  0
VERTEX
  5
50
  8
0
 10
513.35970899999995
 20
-425.05445700000001
 30
0.0
  0
VERTEX
  5
51
  8
0
 10
598.16266100000007
 20
-401.333259
 30
0.0
 42
-0.135812
  0
VERTEX
  5
52
  8
0
 10
602.96332500000005
 20
-401.31992200000002
 30
0.0
  0
VERTEX
  5
53
  8
0
 10
687.87554399999988
 20
-424.56375199999991
 30
0.0
 42
0.804405
  0
VERTEX
  5
54
  8
0
 10
706.93421799999987
 20
-388.23508399999997
 30
0.0
  0
VERTEX
  5
55
  8
0
 10
642.097848
 20
-333.72371900000002
 30
0.0
 42
-0.165418
  0
VERTEX
  5
56
  8
0
 10
639.09867799999995
 20
-328.76350100000002
 30
0.0
  0
VERTEX
  5
57
  8
0
 10
620.94794699999989
 20
-246.02766500000001
 30
0.0
 42
0.8044
  0
VERTEX
  5
58
  8
0
 10
579.92356399999994
 20
-246.02766500000001
 30
0.0
  0
VERTEX
  5
59
  8
0
 10
561.55177600000002
 20
-329.77113900000001
 30
0.0
 42
-0.165626
  0
VERTEX
  5
5A
  8
0
 10
558.54703800000004
 20
-334.73603400000002
 30
0.0
  0
VERTEX
  5
5B
  8
0
 10
494.20156900000001
 20
-388.74599599999999
 30
0.0
 42
0.8070289999999999
  0
VERTEX
  5
5C
  8
0
 10
513.35970899999995
 20
-425.05445700000001
 30
0.0
  0
VERTEX
  5
5D
  8
0
 10
518.17895999999996
 20
-430.130516
 30
0.0
  0
SEQEND
  5
5E
  8
0
  0
POLYLINE
  5
1F
  8
0
 66
     1
 10
0.0
 20
0.0
 30
0.0
  0
VERTEX
  5
5F
  8
0
 10
722.38815799999986
 20
-238.84120200000001
 30
0.0
  0
VERTEX
  5
60
  8
0
 10
722.38815799999986
 20
-217.156203
 30
0.0
 42
0.8044
  0
VERTEX
  5
61
  8
0
 10
763.41246599999999
 20
-217.077967
 30
0.0
  0
VERTEX
  5
62
  8
0
 10
781.62451799999997
 20
-133.29961
 30
0.0
 42
-0.165626
  0
VERTEX
  5
63
  8
0
 10
784.61978199999999
 20
-128.32899399999999
 30
0.0
  0
VERTEX
  5
64
  8
0
 10
848.86213399999986
 20
-74.196418999999992
 30
0.0
 42
0.8070289999999999
  0
VERTEX
  5
65
  8
0
 10
829.63478699999985
 20
-37.92456
 30
0.0
  0
VERTEX
  5
66
  8
0
 10
744.87722699999995
 20
-61.807439000000002
 30
0.0
 42
-0.135812
  0
VERTEX
  5
67
  8
0
 10
740.07659699999999
 20
-61.829931000000002
 30
0.0
  0
VERTEX
  5
68
  8
0
 10
655.12020499999994
 20
-38.748075999999998
 30
0.0
 42
0.804405
  0
VERTEX
  5
69
  8
0
 10
636.13084600000002
 20
-75.113022999999998
 30
0.0
  0
VERTEX
  5
6A
  8
0
 10
701.07105499999989
 20
-129.500643
 30
0.0
 42
-0.165418
  0
VERTEX
  5
6B
  8
0
 10
704.07967900000006
 20
-134.45513199999999
 30
0.0
  0
VERTEX
  5
6C
  8
0
 10
722.38815799999986
 20
-217.156203
 30
0.0
  0
VERTEX
  5
6D
  8
0
 10
717.38815799999986
 20
-217.156203
 30
0.0
  0
SEQEND
  5
6E
  8
0
  0
POLYLINE
  5
20
  8
0
 66
     1
 10
0.0
 20
0.0
 30
0.0
  0
VERTEX
  5
6F
  8
0
 10
513.35970899999995
 20
-238.84120200000001
 30
0.0
  0
VERTEX
  5
70
  8
0
 10
513.35970899999995
 20
-233.61705499999999
 30
0.0
  0
VERTEX
  5
71
  8
0
 10
598.16266100000007
 20
-209.89585700000001
 30
0.0
 42
-0.135812
  0
VERTEX
  5
72
  8
0
 10
602.96332500000005
 20
-209.88252
 30
0.0
  0
VERTEX
  5
73
  8
0
 10
687.87554399999988
 20
-233.12635
 30
0.0
 42
0.804405
  0
VERTEX
  5
74
  8
0
 10
706.93421799999987
 20
-196.79768200000001
 30
0.0
  0
VERTEX
  5
75
  8
0
 10
642.097848
 20
-142.286317
 30
0.0
 42
-0.165418
  0
VERTEX
  5
76
  8
0
 10
639.09867799999995
 20
-137.326099
 30
0.0
  0
VERTEX
  5
77
  8
0
 10
620.94794699999989
 20
-54.590263
 30
0.0
 42
0.8044
  0
VERTEX
  5
78
  8
0
 10
579.92356399999994
 20
-54.590263
 30
0.0
  0
VERTEX
  5
79
  8
0
 10
561.55177600000002
 20
-138.33373700000001
 30
0.0
 42
-0.165626
  0
VERTEX
  5
7A
  8
0
 10
558.54703800000004
 20
-143.298632
 30
0.0
  0
VERTEX
  5
7B
  8
0
 10
494.20156900000001
 20
-197.308594
 30
0.0
 42
0.8070289999999999
  0
VERTEX
  5
7C
  8
0
 10
513.35970899999995
 20
-233.61705499999999
 30
0.0
  0
VERTEX
  5
7D
  8
0
 10
518.17895999999996
 20
-238.69311400000001
 30
0.0
  0
SEQEND
  5
7E
  8
0
  0
POLYLINE
  5
21
  8
0
 66
     1
 10
0.0
 20
0.0
 30
0.0
  0
VERTEX
  5
7F
  8
0
 10
722.38815799999986
 20
-45.979723
 30
0.0
  0
VERTEX
  5
80
  8
0
 10
722.38815799999986
 20
-24.294723999999999
 30
0.0
 42
0.8044
  0
VERTEX
  5
81
  8
0
 10
763.41246599999999
 20
-24.216487999999998
 30
0.0
  0
VERTEX
  5
82
  8
0
 10
781.62451799999997
 20
59.561868999999987
 30
0.0
 42
-0.165626
  0
VERTEX
  5
83
  8
0
 10
784.61978199999999
 20
64.532484999999994
 30
0.0
  0
VERTEX
  5
84
  8
0
 10
848.86213399999986
 20
118.66506
 30
0.0
 42
0.8070289999999999
  0
VERTEX
  5
85
  8
0
 10
829.63478699999985
 20
154.93691899999999
 30
0.0
  0
VERTEX
  5
86
  8
0
 10
744.87722699999995
 20
131.05403999999999
 30
0.0
 42
-0.135812
  0
VERTEX
  5
87
  8
0
 10
740.07659699999999
 20
131.03154799999999
 30
0.0
  0
VERTEX
  5
88
  8
0
 10
655.12020499999994
 20
154.11340300000001
 30
0.0
 42
0.804405
  0
VERTEX
  5
89
  8
0
 10
636.13084600000002
 20
117.748456
 30
0.0
  0
VERTEX
  5
8A
  8
0
 10
701.07105499999989
 20
63.360835999999999
 30
0.0
 42
-0.165418
  0
VERTEX
  5
8B
  8
0
 10
704.07967900000006
 20
58.40634699999999
 30
0.0
  0
VERTEX
  5
8C
  8
0
 10
722.38815799999986
 20
-24.294723999999999
 30
0.0
  0
VERTEX
  5
8D
  8
0
 10
717.38815799999986
 20
-24.294723999999999
 30
0.0
  0
SEQEND
  5
8E
  8
0
  0
POLYLINE
  5
22
  8
0
 66
     1
 10
0.0
 20
0.0
 30
0.0
  0
VERTEX
  5
8F
  8
0
 10
513.35970899999995
 20
-45.979723
 30
0.0
  0
VERTEX
  5
90
  8
0
 10
513.35970899999995
 20
-40.755575999999991
 30
0.0
  0
VERTEX
  5
91
  8
0
 10
598.16266100000007
 20
-17.034378
 30
0.0
 42
-0.135812
  0
VERTEX
  5
92
  8
0
 10
602.96332500000005
 20
-17.021041
 30
0.0
  0
VERTEX
  5
93
  8
0
 10
687.87554399999988
 20
-40.264870999999992
 30
0.0
 42
0.804405
  0
VERTEX
  5
94
  8
0
 10
706.93421799999987
 20
-3.936202999999999
 30
0.0
  0
VERTEX
  5
95
  8
0
 10
642.097848
 20
50.575161999999999
 30
0.0
 42
-0.165418
  0
VERTEX
  5
96
  8
0
 10
639.09867799999995
 20
55.535380000000004
 30
0.0
  0
VERTEX
  5
97
  8
0
 10
620.94794699999989
 20
138.27121600000001
 30
0.0
 42
0.8044
  0
VERTEX
  5
98
  8
0
 10
579.92356399999994
 20
138.27121600000001
 30
0.0
  0
VERTEX
  5
99
  8
0
 10
561.55177600000002
 20
54.527742000000003
 30
0.0
 42
-0.165626
  0
VERTEX
  5
9A
  8
0
 10
558.54703800000004
 20
49.562846999999998
 30
0.0
  0
VERTEX
  5
9B
  8
0
 10
494.20156900000001
 20
-4.4471150000000002
 30
0.0
 42
0.8070289999999999
  0
VERTEX
  5
9C
  8
0
 10
513.35970899999995
 20
-40.755575999999991
 30
0.0
  0
VERTEX
  5
9D
  8
0
 10
518.17895999999996
 20
-45.831634999999999
 30
0.0
  0
SEQEND
  5
9E
  8
0
  0
POLYLINE
  5
23
  8
0
 66
     1
 10
0.0
 20
0.0
 30
0.0
  0
VERTEX
  5
9F
  8
0
 10
722.38815799999986
 20
146.88175799999999
 30
0.0
  0
VERTEX
  5
A0
  8
0
 10
722.38815799999986
 20
168.566757
 30
0.0
 42
0.8044
  0
VERTEX
  5
A1
  8
0
 10
763.41246599999999
 20
168.644993
 30
0.0
  0
VERTEX
  5
A2
  8
0
 10
781.62451799999997
 20
252.42335
 30
0.0
 42
-0.165626
  0
VERTEX
  5
A3
  8
0
 10
784.61978199999999
 20
257.39396599999998
 30
0.0
  0
VERTEX
  5
A4
  8
0
 10
848.86213399999986
 20
311.52654100000001
 30
0.0
 42
0.8070289999999999
  0
VERTEX
  5
A5
  8
0
 10
829.63478699999985
 20
347.79840000000002
 30
0.0
  0
VERTEX
  5
A6
  8
0
 10
744.87722699999995
 20
323.91552100000001
 30
0.0
 42
-0.135812
  0
VERTEX
  5
A7
  8
0
 10
740.07659699999999
 20
323.89302900000001
 30
0.0
  0
VERTEX
  5
A8
  8
0
 10
655.12020499999994
 20
346.97488399999997
 30
0.0
 42
0.804405
  0
VERTEX
  5
A9
  8
0
 10
636.13084600000002
 20
310.609937
 30
0.0
  0
VERTEX
  5
AA
  8
0
 10
701.07105499999989
 20
256.22231699999998
 30
0.0
 42
-0.165418
  0
VERTEX
  5
AB
  8
0
 10
704.07967900000006
 20
251.26782800000001
 30
0.0
  0
VERTEX
  5
AC
  8
0
 10
722.38815799999986
 20
168.566757
 30
0.0
  0
VERTEX
  5
AD
  8
0
 10
717.38815799999986
 20
168.566757
 30
0.0
  0
SEQEND
  5
AE
  8
0
  0
POLYLINE
  5
24
  8
0
 66
     1
 10
0.0
 20
0.0
 30
0.0
  0
VERTEX
  5
AF
  8
0
 10
513.35970899999995
 20
146.88175799999999
 30
0.0
  0
VERTEX
  5
B0
  8
0
 10
513.35970899999995
 20
152.10590500000001
 30
0.0
  0
VERTEX
  5
B1
  8
0
 10
598.16266100000007
 20
175.82710299999999
 30
0.0
 42
-0.135812
  0
VERTEX
  5
B2
  8
0
 10
602.96332500000005
 20
175.84044
 30
0.0
  0
VERTEX
  5
B3
  8
0
 10
687.87554399999988
 20
152.59661
 30
0.0
 42
0.804405
  0
VERTEX
  5
B4
  8
0
 10
706.93421799999987
 20
188.92527799999991
 30
0.0
  0
VERTEX
  5
B5
  8
0
 10
642.097848
 20
243.436643
 30
0.0
 42
-0.165418
  0
VERTEX
  5
B6
  8
0
 10
639.09867799999995
 20
248.396861
 30
0.0
  0
VERTEX
  5
B7
  8
0
 10
620.94794699999989
 20
331.13269700000001
 30
0.0
 42
0.8044
  0
VERTEX
  5
B8
  8
0
 10
579.92356399999994
 20
331.13269700000001
 30
0.0
  0
VERTEX
  5
B9
  8
0
 10
561.55177600000002
 20
247.38922299999999
 30
0.0
 42
-0.165626
  0
VERTEX
  5
BA
  8
0
 10
558.54703800000004
 20
242.424328
 30
0.0
  0
VERTEX
  5
BB
  8
0
 10
494.20156900000001
 20
188.414366
 30
0.0
 42
0.8070289999999999
  0
VERTEX
  5
BC
  8
0
 10
513.35970899999995
 20
152.10590500000001
 30
0.0
  0
VERTEX
  5
BD
  8
0
 10
518.17895999999996
 20
147.02984599999999
 30
0.0
  0
SEQEND
  5
BE
  8
0
  0
POLYLINE
  5
25
  8
0
 66
     1
 10
0.0
 20
0.0
 30
0.0
  0
VERTEX
  5
BF
  8
0
 10
722.38815799999986
 20
336.77613600000001
 30
0.0
  0
VERTEX
  5
C0
  8
0
 10
722.38815799999986
 20
358.46113500000001
 30
0.0
 42
0.8044
  0
VERTEX
  5
C1
  8
0
 10
763.41246599999999
 20
358.53937100000002
 30
0.0
  0
VERTEX
  5
C2
  8
0
 10
781.62451799999997
 20
442.31772799999999
 30
0.0
 42
-0.165626
  0
VERTEX
  5
C3
  8
0
 10
784.61978199999999
 20
447.288344
 30
0.0
  0
VERTEX
  5
C4
  8
0
 10
848.86213399999986
 20
501.42091900000003
 30
0.0
 42
0.8070289999999999
  0
VERTEX
  5
C5
  8
0
 10
829.63478699999985
 20
537.69277799999986
 30
0.0
  0
VERTEX
  5
C6
  8
0
 10
744.87722699999995
 20
513.80989899999986
 30
0.0
 42
-0.135812
  0
VERTEX
  5
C7
  8
0
 10
740.07659699999999
 20
513.78740700000003
 30
0.0
  0
VERTEX
  5
C8
  8
0
 10
655.12020499999994
 20
536.86926200000005
 30
0.0
 42
0.804405
  0
VERTEX
  5
C9
  8
0
 10
636.13084600000002
 20
500.50431500000002
 30
0.0
  0
VERTEX
  5
CA
  8
0
 10
701.07105499999989
 20
446.11669499999988
 30
0.0
 42
-0.165418
  0
VERTEX
  5
CB
  8
0
 10
704.07967900000006
 20
441.16220600000003
 30
0.0
  0
VERTEX
  5
CC
  8
0
 10
722.38815799999986
 20
358.46113500000001
 30
0.0
  0
VERTEX
  5
CD
  8
0
 10
717.38815799999986
 20
358.46113500000001
 30
0.0
  0
SEQEND
  5
CE
  8
0
  0
POLYLINE
  5
26
  8
0
 66
     1
 10
0.0
 20
0.0
 30
0.0
  0
VERTEX
  5
CF
  8
0
 10
513.35970899999995
 20
336.77613600000001
 30
0.0
  0
VERTEX
  5
D0
  8
0
 10
513.35970899999995
 20
342.00028300000002
 30
0.0
  0
VERTEX
  5
D1
  8
0
 10
598.16266100000007
 20
365.72148099999998
 30
0.0
 42
-0.135812
  0
VERTEX
  5
D2
  8
0
 10
602.96332500000005
 20
365.73481800000002
 30
0.0
  0
VERTEX
  5
D3
  8
0
 10
687.87554399999988
 20
342.49098800000002
 30
0.0
 42
0.804405
  0
VERTEX
  5
D4
  8
0
 10
706.93421799999987
 20
378.81965600000001
 30
0.0
  0
VERTEX
  5
D5
  8
0
 10
642.097848
 20
433.33102100000002
 30
0.0
 42
-0.165418
  0
VERTEX
  5
D6
  8
0
 10
639.09867799999995
 20
438.2912389999999
 30
0.0
  0
VERTEX
  5
D7
  8
0
 10
620.94794699999989
 20
521.02707499999985
 30
0.0
 42
0.8044
  0
VERTEX
  5
D8
  8
0
 10
579.92356399999994
 20
521.02707499999985
 30
0.0
  0
VERTEX
  5
D9
  8
0
 10
561.55177600000002
 20
437.28360099999992
 30
0.0
 42
-0.165626
  0
VERTEX
  5
DA
  8
0
 10
558.54703800000004
 20
432.31870599999991
 30
0.0
  0
VERTEX
  5
DB
  8
0
 10
494.20156900000001
 20
378.30874399999999
 30
0.0
 42
0.8070289999999999
  0
VERTEX
  5
DC
  8
0
 10
513.35970899999995
 20
342.00028300000002
 30
0.0
  0
VERTEX
  5
DD
  8
0
 10
518.17895999999996
 20
336.92422400000009
 30
0.0
  0
SEQEND
  5
DE
  8
0
  0
ENDSEC
  0
EOF
